<?xml version="1.0" encoding="UTF-8" standalone="no"?>
<!-- Created with Inkscape (http://www.inkscape.org/) -->

<svg
   width="720"
   height="84"
   viewBox="0 0 720 84"
   version="1.1"
   id="svg5"
   xmlns="http://www.w3.org/2000/svg"
   xmlns:svg="http://www.w3.org/2000/svg">
  <defs
     id="defs2">
    <rect
       x="8"
       y="8"
       width="472"
       height="72"
       id="rect866" />
    <rect
       x="72"
       y="0"
       width="416"
       height="152"
       id="rect445" />
  </defs>
  <g
     id="layer1">
    <style>
        #text864 {
            fill: black;
        }
        @media (prefers-color-scheme: dark) {
            #text864 {
                fill: white;
            }
        }
    </style>
    <g
       aria-label="OpenCascade-hs"
       transform="matrix(1.7094017,0,0,1.7094017,95.316239,-9.8133703)"
       id="text864"
       style="font-size:40px;line-height:1.25;font-family:Roboto;-inkscape-font-specification:Roboto;letter-spacing:0px;word-spacing:0px;white-space:pre;shape-inside:url(#rect866);stroke-width:0.585;">
      <path
         d="m 24.88,45.180822 q -3.28,0 -6.04,-1.08 -2.76,-1.08 -4.8,-3 -2.04,-1.96 -3.16,-4.56 -1.12,-2.64 -1.12,-5.76 0,-3.12 1.12,-5.72 1.12,-2.64 3.16,-4.56 2.04,-1.96 4.8,-3.04 2.76,-1.08 6,-1.08 3.28,0 6,1.08 2.76,1.08 4.8,3.04 2.04,1.92 3.16,4.56 1.12,2.6 1.12,5.72 0,3.12 -1.12,5.76 -1.12,2.64 -3.16,4.56 -2.04,1.92 -4.8,3 -2.72,1.08 -5.96,1.08 z m -0.04,-4.56 q 2.12,0 3.92,-0.72 1.8,-0.72 3.12,-2.04 1.32,-1.36 2.04,-3.12 0.76,-1.8 0.76,-3.96 0,-2.16 -0.76,-3.92 -0.72,-1.8 -2.04,-3.12 -1.32,-1.36 -3.12,-2.08 -1.8,-0.72 -3.92,-0.72 -2.12,0 -3.92,0.72 -1.76,0.72 -3.12,2.08 -1.32,1.32 -2.08,3.12 -0.72,1.76 -0.72,3.92 0,2.12 0.72,3.92 0.76,1.8 2.08,3.16 1.32,1.32 3.12,2.04 1.8,0.72 3.92,0.72 z"
         style="font-weight:600;font-family:Montserrat;-inkscape-font-specification:'Montserrat Semi-Bold';"
         id="path398" />
      <path
         d="m 56.800038,45.060822 q -2.6,0 -4.76,-1.2 -2.12,-1.2 -3.4,-3.6 -1.24,-2.44 -1.24,-6.16 0,-3.76 1.2,-6.16 1.24,-2.4 3.36,-3.56 2.12,-1.2 4.84,-1.2 3.16,0 5.56,1.36 2.44,1.36 3.84,3.8 1.44,2.44 1.44,5.76 0,3.32 -1.44,5.8 -1.4,2.44 -3.84,3.8 -2.4,1.36 -5.56,1.36 z m -11.84,7.48 v -29.12 h 4.76 v 5.04 l -0.16,5.68 0.4,5.68 v 12.72 z m 11.28,-11.76 q 1.8,0 3.2,-0.8 1.44,-0.8 2.28,-2.32 0.84,-1.52 0.84,-3.56 0,-2.08 -0.84,-3.56 -0.84,-1.52 -2.28,-2.32 -1.4,-0.8 -3.2,-0.8 -1.8,0 -3.24,0.8 -1.44,0.8 -2.28,2.32 -0.84,1.48 -0.84,3.56 0,2.04 0.84,3.56 0.84,1.52 2.28,2.32 1.44,0.8 3.24,0.8 z"
         style="font-weight:600;font-family:Montserrat;-inkscape-font-specification:'Montserrat Semi-Bold';"
         id="path400" />
      <path
         d="m 82.440071,45.060822 q -3.56,0 -6.24,-1.4 -2.64,-1.44 -4.12,-3.92 -1.44,-2.48 -1.44,-5.64 0,-3.2 1.4,-5.64 1.44,-2.48 3.92,-3.88 2.52,-1.4 5.72,-1.4 3.12,0 5.56,1.36 2.44,1.36 3.84,3.84 1.4,2.48 1.4,5.84 0,0.32 -0.04,0.72 0,0.4 -0.04,0.76 h -17.8 v -3.32 h 15.16 l -1.96,1.04 q 0.04,-1.84 -0.76,-3.24 -0.8,-1.4 -2.2,-2.2 -1.36,-0.8 -3.16,-0.8 -1.84,0 -3.24,0.8 -1.36,0.8 -2.16,2.24 -0.76,1.4 -0.76,3.32 v 0.8 q 0,1.92 0.88,3.4 0.88,1.48 2.48,2.28 1.6,0.8 3.68,0.8 1.8,0 3.24,-0.56 1.44,-0.56 2.56,-1.76 l 2.68,3.08 q -1.44,1.68 -3.64,2.6 -2.16,0.88 -4.96,0.88 z"
         style="font-weight:600;font-family:Montserrat;-inkscape-font-specification:'Montserrat Semi-Bold';"
         id="path402" />
      <path
         d="m 109.40006,23.180822 q 2.56,0 4.56,1 2.04,1 3.2,3.08 1.16,2.04 1.16,5.28 v 12.24 h -5 v -11.6 q 0,-2.84 -1.36,-4.24 -1.32,-1.4 -3.72,-1.4 -1.76,0 -3.12,0.72 -1.36,0.72 -2.12,2.16 -0.72,1.4 -0.72,3.56 v 10.8 h -4.999999 v -21.36 h 4.759999 v 5.76 l -0.84,-1.76 q 1.12,-2.04 3.24,-3.12 2.16,-1.12 4.96,-1.12 z"
         style="font-weight:600;font-family:Montserrat;-inkscape-font-specification:'Montserrat Semi-Bold';"
         id="path404" />
      <path
         d="m 138.12004,45.180822 q -3.2,0 -5.96,-1.04 -2.72,-1.08 -4.76,-3 -2,-1.96 -3.12,-4.6 -1.12,-2.64 -1.12,-5.76 0,-3.12 1.12,-5.76 1.12,-2.64 3.16,-4.56 2.04,-1.96 4.76,-3 2.72,-1.08 5.96,-1.08 3.44,0 6.28,1.2 2.84,1.16 4.8,3.48 l -3.36,3.16 q -1.52,-1.64 -3.4,-2.44 -1.88,-0.84 -4.08,-0.84 -2.2,0 -4.04,0.72 -1.8,0.72 -3.16,2.04 -1.32,1.32 -2.08,3.12 -0.72,1.8 -0.72,3.96 0,2.16 0.72,3.96 0.76,1.8 2.08,3.12 1.36,1.32 3.16,2.04 1.84,0.72 4.04,0.72 2.2,0 4.08,-0.8 1.88,-0.84 3.4,-2.52 l 3.36,3.2 q -1.96,2.28 -4.8,3.48 -2.84,1.2 -6.32,1.2 z"
         style="font-weight:600;font-family:Montserrat;-inkscape-font-specification:'Montserrat Semi-Bold';"
         id="path406" />
      <path
         d="m 166.71104,44.780822 v -4.32 l -0.28,-0.92 v -7.56 q 0,-2.2 -1.32,-3.4 -1.32,-1.24 -4,-1.24 -1.8,0 -3.56,0.56 -1.72,0.56 -2.92,1.56 l -1.96,-3.64 q 1.72,-1.32 4.08,-1.96 2.4,-0.68 4.96,-0.68 4.64,0 7.16,2.24 2.56,2.2 2.56,6.84 v 12.52 z m -6.72,0.28 q -2.4,0 -4.2,-0.8 -1.8,-0.84 -2.8,-2.28 -0.96,-1.48 -0.96,-3.32 0,-1.8 0.84,-3.24 0.88,-1.44 2.84,-2.28 1.96,-0.84 5.2,-0.84 h 6.2 v 3.32 h -5.84 q -2.56,0 -3.44,0.84 -0.88,0.8 -0.88,2 0,1.36 1.08,2.16 1.08,0.8 3,0.8 1.84,0 3.28,-0.84 1.48,-0.84 2.12,-2.48 l 0.84,3 q -0.72,1.88 -2.6,2.92 -1.84,1.04 -4.68,1.04 z"
         style="font-weight:600;font-family:Montserrat;-inkscape-font-specification:'Montserrat Semi-Bold';"
         id="path408" />
      <path
         d="m 184.43106,45.060822 q -2.68,0 -5.16,-0.68 -2.44,-0.72 -3.88,-1.72 l 1.92,-3.8 q 1.44,0.92 3.44,1.52 2,0.6 4,0.6 2.36,0 3.4,-0.64 1.08,-0.64 1.08,-1.72 0,-0.88 -0.72,-1.32 -0.72,-0.48 -1.88,-0.72 -1.16,-0.24 -2.6,-0.44 -1.4,-0.2 -2.84,-0.52 -1.4,-0.36 -2.56,-1 -1.16,-0.68 -1.88,-1.8 -0.72,-1.12 -0.72,-2.96 0,-2.04 1.16,-3.52 1.16,-1.52 3.24,-2.32 2.12,-0.84 5,-0.84 2.16,0 4.36,0.48 2.2,0.48 3.64,1.36 l -1.92,3.8 q -1.52,-0.92 -3.08,-1.24 -1.52,-0.36 -3.04,-0.36 -2.28,0 -3.4,0.68 -1.08,0.68 -1.08,1.72 0,0.96 0.72,1.44 0.72,0.48 1.88,0.76 1.16,0.28 2.56,0.48 1.44,0.16 2.84,0.52 1.4,0.36 2.56,1 1.2,0.6 1.92,1.72 0.72,1.12 0.72,2.92 0,2 -1.2,3.48 -1.16,1.48 -3.32,2.32 -2.16,0.8 -5.16,0.8 z"
         style="font-weight:600;font-family:Montserrat;-inkscape-font-specification:'Montserrat Semi-Bold';"
         id="path410" />
      <path
         d="m 208.23103,45.060822 q -3.36,0 -6,-1.4 -2.6,-1.44 -4.08,-3.92 -1.48,-2.48 -1.48,-5.64 0,-3.2 1.48,-5.64 1.48,-2.48 4.08,-3.88 2.64,-1.4 6,-1.4 3.12,0 5.48,1.28 2.4,1.24 3.64,3.68 l -3.84,2.24 q -0.96,-1.52 -2.36,-2.24 -1.36,-0.72 -2.96,-0.72 -1.84,0 -3.32,0.8 -1.48,0.8 -2.32,2.32 -0.84,1.48 -0.84,3.56 0,2.08 0.84,3.6 0.84,1.48 2.32,2.28 1.48,0.8 3.32,0.8 1.6,0 2.96,-0.72 1.4,-0.72 2.36,-2.24 l 3.84,2.24 q -1.24,2.4 -3.64,3.72 -2.36,1.28 -5.48,1.28 z"
         style="font-weight:600;font-family:Montserrat;-inkscape-font-specification:'Montserrat Semi-Bold';"
         id="path412" />
      <path
         d="m 234.83101,44.780822 v -4.32 l -0.28,-0.92 v -7.56 q 0,-2.2 -1.32,-3.4 -1.32,-1.24 -4,-1.24 -1.8,0 -3.56,0.56 -1.72,0.56 -2.92,1.56 l -1.96,-3.64 q 1.72,-1.32 4.08,-1.96 2.4,-0.68 4.96,-0.68 4.64,0 7.16,2.24 2.56,2.2 2.56,6.84 v 12.52 z m -6.72,0.28 q -2.4,0 -4.2,-0.8 -1.8,-0.84 -2.8,-2.28 -0.96,-1.48 -0.96,-3.32 0,-1.8 0.84,-3.24 0.88,-1.44 2.84,-2.28 1.96,-0.84 5.2,-0.84 h 6.2 v 3.32 h -5.84 q -2.56,0 -3.44,0.84 -0.88,0.8 -0.88,2 0,1.36 1.08,2.16 1.08,0.8 3,0.8 1.84,0 3.28,-0.84 1.48,-0.84 2.12,-2.48 l 0.84,3 q -0.72,1.88 -2.6,2.92 -1.84,1.04 -4.68,1.04 z"
         style="font-weight:600;font-family:Montserrat;-inkscape-font-specification:'Montserrat Semi-Bold';"
         id="path414" />
      <path
         d="m 255.04275,45.060822 q -3.08,0 -5.56,-1.36 -2.44,-1.4 -3.84,-3.84 -1.4,-2.44 -1.4,-5.76 0,-3.32 1.4,-5.76 1.4,-2.44 3.84,-3.8 2.48,-1.36 5.56,-1.36 2.68,0 4.8,1.2 2.12,1.16 3.36,3.56 1.24,2.4 1.24,6.16 0,3.72 -1.2,6.16 -1.2,2.4 -3.32,3.6 -2.12,1.2 -4.88,1.2 z m 0.6,-4.28 q 1.8,0 3.2,-0.8 1.44,-0.8 2.28,-2.32 0.88,-1.52 0.88,-3.56 0,-2.08 -0.88,-3.56 -0.84,-1.52 -2.28,-2.32 -1.4,-0.8 -3.2,-0.8 -1.8,0 -3.24,0.8 -1.4,0.8 -2.28,2.32 -0.84,1.48 -0.84,3.56 0,2.04 0.84,3.56 0.88,1.52 2.28,2.32 1.44,0.8 3.24,0.8 z m 6.48,4 v -5.04 l 0.2,-5.68 -0.4,-5.68 v -13.28 h 4.96 v 29.68 z"
         style="font-weight:600;font-family:Montserrat;-inkscape-font-specification:'Montserrat Semi-Bold';"
         id="path416" />
      <path
         d="m 283.52276,45.060822 q -3.56,0 -6.24,-1.4 -2.64,-1.44 -4.12,-3.92 -1.44,-2.48 -1.44,-5.64 0,-3.2 1.4,-5.64 1.44,-2.48 3.92,-3.88 2.52,-1.4 5.72,-1.4 3.12,0 5.56,1.36 2.44,1.36 3.84,3.84 1.4,2.48 1.4,5.84 0,0.32 -0.04,0.72 0,0.4 -0.04,0.76 h -17.8 v -3.32 h 15.16 l -1.96,1.04 q 0.04,-1.84 -0.76,-3.24 -0.8,-1.4 -2.2,-2.2 -1.36,-0.8 -3.16,-0.8 -1.84,0 -3.24,0.8 -1.36,0.8 -2.16,2.24 -0.76,1.4 -0.76,3.32 v 0.8 q 0,1.92 0.88,3.4 0.88,1.48 2.48,2.28 1.6,0.8 3.68,0.8 1.8,0 3.24,-0.56 1.44,-0.56 2.56,-1.76 l 2.68,3.08 q -1.44,1.68 -3.64,2.6 -2.16,0.88 -4.96,0.88 z"
         style="font-weight:600;font-family:Montserrat;-inkscape-font-specification:'Montserrat Semi-Bold';"
         id="path418" />
      <path
         d="m 297.68276,35.740822 v -4.16 h 11 v 4.16 z"
         style="font-weight:600;font-family:Montserrat;-inkscape-font-specification:'Montserrat Semi-Bold';"
         id="path420" />
      <path
         d="m 326.28275,23.180822 q 2.56,0 4.56,1 2.04,1 3.2,3.08 1.16,2.04 1.16,5.28 v 12.24 h -5 v -11.6 q 0,-2.84 -1.36,-4.24 -1.32,-1.4 -3.72,-1.4 -1.76,0 -3.12,0.72 -1.36,0.72 -2.12,2.16 -0.72,1.4 -0.72,3.56 v 10.8 h -5 v -29.68 h 5 v 14.08 l -1.08,-1.76 q 1.12,-2.04 3.24,-3.12 2.16,-1.12 4.96,-1.12 z"
         style="font-weight:600;font-family:Montserrat;-inkscape-font-specification:'Montserrat Semi-Bold';"
         id="path422" />
      <path
         d="m 348.16275,45.060822 q -2.68,0 -5.16,-0.68 -2.44,-0.72 -3.88,-1.72 l 1.92,-3.8 q 1.44,0.92 3.44,1.52 2,0.6 4,0.6 2.36,0 3.4,-0.64 1.08,-0.64 1.08,-1.72 0,-0.88 -0.72,-1.32 -0.72,-0.48 -1.88,-0.72 -1.16,-0.24 -2.6,-0.44 -1.4,-0.2 -2.84,-0.52 -1.4,-0.36 -2.56,-1 -1.16,-0.68 -1.88,-1.8 -0.72,-1.12 -0.72,-2.96 0,-2.04 1.16,-3.52 1.16,-1.52 3.24,-2.32 2.12,-0.84 5,-0.84 2.16,0 4.36,0.48 2.2,0.48 3.64,1.36 l -1.92,3.8 q -1.52,-0.92 -3.08,-1.24 -1.52,-0.36 -3.04,-0.36 -2.28,0 -3.4,0.68 -1.08,0.68 -1.08,1.72 0,0.96 0.72,1.44 0.72,0.48 1.88,0.76 1.16,0.28 2.56,0.48 1.44,0.16 2.84,0.52 1.4,0.36 2.56,1 1.2,0.6 1.92,1.72 0.72,1.12 0.72,2.92 0,2 -1.2,3.48 -1.16,1.48 -3.32,2.32 -2.16,0.8 -5.16,0.8 z"
         style="font-weight:600;font-family:Montserrat;-inkscape-font-specification:'Montserrat Semi-Bold';"
         id="path424" />
    </g>
    <path
       fill="#453a62"
       d="m 12.499999,71.999999 20.083333,-30.125 -20.083333,-30.125 h 15.0625 l 20.083333,30.125 -20.083333,30.125"
       id="path1084"
       style="fill:#ff304c;fill-opacity:1;stroke-width:0.999999" />
    <path
       fill="#5e5086"
       d="m 32.583332,71.999999 20.083334,-30.125 -20.083334,-30.125 h 15.0625 l 40.166667,60.25 h -15.0625 L 60.197916,53.171874 47.645832,71.999999"
       id="path1086"
       style="fill:#0070ad;fill-opacity:1;stroke-width:0.999999" />
    <path
       fill="#8f4e8b"
       d="M 81.084582,54.427082 74.421936,44.385416 H 97.854165 V 54.427082 M 71.073041,39.364582 64.38027,29.322916 h 33.473895 v 10.041666"
       id="path1088"
       style="fill:#12abdb;fill-opacity:1;stroke-width:0.999999" />
  </g>
</svg>
