<?xml version="1.0" encoding="UTF-8" standalone="no"?>
<!-- Created with Inkscape (http://www.inkscape.org/) -->

<svg
   width="490"
   height="84"
   viewBox="0 0 490 84"
   version="1.1"
   id="svg5"
   inkscape:version="1.2.2 (b0a8486541, 2022-12-01)"
   sodipodi:docname="waterfall-cad-logo-name.svg"
   inkscape:export-filename="waterfall-logo.png"
   inkscape:export-xdpi="383.99997"
   inkscape:export-ydpi="383.99997"
   xmlns:inkscape="http://www.inkscape.org/namespaces/inkscape"
   xmlns:sodipodi="http://sodipodi.sourceforge.net/DTD/sodipodi-0.dtd"
   xmlns:xlink="http://www.w3.org/1999/xlink"
   xmlns="http://www.w3.org/2000/svg"
   xmlns:svg="http://www.w3.org/2000/svg">
  <sodipodi:namedview
     id="namedview7"
     pagecolor="#ffffff"
     bordercolor="#666666"
     borderopacity="1.0"
     inkscape:showpageshadow="2"
     inkscape:pageopacity="0.0"
     inkscape:pagecheckerboard="0"
     inkscape:deskcolor="#d1d1d1"
     inkscape:document-units="mm"
     showgrid="true"
     showguides="true"
     inkscape:zoom="1.4142135"
     inkscape:cx="42.072855"
     inkscape:cy="-67.5287"
     inkscape:window-width="1889"
     inkscape:window-height="1058"
     inkscape:window-x="31"
     inkscape:window-y="226"
     inkscape:window-maximized="1"
     inkscape:current-layer="layer1">
    <inkscape:grid
       type="xygrid"
       id="grid2188"
       spacingx="1"
       spacingy="1"
       empspacing="2"
       dotted="false"
       originx="0"
       originy="0" />
  </sodipodi:namedview>
  <defs
     id="defs2">
    <rect
       x="72"
       y="0"
       width="416"
       height="152"
       id="rect445" />
    <linearGradient
       inkscape:collect="always"
       id="linearGradient1501">
      <stop
         style="stop-color:#ff0000;stop-opacity:1;"
         offset="0"
         id="stop1497" />
      <stop
         style="stop-color:#ff0000;stop-opacity:0;"
         offset="1"
         id="stop1499" />
    </linearGradient>
    <linearGradient
       inkscape:collect="always"
       id="linearGradient16022">
      <stop
         style="stop-color:#ff441f;stop-opacity:1;"
         offset="0"
         id="stop16018" />
      <stop
         style="stop-color:#ff441f;stop-opacity:1;"
         offset="0.13668643"
         id="stop1462" />
      <stop
         style="stop-color:#ff6747;stop-opacity:1;"
         offset="0.13668643"
         id="stop1454" />
      <stop
         style="stop-color:#ff6647;stop-opacity:1;"
         offset="0.35780355"
         id="stop1458" />
      <stop
         style="stop-color:#ff937d;stop-opacity:1;"
         offset="0.35780355"
         id="stop1466" />
      <stop
         style="stop-color:#ff937d;stop-opacity:1;"
         offset="0.55695635"
         id="stop1468" />
      <stop
         style="stop-color:#ffaa99;stop-opacity:1;"
         offset="0.55695635"
         id="stop1460" />
      <stop
         style="stop-color:#ffaa99;stop-opacity:1;"
         offset="0.7174623"
         id="stop1456" />
      <stop
         style="stop-color:#ffc4b8;stop-opacity:1;"
         offset="0.7174623"
         id="stop1470" />
      <stop
         style="stop-color:#ffc4b8;stop-opacity:1;"
         offset="0.84238327"
         id="stop1472" />
      <stop
         style="stop-color:#ffffff;stop-opacity:1;"
         offset="1"
         id="stop1464" />
      <stop
         style="stop-color:#ffffff;stop-opacity:1;"
         offset="1"
         id="stop16020" />
    </linearGradient>
    <linearGradient
       inkscape:collect="always"
       xlink:href="#linearGradient16022"
       id="linearGradient16024"
       x1="32.056713"
       y1="0.13268661"
       x2="32.056713"
       y2="57"
       gradientUnits="userSpaceOnUse" />
    <linearGradient
       inkscape:collect="always"
       xlink:href="#linearGradient1501"
       id="linearGradient1503"
       x1="0.056712605"
       y1="32.132687"
       x2="64.056717"
       y2="32.132687"
       gradientUnits="userSpaceOnUse" />
  </defs>
  <g
     inkscape:label="Layer 1"
     inkscape:groupmode="layer"
     id="layer1">
    <circle
       style="fill:url(#linearGradient16024);fill-opacity:1;stroke:url(#linearGradient1503);stroke-width:0;stroke-linecap:round;stroke-linejoin:round;stroke-dasharray:none"
       id="circle14332"
       cx="42.056713"
       cy="42.155018"
       r="32" />
    <path
       id="path13469-8"
       style="fill:#eff8fb;fill-opacity:1;stroke:none;stroke-width:1px;stroke-linecap:butt;stroke-linejoin:miter;stroke-opacity:1"
       d="m 21.85023,25.273939 c -0.659094,-0.03945 -2.199954,0.674841 -2.199954,2.024518 -1.1119,-1.362978 -3.84992,-0.674837 -3.299932,1.349678 -1.649963,-0.674838 -4.144924,1.342833 -2.199954,3.374195 h 7.69984 0.549988 7.699839 c 0,-1.99162 -0.54999,-4.049033 -2.199954,-3.374195 0.549988,-2.024515 -2.188032,-2.712656 -3.299931,-1.349678 0,-1.349677 -1.54086,-2.063971 -2.199954,-2.024518 z"
       sodipodi:nodetypes="ccccccccccc" />
    <path
       id="path13469-8-3"
       style="fill:#d7eef4;fill-opacity:1;stroke:none;stroke-width:1px;stroke-linecap:butt;stroke-linejoin:miter;stroke-opacity:1"
       d="m 13.509765,30.02233 c -0.174812,0.590253 -0.03539,1.293961 0.640625,2 h 7.699219 0.550782 7.699218 c 0,-0.165811 -0.0056,-0.331184 -0.01367,-0.496094 -4.38e-4,-0.0091 4.62e-4,-0.01825 0,-0.02734 -7.13e-4,-0.01384 -0.0031,-0.02719 -0.0039,-0.04102 -0.0089,-0.159774 -0.02,-0.318979 -0.03711,-0.474609 -0.01822,-0.165743 -0.04023,-0.328616 -0.06836,-0.486329 -5.88e-4,-0.0033 -0.0014,-0.0065 -0.002,-0.0098 -0.0032,-0.01799 -0.0083,-0.03488 -0.01172,-0.05273 -0.02583,-0.13686 -0.05394,-0.270548 -0.08789,-0.398437 -0.0012,-0.0046 -0.0027,-0.0091 -0.0039,-0.01367 z" />
    <path
       id="path13469-8-9"
       style="fill:#eff8fb;fill-opacity:1;stroke:none;stroke-width:1px;stroke-linecap:butt;stroke-linejoin:miter;stroke-opacity:1"
       d="m 61.605089,25.264141 c -0.659095,-0.03945 -2.199953,0.674841 -2.199953,2.024518 -1.111902,-1.362978 -3.849922,-0.674837 -3.299934,1.349678 -1.649963,-0.674838 -2.199954,1.382575 -2.199954,3.374195 h 7.699841 0.549987 7.699841 c 1.742332,-1.788018 -0.549991,-4.049033 -2.199956,-3.374195 0.549988,-2.024515 -2.188032,-2.712656 -3.299931,-1.349678 0,-1.349677 -1.54086,-2.063971 -2.199954,-2.024518 z"
       sodipodi:nodetypes="ccccccccccc" />
    <path
       id="path13469-8-9-6"
       style="fill:#d7eef4;fill-opacity:1;stroke:none;stroke-width:1px;stroke-linecap:butt;stroke-linejoin:miter;stroke-opacity:1"
       d="m 54.134766,30.012564 c -0.0012,0.0045 -0.0027,0.0092 -0.0039,0.01367 -0.07798,0.293671 -0.132834,0.614194 -0.169921,0.947266 -0.0164,0.147306 -0.0281,0.298127 -0.03711,0.449219 -0.0028,0.04813 -0.0057,0.09619 -0.0078,0.144531 -0.0066,0.148237 -0.01172,0.296464 -0.01172,0.445312 h 7.699219 0.002 0.548828 7.699219 0.002 c 0.599531,-0.615251 0.721987,-1.286623 0.55664,-1.875 z" />
    <path
       id="path3694"
       style="fill:#aaccff;stroke:#ff0000;stroke-width:0;stroke-linecap:round;stroke-linejoin:round;stroke-dasharray:none"
       d="M 13.808593,57.02233 C 19.32057,67.528196 30.192661,74.122262 42.056641,74.155142 53.920621,74.122262 64.792712,67.528196 70.304688,57.02233 Z"
       sodipodi:nodetypes="cccc" />
    <path
       id="path3694-6"
       style="fill:#87aade;stroke:#ff0000;stroke-width:0;stroke-linecap:round;stroke-linejoin:round;stroke-dasharray:none"
       d="m 17.0625,62.02233 c 6.020814,7.520394 15.14919,11.96837 24.871094,12 9.721199,-0.03163 19.018889,-4.480313 25.066406,-12 z" />
    <path
       id="path3694-6-0-6"
       style="fill:#5f8dd3;stroke:#ff0000;stroke-width:0;stroke-linecap:round;stroke-linejoin:round;stroke-dasharray:none"
       d="m 18.929687,64.02233 c 5.979758,6.311917 14.299219,9.958831 23.070313,10 8.757154,-0.0411 17.232358,-3.70018 23.240234,-10 z" />
    <path
       id="path3694-6-0-6-2"
       style="fill:#3771c8;stroke:#ff0000;stroke-width:0;stroke-linecap:round;stroke-linejoin:round;stroke-dasharray:none"
       d="m 21.058594,66.02233 c 5.787505,5.104486 13.224669,7.945618 20.941406,8 7.716737,-0.05438 14.918218,-2.215239 20.706265,-7.503571 -0.676777,0.08378 -1.182389,-0.216735 -1.624883,-0.496429 -1.329411,1.200905 -2.690375,1.460438 -4.10899,0 -1.829056,1.802502 -2.839577,0.772805 -3.924343,0 -1.774447,1.721155 -2.912878,0.886624 -4.038345,0 -1.255148,1.09258 -2.530306,1.556635 -3.869793,0 -1.699009,1.61274 -2.999726,1.025574 -4.221069,0 -1.368424,1.425692 -2.602807,1.238222 -3.74988,0 -1.36408,1.106945 -2.74363,1.544273 -4.168962,0 -1.280959,1.214669 -2.593664,1.447719 -3.960727,0 -1.150144,0.862241 -2.296514,1.739123 -4.117263,0 -1.756936,1.797977 -2.778966,0.779375 -3.863416,0 z"
       sodipodi:nodetypes="cccccccccccccc" />
    <path
       id="path3748-5"
       style="fill:#b3b3b3;stroke:none;stroke-width:2;stroke-linecap:round;stroke-linejoin:round;stroke-dasharray:none"
       inkscape:transform-center-y="-6.5913267"
       d="m 31.083984,20.998892 -18.125,34.4375 a 32,32 0 0 0 1.943359,3.5625 h 36.181641 z" />
    <path
       style="fill:#808080;stroke:none;stroke-width:1px;stroke-linecap:butt;stroke-linejoin:miter;stroke-opacity:1"
       d="M 29.08376,49.999329 26,51.02233 l -2,4 -6.343082,4.969373 15.26117,0.01382 z"
       id="path16836"
       sodipodi:nodetypes="cccccc" />
    <path
       style="fill:#666666;stroke:none;stroke-width:1px;stroke-linecap:butt;stroke-linejoin:miter;stroke-opacity:1"
       d="m 28,46.02233 -2,3 2,4 -4,7 h 12 l -2.91624,-7.023001 z"
       id="path16108"
       sodipodi:nodetypes="ccccccc" />
    <path
       id="path16840"
       style="fill:#999999;stroke:none;stroke-width:1px;stroke-linecap:butt;stroke-linejoin:miter;stroke-opacity:1"
       d="M 27.083984,29.998892 13.003906,55.518424 c 0.560268,1.198279 1.780945,3.412133 2.574261,4.500255 l 2.417341,3.38e-4 2.088476,-6.020122 -3,1 6,-11 v -2 l 4,-8 z"
       sodipodi:nodetypes="cccccccccc" />
    <path
       style="fill:#999999;stroke:none;stroke-width:1px;stroke-linecap:butt;stroke-linejoin:miter;stroke-opacity:1"
       d="m 21.08376,53.999329 4,-5 1,-5 z"
       id="path16838" />
    <path
       style="fill:#999999;stroke:none;stroke-width:1px;stroke-linecap:butt;stroke-linejoin:miter;stroke-opacity:1"
       d="m 27,44.02233 4.08376,0.976999 0.91624,0.023 2,1 -1,9 -6,-11"
       id="path16842"
       sodipodi:nodetypes="cccccc" />
    <path
       style="fill:#808080;stroke:none;stroke-width:1px;stroke-linecap:butt;stroke-linejoin:miter;stroke-opacity:1"
       d="M 29,47.02233 33.08376,48.999329 33,45.02233 l 3,7 -3,3 z"
       id="path16844"
       sodipodi:nodetypes="cccccc" />
    <path
       style="fill:#999999;stroke:none;stroke-width:1px;stroke-linecap:butt;stroke-linejoin:miter;stroke-opacity:1"
       d="m 34.08376,42.999329 -3,-6 1,-1 1,-7 1,-1 1,15 z"
       id="path16895" />
    <path
       style="fill:#666666;stroke:none;stroke-width:1px;stroke-linecap:butt;stroke-linejoin:miter;stroke-opacity:1"
       d="m 30,39.02233 h 2 l 1,1 0.08376,-10.023001 1,-3 L 35,46.02233 Z"
       id="path16897"
       sodipodi:nodetypes="ccccccc" />
    <path
       d="m -10.484814,42.977101 -13.433593,-22.072265 4.232422,-8.894531 -1.175761,-2.2449275 -5.097677,10.8054735 c -0.132833,0.299855 -0.110209,0.645782 0.06055,0.925782 l 13.074216,21.480468 z"
       style="color:#000000;fill:#333333;stroke-linecap:round;stroke-linejoin:round;-inkscape-stroke:none"
       id="path636"
       sodipodi:nodetypes="cccccccc"
       class="UnoptimicedTransforms"
       transform="translate(53.918407,17.117494)" />
    <path
       id="path3748-36"
       style="color:#000000;fill:#00112b;stroke-linecap:round;stroke-linejoin:round;-inkscape-stroke:none"
       d="M 51.96875,58.534048 31.978516,20.551628 c -6.5e-4,-6.52e-4 -0.0013,-0.0013 -0.002,-0.002 l -0.0078,-0.01563 c -0.05888,-0.08546 -0.130703,-0.16124 -0.212891,-0.22461 -0.04349,-0.05864 -0.09326,-0.112349 -0.148437,-0.160156 -0.100158,-0.04876 -0.207759,-0.08045 -0.31836,-0.09375 -0.06301,-0.02547 -0.128453,-0.04445 -0.195312,-0.05664 -0.002,6.44e-4 -0.0039,0.0013 -0.0059,0.002 -0.0013,-6.54e-4 -0.0026,-0.0013 -0.0039,-0.002 l 6.8e-5,5e-5 c -0.135507,0.0091 -0.267752,0.0456 -0.388672,0.107422 -0.04309,0.0096 -0.0855,0.02195 -0.126953,0.03711 h -0.002 c -0.155665,0.09436 -0.282622,0.229426 -0.367187,0.390625 L 12.478516,54.203971 c 0.321413,0.775915 0.673248,1.538875 1.054687,2.287109 L 31.060547,23.190299 49.79514,58.491034"
       sodipodi:nodetypes="ccccccccccccccccccc" />
    <path
       id="path3748-3"
       style="fill:#b3b3b3;stroke:none;stroke-width:2;stroke-linecap:round;stroke-linejoin:round;stroke-dasharray:none"
       inkscape:transform-center-y="-6.5913267"
       d="m 53.083984,20.998892 -20,38 h 36.013672 a 32,32 0 0 0 2.025391,-3.726562 z" />
    <path
       id="path16899"
       style="fill:#666666;stroke:none;stroke-width:1px;stroke-linecap:butt;stroke-linejoin:miter;stroke-opacity:1"
       d="M 56.083984,26.998892 52,38.02233 l 13,22 h 3 c 0.753294,-1.189301 2.52494,-3.450454 3.115234,-4.728516 z"
       sodipodi:nodetypes="cccccc" />
    <path
       id="path16901"
       style="fill:#4d4d4d;stroke:none;stroke-width:1px;stroke-linecap:butt;stroke-linejoin:miter;stroke-opacity:1"
       d="m 58.083984,31.012564 -1.003906,2.611328 3.212891,6.375 0.06836,2 2.222656,3.458985 v 7.544922 l 3.5,5.996093 h 3.013672 a 32,32 0 0 0 2.009766,-3.685546 z" />
    <path
       id="path16903"
       style="fill:#333333;stroke:none;stroke-width:1px;stroke-linecap:butt;stroke-linejoin:miter;stroke-opacity:1"
       d="M 65.082031,49.998892 64.333984,56.000846 65,60.02233 l 3.507048,0.01846 c 1.29039,-1.715002 2.123094,-3.518749 2.655393,-4.640456 l -1.523769,-2.829179 z"
       sodipodi:nodetypes="ccccccc" />
    <path
       style="fill:#999999;stroke:none;stroke-width:1px;stroke-linecap:butt;stroke-linejoin:miter;stroke-opacity:1"
       d="M 54.58376,23.999329 49.583754,33.326271 49,44.02233 59.031026,58.999329 h 5.302734 l -11.25,-17 L 52,38.02233 l 0.08376,-2.023001 4,-9 -1.5,-3"
       id="path16905"
       sodipodi:nodetypes="cccccccccc" />
    <path
       style="fill:#808080;stroke:none;stroke-width:1px;stroke-linecap:butt;stroke-linejoin:miter;stroke-opacity:1"
       d="m 51,46.02233 1,-2 5.079869,7.976999 L 61,54.02233 l 3,6 h -5 z"
       id="path16907"
       sodipodi:nodetypes="ccccccc" />
    <path
       style="fill:#666666;stroke:none;stroke-width:1px;stroke-linecap:butt;stroke-linejoin:miter;stroke-opacity:1"
       d="m 59.031026,58.999329 -8.94727,-15 -0.999995,9 2.317409,1.5 1.682591,2.5 5.947265,2"
       id="path16909" />
    <path
       style="fill:#4d4d4d;stroke:none;stroke-width:1px;stroke-linecap:butt;stroke-linejoin:miter;stroke-opacity:1"
       d="m 49.083761,52.999329 4,-4 L 60,60.02233 h -6 l -2.59883,-5.523001 -2.317409,-1.5"
       id="path16911"
       sodipodi:nodetypes="cccccc" />
    <path
       d="m -10.524874,42.911281 -13.393534,-22.006446 4.232422,-8.894531 -1.175761,-2.2449275 -5.097677,10.8054735 c -0.132833,0.299855 -0.110209,0.645782 0.06055,0.925782 l 13.034101,21.414561 z"
       style="color:#000000;fill:#333333;stroke-linecap:round;stroke-linejoin:round;-inkscape-stroke:none"
       id="path636-7"
       sodipodi:nodetypes="cccccccc"
       class="UnoptimicedTransforms"
       transform="translate(75.918407,17.117494)" />
    <path
       id="path3748-2-5"
       style="color:#000000;fill:#00112b;stroke-linecap:round;stroke-linejoin:round;-inkscape-stroke:none"
       d="m 70.635278,56.434673 c 0.377521,-0.758056 0.827034,-1.576186 1.143253,-2.361792 L 53.917971,20.383658 c -6.66e-4,-6.68e-4 -0.0013,-0.0013 -0.002,-0.002 l -0.0078,-0.01563 c -0.05888,-0.08546 -0.130703,-0.16124 -0.212891,-0.22461 -0.04348,-0.05864 -0.09326,-0.112349 -0.148438,-0.160156 -0.100158,-0.04876 -0.207759,-0.08045 -0.318359,-0.09375 -0.06301,-0.02547 -0.128453,-0.04445 -0.195312,-0.05664 -0.002,6.27e-4 -0.0039,0.0013 -0.0059,0.0019 -0.0013,-6.36e-4 -0.0026,-0.0013 -0.0039,-0.0019 l 6.9e-5,5.1e-5 c -0.135507,0.009 -0.267752,0.0456 -0.388672,0.107422 -0.04309,0.0096 -0.0855,0.02195 -0.126953,0.03711 h -0.002 c -0.155665,0.09437 -0.282622,0.229426 -0.367187,0.390625 l -20,38 c -0.106748,0.203966 -0.139861,0.438515 -0.09375,0.664062 0.04576,0.225472 0.167851,0.428274 0.345703,0.574219 0.178482,0.146265 0.402054,0.226309 0.632812,0.226562 l 1.656297,-2 L 53,23.02233 c 5.776247,11.069972 11.817062,22.356858 17.635278,33.412343 z"
       sodipodi:nodetypes="ccccccccccccccccccccccc" />
    <path
       d="M 58.398438,59.994986 48.740235,43.49108 c -0.395526,-0.677578 -1.381633,-0.656643 -1.748047,0.03711 l -8.716797,16.466796 m 2.261718,0 7.382813,-13.945312 8.160156,13.945312"
       style="color:#000000;fill:#333333;stroke:none;stroke-linecap:round;stroke-linejoin:round;-inkscape-stroke:none"
       id="path708-3"
       sodipodi:nodetypes="ccccccc" />
    <rect
       style="fill:#00112b;stroke:none;stroke-width:2;stroke-linecap:round;stroke-linejoin:round;stroke-dasharray:none"
       id="rect13064"
       width="16.083755"
       height="33.976997"
       x="34"
       y="26.022329"
       ry="0" />
    <path
       id="rect13118"
       style="fill:#00112b;stroke-width:2;stroke-linecap:round;stroke-linejoin:round"
       d="m 33,24.02233 h 6 l 1,1 1,-1 h 2 l 1,1 1,-1 h 6 v 2 H 33 Z"
       sodipodi:nodetypes="ccccccccccc" />
    <path
       style="fill:#ebfbff;fill-opacity:1;stroke:none;stroke-width:1px;stroke-linecap:butt;stroke-linejoin:miter;stroke-opacity:1"
       d="m 36,60.02233 v -31 c 0,-1 -0.518934,-1.995773 -1.000296,-2.988789 L 36,26.022331 h 2 c 1,0 1.979149,1.035442 2,2 0,-1 1,-2 2,-2 1,0 2,1 2,2 -0.04711,-1.029151 1,-2 2,-2 h 2 l 0.994225,-0.011 C 48.461282,27.021958 48,28.022331 48,29.022331 v 31 z"
       id="path13284"
       sodipodi:nodetypes="ccccsccccccccc" />
    <path
       d="M 36.861329,60.02233 27.203126,43.518424 C 26.8076,42.840846 25.821493,42.861781 25.455079,43.555534 L 16.738282,60.02233 m 2.261718,0 7.382813,-13.945312 8.160156,13.945312"
       style="color:#000000;fill:#333333;stroke:none;stroke-linecap:round;stroke-linejoin:round;-inkscape-stroke:none"
       id="path708"
       sodipodi:nodetypes="ccccccc" />
    <path
       style="fill:#aaeeff;stroke:none;stroke-width:1px;stroke-linecap:butt;stroke-linejoin:miter;stroke-opacity:1"
       d="m 39.08376,59.999329 h 1 L 40,28.02233 c 0,-1 -1,-2 -2,-2 0.989193,0 1,0.969388 1,2 z"
       id="path13338"
       sodipodi:nodetypes="cccccc" />
    <path
       style="fill:#aaeeff;stroke:none;stroke-width:1px;stroke-linecap:butt;stroke-linejoin:miter;stroke-opacity:1"
       d="m 43.08376,59.999329 h 1 L 44,28.02233 c 0,-1 -1,-2 -2,-2 0.989193,0 1,0.969388 1,2 z"
       id="path13338-7"
       sodipodi:nodetypes="cccccc" />
    <path
       id="rect13415"
       style="fill:#aaeeff;stroke-width:2;stroke-linecap:round;stroke-linejoin:round"
       d="m 47,26.02233 h 2 c -0.504179,0.979522 -1.012658,1.998679 -1,2.975648 V 60.02233 h -1 z"
       sodipodi:nodetypes="cccccc" />
    <path
       id="path13469"
       style="fill:#ffffff;stroke:none;stroke-width:1px;stroke-linecap:butt;stroke-linejoin:miter;stroke-opacity:1"
       d="m 41.08376,51.999329 c -1.198377,-0.05846 -4,1.000002 -4,3 -2.021677,-2.019708 -6.999999,-0.999997 -6,2 -2.999997,-0.999999 -4,2.048749 -4,5 h 14 1 14 c 0,-2.951251 -1.000003,-5.999999 -4,-5 0.999999,-2.999997 -3.978323,-4.019708 -6,-2 0,-1.999998 -2.801623,-3.058463 -4,-3 z"
       sodipodi:nodetypes="ccccccccccc" />
    <path
       style="fill:none;stroke:#00112b;stroke-width:2;stroke-linecap:square;stroke-linejoin:miter;stroke-dasharray:none;stroke-opacity:1"
       d="m 27.08376,60.999329 c -0.0014,-2.085542 1,-4 4,-4 0,-3 1.91624,-3.976999 3.91624,-3.976999"
       id="path13469-0"
       sodipodi:nodetypes="ccc" />
    <path
       style="fill:none;stroke:#00112b;stroke-width:2;stroke-linecap:square;stroke-linejoin:miter;stroke-dasharray:none;stroke-opacity:1"
       d="m 57.08376,60.999329 c 0.0014,-2.085542 -1,-4 -3.999999,-4 0,-3 -2,-4 -4,-4"
       id="path13469-0-3"
       sodipodi:nodetypes="ccc" />
    <path
       style="fill:none;stroke:none;stroke-width:1px;stroke-linecap:butt;stroke-linejoin:miter;stroke-opacity:1"
       d="m 19.74414,57.998892 -1.027936,2 h 8.789615 l 0.0098,-2 z"
       id="path625" />
    <g
       aria-label="Waterfall CAD"
       transform="matrix(1.3200008,0,0,1.3200008,-14.640055,-12.432883)"
       id="text443"
       style="font-size:53.3333px;line-height:1.25;letter-spacing:0px;word-spacing:0px;white-space:pre;shape-inside:url(#rect445);stroke-width:0.757575">
      <path
         d="m 75.151513,23.132723 q 0.242424,-0.06061 0.484848,-0.06061 0.848485,0 1.515151,0.545454 0.727272,0.545455 0.848484,1.393939 l 5.696967,29.57574 h 1.151514 q 10.303024,-27.515135 10.303024,-27.515135 0.606061,-1.575757 2.303029,-1.575757 0.848485,0 1.454545,0.545454 0.666666,0.484849 0.848484,1.333333 l 6.545451,27.212105 h 1.51515 l 10.18181,-29.87877 q 0.24243,-0.727272 0.84849,-1.151515 0.66666,-0.484848 1.45454,-0.484848 0.42424,0 0.78788,0.121212 0.72727,0.242424 1.15151,0.909091 0.48485,0.60606 0.48485,1.393938 0,0.424242 -0.12121,0.787879 l -10.72727,31.515132 q -0.24242,0.727273 -0.90909,1.151515 -0.60606,0.484848 -1.39393,0.484848 -5.21212,0 -5.21212,0 -0.84849,0 -1.51515,-0.545454 -0.60606,-0.484848 -0.84849,-1.333333 l -5.090904,-21.33332 -8.121207,21.63635 q -0.545454,1.575757 -2.242423,1.575757 -4.848482,0 -4.848482,0 -0.848484,0 -1.575757,-0.545454 -0.666666,-0.545455 -0.787878,-1.393939 -6.060602,-31.515133 -6.060602,-31.515133 -0.06061,-0.242424 -0.06061,-0.484848 0,-0.90909 0.545455,-1.575756 0.545454,-0.666667 1.393938,-0.787879 z"
         style="font-family:Mechanical-Graphics-No-1;-inkscape-font-specification:Mechanical-Graphics-No-1"
         id="path553" />
      <path
         d="m 121.45448,34.708474 c 0.48484,-0.484848 1.0505,-0.727272 1.69697,-0.727272 h 2.66666 5.09091 5.75757 2.30303 c 0.64646,0 1.21212,0.242424 1.69697,0.727272 0.48484,0.444444 0.72727,1.0101 0.72727,1.696969 v 9.696964 1.81818 3.51515 3.999997 1.575757 c 0,0.686868 -0.24243,1.252524 -0.72727,1.696969 -0.48485,0.484848 -1.07071,0.727272 -1.75757,0.727272 h -2.60606 -5.0303 -5.75758 -2.30303 c -0.68687,0 -1.27273,-0.242424 -1.75757,-0.727272 -0.44445,-0.444445 -0.66667,-1.010101 -0.66667,-1.696969 V 55.19331 51.617555 47.678163 46.102407 c 0,-0.686869 0.22222,-1.252525 0.66667,-1.696969 0.48484,-0.484848 1.0707,-0.727272 1.75757,-0.727272 h 13.33333 v -4.848482 h -13.33333 c -0.68687,0 -1.27273,-0.222222 -1.75757,-0.666667 -0.44445,-0.484848 -0.66667,-1.757574 -0.66667,-1.757574 v 0 c 0,0 0.22222,-1.252525 0.66667,-1.696969 z m 4.18182,13.818174 v 6.060602 h 10.90908 v -6.060602 z"
         style="font-family:Mechanical-Graphics-No-1;-inkscape-font-specification:Mechanical-Graphics-No-1"
         id="path555"
         sodipodi:nodetypes="sscccscsccccscscccssscccsssccscsssccccc" />
      <path
         d="m 150.24233,26.223631 c 0.48484,-0.484849 1.0707,-0.727273 1.75758,-0.727273 0.68686,0 1.25252,0.242424 1.69696,0.727273 0.48485,0.444444 0.72728,1.0101 0.72728,1.696968 v 6.067166 h 4.84848 c 0.64646,0 1.21211,0.242424 1.69697,0.727272 0.48484,0.444445 0.72727,1.010101 0.72727,1.696969 0,0.686869 -0.24243,1.272727 -0.72727,1.757575 -0.48486,0.444444 -1.05051,0.666666 -1.69697,0.666666 h -4.84848 v 2.054041 6.242421 7.030299 2.848483 c 0,0.686868 -0.24243,1.252524 -0.72728,1.696969 -0.44444,0.484848 -1.0101,0.727272 -1.69696,0.727272 -0.64647,0 -1.21213,-0.242424 -1.69697,-0.727272 -0.48486,-0.444445 -0.72728,-1.010101 -0.72728,-1.696969 V 38.836247 h -4.84848 c -0.68687,0 -1.27273,-0.222222 -1.75757,-0.666666 -0.44445,-0.484848 -0.66667,-1.070706 -0.66667,-1.757575 0,-0.686868 0.22222,-1.252524 0.66667,-1.696969 0.48484,-0.484848 1.0707,-0.727272 1.75757,-0.727272 h 4.84848 v -6.067166 c 0,-0.686868 0.22222,-1.252524 0.66667,-1.696968 z"
         style="font-family:Mechanical-Graphics-No-1;-inkscape-font-specification:Mechanical-Graphics-No-1"
         id="path557"
         sodipodi:nodetypes="sscscscscsccccscscscscssscss" />
      <path
         d="m 163.27258,34.708474 c 0.48484,-0.484848 1.0505,-0.727272 1.69697,-0.727272 h 2.66666 5.09091 5.75757 2.30303 c 0.64646,0 1.21212,0.242424 1.69697,0.727272 0.48484,0.444444 0.72727,1.0101 0.72727,1.696969 v 1.636362 3.090908 3.575755 1.393939 c 0,0.686868 -0.24243,1.272726 -0.72727,1.757574 -0.48485,0.444445 -1.05051,0.666667 -1.69697,0.666667 H 167.4544 v 6.060602 h 13.33332 c 0.64646,0 1.21212,0.242424 1.69697,0.727272 0.48484,0.484849 0.72727,1.050505 0.72727,1.696969 0,0.686868 -0.24243,1.252524 -0.72727,1.696969 -0.48485,0.484848 -1.07071,0.727272 -1.75757,0.727272 h -2.60606 -5.0303 -5.75758 -2.30303 c -0.68687,0 -1.27273,-0.242424 -1.75757,-0.727272 -0.44445,-0.444445 -0.66667,-1.010101 -0.66667,-1.696969 V 46.102407 44.52665 41.375137 37.859987 36.405443 c 0,-0.686869 0.22222,-1.252525 0.66667,-1.696969 z m 4.18182,4.12121 v 4.848482 h 10.90908 v -4.848482 z"
         style="font-family:Mechanical-Graphics-No-1;-inkscape-font-specification:Mechanical-Graphics-No-1"
         id="path559"
         sodipodi:nodetypes="sscccscscccscsccssscscccsssccccssccccc" />
      <path
         d="m 188.06044,33.981202 h 9.39393 c 0.68687,0 1.25252,0.242424 1.69697,0.727272 0.48485,0.444444 0.72727,1.696969 0.72727,1.696969 v 0 c 0,0 -0.24242,1.272726 -0.72727,1.757574 -0.44445,0.444445 -1.0101,0.666667 -1.69697,0.666667 h -6.96969 v 0 0 0 0.06061 0 0 0.06061 0 0.06061 0 0.06061 0 0.06061 0.06061 0 0.06061 0.06061 0.06061 0.06061 0.06061 0.06061 0.06061 0.06061 0.06061 0.06061 0.06061 0.06061 0.06061 0.06061 0.06061 0.06061 0.06061 0.06061 0.06061 0.06061 0.06061 0.06061 0.06061 0.06061 0.06061 0.06061 0.06061 0.06061 0.06061 0.06061 0.06061 0.06061 0.06061 0.06061 0.06061 0.06061 0.06061 0.06061 0.06061 0.06061 0.06061 0.06061 0.06061 0.06061 0.06061 0.06061 0.06061 0.06061 0.06061 0.06061 0.06061 0.06061 0.06061 0.06061 0.06061 0.121212 0.06061 0.06061 0.06061 0.06061 0.06061 0.06061 0.121212 0.06061 0.06061 0.06061 0.06061 0.06061 0.121213 0.06061 0.06061 0.06061 0.06061 0.121212 0.06061 0.06061 0.06061 0.121212 0.06061 0.06061 0.06061 0.121212 0.06061 0.06061 0.121212 0.06061 0.06061 0.06061 0.121212 0.06061 0.06061 0.121212 0.06061 0.06061 0.121212 0.06061 0.121212 0.06061 0.06061 0.121213 0.06061 0.06061 0.121212 0.06061 0.121212 0.06061 0.06061 0.121212 0.06061 0.121212 0.06061 0.121212 0.06061 0.121212 0.06061 0.06061 0.121212 0.06061 0.121212 0.06061 0.121212 0.06061 0.121212 0.06061 0.121212 0.06061 0.121212 0.06061 0.121213 0.06061 0.121212 0.121212 0.06061 0.121212 0.06061 0.121212 0.06061 0.121212 0.06061 0.121212 0.121212 0.06061 0.121212 0.06061 0.121212 0.121212 0.06061 0.121212 0.06061 0.121212 0.121212 0.06061 0.121212 0.121213 0.06061 0.121212 0.121212 0.06061 0.121212 0.121212 0.06061 0.121212 0.121212 0.06061 0.121212 0.121212 0.06061 0.121212 0.121212 0.121212 0.06061 0.121212 0.121212 0.06061 0.121212 0.121212 0.121212 0.06061 0.121213 0.121212 0.121212 0.06061 0.121212 0.121212 0.121212 0.121212 0.06061 0.121212 0.121212 0.121212 0.121212 0.06061 0.121212 0.121212 0.121212 0.121212 0.06061 0.121212 0.121212 0.121212 0.121213 0.121212 0.121212 0.06061 0.121212 0.121212 0.545454 c 0,0.686868 -0.24243,1.252524 -0.72728,1.696969 -0.48485,0.484848 -1.69696,0.727272 -1.69696,0.727272 v 0 c 0,0 -1.27273,-0.242424 -1.75758,-0.727272 -0.44444,-0.444445 -0.66666,-1.010101 -0.66666,-1.696969 v -3.454543 -6.606057 -7.515147 -3.030301 c 0,-0.686869 0.22222,-1.252525 0.66666,-1.696969 0.48485,-0.484848 1.07071,-0.727272 1.75758,-0.727272 z"
         style="font-family:Mechanical-Graphics-No-1;-inkscape-font-specification:Mechanical-Graphics-No-1"
         id="path561"
         sodipodi:nodetypes="cscssssccccccccccccccccccccccccccccccccccccccccccccccccccccccccccccccccccccccccccccccccccccccccccccccccccccccccccccccccccccccccccccccccccccccccccccccccccccccccccccccccccccccccccccccccccccccccccccccccccccccccccccccccccccccccccccccscsssscccsscc" />
      <path
         d="m 209.27259,23.072117 v 0 0 h 0.0606 v 0 h 0.0606 0.0606 0.0606 0.0606 0.0606 0.0606 0.0606 0.0606 0.0606 0.0606 0.0606 0.0606 0.0606 0.0606 0.0606 0.0606 0.0606 0.0606 0.0606 0.0606 0.0606 0.12121 0.0606 0.0606 0.0606 0.0606 0.0606 0.0606 0.12121 0.0606 0.0606 0.0606 0.12121 0.0606 0.0606 0.0606 0.12121 0.0606 0.0606 0.12121 0.0606 0.0606 0.12122 0.0606 0.12121 0.0606 0.12121 0.0606 0.12121 0.0606 0.12121 0.0606 0.12122 0.0606 0.12121 0.0606 0.12121 0.0606 0.12121 0.12121 0.0606 0.12121 0.0606 0.12121 0.12121 0.0606 0.12121 0.12121 0.0606 0.12121 0.12121 0.12121 0.0606 0.12121 0.12121 0.12122 0.0606 0.12121 0.12122 0.12121 0.12121 0.48485 c 0.68687,0 1.25252,0.242424 1.69697,0.727273 0.48485,0.444444 0.72727,1.0101 0.72727,1.696968 0,0.646465 -0.24242,1.212121 -0.72727,1.696969 -0.44445,0.484848 -1.0101,0.727272 -1.69697,0.727272 h -4.84848 v 6.060603 h 0.78787 1.57576 1.75758 0.72727 c 0.68687,0 1.25252,0.242424 1.69697,0.727272 0.48485,0.484848 0.72727,1.070706 0.72727,1.757575 0,0.646464 -0.24242,1.21212 -0.72727,1.696968 -0.44445,0.444445 -1.0101,0.666667 -1.69697,0.666667 h -4.84848 v 0 0 0 0.06061 0 0 0.06061 0 0.06061 0 0.06061 0 0.06061 0.06061 0 0.06061 0.06061 0.06061 0.06061 0.06061 0.06061 0.06061 0.06061 0.06061 0.06061 0.06061 0.06061 0.06061 0.06061 0.06061 0.06061 0.06061 0.06061 0.06061 0.06061 0.06061 0.06061 0.06061 0.06061 0.06061 0.06061 0.06061 0.06061 0.06061 0.06061 0.06061 0.06061 0.06061 0.06061 0.06061 0.06061 0.06061 0.06061 0.06061 0.06061 0.06061 0.06061 0.06061 0.06061 0.06061 0.06061 0.06061 0.06061 0.06061 0.06061 0.06061 0.06061 0.06061 0.06061 0.06061 0.121212 0.06061 0.06061 0.06061 0.06061 0.06061 0.06061 0.121212 0.06061 0.06061 0.06061 0.06061 0.06061 0.121213 0.06061 0.06061 0.06061 0.06061 0.121212 0.06061 0.06061 0.06061 0.121212 0.06061 0.06061 0.06061 0.121212 0.06061 0.06061 0.121212 0.06061 0.06061 0.06061 0.121212 0.06061 0.06061 0.121212 0.06061 0.06061 0.121212 0.06061 0.121212 0.06061 0.06061 0.121213 0.06061 0.06061 0.121212 0.06061 0.121212 0.06061 0.06061 0.121212 0.06061 0.121212 0.06061 0.121212 0.06061 0.121212 0.06061 0.06061 0.121212 0.06061 0.121212 0.06061 0.121212 0.06061 0.121212 0.06061 0.121212 0.06061 0.121212 0.06061 0.121213 0.06061 0.121212 0.121212 0.06061 0.121212 0.06061 0.121212 0.06061 0.121212 0.06061 0.121212 0.121212 0.06061 0.121212 0.06061 0.121212 0.121212 0.06061 0.121212 0.06061 0.121212 0.121212 0.06061 0.121212 0.121213 0.06061 0.121212 0.121212 0.06061 0.121212 0.121212 0.06061 0.121212 0.121212 0.06061 0.121212 0.121212 0.06061 0.121212 0.121212 0.121212 0.06061 0.121212 0.121212 0.06061 0.121212 0.121212 0.121212 0.06061 0.121213 0.121212 0.121212 0.06061 0.121212 0.121212 0.121212 0.121212 0.06061 0.121212 0.121212 0.121212 0.121212 0.06061 0.121212 0.121212 0.121212 0.121212 0.121212 0.06061 0.121212 0.121212 0.121213 0.121212 0.121212 0.06061 0.121212 0.121212 0.545454 c 0,0.686868 -0.24243,1.252524 -0.72728,1.696969 -0.44444,0.484848 -1.01009,0.727272 -1.69696,0.727272 -0.64647,0 -1.21212,-0.242424 -1.69697,-0.727272 -0.48485,-0.444445 -0.72728,-1.010101 -0.72728,-1.696969 V 38.829684 h -3.63636 c -0.68687,0 -1.27272,-0.222222 -1.75757,-0.666667 -0.44445,-0.484848 -0.66667,-1.070706 -0.66667,-1.757574 0,-0.686869 0.22222,-1.252525 0.66667,-1.696969 0.48485,-0.484848 1.0707,-0.727272 1.75757,-0.727272 h 3.63636 v -8.484844 c 0,-0.121212 0.0202,-0.242424 0.0606,-0.363636 V 25.01151 c 0,-0.08081 0.0202,-0.181818 0.0606,-0.30303 0.0404,-0.04041 0.0606,-0.08081 0.0606,-0.121212 0.0808,-0.20202 0.20202,-0.40404 0.36364,-0.60606 0,-0.04041 0.0202,-0.06061 0.0606,-0.06061 0.0808,-0.08081 0.16162,-0.161616 0.24243,-0.242425 0,-0.04041 0.0202,-0.06061 0.0606,-0.06061 0.20202,-0.161616 0.42424,-0.282828 0.66667,-0.363636 0,-0.04041 0.0202,-0.06061 0.0606,-0.06061 0.12121,-0.04041 0.24242,-0.06061 0.36363,-0.06061 l 0.0606,-0.06061 h 0.36364 z"
         style="font-family:Mechanical-Graphics-No-1;-inkscape-font-specification:Mechanical-Graphics-No-1"
         id="path563"
         sodipodi:nodetypes="ccccccccccccccccccccccccccccccccccccccccccccccccccccccccccccccccccccccccccccccccccccccscscscccccscsssccccccccccccccccccccccccccccccccccccccccccccccccccccccccccccccccccccccccccccccccccccccccccccccccccccccccccccccccccccccccccccccccccccccccccccccccccccccccccccccccccccccccccccccccccccccccccccccccccccccccccccccccccccccccccccccscscscscssscscscccccccccccc" />
      <path
         d="m 220.54534,34.708474 c 0.48485,-0.484848 1.0505,-0.727272 1.69697,-0.727272 h 2.66666 5.09091 5.75757 2.30303 c 0.64646,0 1.21212,0.242424 1.69697,0.727272 0.48485,0.444444 0.72727,1.0101 0.72727,1.696969 v 9.696964 1.81818 3.51515 3.999997 1.575757 c 0,0.686868 -0.24242,1.252524 -0.72727,1.696969 -0.48485,0.484848 -1.07071,0.727272 -1.75758,0.727272 h -2.60606 -5.0303 -5.75757 -2.30303 c -0.68687,0 -1.27272,-0.242424 -1.75757,-0.727272 -0.44445,-0.444445 -0.66667,-1.010101 -0.66667,-1.696969 V 55.19331 51.617555 47.678163 46.102407 c 0,-0.686869 0.22222,-1.252525 0.66667,-1.696969 0.48485,-0.484848 1.0707,-0.727272 1.75757,-0.727272 h 13.33333 v -4.848482 h -13.33333 c -0.68687,0 -1.27272,-0.222222 -1.75757,-0.666667 -0.44445,-0.484848 -0.66667,-1.757574 -0.66667,-1.757574 v 0 c 0,0 0.22222,-1.252525 0.66667,-1.696969 z m 4.18181,13.818174 v 6.060602 h 10.90909 v -6.060602 z"
         style="font-family:Mechanical-Graphics-No-1;-inkscape-font-specification:Mechanical-Graphics-No-1"
         id="path565"
         sodipodi:nodetypes="sscccscsccccscscccssscccsssccscsssccccc" />
      <path
         d="m 243.57561,23.79939 c 0.48485,-0.484849 1.07071,-0.727273 1.75758,-0.727273 0.68687,0 1.25252,0.242424 1.69696,0.727273 0.48485,0.444444 0.72728,1.696968 0.72728,1.696968 v 0 0 0 0 0 0.06061 0 0 0 0.06061 0 0 0.06061 0 0.06061 0 0.06061 0 0.06061 0 0.06061 0 0.06061 0.06061 0 0.06061 0.06061 0.06061 0 0.06061 0.06061 0.06061 0.06061 0.06061 0.06061 0.06061 0.06061 0.06061 0.06061 0.06061 0.06061 0.06061 0.06061 0.06061 0.06061 0.06061 0.06061 0.06061 0.06061 0.06061 0.06061 0.06061 0.06061 0.06061 0.06061 0.06061 0.06061 0.06061 0.06061 0.06061 0.06061 0.06061 0.06061 0.06061 0.06061 0.06061 0.06061 0.06061 0.06061 0.06061 0.06061 0.06061 0.06061 0.06061 0.06061 0.06061 0.06061 0.06061 0.06061 0.06061 0.06061 0.06061 0.06061 0.06061 0.06061 0.06061 0.06061 0.06061 0.06061 0.06061 0.06061 0.06061 0.06061 0.06061 0.06061 0.06061 0.06061 0.06061 0.06061 0.06061 0.06061 0.06061 0.06061 0.06061 0.121212 0.06061 0.06061 0.06061 0.06061 0.06061 0.06061 0.06061 0.06061 0.06061 0.06061 0.06061 0.06061 0.06061 0.06061 0.06061 0.121212 0.06061 0.06061 0.06061 0.06061 0.06061 0.06061 0.06061 0.121212 0.06061 0.06061 0.06061 0.06061 0.06061 0.06061 0.121212 0.06061 0.06061 0.06061 0.06061 0.06061 0.121212 0.06061 0.06061 0.06061 0.06061 0.121212 0.06061 0.06061 0.06061 0.06061 0.121212 0.06061 0.06061 0.06061 0.121212 0.06061 0.06061 0.06061 0.06061 0.121212 0.06061 0.06061 0.06061 0.121212 0.06061 0.06061 0.121212 0.06061 0.06061 0.06061 0.121212 0.06061 0.06061 0.121212 0.06061 0.06061 0.121213 0.06061 0.06061 0.06061 0.121212 0.06061 0.06061 0.121212 0.06061 0.06061 0.121212 0.06061 0.121212 0.06061 0.06061 0.121212 0.06061 0.06061 0.121212 0.06061 0.06061 0.121212 0.06061 0.121212 0.06061 0.06061 0.121212 0.06061 0.121212 0.06061 0.06061 0.121213 0.06061 0.121212 0.06061 0.06061 0.121212 0.06061 0.121212 0.06061 0.121212 0.06061 0.06061 0.121212 0.06061 0.121212 0.06061 0.121212 0.06061 0.121212 0.06061 0.121212 0.06061 0.121212 0.06061 0.06061 0.121212 0.06061 0.121212 0.06061 0.121212 0.06061 0.121212 0.06061 0.121212 0.06061 0.121212 0.06061 0.121212 0.06061 0.121212 0.121212 0.06061 0.121212 0.06061 0.121212 0.06061 0.121212 0.06061 0.121212 0.06061 0.121212 0.121212 0.06061 0.121212 0.06061 0.121212 0.06061 0.121212 0.06061 0.121212 0.121212 0.06061 0.121212 0.06061 0.121212 0.121212 0.06061 0.121212 0.06061 0.121212 0.121212 0.06061 0.121212 0.06061 0.121212 0.121212 0.06061 0.121212 0.121212 0.06061 0.121213 0.06061 0.121212 0.121212 0.06061 0.121212 0.121212 0.06061 0.121212 0.121212 0.06061 0.121212 0.121212 0.06061 0.121212 0.121212 0.06061 0.121212 0.121212 0.06061 0.121212 0.121212 0.06061 0.121212 0.121213 0.121212 0.06061 0.121212 0.121212 0.06061 0.121212 0.121212 0.121212 0.06061 0.121212 0.121212 0.06061 0.121212 0.121212 0.121212 0.06061 0.121212 0.121212 0.121212 0.06061 0.121212 0.121212 0.121212 0.06061 0.121212 0.121212 0.121212 0.121212 0.06061 0.121212 0.121212 0.121212 0.06061 0.121212 0.121212 0.121212 0.121212 0.06061 0.121212 0.121212 0.121212 0.121212 0.06061 0.121212 0.121212 0.121212 0.121213 0.121212 0.06061 0.121212 0.121212 0.121212 0.121212 0.121212 0.06061 0.121212 0.121212 0.121212 0.121212 0.121212 0.121212 0.06061 0.121212 0.121212 0.121212 0.121212 0.121212 0.121212 0.06061 0.121212 0.121212 0.121212 0.121212 0.121212 0.484848 c 0,0.686868 -0.24243,1.252524 -0.72728,1.696969 -0.48485,0.484848 -1.69696,0.727272 -1.69696,0.727272 v 0 c 0,0 -1.27273,-0.242424 -1.75758,-0.727272 -0.44445,-0.444445 -0.66667,-1.010101 -0.66667,-1.696969 V 25.496358 c 0,-0.686868 0.22222,-1.252524 0.66667,-1.696968 z"
         style="font-family:Mechanical-Graphics-No-1;-inkscape-font-specification:Mechanical-Graphics-No-1"
         id="path567"
         sodipodi:nodetypes="sscscccccccccccccccccccccccccccccccccccccccccccccccccccccccccccccccccccccccccccccccccccccccccccccccccccccccccccccccccccccccccccccccccccccccccccccccccccccccccccccccccccccccccccccccccccccccccccccccccccccccccccccccccccccccccccccccccccccccccccccccccccccccccccccccccccccccccccccccccccccccccccccccccccccccccccccccccccccccccccccccccccccccccccccccccccccccccccccccccccccccccccccccccccccccccccccccccccscssssss" />
      <path
         d="m 250.84835,23.79939 c 0.48485,-0.484849 1.0707,-0.727273 1.75757,-0.727273 0.68687,0 1.25252,0.242424 1.69697,0.727273 0.48485,0.444444 0.72727,1.696968 0.72727,1.696968 v 0 0 0 0 0 0.06061 0 0 0 0.06061 0 0 0.06061 0 0.06061 0 0.06061 0 0.06061 0 0.06061 0 0.06061 0.06061 0 0.06061 0.06061 0.06061 0 0.06061 0.06061 0.06061 0.06061 0.06061 0.06061 0.06061 0.06061 0.06061 0.06061 0.06061 0.06061 0.06061 0.06061 0.06061 0.06061 0.06061 0.06061 0.06061 0.06061 0.06061 0.06061 0.06061 0.06061 0.06061 0.06061 0.06061 0.06061 0.06061 0.06061 0.06061 0.06061 0.06061 0.06061 0.06061 0.06061 0.06061 0.06061 0.06061 0.06061 0.06061 0.06061 0.06061 0.06061 0.06061 0.06061 0.06061 0.06061 0.06061 0.06061 0.06061 0.06061 0.06061 0.06061 0.06061 0.06061 0.06061 0.06061 0.06061 0.06061 0.06061 0.06061 0.06061 0.06061 0.06061 0.06061 0.06061 0.06061 0.06061 0.06061 0.06061 0.06061 0.06061 0.06061 0.06061 0.121212 0.06061 0.06061 0.06061 0.06061 0.06061 0.06061 0.06061 0.06061 0.06061 0.06061 0.06061 0.06061 0.06061 0.06061 0.06061 0.121212 0.06061 0.06061 0.06061 0.06061 0.06061 0.06061 0.06061 0.121212 0.06061 0.06061 0.06061 0.06061 0.06061 0.06061 0.121212 0.06061 0.06061 0.06061 0.06061 0.06061 0.121212 0.06061 0.06061 0.06061 0.06061 0.121212 0.06061 0.06061 0.06061 0.06061 0.121212 0.06061 0.06061 0.06061 0.121212 0.06061 0.06061 0.06061 0.06061 0.121212 0.06061 0.06061 0.06061 0.121212 0.06061 0.06061 0.121212 0.06061 0.06061 0.06061 0.121212 0.06061 0.06061 0.121212 0.06061 0.06061 0.121213 0.06061 0.06061 0.06061 0.121212 0.06061 0.06061 0.121212 0.06061 0.06061 0.121212 0.06061 0.121212 0.06061 0.06061 0.121212 0.06061 0.06061 0.121212 0.06061 0.06061 0.121212 0.06061 0.121212 0.06061 0.06061 0.121212 0.06061 0.121212 0.06061 0.06061 0.121213 0.06061 0.121212 0.06061 0.06061 0.121212 0.06061 0.121212 0.06061 0.121212 0.06061 0.06061 0.121212 0.06061 0.121212 0.06061 0.121212 0.06061 0.121212 0.06061 0.121212 0.06061 0.121212 0.06061 0.06061 0.121212 0.06061 0.121212 0.06061 0.121212 0.06061 0.121212 0.06061 0.121212 0.06061 0.121212 0.06061 0.121212 0.06061 0.121212 0.121212 0.06061 0.121212 0.06061 0.121212 0.06061 0.121212 0.06061 0.121212 0.06061 0.121212 0.121212 0.06061 0.121212 0.06061 0.121212 0.06061 0.121212 0.06061 0.121212 0.121212 0.06061 0.121212 0.06061 0.121212 0.121212 0.06061 0.121212 0.06061 0.121212 0.121212 0.06061 0.121212 0.06061 0.121212 0.121212 0.06061 0.121212 0.121212 0.06061 0.121213 0.06061 0.121212 0.121212 0.06061 0.121212 0.121212 0.06061 0.121212 0.121212 0.06061 0.121212 0.121212 0.06061 0.121212 0.121212 0.06061 0.121212 0.121212 0.06061 0.121212 0.121212 0.06061 0.121212 0.121213 0.121212 0.06061 0.121212 0.121212 0.06061 0.121212 0.121212 0.121212 0.06061 0.121212 0.121212 0.06061 0.121212 0.121212 0.121212 0.06061 0.121212 0.121212 0.121212 0.06061 0.121212 0.121212 0.121212 0.06061 0.121212 0.121212 0.121212 0.121212 0.06061 0.121212 0.121212 0.121212 0.06061 0.121212 0.121212 0.121212 0.121212 0.06061 0.121212 0.121212 0.121212 0.121212 0.06061 0.121212 0.121212 0.121212 0.121213 0.121212 0.06061 0.121212 0.121212 0.121212 0.121212 0.121212 0.06061 0.121212 0.121212 0.121212 0.121212 0.121212 0.121212 0.06061 0.121212 0.121212 0.121212 0.121212 0.121212 0.121212 0.06061 0.121212 0.121212 0.121212 0.121212 0.121212 0.484848 c 0,0.686868 -0.24242,1.252524 -0.72727,1.696969 -0.48485,0.484848 -1.69697,0.727272 -1.69697,0.727272 v 0 c 0,0 -1.27272,-0.242424 -1.75757,-0.727272 -0.44445,-0.444445 -0.66667,-1.010101 -0.66667,-1.696969 V 25.496358 c 0,-0.686868 0.22222,-1.252524 0.66667,-1.696968 z"
         style="font-family:Mechanical-Graphics-No-1;-inkscape-font-specification:Mechanical-Graphics-No-1"
         id="path569"
         sodipodi:nodetypes="sscscccccccccccccccccccccccccccccccccccccccccccccccccccccccccccccccccccccccccccccccccccccccccccccccccccccccccccccccccccccccccccccccccccccccccccccccccccccccccccccccccccccccccccccccccccccccccccccccccccccccccccccccccccccccccccccccccccccccccccccccccccccccccccccccccccccccccccccccccccccccccccccccccccccccccccccccccccccccccccccccccccccccccccccccccccccccccccccccccccccccccccccccccccccccccccccccccccscssssss" />
      <path
         d="m 278.42828,23.072117 h 20.06059 c 0.68687,0 1.25253,0.242424 1.69697,0.727273 0.48485,0.484848 0.72727,1.070706 0.72727,1.757574 0,0.646465 -0.24242,1.212121 -0.72727,1.696969 -0.44444,0.444444 -1.0101,0.666666 -1.69697,0.666666 H 280.85252 V 54.58725 h 19.27272 c 0.68687,0 1.25252,0.222222 1.69697,0.666666 0.48485,0.484849 0.72727,1.070707 0.72727,1.757575 0,0.686868 -0.24242,1.252524 -0.72727,1.696969 -0.44445,0.484848 -1.0101,0.727272 -1.69697,0.727272 h -21.69696 c -0.64647,0 -1.21212,-0.242424 -1.69697,-0.727272 -0.44445,-0.444445 -0.66667,-0.989899 -0.66667,-1.636363 V 25.556964 c 0,-0.686868 0.22222,-1.272726 0.66667,-1.757574 0.44445,-0.484849 1.0101,-0.727273 1.69697,-0.727273 z"
         style="font-family:Mechanical-Graphics-No-1;-inkscape-font-specification:Mechanical-Graphics-No-1"
         id="path571"
         sodipodi:nodetypes="sscsssccssscsssssss" />
      <path
         d="m 313.76157,23.253935 h 9.63635 c 0.56566,0 1.07071,0.181818 1.51515,0.545455 0.44445,0.363636 0.72728,0.80808 0.84849,1.333332 l 7.15151,31.333315 c 0.0404,0.161616 0.0606,0.343434 0.0606,0.545454 0,0.565656 -0.18182,1.070706 -0.54546,1.515151 -0.36363,0.444444 -0.80808,0.727272 -1.33333,0.848484 -0.16161,0.04041 -0.34343,0.06061 -0.54545,0.06061 -0.56566,0 -1.07071,-0.181818 -1.51516,-0.545454 -0.44444,-0.363637 -0.72727,-0.808081 -0.84848,-1.333333 L 326.307,49.193318 h -14.66665 c -0.0808,0.363636 -0.18182,0.828282 -0.30303,1.393938 -0.12121,0.565657 -0.30303,1.454545 -0.54546,2.666665 -0.20202,1.212121 -0.38384,2.202019 -0.54545,2.969696 l -0.24243,1.21212 c -0.12121,0.565656 -0.40404,1.030302 -0.84848,1.393939 -0.44445,0.363636 -0.9495,0.545454 -1.51515,0.545454 h -0.48485 c -0.56565,-0.121212 -1.0303,-0.40404 -1.39394,-0.848484 -0.36363,-0.444445 -0.54545,-0.969697 -0.54545,-1.575757 v -0.424242 c 0.28283,-1.333333 0.62626,-3.090907 1.0303,-5.272724 0.44445,-2.141413 1.11111,-5.494947 2,-10.0606 0.88889,-4.565654 1.63636,-8.363632 2.24242,-11.393933 l 0.90909,-4.545452 c 0.12121,-0.565656 0.40404,-1.030302 0.84849,-1.393938 0.44444,-0.404041 0.98995,-0.395981 1.51515,-0.606061 z m 2,4.848482 -3.21212,16.303021 h 12.60605 l -3.69697,-16.303021 z"
         style="font-family:Mechanical-Graphics-No-1;-inkscape-font-specification:Mechanical-Graphics-No-1"
         id="path573"
         sodipodi:nodetypes="cssccsscsscccscccsscssccssccscccccc" />
      <path
         d="m 335.45854,23.132723 h 2.42424 l 17.93938,-0.06061 c 0.64647,0 1.23232,0.282828 1.75757,0.848485 l 5.09091,5.515148 c 0.44445,0.484848 0.66667,1.030302 0.66667,1.636362 v 20.787867 c 0,0.686868 -0.24243,1.272724 -0.72728,1.757575 l -5.0909,5.090906 c -0.48485,0.48485 -1.0505,0.727272 -1.69697,0.727272 h -17.93938 -2.42424 V 57.011491 25.556964 Z m 4.84848,4.848482 V 54.58725 h 14.48484 l 3.69696,-3.696968 V 32.041809 l -3.75757,-4.060604 z"
         style="font-family:Mechanical-Graphics-No-1;-inkscape-font-specification:Mechanical-Graphics-No-1"
         id="path575"
         sodipodi:nodetypes="cccccssssscccccccccccc" />
    </g>
  </g>
</svg>
