<?xml version="1.0" encoding="UTF-8" standalone="no"?>
<!-- Created with Inkscape (http://www.inkscape.org/) -->

<svg
   width="64"
   height="64"
   viewBox="0 0 64 64"
   version="1.1"
   id="svg5"
   sodipodi:docname="waterfall-cad-logo-bw.svg"
   inkscape:version="1.2.2 (b0a8486541, 2022-12-01)"
   xmlns:inkscape="http://www.inkscape.org/namespaces/inkscape"
   xmlns:sodipodi="http://sodipodi.sourceforge.net/DTD/sodipodi-0.dtd"
   xmlns="http://www.w3.org/2000/svg"
   xmlns:svg="http://www.w3.org/2000/svg">
  <g
     transform="translate(-66)"
    <path
       style="color:#000000;fill:#000000;stroke-linecap:round;stroke-linejoin:round;-inkscape-stroke:none"
       d="m 98.029297,0.1328125 c -17.644891,0 -31.972656,14.3083565 -31.972656,31.9335935 0,4.213452 0.825306,8.233798 2.3125,11.917969 l -0.03516,0.06641 c 0.223856,0.556144 0.511873,1.121978 0.796875,1.677735 1.978493,4.163196 4.833075,7.830722 8.324218,10.767578 -0.01711,-0.0016 -0.03149,0.0021 -0.04883,0 4.902131,4.478901 10.820695,6.707797 17.205078,7.320312 0.11763,0.01251 0.23551,0.02392 0.353516,0.03516 0.227239,0.01962 0.455225,0.03519 0.683594,0.05078 0.786856,0.05802 1.57928,0.09766 2.380859,0.09766 0.01376,0 0.02726,-0.0019 0.04102,-0.002 0.01438,1.16e-4 0.02858,0.0019 0.04297,0.002 0.144892,-0.001 0.288908,-0.01069 0.433594,-0.01367 12.245915,-0.195336 22.823425,-7.276817 28.021485,-17.539062 l 0.0117,0.02148 c 0.38144,-0.748231 0.73327,-1.511197 1.05469,-2.287109 l -0.0156,-0.02734 C 129.14978,40.424203 130,36.344527 130,32.066406 130,14.441169 115.67419,0.1328125 98.029297,0.1328125 Z m 0,2 c 10.965263,0 20.541113,5.8696891 25.765623,14.6347655 -0.25026,-0.258683 -0.5631,-0.44737 -0.89844,-0.560547 -0.69864,-0.235794 -1.47123,-0.0662 -2.14062,0.332031 -0.18798,-0.493712 -0.47391,-0.924156 -0.84961,-1.199218 -0.5552,-0.406492 -1.14143,-0.619758 -1.67383,-0.587891 h -0.49023 c -0.0665,-0.004 -0.13316,-0.0036 -0.20117,0 -0.47609,0.02503 -0.9849,0.23221 -1.47071,0.587891 -0.37569,0.275063 -0.66162,0.705506 -0.84961,1.199218 -0.66951,-0.398629 -1.44172,-0.567912 -2.14062,-0.332031 -0.0477,0.01609 -0.0939,0.03368 -0.14063,0.05273 l -3.02539,-5.748042 c -0.0846,-0.161199 -0.21152,-0.296265 -0.36718,-0.390625 h -0.002 c -0.0415,-0.01516 -0.0839,-0.02751 -0.12696,-0.03711 -0.12092,-0.06182 -0.25316,-0.098321 -0.38867,-0.1074215 -0.001,7e-4 -0.003,0.0013 -0.004,0.00195 -0.002,-7e-4 -0.004,-0.00131 -0.006,-0.00195 -0.0669,0.01219 -0.1323,0.03117 -0.19531,0.056641 -0.1106,0.0133 -0.2182,0.04499 -0.31836,0.09375 -0.0552,0.04781 -0.10495,0.101516 -0.14844,0.160156 -0.0822,0.06337 -0.15401,0.13915 -0.21289,0.22461 l -0.008,0.01563 -0.002,0.002 L 106.30859,14 h -5.19531 l -1,1 -0.999999,-1 h -2 l -1,1 -1,-1 h -5.214843 l -1.923829,-3.65625 c -0.08457,-0.161199 -0.211522,-0.296255 -0.367187,-0.390625 h -0.002 c -0.04145,-0.01516 -0.08386,-0.027509 -0.126953,-0.037109 -0.12092,-0.061822 -0.253165,-0.098422 -0.388672,-0.1074218 -0.0013,5.997e-4 -0.0026,0.00132 -0.0039,0.00195 -0.002,-6e-4 -0.0039,-0.00133 -0.0059,-0.00195 -0.06686,0.01219 -0.132302,0.031171 -0.195312,0.056641 -0.1106,0.0133 -0.218202,0.04499 -0.31836,0.09375 -0.05518,0.047807 -0.104957,0.1015168 -0.148437,0.1601568 -0.08219,0.06337 -0.154011,0.139149 -0.212891,0.224609 l -0.0078,0.01563 -0.002,0.002 -3.08789,5.826172 c -0.689276,-0.219325 -1.446965,-0.05123 -2.105469,0.339844 -0.188145,-0.492902 -0.476307,-0.922522 -0.851562,-1.197266 -0.555209,-0.406488 -1.139478,-0.619757 -1.671875,-0.58789 h -0.490235 c -0.06655,-0.004 -0.133159,-0.0036 -0.201172,0 -0.476087,0.02502 -0.984895,0.232209 -1.470703,0.58789 -0.375142,0.274691 -0.663418,0.704364 -0.851562,1.197266 -0.668988,-0.397418 -1.440468,-0.565739 -2.138557,-0.330131 -0.470075,0.158647 -0.90186,0.457466 -1.169922,0.904296 -0.169166,0.281985 -0.10875,0.674739 -0.113281,1.039063 -0.185753,-0.01884 -0.3699,-0.01049 -0.552735,0.0059 C 76.504083,8.6237529 86.498818,2.1328125 98.029297,2.1328125 Z M 87.113281,13 l 2.916016,5.541016 v 8.859375 L 85.070312,16.890625 C 85.750802,15.593623 86.439225,14.291807 87.113281,13 Z m 21.939449,0.167969 16.35743,31.078125 c -0.73219,1.641164 -1.60416,3.204832 -2.60743,4.673828 L 114.6582,33.533203 c -0.36641,-0.69375 -1.35252,-0.714686 -1.74804,-0.03711 l -5.29297,9.046875 c -0.47794,-0.239292 -0.98738,-0.389267 -1.50391,-0.468749 v -3.65625 l 5.98047,-9.826172 c 0.17076,-0.28 0.19338,-0.625929 0.0606,-0.925781 l -5.29693,-10.525391 z m -31.124996,2.572265 c 0.01039,9.77e-4 0.02082,0.0016 0.03125,0.002 h 0.548828 c 0.01044,-3.25e-4 0.02086,-9.31e-4 0.03125,-0.002 0.126692,-0.0076 0.641492,0.118275 1.021485,0.396485 0.379989,0.278205 0.648437,0.644343 0.648437,1.128906 6.28e-4,0.469331 0.589122,0.679322 0.886719,0.316406 0.358216,-0.4391 0.994368,-0.594225 1.53125,-0.488281 l -2.332031,4.396484 h -9.748047 c -0.156153,-0.19313 -0.270475,-0.381205 -0.339844,-0.5625 0.219994,-0.548171 0.452174,-1.089545 0.703125,-1.621093 0.425571,-0.282479 0.94712,-0.397129 1.359375,-0.228516 0.383442,0.156792 0.780318,-0.193936 0.671875,-0.59375 -0.108102,-0.397927 -0.05311,-0.658198 0.07227,-0.867187 0.125377,-0.208992 0.346194,-0.376581 0.630859,-0.472657 0.569331,-0.192151 1.323742,-0.05628 1.726563,0.4375 0.297597,0.362914 0.88609,0.152924 0.886718,-0.316406 0,-0.484563 0.268445,-0.850701 0.648438,-1.128906 0.379993,-0.27821 0.894799,-0.404068 1.021484,-0.396485 z m 39.765006,0.0098 c 0.01,9.38e-4 0.0195,0.0016 0.0293,0.002 h 0.55079 c 0.01,-3.64e-4 0.0196,-9.53e-4 0.0293,-0.002 0.12669,-0.0076 0.64149,0.118279 1.02148,0.396484 0.37999,0.27821 0.64844,0.644344 0.64844,1.128907 6.3e-4,0.469329 0.58912,0.67932 0.88672,0.316406 0.40282,-0.493785 1.15723,-0.629651 1.72656,-0.4375 0.28466,0.09607 0.50548,0.263663 0.63086,0.472656 0.12538,0.208993 0.18232,0.469261 0.0742,0.867188 -0.10845,0.399813 0.28843,0.750541 0.67187,0.59375 0.32747,-0.133936 0.73512,-0.09777 1.11328,0.04102 0.31311,0.652189 0.59713,1.320664 0.86329,1.998047 -0.0746,0.122124 -0.14577,0.243574 -0.25196,0.373047 h -9.98045 l -2.28906,-4.347656 c 0.56842,-0.188416 1.31575,-0.05214 1.7168,0.439453 0.29707,0.366885 0.8903,0.155667 0.88867,-0.316406 0,-0.484563 0.26845,-0.850697 0.64844,-1.128907 0.37999,-0.278205 0.89479,-0.404068 1.02148,-0.396484 z M 91.119141,15.988281 92.113281,16 h 2 c 0.999999,0 2.04711,0.97085 2,2 0,-0.999999 1.000001,-2 2,-2 0.999999,0 1.999999,1.000001 1.999999,2 0.0208,-0.964557 1,-2 2,-2 h 2 l 1,0.01172 c -0.48136,0.993015 -1,1.988282 -1,2.988281 V 43.617188 44 h 1 c 0.83716,0 1.56928,0.207727 2.06055,0.625 0.49126,0.417273 0.85547,1.064485 0.85547,2.351562 v 1 h 1 c 1.28728,0 1.94032,0.363102 2.36328,0.863282 0.42296,0.500176 0.63731,1.254211 0.63672,2.136718 v 1 l 2,0.002 v -1 c 8e-4,-1.203027 -0.28395,-2.451257 -1.11133,-3.429688 -0.67409,-0.797151 -1.76375,-1.242604 -3.04492,-1.416016 -0.11584,-0.853608 -0.35372,-1.619727 -0.73242,-2.234374 L 113.73047,36.054688 121.11328,50 h 0.91992 c -1.81825,2.424872 -3.99961,4.560084 -6.45898,6.335938 C 115.448,56.229951 115.32588,56.137618 115.19141,56 c -1.82075,1.739117 -2.96705,0.862238 -4.11719,0 -1.36706,1.447716 -2.67998,1.214666 -3.96094,0 -1.42532,1.544267 -2.80389,1.106942 -4.16797,0 -1.14706,1.238219 -2.38158,1.425689 -3.749998,0 -1.221337,1.025571 -2.52365,1.612734 -4.222656,0 -1.339481,1.556629 -2.613998,1.092577 -3.86914,0 -1.125464,0.886621 -2.264622,1.721149 -4.039063,0 -1.084763,0.772802 -2.094778,1.802496 -3.923828,0 -0.59244,0.609906 -1.173735,0.905987 -1.748047,0.972656 -4.691397,-3.129983 -8.440688,-7.549312 -10.755859,-12.75 4.386114,-8.318331 8.86173,-16.732685 13.257812,-25.089844 L 88.113281,28 74.720703,50.005859 h 2.339844 l 12.96875,-21.308593 v 7.068359 l -6.916016,11.818359 c -0.303879,0.36724 -0.532127,0.77038 -0.699219,1.195313 l -0.699218,1.193359 h 0.386718 c -0.04934,0.33437 -0.07249,0.671714 -0.07227,1.00586 l 0.002,1 2,-0.002 -0.002,-1 c -3.38e-4,-0.502322 0.07262,-0.959518 0.210937,-1.355468 l 0.501954,-0.861328 c 0.424574,-0.457875 1.070464,-0.783203 2.287109,-0.783204 h 1 v -1 c 0,-1.27777 0.375709,-1.926375 0.890625,-2.355468 0.449721,-0.37477 1.087454,-0.587146 1.796875,-0.634766 h 0.0039 l 1.308594,-0.0098 c 0.02998,-0.0069 0.05419,-0.01077 0.08398,-0.01758 V 19 c 0,-0.999999 -0.461198,-2.001093 -0.99414,-3.011719 z m 33.041019,1.41211 c 0.13561,0.240718 0.2674,0.48372 0.39648,0.728515 -0.12628,6.59e-4 -0.25246,-0.01006 -0.37891,0.0059 -0.005,-0.246638 0.0195,-0.505239 -0.0176,-0.734375 z m -18.04688,2.810547 4,7.789062 -4,6.572266 z m -36.367186,1.939453 c 0.05216,0.06287 0.09516,0.128768 0.154297,0.189453 0.09406,0.09616 0.222902,0.150376 0.357422,0.15039 h 9.507812 l -10.142578,19.13086 c -1.010368,-3.000975 -1.566406,-6.211775 -1.566406,-9.554688 0,-3.477263 0.599917,-6.8124 1.689453,-9.916015 z m 56.617186,0.148437 C 127.41977,25.360396 128,28.644446 128,32.066406 c 0,3.406086 -0.57592,6.675165 -1.62305,9.72461 L 116.22266,22.5 h 9.74023 c 0.13645,2e-5 0.26698,-0.05572 0.36133,-0.154297 z M 90.029297,39.726562 v 2.324219 c -0.579666,0.08926 -1.154019,0.266402 -1.685547,0.556641 z"
       id="path985"
  </g>
</svg>
