<?xml version="1.0" encoding="UTF-8" standalone="no"?>
<svg
   width="64"
   height="64"
   viewBox="0 0 64 64"
   version="1.1"
   xmlns="http://www.w3.org/2000/svg"
   xmlns:svg="http://www.w3.org/2000/svg">
    <path
       style="color:#000000;fill:#000000;stroke-linecap:round;stroke-linejoin:round;-inkscape-stroke:none"
       d="m 64,32.066406 c 0,4.278121 -0.850229,8.357785 -2.380859,12.087903 l 0.01563,0.02734 c -0.32142,0.775912 -0.673248,1.538878 -1.054688,2.287109 l -0.01172,-0.02148 C 55.370303,56.709523 44.004663,64.288771 32.721738,63.995216 21.438812,63.701662 16.308379,60.974999 12.136157,57.26712 7.9639353,53.559242 5.1093526,49.891716 2.9956496,45.09596 0.88194662,40.300204 0.05664062,36.279858 0.05664062,32.066406 0.05664062,14.441169 14.384406,0.1328125 32.029297,0.1328125 49.67419,0.1328125 64,14.441169 64,32.066406 Z M 5.4902344,18.146484 c 0.182835,-0.01639 0.3669813,-0.0247 0.5527344,-0.0059 0.00453,-0.364324 -0.055885,-0.757078 0.1132812,-1.039063 0.268062,-0.446829 0.6998469,-0.745649 1.1699219,-0.904296 0.698089,-0.235608 1.4696839,-0.06734 2.1386719,0.330078 0.188144,-0.492902 0.4764205,-0.922575 0.8514472,-1.197213 0.485808,-0.355681 0.994616,-0.56287 1.470703,-0.58789 0.06801,-0.0036 0.134622,-0.004 0.201172,0 h 0.490235 c 0.532397,-0.03187 1.116666,0.181402 1.671875,0.58789 0.375255,0.274744 0.663417,0.704364 0.851562,1.197266 0.658504,-0.391074 1.416193,-0.559169 2.105469,-0.339844 l 3.08789,-5.826172 0.002,-0.002 0.0078,-0.01563 c 0.05888,-0.08546 0.130701,-0.161239 0.212891,-0.224609 0.04348,-0.05864 0.09326,-0.11235 0.148437,-0.1601568 0.100158,-0.04876 0.20776,-0.08045 0.31836,-0.09375 0.06301,-0.02547 0.128452,-0.044451 0.195312,-0.056641 0.002,6.2e-4 0.0039,0.00135 0.0059,0.00195 0.0013,-6.3e-4 0.0026,-0.00135 0.0039,-0.00195 0.135507,0.009 0.267752,0.0456 0.388672,0.1074218 0.04309,0.0096 0.0855,0.021949 0.126953,0.037109 h 0.002 c 0.155665,0.09437 0.282617,0.229426 0.367187,0.390625 L 23.898438,14 h 5.214843 l 1,1 1,-1 h 2 l 1,1 1,-1 h 5.195313 l 1.826056,-3.470655 0.002,-0.002 0.0078,-0.01563 c 0.05888,-0.08546 0.130691,-0.16124 0.212891,-0.22461 0.04349,-0.05864 0.09324,-0.112346 0.148437,-0.160156 0.10016,-0.04876 0.20776,-0.08045 0.31836,-0.09375 0.06301,-0.02547 0.128412,-0.044451 0.195312,-0.056641 0.002,6.4e-4 0.0039,0.00125 0.0059,0.00195 10e-4,-6.5e-4 0.0029,-0.00125 0.0039,-0.00195 0.13551,0.0091 0.267752,0.045602 0.388672,0.107421 0.04306,0.0096 0.08545,0.02195 0.126953,0.03711 h 0.002 c 0.15566,0.09436 0.282587,0.229426 0.367187,0.390625 l 3.025391,5.748047 c 0.04673,-0.01905 0.09293,-0.03664 0.140625,-0.05273 0.6989,-0.235881 1.471115,-0.0666 2.140625,0.332031 0.18799,-0.493711 0.473919,-0.924155 0.849609,-1.199218 0.485811,-0.355681 0.994614,-0.562861 1.470704,-0.587891 0.06801,-0.0036 0.134672,-0.004 0.201172,0 h 0.490234 c 0.5324,-0.03187 1.118628,0.181399 1.673828,0.587891 0.3757,0.275062 0.661629,0.705507 0.849609,1.199218 0.66939,-0.398231 1.441985,-0.567825 2.140625,-0.332031 0.33534,0.113177 0.648178,0.301864 0.898438,0.560547 C 52.570412,8.0025017 42.99456,2.1328125 32.029297,2.1328125 c -11.530479,0 -21.525214,6.4908998 -26.5390626,16.0136715 z M 19.070312,16.890625 24.029297,27.400391 V 18.541016 L 21.113281,13 c -0.674056,1.291807 -1.362479,2.593623 -2.042969,3.890625 z m 21.78711,0.25 5.296878,10.52539 c 0.132777,0.299852 0.11021,0.645781 -0.06055,0.925781 l -5.980469,9.826172 v 3.65625 c 0.51653,0.07948 1.025966,0.229458 1.503907,0.46875 l 5.292968,-9.046875 c 0.39552,-0.677575 1.381637,-0.65664 1.748047,0.03711 l 8.144531,15.386719 c 1.00327,-1.468996 1.875232,-3.032664 2.607422,-4.673828 L 43.052734,13.167969 Z M 10.90625,16.136719 c -0.379993,0.278205 -0.648438,0.644343 -0.648438,1.128906 -6.28e-4,0.46933 -0.589121,0.67932 -0.8867179,0.316406 -0.4028211,-0.49378 -1.1572315,-0.629651 -1.7265626,-0.4375 -0.284665,0.09608 -0.5054823,0.263665 -0.6308593,0.472657 -0.12538,0.208989 -0.180368,0.46926 -0.072266,0.867187 0.108443,0.399814 -0.2884329,0.750542 -0.671875,0.59375 -0.412255,-0.168613 -0.9338039,-0.05396 -1.359375,0.228516 -0.250951,0.531548 -0.483131,1.072922 -0.703125,1.621093 0.069369,0.181295 0.1836908,0.36937 0.3398438,0.5625 h 9.748047 l 2.332031,-4.396484 c -0.536882,-0.105944 -1.173034,0.04918 -1.53125,0.488281 -0.297597,0.362916 -0.886091,0.152925 -0.886719,-0.316406 0,-0.484563 -0.268448,-0.850701 -0.648437,-1.128906 -0.379993,-0.27821 -0.894792,-0.404085 -1.021485,-0.396485 -0.01039,0.0011 -0.02081,0.0017 -0.03125,0.002 h -0.548828 c -0.01043,-4e-4 -0.02086,-10e-4 -0.03125,-0.002 -0.126685,-0.0076 -0.641491,0.118275 -1.021484,0.396485 z m 39.765625,0.0098 c -0.37999,0.27821 -0.648437,0.644344 -0.648437,1.128907 0.0016,0.472073 -0.591602,0.683291 -0.888672,0.316406 -0.40105,-0.491593 -1.148377,-0.627869 -1.716797,-0.439453 L 49.707031,21.5 H 59.6875 c 0.10619,-0.129473 0.177353,-0.250923 0.251961,-0.373042 -0.26616,-0.677383 -0.550171,-1.345858 -0.863281,-1.998047 -0.37816,-0.13879 -0.785811,-0.174956 -1.113281,-0.04102 -0.38344,0.156791 -0.780325,-0.193937 -0.671875,-0.59375 0.108119,-0.397927 0.05116,-0.658195 -0.07422,-0.867188 -0.12538,-0.208993 -0.346199,-0.376586 -0.630859,-0.472656 -0.569331,-0.192151 -1.323743,-0.05628 -1.726563,0.4375 -0.2976,0.362914 -0.886089,0.152923 -0.886719,-0.316406 0,-0.484563 -0.268447,-0.850697 -0.648437,-1.128907 C 52.944236,15.868279 52.429431,15.7424 52.302741,15.75 c -0.0097,0.0011 -0.0193,0.0016 -0.0293,0.002 h -0.550782 c -0.0098,-4e-4 -0.0193,-0.0011 -0.0293,-0.002 -0.12669,-0.0076 -0.641494,0.118279 -1.021484,0.396484 z M 25.119126,15.988281 c 0,0 0.99414,2.011721 0.99414,3.011719 v 24.710019 c -1.711859,0 -2.278003,0.0061 -3.193349,0.911029 -0.915346,0.904961 -0.890625,1.912584 -0.890625,3.355468 -1.222001,-0.135201 -2.579353,1e-6 -3.287109,0.783204 -0.937881,1.03786 -0.713489,1.917839 -0.710891,3.216796 l -2,0.002 c -0.03377,-0.665818 0.01977,-1.405468 0.07027,-2.00586 H 15.714844 L 24.029297,35.765625 V 28.697266 L 11.060547,50.005859 H 8.7207031 L 22.113281,28 17.894531,19.132812 c -4.396082,8.357159 -8.8716982,16.771513 -13.2578122,25.089844 2.315171,5.200688 6.0644622,9.620017 10.7558592,12.75 0.574312,-0.06667 1.155607,-0.36275 1.748047,-0.972656 1.82905,1.802496 2.839065,0.772802 3.923828,0 1.774441,1.721149 2.913599,0.886621 4.039063,0 1.255142,1.092577 2.529659,1.556629 3.86914,0 1.699006,1.612734 3.001319,1.025571 4.222656,0 1.368419,1.425689 2.602941,1.238219 3.75,0 1.364081,1.106942 2.742649,1.544267 4.167969,0 1.28096,1.214666 2.593878,1.447716 3.960938,0 1.15014,0.862238 2.296437,1.739117 4.117187,0 0.13447,0.137618 0.256593,0.229951 0.382813,0.335938 C 52.033589,54.560084 54.214953,52.424872 56.033203,50 h -0.919922 l -7.382812,-13.945312 -4.589844,7.843798 c 0.3787,0.614647 0.616582,1.380766 0.732422,2.234374 1.28117,0.173412 2.423199,0.577382 3.044922,1.416016 1.075295,1.450451 1.111328,2.787622 1.111328,4.429688 l -2,-0.002 c 0.130168,-1.138764 0.216434,-2.211538 -0.636719,-3.136718 -0.853153,-0.92518 -1.923881,-0.863282 -3.363281,-0.863282 0.142657,-1.26367 -0.06556,-2.606022 -0.855469,-3.351562 -0.912678,-0.861418 -1.878767,-0.625 -3.060547,-0.625 v -25 c 0,-0.999999 0.51864,-1.995266 1,-2.988281 l -3,-0.01172 c -1,0 -1.973516,0.973122 -2,2 -0.0087,-1.026727 -1.000001,-2 -2,-2 -0.999999,0 -1.964678,0.931726 -2,2 0.0028,-1.070833 -1.000001,-2 -2,-2 z m 33.041028,1.41215 c 0.0371,0.229136 0.01258,0.487737 0.01758,0.734375 0.12645,-0.016 0.252627,-0.0052 0.378907,-0.0059 -0.12908,-0.244795 -0.260875,-0.487797 -0.396485,-0.728515 z m -18.046873,17.171835 4,-6.572266 -4,-7.789062 z M 2.0566406,32.066406 c 0,3.342913 0.5560383,6.553713 1.5664063,9.554688 L 13.765625,22.490234 H 4.2578125 C 4.118558,22.397752 3.8231538,22.388847 3.7460938,22.150391 2.6565578,25.254006 2.0566406,28.589143 2.0566406,32.066406 Z M 60.324219,22.345703 C 60.229869,22.44428 60.099341,22.50002 59.962891,22.5 H 50.222656 L 60.376953,41.791016 C 61.424083,38.741571 62,35.472492 62,32.066406 c 0,-3.42196 -0.580229,-6.70601 -1.636719,-9.767578 z M 22.34375,42.607422 c 0.531528,-0.290239 1.105881,-0.467381 1.685547,-0.556641 v -2.324219 z"
      />
</svg>
