<?xml version='1.0' ?>
<svg xmlns="http://www.w3.org/2000/svg" xmlns:xlink="http://www.w3.org/1999/xlink" version="1.1" width="220.73405863240689" height="204.0">
  <style type="text/css">
.edge {
  fill: None;
}
.edge.visible {
  stroke: #000000;
}
.edge.hidden {
  stroke: #C8C8FF;
}
@media (prefers-color-scheme: dark) {
    .edge.visible {
      stroke: #FFFFFF;
    }
    .edge.hidden {
      stroke: #A00000;
    }
}
</style>
  <g>
    <path fill-opacity="0.0" class="edge sharp hidden" d="M126.10759538945516,174.39185331146086 L194.77757887001138,41.05037926511531 M31.688228958902087,135.34147404634555 L85.62784987400444,30.603010488139702 M126.10759538945516,174.39185331146086 L31.688228958902087,135.34147404634555 M124.8640265650558,183.12013369697743 L127.73299047110754,177.54925895915227 M30.44466013450274,144.06975443186212 L88.60601600421981,31.133642740528316 M124.8640265650558,183.12013369697743 L30.444660134502726,144.06975443186212 M126.10759538945516,174.39185331146086 L124.86402656505581,183.12013369697743 M31.688228958902087,135.34147404634555 L30.444660134502737,144.06975443186212 M33.98167403777535,172.47474494340736 L33.98167403777535,21.400996425461074 M33.98167403777535,172.47474494340736 L2.000000000000032,185.2959378260686 M33.98167403777535,172.47474494340736 L127.73299047110757,189.17880711733872" />
    <path fill-opacity="0.0" class="edge outline hidden" d="M126.04120448429246,140.23075514889214 C126.3603850279233,140.36370039464924 126.72020084920811,140.5055449270351 127.17723688103945,140.67751208994747 C127.64205665506346,140.85077073903372 128.20409663963406,141.05415201864645 129.13788654903752,141.3450408855487 C129.65805822103437,141.50204830921894 130.3384415238459,141.70520867143708 131.2115070752645,141.91858868417285 C132.08082135995664,142.13164022459748 133.1359104431558,142.3527921166772 134.3042094743109,142.53691384766805 C135.47199510597403,142.72170052768968 136.74608323549253,142.86733774775934 138.03953382653805,142.9473135679903 C139.3357088853258,143.02894775859346 140.64433895553978,143.04280125049524 141.95476909763875,143.00879647423483 C143.19019300648836,142.9730220378727 144.42328376089736,142.88697593276075 145.6540413608654,142.75065815889872 M141.47040291635352,19.003361611447026 C141.07425213856155,19.314669115050062 140.68104516656766,19.628934014940416 140.29078200037256,19.946156311118173 C134.50636403211305,24.653147933567908 129.3809442354773,29.963412058882575 124.87472378405486,35.64387853769528 C120.37037205758885,41.32823182146979 116.4852196763366,47.38278745874254 113.2317921126688,53.6833058390762 C110.58069474857082,58.819898873201716 108.33989526091169,64.1413407511886 106.55923171855098,69.5975837251538 C104.78029920952882,75.05356784180469 103.46146298961835,80.64434759473731 102.7009693905168,86.31261887838923 C102.1377017112309,90.51995156763759 101.88394107285954,94.76861700422681 102.00867084738522,99.02043766250142 C102.13474163758195,103.27079762845166 102.6393424968627,107.52431827578421 103.62894456535817,111.70191434088507 C104.69843986700806,116.20859020098642 106.33894494427308,120.63642289050249 108.71568616961541,124.74368014546587 C109.60302970286898,126.28335981407194 110.5751509730194,127.72646522270021 111.64391954811121,129.11839311809473 C112.71184772234476,130.50704674881868 113.89681141649496,131.84561045141007 115.17444965515836,133.08233276677154 C116.44668879160078,134.31742345315433 117.81066471672914,135.44257658825464 119.07814227353617,136.35488630650582 C120.34565857557361,137.27151191388631 121.49441278265948,137.95801419121054 122.32455528481445,138.42686337346169 C122.95231352267616,138.77861904985613 123.42316093513985,139.02104752902864 123.81487058506642,139.21669642652017 C124.20535555098694,139.41103998574349 124.51670275437068,139.55860396328666 124.79239410591427,139.6853865031849 C125.2947091298736,139.91619478170344 125.67991512250633,140.0809531658114 126.04120448429246,140.23075514889214" />
    <path fill-opacity="0.0" class="edge sharp visible" d="M194.77757887001138,41.05037926511532 L100.35821243945831,2.000000000000007 M85.62784987400444,30.603010488139702 L100.35821243945833,2.0 M127.73299047110754,177.54925895915227 L193.53401004561204,49.77865965063188 M193.53401004561204,49.77865965063189 L99.11464361505897,10.728280385516577 M88.60601600421981,31.133642740528316 L99.11464361505898,10.72828038551657 M194.77757887001138,41.05037926511532 L193.53401004561204,49.77865965063188 M100.35821243945834,2.000000000000014 L99.114643615059,10.728280385516578 M33.98167403777535,21.400996425461045 L2.000000000000032,34.222189308122296 M2.0,185.2959378260686 L2.000000000000002,34.222189308122324 M127.73299047110754,189.1788071173387 L127.73299047110754,38.10505859939241 M127.73299047110756,38.105058599392414 L95.75131643333224,50.926251482053665 M95.75131643333222,201.99999999999997 L95.75131643333222,50.92625148205369 M127.73299047110754,189.1788071173387 L95.75131643333222,201.99999999999994 M33.98167403777535,21.400996425461045 L127.73299047110757,38.105058599392414 M2.0,185.2959378260686 L95.75131643333222,201.99999999999997 M2.0,34.222189308122296 L95.75131643333222,50.926251482053665" />
    <path fill-opacity="0.0" class="edge outline visible" d="M145.65404136086536,142.75065815889872 C149.70829696233153,142.303564004258 153.69833035485357,141.34144665713288 157.51119281900486,140.01807201332582 C161.32812776691802,138.69331964067302 164.96789178646097,137.00730997133857 168.43156570354427,135.0752324934428 C172.1835108384671,132.97780539451398 175.7179436956228,130.5883579052831 179.0404845034376,127.99312836229188 C182.36314985039712,125.39669818178174 185.47393997517835,122.59449858373982 188.3819879464082,119.63916938653732 C192.31086831586535,115.64483671833628 195.8699292041835,111.37359142045057 199.06927637529603,106.90634233631548 C202.2679408823129,102.43813881889571 205.10681105773185,97.77389231275036 207.57680622584184,92.96776621758158 C210.21861954844317,87.82462545919937 212.44963614526503,82.49726823852058 214.219236007221,77.03560311349088 C215.98710355014842,71.57421544232122 217.2936594336078,65.9785520363747 218.03974429403132,60.306258090166004 C218.59150896726263,56.102044852919626 218.83347530052532,51.857121607843254 218.6963428662429,47.609924234401504 C218.5578705227576,43.36420585219239 218.04025812355917,39.11620773829143 217.03675095082667,34.945786099297166 C215.9532085553782,30.450505624340128 214.29806293591452,26.035601172560767 211.90851459594072,21.945562483581398 C211.02922850911568,20.4331421347847 210.06667906556015,19.016621087166605 209.01085884185997,17.64759977704002 C207.95607890390872,16.28223253417799 206.78485168931658,14.963843188695447 205.53238354359476,13.752453199354639 C204.2854885331887,12.542558205368126 202.9611889299933,11.449396447785503 201.76682463634518,10.580956394332722 C201.17038530362612,10.14613646012463 200.60937659771727,9.767388625834533 200.11037605275067,9.44808999726213 C199.60928380924958,9.130592171017598 199.1759138413571,8.86597915363776 198.81026614907358,8.654250945122655 C197.83639923833195,8.09213956933955 197.1591608148232,7.748980166288736 196.5880253619663,7.470558543688609 C196.02037325529184,7.195968657945029 195.55882411926908,6.986116552652137 195.11038613042706,6.794076667511575 C194.48833926645787,6.528035853864439 193.90770762227322,6.294214595337016 193.1197339835752,6.009887352757431 C192.94816333760056,5.947995256456085 192.76300884373822,5.883267299995279 192.56427050198826,5.815703483375009 C192.36758210026025,5.748417758248842 192.1509870545078,5.676877141210286 191.9144853647307,5.601081632259337 C191.43724132554914,5.449075159780343 190.86566396980976,5.2765319176540055 190.14139887906583,5.084670814322221 C189.41812224504272,4.894105589842672 188.5185736698061,4.677555365765262 187.35450396121817,4.463090027596333 C186.77547452384917,4.3567161795508165 186.13517930173896,4.253040933314264 185.46188071409867,4.163763177676964 C184.78811565222586,4.073938088024533 184.0880859649187,4.001147786684036 183.38312141305929,3.9436082675955078 C180.55705048992215,3.713545201031822 177.5744555964288,3.7882605499169157 174.63852869055427,4.1370161514890516 C171.6961774903152,4.484418541930452 168.80049427769484,5.105861185058877 165.97479076845673,5.932716006451925 C161.41030985618858,7.273414874788326 157.06630473791932,9.15157815833989 152.97852204025477,11.378489619415973 C148.88915273228918,13.608194929328207 145.0560058449285,16.186648416764868 141.47040291635352,19.003361611447026" />
  </g>
</svg>
