<?xml version='1.0' ?>
<svg xmlns="http://www.w3.org/2000/svg" xmlns:xlink="http://www.w3.org/1999/xlink" version="1.1" width="485.57336418679444" height="204.00000000000003">
  <style type="text/css">
.edge {
  fill: None;
}
.edge.visible {
  stroke: #000000;
}
.edge.hidden {
  stroke: #C8C8FF;
}
@media (prefers-color-scheme: dark) {
    .edge.visible {
      stroke: #FFFFFF;
    }
    .edge.hidden {
      stroke: #A00000;
    }
}
</style>
  <g>
    <path fill-opacity="0.0" class="edge sharp hidden" d="M42.44005238495336,77.0619255060229 C56.64564959643229,71.36351225807351 74.28516748397412,66.27879441699802 94.47322939394064,62.06257258208352 C114.65219602331369,57.84328813349863 137.3716368602878,54.49437224846475 161.49036339313398,52.184278457049125 C185.6041272121655,49.87046990992251 211.10765158313706,48.596396392171016 236.72020275243446,48.425949277692446 C262.3323876197943,48.25156741995386 288.04355039823565,49.18084066371429 312.56266637122354,51.16698346551598 C337.0860396184068,53.14936835470216 360.40772501537845,56.1878426467275 381.35642176081717,60.1299400290117 C402.31358983999877,64.06881781122053 420.8894676511719,68.90980505916013 436.1510267219523,74.40987233243513 C443.78485968970483,77.15914216276506 450.5955506726583,80.07162616362787 456.49669997897075,83.11033910099984 C462.3986734166331,86.14893748242369 467.390962240763,89.31368746386644 471.4102722357738,92.56439082302329 C475.4304608509848,95.81501794814143 478.4775813798142,99.15151230424733 480.5129751047178,102.53153604492454 C482.54927507056146,105.91152586523809 483.57381993286106,109.33495070209919 483.5733641867944,112.75851821858781 M2.0000000000000284,112.75851821858775 C1.9949063881883413,106.45148924436947 5.488923370143723,100.14528178311458 12.331687303734146,94.1100555713637 C19.164264013701178,88.07400500751152 29.345587675303264,82.30893569316355 42.44005238495333,77.06192550602287 M109.2222622877679,166.3034072874351 L200.51152119434386,129.7062862244806 M322.92533397677494,127.03715530361379 L443.13331180184116,148.45511093115272 M443.13331180184105,148.4551109311527 C434.3924094854505,151.95978957527583 424.3597395810682,155.23408624701568 413.2269801869767,158.21527454417222 C402.09575691449464,161.19686076174253 389.8651904934681,163.88515919239993 376.7699903543261,166.22861183420596 C363.67596864635493,168.57253601528288 349.7180930249738,170.57147971271618 335.16408892048435,172.18711465282226 C320.6108898706939,173.8032737897105 305.4623756060419,175.03603419201616 290.0088330154633,175.86177172462442 C259.10293898823124,177.51833202069557 226.97820559191274,177.52732165679572 196.05854014037516,175.88804515660098 C180.59820274740966,175.07095019965658 165.43972155841547,173.8466579448098 150.87394850101856,172.23863395774794 C136.30733013208044,170.6311351840563 122.33436701714858,168.6399935710436 109.22226228776789,166.3034072874351" />
    <path fill-opacity="0.0" class="edge outline hidden" />
    <path fill-opacity="0.0" class="edge sharp visible" d="M443.13331180184105,148.4551109311527 L443.13331180184105,102.04954040481833 M483.5733641867944,112.7585182185878 C483.57845779860617,119.0655471928061 480.0844408166507,125.37175465406105 473.2416768830602,131.40698086581185 C466.40910017309346,137.443031429664 456.22777651149096,143.208100744012 443.1333118018412,148.4551109311527 M42.44005238495336,30.656354979688558 C56.64564959643229,24.957941731739158 74.28516748397412,19.87322389066371 94.47322939394064,15.657002055749205 C114.65219602331369,11.437717607164267 137.3716368602878,8.088801722130347 161.49036339313398,5.77870793071475 C185.6041272121655,3.4648993835881297 211.10765158313706,2.1908258658366564 236.72020275243446,2.0203787513580913 C262.3323876197943,1.84599689361952 288.04355039823565,2.7752701373799415 312.56266637122354,4.761412939181626 C337.0860396184068,6.743797828367857 360.40772501537845,9.782272120393136 381.35642176081717,13.72436950267735 C402.31358983999877,17.66324728488616 420.8894676511719,22.50423453282575 436.1510267219523,28.00430180610076 C443.78485968970483,30.75357163643068 450.5955506726583,33.66605563729348 456.49669997897075,36.70476857466552 C462.3986734166331,39.743366956089275 467.390962240763,42.908116937532036 471.4102722357738,46.15882029668895 C475.4304608509848,49.40944742180702 478.4775813798142,52.74594177791291 480.5129751047178,56.125965518590164 C482.54927507056146,59.505955338903675 483.57381993286106,62.92938017576479 483.5733641867944,66.35294769225345 M483.5733641867944,66.35294769225345 C483.57845779860617,72.6599766664718 480.0844408166507,78.96618412772668 473.2416768830602,85.00141033947749 C466.40910017309346,91.0374609033297 456.22777651149096,96.80253021767766 443.1333118018412,102.04954040481836 M109.2222622877679,166.3034072874351 L109.2222622877679,119.89783676110075 M109.22226228776788,166.3034072874351 C92.81218565795851,163.38043436898175 77.75481678663078,159.91571993785806 64.50206473059642,156.01276376494116 C51.24538236651478,152.11075380823263 39.79459216651832,147.7711389962145 30.491554562097146,143.12391315359835 C21.183988829882374,138.4773349866513 14.025451042034724,133.5237826755898 9.231014051823026,128.41138496386 C4.431451114071301,123.29933638726 1.9972643227477405,118.02907929647557 2.000000000000025,112.7585182185878 M109.22226228776788,119.89783676110073 C92.81218565795851,116.97486384264742 77.75481678663078,113.51014941152368 64.50206473059642,109.60719323860677 C51.24538236651478,105.70518328189821 39.79459216651832,101.36556846988006 30.491554562097146,96.71834262726392 C21.183988829882374,92.07176446031687 14.025451042034724,87.11821214925541 9.231014051823026,82.0058144375256 C4.431451114071301,76.89376586092565 1.9972643227477405,71.62350877014117 2.000000000000025,66.35294769225341 M2.0000000000000284,66.35294769225338 C1.9949063881883413,60.04591871803511 5.488923370143723,53.739711256780204 12.331687303734146,47.704485045029365 C19.164264013701178,41.66843448117717 29.345587675303264,35.90336516682916 42.44005238495333,30.65635497968852 M242.78668209339722,112.7585182185878 L242.78668209339722,66.35294769225344 M200.51152119434386,129.7062862244806 L242.7866820933972,112.75851821858778 M109.2222622877679,119.89783676110076 L242.7866820933972,66.35294769225344 M242.78668209339722,112.7585182185878 L322.92533397677494,127.03715530361379 M242.78668209339722,66.35294769225344 L443.13331180184116,102.04954040481834 M443.13331180184105,102.04954040481832 C434.3924094854505,105.55421904894146 424.3597395810682,108.82851572068127 413.2269801869767,111.80970401783783 C402.09575691449464,114.79129023540821 389.8651904934681,117.47958866606542 376.7699903543261,119.82304130787158 C363.67596864635493,122.16696548894848 349.7180930249738,124.16590918638175 335.16408892048435,125.7815441264879 C320.6108898706939,127.3977032633761 305.4623756060419,128.63046366568184 290.0088330154633,129.4562011982901 C259.10293898823124,131.11276149436108 226.97820559191274,131.12175113046146 196.05854014037516,129.4824746302666 C180.59820274740966,128.66537967332218 165.43972155841547,127.44108741847549 150.87394850101856,125.83306343141354 C136.30733013208044,124.22556465772189 122.33436701714858,122.23442304470925 109.22226228776789,119.89783676110072 M309.56889199621185,202.00000000000003 L309.56889199621185,155.59442947366568 M309.56889199621185,202.00000000000003 L109.2222622877679,166.3034072874351 M309.56889199621185,155.59442947366566 L109.2222622877679,119.89783676110075 M443.13331180184116,148.4551109311527 L309.56889199621185,202.0 M443.13331180184116,102.04954040481833 L309.56889199621185,155.59442947366566" />
    <path fill-opacity="0.0" class="edge outline visible" d="M483.57336418679444,66.35294769225345 L483.57336418679444,112.75851821858781 M2.000000000000001,66.35294769225342 L2.0,112.75851821858778" />
  </g>
</svg>
