<?xml version='1.0' ?>
<svg xmlns="http://www.w3.org/2000/svg" xmlns:xlink="http://www.w3.org/1999/xlink" version="1.1" width="485.5733641867944" height="204.0">
  <style type="text/css">
.edge {
  fill: None;
}
.edge.visible {
  stroke: #000000;
}
.edge.hidden {
  stroke: #C8C8FF;
}
@media (prefers-color-scheme: dark) {
    .edge.visible {
      stroke: #FFFFFF;
    }
    .edge.hidden {
      stroke: #A00000;
    }
}
</style>
  <g>
    <path class="edge sharp hidden" d="M42.44005238495336,77.06192550602289 C56.6456495964324,71.36351225807351 74.28516748397416,66.27879441699804 94.47322939394067,62.062572582083504 C114.65219602331372,57.843288133498596 137.37163686028765,54.4943722484647 161.49036339313395,52.184278457049096 C185.6041272121655,49.87046990992245 211.10765158313689,48.596396392171 236.72020275243446,48.42594927769244 C262.33238761979413,48.25156741995383 288.0435503982357,49.18084066371425 312.5626663712234,51.16698346551597 C337.0860396184069,53.14936835470214 360.40772501537816,56.18784264672743 381.35642176081706,60.129940029011685 C402.31358983999877,64.06881781122043 420.8894676511719,68.90980505916008 436.15102672195223,74.4098723324351 C443.78485968970494,77.15914216276504 450.59555067265796,80.07162616362774 456.49669997897075,83.11033910099982 C462.39867341663285,86.14893748242356 467.390962240763,89.31368746386636 471.41027223577373,92.56439082302326 C475.4304608509849,95.81501794814133 478.4775813798139,99.1515123042472 480.51297510471767,102.53153604492447 C482.54927507056175,105.91152586523799 483.57381993286066,109.33495070209902 483.57336418679444,112.75851821858778 M2.0000000000000284,112.75851821858774 C1.9949063881883424,106.45148924436948 5.488923370143716,100.1452817831145 12.33168730373414,94.11005557136372 C19.164264013701167,88.07400500751152 29.345587675303264,82.30893569316355 42.44005238495333,77.06192550602287 M109.2222622877679,166.3034072874351 L200.51152119434386,129.7062862244806 M322.9253339767749,127.03715530361376 L443.1333118018411,148.4551109311527 M443.13331180184105,148.4551109311527 C434.3924094854505,151.9597895752758 424.35973958106797,155.23408624701582 413.22698018697656,158.21527454417222 C402.0957569144944,161.1968607617427 389.8651904934681,163.88515919239978 376.76999035432584,166.22861183420596 C363.67596864635493,168.57253601528282 349.7180930249735,170.5714797127161 335.16408892048423,172.18711465282226 C320.61088987069377,173.8032737897105 305.4623756060418,175.0360341920162 290.00883301546327,175.86177172462448 C259.10293898823096,177.51833202069542 226.97820559191283,177.5273216567959 196.0585401403751,175.88804515660098 C180.59820274740957,175.07095019965658 165.43972155841536,173.84665794480978 150.87394850101853,172.23863395774796 C136.3073301320803,170.63113518405615 122.33436701714854,168.63999357104382 109.22226228776785,166.3034072874351" />
    <path class="edge outline hidden" />
    <path class="edge sharp visible" d="M443.13331180184105,148.45511093115266 L443.13331180184105,102.04954040481832 M483.5733641867944,112.75851821858778 C483.5784577986064,119.06554719280606 480.08444081665084,125.37175465406105 473.24167688306017,131.4069808658118 C466.4091001730933,137.44303142966396 456.2277765114913,143.20810074401197 443.1333118018411,148.45511093115272 M42.44005238495336,30.656354979688544 C56.6456495964324,24.957941731739155 74.28516748397416,19.873223890663684 94.47322939394067,15.65700205574918 C114.65219602331372,11.437717607164261 137.37163686028765,8.088801722130329 161.49036339313395,5.778707930714736 C185.6041272121655,3.4648993835881203 211.10765158313689,2.1908258658366435 236.72020275243446,2.020378751358076 C262.33238761979413,1.8459968936195155 288.0435503982357,2.7752701373799455 312.5626663712234,4.761412939181612 C337.0860396184069,6.743797828367851 360.40772501537816,9.782272120393145 381.35642176081706,13.724369502677344 C402.31358983999877,17.663247284886154 420.8894676511719,22.50423453282578 436.15102672195223,28.00430180610074 C443.78485968970494,30.753571636430706 450.59555067265796,33.66605563729348 456.49669997897075,36.70476857466549 C462.39867341663285,39.7433669560893 467.390962240763,42.90811693753203 471.41027223577373,46.158820296688944 C475.4304608509849,49.40944742180704 478.4775813798139,52.74594177791287 480.51297510471767,56.12596551859015 C482.54927507056175,59.505955338903675 483.57381993286066,62.929380175764756 483.57336418679444,66.35294769225344 M483.5733641867944,66.35294769225344 C483.5784577986064,72.65997666647179 480.08444081665084,78.96618412772666 473.24167688306017,85.00141033947746 C466.4091001730933,91.03746090332963 456.2277765114913,96.8025302176777 443.1333118018411,102.04954040481833 M109.2222622877679,166.3034072874351 L109.2222622877679,119.89783676110076 M109.22226228776788,166.3034072874351 C92.81218565795855,163.38043436898184 77.75481678663076,159.91571993785803 64.5020647305964,156.0127637649411 C51.2453823665148,152.11075380823257 39.79459216651829,147.77113899621446 30.491554562097132,143.12391315359827 C21.183988829882377,138.47733498665121 14.025451042034684,133.52378267558976 9.23101405182303,128.41138496386 C4.431451114071271,123.29933638726 1.9972643227477245,118.02907929647557 2.000000000000032,112.7585182185878 M109.22226228776788,119.89783676110073 C92.81218565795855,116.97486384264742 77.75481678663076,113.51014941152368 64.5020647305964,109.60719323860677 C51.2453823665148,105.70518328189821 39.79459216651829,101.36556846988006 30.491554562097132,96.71834262726392 C21.183988829882377,92.07176446031687 14.025451042034684,87.11821214925541 9.23101405182303,82.0058144375256 C4.431451114071271,76.89376586092565 1.9972643227477245,71.62350877014117 2.000000000000032,66.35294769225341 M2.0000000000000284,66.35294769225338 C1.9949063881883424,60.04591871803511 5.488923370143716,53.739711256780204 12.33168730373414,47.704485045029365 C19.164264013701167,41.66843448117717 29.345587675303264,35.90336516682916 42.44005238495333,30.65635497968852 M242.7866820933972,112.75851821858778 L242.7866820933972,66.35294769225342 M200.51152119434386,129.7062862244806 L242.7866820933972,112.75851821858778 M109.2222622877679,119.89783676110075 L242.7866820933972,66.35294769225342 M242.7866820933972,112.75851821858778 L322.9253339767749,127.03715530361376 M242.7866820933972,66.35294769225342 L443.1333118018411,102.04954040481832 M443.13331180184105,102.04954040481832 C434.3924094854505,105.55421904894146 424.35973958106797,108.82851572068127 413.22698018697656,111.80970401783783 C402.0957569144944,114.79129023540821 389.8651904934681,117.47958866606542 376.76999035432584,119.82304130787158 C363.67596864635493,122.16696548894848 349.7180930249735,124.16590918638175 335.16408892048423,125.7815441264879 C320.61088987069377,127.3977032633761 305.4623756060418,128.63046366568184 290.00883301546327,129.4562011982901 C259.10293898823096,131.11276149436108 226.97820559191283,131.12175113046146 196.0585401403751,129.4824746302666 C180.59820274740957,128.66537967332218 165.43972155841536,127.44108741847549 150.87394850101853,125.83306343141354 C136.3073301320803,124.22556465772189 122.33436701714854,122.23442304470925 109.22226228776785,119.89783676110072 M309.5688919962118,202.0 L309.5688919962118,155.59442947366566 M309.5688919962118,202.0 L109.22226228776788,166.3034072874351 M309.5688919962118,155.59442947366563 L109.22226228776788,119.89783676110073 M443.13331180184105,148.45511093115266 L309.56889199621173,202.0 M443.13331180184105,102.04954040481832 L309.56889199621173,155.59442947366563" />
    <path class="edge outline visible" d="M483.5733641867944,66.35294769225345 L483.5733641867944,112.7585182185878 M2.000000000000001,66.35294769225342 L2.0,112.75851821858777" />
  </g>
</svg>
