<?xml version='1.0' ?>
<svg xmlns="http://www.w3.org/2000/svg" xmlns:xlink="http://www.w3.org/1999/xlink" version="1.1" width="485.57336418679427" height="204.0">
  <style type="text/css">
.edge {
  fill: None;
}
.edge.visible {
  stroke: #000000;
}
.edge.hidden {
  stroke: #C8C8FF;
}
@media (prefers-color-scheme: dark) {
    .edge.visible {
      stroke: #FFFFFF;
    }
    .edge.hidden {
      stroke: #A00000;
    }
}
</style>
  <g>
    <path class="edge sharp hidden" d="M42.44005238495333,77.0619255060229 C56.645649596431994,71.36351225807351 74.28516748397392,66.27879441699804 94.47322939394053,62.062572582083554 C114.65219602331356,57.84328813349858 137.3716368602878,54.49437224846475 161.49036339313386,52.18427845704912 C185.60412721216548,49.87046990992246 211.10765158313697,48.596396392171044 236.72020275243435,48.42594927769243 C262.332387619794,48.251567419953865 288.04355039823577,49.18084066371428 312.56266637122343,51.16698346551597 C337.0860396184068,53.149368354702176 360.4077250153785,56.1878426467275 381.35642176081706,60.12994002901168 C402.31358983999894,64.06881781122048 420.88946765117174,68.90980505916012 436.15102672195206,74.40987233243507 C443.7848596897046,77.15914216276504 450.59555067265825,80.07162616362785 456.4966999789704,83.1103391009998 C462.3986734166331,86.14893748242368 467.39096224076275,89.31368746386634 471.4102722357737,92.56439082302327 C475.4304608509849,95.81501794814133 478.47758137981435,99.15151230424726 480.51297510471784,102.53153604492451 C482.54927507056175,105.91152586523805 483.57381993286134,109.3349507020991 483.57336418679427,112.7585182185878 M2.0,112.75851821858777 C1.9949063881883167,106.4514892443695 5.488923370143682,100.14528178311458 12.331687303734105,94.11005557136373 C19.164264013701132,88.07400500751152 29.345587675303225,82.30893569316356 42.440052384953304,77.0619255060229 M109.2222622877679,166.3034072874351 L200.51152119434377,129.70628622448064 M322.92533397677465,127.03715530361374 L443.13331180184105,148.4551109311527 M443.13331180184093,148.4551109311527 C434.3924094854504,151.95978957527586 424.3597395810678,155.23408624701574 413.2269801869765,158.21527454417222 C402.09575691449425,161.19686076174256 389.8651904934682,163.88515919239984 376.76999035432584,166.2286118342059 C363.67596864635493,168.5725360152829 349.71809302497354,170.571479712716 335.16408892048423,172.1871146528223 C320.6108898706937,173.80327378971037 305.46237560604186,175.03603419201627 290.0088330154632,175.86177172462442 C259.10293898823113,177.51833202069554 226.9782055919128,177.52732165679578 196.05854014037502,175.888045156601 C180.59820274740963,175.07095019965658 165.43972155841547,173.84665794480978 150.8739485010185,172.23863395774788 C136.3073301320804,170.6311351840562 122.3343670171487,168.63999357104368 109.22226228776786,166.30340728743508" />
    <path class="edge outline hidden" />
    <path class="edge sharp visible" d="M443.133311801841,148.45511093115266 L443.133311801841,102.0495404048183 M483.57336418679427,112.7585182185878 C483.57845779860634,119.06554719280611 480.08444081665056,125.37175465406109 473.2416768830601,131.4069808658118 C466.40910017309324,137.44303142966405 456.22777651149113,143.20810074401194 443.13331180184105,148.45511093115272 M42.44005238495333,30.656354979688558 C56.645649596431994,24.95794173173917 74.28516748397392,19.873223890663702 94.47322939394053,15.657002055749206 C114.65219602331356,11.437717607164275 137.3716368602878,8.08880172213035 161.49036339313386,5.778707930714757 C185.60412721216548,3.4648993835881305 211.10765158313697,2.190825865836656 236.72020275243435,2.0203787513580904 C262.332387619794,1.8459968936195232 288.04355039823577,2.775270137379937 312.56266637122343,4.761412939181621 C337.0860396184068,6.743797828367851 360.4077250153785,9.782272120393143 381.35642176081706,13.72436950267734 C402.31358983999894,17.66324728488616 420.88946765117174,22.504234532825755 436.15102672195206,28.00430180610075 C443.7848596897046,30.7535716364307 450.59555067265825,33.666055637293475 456.4966999789704,36.70476857466551 C462.3986734166331,39.74336695608929 467.39096224076275,42.90811693753204 471.4102722357737,46.15882029668895 C475.4304608509849,49.409447421807045 478.47758137981435,52.74594177791289 480.51297510471784,56.12596551859018 C482.54927507056175,59.505955338903725 483.57381993286134,62.92938017576477 483.57336418679427,66.35294769225347 M483.57336418679427,66.35294769225345 C483.57845779860634,72.65997666647178 480.08444081665056,78.96618412772668 473.2416768830601,85.00141033947749 C466.40910017309324,91.03746090332966 456.22777651149113,96.80253021767764 443.13331180184105,102.04954040481834 M109.2222622877679,166.3034072874351 L109.2222622877679,119.89783676110075 M109.22226228776785,166.3034072874351 C92.81218565795851,163.38043436898175 77.75481678663071,159.91571993785806 64.50206473059637,156.01276376494116 C51.24538236651472,152.1107538082326 39.79459216651832,147.7711389962144 30.491554562097104,143.1239131535983 C21.183988829882363,138.47733498665121 14.025451042034684,133.52378267558976 9.231014051822996,128.41138496385997 C4.431451114071265,123.29933638726004 1.9972643227477311,118.02907929647563 2.000000000000007,112.75851821858782 M109.22226228776785,119.89783676110076 C92.81218565795851,116.97486384264747 77.75481678663071,113.51014941152373 64.50206473059637,109.60719323860678 C51.24538236651472,105.7051832818982 39.79459216651832,101.3655684698801 30.491554562097104,96.71834262726392 C21.183988829882363,92.0717644603169 14.025451042034684,87.11821214925541 9.231014051822996,82.00581443752564 C4.431451114071265,76.89376586092565 1.9972643227477311,71.62350877014119 2.000000000000007,66.35294769225345 M2.0,66.35294769225341 C1.9949063881883167,60.04591871803512 5.488923370143682,53.73971125678024 12.331687303734105,47.70448504502937 C19.164264013701132,41.66843448117717 29.345587675303225,35.90336516682921 42.440052384953304,30.65635497968853 M242.78668209339713,112.7585182185878 L242.78668209339713,66.35294769225344 M200.51152119434377,129.70628622448064 L242.78668209339713,112.75851821858778 M109.2222622877679,119.89783676110076 L242.78668209339713,66.35294769225344 M242.78668209339713,112.7585182185878 L322.92533397677465,127.03715530361374 M242.78668209339713,66.35294769225344 L443.13331180184105,102.04954040481833 M443.13331180184093,102.04954040481834 C434.3924094854504,105.55421904894156 424.3597395810678,108.8285157206813 413.2269801869765,111.80970401783787 C402.09575691449425,114.79129023540823 389.8651904934682,117.47958866606547 376.76999035432584,119.82304130787156 C363.67596864635493,122.16696548894853 349.71809302497354,124.16590918638178 335.16408892048423,125.78154412648793 C320.6108898706937,127.39770326337612 305.46237560604186,128.6304636656819 290.0088330154632,129.45620119829005 C259.10293898823113,131.11276149436122 226.9782055919128,131.12175113046138 196.05854014037502,129.48247463026667 C180.59820274740963,128.66537967332215 165.43972155841547,127.44108741847549 150.8739485010185,125.8330634314136 C136.3073301320804,124.22556465772189 122.3343670171487,122.23442304470937 109.22226228776786,119.89783676110078 M309.5688919962118,202.0 L309.5688919962118,155.59442947366563 M309.5688919962118,202.0 L109.2222622877679,166.3034072874351 M309.5688919962118,155.59442947366563 L109.2222622877679,119.89783676110073 M443.133311801841,148.4551109311527 L309.56889199621173,202.00000000000003 M443.133311801841,102.04954040481833 L309.56889199621173,155.59442947366566" />
    <path class="edge outline visible" d="M483.57336418679427,66.35294769225344 L483.57336418679427,112.7585182185878 M2.0000000000000298,66.35294769225344 L2.0000000000000284,112.7585182185878" />
  </g>
</svg>
