<?xml version='1.0' ?>
<svg xmlns="http://www.w3.org/2000/svg" xmlns:xlink="http://www.w3.org/1999/xlink" version="1.1" width="220.7340586324069" height="204.0">
  <style type="text/css">
.edge {
  fill: None;
}
.edge.visible {
  stroke: #000000;
}
.edge.hidden {
  stroke: #C8C8FF;
}
@media (prefers-color-scheme: dark) {
    .edge.visible {
      stroke: #FFFFFF;
    }
    .edge.hidden {
      stroke: #A00000;
    }
}
</style>
  <g>
    <path class="edge sharp hidden" d="M126.10759538945516,174.39185331146092 L194.7775788700114,41.05037926511534 M31.688228958902073,135.34147404634558 L85.62784987400443,30.603010488139702 M126.10759538945516,174.39185331146092 L31.688228958902087,135.3414740463456 M124.86402656505581,183.12013369697746 L127.73299047110756,177.5492589591523 M30.444660134502726,144.06975443186215 L88.60601600421981,31.13364274052833 M124.86402656505581,183.12013369697746 L30.44466013450274,144.06975443186215 M126.10759538945516,174.39185331146092 L124.86402656505581,183.1201336969775 M31.688228958902073,135.34147404634558 L30.444660134502723,144.06975443186215 M33.981674037775335,172.47474494340736 L33.981674037775335,21.400996425461045 M33.981674037775335,172.47474494340736 L2.0000000000000107,185.2959378260686 M33.981674037775335,172.47474494340736 L127.73299047110757,189.17880711733872" />
    <path class="edge outline hidden" d="M126.04120448429246,140.23075514889217 C126.3603850279233,140.36370039464927 126.72020084920811,140.5055449270351 127.17723688103945,140.6775120899475 C127.64205665506346,140.85077073903378 128.20409663963406,141.05415201864642 129.13788654903752,141.34504088554874 C129.65805822103437,141.502048309219 130.3384415238459,141.70520867143713 131.2115070752645,141.91858868417282 C132.0808213599567,142.13164022459753 133.13591044315584,142.35279211667722 134.30420947431088,142.53691384766807 C135.47199510597412,142.72170052768956 136.74608323549256,142.86733774775945 138.03953382653805,142.9473135679903 C139.3357088853257,143.02894775859366 140.64433895553998,143.0428012504951 141.95476909763872,143.00879647423486 C143.1901930064884,142.9730220378727 144.42328376089736,142.8869759327608 145.6540413608654,142.75065815889874 M141.47040291635352,19.003361611447026 C141.07425213856155,19.314669115050062 140.68104516656766,19.628934014940416 140.29078200037256,19.946156311118173 C134.50636403211305,24.653147933567908 129.3809442354773,29.963412058882593 124.87472378405486,35.64387853769529 C120.37037205758885,41.32823182146979 116.4852196763366,47.38278745874254 113.2317921126688,53.68330583907621 C110.58069474857082,58.81989887320172 108.33989526091169,64.14134075118861 106.55923171855098,69.59758372515381 C104.78029920952882,75.05356784180469 103.46146298961835,80.64434759473733 102.7009693905168,86.31261887838922 C102.1377017112309,90.51995156763769 101.88394107285954,94.76861700422681 102.00867084738522,99.02043766250145 C102.13474163758195,103.27079762845173 102.6393424968627,107.52431827578421 103.62894456535817,111.70191434088505 C104.69843986700806,116.20859020098645 106.33894494427308,120.63642289050253 108.71568616961541,124.74368014546589 C109.60302970286898,126.28335981407191 110.5751509730194,127.7264652227003 111.64391954811121,129.11839311809473 C112.71184772234476,130.5070467488188 113.89681141649496,131.84561045140995 115.17444965515836,133.0823327667716 C116.44668879160078,134.3174234531544 117.81066471672914,135.44257658825472 119.07814227353617,136.35488630650588 C120.34565857557361,137.2715119138862 121.49441278265948,137.95801419121062 122.32455528481445,138.42686337346169 C122.95231352267616,138.77861904985613 123.42316093513985,139.02104752902864 123.81487058506642,139.21669642652017 C124.20535555098694,139.41103998574363 124.51670275437068,139.55860396328654 124.79239410591428,139.68538650318493 C125.29470912987362,139.9161947817034 125.67991512250634,140.0809531658115 126.04120448429248,140.23075514889217" />
    <path class="edge sharp visible" d="M194.7775788700114,41.050379265115325 L100.35821243945834,2.000000000000014 M85.62784987400443,30.603010488139702 L100.35821243945833,2.0 M127.73299047110756,177.5492589591523 L193.53401004561206,49.77865965063188 M193.53401004561206,49.778659650631894 L99.114643615059,10.728280385516584 M88.60601600421981,31.13364274052833 L99.11464361505898,10.72828038551657 M194.7775788700114,41.050379265115325 L193.53401004561206,49.77865965063189 M100.35821243945834,2.000000000000014 L99.114643615059,10.728280385516578 M33.981674037775335,21.400996425461045 L2.0000000000000107,34.222189308122296 M2.0,185.2959378260686 L2.000000000000002,34.222189308122296 M127.73299047110756,189.17880711733875 L127.73299047110756,38.105058599392436 M127.73299047110756,38.105058599392414 L95.75131643333224,50.92625148205367 M95.75131643333222,202.0 L95.75131643333222,50.92625148205369 M127.73299047110756,189.17880711733875 L95.75131643333224,202.0 M33.981674037775335,21.400996425461045 L127.73299047110757,38.10505859939242 M2.0,185.2959378260686 L95.75131643333224,201.99999999999997 M2.0,34.2221893081223 L95.75131643333224,50.92625148205367" />
    <path class="edge outline visible" d="M145.65404136086536,142.75065815889874 C149.70829696233153,142.30356400425796 153.69833035485357,141.3414466571329 157.51119281900486,140.01807201332582 C161.32812776691802,138.69331964067305 164.96789178646097,137.0073099713386 168.43156570354427,135.07523249344283 C172.18351083846704,132.97780539451404 175.7179436956228,130.5883579052831 179.0404845034376,127.9931283622919 C182.36314985039712,125.3966981817818 185.47393997517835,122.59449858373982 188.3819879464082,119.63916938653732 C192.31086831586538,115.64483671833631 195.8699292041836,111.37359142045057 199.06927637529603,106.90634233631548 C202.26794088231287,102.43813881889571 205.10681105773193,97.77389231275036 207.57680622584184,92.96776621758161 C210.21861954844323,87.82462545919937 212.44963614526503,82.4972682385206 214.21923600722104,77.03560311349091 C215.9871035501484,71.57421544232128 217.29365943360796,65.9785520363747 218.03974429403132,60.306258090166025 C218.59150896726263,56.10204485291962 218.83347530052532,51.85712160784328 218.6963428662429,47.60992423440151 C218.55787052275764,43.364205852192406 218.04025812355908,39.11620773829145 217.03675095082667,34.945786099297166 C215.9532085553782,30.45050562434013 214.29806293591452,26.035601172560757 211.90851459594074,21.945562483581412 C211.02922850911574,20.433142134784692 210.06667906555998,19.016621087166623 209.01085884186006,17.64759977704003 C207.95607890390878,16.282232534177993 206.78485168931664,14.963843188695453 205.53238354359476,13.752453199354644 C204.28548853318875,12.542558205368126 202.9611889299933,11.449396447785508 201.76682463634518,10.580956394332727 C201.17038530362618,10.146136460124625 200.60937659771727,9.767388625834549 200.11037605275072,9.448089997262137 C199.60928380924958,9.130592171017598 199.17591384135702,8.86597915363777 198.8102661490736,8.654250945122655 C197.83639923833186,8.092139569339547 197.15916081482334,7.7489801662887405 196.58802536196632,7.470558543688618 C196.02037325529193,7.195968657945041 195.55882411926902,6.986116552652145 195.1103861304271,6.794076667511575 C194.48833926645787,6.5280358538644645 193.90770762227322,6.294214595336998 193.11973398357523,6.0098873527574455 C192.94816333760062,5.947995256456091 192.76300884373822,5.883267299995287 192.56427050198826,5.815703483375016 C192.3675821002602,5.748417758248847 192.1509870545078,5.676877141210289 191.91448536473072,5.601081632259342 C191.43724132554928,5.449075159780348 190.8656639698097,5.276531917654012 190.14139887906586,5.084670814322225 C189.41812224504264,4.894105589842675 188.51857366980613,4.677555365765268 187.3545039612182,4.463090027596334 C186.77547452384914,4.356716179550824 186.13517930173919,4.253040933314273 185.46188071409867,4.1637631776769695 C184.78811565222588,4.073938088024544 184.08808596491886,4.001147786684057 183.3831214130593,3.9436082675955215 C180.55705048992215,3.713545201031819 177.57445559642875,3.7882605499169224 174.63852869055432,4.13701615148905 C171.69617749031508,4.484418541930451 168.8004942776949,5.105861185058878 165.97479076845673,5.932716006451926 C161.41030985618858,7.273414874788329 157.06630473791932,9.151578158339891 152.97852204025477,11.378489619415975 C148.88915273228918,13.608194929328214 145.0560058449285,16.18664841676488 141.47040291635352,19.003361611447026" />
  </g>
</svg>
