<?xml version='1.0' ?>
<svg xmlns="http://www.w3.org/2000/svg" xmlns:xlink="http://www.w3.org/1999/xlink" version="1.1" width="803.9999937458279" height="742.2319133992582">
  <style type="text/css">
.edge {
  fill: None;
}
.edge.visible {
  stroke: #000000;
}
.edge.hidden {
  stroke: #C8C8FF;
}
@media (prefers-color-scheme: dark) {
    .edge.visible {
      stroke: #FFFFFF;
    }
    .edge.hidden {
      stroke: #A00000;
    }
}
</style>
  <g>
    <path class="edge sharp hidden" d="M460.1009380586922,638.3258386228201 L713.5728045484246,146.14118101926402 M111.5839903488278,494.1846576035561 L310.6837381297611,107.57827580819213 M460.1009380586922,638.3258386228201 L111.58399034882774,494.18465760355616 M455.5107270952922,670.5433142712457 L466.10053066448216,649.9803266861844 M106.99377938542779,526.4021332519817 L321.6766245334099,109.53692412315314 M455.5107270952922,670.5433142712457 L106.99377938542779,526.4021332519817 M460.1009380586922,638.3258386228201 L455.51072709529217,670.5433142712457 M111.5839903488278,494.1846576035561 L106.9937793854278,526.4021332519817 M120.04946209309139,631.2494857291107 L120.0494620930914,73.61217356510144 M120.04946209309139,631.2494857291107 L2.0000000000001137,678.5745544982506 M120.04946209309139,631.2494857291107 L466.1005306644822,692.9068446301184" />
    <path class="edge outline hidden" d="M459.8558786339394,512.2317743209551 C460.43850548761276,512.4751557218722 461.0743777002592,512.7320923802342 461.7634952718781,513.0025842960396 M461.7634952718781,513.0025842960396 C462.45456992430064,513.274311012318 463.1993741091431,513.5624035596688 464.0491554836099,513.8808254780537 M464.0491554836099,513.8808254780537 C464.90073254773074,514.1995453390355 465.85728680147395,514.5485945710502 467.02034521235294,514.9502791067675 M467.02034521235294,514.9502791067675 C468.1851993128844,515.35226158508 469.55655757055104,515.8068793670949 471.28622626316917,516.3447807781828 M471.28622626316917,516.3447807781828 C472.2507052003559,516.6352549884998 473.35210929862967,516.9665821295807 474.623549136186,517.3250885495224 M474.623549136186,517.3250885495224 C475.8940131467539,517.6865719260861 477.33292693698263,518.0654881503133 478.9402905068715,518.4618372222035 M478.9402905068715,518.4618372222035 C482.14906824553964,519.2482444539052 486.04357040902335,520.0645513761145 490.355948554984,520.7441740649535 M490.355948554984,520.7441740649535 C494.6664316614981,521.4262511867682 499.3692942499674,521.9638214049403 504.1436267735413,522.2590249189136 M504.1436267735413,522.2590249189136 C506.5354653753877,522.4075733690655 508.93784851056216,522.4989181974383 511.3507761790628,522.5330594040308 M511.3507761790628,522.5330594040308 C513.7616791954288,522.5681098395476 516.1732499879184,522.5469483663534 518.595384901506,522.4859681365049 M518.595384901506,522.4859681365049 C523.1523105494547,522.3569963202865 527.7102875495622,522.0332317425723 532.2499891068392,521.5331384242436 M516.8075120375254,64.76212088319019 C515.3452563041055,65.91120655339229 513.8938666276212,67.07120844519366 512.4533430080735,68.24212655859475 M512.4533430080735,68.24212655859475 C501.7762292611129,76.92611677179454 491.71089680167063,86.1744224993091 482.23294711063835,95.866952887032 M482.23294711063835,95.866952887032 C472.7554285297313,105.5603799508374 463.8652927172342,115.6980316748507 455.55021223754085,126.18492413527515 M455.55021223754085,126.18492413527515 C447.23556286797265,136.67271327178207 439.49596883120836,147.50974314469974 432.33117377514327,158.62613676054065 M432.33117377514327,158.62613676054065 C425.16680982920326,169.7434270524642 418.57724486396324,181.14008108731068 412.57429361082006,192.77132880190146 M412.57429361082006,192.77132880190146 C402.7886702122915,211.73131332158022 394.5175217456976,231.37360441972638 387.94480847571157,251.51346787293429 M387.94480847571157,251.51346787293429 C381.37848472599376,271.65237584248996 376.51044979556997,292.28883601449655 373.7033465716068,313.2113297914784 M373.7033465716068,313.2113297914784 C371.6242356884309,328.7412660989342 370.6875646803793,344.4237681721665 371.14796218090913,360.1179166721096 M371.14796218090913,360.1179166721096 C371.6133095842624,375.80667352360484 373.47587187351104,391.50709695442254 377.12865101615756,406.9272706371655 M377.12865101615756,406.9272706371655 C379.1032932566945,415.25099870803024 381.6029065940424,423.4866754386735 384.7069389744427,431.5479596349759 M384.7069389744427,431.5479596349759 C387.8107418310537,439.6074443419411 391.5189637307173,447.49253651456553 395.9046259535497,455.06650925726916 M395.9046259535497,455.06650925726916 C397.5382679564957,457.9103251395121 399.26029212054135,460.65971823840954 401.0587717301814,463.34424246783095 M401.0587717301814,463.34424246783095 C402.8556306947388,466.02627570558184 404.7404409856723,468.64961918265493 406.7132026029825,471.21427289905085 M406.7132026029825,471.21427289905085 C408.68745486641836,473.7820320784874 410.7622468574026,476.29046071725537 412.93757857593346,478.73955881535574 M412.93757857593346,478.73955881535574 C415.1124970946676,481.1857929004216 417.39139961617457,483.56600200759846 419.74495258417795,485.84580665626015 M419.74495258417795,485.84580665626015 C422.0970806234996,488.1251576491461 424.5237509403675,490.3031703012235 426.95499955020614,492.3324473608362 M426.95499955020614,492.3324473608362 C429.38516220787653,494.36183266268404 431.8185650276753,496.2410188228428 434.1541049391161,497.925323962958 M434.1541049391161,497.925323962958 C436.48947441954084,499.6105475246948 438.7244128988722,501.09889685023336 440.7523128129522,502.3710904573235 M440.7523128129522,502.3710904573235 C442.78153436180446,503.6452609467942 444.59991929077603,504.7007528347315 446.137133384117,505.57332193624904 M446.137133384117,505.57332193624904 C448.45428920956107,506.8717082664177 450.192262140672,507.7665504666274 451.63812496248295,508.48872176637576 M451.63812496248295,508.48872176637576 C453.07946728020903,509.2060748542874 454.22869948863604,509.7507570417393 455.2463202584245,510.21873162681305 M455.2463202584245,510.21873162681305 C456.1767516062705,510.6468087649512 456.9909343224116,511.008830760678 457.74534248814103,511.33678007536946 M457.74534248814103,511.33678007536946 C458.4987881125332,511.66412880564934 459.1924591865134,511.95740485489404 459.8558786339395,512.2317743209551" />
    <path class="edge sharp visible" d="M713.5728045484248,146.14118101926402 L365.0558568385603,2.0000000000000284 M310.6837381297611,107.57827580819213 L365.05585683856026,2.0 M466.10053066448216,649.9803266861844 L708.9825935850247,178.35865666768956 M708.9825935850247,178.3586566676896 L360.46564587516025,34.21747564842559 M321.6766245334099,109.53692412315314 L360.46564587516025,34.21747564842559 M713.5728045484248,146.14118101926402 L708.9825935850248,178.35865666768956 M365.0558568385603,2.000000000000057 L360.4656458751603,34.2174756484256 M120.04946209309139,73.61217356510139 L2.0000000000001137,120.93724233424123 M2.0,678.5745544982506 L2.000000000000008,120.93724233424132 M466.10053066448216,692.9068446301183 L466.10053066448216,135.269532466109 M466.10053066448216,135.26953246610904 L348.0510685713909,182.5946012352489 M348.05106857139083,740.2319133992582 L348.05106857139083,182.594601235249 M466.10053066448216,692.9068446301183 L348.0510685713909,740.2319133992581 M120.04946209309139,73.61217356510139 L466.1005306644822,135.26953246610904 M2.0,678.5745544982506 L348.05106857139083,740.2319133992582 M2.0,120.93724233424123 L348.05106857139083,182.5946012352489" />
    <path class="edge outline visible" d="M532.2499891068392,521.5331384242436 C539.7291529910452,520.7091029260895 547.157039119569,519.407107604108 554.4683803601472,517.7025490053536 M554.4683803601472,517.7025490053536 C561.7806611124375,515.9976725680356 568.9763969767847,513.890232853946 576.0166271488747,511.4467269303707 M576.0166271488747,511.4467269303707 C583.0577968326771,509.00290316823225 589.943460824224,506.22301319660926 596.6609646471525,503.1646546030214 M596.6609646471525,503.1646546030214 C603.379407981793,500.10597817087006 609.9296911478167,496.7688331167547 616.3254659968093,493.2019175484272 M616.3254659968093,493.2019175484272 C630.1744941764247,485.4599794461389 643.2206498310212,476.6401474864287 655.4846781205223,467.06074113026557 M655.4846781205223,467.06074113026557 C667.749166103879,457.4769030294375 679.2315888338828,447.1335371744919 689.965657924172,436.2249455346145 M689.965657924172,436.2249455346145 C704.4677822874783,421.4812262926183 717.6048439349154,405.71537834833964 729.4141448537104,389.22604915327895 M729.4141448537104,389.22604915327895 C741.2209259503968,372.73319699266824 751.6996487578554,355.5167188786813 760.8167950530587,337.77654056230836 M760.8167950530587,337.77654056230836 C770.5681495729973,318.7923873475972 778.8031878284834,299.12826177568184 785.3350632886977,278.96838429769866 M785.3350632886977,278.96838429769866 C791.8605444829561,258.809530946185 796.6832507320033,238.15504443163454 799.4371690023461,217.21770236527118 M799.4371690023461,217.21770236527118 C801.4738204546744,201.69928045291664 802.3669568005879,186.03059140568828 801.8607791038409,170.3535081877871 M801.8607791038409,170.3535081877871 C801.3496555884212,154.68188416252406 799.4390656291232,139.00184528381618 795.7349605279427,123.60815355263418 M795.7349605279427,123.60815355263418 C793.7341843527519,115.3053123610138 791.2083967867761,107.09228724255755 788.0784340227909,99.05611482390232 M788.0784340227909,99.05611482390232 C784.9487604689741,91.0217830983575 781.2149117171466,83.16430407261362 776.8058218447873,75.6222537803938 M776.8058218447873,75.6222537803938 C775.1875934376453,72.82834704752997 773.4809913781357,70.12921186315546 771.7012150187259,67.4923087508842 M771.7012150187259,67.4923087508842 C769.9229715064482,64.85797472613483 768.0592705289569,62.279801015023544 766.1101120862506,59.75778761755035 M766.1101120862506,59.75778761755035 C764.1590859832033,57.23230829018521 762.1108299174972,54.76527445727376 759.9653438891316,52.356686118816015 M759.9653438891316,52.356686118816015 C757.8208639619749,49.95150509084893 755.5769913604414,47.613066303018854 753.2705047104986,45.38018006247407 M753.2705047104986,45.38018006247407 C750.9655309695632,43.14772497285766 748.5983856969984,41.021945221315754 746.2491367075646,39.05407556638018 M746.2491367075646,39.05407556638018 C743.9008280532951,37.08597212320781 741.5724161471211,35.277493059624504 739.3712259249161,33.67367928891925 M739.3712259249161,33.67367928891925 C737.1696731758168,32.068689528846335 735.0989005238339,30.670670836827345 733.2570098883434,29.49208864924353 M733.2570098883434,29.49208864924353 C731.412723575693,28.311111009195578 729.8024356408656,27.352467140952058 728.4580967792392,26.56190203728363 M728.4580967792392,26.56190203728363 C726.6579350998913,25.521386744029822 725.1383297830397,24.690431880074865 723.8001229300125,23.98550818838128 M723.8001229300125,23.98550818838128 C722.4627196761475,23.28146846869746 721.3067148861048,22.7034599212749 720.2554514377389,22.192704505349543 M720.2554514377389,22.192704505349543 C719.204991588535,21.68283306143396 718.2592730810064,21.240214749015514 717.3641395695333,20.830822743603548 M717.3641395695333,20.830822743603548 C716.4698096572228,20.422314710201345 715.6260647409671,20.047032983805618 714.8012492516739,19.69570195619906 M714.8012492516739,19.69570195619906 C713.6584756893895,19.204710035732607 712.5411367558328,18.743431472852514 711.3555113465604,18.273727629034376 M711.3555113465604,18.273727629034376 C710.168382064646,17.804021606134512 708.9129663070166,17.325890302296823 707.4534345352599,16.801134064708037 M707.4534345352599,16.801134064708037 C706.824146192594,16.57307170496724 706.1326988339237,16.333368001938076 705.4031301910832,16.084370417480752 M705.4031301910832,16.084370417480752 C704.6707316534586,15.834933677090797 703.884025301903,15.57301462881655 703.0046695652029,15.29216691844869 M703.0046695652029,15.29216691844869 C702.1291826028196,15.011520845862039 701.1521372428477,14.712220982563 700.0735334852861,14.394267328551543 M700.0735334852861,14.394267328551543 C698.990948458802,14.076351087251322 697.7993885011825,13.740101132537173 696.4599244205292,13.386012187319729 M696.4599244205292,13.386012187319729 C695.1198827976832,13.032090827376665 693.6290210994442,12.659449536792781 691.9284158162174,12.27260717458218 M691.9284158162174,12.27260717458218 C690.2296111676748,11.886429925898412 688.3140727955177,11.48489025624584 686.1730505823026,11.09165831973538 M686.1730505823026,11.09165831973538 C684.0357605349855,10.699015472843985 681.6723287001914,10.316333595837293 679.1870761769778,9.986795153996646 M679.1870761769778,9.986795153996646 C676.7001018229382,9.655236414969824 674.1161805454523,9.386555797792457 671.5140438954636,9.174168251428284 M671.5140438954636,9.174168251428284 C666.3034917726541,8.750661145207511 660.9359033301416,8.605746929686326 655.5257792690354,8.729613725356037 M655.5257792690354,8.729613725356037 C650.1141731394534,8.853168338637536 644.6600313912774,9.245503963109899 639.2363568083031,9.888067612394424 M639.2363568083031,9.888067612394424 C633.8112001568538,10.530319079290734 628.4165106706077,11.422798570999193 623.0837932160507,12.53821199427118 M623.0837932160507,12.53821199427118 C617.7495936930192,13.65331323515498 612.4773662016777,14.99134840760227 607.2571176912043,16.51628231149448 M607.2571176912043,16.51628231149448 C590.4088903035135,21.465015765815494 574.3744742521334,28.397616138277996 559.2858160398467,36.61750168268269 M559.2858160398467,36.61750168268269 C544.1913013957693,44.847699768947635 530.0425445907848,54.36518302715449 516.8075120375254,64.76212088319019" />
  </g>
</svg>
