<?xml version='1.0' ?>
<svg xmlns="http://www.w3.org/2000/svg" xmlns:xlink="http://www.w3.org/1999/xlink" version="1.1" width="403.99999692291397" height="373.1159566996291">
  <style type="text/css">
.edge {
  fill: None;
}
.edge.visible {
  stroke: #000000;
}
.edge.hidden {
  stroke: #C8C8FF;
}
@media (prefers-color-scheme: dark) {
    .edge.visible {
      stroke: #FFFFFF;
    }
    .edge.hidden {
      stroke: #A00000;
    }
}
</style>
  <g>
    <path class="edge sharp hidden" d="M231.0504690293461,320.16291931141006 L357.7864022742123,74.07059050963201 M56.7919951744139,248.09232880177805 L156.34186906488054,54.789137904096066 M231.0504690293461,320.16291931141006 L56.79199517441387,248.09232880177808 M228.7553635476461,336.27165713562283 L234.05026533224108,325.9901633430922 M54.49688969271389,264.20106662599085 L161.83831226670495,55.76846206157657 M228.7553635476461,336.27165713562283 L54.49688969271389,264.20106662599085 M231.0504690293461,320.16291931141006 L228.75536354764608,336.27165713562283 M56.7919951744139,248.09232880177805 L54.4968896927139,264.20106662599085 M61.024731046545696,316.62474286455534 L61.0247310465457,37.80608678255072 M61.024731046545696,316.62474286455534 L2.000000000000057,340.2872772491253 M61.024731046545696,316.62474286455534 L234.0502653322411,347.4534223150592" />
    <path class="edge outline hidden" d="M230.9279393169697,257.11588716047754 C231.21925274380635,257.2375778609361 231.53718885012967,257.3660461901171 231.88174763593906,257.5012921480198 M231.88174763593906,257.5012921480198 C232.22728496215024,257.63715550615905 232.59968705457163,257.78120177983436 233.02457774180496,257.94041273902684 M233.02457774180496,257.94041273902684 C233.45036627386534,258.09977266951773 233.928643400737,258.27429728552517 234.51017260617647,258.47513955338377 M234.51017260617647,258.47513955338377 C235.0925996564421,258.67613079253994 235.77827878527563,258.90343968354756 236.64311313158447,259.1723903890913 M236.64311313158447,259.1723903890913 C237.60313145337022,259.4621601160762 238.8588331220689,259.8371087733942 240.47014525343576,260.2309186111018 M240.47014525343576,260.2309186111018 C242.07453412276976,260.62412222695247 244.0217852045118,261.0322756880573 246.177974277492,261.37208703247677 M246.177974277492,261.37208703247677 C248.33321583074905,261.7131255933842 250.68464712498368,261.98191070247003 253.07181338677066,262.1295124594568 M253.07181338677066,262.1295124594568 C255.464007871144,262.2801748712763 257.8791890728087,262.305742595861 260.29769245075306,262.24298406825244 M260.29769245075306,262.24298406825244 C262.5777658409763,262.17695949173645 264.853533208532,262.01815453969294 267.1249945534196,261.7665692121218 M259.4037560187627,33.38106044159511 C258.6726281520529,33.955603276696124 257.94693331381035,34.53560422259687 257.22667150403674,35.121063279297374 M257.22667150403674,35.121063279297374 C246.5510666425138,43.80819185878575 237.0916954839015,53.608707973501964 228.77510611877042,64.09246206763757 M228.77510611877042,64.09246206763757 C220.46196563463982,74.58338957043314 213.29160694399087,85.7575550526484 207.28714680541006,97.38566440095073 M207.28714680541006,97.38566440095073 C202.39433510614555,106.86565666079017 198.258760872849,116.68680220986319 194.9724042378557,126.75673393646714 M194.9724042378557,126.75673393646714 C191.68924236299702,136.82618792124498 189.2552248977848,147.1444180072483 187.85167328580337,157.6056648957392 M187.85167328580337,157.6056648957392 C186.81211784421546,165.370633049467 186.3437823401897,173.2118840860833 186.57398109045454,181.0589583360548 M186.57398109045454,181.0589583360548 C186.80665479213118,188.90333676180236 187.7379359367556,196.75354847721127 189.56432550807878,204.46363531858276 M189.56432550807878,204.46363531858276 C190.55164662834727,208.62549935401512 191.80145329702114,212.74333771933664 193.35346948722145,216.773979817488 M193.35346948722145,216.773979817488 C194.9053709155267,220.80372217097045 196.7594818653588,224.7462682572828 198.9523129767748,228.53325462863455 M198.9523129767748,228.53325462863455 C200.58997626276542,231.37485629807702 202.38410362606368,234.0382224656983 204.35660130149122,236.60713644952546 M204.35660130149122,236.60713644952546 C206.32754795008478,239.17000751667086 208.5144929881876,241.64043362509793 210.8724762920889,243.92290332813002 M210.8724762920889,243.92290332813002 C213.22049512208238,246.20236172970527 215.73782151467708,248.2789216091857 218.07705246955805,249.962661981479 M218.07705246955805,249.962661981479 C219.24473720977045,250.80527376234738 220.36220644943614,251.54944842511668 221.37615640647607,252.18554522866174 M221.37615640647607,252.18554522866174 C222.39076718090223,252.8226304733971 223.29995964538801,253.35037641736582 224.06856669205854,253.78666096812452 M224.06856669205854,253.78666096812452 C225.22714460478042,254.4358541332089 226.09613107033618,254.88327523331367 226.81906248124142,255.24436088318788 M226.81906248124142,255.24436088318788 C227.5397336401046,255.60303742714365 228.11434974431793,255.87537852086967 228.62316012921227,256.1093658134065 M228.62316012921227,256.1093658134065 C229.55022258237895,256.5353409061044 230.26115097486422,256.83941564897566 230.92793931696974,257.11588716047754" />
    <path class="edge sharp visible" d="M357.7864022742124,74.07059050963201 L183.52792841928016,2.000000000000014 M156.34186906488054,54.789137904096066 L183.52792841928013,2.0 M234.05026533224108,325.9901633430922 L355.49129679251234,90.17932833384478 M355.49129679251234,90.1793283338448 L181.23282293758012,18.108737824212795 M161.83831226670495,55.76846206157657 L181.23282293758012,18.108737824212795 M357.7864022742124,74.07059050963201 L355.4912967925124,90.17932833384478 M183.52792841928016,2.0000000000000284 L181.23282293758015,18.1087378242128 M61.024731046545696,37.80608678255069 L2.000000000000057,61.46862116712062 M2.0,340.2872772491253 L2.000000000000004,61.46862116712066 M234.05026533224108,347.45342231505913 L234.05026533224108,68.6347662330545 M234.05026533224108,68.63476623305452 L175.02553428569544,92.29730061762444 M175.02553428569541,371.1159566996291 L175.02553428569541,92.2973006176245 M234.05026533224108,347.45342231505913 L175.02553428569544,371.11595669962907 M61.024731046545696,37.80608678255069 L234.0502653322411,68.63476623305452 M2.0,340.2872772491253 L175.02553428569541,371.1159566996291 M2.0,61.46862116712062 L175.02553428569541,92.29730061762444" />
    <path class="edge outline visible" d="M267.1249945534196,261.7665692121218 C274.60744672861955,260.9414212789967 281.971371693341,259.1657569537896 289.00831357443735,256.72336346518534 M289.00831357443735,256.72336346518534 C296.0527715492335,254.27842726807603 302.77024644040563,251.16676190757016 309.16273299840464,247.6009587742136 M309.16273299840464,247.6009587742136 C316.0872470882124,243.72998972306942 322.6103249155106,239.32007374321438 328.74233906026114,234.53037056513276 M328.74233906026114,234.53037056513276 C334.8745830519395,229.73845151471872 340.6157944169414,224.56676858724595 345.982828962086,219.11247276730717 M345.982828962086,219.11247276730717 C353.233891143739,211.74061314630933 359.80242196745786,203.85768917416968 365.7070724268552,195.61302457663953 M365.7070724268552,195.61302457663953 C371.61046297519846,187.36659849633412 376.8498243789276,178.75835943934064 381.40839752652937,169.88827028115418 M381.40839752652937,169.88827028115418 C386.28407478649854,160.39619367379868 390.40159391424174,150.5641308878408 393.66753164434886,140.4841921488494 M393.66753164434886,140.4841921488494 C396.9302722414779,130.40476547309248 399.3416253660018,120.0775222158173 400.71858450117304,109.60885118263559 M400.71858450117304,109.60885118263559 C401.7369102273372,101.84964022645832 402.1834784002939,94.01529570284416 401.9303895519204,86.17675409389355 M401.9303895519204,86.17675409389355 C401.67482779421056,78.34094208126203 400.71953281456155,70.50092264190809 398.86748026397134,62.80407677631709 M398.86748026397134,62.80407677631709 C397.86709217637593,58.65265618050688 396.6041983933882,54.54614362127878 395.03921701139546,50.52805741195116 M395.03921701139546,50.52805741195116 C393.4743802344871,46.510891549178744 391.6074558585734,42.58215203630681 389.40291092239363,38.8111268901969 M389.40291092239363,38.8111268901969 C387.7801182966383,36.019834470306506 386.00365650299426,33.405531861922924 384.0550560431253,30.878893808775175 M384.0550560431253,30.878893808775175 C383.07954299160167,29.6161541450926 382.05541495874854,28.382637228636884 380.9826719445658,27.178343059408007 M380.9826719445658,27.178343059408007 C379.91043198098737,25.975752545424466 378.7884956802207,24.806533151509424 377.63525235524924,23.690090031237034 M377.63525235524924,23.690090031237034 C375.33400813189905,21.457132290179917 372.88990755694687,19.439615050292115 370.68561296245804,17.836839644459623 M370.68561296245804,17.836839644459623 C369.5848365879083,17.034344764423167 368.549450261917,16.335335418413667 367.6285049441717,15.746044324621767 M367.6285049441717,15.746044324621767 C366.70636178784673,15.15555550459779 365.9012178204326,14.676233570476017 365.2290483896196,14.280951018641815 M365.2290483896196,14.280951018641815 C363.4316993073371,13.243529627422172 362.18180176430116,12.610201570634315 361.12772571886944,12.096352252674773 M361.12772571886944,12.096352252674773 C360.080078466731,11.589574710793352 359.2282527121962,11.202275907740264 358.40062462583694,10.84785097809953 M358.40062462583694,10.84785097809953 C357.252587509307,10.356851430847005 356.18098548514035,9.92531564315665 354.72671726762997,9.400567032354019 M354.72671726762997,9.400567032354019 C354.4100699519772,9.286340230661935 354.0683525612815,9.166879622790724 353.7015650955414,9.042185208740374 M353.7015650955414,9.042185208740374 C353.33856095766384,8.918004034729506 352.9388175200171,8.78597011822417 352.5023347826015,8.646083459224345 M352.5023347826015,8.646083459224345 C351.6215428320931,8.365543386656244 350.56665121963476,8.04710106720865 349.2299622102646,7.693006093659862 M349.2299622102646,7.693006093659862 C348.5599413988415,7.516045413688342 347.8145105497223,7.329724768396383 346.9642079081086,7.136303587291091 M346.9642079081086,7.136303587291091 C346.115534760291,6.94124245010663 345.1563072213052,6.744417640965496 344.08652529115125,6.54582915986769 M344.08652529115125,6.54582915986769 C343.01788026749267,6.349507736421991 341.8361643500957,6.158166797918648 340.5935380884888,5.993397576998323 M340.5935380884888,5.993397576998323 C339.35005091146894,5.82761820748491 338.05809027272625,5.69327789889623 336.75702194773186,5.587084125714142 M336.75702194773186,5.587084125714142 C331.541282585258,5.162484381134609 326.03666574746177,5.300377518553941 320.6181784041516,5.944033806197211 M320.6181784041516,5.944033806197211 C315.1878345130385,6.5851926347347804 309.84362011641184,7.73211461349627 304.6285588456022,9.25814115574724 M304.6285588456022,9.25814115574724 C296.2044451517568,11.73250788290775 288.18723712606675,15.198808069139 280.64290801992337,19.308750841341347 M280.64290801992337,19.308750841341347 C273.09565069788465,23.423849884473835 266.0212722953925,28.182591513577236 259.4037560187627,33.3810604415951" />
  </g>
</svg>
