<?xml version='1.0' ?>
<svg xmlns="http://www.w3.org/2000/svg" xmlns:xlink="http://www.w3.org/1999/xlink" version="1.1" width="224.33199896108664" height="204.0">
  <style type="text/css">
.edge {
  fill: None;
}
.edge.visible {
  stroke: #000000;
}
.edge.hidden {
  stroke: #C8C8FF;
}
@media (prefers-color-scheme: dark) {
    .edge.visible {
      stroke: #FFFFFF;
    }
    .edge.hidden {
      stroke: #A00000;
    }
}
</style>
  <g>
    <path class="edge sharp hidden" d="M42.78953001192038,18.77941282814632 C46.41225278821283,17.326044397191943 50.03469787589157,16.717216580937404 53.5294191661569,16.974263628790133 C57.0244683884486,17.22914989620142 60.39115861402418,18.349871183975832 63.51122945250806,20.29706046933491 C66.63191646349968,22.242184961956777 69.50539232979519,25.01340837204808 72.0306957901877,28.513359216684172 C74.55686863832369,32.01148923858201 76.73438253939406,36.23767644585792 78.48669642954718,41.043399861366744 C80.24007334278556,45.847676045804754 81.56791197807291,51.230567082785285 82.4235336442533,57.002898419636274 C83.28033622227602,62.77425828939937 83.66475782440912,68.93395284270608 83.5632937272224,75.26551913734906 C83.46304413399454,81.59665780617624 82.87692965496464,88.09845675677607 81.82556212743548,94.54244134637773 C80.77535669459368,100.98657193107923 79.26010062653864,107.3716556290458 77.33304915924123,113.47331885123447 C75.40702574521006,119.57569141187068 73.06957558936985,125.39347582969916 70.40283172776428,130.72222368351328 C67.73690991775428,136.0521945678319 64.74220345834037,140.89210794066122 61.523936943568074,145.0718704547224 C58.306228721706326,149.25328379287166 54.8655752104504,152.77374462930095 51.32288434677798,155.50953236405977 C47.78044822356605,158.247282140431 44.13665333556581,160.1998345739448 40.51956472545396,161.29858517669177 C36.90240846152448,162.39946979757963 33.312653443713955,162.6463441459447 29.876465195105354,162.03055118012267 C26.439891225874124,161.41691275873953 23.157544025985025,159.94072786708608 20.14475230587214,157.65386125129334 C17.131285741145025,155.36901894552835 14.387946077412915,152.27392840818484 12.011097461050458,148.4773097251213 C9.633339108952494,144.68245038829872 7.622500419043419,140.18675707481333 6.049371865319495,135.1483437462935 M24.028515480339294,34.24060756128049 C26.913472157873063,30.48727380421273 29.977856095042736,27.264455671436423 33.13465904007457,24.663598561495576 C36.29127531945927,22.061485229923214 39.540310606706015,20.08133292118636 42.78953001192037,18.77941282814632 M42.78953001192036,148.56012171187206 C44.87300887652557,147.72525983718944 47.0508669475947,146.51682948941948 49.26861699283508,144.87767783868497 M76.0298383679902,64.5988410743361 C75.86567917889059,63.26187989985134 75.67515497560079,61.962948199321865 75.45826575812053,60.70204597274769 C74.66256721485998,56.065164019886915 73.52689927460113,51.97415218639835 72.1923748505503,48.479963246261384 C71.87050699696857,47.63557785441759 71.52698392629787,46.80186829392406 71.16180563853798,45.97883456478077 C69.98883964617545,43.33743124588082 68.59435766085501,40.84511459307464 66.97390364401481,38.63239455454454 C65.13528623534667,36.11933752151704 63.003394319767196,33.97027133124814 60.61974127478372,32.36823645350358 C58.43799096478558,30.899217933641115 56.04579965501066,29.891194099116973 53.51514889183232,29.441518833107335 M53.51514889183231,29.44151883310733 C50.10910956048851,28.829723424656656 46.451084670027214,29.245292570930385 42.789530011917115,30.71769112945872 C39.599564922161605,31.993877314444436 36.411186056758666,34.066127206991446 33.39124967877086,36.7925610231017 C30.369686127047835,39.515331482618436 27.51882378494141,42.88758033108123 24.959318749060834,46.66420967051836 C22.57566634271324,50.177419881746104 20.443772032268413,54.03579813663415 18.605159253665093,58.023036763887035 C17.537148730832847,60.33794267424928 16.56666857763907,62.696359514387645 15.693762905346585,65.06047730365768 C14.825864647905272,67.41093579589855 14.05997631567406,69.75072233449431 13.386667188648616,72.0547473501791 C12.05217173985948,76.61883697532843 10.916488812395766,81.62046023277347 10.120794265721777,86.89530663444938 C9.415452709635089,91.56329526898746 8.978710952885635,96.44255619081994 8.889585002938531,101.33984694880715 C8.791769008860799,106.60180816101249 9.098771050461464,111.88122220991326 9.848948283091357,116.88330089723534 C10.596163636927159,121.88625275264353 11.787337433553743,126.60626527879828 13.377127353864738,130.77278527947996 C14.830784329985804,134.59113609823194 16.61656295674984,137.94363635790398 18.644023280062324,140.6983772895722 C20.67043533291803,143.456717793229 22.9366296047184,145.6168713946727 25.32270360857796,147.14856971675903 C27.50155461574146,148.55000820931963 29.778829311232595,149.43012929511022 32.06391383897181,149.8362858789132 M32.06391383897181,149.8362858789132 C35.72166522406973,150.49068837949062 39.38686509471932,149.92778108058312 42.78953001192038,148.56012171187206 M42.362593862475265,188.52765981852326 C40.540139591341806,187.05800562276124 39.37164687381689,185.5305666945844 38.888820393020026,183.98769075021664 C38.40467136537322,182.4448437837572 38.606335212310285,180.8867374287108 39.48834447139526,179.3565367960677 C40.369014235309024,177.82628107234459 41.929956440068594,176.3241115718482 44.1280770437937,174.89164845783563 C46.32493622721973,173.45904791307572 49.15871501517534,172.0963240910309 52.55089900186151,170.8412395796928 C55.94197882911497,169.58594262944624 59.89105302355346,168.43843429670252 64.28861023882833,167.43051354279498 C68.68528390433252,166.42231725692866 73.52991150804291,165.55382813538563 78.68818195270708,164.84911037854027 C89.00106952913629,163.43656602914763 100.5781183091288,162.69138236633577 112.1659994805434,162.69423439981566 C123.75388065195793,162.69138236633566 135.33092943195047,163.43656602914777 145.64381700837964,164.84911037854042 C150.80208745304358,165.55382813538563 155.6467150567542,166.4223172569288 160.04338872225827,167.43051354279507 C164.44094593753334,168.43843429670272 168.39002013197188,169.58594262944612 171.78109995922512,170.8412395796929 C175.1732839459114,172.09632409103097 178.00706273386723,173.45904791307547 180.20392191729297,174.8916484578357 C182.40204252101827,176.3241115718481 183.96298472577794,177.8262810723445 184.84365448969137,179.35653679606764 C185.72566374877658,180.8867374287107 185.9273275957138,182.44484378375702 185.44317856806666,183.98769075021667 C184.96035208727014,185.53056669458437 183.79185936974517,187.05800562276124 181.96940509861133,188.5276598185233 M158.41697912629195,12.5988656982518 C166.42686923248158,14.021040118400338 174.43390072976234,17.291882145899763 181.83203328014227,22.164572424209272 C189.2335485437188,27.028720249981234 196.0201447171076,33.49027654356636 201.68051270804042,41.061660666910626 C207.3468805950834,48.62714139943713 211.88194188636584,57.29565731927887 214.94341467205913,66.41316184620268 C218.01275096025924,75.52828909672165 219.6056622768789,85.08419953509198 219.60162030533465,94.35979897897299 C219.60611297051898,103.63691631621836 218.01363549675867,112.6253618779439 214.9443591977461,120.64684367065406 C211.88296520643775,128.67350804722568 207.34756164539505,135.72598295289814 201.680595602437,141.27212187872288 C196.01965140751216,146.82631537225615 189.23226677939266,150.8691829664576 181.83067837406412,153.09570374200808 C174.43234330180502,155.33192343871917 166.42645754960327,155.74979192431567 158.41697912629206,154.31777523781741 C150.40750070298068,152.89562772366907 142.401614950779,149.62487527974943 135.00327987851995,144.75227129037677 C127.6016914731913,139.88820690238248 120.81430684507167,133.4266661814497 115.15336265014709,125.85520472000663 C109.48639660718877,118.28965195082625 104.95099304614624,109.62099359408968 101.88959905483776,100.50340660405097 C98.82032275582533,91.38819335074541 97.22784528206466,81.83227111254702 97.2323379472493,72.55675472900388 C97.2282959757048,63.27971493534288 98.82120729232447,54.291435772621135 101.89054358052474,46.270061359743636 C104.95201636621775,38.243507524534145 109.48707765749971,31.19105308850205 115.15344554454329,25.64477304747348 C120.81381353547542,20.09045156271349 127.60040970886381,16.04728743134029 135.00192497244123,13.820657154069739 C142.40005752282116,11.584279000090003 150.40708902010005,11.166729215254117 158.41697912629186,12.598865698251885 M54.158343679422025,153.67731778660868 Q53.62300237302864,153.67741235587462 53.175100290882874,153.59775342614512 M53.175100290882874,153.59775342614515 C51.745789458666835,153.34646777213425 51.017191852480934,152.46891828888076 51.02056455435298,151.02541456974697 M51.02056455435299,151.025414569747 C51.01977716677828,149.93541759330446 51.43194397759515,148.52656106097726 52.20796828115263,146.8684812185399 M52.20796755928491,63.54130300913952 C51.44725986844459,59.883402912266305 51.02025545787555,56.314009444673424 51.02056398823416,52.974584994662884 M51.020563988234144,52.974584994662884 C51.02122313261515,52.84368727122022 51.021882276996095,52.71278954777757 51.022541421377085,52.58189182433491 C51.06421722551493,48.16093027784308 51.882191107131,44.1622466857506 53.59679372871928,40.95949856585551 C54.45211462624979,39.357415598716635 55.52828479910725,37.95376349727886 56.81953041056994,36.784932572443175 C58.11016021760693,35.615577792213855 59.61598172481183,34.68150156807807 61.313881092686294,34.00439854177468 C63.080666041377185,33.298836471265076 65.05557015152073,32.871873051092436 67.19635451162318,32.72568322483355 M84.98411686994748,36.29116771336379 C90.00620630898614,38.31852787191222 95.16064817250859,41.09482558834447 100.17439364327045,44.311950802611705 M100.17439308982082,44.311949900826534 C99.14032096189386,46.518093347892844 98.23525530030584,49.40365257390612 97.50900716017026,52.775354652529614 C97.44394771379812,53.07674280592889 97.37988336915777,53.3838889628458 97.31681412624917,53.69679312328036 C96.83296083877003,56.09685503340232 96.40821403255165,58.846450220392505 96.07002885000404,61.937097592413906 C95.57143000470295,66.48023820782561 95.26426757641507,71.7796117912438 95.21483139809574,77.59305675355537 M163.04207709086683,191.4119151458074 C166.50173469997992,190.0268785053743 169.42133802809715,188.38843638387968 171.24283710079163,186.5618025312364 C172.57139144977245,185.23366955327165 173.31317754658534,183.80886384664797 173.31144183308064,182.34711149953137 M173.31144183308064,182.34711149953134 C173.31264829457425,181.12297952804 172.79232010097567,179.87407735432768 171.7223831049593,178.64574746780565 C170.6550222058853,177.4174361533886 169.03760119385666,176.21027797872267 166.9146206549893,175.0701792796352 C164.35647783265424,173.6937909994675 161.0597830687246,172.41663690044817 157.2285011618938,171.30131443596545 C153.39990981331457,170.18475623606545 149.04208224653482,169.23052951273957 144.43463577996727,168.46624352172748 C140.14774939582313,167.75404094523518 135.6491437848274,167.20540797624727 131.15734026989918,166.81352398290906 C126.08244832077055,166.37007135817532 121.02124194438665,166.12592187593654 116.20767648309723,166.04104663948664 C115.04530033280709,166.02032398209641 113.86299107564734,166.00858956056902 112.66074871161842,166.00584337490506 C109.91962955907526,165.99988492635185 107.09416229753035,166.04318273630233 104.22028936328573,166.14387259483044 M68.2721924636932,170.97013729846546 C65.69881011962826,171.67911748907912 63.35206244268264,172.4553754340489 61.28992304531397,173.282310440821 C58.09767422431649,174.56073458624235 55.59492939419985,175.96109199830437 53.883795322510295,177.40495467181938 C52.16730766496067,178.84880571568965 51.241408315331405,180.3346718974698 51.056886858959075,181.78391734664433 C51.03262599232356,181.97231677509205 51.02051836201092,182.1600485035951 51.02056396802122,182.34711253215315 M51.02056396802122,182.34711253215312 C51.01992995936009,183.49942455234626 51.47887027475356,184.6224279485838 52.31109660722808,185.68686299238 C53.13737237775138,186.74607455719243 54.3382719171861,187.75114455962637 55.78827095569961,188.67345286272564 C56.298178581026,188.99753405845465 56.83609353038296,189.31164467169805 57.40201580377032,189.61578470245607 C59.546485698055406,190.77063480101756 62.33638035887093,191.925357339748 65.81986877748898,193.0067846446216 C68.90098918024387,193.96420001871599 72.52611127774237,194.86300542061488 76.63474576198962,195.6466677333161 C81.0465602404045,196.48938099649607 86.01839189038668,197.1974584790976 91.34733770422672,197.71253678245688 C96.67305031873063,198.2287541366117 102.35209267591345,198.55084447097246 108.0898153388722,198.65256506569642 C113.34365216356498,198.74689966977883 118.64233278284989,198.656903915583 123.75021323860524,198.39296284315037 C128.85979064531375,198.12993114133616 133.77564170644757,197.69353267419808 138.31022371344602,197.11978363329968 C142.34846620133737,196.60952623736833 146.085244004783,195.9913810421933 149.4447143029903,195.30049258668512 C152.24584426839985,194.7247664583138 154.7863000930984,194.09885805078952 157.05246493604452,193.44398971771375 C159.3194742518419,192.78904734127772 161.312668789942,192.10530603617687 163.04207709086685,191.41191514580734 M209.29305673661548,92.52316106749504 C209.29320382683943,95.52776756683558 209.09406562578909,98.60891749544128 208.6556299367154,101.7073941639078 C208.21765101582247,104.80527869685541 207.53976689862753,107.92015324286845 206.59475534764312,110.97622193411632 C205.46207647641796,114.64278560089996 203.9425630135519,118.22387490263536 202.02802976254105,121.57205813910488 C199.8795217594008,125.33433268784086 197.22986497007332,128.79906063246034 194.1466996162184,131.7699993436371 C191.0662794837756,134.74324823575444 187.5533774912582,137.21959105779825 183.75319764269724,139.06778729747438 C182.90501917005992,139.48075621872044 182.0437707794649,139.8624933551776 181.1694524709117,140.2129987068463 M181.1694524709117,140.21299870684632 C177.7928679078367,141.56778122102241 174.2354631204155,142.44443800832937 170.62113805175366,142.83368939084139 M148.30216058042248,139.40115890386397 C147.09092455444778,138.9001709136778 145.90339908412224,138.35760627989117 144.7395841694453,137.77346500250337 C140.46039076358142,135.62873733089154 136.53485232745362,132.95642765574166 133.05581129021635,130.01821917982056 C132.2153029935075,129.3093141041881 131.37651680701845,128.56309646271657 130.53945273074913,127.77956625540645 C127.85268152424756,125.26317878818867 125.21796198760256,122.3712484276143 122.74644168707665,119.11583777647878 C119.94007448922412,115.42177303649267 117.34648050641269,111.25614307754653 115.13807776756924,106.72178529670008 C112.76309418806422,101.8522573746803 110.83813119558832,96.55676614254708 109.53305530141196,91.07518096191538 C108.2242529951135,85.59575855401778 107.53861895982492,79.93475066567588 107.5409026910608,74.3935563625125 C107.53861895982337,68.85154825556172 108.22425299511067,63.43486490558114 109.53305530140798,58.42183200407935 C110.83813119558188,53.40530842914022 112.7630941880588,48.79577453034071 115.1380777675634,44.77256802295781 C116.63664949447386,42.23063557188069 118.31229893915943,39.91920042452839 120.11170919565481,37.85612767332444 M128.95927096501313,30.170043699456023 Q130.99772548796108,28.86107936288682 133.05585827278978,27.861065552715715 Q134.32227517032476,27.242552746581275 135.6646050071032,26.703669673452698 M135.6646050071032,26.703669673452698 C138.4586420198437,25.583104579695217 141.49899147015262,24.73910040060627 144.739584169435,24.269335468406034 C148.52604612827997,23.71866716048385 152.58790998252198,23.683679407951583 156.7856704167257,24.276782424096318 C161.2953008892144,24.91035629482702 165.96013049759142,26.274831752692446 170.538899078806,28.39385644682843 C175.11739633946877,30.507687428518608 179.6052649000314,33.376614468641954 183.75319764268198,36.877448891220865 C187.5533774912493,40.07983284532631 191.06627948376857,43.80799239968903 194.14669961621183,47.878943838748214 C197.2298649700657,51.948563351915084 199.87952175939753,56.35749204874599 202.02802976253582,60.88538382037982 C203.94256301354943,64.91580776932244 205.46207647641467,69.03837314463763 206.59475534764124,73.10856502717157 C207.53976689862682,76.50138699940445 208.21765101582102,79.85782441346439 208.655629936715,83.1117820001863 C209.09406562578982,86.3664944910025 209.29320382683863,89.51860698350595 209.29305673661548,92.5231610674951 M149.80726604945062,147.87665161381284 C144.36555748389972,147.24341319965998 138.3827516112187,145.73424529615147 132.45204571017516,143.6758046199529 C126.95663817189217,141.77179327863075 121.51063893822456,139.41130742498547 116.39585182950117,136.86626556646632 M124.15760870314995,159.68805170947746 C130.00382367487072,163.4410268514566 135.65132870589287,166.33657873390206 140.77448447171815,168.26617878966255 C143.97018458565182,169.47245307197298 146.96413468388437,170.30908813268636 149.70566427596447,170.79701148987894 M149.70566427596447,170.79701148987894 C152.18144618559765,171.23835943332324 154.45216170107014,171.3967854276471 156.5037683658218,171.30931589370766 C158.5560485482382,171.22224910449847 160.38956334925558,170.88998712072822 162.00926328404768,170.36085387507106 M95.37273658743723,173.82995082419393 C98.38545445728778,173.1398788668574 101.4738318964699,172.16266821321273 104.5818413080987,170.91634911291405 M104.58184130809866,170.91634911291402 C111.19075755603217,168.27199809963625 117.87246047942266,164.39702585227195 124.15761099354431,159.6880504827556 M124.1576221488543,76.36086973170644 C118.84319589149801,72.950678641742 113.24839319344849,69.7613307116256 107.65018148297649,66.99184024788835 C102.05360135247997,64.22004956704718 96.46043841790163,61.874319872692155 91.19628958994166,60.08973666967729 C86.3365643008623,58.43919812953205 81.76258027839499,57.26627503781106 77.6621923294827,56.5741322481026 C73.5574090702453,55.87889162861833 69.92610092069636,55.66092518575125 66.83056788055555,55.83571619434264 C63.72666488228558,56.00952323886573 61.15575377194772,56.57306651372206 59.07690651490667,57.40706371540394 M59.07690651490667,57.40706371540394 C58.46961164013696,57.651140944704125 57.90276135001198,57.91678958028756 57.376355644531586,58.20400962215422 C57.09377766729857,58.357747428267146 56.8183401603064,58.51981391851736 56.55004312355498,58.69020909290462 C55.47114092432706,59.375630044192604 54.512531715286,60.19818804924339 53.71086112252853,61.1663105208136 M129.12469201731784,124.66200614294658 C129.12789137362148,131.59202052920153 128.7615520722385,138.56966973722047 127.95141576328346,144.62917639408835 C127.53200151645662,147.78276902574984 126.99639458795686,150.68428772828608 126.3574092518918,153.22194770802295 C125.71884554025411,155.76145540395703 124.97736186282957,157.9366231129442 124.15760661766505,159.68804911242364 M124.15760778960012,76.3608753893604 C125.23875163015587,81.55864071741847 126.14484505003666,86.94789172250314 126.85857980759565,92.20884291299828 C127.35798846718777,95.88486377665281 127.79175141987832,99.70119582024849 128.13893007505632,103.54897785250341 C128.48651170775614,107.39617520912435 128.747070690406,111.2729653974269 128.9110612619424,115.05363033878042 C129.0546414174015,118.35533012954151 129.12484368097213,121.58249639211002 129.1246920173178,124.66200614294658 M100.17439415918699,44.31195062043554 C103.40549493559634,41.89372428738602 106.61431089123083,39.784201098004594 109.73859858393672,37.98180974587199 M156.05978020533644,33.029869972933746 C156.4174865606086,33.23296623872943 156.77086858344657,33.443581943505635 157.11992627385044,33.66171708726235 C159.55525301715215,35.1827575648706 161.773198867275,37.07238768234827 163.715365766657,39.29010022459163 C165.65858006118972,41.506814737477534 167.32587470781345,44.05069084321096 168.68818283635653,46.853272450680585 C170.21629184421312,49.99362577452731 171.3610612120948,53.45769612159795 172.12403565052765,57.13151764718833 M163.0420770908668,52.14358648551754 C160.0873461140904,53.3263336231993 156.40226243052894,55.14800540167646 152.11606211025023,57.59718965733749 C148.76390858194478,59.511132038489464 145.05127505965703,61.8040365155219 141.12217962744052,64.39019352616572 C137.1938205706931,66.97499377350586 133.05238505028504,69.85035552171188 128.86226432388986,72.89242970003835 C127.29703423739606,74.02881041297135 125.72881775435481,75.18495385005637 124.15761487476559,76.36086001129311 M172.12403173796199,57.131516507870856 C172.90005631177365,55.47343533445888 173.31222209068508,54.06457782409796 173.31143472236116,52.97458516828906 M173.31143472236113,52.97458516828905 C173.3148054158498,51.531079631343204 172.5862139151752,50.653536252941926 171.15689952879657,50.40224535368642 M171.1568995287966,50.40224535368642 C170.87463023378362,50.352032901157266 170.56627548031867,50.325590444840834 170.23183526840086,50.322917984737025 C168.4717425041774,50.30567507927466 165.98688525045617,50.96129707052324 163.04207709086683,52.14358648551755 M175.06337848653646,59.122324540614215 Q173.63928790505764,58.10369336135918 172.12403386179614,57.13151851192228" />
    <path class="edge outline hidden" d="M53.51514892286162,29.44151890144262 L74.62633356360878,33.202986518328345 M32.063911100979126,149.8362925789793 L53.175103740347126,153.5977616210126 M173.31143498671224,151.02541172170746 L173.31143498671224,182.34711268862875 M51.020563974374404,182.34711268862875 L51.020563974374404,151.0254145125472 M59.07688877900933,57.40707037238698 L43.16254624174701,63.78700079847965 M104.58184166865367,170.9163492682884 L88.66749342784233,177.29628198088744 M51.020563974374404,52.9745849694913 L51.020563974374404,21.652887311371245 M173.31143498671224,21.652887311371245 L173.31143498671224,52.97458521659007 M165.25510454314195,146.5929318882163 L181.16945271933963,140.21299920152035 M119.75016429562703,33.08364792418807 L135.66450553324427,26.70371801911253 M171.15689673346023,50.40223864851516 L192.2680878601075,54.16370742102069 M149.70566417301907,170.79701326350477 L170.81685003822503,174.55848109855737" />
    <path class="edge sharp visible" d="M6.049371865319507,135.14834374629353 C3.7696337330085576,127.86099326512054 2.4146146661885965,119.43242025599726 2.0829965332098355,110.47594931126089 C1.7461019496344965,101.52220808717027 2.432829742233572,92.04843738837556 4.093184196496303,82.74422704238002 C5.748527175835968,73.43912378237239 8.376144811632457,64.31116898879408 11.784783125372186,56.02478395389822 C15.189412493396736,47.73401478311907 19.372137086617624,40.29212313737439 24.028515480339294,34.2406075612805 M49.26861699283508,144.87767783868497 C50.73222158553974,143.7962393781669 52.2125648700135,142.5277490007813 53.68859141081842,141.06578736964073 C55.91538283779957,138.8612931050754 58.13264717837841,136.21261263396113 60.25635641525873,133.1439525662861 C62.64243041911653,129.69913893950437 64.90862469091934,125.72198765157022 66.9350367437741,121.33890294229761 C68.96249706708706,116.95857731882032 70.7482756938511,112.17426881844031 72.2019326699741,107.1903994934239 C73.79172259028444,101.74921180730182 74.98289638691111,96.07413551648973 75.73011174074765,90.47207855075501 C76.48028897337834,84.86851996689002 76.78729101497957,79.34295667726829 76.68947502090269,74.15942273723218 C76.62744619109115,70.81644546178096 76.39937683694299,67.61363894057011 76.0298383679902,64.5988410743361 M173.35029449842386,32.554347759381194 C168.46932162656603,34.51279962962766 162.25751947840482,36.233047155420756 155.10781678288907,37.60651596876042 C147.9623484971722,38.98151686657673 139.88366727051715,40.00871376579122 131.38385960291617,40.622833021741336 C122.88591988917514,41.23881504871609 113.97223893348708,41.44133064992825 105.20744246063639,41.21761946957942 C96.44196130636757,40.99582174958018 87.83084660653132,40.3479666166891 79.91943174296411,39.31517964725764 C72.00487501773033,38.28411355800421 64.79499605297133,36.868764799564296 58.74667706066507,35.15870597782103 C52.693136115842364,33.44996891431417 47.805028200302225,31.447572401059606 44.39218403240243,29.27831400128677 C40.97269654490219,27.10980842376438 39.030640174510324,24.775814666998457 38.68863808766393,22.424378386146213 C38.339511672268614,20.07299290524092 39.59030040253913,17.70578334876051 42.36259386247532,15.472340181476712 M42.36259386247529,15.472340181476714 C44.77132557071885,13.527432671978023 48.328518553369555,11.684657930191626 52.86257472211601,10.032744922971293 C57.39329267739447,8.380186859594469 62.89925800045878,6.919145125255337 69.11494150448584,5.7201571804542075 C75.32819787627501,4.520268478531127 82.24891130962112,3.582869962460469 89.54328550076946,2.9531479593557863 C96.8363856288211,2.322371778549855 104.50049821461164,1.999490308867111 112.16599948054342,2.0000429678142826 C119.83150074647511,1.999490308867112 127.49561333226566,2.3223717785498628 134.78871346031738,2.9531479593557934 C142.08308765146558,3.582869962460479 149.00380108481184,4.52026847853114 155.21705745660088,5.720157180454224 C161.43274096062805,6.9191451252553575 166.93870628369217,8.3801868595945 171.4694242389707,10.032744922971322 C176.00348040771695,11.684657930191646 179.5606733903679,13.527432671978065 181.96940509861136,15.472340181476744 M181.9694050986114,15.472340181476742 C183.71966913953992,16.883795371838826 184.86745070222307,18.348528003100544 185.38312077480325,19.829071803602492 C185.89996062501325,21.309587423730726 185.7847633484914,22.805766834126423 185.04065370701375,24.27935471266544 C184.29767898533566,25.75298349472417 182.92586626207324,27.20387336595352 180.96011805339148,28.594914302781568 C178.99546990667952,29.98606522702284 176.43696063791955,31.31721983789012 173.3502944984239,32.5543477593812 M181.54246894916628,43.5016013477244 C185.3544880545676,41.97201306113045 189.16615588378966,41.37790927879877 192.8290441613168,41.74330381299891 C196.49236257036404,42.105984970368056 200.00615424440946,43.4276489008782 203.23403459049732,45.656334865531015 C206.4626953102804,47.882549114317264 209.40469751879886,51.01526985385537 211.9455070865619,54.93332830088406 C214.4874472701955,58.84915669301083 216.62744762976658,63.54980724923728 218.2826312801562,68.85166964904533 M218.28263128015618,68.85166964904536 C220.56236793765,76.13902036701624 221.91738572051997,84.56759291268652 222.24900288431343,93.5240629162868 C222.58589649546747,102.4778032025444 221.8991680461608,111.95157249172385 220.23881328328977,121.2557812714147 C218.58346999202098,130.56088296563703 215.95585239181116,139.68883604271662 212.54721439966045,147.97521954007544 C209.14258535053693,156.26598717101734 204.95986136010268,163.7078774619385 200.3034837153652,169.75939213354224 M200.3034837153652,169.75939213354224 C197.4185270084153,173.51272597009086 194.3541430346979,176.73554417079583 191.1973400493704,179.33640133272252 C188.0407237297025,181.9385147163465 184.7916883984246,183.91866706119234 181.54246894916628,185.22058717185368 M173.35029449842386,193.2485731366387 C169.5550318547373,194.770693002192 164.95901988435654,196.14986272450813 159.73943351145311,197.332970739154 C154.52155493113577,198.51661250324858 148.68130719399977,199.50389677361892 142.4438591242312,200.25673063747627 C136.20749734792145,201.01020836084626 129.5753770336524,201.52906149181175 122.80318923810441,201.7932963392653 C116.03138278434156,202.05822914481317 109.1210701592046,202.0684868631206 102.33865631303705,201.82368727329163 C95.55589026399865,201.57958570584398 88.90258678532675,201.0804831906941 82.63525577869665,200.34560826543054 C76.36686529112265,199.6113793697282 70.48589651474191,198.6415433705083 65.21909082454822,197.47348125311152 C59.95059950148513,196.30596309253522 55.29748891777612,194.94048884854016 51.43912997585382,193.42973140572897 C47.57859523484902,191.9193677442653 44.51368116907572,190.2640914289065 42.36259386247524,188.52765981852323 M181.96940509861136,188.5276598185233 C179.90284927746495,190.1947872378755 176.9953563472145,191.78729750180574 173.35029449842386,193.24857313663867 M181.54246894916628,185.22058717185368 C176.20283014235878,187.36608634671325 170.86627767234927,187.66100549741768 165.93370073515294,186.08408975723776 C160.99907049420804,184.5170905795176 156.47353856706053,181.07918830794705 152.6994847964559,176.02931700588445 C148.92137663578035,170.98805938465495 145.89816181897058,164.33941240465873 143.85768041848138,156.58531252879263 C141.81194397612808,148.83709132158558 140.75064854375736,139.99045943921055 140.75347617332125,130.71306955823277 C140.75064854375734,121.43794682462249 141.81194397612796,111.74038553637271 143.85768041848135,102.35192614253927 C145.8981618189704,92.9618014870914 148.92137663578052,83.8891900675693 152.69948479645586,75.81870680903486 C156.47353856706064,67.74286061364414 160.9990704942081,60.67646049258227 165.93370073515288,55.152955095141536 C170.86627767234916,49.62117944077063 176.20283014235844,45.63733766947853 181.54246894916625,43.50160134772441 M65.91501983479469,49.682148477618895 C73.92490994098453,51.10432289776755 81.93194143826527,54.37516492526697 89.33007398864513,59.247855203576435 C96.7315892522216,64.11200302934836 103.51818542561031,70.57355932293349 109.17855341654312,78.14494344627772 C114.84492130358608,85.71042417880415 119.37998259486855,94.37894009864605 122.44145538056182,103.49644462556975 C125.51079166876202,112.6115718760887 127.10370298538155,122.16748231445905 127.09966101383742,131.4430817583401 C127.1041536790217,140.72019909558531 125.51167620526135,149.7086446573111 122.44239990624891,157.7301264500211 C119.3810059149404,165.75679082659272 114.84560235389779,172.80926573226523 109.17863631093972,178.35540465808992 C103.51769211601484,183.9095981516232 96.73030748789536,187.9524657458246 89.32871908256688,190.17898652137518 C81.93038401030763,192.41520621808624 73.92449825810586,192.83307470368283 65.91501983479482,191.40105801718454 C57.90554141148331,189.9789105030363 49.89965565928157,186.7081580591165 42.50132058702266,181.83555406974384 C35.09973218169383,176.97148968174966 28.3123475535741,170.50994896081693 22.65140335864975,162.93848749937374 C16.984437315691263,155.37293473019332 12.449033754648477,146.70427637345693 9.387639763340498,137.586689383418 C6.318363464327723,128.47147613011256 4.725885990567115,118.91555389191417 4.730378655751984,109.64003750837095 C4.726336684207268,100.3629977147098 6.319248000826655,91.37471855198784 9.38858428902753,83.35334413911073 C12.45005707472016,75.32679030390089 16.98511836600224,68.27433586786816 22.651486253046038,62.72805582684056 C28.311854243978306,57.17373434208008 35.09845041736602,53.13057021070496 42.49996568094396,50.90393993343685 C49.89809823132304,48.667561779456484 57.90512972860359,48.2500119946161 65.91501983479462,49.682148477618924 M61.28992187021984,151.85641351448245 C58.37745032091887,153.02566035697484 55.91461582187614,153.6800582273963 54.158343679422025,153.67731778660868 M52.20797031121537,146.86848507420856 C50.15868434897672,145.55407270009547 48.182269030437915,144.14009009338156 46.30237757854903,142.6294357470603 C41.54898742945105,138.8140736234116 37.418431318170164,134.36451297724972 34.27445601326124,129.4480378965253 C31.123792869457354,124.53727266689735 28.973814793000468,119.16261491216828 28.000449795410745,113.65605492680777 C27.22969054039812,109.33262049946418 27.177955447360574,104.93425146663097 27.794733749805328,100.63735099933871 C28.40821260882221,96.33891586908054 29.68617863409488,92.14419859128402 31.485026754124508,88.18552111660175 C33.38799948998143,83.9923268234516 35.86970662724064,80.06407996832137 38.721906767836856,76.4781570529167 C42.38018629052885,71.86982205777286 46.96175001288307,67.46212230148997 52.20796998180657,63.541298291372584 M67.19635451162318,32.72568322483356 C69.50249075932891,32.56726087779764 72.00065810656022,32.734734487817825 74.62633360616616,33.202986815537884 M74.62633360616614,33.20298681553788 C77.92265544910414,33.78963807205201 81.41756759891022,34.85007799951801 84.98411686994748,36.29116771336379 M95.21483139809574,77.59305675355536 C95.1895093406066,80.50065428550135 95.22787116027494,83.53185705903913 95.33189126789729,86.63331675331152 C95.51392680419389,92.09043708977606 95.90242350296047,97.76442628192275 96.46983618779709,103.33380308264107 C97.036144991257,108.90575443040784 97.77935087852832,114.36720101558716 98.64085201963084,119.4718451930733 C99.1194995621443,122.31016926323045 99.63429207750265,125.04104694073747 100.17439331369877,127.63913498398983 M100.17439464868977,127.63913170677893 C95.18299524952053,131.37500477832282 90.17897582764023,134.9434289213326 85.42932227565812,138.13376259352938 C80.67897257312146,141.32617812397757 76.19075657347577,144.13387791841586 72.21397846338792,146.40392744295227 C67.92860705705846,148.8525554552542 64.24420444019258,150.67384441770915 61.289921870219814,151.85641351448245 M163.04207709086683,30.71768976854989 C166.50173469997992,29.33265312811685 169.42133802809715,27.694211006622165 171.24283710079163,25.867577153978864 C172.57139144977245,24.539444176014026 173.31317754658534,23.114638469390606 173.31144183308064,21.65288612227384 M173.31144183308064,21.65288612227384 C173.31264829457425,20.428754150782513 172.79232010097567,19.179851977070115 171.7223831049593,17.951522090548146 C170.6550222058853,16.723210776131072 169.03760119385666,15.516052601465244 166.9146206549893,14.37595390237768 C164.35647783265424,12.999565622209964 161.0597830687246,11.722411523190717 157.2285011618938,10.607089058707913 C153.39990981331457,9.49053085880799 149.04208224653482,8.536304135482117 144.43463577996727,7.772018144469965 C140.14774939582313,7.059815567977692 135.6491437848274,6.511182598989783 131.15734026989918,6.119298605651575 C126.0824483207705,5.6758459809177815 121.02124194438673,5.4316964986791465 116.20767648309723,5.346821262229112 C115.0453003328071,5.32609860483875 113.86299107564739,5.314364183311557 112.66074871161842,5.311617997647559 C108.80101151275365,5.303137313151866 104.7718099907892,5.39273485034716 100.67983567342137,5.602000623230643 C96.03485106690295,5.839065259587881 91.30936516850976,6.2316119484835655 86.71730938468545,6.79371875236912 C81.78282076930199,7.396642786903366 77.0069954347227,8.196551635341145 72.68035598882173,9.175341073523281 C68.35161730453655,10.152814240639575 64.477604403844,11.30884711434328 61.28992304531397,12.588085063563494 C58.09767422431649,13.86650920898492 55.59492939419985,15.26686662104679 53.883795322510295,16.710729294561897 C52.16730766496067,18.154580338432197 51.24140831533138,19.64044652021225 51.056886858959075,21.089691969386763 C51.03262599232356,21.27809139783454 51.02051836201092,21.465823126337487 51.02056396802122,21.65288715489559 M51.02056396802122,21.652887154895595 C51.01992995936009,22.805199175088852 51.47887027475356,23.928202571326334 52.31109660722808,24.99263761512248 C53.13737237775138,26.051849179934976 54.3382719171861,27.056919182368848 55.78827095569961,27.979227485468112 C56.298178581026,28.303308681197034 56.83609353038296,28.61741929444056 57.40201580377032,28.921559325198572 C59.546485698055406,30.076409423760047 62.33638035887093,31.23113196249045 65.81986877748898,32.312559267364065 C68.90098918024387,33.26997464145853 72.52611127774237,34.168780043357394 76.63474576198962,34.95244235605857 C81.0465602404045,35.795155619238535 86.01839189038668,36.50323310184005 91.34733770422672,37.0183114051994 C96.67305031873063,37.53452875935408 102.35209267591345,37.85661909371507 108.0898153388722,37.95833968843889 C113.34365216356498,38.05267429252148 118.64233278284989,37.9626785383254 123.75021323860526,37.69873746589289 C128.8597906453137,37.4357057640788 133.77564170644766,36.99930729694049 138.31022371344602,36.425558256042216 C142.34846620133737,35.915300860110776 146.085244004783,35.29715566493583 149.4447143029903,34.60626720942763 C152.24584426839985,34.03054108105629 154.7863000930984,33.404632673531985 157.05246493604452,32.74976434045628 C159.3194742518419,32.094821964020355 161.312668789942,31.411080658919325 163.04207709086685,30.71768976854989 M181.54246894916628,173.2823102314501 C183.27201047529542,172.58912124660142 185.0660866175184,171.63926281647767 186.8946580730648,170.39843626619304 C188.7228459831597,169.1582921466686 190.58539747536707,167.62653711731386 192.4415339742679,165.78798056452302 C194.66831788510973,163.58347813808692 196.88559150683156,160.93480389835148 199.0092877959175,157.8661384589256 C201.39534535367653,154.42136603691267 203.66157889151083,150.44415002947892 205.6879817511213,146.06107808251684 C207.71543862523177,141.6807534186169 209.5011969797404,136.89651129715267 210.95487209464213,131.91258832085325 C212.54468774113946,126.47129759256896 213.73582698113265,120.79634514547436 214.48304686519572,115.19429573142685 C215.23322616131665,109.5907704522696 215.54023259032738,104.06505242168843 215.44241389323741,98.88160997621759 C215.35328800495344,94.05578042026885 214.91654645601392,89.5266925175414 214.21120425276493,85.42423293609605 C213.41546556954813,80.78724574220473 212.27995035415827,76.6966356813669 210.9451299378112,73.20166894262411 C210.62344695490322,72.35777208407426 210.2799881919764,71.5242286074963 209.9147536490314,70.70103851289024 C208.74177232175924,68.05961233210668 207.34730055503536,65.56730116084923 205.72683947845456,63.35459192288823 C203.8882271388407,60.84152080532591 201.75633233053765,58.69246148991099 199.37268083269544,57.09042546527134 C197.1909773279278,55.62143273140859 194.79873305940734,54.61337577011035 192.26808786802872,54.16370734135823 M192.26808786802872,54.16370734135823 C188.86202830939737,53.55192017082396 185.204093888451,53.96746327620698 181.54246894917128,55.439878288125946 C178.3524451459538,56.716095748464454 175.16413783341278,58.78831428075942 172.1442039578898,61.51473566676356 C169.12265640581114,64.23747968526102 166.27171593618368,67.60982902949968 163.71225706564502,71.38639917992064 C161.3286055678021,74.89960818335904 159.1967107594985,78.7579860610542 157.35809841988396,82.74522663045866 C156.29008902894688,85.06013311718525 155.31960614593103,87.41854579230164 154.4467016214698,89.78266535403435 C153.57890856686805,92.13277321160695 152.81270883844118,94.47361787551166 152.1398079605249,96.77624401667758 C150.80498754417738,101.34144804202883 149.66947232878715,106.3424957228926 148.8737336455696,111.61749324292687 C148.16839144232003,116.28548472401242 147.73164989337974,121.16474489303383 147.6425240050953,126.06203413575038 C147.54470530800472,131.32390602062296 147.85171173701474,136.60347129272233 148.60189103313496,141.60551502086892 C149.3491109171964,146.60845569232583 150.5402501571914,151.3283720817102 152.13006580368707,155.4949744977107 C153.58374091858795,159.31336442437185 155.36949927309706,162.66581455909673 157.3969561472069,165.42055729669946 C159.42335900681803,168.1788924090395 161.68959254465094,170.33907924711914 164.0756501024106,171.87074955064895 C166.2544888970129,173.272202594113 168.5317710884443,174.15231378623054 170.81685011004114,174.55848107387783 M170.81685011004114,174.55848107387783 C174.47460429616066,175.2128741226972 178.1398040858613,174.64996958299008 181.54246894916628,173.2823102314501 M104.22028936328573,166.14387259483044 C98.45390240514347,166.34497804625957 92.48283008545422,166.7818445124474 86.71730938468546,167.48794412962664 C80.03798438915953,168.302534244595 73.65462606447426,169.48384204099594 68.27219246369322,170.9701372984655 M116.79109744511823,129.6064438468622 C116.7943989664116,135.61140892897225 115.98620472982037,141.9433214717496 114.09280134830487,148.05951195584512 C112.96011282789553,151.72606084636902 111.44060795827703,155.30716780237935 109.52606558704541,158.65532692098773 C107.37758746967538,162.41757822445388 104.72788838976777,165.88236684686717 101.64473087337707,168.85329098398753 C98.56431037553428,171.82653381905192 95.05145868119806,174.30285038600957 91.25123878572859,176.15107100102168 C90.4030538405017,176.5640428188819 89.5418053970019,176.9457798655071 88.66749345522923,177.2962821408969 M88.66749345522923,177.29628214089692 C84.82835137525484,178.8372349077227 80.75537692208775,179.7577902922619 76.63094556208421,180.0503370579646 C72.50620881004636,180.34613906352178 68.33259458438364,180.0152749779469 64.28370999703255,179.14190313991003 C60.08595084985897,178.2391416032977 56.024087573705,176.7567159438869 52.23762338099834,174.8567467462657 C47.95832520917696,172.71193067701293 44.03318655372405,170.03995754579898 40.5533714600932,167.10109695577998 C39.71334898574764,166.3925995981195 38.87472846634954,165.64652318953222 38.03750990189893,164.86286773001825 C35.350713646855496,162.34644916002426 32.71600238051075,159.45453802473048 30.244488962078975,156.19911633563615 C27.438111357477922,152.50505854739066 24.84452230949589,148.33942444246583 22.636119115903014,143.8050692682921 C20.26117066339726,138.93562780333102 18.336147941040497,133.6399902058893 17.031089339272988,128.15843590087655 C15.722296899629264,122.67901959823367 15.036665174344126,117.01813642297458 15.03894222447122,111.47683893251369 C15.036665174342,105.93473001905333 15.722296899626805,100.518170558998 17.031089339269055,95.5051402467806 C18.336147941034024,90.48864138533656 20.261170663391876,85.87898240587697 22.636119115895678,81.85584983810676 C24.844522309487495,78.10845543748292 27.4381113574695,74.86704243918811 30.244488962069816,72.17303260278317 C31.873621162687996,70.60795801096053 33.574078366315696,69.22501455329864 35.31324035893474,68.01848022534462 C37.042073168873266,66.81898513952326 38.7980745078012,65.80081851396238 40.55337146008385,64.94460496816646 C41.39788504725332,64.5321486108333 42.267609803458164,64.14628068064872 43.162545728698355,63.78700117761273 M43.16254572869836,63.787001177612716 C45.9567484099512,62.6663556584948 48.99700656377807,61.82239547458838 52.2376233809875,61.352618749942714 C56.02408757369413,60.80194971578687 60.08595084984739,60.76696222125924 64.28370999702133,61.36006511520982 C68.79326240332612,61.99362038089507 73.45822410551662,63.35812699626255 78.03696321518481,65.47715002402232 C82.61545238711888,67.5909874344127 87.10322597556772,70.45983752123978 91.25123878571978,73.96073090126022 C95.05145868118835,77.16315350134288 98.5643103755283,80.89126887694422 101.64473087337034,84.96221438916213 C104.72788838976301,89.03181653540803 107.37758746966986,93.4408209802039 109.5260655870414,97.9686788568324 C111.44060795827379,101.9990819378806 112.96011282789289,106.12166190528511 114.09280134830273,110.19184245002927 C115.03781149254996,113.58469558793747 115.71569040378132,116.94109695645804 116.15367022078354,120.19505815646761 C116.59210652330489,123.44976698482117 116.7912443536424,126.60191381678271 116.79109744511823,129.6064438468622 M170.6211380517537,142.83368939084144 C166.0160256775726,143.33334196613714 161.32229566153947,143.03791761861928 156.78567041673844,142.05862067432372 C153.877673758326,141.4327344452057 151.0332332886377,140.52972700825782 148.30216058042245,139.40115890386397 M120.11170919565481,37.85612767332444 C122.83945290197734,34.72626867014158 125.85315422146616,32.169792897261125 128.95927096501313,30.170043699456023 M172.12403473266974,140.45870022228723 C171.35858427314457,142.09701768467465 170.2088200318953,143.5270602282001 168.67325173145468,144.690895745683 C167.68710751327313,145.43967878515778 166.5477250850961,146.07369083399232 165.25510444692355,146.59293189218687 M165.25510444692355,146.59293189218684 C162.9791153936134,147.5069854611609 160.2357085700688,148.0424018708463 157.13705308049634,148.18280624691613 C154.86199055392743,148.287116737872 152.39732186590663,148.1799186198776 149.80726604945062,147.87665161381284 M116.39585182950117,136.8662655664663 C116.30755878252621,136.8222406069643 116.21926573555137,136.7782156474624 116.1309726885765,136.73419068796045 C111.06946060020759,134.20566964241704 105.65847528300324,131.15776587172326 100.17439615068729,127.63913371390773 M163.04207709086677,169.9860184288397 C165.5904057868042,168.96624671294674 167.86030206907344,167.29987533663507 169.60655600706062,164.8607709481932 C171.35468987333837,162.4273563175759 172.5706893690397,159.21452878755173 173.06094814262534,155.25750684034 C173.22732699692332,153.92616274303748 173.31082156971124,152.51546422614285 173.31143186098876,151.02541128965626 M173.31143186098876,151.02541128965623 C173.31223185743391,147.8276227437468 172.91812195630078,144.2756088174574 172.1240326276516,140.45870134407488 M162.0092632840477,170.36085387507106 Q162.54079898802962,170.1871295926072 163.0420770908668,169.9860184288397 M52.20797290189721,146.86848406173993 C53.302934300774176,152.1459888009516 55.1150526177287,156.63608751965907 57.367026702855014,160.29053463697952 C59.670427082826514,164.03688369730355 62.74670705928057,167.4260147135837 66.70335926215176,170.01302644202062 C69.80400524110678,172.0435399149658 73.44737849467016,173.57170619179433 77.57131702067159,174.39071824705988 C81.69074754885212,175.2136501516026 86.29091070478152,175.320236877005 91.18084497971485,174.6139750446874 C92.55863875319157,174.41582589939924 93.95593595576571,174.15448449256826 95.37273658743723,173.82995082419393 M53.71086112252853,61.16631052081361 Q52.82200680115088,62.235313009615936 52.20797215034018,63.541301189194925 M109.73859858393672,37.98180974587199 Q111.73784298289695,36.829178678494905 113.68579747811981,35.8406086784607 Q114.92577609116594,35.21101266644969 116.14135572625618,34.6461593901541 Q117.92219439497465,33.81739994171359 119.75018589278962,33.083639697442024 M119.75018589278962,33.083639697442024 C123.89849231536718,31.420020828035625 128.22228614599422,30.151401012819573 132.57035055427136,29.473125681453553 C136.70919428689206,28.825769417797325 140.86834691007815,28.71903852620407 144.85297326783632,29.284967453857597 C148.83714872890548,29.84715255281269 152.64230716203804,31.086701369479623 156.05978020533644,33.029869972933746 M196.9594621644158,97.46759877141068 C196.96020688923244,94.40144070525471 196.61231948198468,91.30075387496444 195.90078519985948,88.24247343284543 C195.08065452034933,84.7076918481963 193.77298695892503,81.23174505523386 192.02608377531078,77.9266526122602 C190.2812312697743,74.62030468240452 188.09939107006142,71.48599544962094 185.58686637758672,68.59993317132651 C182.69186222218858,65.27057803654237 179.17237084388418,62.05925809468983 175.06337848653646,59.122324540614215 M172.12403405443058,140.458699315952 C176.2179630671705,137.39636155874285 179.9214823826422,134.03649843652076 183.111728509373,130.47769018355058 C186.304073177573,126.92004600817631 188.98087618627483,123.1646691526035 191.078188453557,119.34333085783159 C193.10082651391954,115.6629251664959 194.5865563668025,111.92297991541344 195.54986528110294,108.24187126007318 C196.51532836614584,104.5598109947045 196.96025893632606,100.93780962235341 196.9594621644158,97.46759877141065" />
    <path class="edge outline visible" d="M42.36259386247525,188.52765981852326 C33.86352565464048,181.67435568543632 26.384128422484636,173.55936032135133 20.24591735044961,164.53197436063067 C14.103609861317585,155.50737513642 9.302488532306397,145.57038531557345 6.049368869141532,135.14833415473433 M24.028515602298455,34.24060740264309 C29.37140335752946,27.290889210979202 35.539811715056544,20.976400162745627 42.362593862475265,15.472340181476724 M181.9694050986114,15.472340181476753 C190.46847386558298,22.325644764848803 197.94787152142936,30.44064074636215 204.08608282164502,39.468027419520354 C210.2283905400855,48.49262735551718 215.02951190289545,58.42961798315897 218.28263137586418,68.85166995543227 M200.3034831262303,169.75939289985467 C194.96059542466637,176.7091109723485 188.7921871470392,183.0235999171121 181.96940509861145,188.5276598185232" />
  </g>
</svg>
