<?xml version='1.0' ?>
<svg xmlns="http://www.w3.org/2000/svg" xmlns:xlink="http://www.w3.org/1999/xlink" version="1.1" width="804.0" height="730.1768637984262">
  <style type="text/css">
.edge {
  fill: None;
}
.edge.visible {
  stroke: #000000;
}
.edge.hidden {
  stroke: #C8C8FF;
}
@media (prefers-color-scheme: dark) {
    .edge.visible {
      stroke: #FFFFFF;
    }
    .edge.hidden {
      stroke: #A00000;
    }
}
</style>
  <g>
    <path class="edge sharp hidden" d="M150.10206489934072,62.92410691961174 C163.25575221983703,57.64709427394196 176.40843128509974,55.436510902937016 189.097360017172,56.36981899822862 M189.097360017172,56.36981899822862 C201.7874794324963,57.29528154969857 214.01154217944278,61.364490899439154 225.34015846103844,68.43450994175886 M225.34015846103844,68.43450994175886 C236.67101199373036,75.49703196050707 247.104270457665,85.55902358463152 256.2733551927008,98.266940223664 M256.2733551927008,98.266940223664 C265.4455965740615,110.96824566596845 273.35189765184504,126.31304252599182 279.71434667755443,143.76206831677607 M279.71434667755443,143.76206831677607 C286.0806554171143,161.2058393789596 290.9018838961313,180.75049403597535 294.0085471868554,201.70916137097453 M294.0085471868554,201.70916137097453 C297.11949823187024,222.66430142135806 298.51528859893705,245.0294397847402 298.146884199521,268.0186245586187 M298.146884199521,268.0186245586187 C297.78288952348476,291.0062566726278 295.65477565244055,314.6135365276004 291.8373817832375,338.0108991258119 M291.8373817832375,338.0108991258119 C288.02420734541187,361.40879181534234 282.5224878486534,384.59229208974136 275.52558689415207,406.74672540295717 M275.52558689415207,406.74672540295717 C268.5324186821351,428.90373424201914 260.04540756486847,450.02743645598935 250.36276909499668,469.37550347826584 M250.36276909499668,469.37550347826584 C240.68311539937224,488.72801118282337 229.8096826759018,506.30117675350965 218.12452925307764,521.4774109229252 M218.12452925307764,521.4774109229252 C206.4414029272277,536.6596390436362 193.9487880461233,549.4420250902539 181.08568734217863,559.3753538764795 M181.08568734217863,559.3753538764795 C168.22351157137706,569.3158066088301 154.99331385091318,576.4052986216863 141.86008353605325,580.3947349556822 M141.86008353605325,580.3947349556822 C128.7266075780075,584.3919196626845 115.69262237481594,585.2882918629248 103.21622034583797,583.0524188395751 M103.21622034583797,583.0524188395751 C90.73841780989949,580.8243687178453 78.82059483233508,575.4645121428072 67.88149661938749,567.1611640078978 M67.88149661938749,567.1611640078978 C56.93994812371285,558.865165908527 46.97919915699897,547.6272502106258 38.34913678722991,533.8421669690962 M38.34913678722991,533.8421669690962 C29.715771272244965,520.0634717102477 22.414648605031754,503.7401293553165 16.702800807556564,485.446233408191 M81.98299142823937,119.06191642903245 C92.45793538966835,105.43399574655129 103.58435897450926,93.7323159252904 115.04634528577338,84.28890462886693 M115.04634528577338,84.28890462886693 C126.50765383566656,74.84093213702047 138.30452511198285,67.65122817001168 150.1020648993406,62.924106919611845 M150.10206489934058,534.1428477132145 C157.66693563778728,531.1115608239052 165.57448635702238,526.723890023593 173.62688021972988,520.7723199984907 M270.79377926785764,229.28915044388742 C270.19773624233744,224.4347990803494 269.5059649002238,219.71852833745533 268.71846524151647,215.14033821520474 M268.71846524151647,215.14033821520474 C267.2736632586319,206.7260670545857 265.5209214925883,198.79819582490114 263.5231440287423,191.3949481351446 M263.5231440287423,191.3949481351446 C261.5254286339169,183.99067140590512 259.28298331218474,177.11039163036475 256.8603931576806,170.76336969818107 M256.8603931576806,170.76336969818107 C255.69172821532322,167.69750401974935 254.44443568481285,164.6704010499596 253.11851556614906,161.6820607888116 M253.11851556614906,161.6820607888116 C248.85961173776906,152.0914308980841 243.7964089641518,143.042117445447 237.91272788475908,135.00798695522852 M237.91272788475908,135.00798695522852 C231.23692076699984,125.88336758127598 223.49626784093653,118.08035685055258 214.841499377988,112.26355353447133 M214.841499377988,112.26355353447133 C206.91981638945947,106.92971722639375 198.2340464747686,103.26969929244967 189.04554630189878,101.63698042045667 M189.0455463018987,101.63698042045662 C182.8603657579625,100.5338656513537 176.45067654762605,100.34499135306011 169.92217329816845,101.11381391699777 M169.92217329816845,101.11381391699777 C163.39412890668677,101.88046018198288 156.74788425639565,103.60527033474514 150.10206489932872,106.27061439961109 M150.10206489932872,106.27061439961109 C144.3116761916282,108.59130197107774 138.52079775978865,111.6252054434393 132.8082771671543,115.32348092968878 M132.8082771671543,115.32348092968878 C127.09551284651245,119.0206802507175 121.46142355823515,123.3817790383725 115.97799621221586,128.32776423635676 M115.97799621221586,128.32776423635676 C110.49419072895964,133.27290915850676 105.16130347418094,138.8024065768657 100.04069724590275,144.8136791686665 M100.04069724590275,144.8136791686665 C94.91960702128613,150.8243761397345 90.01099320245041,157.3162530032647 85.362630420707,164.17057851286185 M85.362630420707,164.17057851286185 C76.70786427657167,176.92663837813168 68.96720265502904,190.93596348054484 62.29141234849966,205.41316568831712 M62.29141234849966,205.41316568831712 C58.41358968862953,213.81832125819335 54.889888518505096,222.38145998069908 51.72046900101903,230.96529819000983 M51.72046900101903,230.96529819000983 C48.569230827594836,239.49954107192912 45.78837889199742,247.99503532470536 43.3436713408465,256.36068362472076 M43.3436713408465,256.36068362472076 C40.92114373327883,264.6498846083631 38.67869586075577,273.32812928863933 36.68098474963416,282.33412703258193 M36.68098474963416,282.33412703258193 C34.68320892962887,291.33915454810335 32.930466313320636,300.6723485145183 31.48566455717041,310.2450376150509 M31.48566455717041,310.2450376150509 C28.924650961641778,327.1939643494289 27.3388921656111,344.9099963187811 27.015286151532862,362.6914925375023 M27.015286151532862,362.6914925375023 C26.660127592489427,381.79706499004305 27.774816491235832,400.96600667366414 30.498623241656617,419.1279757418264 M30.498623241656617,419.1279757418264 C31.85762857878706,428.2089066113599 33.61360588343319,437.03691884833654 35.75588487095058,445.48289894489665 M35.75588487095058,445.48289894489665 C37.89745652875511,453.9293770494269 40.425345680882174,461.9931667987609 43.30903330432393,469.5590867842044 M43.30903330432393,469.5590867842044 C45.94927925547209,476.4883413322616 48.88802496436393,483.0013748643425 52.08915985856028,489.0274058260944 M52.08915985856028,489.0274058260944 C55.289956777355854,495.0542237082139 58.75293792824531,500.5939092985005 62.43252313251827,505.59776317036193 M62.43252313251827,505.59776317036193 C66.11186891084965,510.60244573671565 70.0076032180815,515.0712480698766 74.06743565409343,518.9787225465207 M74.06743565409343,518.9787225465207 C78.12713216890708,522.8870294261245 82.35070071674532,526.234041141182 86.68203880888693,529.0176657087165 M86.68203880888693,529.0176657087165 C94.59319476421705,534.106126755386 102.86171574611346,537.3017446045982 111.15859332545325,538.7764521757836 M111.15859332545327,538.7764521757836 C117.7944599119637,539.9596923972744 124.44813866873343,540.0498533068296 130.97897542631094,539.2141073387506 M130.97897542631094,539.2141073387506 C137.51113749925108,538.3796163905267 143.92001610982072,536.6217581413902 150.10206489934063,534.1428477132145 M148.55190912910945,679.2603550933748 C141.93468056829667,673.9242107196425 137.6905363378426,668.3782566671063 135.93711249253252,662.7762525945516 M135.93711249253252,662.7762525945516 C134.17877389471175,657.1743537374286 134.91135148127722,651.5170498055692 138.11453074856078,645.9610683235935 M138.11453074856078,645.9610683235935 C141.31283830531677,640.404886812279 146.98136766851033,634.9506831284584 154.96305241890082,629.7495752702554 M154.96305241890082,629.7495752702554 C162.94017622075123,624.5479684169073 173.22951063711383,619.6000758603275 185.5459574032232,615.0430091891005 M185.5459574032232,615.0430091891005 C197.85840746951828,610.4851711767703 212.19650988460913,606.3187011655004 228.16297329277535,602.6590575053497 M228.16297329277535,602.6590575053497 C244.12622692874183,598.998413420532 261.7159478219029,595.8450298879062 280.4447421337295,593.2862812352608 M280.4447421337295,593.2862812352608 C299.17129221234484,590.7263592809736 319.03469448352627,588.7613748237098 339.48455698607177,587.4457658680386 M339.48455698607177,587.4457658680386 C359.9332653935056,586.1288761861979 380.9660092402512,585.4615172593685 402.0000000000001,585.4621758347365 M402.0000000000001,585.4621758347365 C423.0339907597497,585.4615172593694 444.06673460649426,586.1288761861969 464.5154430139285,587.445765868039 M464.5154430139285,587.445765868039 C484.96530551647413,588.7613748237104 504.8287077876547,590.7263592809733 523.5552578662711,593.2862812352614 M523.5552578662711,593.2862812352614 C542.2840521780959,595.8450298879058 559.8737730712579,598.9984134205323 575.8370267072246,602.65905750535 M575.8370267072246,602.65905750535 C591.8034901153903,606.3187011655007 606.1415925304824,610.4851711767706 618.4540425967766,615.0430091891005 M618.4540425967766,615.0430091891005 C630.7704893628863,619.6000758603282 641.059823779249,624.5479684169063 649.0369475810994,629.7495752702555 M649.0369475810994,629.7495752702555 C657.0186323314898,634.9506831284582 662.6871616946843,640.4048868122792 665.885469251439,645.9610683235928 M665.885469251439,645.9610683235928 C669.0886485187224,651.5170498055691 669.8212261052894,657.1743537374288 668.0628875074674,662.7762525945516 M668.0628875074674,662.7762525945516 C666.3094636621577,668.3782566671074 662.0653194317036,673.9242107196424 655.4480908708904,679.2603550933749 M569.9319567337731,40.483255262886246 C584.4719212531088,43.072751392474494 599.0114415744171,47.32151317893318 613.2718300976262,53.14852445995403 M613.2718300976262,53.14852445995403 C627.5325975961881,58.973361862207206 641.5134172223364,66.37606951532597 654.9462378129701,75.21468248524486 M654.9462378129701,75.21468248524486 C668.3798074625239,84.05133172864957 681.2646160968418,94.32336868668956 693.3536256731614,105.83376092065551 M693.3536256731614,105.83376092065551 C705.4437232763851,117.34246398988047 716.73733853192,130.08886885807885 727.0179523450269,143.82856895281463 M727.0179523450269,143.82856895281463 C737.2999506113528,157.56691465682178 746.5683669009342,172.29778152618076 754.6455147617175,187.7387748113393 M754.6455147617175,187.7387748113393 C762.7242902590576,203.17879924331032 769.611341071391,219.32808034768848 775.1746342609364,235.87704736422302 M775.1746342609364,235.87704736422302 C780.7397358829128,252.4254685553684 784.9807653451134,269.3726418537494 787.8164144441538,286.39368557916333 M787.8164144441538,286.39368557916333 C790.653983415339,303.41462818601775 792.0860114616796,320.50847909579903 792.0850410245826,337.34751954942357 M792.0850410245826,337.34751954942357 C792.0860281739167,354.186908070693 790.6540166187972,370.77053324861316 787.8164573975484,386.7804389566796 M787.8164573975484,386.7804389566796 C784.9808182278597,402.7911288254807 780.7397916405115,418.2271929184294 775.1746844939328,432.7926701702705 M775.1746844939328,432.7926701702705 C769.6113860229705,447.35933752232893 762.7243215791342,461.0545936909479 754.6455298359774,473.61585916290386 M754.6455298359774,473.61585916290386 C746.5683658355807,486.1786747296992 737.2999313283138,497.60678916067496 727.0179217583366,507.681102089141 M727.0179217583366,507.681102089141 C716.7372964215283,517.7572652729916 705.4436773950143,526.4790576958271 693.3535866221603,533.6792772884386 M693.3535866221603,533.6792772884386 C681.2645833857854,540.8815759872532 668.3797919521149,546.5618954297021 654.9462386554986,550.6113507341335 M654.9462386554986,550.6113507341335 C641.5134344352992,554.6630340172078 627.5326277789694,557.0836248792879 613.2718559016823,557.8267311799918 M613.2718559016823,557.8267311799918 C599.0114658888135,558.5721287702116 584.4719167853601,557.6400001558269 569.931956733773,555.0482216147589 M569.931956733773,555.0482216147589 C555.391996682185,552.4587097815022 540.8524475787309,548.2096944622374 526.5920575658638,542.3826308120265 M526.5920575658638,542.3826308120265 C512.3312856885753,536.5577223745829 498.3504790322462,529.1550945126264 484.9176748120471,520.3166539785433 M484.9176748120471,520.3166539785433 C471.48412151543045,511.48017449097654 458.5993300817601,501.20838123473504 446.5103268453857,489.6981865113383 M446.5103268453857,489.6981865113383 C434.4202360725313,478.1896833523442 423.12661704601726,465.4434287338911 412.8459917092097,451.7037819565069 M412.8459917092097,451.7037819565069 C402.5639821392315,437.96549216533583 393.29554763196506,423.23458664503187 385.2183836315684,407.7934872357356 M385.2183836315684,407.7934872357356 C377.13959188841136,392.35335787787517 370.2525274445736,376.203907847401 364.6892289736129,359.65476841737234 M364.6892289736129,359.65476841737234 C359.1241218270331,343.1061745690364 354.88309523968445,326.1588277657959 352.0474560699968,309.13766263552174 M352.0474560699968,309.13766263552174 C349.2098968487463,292.1165974588263 347.77788529362647,275.0226773653666 347.7788724429626,258.18364061310837 M347.7788724429626,258.18364061310837 C347.7779020058626,241.34425434584867 349.20993005220464,224.7607042282254 352.04749902339097,208.75092456437517 M352.04749902339097,208.75092456437517 C354.88314812243055,192.74035963874192 359.12417758463073,177.30447007509906 364.6892792066087,162.73916351176888 M364.6892792066087,162.73916351176888 C370.25257239615286,148.17266669117924 377.1396232084846,134.47757459108905 385.2183987058283,121.91640825585775 M385.2183987058283,121.91640825585775 C393.2955465666103,109.35369306187225 402.563962856192,97.92561078999529 412.84596112251876,87.85123792066275 M412.84596112251876,87.85123792066275 C423.12657493562494,77.77501731300332 434.4201901911571,69.05307329663756 446.51028779438354,61.85265622779563 M446.51028779438354,61.85265622779563 C458.5992973706978,54.65016227763384 471.48410600501916,48.96960526280478 484.91767565457144,44.91998602989055 M484.91767565457144,44.91998602989055 C498.3504962452022,40.868136144550206 512.3313158713496,38.44747011307487 526.5920833699142,37.704433287227076 M526.5920833699142,37.704433287227076 C540.8524718931171,36.95908753534591 555.3919922144298,37.89145942606273 569.9319567337724,40.483255262886075 M191.38091217021574,552.7227946981837 Q189.4371498155233,552.7231380682485 187.81086916901629,552.4339057094261 M187.8108691690163,552.4339057094262 C185.22157921980656,551.9734061449794 183.25484280567252,550.9549516441919 181.9471524280542,549.3884790307645 M181.9471524280542,549.3884790307645 C180.63790511468056,547.8232050666315 179.98728719806832,545.7105245066052 179.98799914854177,543.0940408925958 M179.98799914854175,543.0940408925958 C179.98514023534375,539.1363879630818 181.48167024554786,534.0209928721455 184.29932472049137,528.0006967726026 M184.29932209947313,225.44935206622793 C181.5372804734643,212.1679399640512 179.98687685498894,199.20788519425525 179.98799709302972,187.08282132425302 M179.98799709302975,187.082821324253 C179.9879940188277,186.60622643457864 179.99038729582458,186.1309519431389 179.99517692402029,185.6569978499339 M179.99517692402029,185.6569978499339 C180.07575339461957,177.63199337019807 180.84916979693708,169.98803646913123 182.38930168696817,162.89816850765368 M182.38930168696817,162.89816850765368 C183.92798134535525,155.80794164660537 186.23449262403068,149.2732992215763 189.34198925987835,143.4574324185611 M189.34198925987835,143.4574324185611 C192.44756049442833,137.64045449545227 196.3550098996232,132.5439560910215 201.04337334225073,128.3000662144825 M201.04337334225073,128.3000662144825 C205.72950087024506,124.05427427960952 211.19696456795646,120.66275156465132 217.3618407579985,118.20426880410429 M217.3618407579985,118.20426880410429 C223.77683252323172,115.64245454621538 230.9474808882649,114.09219975912742 238.7204212517044,113.56140141136773 M303.3057286685027,126.50726313038192 C307.41979023056297,128.17002422232616 311.5538885671591,129.96477591052513 315.7080236782911,131.89151819497854 M315.7080236782911,131.89151819497854 C329.9628514821268,138.49828586639578 344.35904028288576,146.58384228635998 358.4598664059115,155.62979867516935 M358.4598643963997,155.62979540089168 C356.58367940126936,159.64019719591732 354.82192082786395,164.25447061253567 353.2015529938388,169.4061207999083 M353.2015529938388,169.4061207999083 C351.58085565052147,174.55629014004262 350.1018137847817,180.24347060254513 348.7821564203693,186.35943899913386 M348.7821564203693,186.35943899913386 C348.5459330967344,187.45374451924138 348.3133228723732,188.56895668402976 348.0843257472857,189.70507549349884 M348.0843257472857,189.70507549349884 C346.3275104330852,198.41942264757097 344.78530391484463,208.40288469558982 343.5573926386171,219.62466777419667 M343.5573926386171,219.62466777419667 C342.6535541050867,227.87993659370565 341.9202840160561,236.8035348046878 341.3928559744571,246.3154013124861 M341.3928559744571,246.3154013124861 C340.86502657418066,255.82515795674416 340.54350140713325,265.9231075910969 340.45226962084115,276.46964439116636 M586.7251524071503,689.7327525331802 C593.0055020232862,687.2153207364963 598.7964652733586,684.4750782930574 603.8438953124054,681.5297840911887 M603.8438953124054,681.5297840911887 C608.8915761130675,678.5853497260622 613.1930397076183,675.4356618744171 616.5011633310039,672.1225546955884 M616.5011633310039,672.1225546955884 C620.4737594529158,668.1484912770454 623.0072121733647,663.9380405963428 623.766705980367,659.6082179141315 M623.766705980367,659.6082179141315 C623.9298872325722,658.6832375054121 624.0116611776723,657.7536645737595 624.0120278156653,656.8194991191738 M624.0120278156652,656.8194991191737 C624.0164083377837,652.3748175395086 622.127156858917,647.8401982210216 618.2423393977718,643.3802744974996 M618.2423393977718,643.3802744974996 C614.3668754466182,638.9204182071418 608.4942068568357,634.5373665202042 600.7859101087365,630.3978000315843 M600.7859101087365,630.3978000315843 C596.1385334622331,627.899912068488 590.8286290276494,625.4900095786103 584.9356965288216,623.1999298878787 M584.9356965288216,623.1999298878787 C579.0436565244701,620.9095996259969 572.5691654089632,618.7391858055206 565.616730729372,616.7134877703029 M565.616730729372,616.7134877703029 C551.715558437987,612.659394111044 535.8927906608941,609.1947072645572 519.1636855348386,606.4196732445657 M519.1636855348386,606.4196732445657 C503.5984969853491,603.8337480776344 487.26458041505424,601.8417252336533 470.9553614687078,600.4188397873781 M470.9553614687078,600.4188397873781 C461.74505422039783,599.6144367582311 452.54019923967115,598.9893226481953 443.45847963729784,598.5280399282213 M443.45847963729784,598.5280399282213 C434.3759550555653,598.0665778396642 425.4164364351131,597.7687470208525 416.6748616510041,597.6140639143688 M416.6748616510041,597.6140639143688 C412.45440831414516,597.5388223426027 408.16158017212473,597.4962160154865 403.79637722494414,597.4862449330221 M403.79637722494414,597.4862449330221 C393.84369067748605,597.464610495605 383.58474590371674,597.6218198348004 373.1500457319924,597.987413063212 M242.6266644016522,615.5110218949459 C233.28301080181566,618.0852469515207 224.76224146096246,620.9037497514049 217.27485185948063,623.9062551003191 M217.27485185948063,623.9062551003191 C211.48391732083937,626.2274775631146 206.30815650983308,628.6585916714837 201.81153566392663,631.1653366111082 M201.81153566392663,631.1653366111082 C197.31365749765112,633.67199866334 193.49493826188458,636.2541112501947 190.38405884629995,638.8750993914346 M190.38405884629995,638.8750993914346 C187.27194485575487,641.4960865297426 184.8675546729073,644.1557801453671 183.16492071107714,646.8175838570735 M183.16492071107714,646.8175838570735 C181.46113819058246,649.4794631911388 180.45886090072753,652.1432947637828 180.1198812347657,654.774606300908 M180.1198812347657,654.774606300908 C180.03179283453352,655.4586628313662 179.98783142949125,656.140295020565 179.98799701963893,656.8195028685041 M179.98799701963893,656.8195028685041 C179.9856950075331,661.0034145132095 181.65205420204867,665.0809099347836 184.67377174248264,668.9457504438885 M184.67377174248264,668.9457504438885 C186.7111364138188,671.5542715353972 189.36161512827272,674.0669739841777 192.50688461844305,676.4626828964058 M192.50688461844305,676.4626828964058 C194.00444574191394,677.6017865011041 195.60181405534925,678.7107964594308 197.2989895587496,679.7897127713873 M197.2989895587496,679.7897127713873 C199.15040515968178,680.9664141030398 201.10351211425322,682.1069134030945 203.1583104224639,683.2112106715515 M203.1583104224639,683.2112106715515 C207.05460404863172,685.3082329505668 211.52923613844249,687.4040221440735 216.6163230235955,689.4672162136733 M216.6163230235955,689.4672162136733 C221.70248504778888,691.5302829676634 227.40185786737263,693.5607176377576 233.72256078432034,695.5235391872634 M233.72256078432034,695.5235391872634 C239.31897139234434,697.2616536738612 245.40236118687193,698.9465973048061 251.95649031613704,700.5526835853424 M251.95649031613704,700.5526835853424 C258.5098096675675,702.158780243526 265.533993670324,703.6859008570572 272.9901280391725,705.1086492979769 M272.9901280391725,705.1086492979769 C281.0028169273483,706.6378800782329 289.51581124996403,708.0465016925807 298.45031060987253,709.3054139883208 M298.45031060987253,709.3054139883208 C307.3838852424631,710.5645228659428 316.7386514428133,711.6737728034142 326.4098474139712,712.6095808335933 M326.4098474139712,712.6095808335933 C345.7468938334321,714.4839063299848 366.36683967501926,715.6533790743157 387.19984691868194,716.0227147866168 M387.19984691868194,716.0227147866168 C406.2759206600022,716.3652328213186 425.51481703191155,716.0384686486319 444.06094008199995,715.0801291475991 M444.06094008199995,715.0801291475991 C462.6132245646943,714.1250914660837 480.46211109706593,712.54057911492 496.9266537994605,710.4573627192854 M496.9266537994605,710.4573627192854 C511.58904512503307,708.6046771417483 525.1568530551215,706.3602634457272 537.3547010810022,703.8517273864497 M537.3547010810022,703.8517273864497 C547.5252799478668,701.7613324149129 556.7493811648567,699.4887313929063 564.9775635573612,697.1109802313376 M564.9775635573612,697.1109802313376 C573.2088121330993,694.7329602268927 580.4458709261874,692.2503746439548 586.7251524071503,689.7327525331801 M754.6571091409232,330.6791260255667 C754.6576432085112,341.588504648764 753.9345954370048,352.77580360900225 752.3426861686607,364.0260139573004 M752.3426861686607,364.0260139573004 C750.7524353727414,375.27407433002804 748.2911165615245,386.5838234747746 744.8598889397888,397.6800553635893 M744.8598889397888,397.6800553635893 C740.7472629878038,410.99292388590044 735.2300853829864,423.99544487648166 728.2786366237016,436.1523108868913 M728.2786366237016,436.1523108868913 C720.4776526058706,449.81269454963996 710.8570553187901,462.3927209133326 699.6624385826187,473.17985569243103 M699.6624385826187,473.17985569243103 C694.0681113652969,478.57525945679555 688.0860935416935,483.5253026285356 681.7742128434909,487.9611068166375 M681.7742128434909,487.9611068166375 C675.4628946275897,492.39759835476707 668.8218964916754,496.3195274627125 661.924835247547,499.6772795373486 M661.924835247547,499.6772795373486 C658.8451973315416,501.1767219177318 655.7181040553725,502.56276530047177 652.5435554190392,503.835409685568 M652.5435554190393,503.83540968556804 C640.2835674772193,508.754468271935 627.3670422182643,511.93750765410556 614.2438460027198,513.3508343950148 M533.2062206861247,500.88771327538586 C528.8103908840586,499.07176060919494 524.4945670929623,497.0956176455801 520.2709178602964,494.97774501281646 M520.2709178602964,494.97774501281646 C512.505412594885,491.0842254055626 505.05329938019037,486.71159176636706 497.9693572416694,481.9788811579785 M497.9693572416694,481.9788811579785 C490.884548054768,477.2461238901557 484.1674747560359,472.1537432984817 477.84849012643866,466.8193445653082 M477.84849012643866,466.8193445653082 C474.7967017319355,464.24539224254016 471.75116612042495,461.5359623095664 468.7118832919073,458.6910547663872 M468.7118832919073,458.6910547663872 C458.9565278495011,449.5543429711577 449.39016599895416,439.05407837333127 440.4163616957045,427.23405888824294 M440.4163616957045,427.23405888824294 C430.2267670436875,413.82133715048593 420.8097273216656,398.69641665382443 412.7912724471794,382.23268809064905 M412.7912724471794,382.23268809064905 C408.48188933139767,373.3897405039718 404.57555280243076,364.16649780492946 401.1582450983077,354.66127380398245 M401.1582450983077,354.66127380398245 C397.74027283186007,345.1567721927118 394.8117757599236,335.37070822361915 392.4400842672103,325.42167776600496 M392.4400842672103,325.42167776600496 C390.0675363367729,315.47315161259496 388.2521662842627,305.3621705246006 387.0372801298921,295.22150603692324 M387.0372801298921,295.22150603692324 C385.82138038316066,285.0810843571077 385.2062627623127,274.91158344140143 385.206808593247,264.85262859271967 M385.206808593247,264.85262859271967 C385.20626276231087,254.7934792381046 385.82138038315503,244.8431744547833 387.03728012988404,235.13603661010555 M387.03728012988404,235.13603661010555 C388.2521662842524,225.42829476563125 390.0675363367612,215.96421775064996 392.44008426719586,206.86114507242007 M392.44008426719586,206.86114507242007 C394.8117757599064,197.75726289983857 397.74027283183995,189.01476394992687 401.15824509828644,180.72825102232284 M401.15824509828644,180.72825102232284 C404.5755528024077,172.4407788893749 408.48188933138033,164.60955265972112 412.79127244715824,157.30224651758178 M412.79127244715824,157.30224651758178 C418.23241303128236,148.07278384102867 424.31650232411914,139.6802302101398 430.84995280786165,132.18945170885354 M462.9744260975391,104.28216993367798 C467.9025991981166,101.10714555937346 472.8728546191583,98.32571934765878 477.84866071472766,95.89853738778305 M477.84866071472766,95.89853738778305 C480.9141362177718,94.40137175519013 484.0714887543854,93.00058157222942 487.32071832456813,91.69616683890088 M487.32071832456813,91.6961668389009 C497.4655435008115,87.62752461156691 508.504700644194,84.56304307254896 520.2709178602589,82.85738094661072 M520.2709178602589,82.85738094661072 C527.1469385463562,81.85957400417769 534.2682769193528,81.32529022614966 541.5793315143951,81.31300178653396 M541.5793315143951,81.31300178653396 C548.8898434153671,81.30015267545801 556.3899533207162,81.80970090670759 564.0088635207736,82.88441998125083 M564.0088635207736,82.88441998125083 C572.1969670487597,84.03859848564555 580.5231536421609,85.84663182558972 588.8826155793233,88.33502584732884 M588.8826155793233,88.33502584732884 C597.2417768015956,90.82228225625074 605.633737965991,93.99009595077626 613.9452458054341,97.83303949051873 M613.9452458054341,97.83303949051873 C622.2566858221574,101.6747847965707 630.4871542423032,106.19172199309013 638.5214732341756,111.34479296860722 M638.5214732341756,111.34479296860722 C646.555977390808,116.49666816388499 654.3937709775544,122.2846046248525 661.9248352474916,128.63598226558332 M661.9248352474916,128.63598226558332 C675.722848669004,140.2634679479368 688.4777894277995,153.79998401257302 699.6624385825946,168.58113775603152 M699.6624385825946,168.58113775603152 C710.8570553187624,183.35745543065343 720.4776526058591,199.36576549953136 728.2786366236826,215.80601673125005 M728.2786366236826,215.80601673125005 C735.2300853829771,230.44001984635602 740.7472629877919,245.408577821608 744.8598889397821,260.1869737031895 M744.8598889397821,260.1869737031895 C748.2911165615219,272.5059177993019 750.752435372736,284.69275377369036 752.3426861686593,296.50749734998453 M752.3426861686593,296.50749734998453 C753.9345954370078,308.3249818957169 754.6576432085076,319.76993771644703 754.6571091409232,330.67912602556686 M538.6710845320483,531.6612468516712 C528.7952469531647,530.5070004955599 518.4205908295014,528.5691800276397 507.828437401731,525.9765961046542 M507.828437401731,525.9765961046542 C497.23525362343884,523.3852236437436 486.42724557015254,520.1415764430537 475.65628714951976,516.4084573751798 M475.65628714951976,516.4084573751798 C465.6856151343889,512.9533971695855 455.74540196363756,509.0802761568732 445.9872608503358,504.9184659972051 M445.9872608503358,504.9184659972051 C436.227430543996,500.7561738091771 426.6496067502057,496.3059995656199 417.35810456548296,491.68380880631094 M445.5401458858439,574.5470742443621 C456.1515549221626,581.3542015372536 466.5874637939513,587.3979605278145 476.6922652365147,592.6046427150769 M476.6922652365147,592.6046427150769 C486.79770919393883,597.8131205393278 496.57088900748397,602.1837659097426 505.87409954457837,605.6932613461278 M505.87409954457837,605.6932613461278 C517.4773169764616,610.0731037221718 528.3480034399795,613.1108288448355 538.3021802459156,614.882422111336 M538.3021802459156,614.882422111336 C547.2914579588468,616.4849054384075 555.5361633168683,617.0601318969186 562.9853097846551,616.7425401377483 M562.9853097846551,616.7425401377483 C570.436901717169,616.4264106981037 577.0941818568228,615.2200058714348 582.9751249515322,613.2987842671209 M341.02560509670866,625.8946739807548 C351.96443516789634,623.3891025318853 363.17797638295184,619.8409636932151 374.4627990189147,615.3157232154801 M374.4627990189146,615.3157232154798 C383.8766555642713,611.5423405137096 393.3393895664784,607.091091626092 402.7367499054044,602.03411156139 M402.7367499054044,602.03411156139 C417.28507680649744,594.2084127619481 431.67059642843765,584.9285506410541 445.5401542020009,574.5470697902771 M445.54019470564083,271.9957158554696 C426.244127743366,259.6137065021511 405.93004635916304,248.03355311488133 385.6035872452122,237.97785361849944 M385.6035872452122,237.97785361849944 C375.44319400065416,232.94870305753767 365.2863167360883,228.29939295441545 355.2798560027158,224.10246554274414 M355.2798560027158,224.10246554274414 C345.273377612464,219.9046821775312 335.41837091046494,216.1600308081497 325.8614091844002,212.91711396831343 M325.8614091844002,212.91711396831343 C317.04228336775,209.9237973875684 308.4742396571464,207.35636337924737 300.25614919401335,205.22891943672857 M300.25614919401335,205.22891943672857 C292.0370758460226,203.1005939838148 284.1681789217082,201.41195063636988 276.72066766968527,200.15236100223842 M276.72066766968527,200.15236100223842 C269.27212444734937,198.89205528411026 262.24495315727995,198.06040542926792 255.68132683546364,197.62667923199197 M255.68132683546364,197.62667923199197 C249.1167304836615,197.19244446063334 243.01542856631374,197.15564583016968 237.39229230886409,197.4712577317494 M237.39229230886409,197.4712577317494 C226.1223795847728,198.1023310042388 216.7876987487246,200.14849144398787 209.2396448415544,203.17663880565803 M209.2396448415544,203.176638805658 C207.03462740374894,204.0628549901471 204.97645957411785,205.02739445544873 203.06514135266113,206.07025720156258 M203.06514135266113,206.07025720156258 C202.03913340623328,206.62846139101438 201.039051681233,207.21690606909794 200.0648961776603,207.8355912358125 M200.0648961776603,207.8355912358125 C196.14752710075746,210.32427541975284 192.66692795560883,213.31088838175302 189.7561547713687,216.8260290826413 M463.57505080238343,447.3715546405412 C463.5756262290731,459.95693491182385 463.2533289877179,472.57432209814067 462.55401442726793,484.8051192304314 M462.55401442726793,484.8051192304314 C461.8562557354977,497.0349707857206 460.7801175656798,508.87163425209025 459.3150204497643,519.8700400000579 M459.3150204497643,519.8700400000579 C457.79217583779877,531.3203700348465 455.84744903996557,541.8554487931481 453.52736720318086,551.0693986205085 M453.52736720318086,551.0693986205085 C451.2088162359181,560.2900572916357 448.5165747787691,568.187839617375 445.54013831368945,574.5470648147598 M445.5401425688501,271.99573639775656 C449.4656507860989,290.8682210212034 452.7555711758858,310.4359679866783 455.3470595150267,329.53787316722986 M455.3470595150267,329.53787316722986 C457.16035458590835,342.88507967736103 458.73529768899255,356.7417398505197 459.99586322396704,370.7125912943338 M459.99586322396704,370.7125912943338 C461.257891923706,384.681319848557 462.2039514479824,398.757496551287 462.79938224263634,412.48465360221087 M462.79938224263634,412.48465360221087 C463.32070517761105,424.4727435985049 463.5756014755678,436.19021097604536 463.5750508023834,447.3715546405412 M358.45986827914476,155.62979801370878 C370.1916214212927,146.84949794126547 381.8424609571379,139.19006327239012 393.1863881486036,132.64578877524485 M561.3732401349306,114.66586830508992 C562.6720305310919,115.40328735181335 563.9551197764287,116.16800861161873 565.222507870939,116.96003208450607 M565.222507870939,116.96003208450607 C574.0648975548158,122.48275410320615 582.1180023623998,129.34378246545108 589.1697857022318,137.3960401591147 M589.1697857022318,137.3960401591147 C596.2253720126919,145.44467412363437 602.2791260002575,154.68119398540065 607.2255092218202,164.8570435966579 M607.2255092218202,164.8570435966579 C612.7738962561575,176.25930323630791 616.9304214028614,188.83694193937208 619.7006933271592,202.17616290741407 M586.7251524071502,184.06556186829135 C581.3545166095956,186.21824971177995 575.336687114372,188.93764310548974 568.7043654900522,192.24032057007503 M568.7043654900522,192.24032057007503 C562.0739009662516,195.54141315673945 554.828897454788,199.42622728947293 547.0540559449564,203.86696410685818 M547.0540559449564,203.86696410685818 C534.8827742641779,210.81626748603745 521.4026314259388,219.14153839664127 507.1365404332804,228.53157533303943 M507.1365404332804,228.53157533303943 C492.87312313476525,237.91668601883384 477.83604984559895,248.3567919018246 462.6222062054465,259.4022113331213 M462.6222062054465,259.4022113331213 C456.9437995115026,263.524277959788 451.2402615090013,267.7301016046594 445.54016829426627,271.99568056177316 M619.7006791210858,202.17615877068408 C622.5183345772907,196.15585783852652 624.014860840766,191.04045919646268 624.0120019974652,187.08282195466958 M624.0120019974651,187.08282195466964 C624.0127145247831,184.4663333328148 623.3620948308397,182.3536585957666 622.0528503835295,180.7883874362797 M622.0528503835295,180.7883874362797 C620.7451612942162,179.22191849651273 618.7784362826003,178.20345939553107 616.1891339484349,177.74295365870975 M616.1891339484349,177.74295365870972 C615.1642467914395,177.56063805220342 614.0446463523963,177.46462855220852 612.830332631304,177.4549251587245 M612.830332631304,177.4549251587245 C609.6312101694036,177.4280726366794 605.7835159932097,178.00108453091758 601.3918474888952,179.12575305925105 M601.3918474888952,179.12575305925105 C597.0011968310556,180.24919263618196 592.0679297992713,181.92333749864102 586.7251524071502,184.0655618682914 M630.3731071385655,209.4045524388955 Q625.2023989774494,205.70602046330188 619.7006868324821,202.17616604716304" />
    <path class="edge outline hidden" d="M189.04554641456264,101.63698066857421 L265.69781568199903,115.29443445512126 M111.15858338411857,538.7764765029488 L187.81088169362192,552.433935464042 M624.0120029572934,543.0940305516938 L624.0120029572934,656.819503436649 M179.9879970427066,656.819503436649 L179.9879970427066,543.0940406849099 M209.2395804445629,203.1766629763934 L151.4564436789477,226.3414523167541 M374.46280032804816,615.3157237796263 L316.67964285350627,638.4805214220273 M179.9879970427066,187.08282123285795 L179.9879970427066,73.3573603617773 M624.0120029572934,73.3573603617773 L624.0120029572934,187.08282213004503 M594.7603990811151,527.0002090300218 L652.5435563210522,503.8354114816721 M429.5372250997393,114.8611298250068 L487.3203571464935,91.69634237639906 M616.1891237988921,177.74292931300855 L692.8414166158814,191.4003872954775 M538.3021798721327,614.8824285511662 L614.9544535854372,628.5398831298519" />
    <path class="edge sharp visible" d="M16.702800807556567,485.44623340819123 C12.568179389053464,472.2126916440375 9.262972984375734,457.9525098588425 6.848371240929755,442.92861104003657 M6.848371240929755,442.92861104003657 C4.43259179266625,427.9057515838286 2.907531397337551,412.1200837948102 2.3013508109623544,395.86362334204256 M2.3013508109623544,395.86362334204256 C1.6939598203116617,379.60778002606446 2.0054737645987495,362.8820368423172 3.2301089236322653,345.99567981887765 M3.2301089236322653,345.99567981887765 C4.453542822238051,329.1095251618054 6.590033795855762,312.06363355619965 9.600109675820626,295.172947817318 M9.600109675820626,295.172947817318 C12.609035282511135,278.28205712976563 16.49139239009545,261.5472332952756 21.17544802172979,245.27767109522145 M21.17544802172979,245.27767109522145 C25.85844621054896,229.0075040868438 31.34290025224614,213.20344379441826 37.527415614652696,198.15774089514684 M37.527415614652696,198.15774089514684 C43.711008208008636,183.1110407832828 50.59433018518301,168.82352724126855 58.05009632409346,155.5595195226171 M58.05009632409346,155.5595195226171 C65.50511621102397,142.29412964248948 73.5321590570808,130.05305885759984 81.98299142823939,119.06191642903241 M173.62688021972986,520.7723199984906 C178.941059184586,516.8457420502408 184.31601440290723,512.2400002301988 189.67529602433194,506.93178666872257 M189.67529602433194,506.93178666872257 C197.76051809822403,498.92752301220406 205.811148423492,489.3104706236146 213.5220909897796,478.168520903576 M213.5220909897796,478.168520903576 C222.18564967434156,465.6608011242436 230.41393891962048,451.22022487862466 237.77160666614714,435.30575133891216 M237.77160666614714,435.30575133891216 C245.13308056144297,419.4012957205496 251.61703617455197,402.0300250092984 256.8950964943503,383.9341720291906 M256.8950964943503,383.9341720291906 C262.66743978649686,364.17784898295696 266.99245404586287,343.57230346956334 269.7055065570183,323.2318826785765 M269.7055065570183,323.2318826785765 C271.0651946887334,313.0609711720835 272.0279997247002,302.9559912951715 272.602413135018,293.04470112474206 M272.602413135018,293.04470112474206 C273.177450557767,283.1328125252549 273.3642582869492,273.4150992928642 273.18884364715007,264.00251648414064 M273.18884364715007,264.00251648414064 C272.9636241416617,251.86455271595756 272.1355307000428,240.23553274132743 270.79377926785764,229.28915044388742 M624.1530973490107,112.93930215656952 C615.2876565484511,116.49377783307477 605.2241700561501,119.8346995848396 594.1243992735295,122.908453628658 M594.1243992735295,122.908453628658 C583.02580488344,125.98251262416548 570.8913372876658,128.789280017493 557.9157603234639,131.28369409850424 M557.9157603234639,131.28369409850424 C544.9411450058656,133.77846556835567 531.125924408619,135.96078401449046 516.6918359289159,137.79560991584037 M516.6918359289159,137.79560991584037 C502.2584568849228,139.63083365830215 487.20678095408033,141.11849206411415 471.77844209724753,142.23470184845337 M471.77844209724753,142.23470184845337 C440.92380266333856,144.47104409372486 408.55899241043846,145.20650042557153 376.73453255589936,144.39450365719821 M376.73453255589936,144.39450365719821 C344.9075941344423,143.58945037124306 313.6410954238419,141.23745766425662 284.915682114456,137.4875173220906 M284.915682114456,137.4875173220906 C270.5505905600103,135.61442153102522 256.8172366077971,133.39549867111594 243.93607242192633,130.86636779738336 M243.93607242192633,130.86636779738336 C231.05393337487752,128.3375919269086 219.02449299376454,125.49870795217458 208.04086801677153,122.3952896698429 M208.04086801677153,122.3952896698429 C197.056046724623,119.29217415068139 187.1174762151348,115.92464716667246 178.38472828822268,112.3467724718515 M178.38472828822268,112.3467724718515 C169.65060035643637,108.76913845077725 162.12264283977788,104.98129861916777 155.9217313854183,101.04406563057692 M155.9217313854183,101.04406563057692 C149.71930022122854,97.1070033874105 144.84416289001516,93.02070424286264 141.37458014372658,88.85076871079191 M141.37458014372658,88.85076871079191 C137.9033874805559,84.68092855480471 135.83788610427484,80.42761709346844 135.21118996902825,76.15910882100926 M135.21118996902825,76.15910882100926 C134.58284801352238,71.89061789959688 135.39332743451095,67.60709772051396 137.62958488727395,63.377308026732244 M137.62958488727395,63.377308026732244 C139.86421901848135,59.147458176029694 143.52451876167592,54.971501653519695 148.55190912910965,50.91650870505139 M148.5519091291097,50.91650870505141 C152.92778497579764,47.3860157241586 158.33893408934935,43.947331436249556 164.71937369191278,40.642191398411626 M164.71937369191278,40.642191398411626 C171.09897407564586,37.336940889631585 178.4477283143078,34.165321283514366 186.67612498209664,31.165967579280142 M186.67612498209664,31.165967579280142 C203.1266377596934,25.16572042074123 223.11816091212188,19.860846898136213 245.68658867871181,15.507460370697192 M245.68658867871181,15.507460370697192 C268.2462038089192,11.150803298348853 293.3745136902934,7.747217725701428 319.85954255779507,5.460769979304286 M319.85954255779507,5.460769979304286 C346.3399454495771,3.170494635622309 374.1674516563144,1.9981493704581024 402.0000000000003,2.000156011163105 M402.0000000000003,2.000156011163105 C429.8325483436864,1.9981493704581066 457.6600545504228,3.1704946356223482 484.1404574422055,5.460769979304316 M484.1404574422055,5.460769979304316 C510.62548630970684,7.747217725701466 535.7537961910813,11.150803298348947 558.3134113212884,15.507460370697244 M558.3134113212884,15.507460370697244 C580.8818390878787,19.860846898136366 600.8733622403059,25.165720420741362 617.3238750179038,31.165967579280235 M617.3238750179038,31.165967579280235 C625.552271685692,34.16532128351445 632.9010259243538,37.3369408896318 639.2806263080872,40.642191398411754 M639.2806263080872,40.642191398411754 C645.661065910651,43.947331436249804 651.0722150242017,47.38601572415879 655.4480908708905,50.91650870505152 M655.4480908708905,50.91650870505153 C661.8030971311937,56.04133922269735 665.9705592087686,61.35961396506152 667.8428975890735,66.73529723388506 M667.8428975890735,66.73529723388506 C669.7194832966312,72.11087818303153 669.3012153117168,77.54333254263616 666.5994392828652,82.89375966348038 M666.5994392828652,82.89375966348038 C663.9017840165167,88.24433530027291 658.9208907110285,93.51234858230403 651.7834863650398,98.5630573069092 M651.7834863650398,98.5630573069092 C644.650076216806,103.61416538308818 635.3604250328704,108.44743378584026 624.1530973490109,112.93930215656958 M653.8979351006591,152.6875135465152 C667.738825383072,147.13410418245732 681.5780953310883,144.9784232264634 694.8778838949888,146.30428930658505 M694.8778838949888,146.30428930658505 C708.179161237834,147.62053457879813 720.9377650956717,152.41797269067916 732.6578055651714,160.51013589031103 M732.6578055651714,160.51013589031103 C744.3807188066717,168.5932000183298 755.0623557236813,179.96911735568597 764.2875493648562,194.1957423867696 M764.2875493648562,194.1957423867696 C773.5167751626204,208.414501495958 781.287323913136,225.48057873849402 787.2972143854761,244.730679027161 M787.2972143854762,244.73067902716113 C791.4318331288772,257.964221217383 794.7370370260371,272.22440280237214 797.1516364950833,287.24830088017444 M797.1516364950833,287.24830088017444 C799.5674136682703,302.27115959644226 801.0924720218345,318.0568261053886 801.698650846306,334.31328485319494 M801.698650846306,334.31328485319494 C802.3060400743062,350.56912646496176 801.9945246473359,367.2948675202793 800.7698883111717,384.1812221273185 M800.7698883111717,384.1812221273185 C799.5464532346572,401.06737436842593 797.409961388703,418.1132632707708 794.3998849457485,435.0039461675354 M794.3998849457485,435.0039461675354 C791.3909587753013,451.8948340130888 787.5086014132416,468.6296548674032 782.8245458186777,484.8992141008624 M782.8245458186777,484.8992141008624 C778.1415476662144,501.16937814244545 772.6570939522662,516.9734354823396 766.4725791712012,532.0191355894937 M766.4725791712012,532.0191355894937 C760.2889871585633,547.0658329087183 753.4056660154603,561.3533438191952 745.9499009086828,574.6173491989634 M745.9499009086828,574.6173491989634 C738.4948820533981,587.882736739365 730.4678404367218,600.1238054778747 722.017009423631,611.1149462613304 M722.017009423631,611.1149462613304 C711.5420653553956,624.7428672323975 700.4156416378545,636.4445473002993 688.9536551802807,645.8879587854773 M688.9536551802807,645.8879587854773 C677.4923464841241,655.335931466317 665.6954750479354,662.5256355644339 653.8979351006594,667.2527568788144 M624.1530973490107,696.4014452314411 C610.3729377295934,701.9280863829048 593.6853499364371,706.9356921008917 574.7336356234371,711.2314204389431 M574.7336356234371,711.2314204389431 C555.7881221077581,715.5290867594981 534.5828581799612,719.1138017351734 511.93540579291096,721.8472544062595 M511.93540579291096,721.8472544062595 C489.2918976117462,724.5830448567531 465.2114359609973,726.4669405538364 440.62240548887223,727.4263467179863 M440.62240548887223,727.4263467179863 C416.0347596246553,728.3882870872369 390.944213874712,728.4255316757876 366.3180537957469,727.5366926837823 M366.3180537957469,727.5366926837823 C341.6906149089013,726.6503881302946 317.5332396386957,724.8382046344682 294.7772857647892,722.1699587919081 M294.7772857647892,722.1699587919081 C272.0174850381376,719.5040586079512 250.66436772749424,715.9826962863895 231.5412055357915,711.741597860725 M231.5412055357915,711.741597860725 C212.41192300613565,707.5024744793502 195.5170167532102,702.5445954588407 181.5077617739414,697.059209949937 M181.5077617739414,697.059209949937 C167.49060671990276,691.5752542155533 156.36225829942742,685.5651373985175 148.55190912910945,679.2603550933749 M655.4480908708905,679.2603550933751 C647.9483500281805,685.3139823625885 637.3915795401541,691.0962029077272 624.1530973490106,696.4014452314412 M653.8979351006591,667.252756878814 C644.2046215462726,671.1398412013104 634.5115681190679,673.3669622308139 625.0046383388542,673.8918720882969 M625.0046383388542,673.8918720882969 C615.4974523526104,674.4190874381536 606.1769209737275,673.2440030301839 597.221726189265,670.3890680397118 M597.221726189265,670.3890680397118 C588.2660321304425,667.5364261945591 579.6761797951173,663.0040740880088 571.6168488312325,656.8787981805582 M571.6168488312325,656.8787981805582 C563.5567930800512,650.7557014680681 556.0277149118533,643.0400258144946 549.1739646712869,633.8796893852827 M549.1739646712869,633.8796893852827 C542.3192916057433,624.7213283814901 536.1403345233044,614.1188300898754 530.7555590996272,602.2755229449331 M530.7555590996272,602.2755229449331 C525.3696984048073,590.4339101438608 520.778323877328,577.3521631520472 517.0694600118361,563.2811335823425 M517.0694600118361,563.2811335823425 C513.3593903331955,549.211453193175 510.5320407351069,534.1532870677291 508.64161362688975,518.3953276980786 M508.64161362688975,518.3953276980786 C506.7499065767077,502.6383222171329 505.79522864953367,486.182411974366 505.79588112561936,469.34304352538953 M505.79588112561936,469.34304352538953 C505.79522864953395,452.5041982211216 506.74990657670736,435.2828427530249 508.64161362688964,418.0090973453814 M508.64161362688964,418.0090973453814 C510.5320407351064,400.7354242856696 513.3593903331954,383.41033526550615 517.0694600118361,366.36598138665363 M517.0694600118361,366.36598138665363 C520.7783238773279,349.32124512862237 525.3696984048074,332.5582087619113 530.7555590996271,316.39830050664426 M530.7555590996271,316.39830050664426 C536.1403345233045,300.2375680602479 542.3192916057434,284.68088253790404 549.1739646712873,270.02655622490863 M549.1739646712873,270.02655622490863 C556.0277149118541,255.37099439254234 563.5567930800516,241.6186263939038 571.616848831233,229.03310815158164 M571.616848831233,229.03310815158164 C579.6761797951169,216.445991836958 588.2660321304433,205.02643592145745 597.2217261892648,194.9932643272598 M597.2217261892648,194.9932643272598 C606.1769209737275,184.9581998977987 615.4974523526091,176.31006511501855 625.0046383388537,169.2145734635477 M625.0046383388537,169.2145734635477 C634.5115681190671,162.11698174152863 644.2046215462728,156.57237028039677 653.8979351006594,152.68751354651516 M234.068043266227,175.12836520324095 C248.60800778556748,177.71786133282626 263.14752810687656,181.96662311928458 277.40791663008525,187.79363440030556 M277.40791663008525,187.79363440030556 C291.6686841286472,193.61847180255887 305.6495037547936,201.02117945567858 319.082324345427,209.85979242559813 M319.082324345427,209.85979242559813 C332.5158939949795,218.69644166900338 345.400702629297,228.96847862704402 357.4897122056155,240.47887086101034 M357.4897122056155,240.47887086101034 C369.5798098088387,251.98757393023556 380.8734250643739,264.7339787984341 391.1540388774803,278.47367889316996 M391.1540388774803,278.47367889316996 C401.4360371438064,292.2120245971771 410.70445343338736,306.9428914665359 418.7816012941714,322.38388475169444 M418.7816012941714,322.38388475169444 C426.8603767915114,337.8239091836655 433.7474276038453,353.97319028804344 439.31072079339083,370.5221573045779 M439.31072079339083,370.5221573045779 C444.87582241536717,387.0705784957232 449.11685187756785,404.017751794104 451.95250097660846,421.038795519518 M451.95250097660846,421.038795519518 C454.79006994779354,438.05973812637245 456.22209799413514,455.1535890361538 456.221127557037,471.9926294897783 M456.221127557037,471.9926294897783 C456.2221147063716,488.832018011048 454.7901031512521,505.415643188968 451.9525439300029,521.4255488970346 M451.9525439300029,521.4255488970346 C449.1169047603142,537.4362387658352 444.87587817296594,552.8723028587845 439.310771026387,567.4377801106255 M439.310771026387,567.4377801106255 C433.7474725554257,582.0044474626837 426.8604081115879,595.6997036313031 418.78161636843174,608.2609691032587 M418.78161636843174,608.2609691032587 C410.7044523680347,620.823784670054 401.4360178607683,632.2518991010296 391.154008290791,642.326212029496 M391.154008290791,642.326212029496 C380.8733829539825,652.4023752133464 369.57976392746906,661.1241676361819 357.4896731546147,668.3243872287935 M357.4896731546147,668.3243872287935 C345.40066991824006,675.5266859276078 332.5158784845695,681.207005370056 319.0823251879534,685.2564606744885 M319.0823251879534,685.2564606744885 C305.6495209677538,689.3081439575622 291.66871431142465,691.728734819642 277.4079424341369,692.4718411203469 M277.4079424341369,692.4718411203469 C263.1475524212688,693.2172387105657 248.60800331781496,692.2851100961816 234.06804326622733,689.6933315551138 M234.06804326622733,689.6933315551138 C219.52808321464,687.1038197218566 204.9885341111863,682.8548044025919 190.728144098318,677.0277407523813 M190.728144098318,677.0277407523813 C176.46737222103047,671.202832314938 162.48656556470118,663.8002044529807 149.0537613445013,654.9617639188983 M149.0537613445013,654.9617639188983 C135.6202080478853,646.1252844313311 122.73541661421508,635.8534911750893 110.64641337783998,624.3432964516934 M110.64641337783998,624.3432964516934 C98.55632260498626,612.8347932926984 87.26270357847253,600.0885386742452 76.98207824166376,586.348891896862 M76.98207824166376,586.348891896862 C66.70006867168676,572.6106021056898 57.43163416442059,557.8796965853862 49.35447016402273,542.4385971760908 M49.35447016402273,542.4385971760908 C41.275678420867266,526.9984678182291 34.388613977029486,510.8490177877546 28.8253155060672,494.29987835772727 M28.8253155060672,494.29987835772727 C23.260208359489116,477.75128450938996 19.01918177214073,460.8039377061495 16.183542602451254,443.7827725758767 M16.183542602451254,443.7827725758767 C13.345983381202585,426.76170739917967 11.91397182608247,409.66778730571997 11.914958975416763,392.8287505534634 M11.914958975416763,392.8287505534634 C11.913988538319662,375.9893642862027 13.346016584660404,359.40581416857935 16.18358555584537,343.39603450473027 M16.18358555584537,343.39603450473027 C19.019234654886287,327.3854695790952 23.260264117087964,311.9495800154539 28.82536573906317,297.38427345212375 M28.82536573906317,297.38427345212375 C34.38865892860902,282.817776631533 41.27570974094201,269.1226845314428 49.35448523828262,256.56151819621243 M49.35448523828262,256.56151819621243 C57.431633099067135,243.9988030022262 66.70004938864834,232.57072073035064 76.98204765497351,222.49634786101703 M76.98204765497351,222.49634786101703 C87.2626614680826,212.42012725335903 98.55627672361456,203.69818323699042 110.64637432683764,196.4977661681504 M110.64637432683764,196.4977661681504 C122.73538390315439,189.29527221798668 135.62019253747513,183.61471520316357 149.05376218702477,179.56509597024657 M149.05376218702477,179.56509597024657 C162.4865827776576,175.51324608490577 176.46740240380652,173.09258005343477 190.72816990236618,172.34954322758475 M190.72816990236618,172.34954322758475 C204.98855842557703,171.60419747570558 219.52807874688304,172.53656936642304 234.0680432662269,175.12836520324092 M217.27484759284982,546.1113019301348 C211.99061125001356,548.2300419493283 207.10691398850108,549.8909656628674 202.7526520479186,551.0139761785464 M202.7526520479186,551.0139761785464 C198.39742256061487,552.1381578645563 194.57291066774198,552.7235295726244 191.38091217021577,552.7227946981837 M184.29933209141433,528.0007107720893 C176.85861182599152,523.2282314942336 169.68247643809283,518.0942242201872 162.85680804402224,512.6092130427128 M162.85680804402224,512.6092130427128 C154.22971909288646,505.6776698209556 146.16229625952832,498.1825154653331 138.82869816495577,490.1798313475851 M138.82869816495577,490.1798313475851 C131.494337204455,482.1785629928106 124.89545407776207,473.6696478981881 119.1848162425515,464.74908228480865 M119.1848162425515,464.74908228480865 C113.47265296381048,455.82987952103315 108.65033549203814,446.49936901803426 104.82788714721899,436.89198083809237 M104.82788714721899,436.89198083809237 C101.00317576199576,427.2856868841881 98.17988000738585,417.4033186302505 96.40462544889905,407.4102189542704 M96.40462544889905,407.4102189542704 C95.00877185037443,399.56199339069184 94.25725714754915,391.64403916881184 94.1409554797375,383.73916462672975 M94.1409554797375,383.73916462672975 C94.02369697040679,375.8340708149352 94.54126270071818,367.9424176438138 95.6576942847453,360.1408110104217 M95.6576942847453,360.1408110104217 C97.88516505398293,344.5336902997625 102.52531185535004,329.30315711320566 109.05672128661413,314.92965714643447 M109.05672128661413,314.92965714643447 C115.96619515270663,299.7046537409483 124.9769866817118,285.44164383352563 135.33299544682987,272.4215725508685 M135.33299544682987,272.4215725508685 C141.98076630296137,264.0588334900726 149.45098581797095,255.8699859607247 157.6522952438986,247.9983322677001 M157.6522952438986,247.9983322677001 C165.85184877960978,240.12567208078585 174.78104602837936,232.5710566229482 184.2993308953691,225.44933493656194 M238.7204212517044,113.56140141136771 C247.09373519095854,112.98618819573703 256.16429183823885,113.59426550020449 265.69781583651996,115.29443553425469 M265.69781583652,115.29443553425472 C277.6663791263947,117.42449838224894 290.3560008473805,121.27483308611826 303.30572866850275,126.50726313038187 M340.45226962084104,276.46964439116624 C340.36032815937915,287.0267946758494 340.4996154888612,298.0327412939727 340.8773004664868,309.2937826638929 M340.8773004664868,309.2937826638929 C341.5382504407255,329.1079553204149 342.94883701225734,349.7095537043113 345.0090468320279,369.9313165965979 M345.0090468320279,369.9313165965979 C346.0376834193274,380.04385621778704 347.2255667985779,390.0633711296309 348.5483297681522,399.8661551868795 M348.5483297681522,399.8661551868795 C349.87095085198644,409.66981077245475 351.3282084194761,419.2563618538699 352.8917541721167,428.526680634601 M352.8917541721167,428.526680634601 C354.62966802855277,438.83230699315243 356.49882010010185,448.7478079294984 358.4598652092749,458.18116506510427 M358.4598700564726,458.1811531659307 C340.3366762482023,471.74567611914426 322.16766059736506,484.7022113835115 304.922217994828,496.28594388624333 M304.922217994828,496.28594388624333 C296.30010532385654,502.07881846342434 287.91149779594605,507.5291260553254 279.8766640286651,512.5566532439984 M279.8766640286651,512.5566532439984 C271.8412456436934,517.5850071573552 264.1606416721413,522.1897956603522 256.9388333767664,526.313955753493 M256.9388333767664,526.313955753493 C249.16549097182713,530.7536887789887 241.92186659806518,534.6376414490888 235.2925987659855,537.9380547808944 M235.2925987659855,537.9380547808944 C228.66147549978749,541.2400512508411 222.64466435546234,543.9589422034122 217.27484759284974,546.1113019301349 M586.7251524071503,106.27060945830857 C593.0055020232862,103.75317766162476 598.7964652733586,101.01293521818572 603.8438953124054,98.06764101631705 M603.8438953124054,98.06764101631705 C608.8915761130675,95.12320665119061 613.1930397076183,91.97351879954535 616.5011633310039,88.6604116207167 M616.5011633310039,88.6604116207167 C620.4737594529158,84.68634820217369 623.0072121733647,80.47589752147105 623.766705980367,76.1460748392599 M623.766705980367,76.1460748392599 C623.9298872325722,75.22109443054052 624.0116611776723,74.29152149888795 624.0120278156653,73.35735604430214 M624.0120278156652,73.35735604430214 C624.0164083377837,68.9126744646374 622.127156858917,64.37805514614985 618.2423393977718,59.91813142262785 M618.2423393977718,59.91813142262785 C614.3668754466182,55.458275132270245 608.4942068568357,51.07522344533293 600.7859101087365,46.935656956712606 M600.7859101087365,46.935656956712606 C596.1385334622331,44.4377689936164 590.8286290276494,42.02786650373876 584.9356965288216,39.73778681300696 M584.9356965288216,39.73778681300696 C579.0436565244701,37.447456551125455 572.5691654089632,35.27704273064902 565.616730729372,33.2513446954313 M565.616730729372,33.2513446954313 C551.715558437987,29.19725103617259 535.8927906608941,25.732564189685426 519.1636855348386,22.95753016969404 M519.1636855348386,22.95753016969404 C503.5984969853491,20.371605002762468 487.26458041505424,18.37958215878214 470.9553614687078,16.956696712506442 M470.9553614687078,16.956696712506442 C461.74505422039783,16.152293683359567 452.54019923967115,15.52717957332349 443.45847963729784,15.065896853349638 M443.45847963729784,15.065896853349638 C434.3759550555653,14.604434764792522 425.4164364351131,14.3066039459807 416.6748616510041,14.15192083949711 M416.6748616510041,14.15192083949711 C412.4544083141452,14.076679267730594 408.1615801721247,14.034072940615085 403.796377224944,14.024101858150628 M403.796377224944,14.024101858150628 C389.78211795415547,13.99330947380091 375.15255332999516,14.318627766623619 360.29506794734596,15.078447579888056 M360.29506794734596,15.078447579888056 C343.42966617757844,15.939201850625077 326.27197352948394,17.364493467808728 309.5987501920593,19.405438247635573 M309.5987501920593,19.405438247635573 C291.68219285621825,21.594585670169433 274.3417235386492,24.49896216458522 258.63219622059427,28.052833387275854 M258.63219622059427,28.052833387275854 C250.77622094413712,29.828368053336263 243.32676160335276,31.763576567170894 236.39911112833548,33.83731597620478 M236.39911112833548,33.83731597620478 C229.47069078896737,35.91077708069439 223.06469473626078,38.122695056708885 217.2748518594807,40.44411202544747 M217.2748518594807,40.44411202544747 C211.4839173208393,42.765334488243475 206.30815650983303,45.196448596611454 201.81153566392663,47.70319353623662 M201.81153566392663,47.70319353623662 C197.31365749765112,50.20985558846828 193.49493826188458,52.79196817532309 190.38405884629995,55.41295631656295 M190.38405884629995,55.41295631656295 C187.27194485575487,58.033943454870986 184.8675546729073,60.69363707049531 183.16492071107714,63.355440782201896 M183.16492071107714,63.355440782201896 C181.46113819058246,66.01732011626706 180.45886090072753,68.68115168891082 180.1198812347657,71.31246322603641 M180.1198812347657,71.31246322603641 C180.03179283453352,71.99651975649454 179.98783142949125,72.67815194569317 179.98799701963893,73.35735979363228 M179.98799701963893,73.35735979363228 C179.9856950075331,77.54127143833807 181.65205420204867,81.61876685991172 184.67377174248264,85.48360736901684 M184.67377174248264,85.48360736901684 C186.7111364138188,88.09212846052601 189.36161512827272,90.60483090930573 192.50688461844305,93.00053982153419 M192.50688461844305,93.00053982153419 C194.00444574191394,94.1396434262321 195.60181405534925,95.24865338455909 197.2989895587496,96.32756969651555 M197.2989895587496,96.32756969651555 C199.15040515968178,97.50427102816793 201.10351211425322,98.64477032822272 203.1583104224639,99.74906759667984 M203.1583104224639,99.74906759667984 C207.05460404863172,101.84608987569534 211.52923613844249,103.94187906920183 216.6163230235955,106.00507313880175 M216.6163230235955,106.00507313880175 C221.70248504778888,108.06813989279202 227.40185786737263,110.09857456288623 233.72256078432034,112.0613961123918 M233.72256078432034,112.0613961123918 C239.31897139234434,113.79951059898968 245.40236118687193,115.48445422993447 251.95649031613704,117.09054051047073 M251.95649031613704,117.09054051047073 C258.5098096675675,118.69663716865382 265.533993670324,120.2237577821855 272.9901280391725,121.64650622310518 M272.9901280391725,121.64650622310518 C281.0028169273483,123.17573700336128 289.51581124996403,124.58435861770947 298.45031060987253,125.84327091344909 M298.45031060987253,125.84327091344909 C307.3838852424631,127.10237979107129 316.7386514428133,128.2116297285423 326.4098474139712,129.14743775872176 M326.4098474139712,129.14743775872176 C345.7468938334321,131.02176325511365 366.36683967501926,132.19123599944382 387.19984691868194,132.56057171174515 M387.19984691868194,132.56057171174515 C406.2759206600022,132.90308974644708 425.51481703191155,132.57632557376044 444.06094008199995,131.6179860727274 M444.06094008199995,131.6179860727274 C462.6132245646943,130.6629483912128 480.46211109706593,129.07843604004813 496.9266537994605,126.99521964441381 M496.9266537994605,126.99521964441381 C511.58904512503307,125.14253406687659 525.1568530551215,122.89812037085557 537.3547010810022,120.38958431157808 M537.3547010810022,120.38958431157808 C547.5252799478668,118.29918934004048 556.7493811648567,116.02658831803515 564.9775635573612,113.64883715646613 M564.9775635573612,113.64883715646613 C573.2088121330993,111.27081715202142 580.4458709261874,108.78823156908298 586.7251524071503,106.27060945830853 M653.8979351006594,623.9062543401176 C660.1777003069277,621.3893653249324 666.6917832388028,617.9405392457334 673.3311146629028,613.4352415817159 M673.3311146629028,613.4352415817159 C679.9690534778375,608.9324217448448 686.7317624842083,603.3707964282229 693.4711793919766,596.6952102711145 M693.4711793919766,596.6952102711145 C701.5563741756363,588.6909169797877 709.6070381996606,579.0738872166139 717.3179337540047,567.9319179923692 M717.3179337540047,567.9319179923692 C725.9814327246837,555.4243478227862 734.2098645403817,540.98353658815 741.5674989073017,525.0691093869114 M741.5674989073017,525.0691093869114 C748.9289602789422,509.16465725266244 755.4128422858366,491.7936275555768 760.6909684654424,473.6975797738663 M760.6909684654424,473.6975797738663 C766.4634051663982,453.94088259346154 770.7882939546257,433.33578674227994 773.5013629145092,412.9953933705956 M773.5013629145092,412.9953933705956 C774.8610502839035,402.82451017891594 775.823866807395,392.7194656701062 776.3982844120032,382.80808756325155 M776.3982844120032,382.80808756325155 C776.9733277595859,372.8961202122795 777.1601261653284,363.1783021531985 776.9847136127842,353.7659184613602 M776.9847136127842,353.7659184613602 C776.8219377896423,345.0074643237027 776.346012133799,336.51215515936997 775.588819701321,328.34916827693627 M775.588819701321,328.34916827693627 C774.8318944377061,320.18544810642015 773.7939445544682,312.3540899972262 772.5143338358007,304.9037391916182 M772.5143338358007,304.9037391916182 C771.0695262556005,296.48945155973496 769.3167996345347,288.5616249752413 767.319005119657,281.1583311230139 M767.319005119657,281.1583311230139 C765.3212471167445,273.7539412340327 763.0788195231451,266.87371105771933 760.6555958209717,260.5250232498429 M760.6555958209717,260.5250232498429 C759.4868781458282,257.4628743460986 758.24126706293,254.43248847417107 756.9144187113801,251.4455234349276 M756.9144187113801,251.4455234349276 C752.6554592037163,241.8548105353454 747.5922935326423,232.8055169855777 741.7085868201476,224.77142571097616 M741.7085868201476,224.77142571097616 C735.0327981075382,215.6467551977071 727.2921346783298,207.843769428783 718.6373718328725,202.0269619484585 M718.6373718328725,202.0269619484585 C710.7158587887214,196.69321926636286 702.0298965869518,193.0330810529341 692.8414166446423,191.40038700623236 M692.8414166446423,191.40038700623234 C686.6562127391305,190.29726942767502 680.2465669932207,190.10840313179747 673.7181084049029,190.87721248182237 M673.7181084049029,190.87721248182237 C667.1901055976166,191.6438508091387 660.5438916275849,193.36862101130865 653.8979351006776,196.0340160852045 M653.8979351006776,196.0340160852045 C648.1074356565804,198.3547504284311 642.3165740791462,201.3886691481527 636.6040933689619,205.08692182896786 M636.6040933689619,205.08692182896786 C630.8913703240719,208.78410070614 625.2573387009683,213.14515095436522 619.7739221181009,218.09112048141347 M619.7739221181009,218.09112048141347 C614.2901310141017,223.0362468882182 608.9572083912202,228.56577091471536 603.8365572658462,234.57709792703793 M603.8365572658462,234.57709792703793 C598.7154262049422,240.58784019115348 593.8067629687715,247.07980471287334 589.1584983684751,253.93398873370228 M589.1584983684751,253.93398873370228 C580.503735523015,266.69004421362877 572.7630720938045,280.6993679464982 566.0872833811928,295.1765772059982 M566.0872833811928,295.1765772059982 C562.209464831103,303.58173486858675 558.6857537493106,312.14485846837937 555.5163383994669,320.7287031132971 M555.5163383994669,320.7287031132971 C552.3654822053829,329.26167288129767 549.5834996262225,337.7610090646658 547.1402743803598,346.12157821312644 M547.1402743803598,346.12157821312644 C544.7170506781871,354.4131673492217 542.4746230845844,363.0913394762327 540.4768650816723,372.0974992199072 M540.4768650816723,372.0974992199072 C538.4790705667936,381.10259220152864 536.7263439457264,390.4357264664601 535.2815363655257,400.008437302969 M535.2815363655257,400.008437302969 C532.7205204202234,416.9573743728313 531.1347623787238,434.67340360881417 530.8111565885357,452.45489432576244 M530.8111565885357,452.45489432576244 C530.4559882151651,471.5601424410919 531.5706930440873,490.72963319865323 534.2945072868029,508.8914753340932 M534.2945072868029,508.8914753340932 C535.6535129731825,517.9723842361824 537.4094742059206,526.8003028667467 539.551734534431,535.2462257490295 M539.551734534431,535.2462257490295 C541.6932897132898,543.6926464435911 544.2211594117892,551.7564289982597 547.104901735864,559.3224959478348 M547.104901735864,559.3224959478348 C549.7451787815023,566.2518284714578 552.6839255372074,572.7648422977664 555.8850479197389,578.7908469451729 M555.8850479197389,578.7908469451729 C559.0858326939593,584.8176365055334 562.5487915953885,590.3572894215476 566.2283712940014,595.3611388895408 M566.2283712940014,595.3611388895408 C569.9077102830116,600.3658148696209 573.8034581343308,604.8346373774972 577.8633154350041,608.7421280631023 M577.8633154350041,608.7421280631023 C581.9230338163103,612.6504505593339 586.1466392768401,615.9974686503707 590.477936447298,618.7810407988911 M590.477936447298,618.7810407988911 C598.3890480602315,623.8695546782077 606.6575962590194,627.0651366046377 614.9544538461936,628.5398830402436 M614.9544538461936,628.5398830402435 C621.5903751036786,629.7230939740921 628.2439854037527,629.8132632955875 634.7748305480297,628.9775178588416 M634.7748305480297,628.9775178588416 C641.3069868336032,628.1430322085141 647.7159357651697,626.385144077658 653.8979351006594,623.9062543401176 M373.1500457319924,597.9874130632121 C368.88838033528145,598.1363404521552 364.6033877403987,598.3207329826705 360.29506794734596,598.5405906547595 M360.29506794734596,598.5405906547595 C343.4296661775784,599.401344925497 326.2719735294842,600.82663654268 309.59875019205924,602.8675813225071 M309.59875019205924,602.8675813225071 C297.47573383833446,604.3500896854105 285.614605049096,606.1565653620619 274.34592235287704,608.2736738431091 M274.34592235287704,608.2736738431091 C263.07628044508556,610.3897423539785 252.4019769808786,612.8163888027905 242.62666440165222,615.5110218949457 M418.79319567337745,465.32423596592184 C418.7937290812341,476.2335270170688 418.07068265574446,487.4209511395475 416.47877116004383,498.67114739615386 M416.47877116004383,498.67114739615386 C414.88851711045703,509.9192197288721 412.42721720149115,521.2288447322278 408.9959946874601,532.3251916001218 M408.9959946874601,532.3251916001218 C404.8833337004037,545.6380064715431 399.36618729667316,558.6405915627545 392.41470542292257,570.7973700040003 M392.41470542292257,570.7973700040003 C384.61382991686577,584.4576692658629 374.9930790775816,597.0379159436068 363.79849079833565,607.8249978059912 M363.79849079833565,607.8249978059912 C358.2041692893806,613.2203930230156 352.22218738041545,618.1704039420996 345.9103353407907,622.6061921388887 M345.9103353407907,622.6061921388887 C339.59904417721515,627.0426667618102 332.95806269409235,630.9646006553733 326.06092335772416,634.3223928332949 M326.06092335772416,634.3223928332949 C322.9812619404947,635.8218457309492 319.8541684722349,637.2078887875189 316.6796429529449,638.480522003003 M316.6796429529449,638.480522003003 C309.7096112404956,641.2751962807536 302.528065474071,643.5136203842261 295.21650024036035,645.1809625854014 M295.21650024036035,645.1809625854014 C287.90500472938265,646.8491096496622 280.46380313662837,647.9462678012742 272.976329952927,648.4801768150276 M272.976329952927,648.4801768150276 C257.99988795998206,649.5541996785307 242.845977514501,648.3528704585004 228.14494595687893,645.1817583471222 M228.14494595687893,645.1817583471222 C212.90336809450056,641.9039356400472 198.15521241922315,636.5214195592214 184.40699895749935,629.6228511930103 M184.40699895749935,629.6228511930103 C176.64147753229273,625.7293189828551 169.18940810939333,621.3567194560524 162.1054202091754,616.6239710730918 M162.1054202091754,616.6239710730918 C155.02049856448053,611.8911197495106 148.30347422932468,606.7987786791568 141.9828318787312,601.462983985141 M141.9828318787312,601.462983985141 C138.93280744902887,598.8905120391643 135.88787335556137,596.1815949064548 132.84802959832848,593.3362325870129 M132.84802959832848,593.3362325870129 C123.09258320756452,584.1994078612008 113.52625138552146,573.6992130681447 104.55247207035887,561.8791535055045 M104.55247207035887,561.8791535055045 C94.36283963264223,548.4664570087135 84.94581782841453,533.3415214584828 76.92736130278598,516.8778023598347 M76.92736130278598,516.8778023598347 C72.618066370923,508.0350410458815 68.71167125866336,498.8117020610613 65.29433858147019,489.3064026698384 M65.29433858147019,489.3064026698384 C61.87633486641236,479.8018174600854 58.947827062235774,470.01569013739794 56.57614657933609,460.06668662106665 M56.57614657933609,460.06668662106665 C54.2036084544097,450.11818091247306 52.38826035270401,440.0073039113616 51.17337756300975,429.86671172734725 M51.17337756300975,429.86671172734725 C49.95748370237896,419.7263603800006 49.34234708183214,409.5568853585325 49.34289085907693,399.49773777289124 M49.34289085907693,399.49773777289124 C49.34234708182912,389.4383964131139 49.95748370237227,379.4881242945456 51.17337756300161,369.78105468483216 M51.17337756300161,369.78105468483216 C52.38826035269403,360.07338394502347 54.203608454398406,350.60940319478897 56.576146579321815,341.5063474671958 M56.576146579321815,341.5063474671958 C58.947827062218614,332.4024883125657 61.8763348663917,323.65992983347377 65.29433858144832,315.37334451405127 M65.29433858144832,315.37334451405127 C68.71167125863948,307.0858058899431 72.61806637090274,299.2545042505791 76.92736130275938,291.9473529569722 M76.92736130275938,291.9473529569722 C80.93692811520043,285.1469628782105 85.29527476548175,278.79907623040424 89.92564571013091,272.9336997622318 M89.92564571013091,272.9336997622318 C94.55593664540197,267.0675337920552 99.45787736748673,261.6837215383178 104.55247207032559,256.79016369356896 M104.55247207032559,256.79016369356896 C110.46766263111529,251.107558900067 116.64182602688443,246.08625118558987 122.95652203407194,241.70546461389586 M122.95652203407194,241.70546461389586 C129.23371397383676,237.35023671607917 135.60955169947957,233.65339148120879 141.98283187869728,230.54457914406973 M141.98283187869728,230.54457914406973 C145.04916301952656,229.04699782396017 148.20703299867014,227.645956007051 151.4564418161274,226.34145369334232 M151.45644181612744,226.34145369334232 C161.6018685155741,222.27251945082824 172.64069417199215,219.20819765322884 184.40699895745996,217.5024927102853 M184.40699895745996,217.5024927102853 C191.28301654296894,216.50468410256008 198.40436663740772,215.97040014634442 205.71542012394667,215.95811186041362 M205.71542012394667,215.95811186041362 C213.0259329275289,215.94526311351933 220.52603095169704,216.45480965650296 228.14494595683811,217.52952960116716 M228.14494595683811,217.52952960116716 C236.33287683296948,218.68368096943598 244.6591571672991,220.4917148149321 253.0186850522659,222.9801308794739 M253.0186850522659,222.9801308794739 C261.37792075219846,225.4674078447029 269.7699337471632,228.63525073020088 278.081417401796,232.4781886365336 M278.081417401796,232.4781886365336 C286.39283857141714,236.31993119123587 294.6232206028816,240.83682507544043 302.6574837336609,245.98985368356074 M302.6574837336609,245.98985368356074 C310.69193261486794,251.14169040299313 318.52971325534384,256.9295907624526 326.0609233576922,263.2810894125982 M326.0609233576922,263.2810894125982 C339.85908218487106,274.90871541402424 352.6138403167946,288.4450710706891 363.7984907983114,303.22620329447204 M363.7984907983114,303.22620329447204 C374.99307907756423,318.0024579118131 384.61382991684576,334.011043012789 392.414705422908,350.45117117566446 M392.414705422908,350.45117117566446 C399.36618729666185,365.08509852185995 404.88333370039396,380.0537094792999 408.99599468745237,394.8320641946785 M408.99599468745237,394.8320641946785 C412.4272172014883,407.1511214497524 414.88851711045356,419.3378265469579 416.47877116004196,431.1525832426811 M416.47877116004196,431.1525832426811 C418.0706826557439,442.9700544904356 418.7937290812341,454.415134993765 418.79319567337745,465.3242359659219 M614.2438460027196,513.3508343950145 C605.8845309289759,514.2541587693787 597.4423987059208,514.4449596442026 589.032796120598,513.9585122263522 M589.032796120598,513.9585122263522 C580.6228869449141,513.473121147853 572.2459974792022,512.3108581443889 564.0088635208198,510.53664954606916 M564.0088635208198,510.53664954606916 C553.4502640541086,508.2641290512916 543.1224297564107,504.98541350854407 533.2062206861247,500.88771327538586 M430.84995280786165,132.18945170885354 C433.9451357283178,128.63992346482178 437.14093466029817,125.29142580835816 440.4163810270989,122.14505150524681 M440.4163810270989,122.14505150524681 C446.3315683583019,116.46243899681585 452.5057482428813,111.44115143874899 458.82043725053825,107.06035637989825 M458.82043725053825,107.06035637989825 C460.20078405378814,106.10289338330954 461.58544700278856,105.17683123456952 462.9744260975391,104.28216993367796 M619.7006899945231,504.72752346513505 C616.9214279240686,510.6760646488487 612.7467669699779,515.8683836956267 607.1712961071669,520.0941358259415 M607.1712961071669,520.0941358259415 C603.5963913573056,522.8062840319542 599.4480839091044,525.1215012188064 594.7603987317573,527.0002090444384 M594.760398731757,527.0002090444384 C590.626331839373,528.6578735640419 586.0731839398809,529.9760669148711 581.1432826053882,530.9404266828338 M581.1432826053882,530.9404266828338 C576.2139902313853,531.9052925393049 570.9080001392,532.5161665671479 565.2846933246241,532.7728589081926 M565.2846933246241,532.7728589081926 C557.0242044721787,533.1515982341109 548.0752775813328,532.7623742684593 538.6710845320483,531.6612468516712 M417.3581045654829,491.68380880631094 C417.03752272574553,491.52395927121074 416.71694088600884,491.36410973611135 416.3963590462716,491.20426020101127 M416.3963590462716,491.20426020101127 C407.20346025910743,486.6099653648219 397.7031532812355,481.55369163371006 388.00459806912914,476.04195475210133 M388.00459806912914,476.04195475210133 C378.30716482521825,470.5313434369125 368.4120713829391,464.56505590428355 358.4598755100519,458.18116045358323 M586.7251524071501,611.9378001231972 C591.3516960080826,610.0833812023183 595.7249242406891,607.6494146423277 599.7346553720586,604.5666711430052 M599.7346553720586,604.5666711430052 C603.7443701782548,601.4848463436092 607.38972288389,597.7532924496617 610.5600159663127,593.3286194147639 M610.5600159663127,593.3286194147639 C613.7307212895561,588.9052658820285 616.4254034406772,583.788035274031 618.5448489550806,577.9705992607583 M618.5448489550806,577.9705992607583 C620.6651814714132,572.1547925108296 622.2092152525349,565.6382166422223 623.1025142029844,558.4602783544196 M623.1025142029844,558.4602783544196 C623.7042648609252,553.6300867505537 624.0121274262648,548.5004740223108 624.0119916081529,543.0940289829657 M624.0119916081529,543.0940289829657 C624.0148963027007,531.4832286961705 622.5839288427173,518.5862770303643 619.7006823514457,504.72752753821624 M582.9751249515323,613.2987842671208 Q584.9050696041047,612.668011494095 586.7251524071502,611.9378001231972 M184.2993414978804,528.000707095933 C186.28903715526616,537.5754587143749 188.92508341189875,546.4506958029149 192.08945826584608,554.5793565490304 M192.08945826584608,554.5793565490304 C195.25335337900398,562.7097848232905 198.9444422963871,570.0940628710066 203.03126904461496,576.7346200582899 M203.03126904461496,576.7346200582899 C207.21778366698842,583.5384432082831 212.09430820308688,590.0116807625387 217.7283538650846,595.9631133612745 M217.7283538650846,595.9631133612745 C223.36094977330384,601.9138854763268 229.7526623949966,607.3413739764568 236.9304125310611,612.0358630947429 M236.9304125310611,612.0358630947429 C242.56290777378564,615.7205157241049 248.67969444339772,618.9530373964352 255.26626571993117,621.6333713182884 M255.26626571993117,621.6333713182884 C261.85184462247605,624.3142076871945 268.9074724978799,626.4419881867938 276.39070993593964,627.9307556230403 M276.39070993593964,627.9307556230403 C283.8728885886994,629.4204202036367 291.78269579310916,630.2702557979077 300.04790003200304,630.4194563355222 M300.04790003200304,630.4194563355222 C308.31209409472814,630.5699242479762 316.931458803987,630.0189933766586 325.8053315913148,628.7413752286544 M325.8053315913148,628.7413752286544 C330.8079413982363,628.0219186042063 335.88136590003455,627.07301818824 341.0256050967086,625.8946739807548 M189.7561547713687,216.8260290826413 C187.6124862486932,219.4139186671279 185.77778167013105,222.28781078808854 184.29933876906375,225.44934545821963 M393.18638814860367,132.64578877524485 Q400.4454132866212,128.46071870712223 407.5182107174361,124.87133539577198 M407.5182107174361,124.87133539577198 Q412.02042961943073,122.58534510846121 416.4340586549663,120.53442820502823 M416.4340586549663,120.53442820502823 Q422.90007785187083,117.52529851946898 429.53730351653826,114.86109995464354 M429.5373035165384,114.86109995464354 C444.5993242566495,108.82069228893639 460.29851947482797,104.21448049510579 476.08583835280945,101.7517412304897 M476.08583835280945,101.7517412304897 C491.11350116034095,99.401265523979 506.2149032001619,99.01373800334103 520.682620559589,101.06856047242219 M520.682620559589,101.06856047242219 C527.9152540454927,102.0929341988821 534.9863127566033,103.7230828723122 541.7996854615288,105.98579836957204 M541.7996854615288,105.98579836957204 C548.6132048791623,108.24742212689229 555.1684136878808,111.14205574470309 561.3732401349305,114.6658683050899 M709.8752540119169,348.6318073509475 C709.8779580215759,337.49894210899043 708.6148190898249,326.24070691878427 706.0313204224315,315.13644441841393 M706.0313204224315,315.13644441841393 C703.0535207986733,302.3020613916492 698.3055311554434,289.68130068743085 691.9627277792608,277.6808923634185 M691.9627277792608,277.6808923634185 C685.6273701779546,265.6759255117735 677.7053608102701,254.29561126758742 668.5826743032832,243.81665299769327 M668.5826743032832,243.81665299769327 C661.8411032189781,236.0673296022188 654.1765393238585,228.49353748843058 645.6053780896884,221.2459545882367 M645.6053780896884,221.2459545882367 C640.8070985627269,217.1880048975496 635.7259050914062,213.23231495409726 630.3731071385654,209.4045524388955 M619.7006875319153,504.7275201743366 C634.5652701873394,493.6085260322282 648.0123203949709,481.40925170779224 659.5957350302424,468.4876306277831 M659.5957350302424,468.4876306277831 C671.1867692268286,455.57023617886307 680.9059312961543,441.9348972420574 688.5210295194593,428.06005995000623 M688.5210295194593,428.06005995000623 C695.8649943358263,414.69693263780607 701.2595075609171,401.11762407176167 704.7571707921961,387.75194437858033 M704.7571707921961,387.75194437858033 C708.2626555682439,374.3828094994695 709.8781469985515,361.2317415132317 709.8752540119169,348.63180735094727" />
    <path class="edge outline visible" d="M148.55190912910942,679.2603550933748 C133.12566958422863,666.8164726348829 118.61806922665727,653.2341187935968 105.18610828329713,638.6601261284 M105.18610828329713,638.6601261284 C91.75331102507016,624.0869029858777 79.39635219155221,608.5223335587656 68.24881519337397,592.1347970408452 M68.24881519337397,592.1347970408452 C57.10034859415797,575.7478929177922 47.16150284077931,558.5383142432522 38.53983251481559,540.6921472673228 M38.53983251481559,540.6921472673228 C29.917139301643456,522.8464755584549 22.611820526384022,504.3645080875184 16.702789928780938,485.44619858234915 M81.98299187105897,119.06191585303853 C101.37971098578504,93.82566698625358 123.77648816427029,70.89848771857478 148.55190912910948,50.91650870505153 M655.4480908708906,50.91650870505157 C670.8743314299331,63.36039198148979 685.3819326806075,76.94274679070286 698.8138943657448,91.51674054410795 M698.8138943657448,91.51674054410795 C712.2466923659779,106.08996477464372 724.6036517901184,121.65453540995186 735.7511892036562,138.0420732211037 M735.7511892036562,138.0420732211037 C746.8996562184876,154.42897863723942 756.8385022121586,171.6385586897988 765.4601725863779,189.4847270893973 M765.4601725863779,189.4847270893973 C774.0828658480899,207.33040022183295 781.3881844797935,225.81236916188882 787.2972147329807,244.73068013961648 M722.0170072845503,611.1149490437222 C702.620288364522,636.3511974776666 680.2235114761455,659.2783763696578 655.4480908708907,679.2603550933746" />
  </g>
</svg>
