<?xml version='1.0' ?>
<svg xmlns="http://www.w3.org/2000/svg" xmlns:xlink="http://www.w3.org/1999/xlink" version="1.1" width="803.9999109457576" height="353.18923517848">
  <style type="text/css">
.edge {
  fill: None;
}
.edge.visible {
  stroke: #000000;
}
.edge.hidden {
  stroke: #C8C8FF;
}
@media (prefers-color-scheme: dark) {
    .edge.visible {
      stroke: #FFFFFF;
    }
    .edge.hidden {
      stroke: #A00000;
    }
}
</style>
  <g>
    <path class="edge sharp hidden" d="M357.6189073980847,25.67203959505502 L357.49966821827064,25.71900772481785 M543.0025949377828,230.75334720844802 C533.4103076599811,229.04412811749597 523.8218560861214,226.7978806281385 514.2969066166365,223.92427422311377 C504.77315486205765,221.05098951535504 495.3130526147951,217.54891001674358 486.0098438688649,213.33634515958636 C476.70315659148525,209.12296040191404 467.5542584163384,204.1959392688874 458.6927032589922,198.51048846101037 C453.1877024208426,194.97915737554405 447.7945402587269,191.15621439112837 442.5486923004231,187.0438347203895 C436.4431737433149,182.25820755494138 430.5374513008423,177.07961202767376 424.8875570581246,171.53268115126366 C419.2373941522438,165.98650373202597 413.84312758609434,160.07188095573028 408.75326686567115,153.83454260855942 C401.7606638646157,145.26785849947092 395.34441268240823,136.09155875599814 389.5919605700715,126.4649392149752 C384.3287948791881,117.65909513596304 379.6187266467864,108.47818968918179 375.50654946877273,99.05542055000339 C372.30166256686033,91.71121493300527 369.45833293871664,84.21966363914672 367.0053451415712,76.64719353227943 C364.46016137015556,68.78525643530885 362.33011511539667,60.83195784486791 360.6985060630788,52.89039300700986 C360.0487152110703,49.73227731978586 359.48536438928653,46.58301355880072 359.00845359772717,43.442601724054455 C358.55366430212433,40.433861921993646 358.1836853678584,37.43826843607429 357.9207172692614,34.47741748538362 C357.65790907849373,31.50745497798415 357.50045423406664,28.568890434441773 357.4996682182706,25.719007724817857 M416.6816557783824,4.868806139936169 C416.3807556051327,7.5722241408789115 416.20775458082073,10.35338399406767 416.1254620724817,13.164976600639871 C416.0439327482839,15.977673662685765 416.054632715654,18.822079241213874 416.1402164459531,21.680615411495484 C416.3569376853201,28.81834908350353 417.03074267113595,36.03156336366884 418.06137589453533,43.20711105565668 C419.8436705935193,55.568650336551904 422.69089362463495,67.83188540492073 426.48590153776155,79.71594776908583 C429.7391716638156,89.89733058284179 433.6988390856082,99.80519318596167 438.33063935686744,109.28128167458787 C443.3712550448556,119.59704047229029 449.21221899716073,129.39844334377935 455.7708713512053,138.49915299423623 C460.26922994706416,144.74321351044068 465.10391014550663,150.65812832143394 470.2314098406838,156.1998657105765 C475.35857060982033,161.74234344479447 480.7784642389309,166.9117583504466 486.4380987001018,171.68480827191757 C491.2892871505838,175.77666779422034 496.316379032629,179.57795200835952 501.48474268205183,183.0870278207645 C509.7628580679632,188.7084725443378 518.4013388738193,193.57761423708706 527.2702432527545,197.7391118282932 C536.1135509272,201.88936625044866 545.1849882393906,205.33851536429026 554.3863108121997,208.16603499198325 C563.588739487176,210.9938722252134 572.920771682155,213.20145208877713 582.3152027644693,214.8768022575047 M729.0977165794505,91.86097295830781 L728.9765237926885,91.90658489984529 M716.5211105043052,92.48601405920557 C717.3914461590045,92.14633189936438 718.6159097167048,91.87127387422225 720.0297143811677,91.69765743132498 C720.9433887526002,91.58495924670945 721.9339813855887,91.51415119658253 722.9445423847637,91.48909998656308 C725.0483407826056,91.43509642075428 727.2305824229378,91.58654602713167 728.9765237926883,91.90658489984529 M654.5406203921215,121.57977762185466 L654.4984675539611,121.5971432268911 M642.2570796184907,122.25785974515371 C643.117205837737,121.91771018631326 644.3229951921167,121.63886436105093 645.7158316272735,121.45840412239514 C646.6300568188545,121.33947669425206 647.6227628528438,121.26253572572355 648.6364641819987,121.23217082918273 C650.6685343947865,121.16958396028124 652.778181848546,121.30070142889329 654.4984675539612,121.5971432268911 M541.0839763228201,164.46196942444047 L539.7335273199999,164.87796052522813 M527.7666986695497,164.9308385616706 C528.9950897897578,164.60717509160028 530.9455432042723,164.41223896304223 533.1125366509881,164.39837154113147 C535.3380994719238,164.38062083683954 537.7658008658584,164.55572284873108 539.7335273199997,164.8779605252282 M150.6538908278037,95.5540226240689 C151.56450773709145,95.73129281511207 152.342706392038,95.9392288909188 152.9329672739636,96.16281963696451 C153.63938134154566,96.4296996176181 154.07524107808266,96.71866010381723 154.19652897814507,96.99993750181766 M152.06033137610893,95.22674612018734 L150.65389082780382,95.5540226240689 M283.44857494987286,55.485639820997534 C284.29380229558603,55.64209017137803 285.0363130871581,55.83762831321937 285.6326161265238,56.06074374184732 C286.69903400865746,56.45777158987182 287.2863431446021,56.94323990106686 287.28870759678836,57.42908675873061 M283.4917863770256,55.46906859445521 L283.44857494987286,55.48563982099758 M357.4996682182706,25.7190077248178 C358.5305717976804,25.89840079540585 359.41973861288295,26.133259115894486 360.09313093855053,26.40416097679882 C361.02911471405525,26.778905967142432 361.54243185799083,27.222790751124826 361.5525399197995,27.66722287528755 M784.4774604841681,68.75356818553225 C784.7329788798354,68.54447090168858 785.148955463721,68.34993018477758 785.7024448524776,68.18062983020374 M543.2383295301245,230.7952424126112 L543.0025949377828,230.75334720844802 M579.0162688146568,234.48389870834777 C567.5382003161872,234.22557032715517 555.5714187949862,232.98251652169395 543.2383295301244,230.79524241261117 M618.9519128334922,218.6011145050766 C607.3878193895806,223.47565933024032 593.7543590817293,228.7582753180368 579.0162688146572,234.48389870834785 M582.8461238705788,214.97092104961754 C595.1734126921592,217.1442563868253 607.2480488405431,218.36777244700403 618.9519128334919,218.60111450507648 M582.3152027644693,214.8768022575047 L582.8461238705787,214.97092104961752 M728.9765237926883,91.90658489984529 C728.9747852968312,95.39798173544033 728.7410351244699,98.94129236239964 728.3596435516071,102.4722320584216 C727.9761849295926,106.00490828344091 727.4405893345677,109.52699841081355 726.7848339568657,113.02100262946414 C725.6914625498081,118.83741480524075 724.2668219182023,124.57121878409131 722.5704427105891,130.17727082749155 C719.540780596643,140.17625054077558 715.646266924618,149.7727585765636 710.9929394029607,158.78772187787058 C706.8377550368278,166.83481618377067 702.0701485345371,174.4190515862869 696.7361561306402,181.41778694135604 C690.9475592499654,189.0152444870664 684.4887941993744,195.91972125753367 677.4486344175432,202.0008017293198 C668.9284614706668,209.3665512030583 659.5553733220253,215.51568809670232 649.5682344912051,220.35386697632197 C645.8305532187998,222.16464853703755 642.0146441799972,223.7951566546588 638.1205073747956,225.24539132918554 M638.1205073747957,225.2453913291855 C631.0970880725247,227.8636544460857 623.8421909714292,229.89582007641926 616.4332247736393,231.3772267096179 C604.279391022389,233.8090807330648 591.7198182845642,234.7578349103871 579.0162688146568,234.48389870834777 M618.9519128334919,218.60111450507648 C631.5412014411987,218.82453595873213 644.1224824668165,217.85394752018928 656.474805680471,215.44319416957921 C667.2497125334905,213.3429798501244 677.8461302075101,210.14168295234612 688.0556310457986,205.7582334073855 M569.085677976265,238.3414763008619 C558.910507783804,242.2985148430798 548.3169310600647,246.44702014308447 537.5240362846675,250.75857536202838 C526.7295499030866,255.0692497664081 515.7357454698464,259.5429740897268 504.71714649141893,264.12666868533745 M654.4984675539612,121.5971432268911 C654.4970997783986,124.8539603019395 654.2907800547398,128.15822515512812 653.9516125117284,131.45398893923655 C653.6107444252365,134.7512320508059 653.133459157681,138.04146646482565 652.5484067300969,141.3086722162133 C651.4984880699001,147.1615167185184 650.1055162472559,152.9354639238791 648.4358024961408,158.58226581800156 C645.2851585577583,169.2201503180867 641.1530702871413,179.41175825336708 636.1709435788755,188.9437517262386 C632.0533865847863,196.81823441059151 627.3470134753586,204.24326897836042 622.0962315969285,211.10381341180135 C616.4070261557806,218.53923423045885 610.0759097544503,225.30889321545774 603.1865250007071,231.2909784220713 C598.2315135985056,235.59501170736414 592.9883496786206,239.4924758536515 587.5017550268218,242.95650547561468 C582.0153673327449,246.4213108012293 576.2856369477486,249.4528572671691 570.3630804762865,252.04599908202192 M570.3630804762867,252.04599908202192 C561.3083104288062,256.0126746779444 551.8066546460726,258.94950898223476 542.0362113386626,260.9260942269971 C529.9156991749876,263.38085589044243 517.3894899756299,264.3624123633863 504.7171464914188,264.12666868533734 M569.0856779762648,238.3414763008619 C581.725375293582,238.58392446245827 594.2201834743078,237.61503494620123 606.3125252692622,235.1804820965995 C613.7537499566314,233.68339680417674 621.0392975481202,231.63167582387678 628.0911417581798,228.989975957377 M469.3410681297355,260.5553804882139 L468.9742824174532,260.48976766826 M504.71714649141876,264.1266686853374 C493.3940048006909,263.93849148389586 481.5582939937538,262.73322097129414 469.34106812973545,260.555380488214 M494.86005684773033,268.25174434760567 C485.0608296876163,272.3770029151627 475.2755524401889,276.5724656406122 465.5879055391939,280.7793337063794 C455.8992650640704,284.9856519159251 446.3082549353802,289.2033754657896 436.8707355112686,293.3583095641829 C427.43222251302853,297.51269380635495 418.1472002193686,301.60428859705587 409.04370891283344,305.54350317028224 C399.93922403217016,309.4821678872863 391.01627013863265,313.2684523868156 382.27506743916723,316.79736992864963 M382.3329185108516,316.80707204893497 L382.27506743916723,316.79736992864946 M539.7335273199998,164.87796052522813 C539.732575905439,168.6837158902692 539.578545733963,172.514086868334 539.3089168927452,176.3362475113907 C539.0384301306442,180.1591227111195 538.6506475355999,183.9744950062527 538.16072983372,187.76892683562167 C536.968658983936,196.97908076532767 535.1841959672877,206.06050497869754 532.8603653057752,214.8899096642872 C530.6315420901284,223.34936666384334 527.9008211418385,231.58121974487563 524.6573298683287,239.47612887163424 C521.1874284555782,247.92091320502206 517.1273845249364,255.9806814650728 512.4584593599942,263.49373833134683 C509.20076380946915,268.7363622268672 505.64645736865367,273.7115889033943 501.79955984554715,278.35980582856297 C494.41708232129,287.2891889874041 485.9367253559668,294.9950719020064 476.5538505608946,301.137772546139 C474.8060012491017,302.2833081231254 473.02859840493517,303.3748898021793 471.2216420283944,304.4125175833001 M471.2216420283944,304.4125175833001 C461.7369127458262,309.865334549752 451.4634927272338,313.78273207015275 440.7525859936036,316.20251644841755 C434.4129246433182,317.6382812108963 427.9211423550632,318.5577714756836 421.3416064940628,319.0095993679191 C408.55115574223043,319.8887136446173 395.4466588608482,319.0047885005683 382.33291851085147,316.807072048935 M494.86005684773033,268.25174434760567 C507.5217541097031,268.5358844865583 520.0412340618093,267.60489525354393 532.1593104497715,265.2002528256921 C542.6157063658858,263.1281227398288 552.7681547397871,259.9533960666006 562.3948413882915,255.5934247044633 M372.4842905705661,320.66378483981356 C362.9774811086876,324.3264699802467 353.6843215048835,327.62280107275694 344.5516224676606,330.3818583585559 C335.4174467281493,333.1400984190286 326.44373155521976,335.36106467279114 317.535939993307,336.8509550519226 C308.62667172910636,338.34002820572863 299.7833270759221,339.09802548490467 290.8700214141193,338.9082625124011 C281.9552390500281,338.71768231457133 272.97049567731744,337.57934186506185 263.73855901227984,335.25367447769213 M263.7385590122799,335.25367447769213 C253.12944334822706,332.5804307500061 242.19578232916433,328.34080720934907 230.60138761975918,322.1341654482559 M372.48429057056615,320.66378483981345 C385.59689145422664,323.1393819994525 398.72685058932666,324.29996651356424 411.5667287112631,323.66676264729267 C418.14955375280175,323.34243874765434 424.65111073001987,322.54508172775144 431.00475462105163,321.2219922990224 C436.4209111589062,320.0947175230797 441.7293423432257,318.5849807389464 446.8815956072151,316.67663688970123 C452.0339356993395,314.7690639702035 457.0299128570618,312.46245533979476 461.82350534436483,309.76225074675295 M139.98090425024498,98.70056020998777 C139.99697560075913,102.36463643389389 140.1413808709177,106.09625967343976 140.38688912222128,109.85827843602803 C140.63299043433258,113.6210769061469 140.98126833026055,117.4152224395569 141.42010316219154,121.22457344891345 C142.48347767537902,130.4364057579238 144.068654660649,139.73005779947957 146.13629389764063,148.98402172617335 C148.34413231519838,158.85573553728102 151.1067323015616,168.68910261935446 154.4450857137465,178.36077042620244 C158.00677813110556,188.67756588485287 162.22809730229795,198.81307451578317 167.14351930414588,208.57998039135867 C170.4901028012576,215.23008154675594 174.15870282613415,221.70767982685626 178.147457091571,227.94151154518312 C185.68817040451208,239.7374072685949 194.39792525459234,250.6481682125615 204.06104022829186,260.2081600239435 C209.35691573964365,265.4529285133503 214.93280067988337,270.29436755744933 220.72209885602223,274.6910018901615 C226.51123486129111,279.08895441486703 232.51345335931973,283.0428151021912 238.65761824626028,286.5480158158896 C244.80362908105099,290.0551404557325 251.0913472898676,293.11463399916266 257.45964860503904,295.75247716949633 C269.9314711563486,300.9192052538835 282.69503639818964,304.46707849357 295.4588500873388,306.73932993184474 M139.98090424745456,98.7005602094352 Q142.63796955191188,97.7422909986612 145.30693960765166,96.78639176939782 M308.0673867267112,303.7514127942873 C294.9230063242169,301.23488896012526 281.7852942942601,297.4007101384231 268.96197763399897,291.90966865668906 C262.3538317656543,289.08039883531274 255.83391811694744,285.81167282411144 249.4678081860523,282.07802792042764 C243.1017244118851,278.3453112319086 236.88983055183357,274.14633723823124 230.907825931689,269.4875615511396 C224.92561816621705,264.8301535993643 219.17367988007166,259.71220772610064 213.72202306259692,254.17847396871198 C204.42354727517267,244.74840304995783 196.01466388144482,234.10312420205457 188.68493048788324,222.63997613659967 C184.84966305719595,216.64654244772618 181.30443189688887,210.4323210437085 178.05313475427604,204.05729683321772 C173.3811648220048,194.8973188234403 169.3157435416616,185.40767719904935 165.83834502950785,175.74217905389975 C162.5890663208759,166.7096044593811 159.8503685088752,157.52196936833298 157.6116583315328,148.28396561981904 C155.25419174100983,138.54643045716557 153.4446964460904,128.74606442532973 152.23771678990204,119.02815175155806 C151.74548809763562,115.05564181377643 151.35558895748832,111.09842079689997 151.08324331713845,107.17533783399949 C150.81175402401365,103.25328156115184 150.65613281822223,99.36405292636641 150.65389082780376,95.55402262406886 M310.68937167010023,304.2359693184939 Q309.37767348355703,304.0022828281942 308.0673867267114,303.75141279428726 M273.25287760667663,59.37709294287981 C273.2566568128228,62.77670477410556 273.4789102120594,66.29656210231094 273.84078496113926,69.8528770824134 C274.2045717698298,73.41136811528227 274.7121360556308,77.00922472744242 275.3331922833467,80.62038147954229 C276.48774230651543,87.32150559230577 278.0294315378338,94.06127214487856 279.8834856242343,100.759662894574 C282.85499870849094,111.48222961438871 286.63090790301607,122.10515370713661 291.11648520230807,132.4369138323538 C295.2718460442665,142.00550851578106 300.04310760116897,151.32715309489706 305.3838666280922,160.2625798852339 C311.18258902323817,169.96643626738324 317.65586624498076,179.2126189791462 324.7141271055835,187.83782198605985 C329.7844537941828,194.03549868815497 335.1556368795193,199.91304635549656 340.779823948987,205.425489507413 C346.4037479051789,210.93867292426614 352.28060836619005,216.0868606910754 358.35518572497404,220.8458046525207 C363.60188173008385,224.95674477690906 368.9958957122554,228.77795095406958 374.50171466294535,232.30724244153566 C383.3190298796194,237.96019619775723 392.42068358926974,242.86176715160028 401.6789133804492,247.05603426307945 C410.9758243252511,251.26857519115967 420.42981253567746,254.77045742103346 429.9475561663532,257.64327421389385 C439.46649767071136,260.51641593593894 449.0490460614448,262.7619328108569 458.6354616103256,264.47014731627604 M273.2528776067284,59.37709294288949 Q275.81442914859275,58.40042680614668 278.36332827804574,57.4213958068739 M273.18093139801533,59.36352252539834 L273.25287760667663,59.377092942879784 M468.97428241745314,260.48976766826 C459.3752803587632,258.76565008377685 449.7806787016918,256.5040288631461 440.2503043862686,253.61491819665997 C430.72112362496017,250.72613595219187 421.25631906640893,247.20842992920575 411.9491790676011,242.98064489377043 C402.65326731489284,238.7587143679723 393.51542961828324,233.8258435695697 384.6643826197121,228.13799280873937 C379.13462396929066,224.58506794032354 373.71774902190094,220.73852955656537 368.4495706761707,216.60066996835468 C362.32809351188433,211.7932705674522 356.4076293493112,206.59164512091306 350.744432215113,201.0206868971752 C345.08096498610365,195.45048343287155 339.674830633999,189.51083971561374 334.5747205199745,183.24778225080232 C327.69210101953104,174.79800078083778 321.3683867287463,165.7588219139026 315.6873346974337,156.28171274882973 C310.48528462496853,147.60551058049296 305.81970914287365,138.56388578325846 301.7342405392011,129.28396428648213 C297.42100807839665,119.48469079680802 293.7483056613044,109.41742266682172 290.7946606948999,99.24432125529434 C288.30270000072613,90.64691202026923 286.31194099480217,81.96263074924966 284.9918141371424,73.36902507743692 C284.5352079121679,70.38502344760981 284.16203222728285,67.4137281281621 283.89384758192875,64.47604675318209 C283.61647075171953,61.426418304566354 283.44952782566327,58.40891911015596 283.44857494987286,55.485639820997505 M533.3365407926929,234.69477145582312 L533.5712087921152,234.73669082322772 M347.7558927069804,29.648336157020594 C347.7587870520667,32.44981759475994 347.9134384990068,35.33687330972624 348.1707087535489,38.255875314083596 C348.42904481261195,41.17615618594771 348.79208867631036,44.129920516389966 349.23836379001506,47.097854566565616 C350.36542672509376,54.57038870896152 352.0072992716744,62.11846369006275 354.04008870134936,69.61536388072965 C357.1394245103324,81.02480187483188 361.15582404597075,92.32990516601258 365.9712441556825,103.29934689816335 C370.0817000637885,112.65974135861526 374.78198045779544,121.77894072783853 380.0276224951584,130.52656019457604 C385.7113202282065,140.00670478118502 392.0380978442196,149.048502504377 398.92419986740686,157.50018222309546 C404.0268698321889,163.7646257389653 409.435786368913,169.70526065050797 415.1021967499904,175.2759663078266 C420.76833613932735,180.84742868834405 426.69190332733643,186.04906959264474 432.8165577887494,190.85595653505555 C438.0872921971588,194.99323674035477 443.5067678220426,198.83882654117494 449.0391218767149,202.39044396679526 C457.893686179523,208.07579436194555 467.034980694778,213.00535108991824 476.33416377009013,217.22329636970335 C485.6381491029882,221.44417521122298 495.09940164065347,224.9552933448193 504.6247591802502,227.83780782074712 C514.1513089791464,230.72064943607498 523.74181525362,232.97631999202537 533.3365407926927,234.69477145582312 M347.75589280360566,29.64833617384378 C348.1617212646711,29.481842215823388 348.5848884263286,29.308225776878047 349.02539428857847,29.127486857007803 C349.4657383748769,28.94681479932337 349.9261124996086,28.757917072693875 350.3835863724453,28.57020685176652 C350.83997628654146,28.382941398983718 351.29364976947835,28.196788427806084 351.6913267560244,28.033614517995066 C352.0878331967933,27.870920584387115 352.42852875846256,27.73113051519329 352.6273591638582,27.649550120927017 M347.67162048290896,29.63348341149234 L347.7558927069804,29.6483361570206 M429.2350966006119,4.667359033522189 C428.9683581998039,7.057713607758835 428.7832751857833,9.88041765432478 428.7189848907264,13.046759017000188 C428.65427302853374,16.213910451398995 428.70946212401253,19.726139715107713 428.91232885854157,23.516794472294166 C429.3175335931528,31.099657458534814 430.3133682954605,39.79431524788507 432.0890784546735,49.15295309215294 C433.8644536634654,58.51287360302153 436.4192299081644,68.5386378941385 439.9346624443368,78.81410511020822 C443.4500582876955,89.09050357617741 447.925175886049,99.61655089318491 453.5393312668283,110.00285960120506 C459.15402779884874,120.38981389812007 465.9063342989658,130.63828459224726 473.99118378815837,140.37753911706065 C482.07687158297006,150.1167414552147 491.4953164095918,159.34841061351844 502.46615368540694,167.70037278064984 C513.4373735805045,176.05153232400545 525.9626494713586,183.5244874545098 540.2726474747111,189.72425055694566 C554.5822747106637,195.92308790947135 570.6781326105922,200.84754405951014 588.7803893234575,204.07296016894534 M588.7803893234576,204.07296016894531 C605.8470635541889,207.113780032174 621.5301517159139,208.07996945674995 635.9286392900323,207.37824617554168 M635.9286392900323,207.37824617554168 C662.8742541346045,206.05982542322994 685.3232758039397,198.92568962131244 704.0192997165477,188.45254876846826 C722.7102544869393,177.97481538889733 737.6657636673987,164.135251459967 749.4589074642325,149.27018968503836 C761.2478673627644,134.41090589454572 769.8556303859087,118.50769341662678 775.7401568530963,104.08267035097988 C778.6824682926659,96.87322786725572 780.9437792426969,90.03602857558101 782.582220008928,83.91976257352255 C784.2217724987687,77.80872184058839 785.2338428579449,72.40223742459267 785.7024448524777,68.18062983020374 M76.36244288205592,178.11929363302042 C84.80523750373256,181.59776084016005 94.34079455385375,185.29734725848593 105.0805895445074,189.24451253852533 M495.4299605825967,172.68848516074968 C516.4309961306975,187.55362294040413 542.7039846907767,199.1283801783013 575.419451821275,204.95743109499602 M144.7636118107784,190.30661453712145 C131.99755947531565,190.00621322606403 118.77995698333174,189.65177452662041 105.0805895445074,189.24451253852533 M609.6885599341706,208.37480649252774 C599.126011601148,212.97538862888553 586.3741144787488,217.962351854917 572.4276402246121,223.3874617711181 C558.4731068223077,228.80811165496124 543.3239962882649,234.66690822897382 527.7494241314593,240.890736187635 C512.1667928264864,247.11010411393826 496.1586998987523,253.69450342489026 480.26860470857076,260.44593790895385 C464.37045037022267,267.1929123606595 448.5902937694286,274.1069219854771 433.24593811784354,280.8650896658532 C417.89352331809175,287.6187973138714 402.9769094675497,294.2166630174486 388.58824362921223,300.2109287530152 C374.1915186427078,306.2007344562238 360.3227416684091,311.5869401914226 346.8484036206494,315.79690702902553 C333.3660064247237,320.0024138342707 320.2780481553373,323.03168174192 307.22536357816625,324.1871909163735 C294.16461985282774,325.33824005846793 281.1391498197048,324.6155304673672 267.56413209581035,321.1966614014515 M267.56413209581035,321.1966614014514 C257.4854722149602,318.6570798601498 247.09849424685035,314.62943749652527 236.0838192729156,308.7331278234868 M236.0838192729156,308.7331278234868 C227.63590182919248,304.21081476631343 218.81718767940308,298.5886986366108 209.45638567790013,291.68005581637794 C200.0947383107138,284.7709451603117 190.191003091814,276.5753078137151 179.5502186364193,266.89332075524317 C168.90858881534126,257.21086586093753 157.52990975776828,246.04206125475588 145.19554983978543,233.1739845120079 C132.86034455611917,220.30543993342596 119.56945841204283,205.73762321827735 105.0805895445074,189.24451253852536 M609.6885599341706,208.37480649252774 C636.0540334489983,208.7940217812535 658.559360465672,203.6907354034854 677.6398097108045,195.11381769250943 M677.6398097108045,195.11381769250943 C739.3672353747334,167.3665123943931 765.2500216657635,103.26431481724087 770.0257484865326,72.17905987760508 M575.419451821275,204.95743109499602 C587.506274824814,207.11099064613038 598.9194236902526,208.2035754862922 609.6885599341706,208.37480649252774 M533.5712087921152,234.7366908232277 C545.8315039461243,236.92222139076355 557.7124372050422,238.13837201575302 569.0856779762648,238.3414763008619 M459.07254268281963,264.5476651402059 C471.40047324631126,266.7248487223593 483.3693025015144,267.9723789866309 494.8600568477302,268.25174434760567 M382.27506743916723,316.79736992864946 Q346.49399069806475,310.6128189671377 310.68937167010023,304.23596931849386 M458.63546161032554,264.4701473162761 L459.0725426828197,264.54766514020594 M372.43132937836646,320.65408153695296 L372.48429057056615,320.6637848398135 M372.4313293783665,320.65408153695296 Q335.29471322744223,313.84715950587025 298.16972074469726,307.2224224829762 M295.4588500873389,306.7393299318446 L298.1697207446972,307.22242248297607" />
    <path class="edge outline hidden" d="M586.2311670634142,221.68362857928145 C576.1676480798058,219.8888627499239 566.5007409311554,217.57113928984845 557.2304456174612,214.73045819905462 C547.9631106500177,211.89141799196906 539.0874370264103,208.53561720845823 530.6034247466415,204.66305584852245 C521.1371408531679,200.34309599896181 512.14736646551,195.38200752550975 503.61297027211776,189.74976514227168 C495.0803484361039,184.11761417385387 487.00310479435683,177.81430929564985 479.40979004190024,170.81238483673354 C472.44143422024706,164.3876818640478 465.8816355386927,157.37255677619856 459.8100168812292,149.8088372282446 C453.7389224770498,142.2488914236174 448.15600809696303,134.1403511588862 443.15557571691556,125.63070890226108 C439.4598421275892,119.34514163591427 436.0813650136615,112.84401430031977 433.04360646501084,106.22078862830452 C430.0052091078419,99.59809595959655 427.3075303159509,92.85330495446779 424.9561455407034,86.0948014383518 C420.854942974446,74.31493409257777 417.8120411845207,62.49078956341989 415.74998697020067,51.23009303672915 C414.1757727558308,42.64827830823152 413.1702504147348,34.39450818733123 412.6662693197021,26.7668150232516 C412.1623987305025,19.14101901630986 412.160069387367,12.141299966188901 412.5952248264125,6.118810621973507 M638.1205068833593,225.245390476848 C644.5408089144315,222.85207605504004 651.1634152369711,220.38684595471395 658.0577028856744,217.76690185194172 C664.9509381246892,215.14520402971218 672.1158546898666,212.3687922050366 679.5923621446268,209.30576390918702 C679.6801394841714,209.2697581089446 679.767916823715,209.23375230870207 679.8556941632594,209.1977465084597 M570.3630801127874,252.0459980433426 C582.1558484929817,246.87929359829997 594.7237861049875,241.75719072277556 608.270817352113,236.5183428262998 M471.22164150120284,304.41251749986986 C477.5235287155467,300.79136734366506 483.52531943391443,297.2999210094234 489.2877339875038,293.9671751468578 C495.050743684818,290.6331642926373 500.5743772173544,287.45785391009315 505.93601894060896,284.4348208825962 M636.7997358957042,225.20961015082383 C628.9566921311107,225.59167502374024 620.8254783806111,225.51447082346735 612.39500926373,224.93857973341497 C603.9657148768476,224.36295317890963 595.2371651235836,223.28863973462458 586.2311670634143,221.68362857928122 M19.703831778314907,144.49435710654922 C21.0765237790561,151.68410449289522 22.764680113852602,159.25340717666387 24.77390250240248,166.9917116416009 C26.784006327124832,174.73087465995275 29.115176205600605,182.63903945947325 31.797694070357238,190.5296920195241 C34.950127063635165,199.80885475814142 38.599032324853795,209.06886097272917 42.83041321199225,218.005803256754 C47.072624509311744,226.94844322278237 51.89731143255106,235.56801925824752 57.69372882475727,243.72015905270723 C60.568378311525706,247.75318118213656 63.69406616420604,251.67871469138646 67.22526224270842,255.52096130816403 C70.76074614643649,259.3627236556186 74.70173827598664,263.1211991106016 79.32276759758832,266.80702985977086 C82.14142324220461,269.0526823148718 85.21587635135825,271.2695094519126 88.61314783668054,273.43883770790336 C92.0093364872601,275.6075617180208 95.72834351400843,277.72878684708843 99.80687045576303,279.76692064766684 C107.01518900630897,283.37700162216527 115.38658985897494,286.7161492013617 124.74108856826668,289.5996231406374 C134.08878662778372,292.4886479668634 144.4195825439271,294.92199915316974 155.36307367751533,296.87036128955026 M236.0838192729155,308.73312782348694 C247.49460938443232,314.84014997832 259.20151486684466,320.1997138812999 271.10509572430647,324.5085653201643 C283.0048650288866,328.8197180293821 295.10130970851594,332.0801582744841 307.18826628666096,334.0510674130979 C316.02499378749593,335.5095092765525 324.8657584291897,336.2615309362971 333.58097617103635,336.3279598321505 C342.29739853131457,336.39679555708113 350.88827399174517,335.7800385181207 359.25774782770293,334.56590736924875 C367.62842628209154,333.354183049453 375.7777031120076,331.5450846197458 383.643452908903,329.29422194826236 C391.51040732422945,327.04576610585565 399.0938347065363,324.35554602167355 406.36533896335493,321.4465627780091 C414.1523651509819,318.31622623846533 421.58958405876746,314.90164466298836 428.68873166850244,311.3963308200036 C435.7883886944535,307.8890000983738 442.54997571860065,304.29093642868503 448.99949237679266,300.73917997729546 C455.4495178435859,297.18540696626894 461.5874742406707,293.6779404929901 467.4536078447189,290.2973570539854 C473.3202496497516,286.9147573743522 478.91506995799483,283.6590400484418 484.2925446737014,280.5543268351879 C492.54972879489185,275.7847773572832 500.28958276152485,271.38613255871104 507.8066448799529,267.273585921061 C515.324612999432,263.15872008178167 522.6197477908138,259.32997418107163 530.0119555898632,255.63760405488867 C537.0536143863873,252.1208609266733 544.1635904060479,248.7403809669526 551.5765566554221,245.38885891394065 C558.9845401805705,242.03945543711487 566.6888151416492,238.72426567920388 574.784538266905,235.39530451163046 C582.8784187275215,232.06599825827243 591.3570485585315,228.72817640745683 600.2639898782534,225.32419142862366 C609.1722285929203,221.91739770203378 618.5020800025159,218.44969665963134 628.3334332838243,214.7847958336765 C635.8558294557413,211.9752311389278 643.6567616615087,209.05724051263627 651.8866781099421,205.8404513323774 C660.1045294396254,202.62400093228734 668.7513650119749,199.1087519782303 677.6398097108043,195.1138176925094 M536.7218131395439,241.53152570324443 C520.4891168009748,238.6379118900697 504.9348693798903,234.38092672662904 490.06947465129247,228.66999643395644 C475.2062733772662,222.95749514679633 461.03192479572715,215.79104873040433 447.6182494096869,207.0360955601649 C439.0492812124513,201.44191986140783 430.79716665047084,195.19817939122862 422.9578621602909,188.3243299849736 C415.119871329945,181.4544065732694 407.6946905714002,173.95437422548994 400.8150587965546,165.95361662440553 C395.02582712139434,159.22523656730078 389.6235590935054,152.14657090851054 384.66735914044466,144.85205150593302 C379.7098939327696,137.55824034063568 375.19849423869385,130.04857699860287 371.15683735655796,122.47732398156833 C363.63476636761453,108.39550058119593 357.74830955003955,94.09928348371488 353.4135058005821,80.57427719903262 C351.87922656488695,75.78868063958225 350.5418224959178,71.11960524010111 349.387693066154,66.5890911441999 C348.23379614047315,62.05971758323443 347.2636793327467,57.67011115327096 346.4702522297709,53.47424697612135 C344.881857432055,45.084116551648485 344.0094709995728,37.471099718748896 343.77232110633304,31.206489322664495 M430.6162694053756,4.9134483395866955 C430.3530075355678,7.44221172153388 430.1861035137812,10.382602070002873 430.1410145318704,13.626068243453902 C430.0956907086882,16.870324724967702 430.1721819253825,20.41765703146354 430.38936981822036,24.181642647158526 C430.60632286978733,27.946418570916258 430.963972597499,31.927847803873114 431.4746250820373,36.06163645600303 C431.98504272530465,40.19621541619564 432.64846312539913,44.48315379556133 433.47061680741706,48.880286329830746 C435.56058538729224,60.03471924566301 438.70543586955404,71.83364609595125 442.9799873909581,83.49317124854902 C447.2475306527316,95.15812627384324 452.6447749536464,106.68367960144676 459.05030816080006,117.43797203471128 C462.13256407323274,122.61947217116497 465.4445497055608,127.6273093643535 468.9598703783479,132.41818799233243 C472.4752459650307,137.20985980309158 476.19395659217287,141.78457304864142 480.09114516942134,146.12124122488487 C487.9650292203699,154.88435960396225 496.5470090677191,162.65547062574478 505.7691153269513,169.48410908407124 C514.9963893405306,176.31390300620558 524.8637897659939,182.20122436488455 535.4480443405424,187.2279609405747 C543.5508726129717,191.07266708616459 552.0748111831738,194.40706257033816 561.0532291420789,197.22570600348755 C570.0309091417971,200.0437240350117 579.4630685302195,202.3459900155123 589.3624135410709,204.10955130988125 M599.3856614387403,244.18586343449084 C590.2838201075081,245.23270394976487 580.5403241868026,245.62404518197226 570.0957436729169,245.2251148681956 C559.6556263578306,244.82687131750592 548.5091363258234,243.6341892280186 536.7218131395441,241.53152570324417 M525.0101876457315,273.97049075311344 C515.9217476142118,275.0098488126917 506.1938846160791,275.3958473862488 495.7678017042457,274.9945091143434 C485.34615070230205,274.59385597113817 474.2210453755247,273.4017413146969 462.4577822537387,271.30337138918867 M423.21309112644894,329.7620134940762 C416.35835720370585,330.4682155426079 409.0338843877975,330.71222599373294 401.15314893566915,330.3828447284829 C393.27467726047274,330.05285635223623 384.83681124055687,329.14766782072707 375.81641288696545,327.5390799070838 M250.8744953849437,332.05790612388904 Q257.2731363831449,333.62478443086775 263.73855901227984,335.25367447769213 M301.5523820011601,314.3071484911085 C288.63573310874006,312.00343476795763 276.30910564487226,308.59648554657485 264.470018118237,303.990931181022 C252.6337422024084,299.3810663299058 241.28500622381245,293.57259633462013 230.40005379371215,286.3494579534442 C223.7216539663774,281.9148471719821 217.22405801160124,276.94470956651037 210.9738127508746,271.41894795291455 C204.72520139737998,265.8965198163542 198.723940737935,259.8184676716698 193.0823269965231,253.2580316917435 C187.2288339301679,246.45737508885597 181.76752437152788,239.14095186065845 176.79443985168945,231.49738383083164 C171.818578962056,223.85420180463973 167.33094311122392,215.88387497681808 163.3498354760181,207.78583327282382 C158.20868822654248,197.33240085048647 153.91085976984036,186.6678452856658 150.37506376002716,176.12861860033823 C146.8384402464973,165.58845338507402 144.06384917985648,155.173617049303 141.94683411015512,145.19428277677628 C140.09008928245203,136.43893436016793 138.74094004699563,128.02116286082102 137.8371290119558,120.18939637651643 C136.93315393693817,112.36092324404086 136.47451706233707,105.11845512660774 136.39436787694152,98.80263397320957 M462.4577822537385,271.3033713891883 C446.22508591516885,268.4097575760144 430.6708384940858,264.152772412574 415.80544376548744,258.441842119901 C400.9422424914618,252.72934083274112 386.76789390992036,245.56289441634874 373.35421852388174,236.80794124610955 C364.7852503266458,231.213765547352 356.5331357646659,224.97002507717352 348.6938312744859,218.09617567091829 C340.8558404441402,211.2262522592144 333.4306596855942,203.72621991143393 326.55102791074927,195.72546231035017 C320.7617962355888,188.99708225324508 315.35952820769995,181.9184165944552 310.4033282546395,174.6238971918778 C305.4458630469643,167.33008602658026 300.9344633528886,159.8204226845474 296.89280647075276,152.24916966751292 C289.3707354818014,138.16734626712602 283.48427866422253,123.87112916963066 279.1494749147636,110.34612288493612 C277.6047762318141,105.52803035839628 276.2596235660744,100.8279932637752 275.10016981063654,96.26863834901636 C273.9409532880631,91.7104513334717 272.9679585589085,87.29419384359988 272.17398103646474,83.07519380534403 C270.5844028649596,74.63873952374574 269.7205729486683,66.99393827377953 269.49887708648396,60.72370782698229 M635.9286392900323,207.37824617554162 C628.8017082333865,207.7253619093247 621.3677280966949,207.6580072245117 613.6075596095359,207.12825719071589 C605.8484576938234,206.59868958265838 597.7631674276435,205.60672662561834 589.3624135410706,204.1095513098812 M636.7997358957059,225.20961015082378 C645.8882074892049,224.7662184088524 654.5902792151956,223.70723121762575 662.954754371453,222.07730132038586 M267.56413209581046,321.1966614014515 C247.8811153681556,316.23741335367544 228.6823976695404,311.7328139265269 210.07087195440266,307.6986802638561 C191.2031309229484,303.60835395499686 172.94156798348754,300.00204336694185 155.3630736775154,296.8703612895502 M301.55238200116014,314.3071484911085 L375.8164128869655,327.5390799070838" />
    <path class="edge sharp visible" d="M416.6816557783825,4.868806139936213 C405.7280691002218,8.178439722513042 395.47956305506125,11.605925416825418 385.7059002076965,15.09145012927824 C375.93351812079334,18.577288111653385 366.63597923168635,22.12116511216899 357.61890739808484,25.67203959505502 M788.2607838735828,71.07460563557547 C767.3432448010388,77.87113844112852 747.6997158091311,84.86067187239098 729.0977165794508,91.86097295830785 M716.5211105043077,92.48601405920473 L723.9475135928884,93.80920720080204 M723.9475135928873,93.80920720080248 C699.2449155615495,103.20140957050114 676.3816941507857,112.58132014588611 654.5406203921215,121.57977762185466 M642.2570796184963,122.25785974515159 L649.6834827070785,123.58105288674867 M649.6834827070779,123.5810528867489 C631.1396846621022,131.22125467211436 613.2841718404048,138.56670164036996 595.4374856409274,145.43397056039336 C577.5856229257959,152.30266365718438 559.7425868328851,158.6931787057434 541.0839763228201,164.46196942444044 M527.7666986695501,164.9308385616705 L535.1931017581306,166.25403170326794 M535.1931017581305,166.25403170326814 C512.9529456433982,172.9086134709889 489.45353105299586,178.67773764201615 463.0562628458638,183.40386761288522 C436.64896200573196,188.13275778845383 407.34380754887053,191.81865376386486 373.22129061022434,194.3813046672398 C339.08874103857846,196.94671577531454 300.1388289851473,198.38888181135303 254.17113186088278,198.7048376350649 C208.19340210361787,199.02355366347595 155.19788727551872,198.21605947956027 92.70325106353982,196.35667567461203 M145.30693960765151,96.78639176939791 C136.58222320496557,98.78274578477438 127.86184137506737,100.70717678976222 119.23663691018783,102.57931617357275 C110.61228975884906,104.45166525353986 102.08311997252922,106.27172271232982 93.76397512260101,108.06499143154072 C85.44568758621362,109.85846984690826 77.33742498621793,111.62515952269682 69.57803967312893,113.39643483289164 C61.819511673580614,115.16791983924304 54.40986096093898,116.94399048000074 47.51194466486071,118.76189262153672 C40.61488568232323,120.58000445922936 34.22956111634904,122.43994779770033 28.542832875737062,124.38483999570866 C22.856961948665774,126.32994188987364 17.869687346956535,128.35999264357588 13.791875758549988,130.5239811079613 C9.714921483684186,132.68817926850355 6.547430222121042,134.98631513972887 4.524273440943078,137.4732490651703 C2.5019739733058293,139.96039268676836 1.6240089860537954,142.63633436258255 2.149254725411276,145.5618059285323 M2.149254725411284,145.56180592853232 C2.6697728342163534,148.45649996222022 4.56398818054403,151.59547891194163 8.105766098945615,155.04322226722616 C11.648365586762468,158.4911665757682 16.838527646653162,162.2478752898731 23.973121556797444,166.38345459028426 C31.10853703635717,170.51923484395326 40.18838436617031,175.03388568392782 51.53253676804551,180.00313998216595 C62.87751073933599,184.9725952336614 76.48678978268826,190.39665394341992 92.70325106353982,196.356675674612 M145.30693960765177,96.78639176939784 L152.73334269623194,98.10958491099547 M154.19652897814504,96.99993750181766 Q154.23265694022916,97.08298451960295 154.23289425540597,97.16478983469422 M154.23289425540594,97.16478983469425 C154.23700442129893,97.52268270192585 153.70775932542887,97.85623418372965 152.73334269623246,98.1095849109952 M278.36332827804597,57.42139580687382 C268.50877349780836,61.14506608028064 258.531474712377,64.74346674924192 248.3621340712407,68.19436265875115 C238.196200516115,71.64697278427397 227.83466593831437,74.94856502852113 217.27753033783907,78.09913939149256 C206.72142904539433,81.24908588926176 195.96616756330428,84.24450138393173 185.06680707420057,87.09356854321416 C174.16966728211702,89.94317887790227 163.12842848301946,92.64644087720303 152.06033137610896,95.22674612018733 M278.36332827804733,57.421395806873335 L285.7897313666283,58.74458894847095 M287.28870759678836,57.42908675873061 L287.28875588147883,57.43672222524784 M287.28875588147855,57.436722225247806 C287.2919700381676,57.90068378503666 286.7630276404602,58.36221901403397 285.78973136663075,58.74458894846995 M352.62735916385776,27.649550120927227 C340.66912779012193,32.41483016025713 329.1524607875389,37.176117955047815 317.72567518887377,41.83895260949024 C306.3030349689061,46.5028012103356 294.9702761528562,51.0681966708326 283.4917863770256,55.469068594455216 M352.62735916385884,27.64955012092682 L360.053762252439,28.972743262524318 M361.5525399197995,27.66722287528755 L361.55279415973985,27.6844754149066 M361.5527941597396,27.684475414906586 C361.55614471704604,28.14105789894158 361.02719748240236,28.59535935998326 360.05376225243924,28.972743262524233 M429.23509660061177,4.66735903352216 C428.0636151206889,5.028402763734428 426.2522834506499,5.2767399966555875 424.22168779431405,5.352092828936986 C421.6841227084558,5.451662831111907 418.83762942394884,5.270871257761813 416.6816557783825,4.86880613993614 M785.7024448524776,68.18062983020371 C666.8799954351891,47.009539564643205 548.0575460179004,25.838449299082672 429.2350966006118,4.667359033522165 M788.2607838735825,71.07460563557547 C787.2984104701935,70.90922703791789 786.4579580107307,70.70434912626739 785.8000212919328,70.47492136052853 C784.6982473489827,70.09281451585281 784.1206461443495,69.64229321960754 784.1771316838381,69.21244710412509 M784.1771316838381,69.21244710412509 Q784.2063564712321,68.97549608739519 784.4774604841681,68.75356818553225 M417.4189936476275,9.353647074301307 C406.2654049573261,12.829515600270145 395.32114194770907,16.59529758145577 384.5096956433657,20.587440918743553 C373.69667802127105,24.57789670980898 363.0147457295261,28.794102996230045 352.3418234311429,33.123919390125856 C348.0894920882758,34.85062904202517 343.83400102639365,36.59053211838362 339.575350245497,38.343628619201326 C328.58712183223395,42.862365830821176 317.54523772064414,47.439393075678026 306.3305523236514,51.925311419670514 C295.1187236972398,56.412544224804215 283.73107436908975,60.80523966698719 272.1306326093645,64.99214656629354 C267.6406478120226,66.613943014053 263.12089834011215,68.20376317207405 258.57138419363275,69.76160704035658 C246.7088418073251,73.82388130506384 234.64358064541835,77.65002888016956 222.4618060627043,81.21954739473317 C210.28188963941875,84.79093604546273 197.98774396956944,88.10755681255989 185.7170300078816,91.20131963664994 C169.62767623909923,95.26052946814994 153.57665400954752,98.9359855906273 137.95763003981102,102.37535180948501 C122.34430686837888,105.81650923837475 107.1578068276045,109.02172074800075 92.9466338342904,112.18648226375036 C80.84638551525984,114.88412917095543 69.45536106397518,117.55144900112761 59.29735237661083,120.33996470042524 C49.15013037820142,123.12935116045549 40.235985943414924,126.03906997098943 33.382967416182,129.24621648950404 C28.566305232179296,131.50227919709891 24.785519646350053,133.90715337022203 22.406706237850926,136.51141143234625 C20.141069718380066,138.98759057300867 19.157250833662392,141.64685369604217 19.703832337437348,144.49435860115813 M19.703832337437348,144.49435860115815 C20.109270554417545,146.62679038886105 21.37285897580839,148.8643661582284 23.511925383599532,151.1872620070487 C25.286854600117223,153.11675361641804 27.664049686393298,155.10492675403052 30.604264515749975,157.13277555085816 C33.54326312658329,159.16051108148517 37.04434860198938,161.22784368527016 41.03422048350998,163.31259580768344 C50.47588354201829,168.24800680926154 62.66918933569767,173.28292317502633 76.36244288205336,178.1192936330193 M76.36244288205575,178.11929363301988 C81.69983312692439,179.0702786632965 87.35159649529379,180.0772768611804 93.08223175797383,181.098327992681 C98.817093182376,182.12013211700184 104.6308411223951,183.15599178007872 110.40630687705948,184.18503054688827 C116.18582995260832,185.21479222344337 121.92757142540975,186.23782219461742 127.63153129546373,187.25412046041023 C133.33986560686554,188.27119813862126 139.01091889812741,189.2816333023374 144.76361181078016,190.30661453712148 M144.76361181078158,190.30661453712148 C165.4966373642159,191.6903996253281 187.07759194702007,192.7658777759125 208.8575161343221,193.49364612372358 C227.77533137348345,194.12602510997854 246.83907566272987,194.49292199836268 265.4039323315916,194.56830511853707 C275.0090779057571,194.6076028038483 284.47768132337114,194.56928121020192 293.72755932247185,194.45355250027978 C302.97849413854794,194.33793048396421 312.0111247776205,194.14494666413572 320.77285887575545,193.87780048922758 C329.63201946840996,193.60703729529425 338.20629870071014,193.26314745812607 346.4956965726559,192.84613097772268 C362.563887963327,192.0392686773449 377.51272008256905,190.96813488913773 391.4689309895334,189.66888140119337 C410.0853610431938,187.93513222068594 426.95461342769005,185.79976593821033 442.6639474796474,183.30527454197937 C458.3709194624851,180.8093534343111 472.9122162907436,177.95499238268428 486.80979836376184,174.74545899842238 C498.24462248954995,172.10371663889342 509.2353458420492,169.2210282429155 520.0188497545718,166.09269266931403 C530.8010617263178,162.9645455918957 541.3749526755753,159.58998481927267 551.9425331088343,155.96940290766491 C561.9808578087543,152.53032161924224 572.014038702795,148.86831664796236 582.1786490371335,145.0013924422068 C592.3411268136689,141.13556252282305 602.6374216366747,137.06387719343147 613.1449452481718,132.83523291454006 C625.1633000560994,127.99854289205152 637.4641120376967,122.95539847351247 650.0238956178251,117.83630025958266 C662.5789126697154,112.71817049512698 675.3889104718786,107.52806949624183 688.2916763112377,102.42537067876225 C689.4963617668933,101.94993993926592 690.7010472225494,101.47450919976963 691.9057326782056,100.99907846027335 C709.2506239088289,94.16661574232367 726.7069905308508,87.53383385200654 743.7818014171896,81.3789384679203 C752.6463048860718,78.18202151404088 761.4100007926716,75.10979160998671 770.0257484865325,72.17905987760496 M417.41899364762753,9.353647074301309 L770.0257484865326,72.179059877605 M360.0537622524393,28.9727432625242 C361.0269341709324,28.584100387348837 361.5558860432204,28.117331619512868 361.5527848732391,27.64955012092665 M361.5527848732391,27.649550120926648 C361.55700921436284,27.141597965235206 360.9308068143735,26.635250340140782 359.7948843379534,26.228036667586263 C358.6657481639947,25.819476009735382 357.03391291228496,25.512582654288586 355.2137478238536,25.366478602850325 C353.3960342750434,25.218212672539806 351.40129459562127,25.231646893411348 349.6137601957774,25.40421455336751 C347.8233811223613,25.57464140479087 346.25133249094125,25.903209912745616 345.20095607527827,26.32635697932915 M414.38229042345074,2.0209727503271324 C413.4623415228443,2.0653063599672 412.95473473118915,2.1827903055240485 412.9382112534983,2.355344070400503 M412.9382112534983,2.355344070400503 C412.91208956968757,2.550319241750067 413.5231682094687,2.815680137776777 414.6518380833059,3.0995173806635723 C415.7735142276655,3.383116034787722 417.40557999035144,3.6833735532235092 419.228788051216,3.941556933691362 C421.0494723489227,4.200323873676557 423.0496064767758,4.415359437339886 424.83799781778583,4.544598131025951 C426.6293410444044,4.675014848311575 428.19744901609226,4.718771474808723 429.2350966006118,4.667359033522189 M688.0556310457986,205.7582334073855 C699.7097773859841,200.7616091100779 710.8516425048451,194.21542797469118 721.1654054376165,186.22341047194507 C729.576401018674,179.712068594981 737.4366395650436,172.2489080695531 744.6223965617007,163.99145551402012 C751.194676381103,156.4412198101282 757.2057356452117,148.23027798874426 762.5870644304321,139.50420787389882 C766.5672282934311,133.0497738873059 770.2040580169823,126.3147440950658 773.4621862147497,119.35695754562795 C776.7184024036732,112.39956452226207 779.5999400967509,105.21985981443942 782.0221529632587,97.88731571863237 C783.0150833047765,94.88467776725685 783.9228425388603,91.86131186751469 784.7454306655109,88.81721801940577 C785.5188020179464,85.94729997945845 786.2107767417581,83.06226767297133 786.7990780519009,80.17625626802189 C787.4187463261558,77.13133311391714 787.9260465986029,74.08181063031414 788.2607838735823,71.0746056355755 M716.521110504305,92.48601405920577 C717.5714869199678,92.0628669926222 719.1435355513883,91.73429848466748 720.9339146248044,91.56387163324413 C722.7214490246477,91.39130397328795 724.7161887040709,91.3778697524165 726.5339022528807,91.52613568272697 C728.3540673413121,91.67223973416526 729.9859025930211,91.97913308961195 731.1150387669808,92.38769374746296 C732.2509612434004,92.7949074200174 732.8771636433896,93.30125504511184 732.8729393022662,93.80920720080333 M732.8729393022662,93.80920720080333 C732.8760404722472,94.27698869938946 732.3470885999587,94.74375746722549 731.3739166814662,95.13240034240083 M723.9475135928884,93.80920720080204 C723.4764163353238,93.9937720803883 723.0718138943226,94.15228017508835 722.6760027804692,94.30734397393606 C722.2812589871115,94.46198947821834 721.8949992728844,94.6133099728349 721.4894003690952,94.77220845819052 C721.0839907053758,94.93103201817623 720.6619983564389,95.09635634669789 720.223423322284,95.26818144375514 C719.7872359482278,95.43907183630355 719.337212824871,95.61539015236616 718.9176724925092,95.77977496884586 M731.3739166814662,95.13240034240089 C730.722098986584,95.39402164251118 729.8739257813486,95.62060819826944 728.8943622213376,95.7947246349976 C727.915506263988,95.96912913761284 726.8061890255674,96.09091334686974 725.6512932470725,96.15076283425438 C723.3405000392399,96.27350802353578 720.8583829127019,96.13674940083527 718.9176721879514,95.77977491332531 M628.0911417581798,228.98997595737703 C635.2514880980755,226.30884006786994 642.1701009498556,223.01830647917623 648.7611873122617,219.11756404260854 C655.352662791733,215.218308275148 661.6164053789333,210.7084337587969 667.477517350453,205.628756079873 C674.4543910333608,199.58480687906496 680.8598954250518,192.733539595324 686.6075402538537,185.20139868576376 C696.1344752128568,172.71849156133865 703.8686561318884,158.37053699628126 709.5255232687888,142.85846327491618 C711.9824371236075,136.1126068396886 714.0473539633621,129.14499783137774 715.6442788205018,122.02585192263248 C716.3041975974428,119.0886504037715 716.8769728175887,116.13026100312051 717.3626044809394,113.15068372067987 C717.8232184385697,110.3111950114726 718.1993143321176,107.45578307331206 718.4693977228154,104.59891867774824 C718.7472534561457,101.64906217939381 718.9146267354998,98.69443439681154 718.9176721879514,95.77977491332537 M642.2570796184997,122.25785974515024 C643.3074560341626,121.83471267856666 644.8795046655831,121.50614417061195 646.669883738999,121.3357173191886 C648.4574181388421,121.16314965923237 650.4521578182657,121.14971543836093 652.2698713670752,121.29798136867144 C654.090036455506,121.4440854201097 655.7218717072166,121.7509787755565 656.8510078811746,122.15953943340736 C657.9869303575949,122.56675310596184 658.6131327575845,123.0731007310564 658.6089084164606,123.58105288674776 M658.6089084164606,123.58105288674776 C658.6120095864419,124.04883438533395 658.083057714154,124.51560315316996 657.1098857956607,124.9042460283453 M649.6834827070784,123.58105288674871 Q647.2818775033647,124.58664916301908 644.894380393453,125.59400599675588 M657.1098857956608,124.90424602834536 C655.8377296436084,125.4186055061011 653.7881267251776,125.78983011607849 651.5285349773264,125.91494917244877 C649.2726339186621,126.04478478813171 646.8367914612783,125.9269381150532 644.8943803934394,125.59400599675358 M562.3948413882915,255.5934247044633 C573.4789226849272,250.58124120958266 583.8563057600965,243.9877751575529 593.2073265993946,235.92494795064866 C600.3386849177226,229.78246192780034 606.8748847855738,222.7954619793584 612.7241200108429,215.09948551143154 C622.30578774096,202.49471373859913 630.0596922397056,187.9941756332738 635.700075039296,172.32197370340592 C638.1016878305567,165.6401922387992 640.1197014767283,158.74383911193948 641.6808242606995,151.70119440133215 C642.334078182964,148.75906253431793 642.9001510996435,145.79602913216158 643.3790430107364,142.81209419486302 C643.8331681983034,139.9688553549799 644.2027725382089,137.10998384161593 644.4663484074873,134.2500545755859 C644.732231689787,131.35471536077932 644.891704123802,128.45541917334697 644.8943803934394,125.59400599675364 M527.7666986695498,164.9308385616707 C528.8170750852125,164.5076914950872 530.3891237166331,164.1791229871324 532.1795027900489,164.00869613570904 C533.967037189893,163.83612847575296 535.9617768693151,163.8226942548814 537.7794904181253,163.97096018519187 C539.5996555065565,164.11706423663023 541.2314907582661,164.42395759207693 542.3606269322252,164.83251824992792 C543.4965494086448,165.23973192248235 544.1227518086345,165.74607954757678 544.1185274675107,166.2540317032682 M544.1185274675107,166.25403170326823 C544.1216286374918,166.7218132018545 543.5926767652038,167.18858196969035 542.6195048467108,167.57722484486575 M535.1931017581308,166.2540317032679 C534.7719962490838,166.44394567832413 534.407181086795,166.60830342022447 534.0484546503083,166.76979701405457 C533.6906839986933,166.93085594336665 533.3387849417793,167.08913918515074 532.9693230778441,167.25517009889612 C532.5998888891912,167.42119421845567 532.2157632440815,167.59364679604292 531.8169461425152,167.77252783165758 C531.4203221791252,167.95042049087564 531.0118691360506,168.13342273118786 530.630326809715,168.3041938720969 M542.6195048467108,167.57722484486575 C541.3715232289402,168.08157802573942 539.3767137072126,168.44869868553627 537.1679442570883,168.58032890203677 C534.9628403431599,168.71632048819754 532.5709880737895,168.61528663329963 530.6303269461855,168.30419389387575 M230.60138761975918,322.1341654482559 C221.70884294215597,317.3738359143893 212.42598594237748,311.45581893575473 202.5725101513218,304.18356333550975 C192.71814450165206,296.9108152764923 182.2931600607049,288.283828595865 171.092334318184,278.09226327115715 C159.8906187170493,267.90020548767774 147.91306181434078,256.14356906011795 134.9295250585693,242.5982251203831 C121.94509844418391,229.052388721876 107.95469197673498,213.71784481119306 92.70325106353982,196.35667567461203 M461.8235053443648,309.76225074675295 C463.40517336799934,308.8714800014267 464.9640792370715,307.93852640530173 466.5002229515798,306.96338995837624 C471.36421054632143,303.8762911334029 475.9917654866242,300.36750292007923 480.3463137207795,296.4775752284711 C484.7015234174349,292.5882240081936 488.78409759448016,288.31825712762526 492.5759817834476,283.7243639028361 C496.5603865919819,278.89814182804827 500.22445678373714,273.71509132521066 503.566640713417,268.2454074878905 C508.45329585493306,260.248755106796 512.652475864114,251.642975146864 516.1978648515153,242.62434281515158 C519.4991031808188,234.22501124927442 522.2370341732587,225.46665836257532 524.4312481492802,216.47594698760486 C526.5138319970359,207.93356868481538 528.1108276986578,199.17730764900057 529.182019137736,190.3155311407082 C529.6245505350803,186.66080264751176 529.970598906593,182.99488117988926 530.2201642522772,179.31776673784134 C530.4671971801016,175.64321677112537 530.6129830899129,171.96289204556643 530.6303269461857,168.30419389387578 M137.88053651907148,95.46319862780012 C136.90736460057855,95.8518415029754 136.37841272829021,96.31861027081145 136.38151389827163,96.78639176939765 M136.38151389827163,96.78639176939765 C136.38029316323787,97.1567600550959 136.7086460842956,97.52678802093403 137.33199141744052,97.85755353712969 C137.95315544472703,98.18861246281335 138.8682123627283,98.47982503307789 139.98090425024498,98.70056020998778 M152.73334269623257,98.1095849109952 C153.7065146147254,97.72094203581983 154.23546648701372,97.25417326798384 154.23236531703236,96.78639176939768 M154.2323653170324,96.78639176939767 C154.23658965815568,96.27843961370617 153.61038725816695,95.77209198861176 152.47446478174672,95.3648783160573 C151.34532860778793,94.95631765820633 149.71349335607832,94.64942430275958 147.8933282676471,94.50332025132134 C146.07561471883707,94.3550543210107 144.08087503941437,94.36848854188236 142.2933406395707,94.54105620183847 C140.50296156615454,94.7114830532618 138.9309129347344,95.04005156121661 137.88053651907148,95.46319862780011 M270.9369251894729,56.09820266527359 C269.9637532709798,56.48684554044897 269.4348013986915,56.953614308285005 269.437902568673,57.42139580687121 M269.437902568673,57.4213958068712 C269.4365753986844,57.79968703473957 269.77936919670856,58.17760077523141 270.4286719452733,58.51372140505738 C271.07561509575453,58.85016731308839 272.0278214704004,59.14417437732314 273.1809313980154,59.363522525398345 M285.78973136663393,58.74458894846867 C286.7629032851268,58.355946073293275 287.29185515741517,57.889177305457345 287.2887539874337,57.42139580687111 M287.2887539874337,57.42139580687111 C287.29297832855707,56.91344365117965 286.6667759285684,56.407096026085306 285.5308534521478,55.99988235353073 C284.4017172781893,55.591321695679895 282.7698820264796,55.28442834023305 280.94971693804814,55.13832428879482 C279.1320033892382,54.99005835848424 277.1372637098157,55.00349257935588 275.34972930997196,55.176060239311965 C273.5593502365559,55.34648709073533 271.98730160513566,55.67505559869006 270.9369251894729,56.0982026652736 M345.20095607527827,26.326356979329148 C344.2277841567852,26.7149998545045 343.69883228449703,27.1817686223405 343.7019334544785,27.649550120926715 M343.7019334544785,27.649550120926715 C343.70042794066376,28.040122093026582 344.0662489865642,28.43025260248295 344.7567019178892,28.774462136855472 C345.44449961829014,29.119051643793316 346.4554253346479,29.416968875998492 347.6716204829089,29.633483411492335 M800.5552510296387,70.8270161133988 C799.5176034451185,70.87842855468531 797.9494954734319,70.83467192818817 796.1581522468127,70.70425521090253 C794.369760905802,70.57501651721648 792.3696267779502,70.35998095355313 790.5489424802429,70.10121401356795 C788.7257344193778,69.84303063310011 787.0936686566935,69.54277311466427 785.9719925123326,69.25917446054022 C784.843322638496,68.97533721765332 784.2322439987139,68.70997632162673 784.2583656825254,68.51500115027713 M784.2583656825254,68.51500115027712 C784.2748891602159,68.34244738540063 784.7824959518715,68.22496343984382 785.7024448524776,68.18062983020374 M417.41899364762753,9.353647074301362 C415.0068189482539,43.850034132643 428.22330890346257,125.11768158626013 495.42996058259666,172.68848516074962 M429.2350966006119,4.667359033522189 C430.15504550121784,4.623025423882101 430.66265229287376,4.505541478325247 430.6791757705642,4.332987713448791 M430.67917577056414,4.33298771344879 C430.7052974543758,4.1380125420992275 430.09421881459343,3.8726516460725104 428.9655489407568,3.588814403185722 C427.843872796396,3.305215749061574 426.21180703371175,3.0049582306257996 424.3885989728465,2.7467748501579545 C422.56791467513926,2.4880079101727666 420.56778054728727,2.272972346509451 418.7793892062766,2.1437336528233737 C416.98804597965784,2.013316935537743 415.41993800797064,1.9695603090405678 414.38229042345074,2.020972750327047 M429.2350966006119,4.667359033522166 C426.7596289044183,4.226294652989655 424.2841612082248,3.7852302724571434 421.8086935120313,3.344165891924632 M785.7024448524777,68.18062983020374 C786.7400924369966,68.12921738891716 788.3082004086854,68.17297401541441 790.0995436353036,68.30339073269997 C791.8879349763138,68.43262942638607 793.8880691041663,68.64766499004934 795.7087534018734,68.90643193003459 C797.5319614627382,69.16461531050243 799.1640272254236,69.46487282893817 800.2857033697837,69.74847148306236 C801.4143732436203,70.03230872594911 802.0254518834024,70.29766962197586 801.9993301995911,70.49264479332541 M801.999330199591,70.49264479332541 C801.9828067219005,70.66519855820185 801.4751999302449,70.78268250375874 800.5552510296388,70.8270161133988 M793.1288479410582,69.50382297180124 C790.6533802448647,69.06275859126873 788.1779125486711,68.62169421073622 785.7024448524776,68.18062983020371" />
    <path class="edge outline visible" d="M361.552794132794,27.684475447749406 L361.55278487323915,27.64955012092662 M412.5952248264125,6.118810621973509 Q412.7365024961972,4.165313664660321 412.93821125349837,2.3553440704004913 M679.8556941632594,209.1977465084597 Q683.9057616751259,207.53724668213127 688.0556310876698,205.75823335526988 M732.8729393022661,93.8092072008033 C732.8728710858738,97.35015828173545 732.6482572878388,101.2500020351022 732.1924050888123,105.41817260077961 C731.7367060070254,109.5855323097071 731.0494576390792,114.01362260079415 730.1282544483365,118.58917362492161 C728.5210641595503,126.58315812086117 726.1939480131334,135.01755093809638 723.1867570869879,143.3719919970252 C720.1821611256629,151.73168259214017 716.4974864643671,160.0114210275816 712.2452431959757,167.8378342369616 C708.5102285547691,174.71956336478723 704.3397853801469,181.25409350169457 699.8200841885619,187.32202937247598 C695.2992187152356,193.39346797945058 690.4290952249465,198.99831232029888 685.263284345367,204.1152437332206 C678.6214499823707,210.69172299537422 671.4967618417231,216.4645273163764 663.8756825439438,221.47705652812925 C656.2502854464827,226.48827777624018 648.1285231527785,230.74608991308935 639.3759598922632,234.2572697886063 M608.270817352113,236.5183428262998 C614.6587423957151,234.04642002645966 621.2585656015228,231.54870045174448 628.0911428031461,228.98997129467926 M658.6089084164607,123.58105288674786 C658.6088402000688,127.12200396767905 658.384226402033,131.02184772104698 657.9283742030068,135.190018286724 C657.4726751212202,139.35737799565152 656.7854267532736,143.78546828673828 655.8642235625306,148.36101931086574 C654.2570332737452,156.3550038068055 651.9299171273282,164.7893966240406 648.9227262011827,173.14383768296958 C645.9181302398581,181.50352827808445 642.2334555785616,189.78326671352596 637.9812123101706,197.60967992290577 C634.2461976689639,204.49140905073105 630.0757544943415,211.02593918763915 625.5560533027568,217.09387505842045 C621.0351878294298,223.165313665395 616.1650643391414,228.7701580062431 610.9992534595615,233.88708941916505 C604.3574190965656,240.46356868131826 597.2327309559174,246.23637300232113 589.6116516581385,251.24890221407367 C581.9862545606783,256.2601234621844 573.8644922669727,260.51793559903405 565.1119290064578,264.0291154745508 M505.93601894060896,284.4348208825962 C511.36957785977756,281.37027823799644 516.6367614597468,278.4621885392166 521.8355356375175,275.66677222173735 C528.1572009983706,272.2691430246177 534.3777268471651,269.04281560590897 540.6666588259899,265.91143261551366 C547.755929054295,262.3814231412787 554.9369464586943,258.9695511098083 562.3948397955821,255.59342634673823 M544.1185274675107,166.25403170326823 C544.11880293168,173.25533386121222 543.6353489375356,181.23077627363455 542.6030395288452,189.65355672166774 C541.2470935645906,200.75241663532353 538.9262419852628,212.62149937986015 535.6039535905143,224.23782203496978 C533.837623640602,230.42337280731593 531.7910368027708,236.540696504174 529.485496185205,242.45839751162998 C527.1806185771201,248.37730497148863 524.6167871639159,254.09658965642905 521.8338693192582,259.51863661981963 C518.1004330380099,266.79670856311566 513.974603537814,273.5335046869629 509.56604613336054,279.63172397215493 C505.15579167878076,285.73459450611796 500.46553316026245,291.2065164380009 495.55741848893666,296.08042371417935 C489.78204909020394,301.8141253584063 483.70928445346135,306.7286841465335 477.3088085975902,310.95016797609054 C470.90428410665385,315.1692368960076 464.17204839658945,318.69523085735466 456.9684237044558,321.58660028774545 M230.601387619759,322.1341654482558 C242.19763451096185,328.34041224279355 254.08530297254248,333.81421281877607 266.17470603991586,338.26811343847385 C278.26042684725564,342.72387462297115 290.5478822603884,346.1597358511837 302.84428203378303,348.340339199763 C310.40989634792356,349.68560238579516 317.97582259716904,350.5597543395115 325.4787421886315,350.9496283242015 C332.9816461698466,351.34112105828956 340.4215434932789,351.2483358233509 347.7346784791162,350.70343086581966 C360.05104747156616,349.7950715714273 371.9948492462112,347.58286548935126 383.3654033574543,344.48919539119225 C394.741708117537,341.3983316711892 405.544765214218,337.42600393510327 415.7349123694155,333.0731735429014 C424.22159536920356,329.44420030388216 432.2874505817526,325.54658634361857 439.95722981594383,321.6016474062643 C447.6276675315555,317.654001347604 454.90202926880863,313.6590303118529 461.82350431636013,309.76225064658473 M2.1492547254113106,145.56180592853235 C3.461928648361039,152.86620579980595 5.095193060579556,160.5862501873458 7.049137159277308,168.50638758757495 C9.003985002081254,176.42769700318314 11.279512531364453,184.54909943148095 13.90111377931089,192.68785979950965 C15.6332312519583,198.07995262995314 17.529644268247885,203.486204579564 19.589682140603415,208.84579908643926 C21.650681787787406,214.2058660785163 23.875306291037354,219.51927562785792 26.289814657974212,224.73844075821242 C28.705284799739548,229.95807837376864 31.310638805191857,235.08347157033836 34.15906537714925,240.08026295732034 C37.00845372393513,245.0775268295043 40.10091463722624,249.94618889210122 43.51656651503788,254.66512134016182 C46.706469201605145,259.06077751016494 50.187749152612,263.3327512623043 54.152458385299184,267.5087391174344 C58.121818553698866,271.68365151282586 62.57460800377889,275.7625780112082 67.83310495273008,279.74310226075806 C70.61558735246582,281.84729332506873 73.62511595882728,283.92109015851213 76.90542924192036,285.947217965865 C80.1849125103645,287.97300784170017 83.73518045554059,289.9511286914447 87.57673113738485,291.8548436373885 C95.18547102751529,295.6337057186237 103.9799822419794,299.10835154518645 113.75495082990177,302.10324398185753 C123.52399254578206,305.10374670220546 134.273491635121,307.62449603266214 145.63218172986396,309.6470427809541 M154.23289422127198,97.16478971319567 L154.23236531703247,96.78639176939768 M287.28875577188177,57.436722187517944 L287.2887539874338,57.42139580687112 M784.2583656825253,68.51500115027713 L784.1896658726916,69.10856454530031 L784.1771317481729,69.2124469585722 M343.77232110633304,31.206489322664495 Q343.70162423898216,29.346280772740513 343.7019334544783,27.649550120926705 M430.67917577056414,4.332987713448745 Q430.6468701675533,4.61944571530863 430.61626940537553,4.9134483395866955 M639.3759598922613,234.257269788607 C633.3910749097623,236.65792255884412 627.1073077071371,238.7037043852191 620.4636415193622,240.37298661641714 C613.8199583159386,242.04100048871487 606.8144626901322,243.33100699491476 599.3856614387404,244.18586343449087 M565.111929006456,264.0291154745515 C559.1120825529747,266.43576302054294 552.8118636268919,268.485785777187 546.149782481467,270.157336997185 C539.4876864140921,271.8276089133783 532.4617906559675,273.11788258329796 525.0101876457315,273.97049075311344 M456.96842370445665,321.5866002877451 C451.9122290371724,323.61466444607595 446.62171202216064,325.32223144697224 441.0233907492941,326.69755722655793 C435.42467370270975,328.07128658107104 429.51609501984154,329.1115866588846 423.213091126449,329.7620134940762 M145.6321817298641,309.64704278095405 C163.7740390155793,312.8791112878887 182.60105048672835,316.5902893463487 202.03650259978198,320.78930466044585 C217.930131951987,324.2227038910837 234.22856970427014,327.9815464371276 250.8744953849437,332.05790612388904 M136.39436787694152,98.80263397320957 Q136.3813681326588,97.77770557174998 136.38151389827166,96.78639176939764 M269.49887708648396,60.72370782698228 Q269.4376569192634,59.00148294924664 269.43790256867294,57.42139580687112 M662.9547543714529,222.07730132038586 C669.0352761762122,220.89189693623374 674.9375990459037,219.4040047376673 680.683047139052,217.62042892404915 C688.6380857076331,215.1503600576882 696.2929894145025,212.11540771833836 703.6851997081253,208.50471448157478 C711.0770423770552,204.8966831554269 718.2024896385933,200.70422783102714 725.061541492741,195.92734850837562 C731.9916511545579,191.09778505070247 738.6463919502385,185.6605769821844 744.9563469980039,179.6428034191738 C751.2649231434623,173.628546794851 757.2287135410062,167.03372467603558 762.7396920442734,159.98389046233694 C769.0706406404797,151.8928008076397 774.8006484998477,143.198346954368 779.7792536160509,134.27698450551347 C784.7602337452886,125.35992167307643 788.9898111313629,116.2159502450566 792.3840241329258,107.34191508413267 C794.9872140994805,100.5432497735231 797.1015244561971,93.89740617425323 798.7107111960379,87.67279755167539 C800.3196616017393,81.44694876503158 801.4234883905675,75.64233495507995 801.999330199591,70.49264479332541" />
  </g>
</svg>
