<?xml version='1.0' ?>
<svg xmlns="http://www.w3.org/2000/svg" xmlns:xlink="http://www.w3.org/1999/xlink" version="1.1" width="803.9999962695422" height="287.2094385066902">
  <style type="text/css">
.edge {
  fill: None;
}
.edge.visible {
  stroke: #000000;
}
.edge.hidden {
  stroke: #C8C8FF;
}
@media (prefers-color-scheme: dark) {
    .edge.visible {
      stroke: #FFFFFF;
    }
    .edge.hidden {
      stroke: #A00000;
    }
}
</style>
  <g>
    <path class="edge sharp hidden" d="M65.74266999279261,34.652228194751196 L76.36644832492472,30.393241908479297 M76.3664483249247,30.393241908479297 L76.3664483249247,67.30445638950238 M65.7426699927926,71.56344267577427 L76.36644832492472,67.30445638950238 M39.183224162462345,72.98310477119824 C40.74583345901402,73.2603893044648 42.54847825205947,73.76451876671571 44.48079408770674,74.49925279680983 C47.41094376219292,75.6073309604488 50.61149085242995,77.25084189151576 53.56307491548669,79.14890455157354 M53.56307532470564,79.14890453199912 C56.51474706802232,76.93766819387278 59.417458018894926,74.9696871021858 61.79100958852465,73.57834912003925 C63.36368622892137,72.65400374754127 64.69994510215761,71.98060724329 65.7426699927926,71.56344267577428 M53.56307531807028,31.426644195351244 C54.99231667037509,32.34373761981998 56.41035447292976,33.11569999539803 57.76242863082546,33.704395075453 C59.11459002337157,34.293966043747666 60.399770242835544,34.69913308516248 61.56537044424456,34.90625244569658 M61.565370444244536,34.90625244569658 C63.235344229815816,35.205812312694626 64.65065622061333,35.09312883009942 65.7426699927926,34.6522281947512 M39.18322416246235,36.07189029017516 C40.745668983633465,36.35254087995005 42.54809829741483,36.3078766628345 44.480183730011596,35.87140180107332 C45.443493394071446,35.65492336260336 46.42724994000284,35.345666363248306 47.43145336780575,34.9436308030082 M47.43145336780575,34.943630803008205 C49.48406123361508,34.12244328590717 51.57773736187716,32.91413642360043 53.56307484614031,31.426644221115364 M88.72065466556748,32.59444226144099 L76.3664483249247,30.3932419084793 M53.56307513706578,31.426643915815852 C53.85839143419904,30.795878745752518 54.1230551717872,29.9851406259097 54.34442313850199,29.016544089319094 C54.565995300224095,28.049078789955924 54.74392124688314,26.923569944001066 54.87124097455897,25.694177103385716 C55.040209482033696,24.07052083535571 55.1193828641089,22.269218600695638 55.1188916606605,20.455607240511547 M32.508392042074995,34.88260767547406 L39.18322416246235,36.07189029017517 M23.247556664264202,70.14378058035032 L23.247556664264202,33.232566099327244 M2.0000000000000018,78.66175315289411 L23.24755666426421,70.14378058035032 M17.93566749819815,81.50107734374204 L12.623778332132105,80.55463594679273 M23.247556664264195,88.59938782086186 C24.343163891518145,88.159127334968 25.23498513017262,87.95317147758473 25.789324650951325,88.05395409646604 M25.789324650951322,88.05395409646604 C26.234970385581914,88.13242032046153 26.465105291640324,88.40509721772038 26.46417815482716,88.85967725207158 M26.46417815482716,88.85967725207159 Q26.461984371308688,89.37281658093846 26.092252268687062,90.16173395372816 M17.935667498198157,81.50107734374203 C19.50206290334998,81.77789301632296 20.990421378495427,82.40985296019551 22.24940929231703,83.41692345528374 C23.20320757867983,84.17667771688465 24.024486072922155,85.14725479799263 24.672369533906522,86.28913109477472 C25.32140248934539,87.43026595840202 25.797495799554085,88.74115832852218 26.092252103683915,90.1617338683484 M12.623778332132101,92.85837410713376 L23.2475566642642,88.59938782086186 M23.247556664264202,70.14378058035032 L39.18322416246235,72.98310477119826 M32.140906987885636,96.33582213586794 C31.476452198276238,95.15465457465812 30.619468401881928,94.02481478938631 29.598508765560183,92.98560212620725 C28.57810828213573,91.94582823046365 27.394646110528367,90.99674105127947 26.09225238410345,90.16173425684195 M102.92589415525495,84.34040153458997 C101.35949875010279,84.06017258957365 99.87114027495714,83.97837202703154 98.61215236113543,84.14542860117518 C97.98587530664526,84.22765332834972 97.42210103310747,84.36897532342381 96.92082954052198,84.56939458639734 M96.92082954052198,84.56939458639732 C95.89306409776557,84.97973175925924 95.16482043990791,85.64064967935826 94.76930954861116,86.49079086794319 M97.61400498918891,77.24209105747015 C96.56977976190122,77.65816130643964 95.71004033181288,78.41474848534088 95.1522992536692,79.51747242078059 C94.65463187667967,80.4938806780058 94.39620867300508,81.73906254153395 94.39738335113219,83.18102880115663 M94.39738335113219,83.18102880115663 C94.39717350094081,84.1992371441012 94.52449350733023,85.31393971578485 94.769309476513,86.49079073848866 M95.38021496602347,40.90123214991712 Q95.21261254525581,40.901269303100726 95.07223700859335,40.87631029602626 M95.07223700859335,40.87631029602626 C94.62659427698202,40.79784532174012 94.39645529808989,40.525167403896305 94.39738334955527,40.0705872505488 M94.3973833495553,40.0705872505488 Q94.39957707563046,39.55744827281045 94.7693094779084,38.76853039031527 M102.92589415525495,84.34040153458996 L118.8615616534531,87.17972572543789 M76.3664483249247,67.30445638950238 L108.23778332132102,72.98310477119824 M108.237783321321,72.98310477119824 L108.237783321321,48.37562845051619 M55.11889166066051,94.27803620255771 C55.119382864353604,92.4657376395852 55.04020948308214,90.45283564871093 54.87124097455899,88.3775920404041 C54.61813168368222,85.23426845683083 54.15501736761656,81.98450323730961 53.56307513999811,79.14890494329117 M108.23778332132102,72.98310477119824 L97.61400498918891,77.24209105747013 M94.76930926907882,86.49079112409825 C93.33973917969371,87.5600173997881 92.05371491868515,88.7517342396005 90.96889529081777,90.02780887353256 C89.88320109604147,91.30317190289598 89.00018925565372,92.66259018601976 88.35316961137806,94.04765672183485 M86.99022665705681,118.41229182476513 L55.1188916606605,112.73364344306927 M55.1188916606605,112.73364344306927 L33.8713349963963,121.25161601561305 M55.1188916606605,94.27803620255771 L55.1188916606605,112.73364344306927 M55.1188916606605,2.000000000000007 L55.1188916606605,20.455607240511554 M211.81962205960897,17.616283049663622 L211.81962205960897,45.299693910430946 M267.59445830330253,119.8319539201891 C266.4434799237641,119.62442402267483 265.3608249831834,119.6347951384194 264.59192575041266,119.94645012605883 M264.59192575041266,119.94645012605883 C264.086369114343,120.14816542729899 263.71696602698756,120.47541082967719 263.5161653260263,120.90714820781086 M264.9385137202695,116.28279868162917 C264.25154743732253,116.55481838509643 263.71704665358425,117.1301526355046 263.4776372754786,118.02836647425951 C263.3798679467291,118.39014409914628 263.33072326322593,118.79811126325953 263.3302032249688,119.25226796659928 M263.33020322496884,119.25226796659928 Q263.3304375909414,120.01252117561182 263.51616532184596,120.90714819685473 M263.8216192293565,61.20115452590562 Q263.7380161815656,61.20118942440243 263.6676297638735,61.18869380216384 M263.6676297638734,61.18869380216381 Q263.3337636138306,61.131063003735896 263.33020322496895,60.78583198581417 M263.33020322496895,60.785831985814156 Q263.33043759094585,60.5322889747637 263.5161653230441,60.134804317913876 M211.0417139101575,50.78521292889613 C211.27649193906663,50.28542449358687 211.4672642026166,49.56234195319395 211.5973501512516,48.698093819628674 C211.7510815200667,47.68606563322662 211.82026870482994,46.48982030626904 211.81962205960897,45.299693910430946 M203.8517883105099,53.10783543526275 C204.87572367327044,53.29324854095955 206.12440993918523,53.196310018722414 207.48058169570126,52.728157543614245 C207.64447581206568,52.67184935498804 207.80958280669248,52.610365576652825 207.97590267958222,52.54370620860884 M207.97590267958222,52.54370620860884 C208.98536167728105,52.13998049505844 210.0335531660602,51.5406143139098 211.04171387665343,50.78521296901306 M203.8517883105099,108.47465715679738 C204.87772372936118,108.6559522807743 206.1293523069145,109.03933122423433 207.48857501609783,109.63784358239658 C208.64467968324942,110.14513371628682 209.8701844383531,110.80523237965748 211.0417138807968,111.5575568323304 M211.0417139315264,111.55755682657707 C212.21278424740112,110.68077268885148 213.3466357858025,109.89514222762422 214.33352659164052,109.27354880428547 C215.49730862031265,108.53931312669212 216.44810178617513,108.03767045472286 217.13151122567504,107.76482610908539 M211.0417139247685,50.785212958737645 C212.50505220596455,51.72693972201881 213.90615946250188,52.326483131667274 215.04286147111418,52.52501649441268 M215.04286147111415,52.525016494412675 C215.8892640269022,52.676533705200825 216.5915405318017,52.61566578972916 217.13151122567504,52.39800438755076 M174.63639789714662,124.80077125417299 C175.17774041013436,124.5833542665893 175.6259652129937,124.4772209218124 175.90728185393158,124.52805441177145 M175.90728185393158,124.52805441177145 Q176.24114796869026,124.58568516531516 176.24470838939646,124.93091623200147 M176.24470838939646,124.93091623200148 Q176.2444740332734,125.18445921776994 176.05874630061186,125.5819438883822 M171.98045331411362,121.25161601561305 C173.00897921269708,121.4318726373444 173.98365997300624,121.92627770717667 174.72752281455683,122.77148282900872 C175.3633031282822,123.48736676190262 175.82594948187509,124.45328915049397 176.05874628564032,125.58194387894976 M179.94828706321266,131.89908173129277 C179.95149727706692,130.71157063853897 179.60673720541314,129.4435663318917 178.84064662725007,128.26878324174166 C178.1901044883193,127.26328237692816 177.2348795973507,126.33414293833347 176.05874631629285,125.58194391069816 M158.70073039894848,131.1892506835808 L174.63639789714662,124.80077125417296 M179.94828706321266,134.97501627137805 L179.94828706321266,131.8990817312928 M259.62662455420343,127.6400954450209 L259.62662455420343,136.86789906527667 M259.62662455420343,155.32350630578821 L211.819622059609,146.80553373324443 M211.81962205960897,119.1221228724771 L211.81962205960897,146.80553373324443 M211.81962205960897,146.8055337332444 L179.9482870632127,159.5824925920601 M211.81962205960897,119.1221228724771 C211.82026870482997,117.93372470868717 211.75108152006658,116.55256885248693 211.5973501512516,115.12967630058061 C211.4672641786272,113.9177586293379 211.27649189591352,112.68481577222741 211.0417139113129,111.5575568717966 M171.98045331411362,121.25161601561307 L158.70073039894848,118.88551252323978 M263.51616530167456,120.90714822908527 C262.34384193609293,121.78225791333239 261.3909321562911,122.80968197471033 260.7405833742304,123.88099859750437 C259.9701331406222,125.14084599525755 259.6233752480838,126.44966475376285 259.62662455420343,127.6400954450209 M267.59445830330253,119.83195392018908 L291.4979595505997,124.09094020646097 M179.9482870632127,104.21567087052549 L203.85178831050993,108.47465715679738 M148.0769520668164,116.99262972934115 L179.9482870632127,104.21567087052547 M259.62662455420343,50.741731942889466 L233.06717872387316,46.00952495814291 M233.06717872387318,46.00952495814292 L233.06717872387318,101.37634667967754 M233.06717872387316,101.37634667967754 L280.87418121846764,109.89431925222132 M280.87418121846764,109.89431925222132 L280.87418121846764,66.83123569102773 M217.13151122567504,107.76482610908539 L233.06717872387318,101.37634667967754 M280.87418121846764,109.89431925222132 L264.9385137202695,116.28279868162917 M217.13151122567504,52.398004387550756 L233.06717872387318,46.00952495814291 M179.94828706321272,48.848849148990865 L203.85178831050993,53.10783543526275 M179.9482870632127,104.21567087052549 L179.9482870632127,48.848849148990865 M477.06749239559497,108.58915336662368 C476.56193600742165,108.79086854296476 476.1925327884174,109.11811382088335 475.99173197432,109.54985145589816 M475.99173195197983,109.5498514585834 C474.8156716710997,110.42773032803234 473.8604910794174,111.45891412973096 473.20995251983845,112.53388942004744 C472.4437785247031,113.79063173609651 472.0989802374702,115.09556826037324 472.1021911968454,116.2827986816292 M599.5875311824306,194.36421392994725 C600.2757804723713,194.09170743684334 600.8109657460247,193.51469231698655 601.0497456532258,192.61366198606206 C601.1466314493734,192.2531058564797 601.1953301254489,191.84680007910035 601.1958416814526,191.39474465392382 M601.1958416814526,191.39474465392382 Q601.1956072534388,190.63449104896654 601.0098795815169,189.73986442598127 M601.009879605827,189.73986439003784 C602.1810062455571,188.865641581703 603.1331881608053,187.83942044067447 603.7834737319056,186.7692749810061 C604.5552954108219,185.5084344565779 604.902682004799,184.1983723835575 604.8994203484967,183.00691716655552 M596.9315865993976,190.81505869138732 C598.0825647956849,191.02258859071216 599.1652200309873,191.01221746169978 599.934119149747,190.70056248156104 M599.9341191497471,190.70056248156104 C600.4396755328903,190.49884730719901 600.8090787496552,190.1716020338119 601.0098795650327,189.73986440509114 M525.9989909924307,89.50234821130903 C524.5356514647538,88.5606207829318 523.1345461469363,87.96107837431532 521.9978434444986,87.76254466354922 M521.9978434444986,87.76254466354922 C521.1514405713804,87.61102745754772 520.4491644419737,87.6718953815592 519.9091936914398,87.8895567731499 M533.1889166066051,87.17972572543792 C532.1626992383499,86.99387656849312 530.9106559464662,87.09172318654777 529.5510034329166,87.5625425596457 C529.3901017363653,87.61799488833402 529.2280346681163,87.678432355961 529.0648022281688,87.74385496252651 M529.0648022281687,87.74385496252651 C528.05534356501,88.14758047363858 527.007151396662,88.74694706385762 525.9989910222314,89.50234820716466 M519.9091936914399,87.8895567731499 L477.4140803629115,104.92550191823747 M533.1889166066051,87.1797257254379 L596.9315865993976,98.53702248882963 M596.9315865993976,98.53702248882962 C597.9584792094229,98.71700892144895 598.9317046459528,99.21008858536734 599.6751128512576,100.05288611209997 C600.3126991892595,100.76919451583937 600.7766574710661,101.7365857454955 601.0098795677504,102.86735036025118 M604.8994203484967,109.18448820450936 C604.9026623558245,107.99431782020842 604.5562765724205,106.72326564769858 603.7866381702405,105.54628455992281 C603.136252460716,104.5438032363927 602.1829116520447,103.61758284739832 601.0098795922399,102.86735038021969 M525.9989910087572,89.50234823312621 C525.7638687563125,90.0028601233609 525.5728875436693,90.72733862419 525.4427842895507,91.59324350577988 C525.2894465517862,92.60447289880194 525.2204397320315,93.79922024433104 525.221082857506,94.98786725026973 M477.4140803629115,197.20353812079517 C476.8727379528597,197.42095507154838 476.424513033994,197.52708846251704 476.14319640610927,197.47625496320578 M476.14319640610927,197.4762549632058 Q475.80933016681115,197.41862408370827 475.80576986288247,197.07339315258469 M475.80576986288247,197.07339315258469 Q475.8060042343584,196.81985013043834 475.9917319654445,196.42236547657973 M472.1021911968454,190.10522764367536 C472.0989607340579,191.29443480021936 472.4447571550521,192.5643828817945 473.2131095645689,193.74056827055966 C473.8635528855917,194.7441432101828 474.8175765188333,195.6714206189936 475.9917319445001,196.42236546082526 M480.0700249459445,200.75269335935508 C479.04376101374095,200.57281094370387 478.0710959671093,200.08024099558213 477.32786360409875,199.23836945547038 C476.6895815785016,198.52189865101752 476.2251177353905,197.55394219535904 475.9917319774317,196.42236548245893 M555.0037681000565,211.52717118324472 C555.8501708083552,211.67868839846264 556.5524472003921,211.6178204526935 557.0924178539022,211.40015907503482 M543.8126949387371,212.10999012274678 C544.8380857495754,212.29568131243474 546.0889127574608,212.19816403159575 547.4473044666508,211.72831149519087 C547.6092902994786,211.6725483334948 547.7724585825156,211.6117314640193 547.9368093157616,211.54586088676436 M472.1021911968454,190.10522764367533 L472.1021911968454,116.28279868162917 M533.1889166066051,179.45776192799562 L596.9315865993976,190.81505869138735 M533.1889166066051,179.45776192799562 C532.1652182710625,179.27685098551962 530.9168798504745,178.8947962498258 529.5610690355948,178.29850242643687 C528.4023407925149,177.7906742727492 527.1735418239318,177.12913354540453 525.9989910179052,176.37486223784612 M525.9989910000345,176.37486224768062 C524.824199462216,177.25443654636004 523.6868910502216,178.04224181083944 522.6977861415983,178.66478878657838 C521.5382256874251,179.39584633466018 520.5907827569489,179.8954650800122 519.9091936914399,180.1675929757076 M525.221082857506,168.8102962123159 C525.2204397320314,169.99722439312558 525.289446551786,171.37640022213625 525.442784289551,172.79744195742867 C525.5728875442688,174.01106241738754 525.7638687580961,175.24595968476228 525.9989910120286,176.3748622311697 M525.221082857506,94.98786725026974 L525.221082857506,168.8102962123159 M519.9091936914399,180.1675929757076 L477.4140803629115,197.20353812079517 M543.8126949387371,212.1099901227468 L480.0700249459445,200.75269335935508 M557.0924178539022,211.40015907503482 L599.5875311824306,194.36421392994725 M600.8584151464179,101.81346087864235 Q601.1922813162137,101.8710916394163 601.1958416814526,102.2163226966985 M601.1958416814526,102.21632269669851 Q601.1956072534288,102.46986587394669 601.0098795787991,102.8673503687111 M477.4140803629115,104.92550191823747 C476.7288354095002,105.19686833195134 476.1952559508934,105.76995043549239 475.9550087304988,106.66439117057595 C475.85604772984715,107.0278010205211 475.806301440335,107.43799436139189 475.8057698619625,107.89497119318831 M475.90178193371355,109.05647739416042 Q475.9394819288809,109.2985111061796 475.99173197337706,109.54985145346166 M604.8994203484967,109.18448820450936 L604.8994203484967,183.00691716655552 M618.1791432636618,219.20830059986662 L618.1791432636618,145.38587163782046 M628.1097461325705,129.99858163084448 C627.0819762840115,130.40892181907083 626.3537378629358,131.0698367107037 625.9582261220964,131.91997789722424 M625.9582258505063,131.91997820516377 C624.4815107407427,133.02440265514923 623.1580892544139,134.25966902323074 622.0511931690008,135.58337204547144 C620.9432754656889,136.9062715600677 620.0536324169831,138.3172323163867 619.417063164938,139.7509272597621 C618.5724476608887,141.6452964255724 618.1766886406352,143.57328669349494 618.1791432636618,145.38587163782046 M683.4776295768798,108.86091693160107 C682.0483848831256,107.9438216221899 680.6303588447076,107.17186591172243 679.278283427925,106.5831692632589 C677.9261226078227,105.99359745765116 676.6409314991963,105.5884269311136 675.4753344775535,105.38130873075522 M675.4753344775538,105.38130873075528 C673.8053610962455,105.08174884830966 672.3900482648373,105.19443225284225 671.2980349243223,105.63533296594946 M697.8574807546526,104.21567087052549 C696.2900545879193,103.93410205815464 694.4810479873601,103.98001047442852 692.541995763383,104.42033793617367 C691.5845403458808,104.63662163586753 690.6069589402788,104.94448577013785 689.6092515465768,105.34393033898414 M689.6092515465768,105.34393033898414 C687.5566352648846,106.16512217398088 685.4629691134039,107.37342416188781 683.47763005345,108.86091690564623 M671.2980349243222,105.63533296594947 L628.8029215957939,122.67127811103704 M683.4776297723098,108.86091719711239 C683.1825534034759,109.49117195624613 682.918080464797,110.30109787424512 682.6968217747615,111.26865714244812 C682.4753598799923,112.2350876548051 682.2974623052646,113.35934035733773 682.1700847590989,114.58740396890678 C682.0006934176105,116.21261775282 681.9213194796259,118.01611587274772 681.9218132564544,119.83195392018912 M697.8574807546526,104.21567087052549 L761.6001507474451,115.57296763391722 M761.6001507474451,115.57296763391722 C763.1686126912997,115.85013871982012 764.6588245919902,116.48342642082163 765.9188721490729,117.49278878084421 C766.8713860059992,118.25260188693318 767.6915255025626,119.2228348164538 768.3385496417633,120.36400904037433 C768.986720066928,121.5044462807595 769.4622339091097,122.8142855597919 769.7567353854934,124.23362412987693 M777.5358182456432,136.86789906527667 C777.5382941828171,135.05133325897475 777.1408582313068,133.16162190953622 776.2927074671277,131.35418718366952 C775.6556516612784,129.99065771963234 774.7662557061345,128.67696914503122 773.6592617691872,127.47443682445099 C772.5532828227547,126.27099627532469 771.2314439431568,125.17889795700702 769.7567356705312,124.2336245120494 M681.9218132564544,193.6543828822353 C681.9213185662069,195.46969536445195 682.000764304594,197.48630653983875 682.1703070051141,199.5651988999602 C682.4235831419516,202.70533682322352 682.8863472624153,205.95103544715622 683.4776297721337,208.78351416507903 M697.8574807546526,214.94931431359475 C696.2916666800821,214.6714687832667 694.4847874120203,214.16580747557703 692.5479898449478,213.42863683807192 C689.6210755641268,212.32066213989356 686.4251927310756,210.6789733852115 683.4776300554487,208.78351453987983 M683.4776295709584,208.7835145671147 C680.5245837409033,210.99578373088016 677.6205679338191,212.96454152143193 675.2463941383152,214.35600891518203 C673.675139100236,215.2793651595556 672.3400333459986,215.95210055392474 671.2980349243221,216.36897640901873 M628.8029215957939,233.4049215541063 C627.7073145940445,233.84518196915795 626.8154930118353,234.05113798834296 626.2611536345001,233.95035525888585 M626.2611536345001,233.95035525888585 C625.8155119842363,233.87189131503874 625.585371119517,233.59921138350464 625.5863000272598,233.1446321767321 M625.5863000272598,233.14463217673207 Q625.5884934610929,232.6314937525363 625.9582260391913,231.84257540185786 M618.1791432636618,219.20830059986665 C618.1766904139115,221.0208384872176 618.5723100172852,222.9061849238923 619.4166316218661,224.70998126560244 C620.0531601831875,226.075799914612 620.9428236157186,227.391834065078 622.0508182135553,228.5964526057939 C623.1577906113621,229.80198422663372 624.4813440414201,230.89591154720605 625.9582258523801,231.8425751237604 M634.1148107618599,240.5032320312261 C632.5470244093912,240.22617717105902 631.0574183052139,239.5933236336614 629.7977168534113,238.58471067316475 C628.8447839489561,237.82491753285706 628.0242702773882,236.854569869687 627.3769655940279,235.7131657586442 C626.7285133216985,234.57249974176366 626.2528110273446,233.26231858350093 625.9582261247202,231.84257552935782 M720.2396270334696,250.69489094170643 C721.9096007539554,250.99445083586158 723.3249128751185,250.88176734685413 724.4169265849827,250.4408666991938 M697.8574807546526,251.86052879461784 C699.4214392774605,252.141458371812 701.2258665823689,252.09641690016753 703.1600688150747,251.65877303325402 C704.1215994308491,251.4423523668811 705.1034798123675,251.13351779377322 706.1057099596293,250.7322693139297 M724.4169265849828,250.44086669919386 L766.9120399135111,233.4049215541063 M766.9120399135112,233.40492155410632 C767.9585044839268,232.9879767666605 768.8196645647765,232.2290029464628 769.3773254593463,231.12247998279585 C769.8726690735325,230.1471559320134 770.1298254842748,228.90447059708507 770.1286614883103,227.46598377466418 M770.1286614883103,227.46598377466418 C770.128871132488,226.44777292198586 770.001551553495,225.33307411373337 769.7567354802785,224.1562218950078 M769.7567356700929,224.1562214855537 C771.2317489764175,223.0530673981383 772.5538291133928,221.81937567336968 773.6599478569017,220.4973921706742 C774.7670826346949,219.1762089406592 775.6565163394368,217.76710634829038 776.2934982921088,216.33515905321926 C777.1411104912407,214.43762179553184 777.538290924718,212.50606351561206 777.5358182456432,210.69032802732286 M777.5358182456432,136.86789906527667 L777.5358182456432,210.69032802732283 M681.9218132564544,119.8319539201891 L681.9218132564544,193.65438288223527 M671.2980349243222,216.36897640901873 L628.8029215957939,233.4049215541063 M697.8574807546526,214.94931431359473 L761.6001507474451,226.30661107698646 M697.8574807546526,251.8605287946178 L634.11481076186,240.50323203122608 M761.6001507474451,226.30661107698646 C763.1691595455464,226.58731373687993 764.6598617784737,226.66890104549086 765.9201893281164,226.50075317952883 C766.5439685034386,226.41840758045436 767.1056438529786,226.27736253204426 767.6052153767345,226.0776180342989 M767.6052153767345,226.0776180342989 C768.6329852247991,225.66727784626747 769.3612236456788,225.00636295507283 769.7567353866394,224.15622176913627 M769.4538078777574,122.12584440391636 C769.8994493808683,122.20430837836085 770.1295903602963,122.47698804301368 770.1286614862256,122.93156748536506 M770.1286614862256,122.93156748536506 Q770.1264677948694,123.4447066512466 769.7567354813516,124.23362425626169 M628.8029215957939,122.67127811103703 C627.7569089116903,123.08804640652878 626.8960353271904,123.84653836806365 626.3383577406844,124.95229432432107 C625.8425459151522,125.92783669756412 625.5851337223751,127.17102746125173 625.5863000186232,128.61021588904566 M625.7783254112369,130.9332287927462 Q625.8539471676845,131.41850926553974 625.9582260309351,131.91997777160935 M304.7776824657648,169.5201272600279 L326.0252391300295,161.0021546874839 M326.02523913002904,161.00215468748408 L326.02523913002904,87.1797257254379 M326.0252391300294,161.0021546874841 L389.7679091228214,172.3594514508757 M304.7776824657649,157.2163890996868 L326.02523913002943,161.0021546874841 M326.02523913002904,173.3058928478251 L326.02523913002904,161.00215468748408 M336.64901746216117,138.28756116070065 L368.5203524585578,143.96620954239657 M326.0252391300295,161.0021546874839 L368.520352458557,143.96620954239665 M336.64901746216117,138.28756116070065 L294.15390413363275,155.32350630578821 M336.64901746216117,64.46513219865447 L368.5203524585578,70.14378058035038 M326.0252391300295,87.17972572543772 L368.520352458557,70.1437805803505 M336.64901746216117,64.46513219865447 L326.02523913002904,68.72411848492638 M336.64901746216117,64.46513219865447 L336.64901746216117,138.28756116070065 M389.7679091228221,172.35945145087558 L432.2630224513497,155.32350630578836 M432.2630224513501,173.77911354629975 L432.2630224513501,155.32350630578821 M368.52035245855745,180.87742402341956 L368.52035245855745,143.96620954239648 M368.52035245855745,180.87742402341956 L326.02523913002904,197.91336916850716 M432.2630224513501,192.2347207868113 L368.52035245855745,180.87742402341956 M368.52035245855745,143.96620954239648 L368.52035245855745,70.14378058035032 M368.52035245855745,70.14378058035032 L368.52035245855745,33.232566099327244 M432.2630224513497,155.32350630578816 L464.13435744774637,161.00215468748408 M464.13435744774637,161.00215468748408 L443.9344347366979,169.1001393329188 M464.13435744774637,95.31833487699416 L464.13435744774637,161.00215468748408 M368.5203524585578,143.96620954239657 L432.2630224513497,155.32350630578816 M368.520352458557,143.96620954239665 L389.76790912282166,135.4482369698527 M389.76790912282166,135.4482369698527 L389.76790912282166,61.625808007806526 M368.520352458557,70.1437805803505 L389.76790912282166,61.625808007806526 M368.5203524585578,70.14378058035038 L432.2630224513497,81.50107734374198 M432.2630224513501,155.32350630578821 L432.26302245135014,81.50107734374204 M432.2630224513496,155.32350630578838 L453.5105791156143,146.8055337332444 M389.76790912282166,135.4482369698527 L453.5105791156143,146.8055337332444 M389.76790912282166,61.625808007806526 L432.2630224513501,69.197339183401 M453.5105791156143,146.8055337332444 L453.5105791156143,85.28684293153928" />
    <path class="edge outline hidden" d="M23.940732359766038,44.36087016111702 L47.43145361886009,34.943631155430936 M26.464177923898845,45.74923561523053 L26.464177923898852,88.85967725542358 M25.789324573131175,88.05395426618755 L59.29619113752749,94.0240121132505 M94.39738372955426,83.181028783693 L94.39738372955426,40.070587232985844 M73.43010803459302,93.986633241878 L96.92082929368704,84.5693942361919 M61.5653705183409,34.906252284488744 L95.07223708442265,40.87631013185202 M263.33020309045213,119.25226790667836 L263.33020309045213,60.78583192589327 M174.98298598346102,65.77029784763933 L207.97590279756577,52.5437059645629 M176.24470852696393,66.46448030739637 L176.24470852696393,124.93091629302447 M175.90728184270307,124.52805447525415 L224.5320501276588,133.19173178161492 M231.59900881985038,133.17304224970462 L264.59192563395516,119.9464503666282 M215.04286148228533,52.52501643132129 L263.6676297750175,61.1886937390676 M616.4305776768763,184.08726630297753 L599.9341192657196,190.70056224616116 M601.195841812248,191.39474471185713 L601.1958418122481,220.62796269529065 M601.1958418122479,89.56984350458966 L550.8043509491174,80.59138188465707 M545.5612579084835,81.13056030418221 C547.2130489255984,80.46553194013771 549.0517841647625,80.27644386704773 550.8043509492958,80.59138188468887 M521.9978434329064,87.76254472903669 L497.68545928845674,83.43070607550501 M454.55821306883,193.6303685954568 L476.1431964173511,197.4762548997133 M475.80576973309417,209.71987234359509 L475.80576973309417,197.07339309494262 M601.1958418122479,220.62796227473206 C601.1990353847235,222.4987354133927 600.6362675556455,224.3649359864945 599.5993641147865,225.92205948499216 M593.714965339763,211.64937768951614 L627.0543560090084,198.28388725721715 M625.6039551637983,106.23283387225727 C627.7059300534223,106.70234163055235 629.632229266473,107.9092042343513 630.972128345787,109.59520801305474 C632.3209380934842,111.2740917341816 633.0730294952464,113.41920350890231 633.0671768086443,115.57296805447568 M633.0671768086441,189.39539659596332 L633.0671768086443,115.57296763391722 M545.5612605255227,81.13055925503205 L529.0648021143238,87.74385519823252 M601.195841812248,101.87358166493064 L601.195841812248,102.21632275463176 M622.4433984765121,175.19877564187215 C622.4469541459557,177.09823360237974 621.8660886600388,178.99308685347202 620.7989643880626,180.5643606381577 C619.7376037048341,182.13953333293702 618.1949605439769,183.38377030159094 616.4305777597442,184.08726626975636 M633.0671768086441,189.39539659604998 C633.070732478102,191.29485455656805 632.4898669921889,193.18970780767356 631.4227427202121,194.76098159237114 C630.3613820369836,196.3361542871624 628.8187388761197,197.58039125582619 627.0543560918777,198.28388722399546 M492.44236894773,83.96988341265896 C494.0941591298286,83.3048559730507 495.9328931540423,83.11576826406775 497.6854588518234,83.43070599770824 M475.80576973309417,90.63936066361322 L492.44236886486215,83.96988344587999 M622.4433984765121,105.65934725272797 L622.4433984765121,175.19877564172373 M675.4753344089218,105.38130887801998 L658.7219011147524,102.39627995235554 M609.5077204089675,230.96532618600435 L626.2611537032226,233.95035511168413 M625.5863003361592,246.133851839365 L625.5863003361592,233.14463216469952 M609.5077172775894,230.96532562807343 C607.8059318050341,230.66211113723674 606.1455970738159,230.12713485603163 604.5869135235309,229.37979396184429 M770.1286611731457,109.94234782577831 L711.8407927754129,99.5569557615076 M701.3546066940503,100.63531260059594 C704.658188728185,99.30525587252527 708.3356592064019,98.9270797263091 711.8407927753883,99.55695576150322 M779.3505762381383,221.3689988727106 L767.6052156146482,226.07761837312546 M770.1286611731456,227.46598378713983 L770.1286611731457,243.52159682284338 M701.3546119282236,100.63531050225757 L689.6092513061215,105.34393000211602 M770.1286611731464,122.24608598611937 L770.1286611731459,122.93156749770304 M791.3762178374101,203.59201755036798 C791.3766930740262,205.49059588016905 791.0924714133985,207.3889598668878 790.5356599439355,209.20401252689635 C789.9797147133522,211.01933703524512 789.1514906932101,212.75089045065104 788.0873496605499,214.323187543014 C787.0239290764828,215.8959719991385 785.7249024991737,217.3090403659879 784.246804266283,218.50055359879008 C782.7692806916976,219.69276971077528 781.1129964808084,220.66297092248138 779.3505764038799,221.36899880626618 M648.2357204332997,103.47463462666309 C651.5393007974955,102.14457974744745 655.216768845921,101.76640432948116 658.7219002414816,102.39627979676129 M791.128047985774,126.69640570329898 C791.2931361838848,127.7119153699972 791.3762176980767,128.74074490060343 791.3762178374097,129.7695859944139 M625.5863003361592,112.55460284229999 L648.235720267563,103.47463469310551 M791.3762178374103,129.7695885881569 L791.3762178374102,203.59201755020302" />
    <path class="edge sharp visible" d="M108.23778332132102,36.07189029017516 L88.72065466556748,32.59444226144099 M108.23778332132102,36.071890290175155 L97.61400498918891,40.330876576447054 M17.935667498198157,44.58986286271895 C19.502062903350186,44.87009180773529 20.990421378495718,44.951892370277264 22.24940929231746,44.7848357961338 C22.875686346807537,44.70261106895924 23.43946062034543,44.56128907388519 23.94073211293112,44.36086981091161 M23.940732112931116,44.36086981091161 C24.968497553126852,43.95053263906069 25.69674120995746,43.28961472123831 26.09225210188777,42.43947353568211 M26.092252393084593,42.43947326669247 C27.568276880116958,41.33556464865537 28.89116549122828,40.1009268912598 29.997748412149903,38.777915736763056 C31.105351636336508,37.455705686513554 31.994906522913464,36.04549954884511 32.63164347759714,34.612507119107185 C33.47746557785957,32.71686151118132 33.87379688132454,30.787433958907645 33.8713349963963,28.973579813055345 M23.247556664264202,33.232566099327244 L32.508392042074995,34.88260767547406 M2.0000000000000018,41.75053867187103 L23.247556664264206,33.232566099327244 M17.935667498198153,44.58986286271895 L2.0,41.75053867187103 M2.0000000000000004,41.750538671871034 L1.9999999999999998,78.66175315289411 M12.623778332132105,80.55463594679273 L2.000000000000007,78.66175315289411 M23.247556664264195,51.68817333983877 C24.29263894052057,51.27176831358585 25.15292228849836,50.5142681836224 25.71063338350751,49.41009104187791 C26.207411064748637,48.434095635461695 26.465348603189984,47.189872151110904 26.46417830518236,45.74923559742709 M26.464178305182365,45.74923559742709 C26.464388162707618,44.731026269619 26.337067737648997,43.61632269424786 26.092252198953336,42.43947366539146 M55.1188916606605,57.366821721534635 L44.49511332852839,61.62580800780653 M12.623778332132094,55.947159626110675 L44.495113328528404,61.62580800780654 M12.623778332132094,55.947159626110675 L23.247556664264202,51.68817333983878 M12.623778332132105,55.947159626110675 L12.623778332132105,92.85837410713377 M44.4951133285284,98.53702248882962 L44.4951133285284,61.62580800780654 M12.623778332132101,92.85837410713376 L44.495113328528404,98.53702248882962 M33.8713349963963,102.79600877510151 C33.87622463076603,100.65963150343933 33.319794704551086,98.42094662901873 32.14090698788563,96.33582213586796 M67.29848651692238,97.50362048034923 C67.00317021966328,98.13438565038871 66.73850648195926,98.9451237703225 66.51713851515177,99.9137203071124 C66.29556635333685,100.88118560667371 66.11764040660846,102.00669445293553 65.99032067889425,103.2360872939223 C65.82135217141942,104.85974356195248 65.74217878934425,106.66104579661294 65.7426699927926,108.47465715679736 M67.29848631638048,97.50362021236373 C65.86924045114736,96.58652393001233 64.45120603172572,95.81456404401993 63.09913282082182,95.22586925212707 C61.746972841661346,94.63629884618999 60.461791572885396,94.231131244934 59.29619121075684,94.02401195518743 M59.29619121075684,94.0240119551874 C57.626217595623636,93.72445209414894 56.210905393836256,93.83713555329307 55.118891660660495,94.27803620255773 M65.7426699927926,34.6522281947512 C65.7421787890995,36.464526757723846 65.82135217037103,38.477428748598165 65.99032067889416,40.552672356905205 C66.24342997018559,43.695995945745814 66.70654428739411,46.94576117079197 67.29848651640917,49.781359468229475 M67.29848633745783,49.78135985879158 C64.34681459114262,51.992596199550995 61.44410363689022,53.960577293763585 59.07055206492618,55.351915277271 C57.49787542453044,56.27626064976823 56.16161655129495,56.94965715401914 55.118891660660495,57.366821721534635 M33.8713349963963,28.973579813055352 L33.8713349963963,10.517972572543805 M33.87133499639631,10.517972572543787 L65.7426699927926,16.196620954239645 M65.7426699927926,34.6522281947512 L65.7426699927926,16.196620954239656 M81.67833749099074,55.947159626110675 C80.11518149021208,55.669779460131 78.31181205789966,55.16538800753045 76.37873259355297,54.43023871723755 C73.44914803506468,53.322183429322614 70.2493791018411,51.67897624350241 67.29848681846921,49.78135983876499 M102.92589415525495,47.42918705356688 C101.36078009899738,47.152591856095604 99.87357084341073,46.52145436128187 98.61524082345221,45.51580350925809 C97.66064701863621,44.756087852587704 96.83865844377333,43.78529350970774 96.19024305128801,42.64298248254998 C95.54067563844843,41.50141473866555 95.06422477066118,40.18987629186307 94.76930957543792,38.76853052000827 M86.99022665705681,26.134255622207412 C86.98778382872418,27.94503526506413 87.38261202307466,29.828476689234996 88.22526481510684,31.63068378080058 C88.86156282169469,32.99750269955854 89.7513379002397,34.3145555712208 90.85976957739513,35.52008701797045 C91.96717493969541,36.72653267634315 93.29148419546554,37.82126358149645 94.76930927815836,38.76853014611699 M97.61400498918891,40.330876576447054 C96.70320412768969,40.696487586154134 95.93167740152012,40.90200617312587 95.38021496602346,40.90123214991712 M102.92589415525495,47.429187053566885 L118.8615616534531,50.26851124441481 M118.86156165345311,87.17972572543789 L118.86156165345311,50.268511244414796 M97.6140049891889,58.786483816958594 L81.67833749099076,55.94715962611067 M118.86156165345311,50.26851124441481 L97.6140049891889,58.786483816958594 M97.61400498918891,58.786483816958594 L97.61400498918891,95.69769829798167 M97.61400498918891,95.69769829798167 L81.67833749099074,92.85837410713374 M65.7426699927926,126.93026439730892 L65.7426699927926,108.47465715679736 M33.87133499639631,121.25161601561304 L65.7426699927926,126.9302643973089 M33.8713349963963,121.25161601561305 L33.8713349963963,102.79600877510151 M86.99022665705681,118.41229182476513 L65.7426699927926,126.93026439730892 M86.99022665705681,99.95668458425358 L86.99022665705681,118.41229182476513 M108.237783321321,48.37562845051619 L108.237783321321,36.071890290175155 M81.67833749099074,92.85837410713376 C80.11589266981971,92.57772351735889 78.31346335603868,92.62238773447442 76.3813779234421,93.05886259623547 C75.41806825938221,93.27534103470546 74.43431171345065,93.58459803406058 73.43010828564735,93.98663359430067 M73.43010828564735,93.98663359430067 C71.37750041704163,94.807821112514 69.2838242858813,96.01612797700737 67.29848679920207,97.50362018226298 M88.35316961137809,94.04765672183487 C87.42347475798341,96.0293871336405 86.9872320358648,98.05667929686923 86.99022665705681,99.95668458425358 M97.6140049891889,95.69769829798167 L118.86156165345311,87.17972572543789 M55.1188916606605,94.27803620255773 L44.49511332852839,98.53702248882962 M86.99022665705681,7.678648381695872 L86.99022665705681,26.13425562220742 M86.99022665705681,7.678648381695862 L65.7426699927926,16.19662095423965 M55.1188916606605,2.0000000000000053 L33.8713349963963,10.517972572543794 M86.99022665705681,7.678648381695869 L55.1188916606605,2.00000000000001 M222.44340039174108,77.95192210518212 L206.50773289354294,84.34040153458997 M158.7007303989485,75.82242896204619 L206.50773289354294,84.34040153458997 M158.70073039894848,75.82242896204617 L174.63639789714662,69.43394953263834 M206.50773289354294,139.7072232561246 L206.50773289354294,84.34040153458997 M158.70073039894848,75.82242896204619 L158.70073039894848,131.1892506835808 M158.7007303989485,131.1892506835808 L206.50773289354294,139.7072232561246 M174.63639789714662,69.43394953263835 C175.32316119609092,69.16200684667281 175.85755344577896,68.58693843148251 176.09706206196557,67.68916989423877 C176.19497155910398,67.32719939247937 176.2441870025817,66.91896951019937 176.24470839239848,66.46448024739865 M176.24470839239848,66.46448024739865 Q176.24447402988002,65.70422706541193 176.05874629561288,64.80960001933883 M176.05874632173254,64.809599980699 C177.2310696845911,63.934490297436966 178.18397946222515,62.90706623772533 178.83432824318567,61.83574961676323 C179.60477847679377,60.57590221901006 179.95153636933247,59.26708346050474 179.94828706321266,58.076652769246635 M227.75528955780715,66.59462534179042 C227.75464291258606,67.78302350557998 227.8238300973494,69.16417936177986 227.97756146616445,70.58707191368582 C228.10764743910167,71.7989895878714 228.2984197224326,73.03193244801481 228.5331977078088,74.15919135067628 M228.53319769188073,74.1591913832072 C227.36212737388877,75.03597552272748 226.2282758332944,75.82160598558731 225.24138502577546,76.44319940998211 C224.0776029971037,77.17743508757545 223.12680983124062,77.67907775954467 222.44340039174108,77.95192210518215 M211.81962205960897,17.616283049663625 L179.9482870632127,30.393241908479308 M179.94828706321266,58.076652769246635 L179.94828706321266,30.39324190847931 M259.62662455420343,26.134255622207423 L211.819622059609,17.616283049663632 M259.62662455420343,26.134255622207412 L227.75528955780715,38.911214481023094 M179.94828706321272,30.393241908479308 L227.75528955780715,38.911214481023094 M259.62662455420343,81.50107734374203 L235.72312330690625,77.24209105747013 M291.4979595505997,68.72411848492635 L259.62662455420343,81.50107734374203 M267.59445830330253,64.46513219865446 L291.4979595505998,68.72411848492635 M235.72312330690622,77.24209105747015 C234.69688884635002,77.0607445884919 233.44482017997626,76.67718842155276 232.08514132030996,76.0783791957157 C230.929387647171,75.57116131966603 229.70432330742406,74.91125559754869 228.5331977342599,74.15919138065314 M267.59445830330253,64.46513219865447 C266.5656300188295,64.28482557257814 265.59067980831185,63.79017487163571 264.8467331286507,62.94452362512838 C264.2112870223584,62.228718677690054 263.74888340209486,61.2630684767205 263.51616532946485,60.134804326493786 M259.62662455420343,53.81766648297473 C259.6234143403489,55.00517757572903 259.96817441200346,56.27318188237725 260.7342649901672,57.447964972527714 C261.3848071289745,58.453465837147704 262.34003201969966,59.38260527558083 263.5161653004504,60.13480430313775 M259.62662455420343,26.13425562220742 L259.62662455420343,53.81766648297473 M227.75528955780715,66.59462534179042 L227.75528955780715,38.911214481023094 M264.9385137202695,60.91597696009455 C264.48737315738646,61.0970148434113 264.1004744175749,61.20142607173618 263.8216192293565,61.20115452590562 M171.98045331411362,65.88479429407842 C173.1314316936516,66.09232419159252 174.21408663423205,66.08195307584832 174.9829858670035,65.77029808820868 M174.98298586700346,65.77029808820868 C175.48854250164035,65.56858278753221 175.85794558835843,65.24133738644464 176.05874628968425,64.80960001010354 M259.62662455420343,81.50107734374204 L259.62662455420343,136.86789906527665 M259.62662455420343,136.86789906527667 L235.72312330690622,132.60891277900478 M228.53319770734828,134.93153528517968 C228.2984196783983,135.43132372049703 228.1076474148162,136.15440626096262 227.97756146616462,137.01865439463825 C227.82383009734937,138.0306825810404 227.75464291258618,139.22692790799817 227.75528955780715,140.41705430383658 M228.5331976861386,134.93153525506233 C227.06986027259913,133.98980892357065 225.6687515400356,133.39026479236 224.53205014033355,133.191731709267 M224.53205014033358,133.191731709267 C223.68564687388567,133.0402146064688 222.98337177218903,133.10108229026892 222.44340039174108,133.31874382671674 M227.75528955780715,168.10046516460392 L227.75528955780715,140.41705430383658 M179.94828706321272,159.5824925920601 L227.75528955780715,168.1004651646039 M179.94828706321266,159.58249259206013 L179.94828706321266,134.97501627137805 M259.62662455420343,155.3235063057882 L227.75528955780715,168.1004651646039 M259.62662455420343,136.86789906527667 L259.62662455420343,155.32350630578821 M158.70073039894848,118.88551252323978 L148.0769520668164,116.99262972934117 M148.07695206681638,61.62580800780655 L148.07695206681638,116.99262972934116 M171.98045331411365,65.88479429407843 L148.0769520668164,61.62580800780653 M235.72312330690622,132.60891277900475 C234.69918794414556,132.42349967330796 233.45050167823103,132.52043819554504 232.09432992171492,132.98859067065325 C231.9304358053505,133.04489885927944 231.76532881072376,133.10638263761473 231.59900893783393,133.1730420056587 M231.5990089378339,133.1730420056587 C230.58954993624238,133.57676772075502 229.54135844327686,134.17613390499702 228.53319772910288,134.93153525397992 M222.44340039174108,133.31874382671674 L206.50773289354294,139.7072232561246 M259.62662455420343,136.86789906527667 L291.4979595505997,124.09094020646098 M280.87418121846764,54.52749753068671 L259.62662455420343,50.741731942889466 M280.87418121846764,66.83123569102773 L280.87418121846764,54.5274975306867 M280.87418121846764,54.5274975306867 L264.9385137202695,60.91597696009455 M148.0769520668164,61.62580800780654 L179.9482870632127,48.848849148990865 M291.4979595505997,124.09094020646098 L291.4979595505997,68.72411848492636 M551.7805286878362,130.47941963586885 C551.7811718133102,129.29249145505958 551.7121649935557,127.9133156260497 551.5588272557914,126.49227389075799 C551.4287240021703,125.27865344112952 551.2377427905109,124.04375618440508 551.0026205393023,122.91485364582554 M551.0026205521515,122.91485359342971 C552.1724991360733,122.038963000369 553.3052439051819,121.25402912217204 554.2914245632066,120.63274235292249 C555.4565589437859,119.8974880340246 556.4084256869191,119.39519653787836 557.0924178539022,119.1221228724771 M480.0700249459445,108.47465715679738 C478.9190467496568,108.26712725747252 477.836391514355,108.27749838648484 477.06749239559497,108.58915336662369 M543.8126949387371,119.83195392018911 L480.0700249459445,108.47465715679738 M543.8126949387371,119.8319539201891 C544.840819539633,120.0136249155916 546.0956691084511,120.39830166216291 547.4582312801222,120.99898854944593 C548.6117654713247,121.50574789786803 549.8340478574361,122.16443430750297 551.0026204980027,122.91485358949978 M551.0026205455555,209.7873676401344 C552.4659592145941,210.72909455102194 553.8670653632836,211.32863757349887 555.0037681000565,211.52717118324472 M547.9368093157616,211.54586088676436 C548.9462679738914,211.14213536525762 549.9944599853417,210.54276889447314 551.0026205083414,209.78736765077477 M551.0026205366444,209.78736761493144 C551.2377427890617,209.28685572470235 551.4287240016835,208.5623772239223 551.558827255791,207.69647234240654 C551.7121649935565,206.6852429493843 551.7811718133102,205.49049560385436 551.7805286878361,204.301848597915 M551.7805286878362,204.30184859791498 L551.7805286878362,130.47941963586882 M599.5875311824306,102.08617772738955 C600.1288741386863,101.86876059759847 600.5770981415124,101.76262750456827 600.8584151464179,101.81346087864235 M475.8057698619625,107.8949711931883 Q475.80578590357436,108.43938214319907 475.90178193371344,109.0564773941604 M557.0924178539022,119.12212287247709 L599.5875311824306,102.08617772738953 M713.7931482528506,162.42181678290805 C713.7936429430978,160.60650430069074 713.7141972047111,158.5898931253028 713.5446545041908,156.51100076518085 C713.2913783674339,153.3708628429333 712.8286142471891,150.12516422006522 712.2373317377405,147.2926855028026 M712.2373319300539,147.29268509742897 C715.1869713786335,145.0829764945774 718.0877290856273,143.11615991447178 720.4603715798718,141.72500512839053 C722.0351561081327,140.79919276953868 723.3731248635042,140.1248157660493 724.4169265849827,139.70722325612462 M697.8574807546526,141.12688535154857 C699.4239668396754,141.40484854317896 701.2317335874296,141.91083108997776 703.1694710888793,142.64851306575562 C706.0957099974814,143.75646708211792 709.2906067934749,145.3977695788579 712.2373314539263,147.29268512428092 M697.8574807546526,141.12688535154857 L634.11481076186,129.76958858815684 M634.1148107618599,129.76958858815686 C632.545801963759,129.4888859282635 631.0550997308333,129.40729861965258 629.7947721811909,129.57544648561426 C629.1709930058671,129.6577920846887 628.609317656327,129.79883713309871 628.1097461325704,129.9985816308445 M724.4169265849828,139.70722325612462 L766.9120399135111,122.67127811103705 M712.2373319245582,247.2152827300293 C713.6665764836935,248.13237800331146 715.0846054035948,248.90433527216237 716.4366800390396,249.4930312913965 C717.7888405376121,250.08260263972448 719.0740288302694,250.48777235255878 720.2396270334696,250.6948909417065 M706.1057099596294,250.7322693139297 C708.1583236924893,249.9110783801988 710.2519881659806,248.70277860216987 712.2373314311263,247.21528274755335 M712.2373317361573,247.2152824698225 C712.5324081051888,246.58502771072548 712.7968810440484,245.77510179258354 713.0181397342297,244.80754252406786 C713.2396016291432,243.84111201139956 713.4174992039809,242.71685930838692 713.544876750206,241.48879569623472 C713.7142680916954,239.8635819123221 713.7936420296786,238.06008379239498 713.7931482528506,236.24424574495424 M713.7931482528506,236.2442457449542 L713.7931482528506,162.42181678290802 M766.9120399135112,122.67127811103704 C768.0076469180742,122.23101770164482 768.8994684388133,122.02506168213276 769.4538078777574,122.12584440391636 M625.5863000186232,128.61021588904566 Q625.5869851489492,129.70696752730566 625.7783254112369,130.93322879274615 M304.7776824657648,95.6976982979817 L326.0252391300295,87.17972572543772 M304.7776824657648,169.5201272600279 L304.7776824657648,95.6976982979817 M368.52035245855745,180.87742402341956 L389.7679091228221,172.35945145087558 M304.7776824657648,169.5201272600279 L368.52035245855745,180.87742402341956 M294.15390413363275,155.32350630578821 L304.7776824657649,157.2163890996868 M294.15390413363275,81.50107734374205 L326.0252391300294,87.17972572543798 M294.15390413363275,81.50107734374205 L294.15390413363275,155.32350630578821 M368.52035245855745,107.0549950613734 L389.7679091228221,98.53702248882944 M326.0252391300294,87.17972572543798 L389.7679091228214,98.53702248882956 M304.7776824657648,95.6976982979817 L368.52035245855745,107.0549950613734 M368.52035245855745,180.87742402341956 L368.52035245855745,107.0549950613734 M389.7679091228217,172.35945145087578 L389.7679091228218,98.53702248882962 M389.7679091228217,209.27066593189886 L389.7679091228217,172.35945145087578 M326.02523913002904,197.91336916850716 L326.02523913002904,173.3058928478251 M389.7679091228217,209.27066593189886 L326.02523913002904,197.91336916850716 M326.02523913002904,68.72411848492638 L294.15390413363275,81.50107734374205 M389.7679091228217,98.53702248882962 L389.7679091228217,61.62580800780654 M389.7679091228217,61.62580800780654 L326.02523913002904,50.26851124441482 M326.02523913002904,87.1797257254379 L326.02523913002904,50.26851124441482 M389.7679091228214,172.35945145087572 L421.639244119218,178.03809983257162 M421.639244119218,104.21567087052547 L421.639244119218,178.03809983257162 M389.7679091228214,98.53702248882956 L421.639244119218,104.21567087052547 M432.2630224513501,192.2347207868113 L432.2630224513501,173.77911354629975 M432.2630224513501,192.2347207868113 L389.7679091228217,209.27066593189886 M368.52035245855745,33.232566099327244 L326.02523913002904,50.26851124441482 M432.2630224513501,44.58986286271896 L389.7679091228217,61.62580800780654 M432.2630224513501,81.50107734374204 L432.2630224513501,44.58986286271896 M389.7679091228221,98.53702248882944 L432.2630224513497,81.50107734374221 M432.2630224513501,44.58986286271896 L368.52035245855745,33.232566099327244 M443.9344347366979,169.1001393329188 L421.639244119218,178.03809983257162 M464.13435744774637,87.1797257254379 L421.639244119218,104.21567087052547 M464.13435744774637,87.1797257254379 L464.13435744774637,95.31833487699416 M432.2630224513497,81.50107734374198 L464.13435744774637,87.1797257254379 M432.2630224513501,69.197339183401 L453.5105791156143,72.98310477119824 M453.5105791156143,85.28684293153928 L453.5105791156143,72.98310477119824 M432.2630224513496,81.50107734374221 L453.5105791156143,72.98310477119824" />
    <path class="edge outline visible" d="M477.0674922796226,108.5891536020236 L460.5710338684659,115.20244954520723 M481.81859053273,69.77326249164034 L524.3137038612583,52.73731734655277 M475.8057697330943,78.66175185602832 C475.80221432235857,76.7622940967936 476.38307993834536,74.86744112365629 477.45020420981075,73.29616758244208 C478.51156489522384,71.72099513234966 480.0542079297728,70.47675836967032 481.8185905327392,69.77326249163664 M524.3137012441997,52.73731839571076 C525.965492261286,52.07229003167374 527.8042275004153,51.8832019585746 529.556794284924,52.19813997619042 M614.5470209419099,91.94867864804878 L601.1958418122479,89.56984350458966 M454.55821306882996,124.09094020646097 L454.55821306882996,197.9133691685072 M451.83081227130015,193.14441624589625 L454.55821306883,193.6303685954568 M475.80576973309417,226.30661107698646 L475.80576973309417,209.71987234359509 M483.70214570202666,235.7342788296532 C482.60642694432045,235.53951388014403 481.5453349116968,235.15161398535946 480.582603945289,234.59344291722388 C479.61943276413064,234.0360136506874 478.7550144402677,233.30878097925853 478.04075730181074,232.45537911964092 C477.32587629653494,231.60249979515768 476.7615482677438,230.62391905094466 476.38171327261233,229.577902087469 C476.00107075859296,228.53218839266285 475.8053130693126,227.41950624705314 475.80576973309434,226.3066123738536 M483.7021472676965,235.73427910861523 L547.444817260489,247.0915758720069 M552.6879076846812,246.55239850139236 C551.0361178357617,247.2174258232496 549.1973842144603,247.40651361079085 547.4448188261754,247.0915761509717 M547.9368094304322,211.54586065018722 L531.4403510198194,218.15915659315266 M531.4403536368982,218.15915554398663 C529.7885626197717,218.82418390804472 527.9498273805896,219.01327198113984 526.1972605960406,218.69833396349486 M451.830810705622,193.14441596693277 C450.7350919479166,192.94965101742267 449.6739999152943,192.56175112263793 448.71126894888755,192.00358005450195 C447.7480977677301,191.44615078796545 446.88367944386874,190.7189181165367 446.16942230541224,189.8655162569193 C445.4545413001372,189.01263693243683 444.890213271347,188.03405618822418 444.5103782762156,186.9880392247493 C444.12973576219684,185.9423255299441 443.93397807291626,184.82964338433493 443.9344347366979,183.7167495111365 M552.6879076840837,246.55239850163196 L595.183021012612,229.5164533565444 M599.5993641147865,225.92205948499222 C598.5363017143047,227.53088691082877 596.9742038100753,228.8022540386708 595.1830183955583,229.51645440569948 M526.1972605962247,218.69833396352763 L462.45459060343217,207.34103720013593 M584.5592426803555,215.31983240235462 C582.9074528316194,215.98485972398123 581.0687192105931,216.17394751141725 579.3161538225609,215.85901005164246 M584.55924268048,215.3198324023047 L593.714965339763,211.64937768951614 M625.1707992740282,106.14529960228602 C625.315832245085,106.17114073026094 625.4602687988375,106.20032917855082 625.6039551637982,106.23283387225727 M601.1958418122481,72.98310477119828 L601.1958418122481,101.87358166493064 M593.2994642776129,63.55543673956367 C594.3951833392413,63.75020155501544 595.4562756904108,64.13810141819678 596.4190069395815,64.69627254823841 C597.3821784038904,65.253701875906 598.2465969746435,65.98093470139959 598.96085428417,66.83433677737715 C599.6757354611277,67.68721631771562 600.2400635853021,68.66579733950374 600.6198985770698,69.71181459750261 C601.00054108856,70.75752858659733 601.1962986760868,71.87021104286832 601.1958418122479,72.98310519175588 M475.80576973309417,78.66175315289414 L475.80576973309417,107.89497113509756 M443.9344347366978,183.71674821426757 L443.93443473669794,109.8943192522214 M443.934434736698,109.89431795535378 C443.93087932596325,107.99486019614001 444.51174494193646,106.10000722302333 445.5788692133806,104.52873368181969 C446.64022989877196,102.95356123173784 448.1828729332906,101.70932446905861 449.9472555362285,101.00582859100976 M579.3161522568853,215.8590097726797 L555.0037681114534,211.52717111897294 M625.1707992740419,106.14529960228842 L600.8584151339594,101.81346094953486 M614.5470225075932,91.94867892701322 C615.6427412652992,92.14344387652395 616.703833297923,92.53134377131023 617.6665642643298,93.08951483944742 C618.6297354454875,93.64694410598537 619.4941537693501,94.37417677741605 620.208410907805,95.22757863703492 C620.9232919130804,96.0804579615195 621.4876199418695,97.0590387057339 621.8674549369995,98.1050556692103 C622.2480974510174,99.15076936401734 622.4438551402961,100.26345150962788 622.443398476512,101.3763453828276 M529.5567942848531,52.198139976177785 L593.2994642776455,63.55543673956949 M449.9472555363337,101.00582859096755 L475.80576973309417,90.63936066361322 M454.55821306882996,124.09094062701932 C454.5546573117969,122.19148211032518 455.13552306333867,120.2966282841432 456.20264785440503,118.72535417966144 C457.2640090505742,117.15018115983501 458.8066529696663,115.90594413145186 460.5710364855214,115.2024484960514 M462.45459060345684,207.3410372001403 C461.35887154182933,207.1462723846876 460.29777919066044,206.75837252150572 459.3350479414906,206.2002013914638 C458.3718764771826,205.64277206379577 457.50745790643055,204.91553923830213 456.7932005969044,204.06213716232472 C456.0783194199482,203.20925762198635 455.5139912957743,202.2306766001987 455.134156304007,201.1846593422002 C454.7535137925173,200.138945353106 454.5577562049907,199.02626289683556 454.5582130688299,197.91336874794868 M622.443398476512,101.37634667967754 L622.4433984765121,105.65934725272797 M604.338743671895,152.4841821149403 L604.338743671895,226.30661107698646 M628.1097458946568,129.99858129201783 L616.3643852711667,134.70720079243273 M637.611941935431,89.27801373886585 L680.1070552639593,72.2420685937783 M625.5863003361594,107.05499246766249 C625.5858253568492,105.15641433910179 625.8700472139029,103.25805059207622 626.4268588127254,101.44299818228698 C626.9828041730663,99.62767392418544 627.811028256029,97.89612076928837 628.8751692895353,96.32382392055453 C629.9385898747846,94.7510397082109 631.237616391431,93.33797156799864 632.7157145162126,92.1464585218028 C634.1932379829617,90.95424259669971 635.8495220386995,89.9840415315811 637.6119419352779,89.27801373892729 M680.1070500298673,72.2420706920841 C683.4106320640109,70.91201396402738 687.0881025422335,70.53383781782846 690.5932361112195,71.16371385304095 M625.5863003361592,254.69985298546575 L625.5863003361592,246.133851839365 M641.3790522739852,273.55518849079226 C639.1876147585746,273.16565859176933 637.0654306933303,272.389858802197 635.1399687605186,271.2735166659231 C633.2136263982052,270.15865813284785 631.4847897504833,268.70419278998753 630.0562754735732,266.99738907075164 C628.6265134630248,265.29163042178425 627.4978574054467,263.33446893335747 626.7381874151866,261.242435006407 C625.9769023871513,259.1510076167953 625.5853870085931,256.9256433255766 625.5863003361595,254.69985557917946 M641.3790554053637,273.55518904872326 L705.1217253981563,284.91248581211494 M715.6079062451685,283.83413107143605 C712.3043265476734,285.16418571471326 708.62685930559,285.5423612895957 705.1217285294964,284.9124863700386 M706.1057102082251,250.73226966100626 L694.3603495810814,255.44088916288575 M694.3603548152655,255.4408870645431 C691.056772781097,256.77094379262934 687.3793023028397,257.14911993884175 683.8741687338206,256.5192439036229 M786.2072411003165,125.11087347913518 C788.3986792235673,125.50040311004325 790.5208639259025,126.2762028364089 792.4463264242384,127.39254509649359 C794.3726693528513,128.5074037518304 796.1015064943522,129.96186940281737 797.5300211134015,131.66867355477143 C798.9597834673111,133.37443263544705 800.0884397156569,135.3315946790209 800.8481096991899,137.4236291950155 C801.6093947221675,139.51505717320168 802.0009098972201,141.7404220857399 801.9999961695423,143.96621038351142 M801.9999961695421,217.78863850444267 L801.9999961695421,143.96620954239648 M604.586913523531,229.3797939618443 C601.3488089090541,227.83350839465862 598.5662911418538,225.35303141119877 596.6593320847436,222.31344792671436 C594.7429685415427,219.27978489748085 593.7092975424546,215.69834727329953 593.7149653397631,212.10999271645076 M715.6079062453457,283.83413107136505 L758.1030195738742,266.7981859262775 M747.479241241742,252.6015649720378 L789.9743545702703,235.56561982695024 M747.4792412415173,252.6015649721278 C744.1756615440393,253.93161961538814 740.4981943019797,254.3097951902642 736.9930635259077,253.67992027071406 M775.5834627682053,110.9142525248993 L770.1286611731457,109.94234782577831 M770.1286611731457,243.52159682284338 L770.1286611731459,249.0212046037699 M770.1286611731459,249.02120376265592 C770.1291364937292,250.91978264746024 769.8449147492815,252.81814720141207 769.2881030385323,254.63320036787377 C768.7321575676709,256.4485253830384 767.9039331502978,258.18007924385444 766.8397916019967,259.75237665736773 C765.7763705030569,261.3251614352988 764.4773432929793,262.73822999906923 762.9992443694829,263.92974325942936 C761.5217201048237,265.12195939992284 759.8654351465365,266.09216047014843 758.1030143397682,266.7981880245869 M683.8741687338922,256.51924390363575 L620.1314987410994,245.16194714024397 M770.1286611731459,101.37634667967757 L770.1286611731464,122.24608598611937 M754.3359061039971,82.52101061642996 C756.5273442272395,82.9105402473458 758.6495289295661,83.6863399737168 760.5749914278931,84.8026822338043 C762.5013343564971,85.91754088914378 764.2301714979892,87.37200654013114 765.6586861170309,89.07881069208315 C767.0884484709331,90.78456977275691 768.2171047192722,92.7417318163267 768.9767747028009,94.83376633231629 C769.7380597257732,96.9251943104972 770.1295749008249,99.1505592230293 770.1286611731459,101.37634752079431 M625.5863003361592,107.0549950613734 L625.5863003361592,128.6102158764138 M593.7149653397629,212.10999012274684 L593.7149653397629,138.28756116070065 M593.7149653397631,138.28755856698808 C593.7144903604521,136.38898043843264 593.9987122175057,134.49061669141247 594.5555238163246,132.67556428162774 C595.1114691766629,130.86024002353096 595.9396932596212,129.1286868686377 597.0038342931217,127.55639001990664 C598.0672548783657,125.98360580756571 599.3662813950061,124.57053766735496 600.84437951978,123.37902462115883 C602.3219029865229,122.18680869605558 603.978187042253,121.21660763093504 605.740606938824,120.5105798382775 M801.9999961695422,217.78863850461013 C802.0004714061575,219.6872168344113 801.7162497455301,221.58558082113015 801.1594382760662,223.40063348113875 C800.6034930454823,225.21595798948738 799.7752690253403,226.94751140489365 798.7111279926797,228.51980849725638 C797.647707408612,230.09259295338106 796.3486808313033,231.50566132023005 794.8705825984117,232.69717455303208 C793.3930590238265,233.88939066501717 791.7367748129373,234.85959187672313 789.9743547360079,235.56561976050742 M736.9930603945527,253.67991971278778 L720.2396271049925,250.6948907879446 M786.2072411003376,125.11087347913897 L769.4538078080811,122.12584455381534 M775.5834658995535,110.9142530828249 C777.5215321002255,111.2590067767268 779.405634411717,111.90520004602416 781.1470947038836,112.82284870941963 C782.8890513307689,113.73957154948461 784.4878999012809,114.92727662407177 785.8688596574333,116.33005669862897 C787.2505342031735,117.73213274340695 788.4138538975055,119.34881062857899 789.3040520909068,121.10447028577747 C790.1951835287631,122.85964770674825 790.81272742864,124.75333374016957 791.1280479857741,126.69640570329898 M690.5932361111486,71.1637138530283 L754.3359061039412,82.52101061642003 M605.7406069390346,120.51057983819308 L625.5863003361592,112.5546028423 M604.3387436718949,152.48418295605825 C604.3382683513106,150.58560407125327 604.6224900957591,148.68723951730115 605.1793018065079,146.87218635083897 C605.7352472773684,145.05686133567366 606.5634716947428,143.3253074748572 607.6276132430434,141.75301006134342 C608.6910343419825,140.18022528341154 609.9900615520617,138.76715671964132 611.468160475558,137.5756434592807 C612.9456847402167,136.38342731878677 614.6019696985059,135.41322624856124 616.3643905052738,134.7071986941226 M620.1314987411649,245.16194714025568 C617.9400606179094,244.77241750935235 615.8178759155683,243.9966177829894 613.8924134172275,242.880275522906 C611.9660704886096,241.76541686757068 610.2372333471034,240.3109512165835 608.8087187280494,238.60414706462808 C607.3789563741349,236.8983879839512 606.2503001257865,234.94122594037466 605.4906301422506,232.84919142437687 C604.7293451192702,230.75776344618734 604.3378299442168,228.53239853364508 604.3387436718949,226.30661023586993" />
  </g>
</svg>
