<?xml version='1.0' ?>
<svg xmlns="http://www.w3.org/2000/svg" xmlns:xlink="http://www.w3.org/1999/xlink" version="1.1" width="803.9999962695422" height="287.2094385066902">
  <style type="text/css">
.edge {
  fill: None;
}
.edge.visible {
  stroke: #000000;
}
.edge.hidden {
  stroke: #C8C8FF;
}
@media (prefers-color-scheme: dark) {
    .edge.visible {
      stroke: #FFFFFF;
    }
    .edge.hidden {
      stroke: #A00000;
    }
}
</style>
  <g>
    <path class="edge sharp hidden" d="M23.24755666426419,88.59938782086186 C24.343163802960554,88.15912742264766 25.234985121250297,87.95317141075236 25.78932463583647,88.05395410797621 M25.789324635836465,88.0539541079762 C26.2349669176964,88.13241895032402 26.46510647352978,88.40509674972583 26.464178305182354,88.85967714597076 M26.46417830518236,88.85967714597075 Q26.46198429943037,89.3728169415536 26.09225221770882,90.1617339493159 M17.935667498198157,81.50107734374203 C19.42099091657679,81.76380805945193 20.83620072807515,82.345184131145 22.050045754399697,83.26232573105835 M22.050045754399697,83.26232573105835 C23.059225827534267,84.02163076478033 23.927608824277552,85.00906914060191 24.609134374476305,86.17929502819877 M24.609134374476305,86.17929502819877 C25.292037056068033,87.34869662432838 25.788779851316818,88.69887807905714 26.092252277103473,90.16173371734276 M32.14090724828081,96.33582218226361 C31.47397116912861,95.15022666548003 30.61417864238413,94.01841784657302 29.592529626230068,92.9795144429732 M29.592529626230068,92.9795144429732 C28.571407196978164,91.94000831868523 27.389434946081728,90.99340610174146 26.092252580437496,90.16173411090698 M102.92589415525495,84.34040153458996 L118.8615616534531,87.17972572543789 M102.92589415525495,84.34040153458997 C101.44057073687631,84.07479751100745 100.02536092537761,83.98725481506618 98.81151589905315,84.12141188579828 M98.81151589905315,84.12141188579828 C98.10494588040217,84.19867412884139 97.47471721890204,84.34800176493596 96.92082991455304,84.56939479408194 M96.92082991455304,84.56939479408196 C95.88993865673245,84.98099504336058 95.16356636187822,85.64331518096945 94.76930935463977,86.49079079003334 M97.61400498918891,77.24209105747013 C96.56977976190112,77.65816130643967 95.71004033181282,78.41474848534092 95.15229925366913,79.51747242078073 M95.15229925366913,79.51747242078073 C94.65463187667969,80.49388067800612 94.39620867300505,81.73906254153385 94.39738335113216,83.1810288011566 M94.39738335113216,83.1810288011566 C94.39717350096116,84.19923711813846 94.52449350080985,85.31393965892413 94.76930945779785,86.49079064845576 M95.3802153237976,40.90123214991758 Q95.21261269542313,40.90126932967914 95.07223700859335,40.876310296026254 M95.07223700859336,40.87631029602626 C94.62659427698183,40.797845321740134 94.39645529808989,40.5251674038963 94.39738334955528,40.0705872505488 M94.39738334955527,40.07058725054881 Q94.3995770753975,39.557448288602885 94.76930945569968,38.76853043779959 M108.237783321321,72.98310477119824 L108.237783321321,48.37562845051619 M108.23778332132102,72.98310477119824 L97.61400498918891,77.24209105747013 M53.56307515888783,31.426644180304194 C53.86718165134306,30.77717223552537 54.13953322556877,29.93498553674602 54.36570057372306,28.922459129352294 M54.36570057372306,28.922459129352294 C54.592098863608335,27.911301287341082 54.77185274359626,26.729447521538212 54.896945360609934,25.438098585021375 M54.896945360609934,25.438098585021375 C55.04823764604068,23.88404568651146 55.11930515825371,22.17540268158901 55.11889166066051,20.455607240511554 M53.56307542718069,31.4266442653376 C54.99231676071103,32.34373767082538 56.4103545434275,33.11570002997689 57.762428682429814,33.70439509793501 M57.762428682429814,33.70439509793501 C59.114590056083344,34.29396605409487 60.39977025765965,34.69913308777641 61.56537044424455,34.90625244569657 M61.565370444244536,34.90625244569655 C63.23534422981563,35.205812312694626 64.65065622061337,35.09312883009944 65.7426699927926,34.6522281947512 M94.7693091766903,86.49079095953476 C93.34597394757981,87.55536143004737 92.06157029674849,88.74385713240437 90.975777422628,90.01972159636242 M90.975777422628,90.01972159636242 C89.88915197556494,91.29480768933698 89.00276570656382,92.65703518530069 88.35316909080098,94.04765662908149 M86.99022665705681,118.41229182476513 L55.1188916606605,112.73364344306927 M55.1188916606605,94.27803620255771 L55.1188916606605,112.73364344306927 M55.11889166066051,94.27803620255771 C55.11930515810755,92.55934587815936 55.04823764663787,90.6607669582871 54.89694536060991,88.70236842015395 M54.89694536060991,88.70236842015395 C54.77185271089732,87.07669492506402 54.59209881837428,85.41442900751855 54.36570070146363,83.79819738317366 M54.36570070146363,83.79819738317366 C54.13953348670571,82.18121424511344 53.867182258571844,80.61113848645465 53.5630751587133,79.14890478700505 M53.563075418281116,79.14890446197359 C56.51474712938999,76.93766815212895 59.41745804396971,74.96968708756597 61.79100958852483,73.57834912003912 M61.79100958852483,73.57834912003912 C63.36368622892145,72.65400374754118 64.69994510215766,71.9806072432901 65.7426699927926,71.56344267577428 M12.623778332132101,92.85837410713376 L23.2475566642642,88.59938782086186 M65.7426699927926,71.56344267577427 L76.36644832492472,67.30445638950238 M76.3664483249247,67.30445638950238 L108.23778332132102,72.98310477119824 M65.74266999279261,34.652228194751196 L76.36644832492472,30.393241908479297 M76.3664483249247,30.393241908479297 L76.3664483249247,67.30445638950238 M55.1188916606605,2.000000000000007 L55.1188916606605,20.455607240511554 M17.93566749819815,81.50107734374204 L12.623778332132105,80.55463594679273 M23.247556664264202,70.14378058035032 L39.18322416246235,72.98310477119826 M23.247556664264202,70.14378058035032 L23.247556664264202,33.232566099327244 M32.50839256265219,34.882607768227466 L39.18322416246235,36.07189029017517 M2.0000000000000018,78.66175315289411 L23.24755666426421,70.14378058035032 M88.72065441698805,32.59444221715056 L76.3664483249247,30.3932419084793 M39.183224162462345,72.98310477119824 C40.66689359105244,73.2464985579557 42.36637344843034,73.71391308139826 44.18538761886661,74.38844729577816 M44.18538761886661,74.38844729577816 C47.207470881372835,75.50235674408066 50.52696977700419,77.19578762482769 53.56307496791227,79.14890453203648 M39.18322416246235,36.07189029017516 C40.66607153004294,36.33800634454433 42.36447871407273,36.31177323510972 44.18235633567511,35.93559906352838 M44.18235633567511,35.93559906352838 C45.23624434406335,35.71862583477873 46.32821187431868,35.386117967217935 47.431453242650306,34.94363051816398 M47.431453242650306,34.94363051816398 C49.490331983402925,34.1199197830368 51.583989692257,32.90946433045595 53.563075004170756,31.42664435297403 M55.1188916606605,112.73364344306927 L33.8713349963963,121.25161601561305 M174.63639789714662,124.80077125417299 C175.17774091156366,124.58335410940677 175.62596475383205,124.47722105065117 175.9072818624437,124.52805440427049 M175.9072818624437,124.52805440427048 Q176.24114796719059,124.58568512185228 176.24470839518716,124.93091622505383 M176.24470839518716,124.93091622505383 Q176.244473991535,125.18445934349467 176.05874627434116,125.58194393295719 M171.98045331411362,121.25161601561305 C172.97934394116115,121.42689626117163 173.9274412815736,121.89777583332616 174.6619046264894,122.698760269146 M174.6619046264894,122.698760269146 C175.3319618283457,123.42274911773539 175.81849596018284,124.41609800089867 176.05874626088746,125.58194401834872 M179.94828706321266,131.89908173129277 C179.95115949419406,130.7468457083502 179.62727362807772,129.51916804602186 178.9084083488787,128.37504228853817 M178.9084083488787,128.37504228853817 C178.25579033515865,127.32771783550321 177.27484445397164,126.35943120609431 176.0587461610759,125.58194388663769 M267.59445830330253,119.8319539201891 C266.4429104152967,119.62426773373777 265.36001718155137,119.63501717489402 264.5919257263414,119.94645009488417 M264.59192572634134,119.94645009488417 C264.0858226065347,120.14838214565535 263.7167338939324,120.47589029143408 263.51616537329676,120.907148253916 M264.9385137202695,116.28279868162916 C264.25154743732253,116.55481838509633 263.71704665358425,117.13015263550466 263.4776372754786,118.02836647425946 M263.4776372754786,118.02836647425946 C263.3798679467292,118.39014409914617 263.330723263226,118.79811126325947 263.33020322496884,119.25226796659923 M263.33020322496884,119.25226796659925 Q263.3304375910018,120.01252120936962 263.5161653381148,120.90714827511896 M263.82161915922006,61.20115452590561 Q263.738016151956,61.20118941918565 263.66762976387355,61.18869380216381 M263.66762976387355,61.188693802163826 Q263.3337636138308,61.13106300373604 263.33020322496895,60.7858319858142 M263.33020322496895,60.78583198581419 Q263.33043759100826,60.53228896308752 263.5161653398771,60.134804281923365 M267.59445830330253,119.83195392018908 L291.4979595505997,124.09094020646097 M217.13151122567504,107.76482610908539 L233.06717872387318,101.37634667967754 M233.06717872387316,101.37634667967754 L280.87418121846764,109.89431925222132 M280.87418121846764,109.89431925222132 L264.9385137202695,116.28279868162917 M259.62662455420343,50.741731942889466 L233.06717872387316,46.00952495814291 M233.06717872387318,46.00952495814292 L233.06717872387318,101.37634667967754 M280.87418121846764,109.89431925222132 L280.87418121846764,66.83123569102773 M217.13151122567504,52.398004387550756 L233.06717872387318,46.00952495814291 M211.04171389412616,50.785212890344745 C211.28423335144075,50.269206666210316 211.48000596250046,49.51355102825639 211.61051971503528,48.60917857652629 M211.61051971503528,48.60917857652629 C211.7550702793458,47.617046480636894 211.8202031850273,46.45556282500126 211.81962205960897,45.299693910430946 M211.04171384461176,50.78521290732298 C212.50505215457204,51.72693969968978 213.90615944181684,52.3264831282685 215.04286147111415,52.525016494412675 M215.04286147111415,52.52501649441266 C215.8892640269025,52.676533705200825 216.5915405318015,52.61566578972914 217.13151122567504,52.39800438755076 M263.5161653848677,120.90714824157209 C262.2997481355985,121.81487801205765 261.31861284341767,122.88835690576582 260.6659909251364,124.00576169392531 M260.6659909251364,124.00576169392531 C259.9474792508182,125.2264682229172 259.6237551300215,126.48844051983161 259.62662455420343,127.6400954450209 M259.62662455420343,127.6400954450209 L259.62662455420343,136.86789906527667 M259.62662455420343,155.32350630578821 L211.819622059609,146.80553373324443 M211.81962205960897,119.1221228724771 L211.81962205960897,146.80553373324443 M211.81962205960897,119.1221228724771 C211.82020318502728,117.9678070809171 211.7550702793456,116.63224841266353 211.61051971503537,115.25378868340712 M211.61051971503537,115.25378868340712 C211.48000592331363,114.00060324396136 211.28423332658429,112.72172349463742 211.0417138950442,111.55755686711949 M211.0417138501825,111.5575568874492 C212.21278419480294,110.68077272535366 213.34663576298067,109.8951422419637 214.33352659164055,109.27354880428543 M214.33352659164055,109.27354880428543 C215.49730862031262,108.53931312669202 216.44810178617522,108.03767045472293 217.13151122567507,107.7648261090854 M171.98045331411362,121.25161601561307 L158.70073039894848,118.88551252323978 M179.9482870632127,104.21567087052549 L203.85178831050993,108.47465715679738 M179.9482870632127,104.21567087052549 L179.9482870632127,48.848849148990865 M179.94828706321272,48.848849148990865 L203.85178831050993,53.10783543526275 M148.0769520668164,116.99262972934115 L179.9482870632127,104.21567087052547 M211.81962205960897,17.616283049663622 L211.81962205960897,45.299693910430946 M179.94828706321266,134.97501627137805 L179.94828706321266,131.8990817312928 M211.81962205960897,146.8055337332444 L179.9482870632127,159.5824925920601 M203.8517883105099,108.47465715679738 C204.8460525727856,108.65047493952986 206.05152948241576,109.01550328828446 207.3611270573738,109.58229903814555 M207.3611270573738,109.58229903814555 C208.55588404450177,110.09749585237307 209.82867449552793,110.77846312059127 211.04171389929746,111.55755687529737 M158.70073039894848,131.1892506835808 L174.63639789714662,124.80077125417296 M203.8517883105099,53.10783543526275 C204.84658361262763,53.28775742480194 206.05283425476182,53.20185440226801 207.3632376650023,52.767676154280856 M207.3632376650023,52.767676154280856 C207.56557393362345,52.70095759455866 207.76979559807816,52.62630096232318 207.9759026583656,52.543706257574335 M207.97590265836567,52.543706257574335 C208.98645057150082,52.13954632954056 210.0346846482362,51.53977433274474 211.0417138945823,50.78521289723353 M304.7776824657648,169.5201272600279 L326.02523913002904,161.0021546874841 M326.02523913002904,161.00215468748408 L326.02523913002904,87.1797257254379 M326.02523913003006,161.00215468748425 L389.7679091228207,172.35945145087558 M304.7776824657649,157.21638909968684 L326.02523913003006,161.00215468748422 M326.02523913002904,173.3058928478251 L326.02523913002904,161.00215468748408 M336.64901746216117,138.28756116070065 L368.5203524585585,143.96620954239668 M326.02523913002904,161.00215468748408 L368.52035245855745,143.96620954239648 M336.64901746216117,138.28756116070065 L294.15390413363275,155.32350630578821 M336.64901746216117,64.46513219865447 L368.5203524585585,70.14378058035051 M326.02523913002904,87.1797257254379 L368.52035245855745,70.14378058035032 M336.64901746216117,64.46513219865447 L326.02523913002904,68.72411848492638 M336.64901746216117,64.46513219865447 L336.64901746216117,138.28756116070065 M389.7679091228217,172.35945145087578 L432.2630224513501,155.32350630578821 M432.2630224513501,173.77911354629975 L432.2630224513501,155.32350630578821 M368.52035245855745,180.87742402341956 L368.52035245855745,143.96620954239648 M368.52035245855745,180.87742402341956 L326.02523913002904,197.91336916850716 M432.2630224513501,192.2347207868113 L368.52035245855745,180.87742402341956 M368.52035245855745,143.96620954239648 L368.52035245855745,70.14378058035032 M368.52035245855745,70.14378058035032 L368.52035245855745,33.232566099327244 M432.2630224513491,155.32350630578804 L464.13435744774637,161.00215468748408 M464.13435744774637,161.00215468748408 L443.9344347366979,169.1001393329188 M464.13435744774637,95.31833487699416 L464.13435744774637,161.00215468748408 M368.5203524585585,143.96620954239668 L432.2630224513491,155.32350630578804 M368.52035245855745,143.96620954239648 L389.76790912282166,135.4482369698527 M389.76790912282166,135.4482369698527 L389.76790912282166,61.625808007806526 M368.52035245855745,70.14378058035032 L389.76790912282166,61.625808007806526 M368.5203524585585,70.14378058035051 L432.2630224513491,81.50107734374187 M432.2630224513501,155.32350630578821 L432.26302245135014,81.50107734374204 M432.2630224513501,155.32350630578821 L453.5105791156143,146.8055337332444 M389.76790912282166,135.4482369698527 L453.5105791156143,146.8055337332444 M389.76790912282166,61.625808007806526 L432.2630224513501,69.197339183401 M453.5105791156143,146.8055337332444 L453.5105791156143,85.28684293153927 M600.8584151411983,101.8134608832718 Q601.1922813218333,101.8710917503557 601.1958416834548,102.21632269510637 M601.1958416834548,102.21632269510637 Q601.1956073521708,102.4698655895876 601.0098795759134,102.86735037115977 M604.8994203484967,109.18448820450936 C604.9026623558245,107.99431782020876 604.5562765724205,106.72326564769911 603.7866381702413,105.54628455992369 M603.7866381702413,105.54628455992369 C603.1362524607159,104.54380323639319 602.1829116520453,103.61758284739854 601.0098795922404,102.86735038021978 M596.9315865993976,98.53702248882962 C597.9584792094223,98.7170089214489 598.9317046459521,99.21008858536703 599.6751128512569,100.0528861120992 M599.6751128512569,100.0528861120992 C600.3126991892586,100.76919451583866 600.776657471066,101.73658574549508 601.0098795677503,102.86735036025115 M596.9315865993976,190.81505869138732 C598.0825647956848,191.0225885907121 599.1652200309874,191.0122174616999 599.9341191497473,190.70056248156112 M599.9341191497471,190.70056248156115 C600.4396755328899,190.49884730719901 600.8090787496556,190.17160203381206 601.009879565033,189.73986440509114 M599.5875311824306,194.36421392994725 C600.2731981315707,194.09268733840176 600.8070037229986,193.51905347765785 601.0470462969284,192.62368829560333 M601.0470462969284,192.62368829560333 C601.1457144902923,192.26067789685072 601.1953129524677,191.8510300168128 601.1958416834548,191.39474465548966 M601.1958416834548,191.39474465548966 Q601.195607352181,190.6344917437041 601.0098795786314,189.7398644232623 M601.0098796058271,189.73986439003784 C602.1810062455575,188.86564158170248 603.1331881608057,187.8394204406739 603.783473731906,186.769274981005 M603.783473731906,186.769274981005 C604.5552954108227,185.50843445657736 604.9026820047983,184.1983723835571 604.8994203484967,183.00691716655552 M604.8994203484967,109.18448820450936 L604.8994203484967,183.00691716655552 M557.0924178539022,211.40015907503482 L599.5875311824306,194.36421392994725 M533.1889166066051,179.45776192799562 L596.9315865993976,190.81505869138735 M525.221082857506,168.8102962123159 C525.2204397320314,169.9972243931255 525.2894465517863,171.37640022213623 525.4427842895509,172.79744195742853 M525.4427842895509,172.79744195742853 C525.572887544269,174.01106241738768 525.7638687580959,175.2459596847621 525.9989910120287,176.37486223116971 M533.1889166066051,179.45776192799565 C532.1652182710619,179.27685098551964 530.9168798504745,178.89479624982576 529.5610690355944,178.2985024264367 M529.5610690355944,178.2985024264367 C528.4023407925145,177.79067427274893 527.1735418239315,177.12913354540441 525.9989910179049,176.37486223784612 M555.0037681000564,211.52717118324466 C555.8501708083548,211.67868839846258 556.5524472003925,211.61782045269348 557.0924178539022,211.40015907503482 M543.8126949387371,212.1099901227468 C544.8380857495755,212.29568131243477 546.0889127574608,212.1981640315958 547.4473044666507,211.72831149519084 M547.4473044666507,211.72831149519084 C547.6092902994785,211.6725483334948 547.7724585825156,211.6117314640192 547.9368093157616,211.54586088676433 M525.9989910000347,176.37486224768062 C524.8241994622166,177.25443654636013 523.686891050221,178.0422418108396 522.6977861415979,178.6647887865785 M522.6977861415979,178.6647887865785 C521.5382256874251,179.3958463346602 520.5907827569488,179.89546508001234 519.9091936914398,180.16759297570758 M477.4140803629115,104.92550191823747 C476.7288354095001,105.1968683319514 476.1952559508935,105.76995043549248 475.95500873049866,106.66439117057612 M475.95500873049866,106.66439117057612 C475.85604772984686,107.02780102052121 475.8063014403351,107.43799436139201 475.8057698619625,107.89497119318828 M475.90178193371344,109.05647739416042 Q475.93948192888075,109.29851110617959 475.9917319733769,109.5498514534616 M475.9917319519798,109.54985145858342 C474.8156716710998,110.42773032803251 473.86049107941733,111.45891412973084 473.20995251983857,112.53388942004744 M473.20995251983857,112.53388942004744 C472.4437785247023,113.79063173609632 472.0989802374705,115.09556826037331 472.10219119684547,116.2827986816292 M477.0674923955949,108.58915336662366 C476.56193600742193,108.79086854296487 476.1925327884176,109.11811382088341 475.9917319743203,109.54985145589825 M519.9091936914399,87.8895567731499 L477.4140803629115,104.92550191823747 M525.9989910091327,89.50234823232347 C525.7638687565168,90.00286012259247 525.5728875437384,90.7273386237259 525.4427842895508,91.5932435057796 M525.4427842895508,91.5932435057796 C525.2894465517868,92.60447289880176 525.2204397320314,93.79922024433088 525.221082857506,94.98786725026974 M525.9989909943081,89.50234821251314 C524.5356514659568,88.56062078345474 523.1345461474215,87.96107837439513 521.9978434444987,87.76254466354922 M521.9978434444986,87.76254466354922 C521.1514405713806,87.61102745754789 520.4491644419736,87.67189538155904 519.9091936914398,87.8895567731499 M525.221082857506,94.98786725026974 L525.221082857506,168.8102962123159 M543.8126949387371,212.1099901227468 L480.0700249459445,200.75269335935508 M480.0700249459445,200.75269335935508 C479.0437610137412,200.57281094370387 478.07109596710933,200.08024099558213 477.3278636040987,199.23836945547038 M477.3278636040987,199.23836945547038 C476.6895815785009,198.52189865101718 476.2251177353906,197.553942195359 475.99173197743164,196.42236548245882 M477.4140803629114,197.20353812079517 C476.8727379528599,197.42095507154835 476.4245130339938,197.52708846251713 476.14319640610927,197.47625496320586 M476.1431964061093,197.47625496320586 Q475.80933016681126,197.41862408370827 475.8057698628824,197.07339315258474 M475.80576986288236,197.07339315258474 Q475.8060042343584,196.81985013043834 475.99173196544467,196.42236547657973 M472.1021911968454,190.10522764367536 C472.09896073405804,191.29443480021936 472.4447571550521,192.5643828817945 473.21310956456887,193.74056827055966 M473.21310956456887,193.74056827055966 C473.8635528855923,194.74414321018307 474.8175765188334,195.67142061899352 475.9917319445,196.42236546082518 M472.1021911968454,190.10522764367533 L472.1021911968454,116.28279868162917 M519.9091936914399,180.1675929757076 L477.4140803629115,197.20353812079517 M533.1889166066051,87.1797257254379 L596.9315865993976,98.53702248882963 M533.1889166066051,87.1797257254379 C532.163525795766,86.99403453574989 530.9126987878817,87.09155181658895 529.5543070786914,87.56140435299385 M529.5543070786914,87.56140435299385 C529.3923212458639,87.61716751469 529.2291529628266,87.67798438416538 529.0648022295807,87.74385496142041 M529.0648022295807,87.74385496142041 C528.0553435663614,88.14758048494852 527.0071515494366,88.74694695977792 525.9989910217552,89.50234820881906 M634.1148107618599,240.5032320312261 C632.5470244093907,240.22617717105888 631.0574183052128,239.59332363366104 629.7977168534103,238.58471067316393 M629.7977168534103,238.58471067316393 C628.844783948955,237.8249175328563 628.0242702773883,236.85456986968612 627.3769655940273,235.71316575864356 M627.3769655940273,235.71316575864356 C626.7285133216982,234.57249974176304 626.2528110273446,233.26231858350044 625.9582261247203,231.84257552935776 M628.8029215957939,233.4049215541063 C627.7073145940446,233.84518196915795 626.8154930118355,234.051137988343 626.2611536345,233.9503552588858 M626.2611536345,233.9503552588858 C625.8155119842363,233.87189131503877 625.585371119517,233.5992113835046 625.5863000272597,233.1446321767321 M625.5863000272597,233.14463217673207 Q625.5884934610925,232.63149375253636 625.9582260391907,231.84257540185757 M618.1791432636618,219.20830059986665 C618.1766904139114,221.0208384872177 618.5723100172853,222.90618492389254 619.4166316218663,224.709981265603 M619.4166316218663,224.709981265603 C620.053160183188,226.07579991461225 620.9428236157191,227.39183406507868 622.0508182135558,228.59645260579418 M622.0508182135558,228.59645260579418 C623.1577906113616,229.8019842266337 624.481344041421,230.89591154720628 625.9582258523801,231.8425751237605 M683.4776297723101,108.86091719711244 C683.1825534034765,109.49117195624626 682.9180804647956,110.30109787424547 682.6968217747619,111.26865714244869 M682.6968217747619,111.26865714244869 C682.4753598799915,112.23508765480587 682.2974623052653,113.35934035733878 682.1700847590986,114.58740396890812 M682.1700847590986,114.58740396890812 C682.0006934176106,116.21261775282095 681.9213194796257,118.01611587274827 681.9218132564542,119.83195392018912 M683.47762957688,108.8609169316011 C682.0483848831258,107.94382162218989 680.6303588447072,107.17186591172242 679.2782834279252,106.5831692632589 M679.2782834279252,106.5831692632589 C677.926122607823,105.99359745765115 676.6409314991961,105.58842693111377 675.475334477554,105.38130873075522 M675.4753344775539,105.38130873075531 C673.8053610962455,105.08174884830964 672.3900482648371,105.19443225284226 671.2980349243222,105.63533296594946 M671.2980349243222,105.63533296594947 L628.8029215957939,122.67127811103704 M618.1791432636618,219.20830059986662 L618.1791432636618,145.38587163782046 M628.8029215957939,122.67127811103704 C627.7569089116905,123.0880464065287 626.8960353271902,123.8465383680635 626.3383577406848,124.95229432432076 M626.3383577406848,124.95229432432076 C625.8425459151528,125.92783669756378 625.5851337223751,127.17102746125147 625.5863000186235,128.6102158890457 M625.7783254112368,130.93322879274615 Q625.8539471676844,131.41850926553963 625.9582260309351,131.91997777160933 M625.9582258505059,131.91997820516366 C624.4815107407435,133.02440265514903 623.1580892544137,134.25966902323086 622.0511931690004,135.58337204547166 M622.0511931690004,135.58337204547166 C620.9432754656884,136.90627156006778 620.0536324169829,138.31723231638753 619.4170631649375,139.7509272597627 M619.4170631649375,139.7509272597627 C618.5724476608881,141.64529642557292 618.1766886406357,143.57328669349516 618.1791432636618,145.3858716378205 M628.1097461325704,129.99858163084443 C627.0819762840126,130.40892181907086 626.3537378629347,131.06983671070378 625.9582261220961,131.91997789722407 M681.9218132564544,193.6543828822353 C681.9213185662068,195.46969536445184 682.0007643045941,197.48630653983892 682.170307005114,199.56519889996014 M682.170307005114,199.56519889996014 C682.4235831419513,202.70533682322346 682.8863472624154,205.9510354471563 683.477629772134,208.783514165079 M697.8574807546527,214.94931431359475 C696.2916666800819,214.67146878326676 694.4847874120196,214.1658074755768 692.5479898449469,213.4286368380715 M692.5479898449469,213.4286368380715 C689.6210755641264,212.32066213989293 686.4251927310754,210.6789733852113 683.4776300554488,208.78351453987977 M681.9218132564544,119.8319539201891 L681.9218132564544,193.65438288223527 M720.2396270334697,250.69489094170646 C721.9096007539542,250.99445083586141 723.3249128751185,250.8817673468543 724.4169265849827,250.44086669919383 M697.8574807546526,251.86052879461784 C699.42143927746,252.141458371812 701.2258665823686,252.09641690016767 703.1600688150734,251.65877303325428 M703.1600688150734,251.65877303325428 C704.1215994308484,251.44235236688144 705.1034798123671,251.13351779377336 706.1057099596294,250.73226931392975 M724.4169265849828,250.44086669919386 L766.9120399135111,233.4049215541063 M761.6001507474451,226.30661107698643 C763.169159545546,226.58731373687968 764.6598617784729,226.6689010454908 765.9201893281152,226.50075317952894 M765.9201893281152,226.50075317952894 C766.5439685034378,226.41840758045433 767.1056438529785,226.27736253204444 767.6052153767345,226.0776180342989 M767.6052153767345,226.0776180342989 C768.6329852247998,225.66727784626733 769.3612236456783,225.00636295507294 769.7567353866393,224.15622176913618 M766.9120399135112,233.40492155410635 C767.9585044839271,232.98797676666038 768.8196645647761,232.22900294646297 769.3773254593461,231.12247998279605 M769.3773254593461,231.12247998279605 C769.8726690735328,230.1471559320133 770.1298254842742,228.9044705970852 770.1286614883094,227.465983774664 M770.1286614883095,227.46598377466404 C770.1288711324877,226.44777292198592 770.0015515534943,225.3330741137332 769.7567354802785,224.15622189500766 M769.7567356700932,224.15622148555371 C771.2317489764182,223.05306739813796 772.5538291133929,221.81937567336945 773.659947856902,220.49739217067383 M773.659947856902,220.49739217067383 C774.7670826346953,219.17620894065834 775.6565163394373,217.7671063482903 776.2934982921089,216.33515905321843 M776.2934982921089,216.33515905321843 C777.1411104912414,214.43762179553127 777.5382909247176,212.50606351561194 777.5358182456432,210.69032802732286 M683.4776295709584,208.78351456711476 C680.524583740903,210.99578373088005 677.6205679338193,212.96454152143204 675.2463941383152,214.35600891518203 M675.2463941383152,214.35600891518203 C673.6751391002366,215.27936515955588 672.3400333459979,215.95210055392465 671.2980349243221,216.36897640901873 M671.2980349243222,216.36897640901873 L628.8029215957939,233.4049215541063 M769.4538078777576,122.12584440391636 C769.8994493808684,122.20430837836079 770.1295903602964,122.47698804301368 770.1286614862257,122.93156748536506 M770.1286614862255,122.93156748536502 Q770.1264677948691,123.44470665124669 769.7567354813516,124.23362425626169 M761.6001507474451,115.57296763391722 C763.1686126912995,115.85013871982015 764.6588245919891,116.48342642082129 765.9188721490723,117.49278878084364 M765.9188721490723,117.49278878084364 C766.8713860059978,118.25260188693265 767.6915255025623,119.22283481645327 768.3385496417632,120.36400904037393 M768.3385496417632,120.36400904037393 C768.9867200669268,121.50444628075894 769.4622339091103,122.81428555979161 769.7567353854934,124.23362412987697 M777.5358182456432,136.86789906527667 C777.5382941828171,135.0513332589744 777.1408582313065,133.16162190953554 776.2927074671272,131.3541871836685 M776.2927074671272,131.3541871836685 C775.6556516612789,129.99065771963166 774.7662557061336,128.67696914503048 773.659261769187,127.47443682445055 M773.659261769187,127.47443682445055 C772.5532828227554,126.27099627532456 771.2314439431567,125.17889795700688 769.7567356705317,124.23362451204937 M697.8574807546526,251.8605287946178 L634.11481076186,240.50323203122608 M777.5358182456432,136.86789906527667 L777.5358182456432,210.69032802732283 M697.8574807546526,104.21567087052549 L761.6001507474451,115.57296763391722 M697.8574807546526,104.21567087052549 C696.2900545879195,103.93410205815466 694.48104798736,103.98001047442855 692.5419957633829,104.4203379361737 M692.5419957633829,104.4203379361737 C691.5845403458808,104.63662163586758 690.6069589402792,104.94448577013775 689.6092515465768,105.3439303389841 M689.6092515465768,105.34393033898412 C687.5566352648852,106.16512217398082 685.4629691134035,107.3734241618879 683.4776300534497,108.86091690564626 M697.8574807546526,214.94931431359473 L761.6001507474451,226.30661107698646" />
    <path class="edge outline hidden" d="M26.464177923898838,45.74923561523056 L26.464177923898852,88.85967716377422 M25.78932456371812,88.0539542645104 L59.29619113752749,94.0240121132505 M94.39738372955426,83.18102878369298 L94.39738372955426,40.070587232985886 M61.5653705183409,34.906252284488744 L95.07223708442265,40.87631013185202 M73.43010792272415,93.98663328672532 L96.92082941547105,84.56939418736968 M23.940732237982044,44.36087020993925 L47.43145373220847,34.94363110999049 M176.24470852696393,66.46448030739637 L176.24470852696393,124.93091628377204 M175.90728184976376,124.52805447651218 L224.53205013560319,133.19173178303038 M263.3302030904522,119.25226790667836 L263.3302030904522,60.78583192589331 M215.04286148228533,52.52501643132129 L263.6676297750175,61.1886937390676 M231.5990088426235,133.17304224057506 L264.5919256107403,119.94645037593483 M174.98298600667584,65.7702978383327 L207.9759027747939,52.543705973691985 M633.0671768086443,189.39539659596332 L633.0671768086443,115.57296763391722 M601.195841812248,101.8735816649307 L601.195841812248,102.21632275305276 M601.1958418122481,191.39474471343613 L601.1958418122481,220.62796269529065 M633.0671768086443,189.39539659605003 C633.070732478102,191.29485455656805 632.4898669921889,193.18970780767356 631.4227427202121,194.76098159237114 M631.4227427202121,194.76098159237114 C630.3613820369836,196.3361542871624 628.8187388761197,197.58039125582619 627.0543560918777,198.28388722399546 M625.6039551637982,106.23283387225729 C627.7059300534223,106.70234163055235 629.632229266473,107.9092042343513 630.972128345787,109.59520801305474 M630.972128345787,109.59520801305474 C632.3209380934842,111.2740917341816 633.0730294952464,113.41920350890231 633.0671768086443,115.57296805447568 M521.9978434329063,87.7625447290367 L497.68545928845674,83.43070607550501 M492.44236894773013,83.96988341265897 C494.0941591298286,83.3048559730507 495.9328931540423,83.11576826406775 497.6854588518234,83.43070599770824 M475.80576973309417,209.71987234359506 L475.80576973309417,197.07339309494262 M475.80576973309417,90.63936066361322 L492.44236886486215,83.96988344587999 M601.1958418122479,220.627962274732 C601.1990353847235,222.4987354133927 600.6362675556455,224.3649359864945 599.5993641147865,225.92205948499216 M622.443398476512,175.19877564187212 C622.4469541459557,177.09823360237974 621.8660886600388,178.99308685347202 620.7989643880626,180.5643606381577 M620.7989643880626,180.5643606381577 C619.7376037048341,182.13953333293702 618.1949605439769,183.38377030159094 616.4305777597442,184.08726626975636 M454.5582130688299,193.6303685954568 L476.1431964173512,197.4762548997133 M622.4433984765121,105.65934725272791 L622.4433984765121,175.19877564172373 M601.1958418122479,89.56984350458967 L550.8043509491174,80.59138188465707 M545.5612579084835,81.13056030418221 C547.2130489255984,80.46553194013771 549.0517841647625,80.27644386704773 550.8043509492958,80.59138188468887 M616.4305776768763,184.08726630297753 L599.9341192657193,190.7005622461611 M593.714965339763,211.64937768951614 L627.0543560090084,198.28388725721715 M545.5612605255227,81.13055925503205 L529.0648021149099,87.74385519799752 M625.5863003361592,246.13385183936504 L625.5863003361592,233.14463216469954 M648.2357204332997,103.4746346266631 C651.5393007974955,102.14457974744745 655.216768845921,101.76640432948116 658.7219002414816,102.39627979676129 M675.4753344089215,105.38130887801995 L658.7219011147524,102.39627995235554 M625.5863003361592,112.5546028423 L648.235720267563,103.47463469310551 M770.1286611731457,109.94234782577831 L711.8407927754129,99.5569557615076 M791.1280479857738,126.69640570329899 C791.2931361838848,127.7119153699972 791.3762176980767,128.74074490060343 791.3762178374097,129.7695859944139 M770.1286611731457,227.46598378713992 L770.1286611731457,243.52159682284338 M770.1286611731459,122.24608598611934 L770.1286611731459,122.93156749770304 M791.3762178374101,203.592017550368 C791.3766930740265,205.49059588016902 791.0924714133989,207.388959866888 790.5356599439351,209.20401252689643 M790.5356599439351,209.20401252689643 C789.9797147133518,211.01933703524526 789.1514906932099,212.75089045065124 788.0873496605496,214.32318754301414 M788.0873496605496,214.32318754301414 C787.0239290764824,215.89597199913868 785.724902499174,217.3090403659879 784.2468042662822,218.50055359879008 M784.2468042662822,218.50055359879008 C782.7692806916979,219.69276971077548 781.1129964808074,220.6629709224814 779.3505764038795,221.3689988062663 M701.3546066940503,100.63531260059592 C704.658188728185,99.30525587252527 708.3356592064019,98.9270797263091 711.8407927753883,99.55695576150322 M609.5077204089675,230.96532618600435 L626.2611537032226,233.95035511168413 M791.3762178374102,129.76958858815686 L791.3762178374102,203.59201755020302 M779.3505762381383,221.36899887271056 L767.6052156146482,226.07761837312546 M609.5077172775894,230.96532562807343 C607.8059318050341,230.66211113723674 606.1455970738159,230.12713485603163 604.5869135235309,229.37979396184429 M701.3546119282234,100.63531050225757 L689.6092513061215,105.343930002116" />
    <path class="edge sharp visible" d="M17.935667498198157,44.58986286271896 C19.420990916576564,44.85546688630138 20.836200728074935,44.943009582242674 22.050045754399342,44.80885251151075 M22.050045754399342,44.80885251151075 C22.756615773050687,44.73159026846758 23.386844434550977,44.58226263237301 23.94073173890012,44.360869603227 M23.94073173890012,44.360869603227 C24.9716229780275,43.94926936133138 25.697995265538296,43.286949240309916 26.092252277381277,42.4394736530989 M23.247556664264195,51.68817333983877 C24.29263894052061,51.271768313585824 25.15292228849847,50.51426818362226 25.71063338350761,49.41009104187772 M25.71063338350761,49.41009104187772 C26.20741106474871,48.43409563546152 26.46534860319,47.18987215111076 26.464178305182333,45.74923559742711 M26.464178305182337,45.749235597427116 C26.464388162687538,44.73102629525252 26.337067744086706,43.616322750387546 26.092252217431053,42.4394737542823 M33.8713349963963,102.79600877510151 C33.87648570351753,100.65768691712776 33.31789853878061,98.41703046621298 32.14090724828081,96.33582218226366 M67.29848647454861,97.50362025980235 C66.99437998681144,98.15309220577768 66.72202841695243,98.99527890134222 66.49586107228319,100.00780530126386 M66.49586107228319,100.00780530126386 C66.26946278589074,101.01896313585999 66.08970890848984,102.20081688996251 65.96461629284329,103.49216581228649 M65.96461629284329,103.49216581228649 C65.81332400741238,105.04621871079668 65.74225649519944,106.75486171571957 65.7426699927926,108.47465715679736 M67.29848621362184,97.50362014645165 C65.86924036607063,96.58652388197655 64.45120596533236,95.81456401145411 63.099132772221786,95.2258692309539 M63.099132772221786,95.2258692309539 C61.74697281085365,94.63629883644509 60.461791558924276,94.2311312424723 59.29619121075682,94.02401195518746 M59.2961912107568,94.02401195518743 C57.62621759562368,93.72445209414897 56.210905393836256,93.83713555329297 55.118891660660495,94.27803620255773 M65.7426699927926,34.65222819475121 C65.7422564953454,36.37091851914938 65.81332400681535,38.269497439021606 65.96461629284315,40.22789597715457 M65.96461629284315,40.22789597715457 C66.08970894124079,41.853569455077604 66.26946283127528,43.51583535471754 66.495860944826,45.132066962950816 M66.495860944826,45.132066962950816 C66.72202815623156,46.74905008486436 66.99437938016531,48.3191258292043 67.29848647548529,49.78135951767572 M81.67833749099074,55.947159626110675 C80.19594264391793,55.683989468650374 78.49812222994905,55.217162265658274 76.68087120417212,54.5435565770413 M76.68087120417212,54.5435565770413 C73.65754591066299,53.42965423013037 70.33615539155113,51.73549270164255 67.29848674866886,49.781359921118884 M102.92589415525495,47.429187053566885 C101.44185130768534,47.166677566095515 100.0277972828435,46.5860907267462 98.81465441863656,45.67030299186271 M98.81465441863656,45.67030299186271 C97.80466643836917,44.91107053270892 96.93555659968351,43.92343746835731 96.2534886546612,42.75278847902777 M96.2534886546612,42.75278847902777 C95.57004073411427,41.58296639821969 95.07293718693774,40.23214091644599 94.76930932322684,38.76853057795343 M86.99022665705681,26.134255622207412 C86.98816410258107,27.852654413670507 87.34309489980618,29.636239662928304 88.09870065429034,31.351156673846468 M88.09870065429034,31.351156673846468 C88.72401611249882,32.77678255286591 89.62282546087349,34.15135310654403 90.75504123678692,35.40503822066521 M90.75504123678692,35.40503822066521 C91.8860992486622,36.65984497442285 93.24826697530698,37.79362943076072 94.76930916623054,38.76853038697082 M81.67833749099074,92.85837410713376 C80.19379569028544,92.59194691549774 78.49318220009923,92.61856274448138 76.67296052930948,92.99595351987455 M76.67296052930948,92.99595351987455 C75.62100428774433,93.21295009165449 74.53117044825997,93.54502170195926 73.43010841269455,93.98663387605508 M73.43010841269455,93.9866338760551 C71.37122984319825,94.81034508055814 69.27757825039161,96.02079570767613 67.29848677632309,97.503619981889 M67.29848622641393,49.78135994188919 C64.34681451831852,51.99259624908774 61.444103607135034,53.960577311112296 59.0705520649262,55.35191527727098 M59.0705520649262,55.35191527727098 C57.497875424530406,56.2762606497683 56.16161655129498,56.94965715401908 55.11889166066051,57.366821721534635 M55.1188916606605,94.27803620255773 L44.49511332852839,98.53702248882962 M44.4951133285284,98.53702248882962 L44.4951133285284,61.62580800780654 M55.1188916606605,57.366821721534635 L44.49511332852839,61.62580800780653 M12.623778332132094,55.947159626110675 L44.495113328528404,61.62580800780654 M12.623778332132105,55.947159626110675 L12.623778332132105,92.85837410713377 M12.623778332132101,92.85837410713376 L44.495113328528404,98.53702248882962 M86.99022665705681,7.678648381695872 L86.99022665705681,26.13425562220742 M86.99022665705681,7.678648381695862 L65.7426699927926,16.19662095423965 M65.7426699927926,34.6522281947512 L65.7426699927926,16.196620954239656 M33.8713349963963,28.973579813055352 L33.8713349963963,10.517972572543805 M33.87133499639631,10.517972572543787 L65.7426699927926,16.196620954239645 M55.1188916606605,2.0000000000000053 L33.8713349963963,10.517972572543794 M86.99022665705681,7.678648381695869 L55.1188916606605,2.00000000000001 M97.6140049891889,58.786483816958594 L81.67833749099076,55.94715962611067 M97.61400498918891,58.786483816958594 L97.61400498918891,95.69769829798167 M97.61400498918891,95.69769829798167 L81.67833749099074,92.85837410713374 M102.92589415525495,47.429187053566885 L118.8615616534531,50.26851124441481 M118.86156165345311,87.17972572543789 L118.86156165345311,50.268511244414796 M118.86156165345311,50.26851124441481 L97.6140049891889,58.786483816958594 M97.6140049891889,95.69769829798167 L118.86156165345311,87.17972572543789 M12.623778332132094,55.947159626110675 L23.247556664264202,51.68817333983878 M97.6140049891889,40.33087657644705 C96.70320432483786,40.69648750668416 95.93167773409584,40.90200608522356 95.38021532379759,40.901232149917575 M108.23778332132102,36.071890290175155 L97.61400498918891,40.330876576447054 M108.237783321321,48.37562845051619 L108.237783321321,36.071890290175155 M88.35316909080092,94.04765662908142 C87.42464810856897,96.02650263596122 86.98706973818146,98.05535375057272 86.99022665705681,99.95668458425357 M86.99022665705681,99.95668458425358 L86.99022665705681,118.41229182476513 M65.7426699927926,126.93026439730892 L65.7426699927926,108.47465715679736 M86.99022665705681,118.41229182476513 L65.7426699927926,126.93026439730892 M33.87133499639631,121.25161601561304 L65.7426699927926,126.9302643973089 M33.8713349963963,121.25161601561305 L33.8713349963963,102.79600877510151 M12.623778332132105,80.55463594679273 L2.000000000000007,78.66175315289411 M2.0000000000000004,41.750538671871034 L1.9999999999999998,78.66175315289411 M17.935667498198153,44.58986286271895 L2.0,41.75053867187103 M23.247556664264202,33.232566099327244 L32.50839256265219,34.882607768227466 M2.0000000000000018,41.75053867187103 L23.247556664264206,33.232566099327244 M108.23778332132102,36.07189029017516 L88.72065441698805,32.59444221715056 M26.09225257904863,42.43947336123027 C27.61152185092623,41.303289070948914 28.972281130980527,40.02555218992633 30.102552530854847,38.65165927451952 M30.102552530854847,38.65165927451952 C31.233974393378265,37.278760521702026 32.132623776091556,35.81008284941641 32.758464680958795,34.319445793105594 M32.758464680958795,34.319445793105594 C33.5170629511374,32.520373508313696 33.87341448117354,30.695092956215554 33.8713349963963,28.973579813055345 M171.98045331411362,65.88479429407843 C173.13200120211917,66.09248048052967 174.21489443586472,66.08173103937354 174.98298589107466,65.77029811938336 M174.9829858910747,65.77029811938336 C175.48908902423275,65.56836606335828 175.85817774273835,65.24085790555907 176.05874625998004,64.80959992643965 M174.63639789714662,69.43394953263835 C175.3231611960909,69.16200684667284 175.85755344577893,68.58693843148266 176.09706206196554,67.68916989423893 M176.09706206196554,67.68916989423893 C176.19497155910398,67.3271993924795 176.24418700258184,66.91896951019949 176.2447083923985,66.46448024739867 M176.2447083923985,66.46448024739868 Q176.24447402981477,65.70422702896133 176.05874627804644,64.80959993483175 M228.53319774028137,134.93153528773237 C228.28991201641554,135.44914847707133 228.093683806395,136.2079726384187 227.96315940446107,137.11608309197382 M227.96315940446107,137.11608309197382 C227.8194594297224,138.1063481047127 227.75471568874815,139.26448839170584 227.75528955780715,140.41705430383655 M228.53319776897422,134.9315353086474 C227.0698590998669,133.9898083750705 225.66875259170695,133.39026522060325 224.53205014664064,133.19173172053965 M224.53205014664064,133.19173172053968 C223.68564766372117,133.04021450514168 222.98337103973006,133.10108243159064 222.44340039174108,133.31874382671677 M227.75528955780715,66.5946253417904 C227.7547084323887,67.74894113335023 227.8198413380704,69.08449980160358 227.96439190238067,70.46295953085983 M227.96439190238067,70.46295953085983 C228.0949056974016,71.71614500233231 228.29067830088184,72.99502478484001 228.53319774091042,74.15919143633187 M235.72312330690625,77.24209105747015 C234.7305050858812,77.0665568498688 233.52741897490068,76.70247782854875 232.22032004844766,76.13727174653748 M232.22032004844766,76.13727174653748 C231.02366805332846,75.62172469227376 229.7484510171652,74.93971243826833 228.53319763420666,74.15919128615377 M267.59445830330253,64.46513219865447 C266.5995524132714,64.2905150989427 265.6550208648315,63.82278365739257 264.9218026587652,63.02751346432109 M264.9218026587652,63.02751346432109 C264.24725796096004,62.30265786353189 263.75744623723665,61.3057830396229 263.5161653780872,60.134804257177755 M259.6266245542034,53.81766648297473 C259.62373717734056,54.97126272610023 259.94842566971585,56.2004920635896 260.66904543574987,57.34576436418135 M260.66904543574987,57.34576436418135 C261.3216426682116,58.39154120492716 262.3016486850369,59.35831845062633 263.5161653813714,60.13480428208936 M235.72312330690622,132.60891277900475 C234.729495831525,132.42921271345799 233.52494309268224,132.51467462073265 232.21631244691216,132.9475431875965 M232.21631244691216,132.9475431875965 C232.01246136358114,133.01464936445413 231.80669353449284,133.0898156208542 231.59900895964674,133.1730419567966 M231.5990089596467,133.1730419567966 C230.5884611058919,133.57720186658395 229.5402271029964,134.17697377861697 228.5331976296286,134.93153538881938 M228.53319777604574,74.15919132022391 C227.3621274283114,75.03597548495941 226.22827585690786,75.82160597075028 225.2413850257756,76.44319940998204 M225.2413850257756,76.44319940998204 C224.07760299710344,77.1774350875753 223.1268098312408,77.67907775954471 222.44340039174105,77.95192210518213 M259.62662455420343,81.50107734374203 L235.72312330690625,77.24209105747013 M259.62662455420343,81.50107734374204 L259.62662455420343,136.86789906527665 M259.62662455420343,136.86789906527667 L235.72312330690622,132.60891277900478 M264.9385137202695,60.91597696009454 C264.4873731195451,61.09701485864712 264.1004743528154,61.20142608911286 263.82161915922,61.2011545259056 M267.59445830330253,64.46513219865446 L291.4979595505998,68.72411848492635 M291.4979595505997,124.09094020646098 L291.4979595505997,68.72411848492636 M280.87418121846764,54.52749753068671 L259.62662455420343,50.741731942889466 M280.87418121846764,66.83123569102773 L280.87418121846764,54.5274975306867 M280.87418121846764,54.5274975306867 L264.9385137202695,60.91597696009455 M227.75528955780715,168.10046516460392 L227.75528955780715,140.41705430383658 M259.62662455420343,155.3235063057882 L227.75528955780715,168.1004651646039 M259.62662455420343,136.86789906527667 L259.62662455420343,155.32350630578821 M291.4979595505997,68.72411848492635 L259.62662455420343,81.50107734374203 M259.62662455420343,136.86789906527667 L291.4979595505997,124.09094020646098 M259.62662455420343,26.13425562220742 L259.62662455420343,53.81766648297473 M259.62662455420343,26.134255622207412 L227.75528955780715,38.911214481023094 M227.75528955780715,66.59462534179042 L227.75528955780715,38.911214481023094 M158.70073039894848,118.88551252323978 L148.0769520668164,116.99262972934117 M148.07695206681638,61.62580800780655 L148.07695206681638,116.99262972934116 M171.98045331411365,65.88479429407843 L148.0769520668164,61.62580800780653 M259.62662455420343,26.134255622207423 L211.819622059609,17.616283049663632 M222.44340039174108,133.31874382671674 L206.50773289354294,139.7072232561246 M206.50773289354294,139.7072232561246 L206.50773289354294,84.34040153458997 M222.44340039174108,77.95192210518212 L206.50773289354294,84.34040153458997 M158.7007303989485,75.82242896204619 L206.50773289354294,84.34040153458997 M158.70073039894848,75.82242896204617 L174.63639789714662,69.43394953263834 M148.0769520668164,61.62580800780654 L179.9482870632127,48.848849148990865 M179.94828706321272,159.5824925920601 L227.75528955780715,168.1004651646039 M179.94828706321266,159.58249259206013 L179.94828706321266,134.97501627137805 M176.05874615255635,64.80960002796002 C177.2729441272667,63.903512821914426 178.2527605153648,62.8322929494986 178.9053530572211,61.71706346130017 M178.9053530572211,61.71706346130017 C179.6263269461063,60.494484679386304 179.9511774616814,59.23021436383884 179.9482870632127,58.07665276924663 M179.94828706321266,58.076652769246635 L179.94828706321266,30.39324190847931 M179.94828706321272,30.393241908479308 L227.75528955780715,38.911214481023094 M158.7007303989485,131.1892506835808 L206.50773289354294,139.7072232561246 M211.81962205960897,17.616283049663625 L179.9482870632127,30.393241908479308 M158.70073039894848,75.82242896204619 L158.70073039894848,131.1892506835808 M304.7776824657648,95.6976982979817 L326.02523913002904,87.17972572543792 M304.7776824657648,169.5201272600279 L304.7776824657648,95.6976982979817 M368.52035245855745,180.87742402341956 L389.76790912282166,172.35945145087578 M304.7776824657648,169.5201272600279 L368.52035245855745,180.87742402341956 M294.15390413363275,155.32350630578821 L304.7776824657649,157.21638909968684 M294.15390413363275,81.50107734374205 L326.02523913003006,87.17972572543809 M294.15390413363275,81.50107734374205 L294.15390413363275,155.32350630578821 M368.52035245855745,107.0549950613734 L389.76790912282166,98.53702248882962 M326.02523913003006,87.17972572543809 L389.7679091228207,98.53702248882944 M304.7776824657648,95.6976982979817 L368.52035245855745,107.0549950613734 M368.52035245855745,180.87742402341956 L368.52035245855745,107.0549950613734 M389.7679091228217,172.35945145087578 L389.7679091228218,98.53702248882962 M389.7679091228217,209.27066593189886 L389.7679091228217,172.35945145087578 M326.02523913002904,197.91336916850716 L326.02523913002904,173.3058928478251 M389.7679091228217,209.27066593189886 L326.02523913002904,197.91336916850716 M326.02523913002904,68.72411848492638 L294.15390413363275,81.50107734374205 M389.7679091228217,98.53702248882962 L389.7679091228217,61.62580800780654 M389.7679091228217,61.62580800780654 L326.02523913002904,50.26851124441482 M326.02523913002904,87.1797257254379 L326.02523913002904,50.26851124441482 M389.7679091228207,172.3594514508756 L421.639244119218,178.03809983257162 M421.639244119218,104.21567087052547 L421.639244119218,178.03809983257162 M389.7679091228207,98.53702248882945 L421.639244119218,104.21567087052547 M432.2630224513501,192.2347207868113 L432.2630224513501,173.77911354629975 M432.2630224513501,192.2347207868113 L389.7679091228217,209.27066593189886 M368.52035245855745,33.232566099327244 L326.02523913002904,50.26851124441482 M432.2630224513501,44.58986286271896 L389.7679091228217,61.62580800780654 M432.2630224513501,81.50107734374204 L432.2630224513501,44.58986286271896 M389.7679091228217,98.53702248882962 L432.2630224513501,81.50107734374204 M432.2630224513501,44.58986286271896 L368.52035245855745,33.232566099327244 M443.9344347366979,169.1001393329188 L421.639244119218,178.03809983257162 M464.13435744774637,87.1797257254379 L421.639244119218,104.21567087052547 M464.13435744774637,87.1797257254379 L464.13435744774637,95.31833487699416 M432.2630224513491,81.50107734374187 L464.13435744774637,87.1797257254379 M432.2630224513501,69.197339183401 L453.5105791156143,72.98310477119824 M453.5105791156143,85.28684293153927 L453.5105791156143,72.98310477119824 M432.2630224513501,81.50107734374203 L453.5105791156143,72.98310477119824 M551.7805286878362,130.47941963586882 C551.7811718133102,129.2924914550599 551.7121649935556,127.91331562605046 551.5588272557916,126.49227389075911 M551.5588272557916,126.49227389075911 C551.4287240021702,125.27865344113026 551.2377427905114,124.04375618440562 551.0026205393025,122.91485364582557 M551.0026205521515,122.91485359342968 C552.1724991360734,122.03896300036897 553.3052439051829,121.25402912217152 554.2914245632072,120.63274235292201 M554.2914245632072,120.63274235292201 C555.4565589437864,119.89748803402439 556.4084256869191,119.39519653787828 557.0924178539021,119.1221228724771 M557.0924178539022,119.12212287247709 L599.5875311824306,102.08617772738953 M599.5875311824306,102.08617772738955 C600.1288736953915,101.86876074841364 600.5770983550769,101.76262741686284 600.8584151411983,101.8134608832718 M543.8126949387371,119.83195392018911 C544.8408195396331,120.0136249155916 546.0956691084509,120.39830166216291 547.4582312801222,120.99898854944593 M547.4582312801222,120.99898854944593 C548.6117654713244,121.50574789786803 549.8340478574363,122.164434307503 551.0026204980029,122.91485358949984 M551.0026205366443,209.7873676149314 C551.2377427890623,209.2868557247024 551.4287240016831,208.5623772239221 551.5588272557912,207.6964723424062 M551.5588272557912,207.6964723424062 C551.7121649935561,206.68524294938393 551.7811718133104,205.49049560385404 551.7805286878362,204.301848597915 M551.0026205455555,209.7873676401344 C552.4659592145937,210.72909455102175 553.867065363283,211.32863757349878 555.0037681000564,211.5271711832447 M547.9368093157615,211.5458608867643 C548.9462679738912,211.14213536525756 549.9944599853416,210.54276889447306 551.0026205083411,209.78736765077474 M475.8057698619625,107.8949711931883 Q475.80578590357436,108.439382143199 475.90178193371344,109.0564773941604 M480.07002494594457,108.47465715679738 C478.9190467496569,108.26712725747262 477.8363915143551,108.27749838648471 477.06749239559497,108.58915336662366 M551.7805286878362,204.30184859791498 L551.7805286878362,130.47941963586882 M543.8126949387371,119.83195392018911 L480.0700249459445,108.47465715679738 M697.8574807546526,141.12688535154857 L634.11481076186,129.76958858815684 M625.5863000186234,128.6102158890457 Q625.5869851489495,129.70696752730555 625.7783254112366,130.93322879274615 M634.1148107618599,129.76958858815686 C632.5458019637589,129.48888592826356 631.0550997308325,129.4072986196525 629.7947721811905,129.57544648561432 M629.7947721811905,129.57544648561432 C629.1709930058665,129.6577920846887 628.6093176563271,129.79883713309883 628.1097461325705,129.99858163084443 M713.7931482528506,162.42181678290805 C713.793642943098,160.606504300691 713.7141972047108,158.58989312530366 713.5446545041909,156.51100076518208 M713.5446545041909,156.51100076518208 C713.2913783674337,153.37086284293395 712.8286142471896,150.12516422006573 712.2373317377408,147.29268550280264 M712.2373319300539,147.29268509742906 C715.1869713786353,145.08297649457683 718.0877290856276,143.11615991447113 720.4603715798727,141.7250051283898 M720.4603715798727,141.7250051283898 C722.0351561081336,140.79919276953848 723.3731248635044,140.12481576604912 724.4169265849825,139.70722325612462 M697.8574807546526,141.1268853515486 C699.4239668396758,141.40484854317899 701.2317335874294,141.91083108997773 703.1694710888793,142.6485130657557 M703.1694710888793,142.6485130657557 C706.0957099974825,143.75646708211823 709.2906067934747,145.3977695788577 712.2373314539265,147.29268512428104 M712.2373317361573,247.2152824698225 C712.5324081051883,246.5850277107253 712.7968810440492,245.7751017925834 713.0181397342292,244.8075425240674 M713.0181397342292,244.8075425240674 C713.2396016291442,243.8411120113994 713.4174992039806,242.71685930838572 713.5448767502065,241.48879569623375 M713.5448767502065,241.48879569623375 C713.7142680916946,239.86358191232134 713.7936420296787,238.06008379239444 713.7931482528506,236.2442457449542 M712.2373319245578,247.2152827300293 C713.6665764836929,248.13237800331146 715.0846054035948,248.90433527216248 716.4366800390399,249.49303129139656 M716.4366800390399,249.49303129139656 C717.7888405376121,250.0826026397244 719.074028830269,250.4877723525588 720.2396270334694,250.69489094170638 M706.1057099596293,250.73226931392975 C708.1583236924886,249.9110783801993 710.2519881659814,248.70277860216947 712.2373314311264,247.21528274755335 M766.9120399135112,122.67127811103704 C768.0076469180744,122.2310177016449 768.8994684388131,122.0250616821327 769.4538078777578,122.1258444039164 M724.4169265849828,139.70722325612462 L766.9120399135111,122.67127811103705 M713.7931482528506,236.2442457449542 L713.7931482528506,162.42181678290802" />
    <path class="edge outline visible" d="M625.1707992740417,106.14529960228842 L600.8584151295781,101.81346094875423 M601.1958418122481,72.98310477119828 L601.1958418122481,101.87358166493068 M529.5567942848531,52.198139976177785 L593.2994642776455,63.55543673956949 M524.3137012441997,52.73731839571076 C525.965492261286,52.07229003167374 527.8042275004153,51.8832019585746 529.556794284924,52.19813997619042 M625.1707992740281,106.145299602286 C625.315832245085,106.17114073026094 625.4602687988375,106.20032917855082 625.6039551637982,106.23283387225727 M593.2994642776127,63.55543673956365 C594.3951833392413,63.75020155501544 595.4562756904108,64.13810141819678 596.4190069395815,64.69627254823841 M596.4190069395815,64.69627254823841 C597.3821784038904,65.253701875906 598.2465969746435,65.98093470139959 598.96085428417,66.83433677737715 M598.96085428417,66.83433677737715 C599.6757354611277,67.68721631771562 600.2400635853021,68.66579733950374 600.6198985770698,69.71181459750261 M600.6198985770698,69.71181459750261 C601.00054108856,70.75752858659733 601.1962986760868,71.87021104286832 601.1958418122479,72.98310519175588 M481.81859053273,69.77326249164034 L524.3137038612583,52.73731734655277 M584.5592426803556,215.3198324023546 C582.9074528316194,215.98485972398123 581.0687192105931,216.17394751141725 579.3161538225609,215.85901005164246 M579.3161522568853,215.8590097726797 L555.0037681114534,211.52717111897306 M552.6879076846812,246.5523985013924 C551.0361178357617,247.2174258232496 549.1973842144603,247.40651361079085 547.4448188261754,247.0915761509717 M552.6879076840837,246.55239850163196 L595.183021012612,229.5164533565444 M475.80576973309417,78.66175315289414 L475.80576973309417,107.89497113509756 M475.80576973309417,226.30661107698643 L475.80576973309417,209.71987234359506 M449.9472555363337,101.00582859096755 L475.80576973309417,90.63936066361322 M454.55821306882996,124.09094020646097 L454.55821306882996,197.9133691685072 M531.440353636898,218.15915554398657 C529.7885626197717,218.82418390804472 527.9498273805896,219.01327198113984 526.1972605960406,218.69833396349486 M443.9344347366978,183.71674821426757 L443.93443473669794,109.8943192522214 M483.70214570202677,235.73427882965322 C482.60642694432045,235.53951388014403 481.5453349116968,235.15161398535946 480.582603945289,234.59344291722388 M480.582603945289,234.59344291722388 C479.61943276413064,234.0360136506874 478.7550144402677,233.30878097925853 478.04075730181074,232.45537911964092 M478.04075730181074,232.45537911964092 C477.32587629653494,231.60249979515768 476.7615482677438,230.62391905094466 476.38171327261233,229.577902087469 M476.38171327261233,229.577902087469 C476.00107075859296,228.53218839266285 475.8053130693126,227.41950624705314 475.80576973309434,226.3066123738536 M454.55821306883,124.09094062701934 C454.5546573117969,122.19148211032518 455.13552306333867,120.2966282841432 456.20264785440503,118.72535417966144 M456.20264785440503,118.72535417966144 C457.2640090505742,117.15018115983501 458.8066529696663,115.90594413145186 460.5710364855214,115.2024484960514 M526.1972605962247,218.6983339635276 L462.45459060343217,207.34103720013593 M599.5993641147863,225.92205948499216 C598.5363017143047,227.53088691082877 596.9742038100753,228.8022540386708 595.1830183955583,229.51645440569948 M475.8057697330943,78.6617518560283 C475.80221432235857,76.7622940967936 476.38307993834536,74.86744112365629 477.45020420981075,73.29616758244208 M477.45020420981075,73.29616758244208 C478.51156489522384,71.72099513234966 480.0542079297728,70.47675836967032 481.8185905327392,69.77326249163664 M477.0674922796226,108.5891536020236 L460.5710338684659,115.20244954520723 M451.83081227130015,193.14441624589625 L454.5582130688299,193.6303685954568 M462.45459060345695,207.34103720014036 C461.35887154182933,207.1462723846876 460.29777919066044,206.75837252150572 459.3350479414906,206.2002013914638 M459.3350479414906,206.2002013914638 C458.3718764771826,205.64277206379577 457.50745790643055,204.91553923830213 456.7932005969044,204.06213716232472 M456.7932005969044,204.06213716232472 C456.0783194199482,203.20925762198635 455.5139912957743,202.2306766001987 455.134156304007,201.1846593422002 M455.134156304007,201.1846593422002 C454.7535137925173,200.138945353106 454.5577562049907,199.02626289683556 454.5582130688299,197.91336874794868 M622.4433984765121,101.37634667967754 L622.4433984765121,105.65934725272794 M614.5470209419098,91.94867864804878 L601.1958418122479,89.56984350458966 M614.5470225075932,91.9486789270132 C615.6427412652992,92.14344387652395 616.703833297923,92.53134377131023 617.6665642643298,93.08951483944742 M617.6665642643298,93.08951483944742 C618.6297354454875,93.64694410598537 619.4941537693501,94.37417677741605 620.208410907805,95.22757863703492 M620.208410907805,95.22757863703492 C620.9232919130804,96.0804579615195 621.4876199418695,97.0590387057339 621.8674549369995,98.1050556692103 M621.8674549369995,98.1050556692103 C622.2480974510174,99.15076936401734 622.4438551402961,100.26345150962788 622.443398476512,101.3763453828276 M547.936809430432,211.5458606501872 L531.4403510198194,218.15915659315266 M451.8308107056219,193.14441596693274 C450.7350919479166,192.94965101742267 449.6739999152943,192.56175112263793 448.71126894888755,192.00358005450195 M448.71126894888755,192.00358005450195 C447.7480977677301,191.44615078796545 446.88367944386874,190.7189181165367 446.16942230541224,189.8655162569193 M446.16942230541224,189.8655162569193 C445.4545413001372,189.01263693243683 444.890213271347,188.03405618822418 444.5103782762156,186.9880392247493 M444.5103782762156,186.9880392247493 C444.12973576219684,185.9423255299441 443.93397807291626,184.82964338433493 443.9344347366979,183.7167495111365 M584.5592426804799,215.3198324023047 L593.714965339763,211.64937768951614 M483.70214726769643,235.73427910861523 L547.444817260489,247.0915758720069 M443.9344347366982,109.8943179553538 C443.93087932596325,107.99486019614001 444.51174494193646,106.10000722302333 445.5788692133806,104.52873368181969 M445.5788692133806,104.52873368181969 C446.64022989877196,102.95356123173784 448.1828729332906,101.70932446905861 449.9472555362285,101.00582859100976 M625.5863003361592,254.69985298546572 L625.5863003361592,246.13385183936504 M604.338743671895,152.4841821149403 L604.338743671895,226.30661107698646 M625.5863003361592,107.0549950613734 L625.5863003361592,128.6102158764138 M694.3603548152654,255.44088706454303 C691.056772781097,256.77094379262934 687.3793023028397,257.14911993884175 683.8741687338206,256.5192439036229 M605.7406069390345,120.51057983819308 L625.5863003361592,112.5546028423 M754.3359061039971,82.52101061642996 C756.5273442272395,82.9105402473458 758.6495289295661,83.6863399737168 760.5749914278931,84.8026822338043 M760.5749914278931,84.8026822338043 C762.5013343564971,85.91754088914378 764.2301714979892,87.37200654013114 765.6586861170309,89.07881069208315 M765.6586861170309,89.07881069208315 C767.0884484709331,90.78456977275691 768.2171047192722,92.7417318163267 768.9767747028009,94.83376633231629 M768.9767747028009,94.83376633231629 C769.7380597257732,96.9251943104972 770.1295749008249,99.1505592230293 770.1286611731459,101.37634752079431 M775.5834627682052,110.9142525248993 L770.1286611731457,109.94234782577831 M775.5834658995539,110.91425308282493 C777.5215321002255,111.2590067767268 779.405634411717,111.90520004602416 781.1470947038836,112.82284870941963 M781.1470947038836,112.82284870941963 C782.8890513307689,113.73957154948461 784.4878999012809,114.92727662407177 785.8688596574333,116.33005669862897 M785.8688596574333,116.33005669862897 C787.2505342031735,117.73213274340695 788.4138538975055,119.34881062857899 789.3040520909068,121.10447028577747 M789.3040520909068,121.10447028577747 C790.1951835287631,122.85964770674825 790.81272742864,124.75333374016957 791.1280479857741,126.69640570329898 M801.9999961695421,217.78863850444264 L801.9999961695421,143.96620954239648 M747.4792412415175,252.6015649721278 C744.1756615440393,253.93161961538814 740.4981943019797,254.3097951902642 736.9930635259077,253.67992027071406 M736.9930603945527,253.67991971278778 L720.2396271049925,250.69489078794456 M715.6079062453457,283.83413107136505 L758.1030195738742,266.7981859262775 M770.1286611731457,243.52159682284338 L770.1286611731459,249.0212046037699 M801.9999961695422,217.78863850461013 C802.0004714061575,219.6872168344113 801.7162497455301,221.58558082113015 801.1594382760662,223.40063348113875 M801.1594382760662,223.40063348113875 C800.6034930454823,225.21595798948738 799.7752690253403,226.94751140489365 798.7111279926797,228.51980849725638 M798.7111279926797,228.51980849725638 C797.647707408612,230.09259295338106 796.3486808313033,231.50566132023005 794.8705825984117,232.69717455303208 M794.8705825984117,232.69717455303208 C793.3930590238265,233.88939066501717 791.7367748129373,234.85959187672313 789.9743547360079,235.56561976050742 M715.6079062451685,283.83413107143605 C712.3043265476734,285.16418571471326 708.62685930559,285.5423612895957 705.1217285294964,284.9124863700386 M770.1286611731459,101.37634667967757 L770.1286611731459,122.24608598611934 M786.2072411003376,125.11087347913897 L769.4538078080814,122.12584455381543 M786.2072411003165,125.11087347913517 C788.3986792235673,125.50040311004325 790.5208639259025,126.2762028364089 792.4463264242384,127.39254509649359 M792.4463264242384,127.39254509649359 C794.3726693528513,128.5074037518304 796.1015064943522,129.96186940281737 797.5300211134015,131.66867355477143 M797.5300211134015,131.66867355477143 C798.9597834673111,133.37443263544705 800.0884397156569,135.3315946790209 800.8481096991899,137.4236291950155 M800.8481096991899,137.4236291950155 C801.6093947221675,139.51505717320168 802.0009098972201,141.7404220857399 801.9999961695423,143.96621038351142 M680.1070500298673,72.24207069208411 C683.4106320640109,70.91201396402738 687.0881025422335,70.53383781782846 690.5932361112195,71.16371385304095 M690.5932361111486,71.1637138530283 L754.3359061039412,82.52101061642003 M637.611941935431,89.27801373886587 L680.1070552639593,72.2420685937783 M593.7149653397629,212.1099901227468 L593.7149653397629,138.28756116070065 M641.3790522739853,273.5551884907923 C639.1876147585746,273.16565859176933 637.0654306933303,272.389858802197 635.1399687605186,271.2735166659231 M635.1399687605186,271.2735166659231 C633.2136263982052,270.15865813284785 631.4847897504833,268.70419278998753 630.0562754735732,266.99738907075164 M630.0562754735732,266.99738907075164 C628.6265134630248,265.29163042178425 627.4978574054467,263.33446893335747 626.7381874151866,261.242435006407 M626.7381874151866,261.242435006407 C625.9769023871513,259.1510076167953 625.5853870085931,256.9256433255766 625.5863003361595,254.69985557917946 M604.3387436718948,152.48418295605825 C604.3382683513106,150.58560407125327 604.6224900957591,148.68723951730115 605.1793018065079,146.87218635083897 M605.1793018065079,146.87218635083897 C605.7352472773684,145.05686133567366 606.5634716947428,143.3253074748572 607.6276132430434,141.75301006134342 M607.6276132430434,141.75301006134342 C608.6910343419825,140.18022528341154 609.9900615520617,138.76715671964132 611.468160475558,137.5756434592807 M611.468160475558,137.5756434592807 C612.9456847402167,136.38342731878677 614.6019696985059,135.41322624856124 616.3643905052738,134.7071986941226 M683.8741687338922,256.51924390363575 L620.1314987410994,245.16194714024397 M770.1286611731462,249.02120376265592 C770.1291364937292,250.91978264746024 769.8449147492815,252.81814720141207 769.2881030385323,254.63320036787377 M769.2881030385323,254.63320036787377 C768.7321575676709,256.4485253830384 767.9039331502978,258.18007924385444 766.8397916019967,259.75237665736773 M766.8397916019967,259.75237665736773 C765.7763705030569,261.3251614352988 764.4773432929793,262.73822999906923 762.9992443694829,263.92974325942936 M762.9992443694829,263.92974325942936 C761.5217201048237,265.12195939992284 759.8654351465365,266.09216047014843 758.1030143397682,266.7981880245869 M625.5863003361594,107.0549924676625 C625.5858253568492,105.15641433910179 625.8700472139029,103.25805059207622 626.4268588127254,101.44299818228698 M626.4268588127254,101.44299818228698 C626.9828041730663,99.62767392418544 627.811028256029,97.89612076928837 628.8751692895353,96.32382392055453 M628.8751692895353,96.32382392055453 C629.9385898747846,94.7510397082109 631.237616391431,93.33797156799864 632.7157145162126,92.1464585218028 M632.7157145162126,92.1464585218028 C634.1932379829617,90.95424259669971 635.8495220386995,89.9840415315811 637.6119419352779,89.27801373892729 M628.1097458946568,129.99858129201783 L616.3643852711667,134.70720079243273 M620.1314987411648,245.16194714025568 C617.9400606179094,244.77241750935235 615.8178759155683,243.9966177829894 613.8924134172275,242.880275522906 M613.8924134172275,242.880275522906 C611.9660704886096,241.76541686757068 610.2372333471034,240.3109512165835 608.8087187280494,238.60414706462808 M608.8087187280494,238.60414706462808 C607.3789563741349,236.8983879839512 606.2503001257865,234.94122594037466 605.4906301422506,232.84919142437687 M605.4906301422506,232.84919142437687 C604.7293451192702,230.75776344618734 604.3378299442168,228.53239853364508 604.3387436718949,226.30661023586993 M706.1057102082252,250.73226966100623 L694.3603495810814,255.44088916288575 M604.5869135235309,229.37979396184429 C601.3488089090541,227.83350839465862 598.5662911418538,225.35303141119877 596.6593320847436,222.31344792671436 M596.6593320847436,222.31344792671436 C594.7429685415427,219.27978489748085 593.7092975424546,215.69834727329953 593.7149653397631,212.10999271645076 M747.479241241742,252.6015649720378 L789.9743545702703,235.56561982695024 M641.3790554053637,273.55518904872326 L705.1217253981563,284.91248581211494 M593.7149653397632,138.28755856698808 C593.7144903604521,136.38898043843264 593.9987122175057,134.49061669141247 594.5555238163246,132.67556428162774 M594.5555238163246,132.67556428162774 C595.1114691766629,130.86024002353096 595.9396932596212,129.1286868686377 597.0038342931217,127.55639001990664 M597.0038342931217,127.55639001990664 C598.0672548783657,125.98360580756571 599.3662813950061,124.57053766735496 600.84437951978,123.37902462115883 M600.84437951978,123.37902462115883 C602.3219029865229,122.18680869605558 603.978187042253,121.21660763093504 605.740606938824,120.5105798382775" />
  </g>
</svg>
