<?xml version='1.0' ?>
<svg xmlns="http://www.w3.org/2000/svg" xmlns:xlink="http://www.w3.org/1999/xlink" version="1.1" width="804.0" height="427.0463746267286">
  <style type="text/css">
.edge {
  fill: None;
}
.edge.visible {
  stroke: #000000;
}
.edge.hidden {
  stroke: #C8C8FF;
}
@media (prefers-color-scheme: dark) {
    .edge.visible {
      stroke: #FFFFFF;
    }
    .edge.hidden {
      stroke: #A00000;
    }
}
</style>
  <g>
    <path class="edge sharp hidden" d="M2.0,399.12496378440375 L109.97291640513853,400.9860373495841 M189.01457705508713,359.0331167139174 L189.01457705508713,254.77165517962447 M189.01457705508713,359.0331167139174 L128.9975512542203,383.09345399106195 M189.01457705508713,359.0331167139174 L279.04011575638737,375.0733415653471 M290.4037291118096,255.45967205399387 L396.49984393791186,249.7885961718924 M396.4998439379118,249.78859617189238 L354.06139800747087,193.07783735087781 M396.4998439379118,249.78859617189238 L417.7190669031323,278.14397558239966 M354.06139800747087,340.5258102855157 L290.4037291118095,255.45967205399387 M354.06139800747087,340.5258102855157 L396.4998439379118,249.78859617189244 M401.2632588720931,205.70433476550576 L459.09119315898783,282.9801624392335 M552.6587563343788,239.31648964487897 L552.6587563343788,135.05502811058602 M552.6587563343788,135.05502811058608 L461.28028467295985,181.64399748836126 M461.2802846729599,181.64399748836124 L552.6587563343788,239.31648964487897 M552.6587563343788,135.05502811058608 L606.9446661471827,207.59762648516522 M606.9446661471828,207.59762648516522 L552.658756334379,239.316489644879 M552.6587563343788,239.31648964487897 L459.0911931589878,282.9801624392335 M459.0911931589879,282.9801624392335 L461.28028467296,181.6439974883612 M549.1167318602882,299.02038729066317 L552.658756334379,239.31648964487897 M461.2802846729599,181.64399748836124 L401.26325887209305,205.70433476550576 M459.0911931589879,114.28157396000779 L461.28028467296,181.64399748836126 M459.0911931589879,114.28157396000779 L552.658756334379,135.05502811058608 M552.6587563343788,135.05502811058608 L549.116731860288,130.32179881143747 M775.5335115736574,55.6624359436604 L732.7098337369794,62.874016279152556 M732.7098337369794,62.874016279152556 L629.8691300994345,29.708806946856434 M629.8691300994345,29.708806946856384 L609.1337576611548,2.000000000000032 M575.5832202866308,230.12625858579582 L575.5832202866308,165.6891316408632 M589.7954559866439,234.70957779111868 L575.5832202866308,230.12625858579588 M575.5832202866308,230.12625858579582 L532.7595424499527,237.33783892128798 M532.7595424499527,237.337838921288 L574.9781702730656,258.13488572030377 M775.5335115736574,224.36102442288606 L732.7098337369794,167.13547781344542 M732.7098337369794,167.13547781344545 L629.8691300994345,198.40739542608213 M629.8691300994345,198.40739542608208 L609.1337576611548,274.96005001351864 M732.7098337369794,167.13547781344545 L732.7098337369794,62.87401627915253 M511.62938949431845,123.64252302695394 L506.2930540236102,137.5333791469296 M506.29305402361,137.5333791469296 L532.7595424499526,237.33783892128804 M629.8691300994345,29.708806946856384 L566.3100798244768,113.4730418697851 M566.3100798244769,113.4730418697851 L629.8691300994346,198.40739542608208 M566.3100798244769,113.4730418697851 L506.2930540236101,137.53337914692963" />
    <path class="edge outline hidden" />
    <path class="edge sharp visible" d="M49.95589060427173,425.0463746267286 L2.000000000000007,399.1249637844038 M2.0,399.12496378440375 L53.97626900313676,323.256665054961 M53.97626900313676,323.25666505496105 L49.95589060427173,425.0463746267286 M109.97291640513855,400.9860373495841 L49.95589060427173,425.0463746267286 M53.97626900313676,323.25666505496105 L109.97291640513855,400.9860373495841 M189.01457705508713,254.7716551796245 L128.9975512542203,278.831992456769 M128.9975512542203,383.09345399106195 L128.9975512542203,278.831992456769 M279.0401157563873,375.0733415653471 L279.0401157563873,270.81188003105416 M279.0401157563873,270.8118800310542 L219.02308995552048,294.87221730819874 M219.02308995552053,399.13367884249163 L219.02308995552053,294.8722173081987 M279.0401157563873,375.0733415653471 L219.02308995552048,399.13367884249163 M189.01457705508713,254.7716551796245 L279.04011575638737,270.8118800310542 M128.9975512542203,383.09345399106195 L219.02308995552053,399.13367884249163 M128.9975512542203,278.831992456769 L219.02308995552053,294.8722173081987 M354.06139800747087,193.07783735087787 L417.7190669031322,278.1439755823997 M417.7190669031323,278.14397558239966 L311.62295207703,283.8150514645011 M311.62295207702994,283.81505146450115 L354.06139800747087,193.07783735087787 M311.62295207702994,283.81505146450115 L290.40372911180947,255.45967205399387 M290.4037291118096,255.45967205399387 L354.0613980074709,193.07783735087787 M354.06139800747087,340.5258102855157 L311.62295207702994,283.81505146450115 M417.7190669031323,278.14397558239966 L354.0613980074709,340.52581028551566 M455.54916868489704,173.985471605792 L455.54916868489704,278.24693314008493 M455.54916868489704,278.24693314008493 L401.26325887209316,205.7043347655058 M401.2632588720931,205.70433476550576 L455.549168684897,173.985471605792 M455.54916868489704,278.24693314008493 L546.927640346316,231.65796376230975 M546.927640346316,231.65796376230972 L455.54916868489704,173.985471605792 M455.54916868489704,278.24693314008493 L459.0911931589879,282.98016243923354 M459.0911931589879,282.9801624392335 L549.1167318602882,299.02038729066317 M549.1167318602882,299.02038729066317 L455.54916868489704,278.2469331400849 M401.2632588720931,205.70433476550576 L459.09119315898783,114.28157396000778 M549.1167318602882,130.32179881143747 L459.09119315898795,114.28157396000779 M459.0911931589879,114.28157396000779 L455.54916868489704,173.985471605792 M455.54916868489704,173.985471605792 L549.1167318602882,130.32179881143747 M606.9446661471828,207.59762648516522 L549.1167318602882,299.0203872906632 M546.927640346316,231.65796376230972 L606.9446661471828,207.5976264851652 M549.1167318602882,299.02038729066317 L546.927640346316,231.6579637623097 M606.9446661471828,207.59762648516522 L549.1167318602882,130.32179881143747 M549.1167318602882,130.32179881143747 L546.927640346316,231.65796376230975 M609.133757661155,2.000000000000057 L699.1592963624552,18.04022485142974 M699.1592963624552,18.040224851429684 L678.4239239241755,94.59287943886626 M678.4239239241756,94.59287943886625 L575.5832202866308,125.86479705150293 M575.5832202866308,125.86479705150293 L532.7595424499527,68.63925044206229 M532.7595424499527,68.63925044206229 L609.133757661155,2.0 M699.1592963624552,18.040224851429684 L775.5335115736575,55.66243594366033 M575.5832202866308,165.6891316408632 L575.5832202866308,125.8647970515029 M678.4239239241756,94.59287943886625 L741.9829741991333,179.52723299516322 M741.9829741991331,179.52723299516325 L678.4239239241754,263.29146791809194 M678.4239239241756,263.291467918092 L589.7954559866439,234.70957779111868 M609.133757661155,274.96005001351875 L699.1592963624552,291.00027486494844 M699.1592963624552,291.0002748649483 L678.4239239241755,263.291467918092 M574.9781702730656,258.13488572030377 L609.133757661155,274.96005001351864 M699.1592963624552,291.0002748649483 L775.5335115736574,224.36102442288603 M775.5335115736574,55.6624359436604 L802.0,155.4668957180188 M802.0,155.46689571801872 L775.5335115736574,224.36102442288603 M532.7595424499527,68.63925044206229 L511.62938949431845,123.64252302695394 M802.0,155.46689571801872 L741.9829741991332,179.52723299516325" />
    <path class="edge outline visible" />
  </g>
</svg>
