<?xml version='1.0' ?>
<svg xmlns="http://www.w3.org/2000/svg" xmlns:xlink="http://www.w3.org/1999/xlink" version="1.1" width="382.20912693360066" height="204.0">
  <style type="text/css">
.edge {
  fill: None;
}
.edge.visible {
  stroke: #000000;
}
.edge.hidden {
  stroke: #C8C8FF;
}
@media (prefers-color-scheme: dark) {
    .edge.visible {
      stroke: #FFFFFF;
    }
    .edge.hidden {
      stroke: #A00000;
    }
}
</style>
  <g>
    <path class="edge sharp hidden" d="M2.0,189.74535729554643 L53.04542805757762,190.62520105585398 M90.41327488982637,170.79147919844135 L90.41327488982637,121.5006837738087 M90.41327488982637,170.79147919844135 L62.03954122820483,182.16627814258734 M90.41327488982637,170.79147919844135 L132.97387538225868,178.3746784945387 M138.34615323971522,121.82595160052222 L188.50430193899922,119.14488577784248 M188.50430193899922,119.14488577784248 L168.44104245928563,92.33422755104509 M188.50430193899922,119.14488577784248 L198.535931678856,132.55021489124115 M168.4410424592856,162.0419389407183 L138.34615323971522,121.82595160052222 M168.4410424592856,162.0419389407183 L188.5043019389992,119.14488577784249 M190.75626069334817,98.30354825531482 L218.09507636712328,134.83657740225476 M262.3302093394597,114.19407794442071 L262.3302093394597,64.90328251978806 M262.3302093394597,64.90328251978808 L219.12999435496965,86.92874931116884 M219.1299943549697,86.92874931116883 L262.33020933945977,114.19407794442071 M262.3302093394597,64.90328251978808 L287.99449253333063,99.19862351571861 M287.9944925333307,99.1986235157186 L262.33020933945977,114.19407794442071 M262.3302093394597,114.19407794442071 L218.09507636712323,134.83657740225476 M218.0950763671233,134.83657740225476 L219.12999435496974,86.92874931116883 M260.65567685955557,142.41977669835208 L262.33020933945977,114.1940779444207 M219.1299943549697,86.92874931116883 L190.75626069334817,98.30354825531482 M218.0950763671233,55.08239507268132 L219.12999435496974,86.92874931116883 M218.0950763671233,55.08239507268132 L262.33020933945977,64.90328251978806 M262.3302093394597,64.90328251978808 L260.6556768595555,62.66559436877867 M367.69679258269406,27.369528809227575 L347.45141032432434,30.77888568735009 M347.45141032432434,30.77888568735011 L298.8322944043331,15.099654604677832 M298.8322944043331,15.099654604677823 L289.0294105211771,2.0000000000000338 M273.1680112104622,109.84929136295335 L273.1680112104622,79.38590445801265 M279.88700778030784,112.01610780683228 L273.16801121046217,109.84929136295337 M273.1680112104622,109.84929136295335 L252.9226289520925,113.25864824107586 M252.92262895209248,113.25864824107586 L272.8819669137352,123.09068938189209 M367.69679258269406,107.123711138801 L347.45141032432434,80.06968111198272 M347.45141032432434,80.06968111198275 L298.8322944043331,94.85383693425126 M298.8322944043331,94.85383693425123 L289.0294105211771,131.04497775420612 M347.45141032432434,80.06968111198275 L347.45141032432434,30.778885687350105 M242.93310807543762,59.50789054003083 L240.41029460118588,66.07495124690115 M240.41029460118585,66.07495124690116 L252.92262895209245,113.25864824107587 M298.8322944043331,15.099654604677823 L268.7840282628074,54.70015230275519 M268.7840282628074,54.700152302755185 L298.8322944043331,94.85383693425123 M268.7840282628074,54.700152302755185 L240.41029460118585,66.07495124690118" />
    <path class="edge outline hidden" />
    <path class="edge sharp visible" d="M24.671694395956095,202.0 L2.0000000000000036,189.74535729554646 M2.0,189.74535729554643 L26.572374151177904,153.87775351504627 M26.572374151177907,153.87775351504627 L24.671694395956095,202.0 M53.045428057577624,190.625201055854 L24.67169439595609,202.0 M26.572374151177907,153.87775351504627 L53.04542805757763,190.625201055854 M90.41327488982637,121.5006837738087 L62.03954122820483,132.8754827179547 M62.03954122820484,182.16627814258734 L62.03954122820484,132.8754827179547 M132.97387538225865,178.37467849453867 L132.97387538225865,129.08388306990602 M132.97387538225865,129.08388306990602 L104.60014172063711,140.45868201405202 M104.60014172063714,189.74947743868466 L104.60014172063714,140.45868201405202 M132.97387538225865,178.37467849453867 L104.60014172063711,189.74947743868466 M90.41327488982637,121.5006837738087 L132.97387538225868,129.08388306990605 M62.03954122820484,182.16627814258734 L104.60014172063714,189.7494774386847 M62.03954122820484,132.8754827179547 L104.60014172063714,140.45868201405204 M168.4410424592856,92.3342275510451 L198.53593167885597,132.55021489124118 M198.535931678856,132.55021489124118 L148.377782979572,135.2312807139209 M148.377782979572,135.2312807139209 L168.4410424592856,92.3342275510451 M148.377782979572,135.2312807139209 L138.34615323971522,121.82595160052222 M138.34615323971522,121.82595160052222 L168.4410424592856,92.3342275510451 M168.4410424592856,162.0419389407183 L148.377782979572,135.2312807139209 M198.535931678856,132.55021489124118 L168.4410424592856,162.0419389407183 M216.42054388721914,83.3080938266127 L216.42054388721914,132.59888925124534 M216.42054388721914,132.59888925124534 L190.75626069334822,98.30354825531481 M190.75626069334817,98.30354825531482 L216.42054388721908,83.30809382661269 M216.42054388721914,132.59888925124534 L259.6207588717092,110.57342245986457 M259.62075887170914,110.57342245986459 L216.42054388721908,83.30809382661269 M216.42054388721914,132.59888925124534 L218.0950763671233,134.83657740225476 M218.0950763671233,134.83657740225476 L260.6556768595556,142.4197766983521 M260.65567685955557,142.41977669835208 L216.42054388721908,132.59888925124534 M190.75626069334817,98.30354825531482 L218.09507636712328,55.082395072681315 M260.65567685955557,62.665594368778656 L218.09507636712326,55.08239507268132 M218.0950763671233,55.08239507268132 L216.42054388721914,83.3080938266127 M216.42054388721914,83.3080938266127 L260.6556768595556,62.665594368778656 M287.9944925333307,99.1986235157186 L260.65567685955557,142.4197766983521 M259.62075887170914,110.57342245986459 L287.9944925333307,99.1986235157186 M260.65567685955557,142.41977669835208 L259.62075887170914,110.57342245986457 M287.9944925333307,99.1986235157186 L260.65567685955557,62.66559436877866 M260.65567685955557,62.665594368778656 L259.62075887170914,110.57342245986459 M289.0294105211771,2.0000000000000284 L331.5900110136094,9.583199296097362 M331.5900110136094,9.583199296097348 L321.7871271304534,45.774340116052215 M321.7871271304534,45.7743401160522 L273.16801121046217,60.55849593832071 M273.1680112104622,60.55849593832069 L252.9226289520925,33.50446591150241 M252.92262895209248,33.50446591150242 L289.02941052117717,1.9999999999999893 M331.5900110136094,9.583199296097348 L367.69679258269406,27.369528809227575 M273.1680112104622,79.38590445801265 L273.1680112104622,60.55849593832071 M321.7871271304534,45.7743401160522 L351.8353932719791,85.92802474754825 M351.8353932719791,85.92802474754826 L321.7871271304534,125.52852244562564 M321.7871271304534,125.52852244562564 L279.88700778030784,112.01610780683228 M289.0294105211771,131.04497775420612 L331.5900110136094,138.62817705030344 M331.5900110136094,138.62817705030344 L321.7871271304534,125.52852244562564 M272.8819669137352,123.09068938189209 L289.02941052117717,131.0449777542061 M331.5900110136094,138.62817705030344 L367.69679258269406,107.123711138801 M367.69679258269406,27.369528809227575 L380.20912693360066,74.55322580340228 M380.20912693360066,74.55322580340227 L367.69679258269406,107.123711138801 M252.92262895209248,33.50446591150242 L242.93310807543762,59.50789054003083 M380.20912693360066,74.55322580340227 L351.8353932719791,85.92802474754826" />
    <path class="edge outline visible" />
  </g>
</svg>
