<?xml version='1.0' ?>
<svg xmlns="http://www.w3.org/2000/svg" xmlns:xlink="http://www.w3.org/1999/xlink" version="1.1" width="101.17298817216323" height="203.99999568304617">
  <style type="text/css">
.edge {
  fill: None;
}
.edge.visible {
  stroke: #000000;
}
.edge.hidden {
  stroke: #C8C8FF;
}
@media (prefers-color-scheme: dark) {
    .edge.visible {
      stroke: #FFFFFF;
    }
    .edge.hidden {
      stroke: #A00000;
    }
}
</style>
  <g>
    <path class="edge sharp hidden" d="M7.085623053224758,192.24148013350097 C5.967562119890622,190.55093343573196 6.256338667487766,188.79585736707878 7.924755688304731,187.13770619041128 C9.584196522997658,185.47898829234404 12.621331438808735,183.91991274340975 16.754931292048923,182.60552620463065 C20.881366733522263,181.28951143775438 26.098543799733747,180.21999731913118 31.92283053451949,179.49590072039354 C37.743180977116424,178.7695389895394 44.16265162324309,178.3895005976196 50.586494693951025,178.39073931434754 C57.010337764658864,178.3895005976194 63.42980841078553,178.76953898953943 69.25015885338262,179.49590072039342 C75.07444558816827,180.21999731913104 80.29162265437985,181.28951143775421 84.41805809585311,182.60552620463056 C88.55165794909328,183.91991274340972 91.58879286490432,185.47898829234416 93.24823369959728,187.13770619041128 C94.91665072041407,188.7958573670788 95.20542726801133,190.5509334357319 94.08736633467726,192.241480133501 M2.8536856117116685,180.9616492925716 C3.726976851545798,179.73167805977394 5.271221934790557,178.535927847714 7.4222613164976075,177.4239784309431 C9.571513552449188,176.31178220197216 12.327560086863064,175.2833867682906 15.576201293637595,174.38146116285532 M15.576201293637595,174.3814611628553 C20.091717911303135,173.1256815015715 25.564710829845474,172.1168410922484 31.562382165210355,171.43621756264474 C37.5571086117044,170.75365885142742 44.07023104542997,170.3993170199291 50.58649469395102,170.40028461073575 C57.10275834247208,170.39931701992896 63.61588077619763,170.75365885142742 69.61060722269168,171.43621756264466 C75.60827855805655,172.11684109224873 81.08127147659889,173.1256815015718 85.59678809426443,174.3814611628553 M85.59678809426443,174.3814611628553 C88.84542532048424,175.2833856644824 91.60146909200823,176.3117796825083 93.75072017407233,177.42397434636544 C95.90175839283881,178.53592219905875 97.44600392214547,179.73167069758338 98.31929735489723,180.96164025878605 M87.33777163773053,188.23075176704066 C83.95168767036664,189.5900361051075 79.4953043250509,190.7571535906061 74.34153007259303,191.63467722441507 C69.19197981484783,192.51387978083056 63.35136114172213,193.10223134991364 57.31140366600067,193.34995192677755 C51.27258070506484,193.5997093480263 45.04124463678081,193.5085585625303 39.140941499280814,193.08428110575278 C33.23864402910272,192.66198129459963 27.673869949626063,191.90707739082293 22.913874716676983,190.88314764125192 C18.14910995424453,189.86080365297286 14.194440824111107,188.5705760628088 11.382627410580962,187.12075980398316 C8.564015939615935,185.67188917151643 6.891564858063126,184.06501165161575 6.5062408173909,182.43510782207412 C6.1132298783809045,180.80534566832338 7.007800101281596,179.15439839554432 9.11373788077492,177.62131434652846 C11.212632626271441,176.0874886420717 14.519660058795708,174.67344663344292 18.758955239120628,173.49746389024764 M18.758955239120635,173.4974638902477 C22.863970346089296,172.35584601635333 27.83941845385508,171.43871837151426 33.29184694055042,170.8199697082381 C38.74159825554501,170.19946178894958 44.66261864984097,169.87733285122397 50.586494693951025,169.87821247922986 C56.510370738061056,169.8773328512238 62.43139113235706,170.19946178894958 67.88114244735164,170.81996970823798 C73.3335709340469,171.4387183715143 78.30901904181277,172.35584601635358 82.41403414878138,173.49746389024764 M82.41403414878138,173.4974638902477 C85.87168236673084,174.45709220400548 88.71412544335064,175.5746137142872 90.77929333839299,176.7870692532957 C92.84769100334914,177.99914154352544 94.13859694599849,179.30549990817715 94.58037468367877,180.632454213644 C95.02548369473973,181.9593289989126 94.62124796010231,183.3061517706914 93.38930665176372,184.59700582982111 C92.16079812027269,185.88808409733306 90.1043674743513,187.12254569789087 87.33777163773053,188.23075176704072 M57.936750082706894,63.816320807455746 C56.89719953867589,64.23524342039161 55.34169983209897,64.56038716826077 53.56911629576505,64.7290280826031 C51.79947994537599,64.89978025913155 49.825244472904004,64.91306317858574 48.02657489300302,64.76634645825774 C46.22548106730935,64.62176962919078 44.610386535259046,64.3180374331697 43.49235590472329,63.91361468733747 C42.3674911466271,63.51051169791496 41.74807238451619,63.00937312788515 41.75258712997935,62.50669521840748 M41.75258712997935,62.506695218407486 C41.75197857254863,62.197628662801705 41.981923778911835,61.888740749145114 42.425036762786824,61.603235564356986 C42.86701608993651,61.31761153117104 43.52179100115191,61.055666741343 44.33996913310098,60.83721866989961 C45.97096637403665,60.39773891727752 48.27057648412894,60.143261837981264 50.586494693950996,60.14576520797614 C52.902412903773076,60.14326183798123 55.202023013865386,60.397738917277564 56.833020254801,60.83721866989961 C57.65119838675012,61.05566674134303 58.30597329796547,61.317611531171124 58.74795262511514,61.60323556435705 C59.191065608990144,61.88874074914519 59.42101081535331,62.197628662801776 59.42040225792263,62.506695218407486 M59.42040225792263,62.506695218407486 C59.42339222368121,62.969687592843144 58.90017767187167,63.431531128045435 57.93675008270689,63.816320807455746 M28.83605887358787,63.52984020985144 C28.277028406920806,62.68456686096702 28.42141668071939,61.807028826640426 29.25562519112785,60.97795323830662 C30.08534560847429,60.148594289273014 31.603913066379857,59.36905651480579 33.67071299299995,58.71186324541627 C35.7339307137366,58.05385586197801 38.34251924684237,57.519098802666576 41.25466261423523,57.15705050329768 C44.16483783553373,56.79386963787068 47.3745731585971,56.60385044191073 50.58649469395098,56.60446980027471 C53.798416229304856,56.60385044191067 57.00815155236825,56.79386963787067 59.918326773666735,57.15705050329761 C62.8304701410596,57.51909880266652 65.43905867416532,58.053855861978015 67.50227639490203,58.71186324541628 C69.5690763215221,59.369056514805756 71.08764377942761,60.148594289273056 71.91736419677412,60.97795323830658 C72.75157270718259,61.80702882664033 72.89596098098112,62.68456686096689 72.3369305143141,63.52984020985144 M34.77688814139539,50.012091373427936 C39.30392611374112,49.10841318281112 44.93637573921851,48.6104045361917 50.58639955311787,48.61381884247655 C56.23642327514549,48.61039369410744 61.868886279593724,49.10839153235367 66.3959485293438,50.012061035810795 M36.44495970989924,51.16357266346308 C38.08130400016724,50.57840704971913 40.2344949335893,50.09707107013319 42.679806198511116,49.77107191505517 C45.12295729618306,49.44384638812385 47.85362031891895,49.271957679455305 50.58658427206787,49.272574567507455 C53.319548248483585,49.27196508663365 56.05020474887658,49.443861196235524 58.493343430068194,49.77109334484575 C60.93864232504354,50.09709912745759 63.09181499438167,50.57844094283267 64.72813708084615,51.16361099154614 M54.261622388328945,54.648941684117915 C53.62282664620191,54.90710213769243 52.58855156402353,55.09213632425609 51.45268880821701,55.15167099080111 C50.31853914138454,55.21364767823705 49.09765141210338,55.1491188709191 48.13648292073956,54.97636917848642 C47.17012848411943,54.80570767443609 46.47746432886058,54.529300424864196 46.25513854860942,54.225603754792985 C46.0235996796116,53.92239416659069 46.26540959879652,53.596159698813125 46.91160122530924,53.339357828043724 C47.55001793822121,53.08117066856459 48.583774990393216,52.89604071698114 49.72006507425808,52.836542905222686 C50.85449396411825,52.77458486055454 52.075569002711795,52.83915648674623 53.0366809035054,53.011919680750246 C54.00301047349499,53.18260033875831 54.695454697274805,53.458977847417486 54.917608694961785,53.76261280271341 C55.14885591656683,54.06573114285432 54.90757599651556,54.392056577325356 54.26162238832894,54.648941684117915" />
    <path class="edge outline hidden" d="M18.758955239120617,173.4974638902477 L15.576201293637578,174.3814611628553 M82.41403414878138,173.4974638902477 L85.59678809426443,174.3814611628553 M18.668217214825884,164.69164484069324 C22.72380135162372,163.63313153004395 27.509189852336352,162.78155821076112 32.68642810973907,162.18754448363686 C38.9956863737077,161.46317245241676 45.912465652508246,161.1294217595355 52.75540275224101,161.21844956316275 C59.5989162553809,161.30456766951986 66.36858757945254,161.81346427238464 72.39919282595592,162.69582500635772 C76.07555820911237,163.23351851266082 79.48985361713973,163.90624610624477 82.50475256870399,164.69154948805013 M41.75258712997935,62.506695218407486 C41.75237068957665,63.312998241743536 41.73328113793862,64.19014805165173 41.703117779869984,65.09698705807766 C41.67220642251399,66.00756664902188 41.631753385783945,66.94063118384925 41.5817586696797,67.89618066255944 M16.30962179423102,166.99578293435928 C16.312006831479938,166.99094248067112 16.479510563656227,166.88929449946664 16.77020775759321,166.74405739304706 C17.0614188942779,166.59794487872392 17.476292503878668,166.40739011505846 17.98722384836681,166.20122067338482 C19.011074056201664,165.785870332176 20.41393071545914,165.31519919688526 22.068642465030994,164.87087015979816 C23.725260229744393,164.42442274785176 25.637472375084577,163.99645817043995 27.727022248786923,163.6170426050169 C29.818486136962452,163.23615508389227 32.0835143327066,162.90891778335424 34.4929688738825,162.63189990243703 C40.131673098371955,161.98740853069842 46.437320207355675,161.68415758015962 52.660507874862404,161.77013849766882 C58.8834769064016,161.8516932486195 65.02398649646393,162.3224798676187 70.32651251198735,163.10655713787293 C72.23122707075672,163.38195220863471 74.02220732636899,163.7070748441711 75.66469561458842,164.05258820896208 C77.30672956875824,164.39859274183115 78.80231050756254,164.76968446571578 80.10395941337536,165.1502792512842 C81.40419822637585,165.5291637384805 82.51254395841188,165.92224774912108 83.3420349931122,166.26605879945618 C84.16916017623726,166.60595808496862 84.71946961405371,166.90128087193614 84.83975784608855,166.97902526158248 M59.59126537910259,67.89617652602885 C59.493097663697924,65.9940578281849 59.42219496870811,64.12783621119227 59.42040225792263,62.50669521840748" />
    <path class="edge sharp visible" d="M87.33777163773053,196.74331809585436 C84.90952918626158,197.71726672918516 81.93501740415951,198.5936511500945 78.54413848656915,199.33424767579112 C75.15455152920899,200.07526204680306 71.34961065773426,200.68024609125425 67.29554010951179,201.12274345360748 C59.190636700253606,202.01255618119717 50.085260188717506,202.23341797648948 41.513351756782654,201.7482367889473 C37.227423676018844,201.5080905472747 33.0770769130365,201.0961504941078 29.243614838375226,200.53039788464983 C25.40916791099384,199.9651224432672 21.892748284826073,199.24619829819216 18.847974823899,198.40502072053067 C15.801735241639017,197.5642231724043 13.22804832182584,196.60142255549968 11.239308954290804,195.5587046905576 C9.248758044497661,194.51623057633583 7.843717683075927,193.3941700651837 7.085623053224759,192.24148013350094 M94.08736633467723,192.24148013350097 C93.03489820175298,193.84540595223532 90.7206483929127,195.388961989536 87.33777163773053,196.74331809585442 M91.01289933210847,190.58807782732754 C88.34183263549268,191.65942132399132 85.0698696751804,192.62344418699178 81.33990286583095,193.43810036525787 C77.6113572127348,194.25321617337113 73.42592225411258,194.9186986222673 68.96644465106786,195.405445720856 C60.05105090088389,196.38423972120472 50.035136738194126,196.62718769602614 40.6060374630658,196.09348838972983 C35.89151657422566,195.82932752388982 31.326135134945048,195.3761934654064 27.10932685281764,194.7538655950026 C22.891435232698125,194.1320626094816 19.02337364391361,193.34124604989927 15.674122836893773,192.4159507144715 C12.32325929640785,191.49107341153254 9.492203684613333,190.4319927329375 7.304590380324779,189.28500308150115 C5.114984379552343,188.13828155585716 3.569439981988507,186.90401499358975 2.7355358891521333,185.6360560687388 M2.735535889152132,185.6360560687388 C1.716902405739136,184.09305976997547 1.7571474871846695,182.5008268189276 2.8536856117116685,180.9616492925716 M98.3192973548972,180.96164025878605 C99.41584171743138,182.50082058907492 99.45608898952773,184.09305675099034 98.43745349874983,185.6360560687388 M98.43745349874985,185.6360560687388 C97.27973855253327,187.40037446934653 94.7340637628088,189.09828611037744 91.01289933210849,190.58807782732757 M68.96213316584075,65.78075919102814 C66.53914210735162,66.75617249936226 63.0005010645179,67.52954177613611 58.941091745488194,67.97047604030455 C54.88787134524723,68.41533928322166 50.335234654509144,68.52577307346833 46.0499232253668,68.28321853757463 C41.761354753317235,68.04481127114099 37.75906232706734,67.45447874493033 34.717160415168216,66.61160633296649 C33.19371824891886,66.19118947489468 31.906553444303263,65.70977114023573 30.91224725057484,65.18841576931258 C29.916978363205544,64.66717908061477 29.215047742409787,64.10618189709041 28.836058873587874,63.52984020985147 M72.3369305143141,63.52984020985144 C71.81069644785195,64.33180311921859 70.65357154343184,65.10358113786899 68.96213316584075,65.78075919102815 M72.6372608602187,59.625518922501314 C71.18038552466174,60.209892036822566 69.39638592729862,60.735762375830255 67.36186645777713,61.180120733343955 C65.32819047140802,61.62473362980864 63.04484033487232,61.987702425031365 60.61201115579563,62.253179141633 C55.748146675506476,62.78701503313353 50.28498264662073,62.91953558142951 45.142608931649974,62.62847013835709 C39.996326765190496,62.34238141863667 35.19357585369062,61.63398238718394 31.54329355941166,60.62253549282733 C29.71516295991244,60.11803526314111 28.170565194373697,59.54033326155043 26.977397761899606,58.91470681644263 C25.78307509705644,58.28922279000521 24.94075835210155,57.616026169776056 24.485971709515255,56.92441614508928 M24.48597170951525,56.924416145089275 C24.062141437998175,56.28159955728879 23.973281389039443,55.62308405786854 24.223055365336016,54.97379466932426 C24.47189861211749,54.3244783973372 25.05917821230035,53.68452101080061 25.96249754215976,53.07809479581339 C27.7621804026927,51.86404609759884 30.850958496903598,50.78954215976217 34.776888141395396,50.012091373427936 M66.3959485293438,50.012061035810795 C70.32192467500013,50.78950931346185 73.41074592726306,51.86401629151019 75.2104566682421,53.078071170145634 C76.11379001772629,53.684500455345095 76.70107995427362,54.32446165242938 76.94992917095534,54.97378202143579 C77.19970914131284,55.62307550582387 77.11085071179158,56.28159538346653 76.68701767838672,56.92441614508927 M76.68701767838672,56.924416145089275 C76.05553679863216,57.88677163632978 74.66698691332803,58.812905258710394 72.6372608602187,59.625518922501314 M65.2870054714628,56.61338006769031 C63.98277087024972,57.136865708088116 62.281981875955616,57.5892221381179 60.31694645376021,57.93534725679926 C58.35339123598397,58.28204612579897 56.12762928520404,58.52209643674405 53.81361835358326,58.63665897921596 C51.500080472499576,58.7519185035366 49.10054022627661,58.74157966254543 46.80224315580029,58.60648606741714 C44.50337862660108,58.472080968311026 42.30793928432523,58.213065862417594 40.38716250974002,57.84969902754324 C38.46487168929191,57.48690453504497 36.81908931785758,57.02010709942473 35.57837848660287,56.48569681120729 C34.33542822196309,55.951659093437016 33.4987877236436,55.350510041758376 33.13387325302588,54.72914739358703 C32.76634243861657,54.10789797518844 32.870896697538356,53.46703790613684 33.43909028044516,52.85668048003779 C34.00476636376752,52.24614142382885 35.03329011086417,51.666758077883756 36.444959709899244,51.16357266346308 M64.72813708084615,51.16361099154615 C65.8148612705619,51.55120171668251 66.67625986842592,51.98381577249155 67.27168586179307,52.44125023141064 C67.86802183455706,52.898602014902245 68.1983685865294,53.380612168778256 68.24755852817911,53.8647628535064 C68.2976662381138,54.34890681564707 68.06660052143121,54.835029275914344 67.56489130058127,55.30042416232861 C67.0641076369044,55.765888278995526 66.2926638527657,56.21046278908409 65.28700547146283,56.6133800676903" />
    <path class="edge outline visible" d="M7.085623053224759,192.24148013350097 L2.73553588915213,185.6360560687388 M94.08736633467723,192.24148013350097 L98.43745349874986,185.6360560687388 M88.98133870785477,188.074245181693 C86.56346097771207,189.0452296463409 83.6359607324474,189.93529836313027 80.30976955843553,190.6965103363185 C76.9848485271985,191.4585476417446 73.26123656721407,192.09172820356895 69.2854292625514,192.571220328707 C63.52210440051773,193.2677109787478 57.22226731814129,193.63668023220777 50.91324738618856,193.64778567364675 C44.604252879049966,193.66098628797567 38.28607552233529,193.31632309028382 32.48675658160606,192.64211850604565 C26.87712635339585,191.99077514359828 21.739955468895744,191.03444226892034 17.493275438758264,189.8439985383214 C13.238154948618329,188.6580500827521 9.873525312841062,187.23799077126188 7.581085162009792,185.7805669609944 C5.944951368324725,184.75033413728647 4.814564157714524,183.72277718440495 3.9996298981172487,182.7225555970985 C3.3536170053077967,181.9274293394461 2.900200973002164,181.1429971674203 2.5813500577326147,180.35925876613783 C2.179135343086423,179.36504388933224 1.9946730259357202,178.37113058997977 2.0001701013463205,177.37605005831318 C2.0039173003805293,176.6643947793982 2.1102287724648314,175.95308618516347 2.31910451759923,175.24212427560965 C2.5298369955116247,174.53102556372986 2.846334040383277,173.82046110050126 3.297115347997703,173.10522495168541 C4.113589780370181,171.81972629264584 5.358507551715516,170.49806955590083 7.446573283389377,169.15746906121575 C8.69911055927524,168.34923704755172 10.276267813750685,167.54814295843377 12.157591258984548,166.79307860215977 C14.038095698918259,166.03758773945094 16.222766329610497,165.32812660958623 18.668217214825887,164.69164484069321 M82.50475256870396,164.6915494880501 C84.89562777738944,165.31331548303763 87.03704004688858,166.00506699216615 88.88777969302157,166.7417467365743 C90.73937730475068,167.47798827653423 92.30030229311345,168.25915805177374 93.55336801062234,169.0479290588832 C95.20090030815268,170.08027865089494 96.33926498371066,171.11054251873318 97.15949365143325,172.11312026107728 C97.84337917318643,172.95154719436582 98.31317913805381,173.77806876982936 98.63568083258987,174.60424253273447 C99.00513983891291,175.5563974447211 99.17641181568713,176.50849095035682 99.17290444673776,177.46154726254406 C99.17055709422637,178.17305642400154 99.06574256866217,178.8842195759522 98.85846087004508,179.59503671839616 C98.64934516763203,180.3059850788989 98.33461654732345,181.01638605265495 97.88599169834119,181.73139051173155 C97.2257007624677,182.76839389606505 96.30432743599687,183.82477429770066 94.87142231692866,184.90140634042788 C93.44476482779348,185.97420977560765 91.5065755460608,187.06726485187886 88.98133870785479,188.07424518169296 M41.58175866967971,67.89618066255946 C41.45683590873722,70.29442660241564 41.285510727170184,72.76351481423583 41.0844603721769,75.26565613469846 C40.81053478023098,78.6647845298436 40.48177568418171,82.11030723935951 40.108290365488116,85.56948856182541 C39.73442718189793,89.03120457533204 39.31590226688768,92.50136524982737 38.85271562045745,95.9799705853118 C37.77835742036959,104.02796815352465 36.47725492727642,112.0843126555797 34.868027127320254,120.05864080740864 C34.06232903729081,124.04501946692834 33.17826768158385,128.01039714810176 32.19205792244291,131.93133368819002 C31.205270130064115,135.8516311367314 30.116756044726134,139.72806914730145 28.88654559801186,143.51931299384268 C28.07118542798357,146.02829238238556 27.194417268709806,148.49524563025713 26.237886972684354,150.88933313136528 C25.281849583024687,153.28132324385462 24.24605005661341,155.60044760958112 23.125935624186194,157.75713974113194 C22.393531467517924,159.16937467862647 21.60309557655741,160.54430283189396 20.807173832531973,161.76885854914434 C20.012933491013715,162.9940807910833 19.213180418102315,164.05910159231462 18.517467735950774,164.86965452571027 C17.82105249118272,165.6843222706755 17.238314491208484,166.24004930260966 16.860716371000215,166.56402642212447 C16.478786994649454,166.89065271581703 16.307281460919583,166.99666616929366 16.309621794231028,166.99578293435928 M84.83975784608855,166.97902526158248 Q84.86202120578137,166.99316877100247 84.86336759367096,166.99578293435928 M84.86336759367097,166.99578293435928 C84.86177478951684,166.99184195900978 84.75054540941838,166.92553525805124 84.49561196749252,166.7183792165256 C84.24314993702717,166.51279299267998 83.8497441600192,166.16504552995002 83.35052667147953,165.64060810842307 C82.85248669661074,165.11835545691267 82.25139532549471,164.4181009482877 81.61535497592587,163.56648942309488 C80.97919824223807,162.71767762025468 80.31085284538223,161.71619690252933 79.67516244782458,160.66708433633667 C78.73086389555702,159.10868292823594 77.82158813799182,157.38344741009143 76.96864508787964,155.57874821533065 C76.1146352343224,153.77214335758293 75.31695808821796,151.88607482321925 74.56705306585853,149.9545544820336 C73.15684157245413,146.316694897644 71.91913970109721,142.53104416697556 70.80338868406926,138.68325560292604 C69.68830376460477,134.83341221349446 68.69516969946919,130.92143099068213 67.7920784527204,126.97543013669242 C66.12310174716445,119.67187783775519 64.7567313019651,112.26173399563285 63.59815850186389,104.83597163295886 C62.85611019370296,100.06988105377263 62.20300702120031,95.29759564916648 61.63113533602855,90.53672240710873 C61.06011133802952,85.77734111846154 60.57031118059795,81.02937222699636 60.177756456241134,76.3521974161755 C59.93769773158081,73.47967944215549 59.73444110900658,70.64251622301937 59.59126537910258,67.89617652602885 M28.836058873587866,63.52984020985148 L24.485971709515244,56.9244161450893 M72.3369305143141,63.529840209851486 L76.68701767838672,56.9244161450893 M60.35583430160525,53.40584662409975 C58.7044462324493,54.06386819416522 57.34088800802583,54.434848789323496 56.19128001891108,54.68921367768214 C55.0393879052637,54.94005448296465 54.101446026925,55.07427958144744 53.239619287555136,55.16363991510468 C51.824295053667136,55.30446279498765 50.64462160336305,55.32866812317783 49.348783335399844,55.26969826761487 C48.70139583868881,55.23841395361571 48.02822858345395,55.184088784960736 47.279252981558656,55.08848898648946 C46.52933274605641,54.991947032007594 45.704934943302916,54.85480949211429 44.72958124416636,54.632462223352974 C44.058110109206346,54.47824319659085 43.31202609628621,54.279169206828904 42.47602027928928,54.007462147926205 C41.64133175527105,53.735679535545714 40.71725944408974,53.389738088051395 39.725378623032555,52.93974420192472 C38.73456289952579,52.49038996512007 37.67647668305687,51.93545752371009 36.6025179823248,51.262963455193734 C35.52937218371487,50.59182423879935 34.44089191775544,49.80159762932553 33.41123645256519,48.9182360636845 C31.640791880447097,47.404692395405746 30.005720198631117,45.59218414711775 28.643858783835892,43.56934430951054 C27.199264355147136,41.42917847907184 26.056021403003086,39.05388461692961 25.282292737466342,36.557162177147674 C24.506846629489573,34.06061787295302 24.100914808120102,31.442644991118737 24.08457169510003,28.82193078215093 C24.066646616430596,26.13511272555129 24.458393696151386,23.445662113124303 25.239601733177622,20.88159553740048 C26.01892404761584,18.317336098259922 27.187703960359908,15.878458419029531 28.672930037860862,13.687578916571542 C29.655504308252986,12.236054776760177 30.77530213640273,10.892783829965778 31.988365517973108,9.692188083475394 C33.200070529163284,8.491335407797148 34.505044452773824,7.433160209215997 35.821294913821674,6.5448904777585994 C37.6004547211512,5.3374705940971365 39.38517973677894,4.4622235395254926 40.92367047498914,3.8512217606227246 C42.472587900075155,3.236735543749825 43.775271047743644,2.8864946025458207 44.87186766480175,2.635007120425996 C46.10654605651585,2.3607133928100112 47.107166519596795,2.218988547858697 48.01404368359592,2.128029536036405 C48.919234749844875,2.0394801859137437 49.73068251701192,2.0016966689200926 50.54149087764296,2.000346463109423 C51.548014563670144,1.9979417482408834 52.545728131000075,2.0519274144948096 53.72312628418496,2.190369796199241 C54.90409022165372,2.3357960570029386 56.264738744977436,2.5656790332571457 58.09340851865732,3.103633674069412 C59.37488427359427,3.4904743473245063 60.930571751347884,4.054978542873586 62.62433005616029,4.929352940701697 C64.31294868625687,5.7979539301261385 66.13963814341213,6.976425121829591 67.82434663982534,8.4353177604944 C69.59025857246782,9.954503002808812 71.21873362204447,11.771148550180941 72.57366176337686,13.796705369157488 C74.01194103154575,15.941343604887695 75.14795213544907,18.31989786093683 75.91415622754215,20.81865747617308 C76.68206998448262,23.31724017819982 77.08017672961284,25.936028239413663 77.08880823111524,28.556357428816824 C77.09883008096088,31.243615355413453 76.69905696638416,33.932243600038404 75.91014056838088,36.49420929354387 C75.1231198868123,39.05637026760038 73.94695592181728,41.491868690537444 72.4553804145625,43.678139548636565 C71.08996639587042,45.68485052925533 69.45518691532489,47.48133408703511 67.68899770220885,48.98030136723381 C66.46829865912255,50.01936226716779 65.18400025056721,50.91537375353957 63.93131343537891,51.650886605620556 C62.67838583221815,52.38792741208338 61.457069822424494,52.964469584255504 60.35583430160525,53.40584662409975" />
  </g>
</svg>
