<?xml version='1.0' ?>
<svg xmlns="http://www.w3.org/2000/svg" xmlns:xlink="http://www.w3.org/1999/xlink" version="1.1" width="803.9999274727375" height="1650.5479272546054">
  <style type="text/css">
.edge {
  fill: None;
}
.edge.visible {
  stroke: #000000;
}
.edge.hidden {
  stroke: #C8C8FF;
}
@media (prefers-color-scheme: dark) {
    .edge.visible {
      stroke: #FFFFFF;
    }
    .edge.hidden {
      stroke: #A00000;
    }
}
</style>
  <g>
    <path class="edge sharp hidden" d="M43.86861068426937,1568.208607729282 C39.28301098895295,1561.2493260994734 37.55117607652293,1554.1560855237854 38.71405073537279,1547.0965577342308 M38.71405073537279,1547.0965577342308 C39.87205287022391,1540.0369697941373 43.9246575919713,1533.0116902677398 50.77609072878577,1526.1867119218825 M50.77609072878577,1526.1867119218825 C57.62281470028084,1519.361396290293 67.26777737855318,1512.7369671570484 79.48306409512486,1506.4699562732603 M79.48306409512486,1506.4699562732603 C91.694026387059,1500.202343944431 106.47426231137395,1494.2926903593157 123.47451083035598,1488.880650952978 M123.47451083035598,1488.880650952978 C140.47102455622021,1483.4677737483385 159.68608791895224,1478.5529776316823 180.66563872226803,1474.2524084161714 M180.66563872226803,1474.2524084161714 C201.64222163320213,1469.9508049888793 224.38148599126256,1466.2637987776811 248.34608850217265,1463.2785144075488 M248.34608850217265,1463.2785144075488 C272.30863076466864,1460.2920487893175 297.49444828859953,1458.0075614759535 323.30838603663454,1456.4790303238422 M323.30838603663454,1456.4790303238422 C349.121268719197,1454.9492270054548 375.5600498466804,1454.1755109563724 401.9999687407996,1454.17616241724 M401.9999687407996,1454.17616241724 C428.4398876349181,1454.1755109563724 454.878668762402,1454.9492270054552 480.6915514449644,1456.4790303238424 M480.6915514449644,1456.4790303238424 C506.5054891929984,1458.0075614759542 531.6913067169297,1460.292048789318 555.6538489794266,1463.2785144075497 M555.6538489794266,1463.2785144075497 C579.6184514903355,1466.26379877768 602.3577158483971,1469.9508049888811 623.334298759331,1474.2524084161705 M623.334298759331,1474.2524084161705 C644.3138495626472,1478.5529776316826 663.5289129253792,1483.4677737483394 680.5254266512425,1488.8806509529775 M680.5254266512425,1488.8806509529775 C697.5256751702246,1494.2926903593157 712.3059110945388,1500.2023439444324 724.5168733864739,1506.4699562732599 M724.5168733864739,1506.4699562732599 C736.7321601030443,1512.7369671570484 746.3771227813178,1519.3613962902934 753.223846752813,1526.186711921883 M753.223846752813,1526.186711921883 C760.0752798896269,1533.011690267739 764.1278846113751,1540.036969794139 765.2858867462254,1547.09655773423 M765.2858867462254,1547.09655773423 C766.4487614050763,1554.1560855237851 764.7169264926451,1561.2493260994722 760.1313267973292,1568.208607729282 M9.028170803969367,1475.3446952294696 C12.626124794181418,1470.2821512207129 17.596498521604378,1465.2893286844067 23.887568791540403,1460.4182886809306 M23.887568791540403,1460.4182886809306 C30.177650682916024,1455.5471572699612 37.78828232334541,1450.7978843145904 46.64006591844027,1446.2199714654087 M46.64006591844027,1446.2199714654087 C55.4909299444088,1441.6419316199372 65.58279913158361,1437.2353278034238 76.81052775003963,1433.0461057703674 M76.81052775003963,1433.0461057703674 C88.03740560880337,1428.8567211522236 100.39999610538936,1424.8847942403065 113.7693322384892,1421.1717184067136 M113.76933223848914,1421.1717184067134 C132.36507674086013,1416.0060585459892 152.91138182543338,1411.3425154669703 174.99627040247012,1407.2748815207462 M174.99627040247012,1407.2748815207462 C197.0788860572692,1403.2063948838208 220.69846890427422,1399.7340798146947 245.37940003110052,1396.92780123271 M245.37940003110052,1396.92780123271 C270.05881587643506,1394.1205674463517 295.79796370133374,1391.9795451038046 322.07879671164807,1390.5478013098154 M322.07879671164807,1390.5478013098154 C348.35887208121704,1389.1150408032481 375.1790163359433,1388.3916463235735 401.9999687407993,1388.3921649312292 M401.9999687407993,1388.3921649312292 C428.8209211456552,1388.3916463235748 455.6410654003821,1389.1150408032477 481.92114076995034,1390.5478013098152 M481.92114076995034,1390.5478013098152 C508.20197378026495,1391.9795451038055 533.941121605163,1394.120567446353 558.620537450498,1396.9278012327106 M558.620537450498,1396.9278012327106 C583.3014685773239,1399.734079814695 606.9210514243287,1403.2063948838215 629.0036670791287,1407.2748815207465 M629.0036670791287,1407.2748815207465 C651.0885556561656,1411.3425154669712 671.6348607407383,1416.0060585459887 690.2306052431095,1421.1717184067134 M690.2306052431095,1421.1717184067134 C703.5999250073719,1424.8847896949324 715.9625016055624,1428.8567114264868 727.1893684965582,1433.0460903842682 M727.1893684965582,1433.0460903842682 C738.4170861429615,1437.235306757721 748.5089472895066,1441.6419044351142 757.359806546478,1446.2199378381436 M757.359806546478,1446.2199378381436 C766.2115853679168,1450.7978442454175 773.8222155071187,1455.5471104560397 780.1122993794736,1460.4182350105423 M780.1122993794736,1460.4182350105423 C786.4033716253568,1465.2892681578594 791.3737508117304,1470.282083726771 794.9717138127935,1475.3446208566634 M704.5636697831733,1535.1893246091813 C690.6146843672146,1540.7822992741212 674.4853873593653,1545.986516041298 656.5217620623204,1550.6907853088571 M656.5217620623204,1550.6907853088571 C638.5608904498495,1555.3958102554964 618.7668292445851,1559.6005382246522 597.5628860190535,1563.214988147818 M597.5628860190535,1563.214988147818 C576.3610880549397,1566.830337148876 553.7508607771188,1569.8551460723581 530.2157327672809,1572.2246623871038 M530.2157327672809,1572.2246623871038 C506.6820199528857,1574.5951786110745 482.22506447763084,1576.3102342481945 457.3681121035203,1577.333131613701 M457.3681121035203,1577.333131613701 C432.5117720062235,1578.357084765825 407.25719892003116,1578.6888092967572 382.1448175147594,1578.3212281611545 M382.1448175147594,1578.3212281611545 C357.0322171302846,1577.954712770444 332.06358776947417,1576.8889195351167 307.77320672132055,1575.1466703016022 M307.77320672132055,1575.1466703016022 C283.481787340938,1573.4054513082983 259.87032976248753,1570.987899821064 237.4439763199332,1567.9457400618855 M237.4439763199332,1567.9457400618855 C215.01581306059992,1564.9045314527136 193.7743294064864,1561.238928236905 174.17389091032402,1557.027338295685 M174.17389091032402,1557.027338295685 C154.57095067189954,1552.8165801275059 136.61042999408537,1548.060130506877 120.67650890676018,1542.859732422984 M120.67650890676018,1542.859732422984 C104.73950112645747,1537.660011168464 90.83021234569595,1532.0167067457712 79.2462290540791,1526.0505510274713 M79.2462290540791,1526.0505510274713 C67.65870423434636,1520.084887769531 58.39730451203078,1513.7967939155646 51.66026348586855,1507.3208182818169 M51.66026348586855,1507.3208182818169 C44.919375077942775,1500.8451288767453 40.70332948626061,1494.1820161462151 39.10242498056611,1487.4740599501076 M39.10242498056611,1487.4740599501076 C37.49753081197707,1480.7661708723042 38.50789979365203,1474.0139138561185 42.111897889362545,1467.3617514960258 M42.111897889362545,1467.3617514960258 C45.71193792969495,1460.709434670453 51.90534964466278,1454.1576813870422 60.55944402790929,1447.846617604687 M60.55944402790929,1447.846617604687 C69.2097918931809,1441.5351871262367 80.32017715556223,1435.4648816476704 93.65277664194392,1429.7655312053928 M93.65277664194392,1429.7655312053928 C106.98202284398813,1424.065624437475 122.53245095877156,1418.737045039203 139.97211737506294,1413.8939988618752 M139.9721173750629,1413.8939988618752 C156.87733964994567,1409.1979444430337 175.55579881773934,1404.958359825745 195.63297025140918,1401.260510783723 M195.63297025140918,1401.260510783723 C215.70807539213553,1397.5618865683366 237.18042343486746,1394.405236505494 259.617633550164,1391.8540741582362 M259.617633550164,1391.8540741582362 C282.05346613683184,1389.3020434433643 305.4526914321942,1387.3556594955953 329.34435780520727,1386.0540742283315 M329.34435780520727,1386.0540742283315 C353.2353354139063,1384.7515646769075 377.6172847363851,1384.0939333317467 401.9999687407992,1384.094404793253 M401.9999687407992,1384.094404793253 C426.38265274521393,1384.093933331748 450.7646020676926,1384.7515646769068 474.65557967639114,1386.0540742283315 M474.65557967639114,1386.0540742283315 C498.54724604940435,1387.3556594955949 521.946471344767,1389.3020434433663 544.3823039314344,1391.8540741582365 M544.3823039314344,1391.8540741582365 C566.8195140467309,1394.405236505495 588.2918620894627,1397.561886568338 608.3669672301896,1401.2605107837235 M608.3669672301896,1401.2605107837235 C628.4441386638596,1404.958359825745 647.1225978316531,1409.197944443034 664.0278201065357,1413.893998861875 M664.0278201065357,1413.8939988618747 C678.2549309954902,1417.8451768600921 691.2268825891515,1422.1189746803655 702.758640348236,1426.6545106639358 M702.758640348236,1426.6545106639358 C714.2918603896273,1431.189775447946 724.3845126439808,1435.9866192907311 732.8925696462463,1440.9765654379796 M732.8925696462463,1440.9765654379796 C741.4022393583525,1445.9663155594083 748.3270459466939,1451.1490063485458 753.5681809913688,1456.4506708201825 M753.5681809913688,1456.4506708201825 C758.8110294480481,1461.7522156267203 762.3700445701676,1467.1725699467668 764.1944566435876,1472.634414664427 M764.1944566435876,1472.634414664427 C766.02063310581,1478.0962172646953 766.1121508092239,1483.5993435613505 764.4677060957815,1489.0652936436097 M764.4677060957815,1489.0652936436097 C762.8250270225703,1494.5312803431664 759.4464359031772,1499.9599215948672 754.3801301756774,1505.2737412644033 M754.3801301756774,1505.2737412644033 C749.3155416144699,1510.5876774729131 742.5633948966157,1515.7866203335661 734.2200312860505,1520.7963552954775 M734.2200312860505,1520.7963552954775 C725.8782866424738,1525.8062879050249 715.9455876384313,1530.6268383179063 704.5636697831736,1535.1893246091815 M462.512708949274,510.9176849652576 C458.22204723554603,512.6388349590235 452.89420336372837,514.1746242567935 446.7965966934876,515.4480928293802 M446.7965966934876,515.4480928293802 C440.7017371638024,516.7224864344756 433.8395522443442,517.7339937267421 426.55472676479735,518.431734964818 M426.55472676479735,518.431734964818 C419.2714002244251,519.130598208528 411.5683101005384,519.5154196547306 403.83228949844795,519.566901538767 M403.83228949844795,519.566901538767 C396.09637953427557,519.6195718735248 388.3305742600167,519.3388939780987 380.9248150656948,518.7389989683485 M380.9248150656948,518.7389989683485 C373.5177700033344,518.1402389993532 366.4736830041959,517.2224975542836 360.1463340205481,516.0318255918063 M360.1463340205481,516.0318255918063 C353.8164263533898,514.8421260780456 348.2057641237941,513.3799532223635 343.5961594572703,511.7187116905183 M343.5961594572703,511.7187116905183 C338.9829788774177,510.0581815062635 335.37267734511465,508.1992385895382 332.9464491685084,506.23531692301134 M332.9464491685084,506.23531692301134 C330.51601532959376,504.2717576668438 329.27050901688074,502.2040516037411 329.2727061939699,500.1358782321636 M329.27270619396995,500.13587823216363 C329.267696098979,497.59141369354205 331.1607751552698,495.0484198676088 334.80880906130847,492.697929964675 M334.80880906130847,492.697929964675 C338.44750986648614,490.3464616138039 343.83810134960834,488.1899383125762 350.5739490343882,486.39151217672804 M350.5739490343882,486.39151217672804 C357.3026242070425,484.59115402784784 365.3704499859206,483.1505204621098 374.1685126547995,482.1781826780183 M374.1685126547995,482.1781826780183 C382.9627039341504,481.2033407418379 392.4792016538904,480.69760829618536 401.99996874079903,480.6989557287391 M401.99996874079903,480.6989557287391 C411.52073582770817,480.69760829618525 421.0372335474481,481.2033407418382 429.83142482679887,482.1781826780182 M429.83142482679887,482.1781826780182 C438.6294874956781,483.1505204621098 446.69731327455594,484.59115402784823 453.4259884472103,486.39151217672804 M453.4259884472103,486.39151217672804 C460.1618361319902,488.1899383125765 465.5524276151123,490.3464616138044 469.19112842028983,492.6979299646754 M469.19112842028983,492.6979299646754 C472.8391623263286,495.04841986760937 474.73224138261907,497.5914136935428 474.7272312876284,500.1358782321636 M474.7272312876284,500.1358782321636 C474.7287697632626,502.04085465407564 473.6734361036916,503.94558294603183 471.60664617653435,505.7684640016429 M471.60664617653435,505.7684640016429 C469.54293320064653,507.59159404474434 466.467763957173,509.33287685150145 462.5127089492741,510.9176849652576 M222.93428971253417,508.55916474239336 C220.64152610295125,505.07952392748854 219.77610637214062,501.53290363964464 220.35765677083793,498.0031397448678 M220.35765677083793,498.0031397448678 C220.93680876140425,494.4733457748207 222.9629904177494,490.9607060116221 226.38847004106577,487.54821683869363 M226.38847004106577,487.54821683869363 C229.81159782109728,484.13555902289863 234.63376730182503,480.8233444562772 240.74122158228758,477.6898390143822 M240.74122158228758,477.6898390143822 C246.84650722964372,474.556032849969 254.23655419292083,471.6012060574096 262.7367391856993,468.89518635424173 M262.7367391856993,468.89518635424173 C271.23505262666066,466.18874775192154 280.84276198077697,463.7313496935936 291.3327247839578,461.5810650858381 M291.3327247839578,461.5810650858381 C301.821204213498,459.4302633721919 313.1910249282312,457.58676026659344 325.1734232070485,456.09411808152686 M325.1734232070485,456.09411808152686 C337.1547946130688,454.6008852724122 349.7477099567847,453.45864161572894 362.65459521538014,452.6943760396738 M362.65459521538014,452.6943760396738 C375.56095565046604,451.9294743804797 388.78017949653173,451.54261635593866 401.99996874079943,451.5429420863725 M401.99996874079943,451.5429420863725 C415.21975798506634,451.5426163559382 428.43898183113265,451.9294743804798 441.3453422662184,452.6943760396735 M441.3453422662184,452.6943760396735 C454.2522275248131,453.45864161572865 466.84514286853016,454.6008852724121 478.8265142745497,456.0941180815265 M478.8265142745497,456.0941180815265 C490.8089125533677,457.58676026659333 502.17873326810036,459.4302633721921 512.6672126976405,461.58106508583785 M512.6672126976405,461.58106508583785 C523.1571755008207,463.73134969359336 532.764884854937,466.18874775192114 541.2631982958992,468.8951863542416 M541.2631982958992,468.8951863542416 C549.7633832886773,471.6012060574094 557.1534302519545,474.5560328499692 563.258715899311,477.689839014382 M563.258715899311,477.689839014382 C569.3661701797729,480.823344456277 574.1883396605002,484.13555902289824 577.6114674405328,487.5482168386935 M577.6114674405328,487.5482168386935 C581.036947063848,490.9607060116213 583.0631287201938,494.4733457748209 583.6422807107601,498.0031397448673 M583.6422807107601,498.0031397448673 C584.2238311094571,501.53290363964425 583.358411378646,505.0795239274885 581.0656477690641,508.55916474239325 M271.8435913751243,397.27105565257256 C290.49479685856113,393.56349918073016 311.38074934928017,390.6609723663952 333.4501823748534,388.71128327621284 M333.4501823748534,388.71128327621284 C355.5153781968123,386.7580749744294 378.7550152867633,385.75770440547296 401.99918547107416,385.7594417111651 M401.99918547107416,385.7594417111651 C425.24335560811244,385.7576598011911 448.48301957264823,386.7579857745396 470.5482678674257,388.7111517343776 M470.5482678674257,388.7111517343776 C492.61775327127316,390.66079847448395 513.5037837384994,393.5632852097531 532.1550888258073,397.2708058908639 M285.57639059573756,406.75090151825617 C292.31820967096263,404.3444441133604 300.10904865753486,402.14830246781827 308.7421522618727,400.2211029589737 M308.7421522618727,400.2211029589737 C317.3735885990237,398.2933937134956 326.84610393061956,396.63484911677006 336.9062594826856,395.2897787524678 M336.9062594826856,395.2897787524678 C346.9653035281662,393.94411173288614 357.610802172204,392.9120672865623 368.55819445727445,392.22120448141163 M368.55819445727445,392.22120448141163 C379.5050309957015,391.5296928700952 390.7525755546561,391.1794370695663 402.0007062714395,391.1797854071707 M402.0007062714395,391.1797854071707 C413.24883700086195,391.1794675554823 424.4963682690147,391.52975384032146 435.4431785679319,392.2212951209179 M435.4431785679319,392.2212951209179 C446.39054463811,392.9121875968549 457.03600412136205,393.9442608957229 467.0949971058862,395.2899551783581 M467.0949971058862,395.2899551783581 C477.1551016196364,396.6350528087273 486.62755401837506,398.2936230788165 495.25891720943883,400.2213557180596 M495.25891720943883,400.2213557180596 C503.89194768703163,402.1485786251887 511.6827033420709,404.3447413862031 518.4244311055262,406.7512170633918 M432.25633884503685,435.4450378336002 C429.61780767502677,436.50403509956277 426.190636892322,437.4219714458006 422.2339055095784,438.1293128902732 M422.2339055095784,438.1293128902732 C418.279963835467,438.83779716023076 413.7998839927139,439.335147051379 409.1315244523045,439.5839495635515 M409.1315244523045,439.5839495635515 C404.46416405786806,439.8340754983537 399.61271222824865,439.83543080791037 394.9432423009437,439.5878975179355 M394.9432423009437,439.5878975179355 C390.2727932973071,439.34169095130864 385.7885491528394,438.84680671591275 381.82897612662197,438.1405414868037 M381.82897612662197,438.1405414868037 C377.8665906245017,437.43540443842414 374.4324504926892,436.51952001882285 371.7857053954114,435.46200311577365 M371.7857053954114,435.46200311577365 C369.1347484601198,434.4052405314475 367.27356452567824,433.20780163422023 366.34253221256023,431.96007258425755 M366.34253221256023,431.96007258425755 C365.4065335549673,430.71260825136426 365.4015182390887,429.4159797733915 366.32782634799025,428.1680354692962 M366.32782634799025,428.1680354692962 C367.2491680722746,426.9198273561674 369.1010018807225,425.7214253924629 371.74363120938835,424.66323690414185 M371.74363120938835,424.66323690414185 C374.38204648967616,423.6042975812869 377.8088884647238,422.6865213766661 381.7656343615851,421.97914385611745 M381.7656343615851,421.97914385611745 C385.7195589569611,421.2706425801615 390.19983209923123,420.77317661129644 394.8683707852957,420.52429601894295 M394.8683707852957,420.52429601894295 C399.5359136286361,420.2740884018174 404.3875130757483,420.2726940534184 409.0569982321325,420.5202450989383 M409.0569982321325,420.5202450989383 C413.7274687451767,420.7664669501262 418.2116079072892,421.26141530246093 422.17103117341856,421.9677398871444 M422.17103117341856,421.9677398871444 C426.13326927105584,422.6729367108075 429.5672283312041,423.58887169019795 432.2139123652411,424.6463891654966 M432.2139123652411,424.6463891654966 C434.86480211842485,425.70315482182406 436.72606411072576,426.9005422864803 437.65730836867147,428.14819490953056 M437.65730836867147,428.14819490953056 C438.59350780035146,429.3955850158708 438.5988496838499,430.69212116105706 437.672606879654,431.9400631377537 M437.672606879654,431.9400631377537 C436.75138417392617,433.188253794795 434.89912372683153,434.38679846916045 432.2563388450366,435.44503783360005" />
    <path class="edge outline hidden" d="M139.97211737506268,1413.893998861875 L113.76933223848901,1421.1717184067134 M664.0278201065357,1413.893998861875 L690.2306052431094,1421.1717184067134 M139.22509482948198,1341.3979817461054 C155.93057833389224,1337.0465814147851 174.11093662564963,1333.1069384104674 193.46317916525027,1329.6544730183118 M193.46317916525027,1329.6544730183118 C212.81222199024907,1326.2003413379564 233.33314906309263,1323.2333872697661 254.6333778354242,1320.782375029322 M254.6333778354242,1320.782375029322 C280.60358064832616,1317.8058319054846 307.8266950561801,1315.6205337659044 335.5973831150308,1314.2805337331415 M335.5973831150308,1314.2805337331415 C363.3683677600867,1312.9390365265933 391.68692605613955,1312.4428374268628 419.85602447297777,1312.8040686905101 M419.85602447297777,1312.8040686905101 C448.0254194760208,1313.1638027803697 476.04535459984953,1314.3809672336079 503.2271007279927,1316.425773440771 M503.2271007279927,1316.425773440771 C530.4091434423407,1318.469082474148 556.7529971610052,1321.3400332614551 581.5782371812529,1324.9669163272326 M581.5782371812529,1324.9669163272326 C596.7076017304685,1327.1822614231962 611.3070863558318,1329.6706751673796 625.219708257493,1332.417044799022 M625.219708257493,1332.417044799022 C639.1334488127955,1335.1628430802448 652.3603266443952,1338.166597248927 664.7746812544216,1341.3971967326036 M329.2727061939698,500.1358782321636 C329.27092429644847,506.77396123742614 329.113764984578,513.9953074034502 328.8654379055741,521.4610769997977 M328.8654379055741,521.4610769997977 C328.61584383209515,528.9340105173909 328.2730223277823,536.6629507413652 327.8663199268832,544.5061096445618 M119.8073923967624,1360.3673511750578 C119.82702778788796,1360.3275009792437 121.20604243337091,1359.4906595970047 123.59927679675785,1358.2949602879921 M123.59927679675785,1358.2949602879921 C125.99674231706803,1357.0920539734752 129.41228880209587,1355.5232661832158 133.61865362591882,1353.825926811578 M133.61865362591882,1353.825926811578 C137.8276661494033,1352.1242819752276 142.83039184918638,1350.2887291990949 148.47312820654741,1348.4370381544336 M148.47312820654741,1348.4370381544336 C154.11738181067258,1346.5831616902747 160.4035745005691,1344.7094577897487 167.21991118358793,1342.87349716702 M167.21991118358793,1342.87349716702 C180.85841421767302,1339.1980117822295 196.6011592862964,1335.6746907652519 213.80387973236847,1332.5510611323796 M213.80387973236847,1332.5510611323796 C222.40816027746297,1330.9879077296716 231.38151362377914,1329.524013485036 240.67479209207522,1328.1737010760146 M240.67479209207522,1328.1737010760146 C249.96959603918708,1326.8218684725862 259.58238789923064,1325.586597299186 269.50615791648954,1324.440637578841 M269.50615791648954,1324.440637578841 C292.71754405487803,1321.7956438254776 317.30066576790034,1319.83362750035 342.4858937359097,1318.6358607833365 M342.4858937359097,1318.6358607833365 C367.67100920560387,1317.4358165989681 393.45823093028673,1317.000022022717 419.0747796374975,1317.3459801485428 M419.0747796374975,1317.3459801485428 C444.6912158463937,1317.6896608070144 470.1369790378194,1318.815094167567 494.6361399865036,1320.6760142382443 M494.6361399865036,1320.6760142382443 C519.1351884368731,1322.5346568415657 542.6876346445017,1325.128786155017 564.5143994313065,1328.3483671007218 M564.5143994313065,1328.3483671007218 C572.354784759124,1329.4789394164259 579.9614409216659,1330.7194079232147 587.2979130846973,1332.0269254146685 M587.2979130846973,1332.0269254146685 C594.6343973628893,1333.3352620129485 601.70122220912,1334.71185586926 608.4622720136829,1336.1367947683561 M608.4622720136829,1336.1367947683561 C621.9807103300134,1338.985360063174 634.293439075338,1342.0404616743783 645.0095758507471,1345.1737995198946 M645.0095758507471,1345.1737995198946 C650.3651578826187,1346.7383018492567 655.3177852333807,1348.3203202327982 659.7910502725115,1349.8735959011747 M659.7910502725115,1349.8735959011747 C664.2633438626511,1351.425425163816 668.256799708707,1352.9497199846587 671.6678096084164,1354.359722233784 M671.6678096084164,1354.359722233784 C675.0776021680946,1355.7677116990305 677.9054733489749,1357.0626168659287 680.0137294279758,1358.1013216560348 M680.0137294279758,1358.1013216560348 C682.1205222759103,1359.1374472841244 683.5082245895148,1359.9185808087902 683.998172175831,1360.2293896151384 M476.13390290872456,544.5060755895815 C475.72671849953934,536.659498213908 475.38308245777347,528.9271183889088 475.1339440847489,521.4584655561407 M475.1339440847489,521.4584655561407 C474.88571907502757,513.9947574962514 474.73130698471664,506.7912340275364 474.7272312876284,500.1358782321636" />
    <path class="edge sharp visible" d="M704.563669783174,1605.2710683742928 C694.5653438538781,1609.2795664855416 683.4494738105483,1613.0887927092556 671.338533600104,1616.6569004956784 M671.338533600104,1616.6569004956784 C659.2283771874575,1620.2251927325624 646.1233768775878,1623.5522893987954 632.1679759983174,1626.6015174916122 M632.1679759983174,1626.6015174916122 C604.2623884892712,1632.7020960092495 572.9373002731004,1637.6827722410098 539.561192247426,1641.3257378952346 M539.561192247426,1641.3257378952346 C506.19142894779986,1644.9728652402684 470.7805798527083,1647.2811967309956 434.87546322916137,1648.1499789004622 M434.87546322916137,1648.1499789004622 C398.97186044092507,1649.023229220651 362.5846324880881,1648.4567059469648 327.3031436112771,1646.4752617827253 M327.3031436112771,1646.4752617827253 C292.01821284544087,1644.4982002568613 257.84948779302556,1641.1068049786948 226.2895919317358,1636.4491109439032 M226.2895919317358,1636.4491109439032 C194.72158803424273,1631.7953453097268 165.77182016253244,1625.8766298747387 140.70499245521293,1618.9514337374596 M140.70499245521293,1618.9514337374596 C128.16852705678727,1615.4898119909385 116.59743724970494,1611.7785212108352 106.11925139431168,1607.8584928238636 M106.11925139431168,1607.8584928238636 C95.64020548399222,1603.9386288553128 86.2542568465406,1599.8101022860685 78.06482599174274,1595.518454424054 M78.06482599174274,1595.518454424054 C69.87445556353288,1591.226933436452 62.88074859893184,1586.7723763221416 57.16078712663666,1582.2038828073664 M57.16078712663666,1582.2038828073664 C51.43983051259118,1577.6354739513617 46.99271052473534,1572.9532236333941 43.868610684269136,1568.2086077292818 M760.1313267973289,1568.208607729282 C755.7861332298427,1574.809584055484 748.8751556094745,1581.2896490700678 739.5457863547613,1587.5107220353896 M739.5457863547613,1587.5107220353896 C730.2200872186633,1593.7321880435636 718.4759964482187,1599.6946620024733 704.5636697831737,1605.2710683742923 M734.8200398874113,1554.5965767287516 C723.821881365186,1559.0059246511262 711.5944243175232,1563.1960734972104 698.2723900860344,1567.1209920622762 M698.2723900860344,1567.1209920622762 C684.9512180321237,1571.0461135228486 670.535717691266,1574.7059198557035 655.1847767240694,1578.0600707578033 M655.1847767240694,1578.0600707578033 C624.4886304641182,1584.7707071272032 590.0310334263306,1590.2494509821408 553.3173145980885,1594.2567132017873 M553.3173145980885,1594.2567132017873 C516.6105749684999,1598.2685532813239 477.65864096389913,1600.8077179211252 438.1630126779974,1601.7633783075376 M438.1630126779974,1601.7633783075376 C398.66904961093775,1602.7239536597472 358.6430988628169,1602.1007780586897 319.83346109832473,1599.9211894780274 M319.83346109832473,1599.9211894780274 C281.02003725590515,1597.7464217995762 243.43443969824807,1594.0158869935938 208.71855425082938,1588.8924235553231 M208.71855425082938,1588.8924235553231 C173.99374996358716,1583.773281357728 142.1490053047059,1577.2626943792438 114.57549482665432,1569.6449786282358 M114.57549482665432,1569.6449786282358 C100.78538288838618,1565.837194707062 88.05718410059578,1561.7547748489496 76.53117965966287,1557.4427436232802 M76.53117965966287,1557.4427436232802 C65.00422915831156,1553.130893257875 54.67968565711465,1548.5895140317052 45.671311716836875,1543.8687013834885 M45.671311716836875,1543.8687013834885 C36.661904245806255,1539.1480282971268 28.968826584744743,1534.2480154713853 22.676868965220038,1529.2226726051324 M22.676868965220038,1529.2226726051324 C16.383816689770107,1524.197422863526 11.491984703128907,1519.0469475137631 8.055474878616053,1513.8278700192393 M8.05547487861611,1513.8278700192395 C3.871321946874049,1507.4763425886827 1.8448758191432522,1501.0234379137669 2.00915290429667,1494.5744884136116 M2.00915290429667,1494.5744884136116 C2.170881621601292,1488.1255343125827 4.5233335517901265,1481.680535386313 9.028170803969374,1475.3446952294696 M794.9717138127935,1475.3446208566634 C799.4765766732196,1481.6804725565007 801.8290460507142,1488.125483860957 801.9907836205487,1494.5744505630057 M801.9907836205487,1494.5744505630057 C802.155069578146,1501.0234126639043 800.128623728082,1507.476330162394 795.9444626029822,1513.8278700192398 M795.944462602982,1513.8278700192388 C791.1647496787475,1521.088943978062 783.5626742963419,1528.2170154941027 773.3003681161574,1535.060195755958 M773.3003681161574,1535.060195755958 C763.0420990664495,1541.903808364949 750.1235992189609,1548.4625297197501 734.8200398874111,1554.5965767287507 M553.2818192619864,527.0903950648983 C543.2862751034997,531.0995279118538 531.0420843102966,534.7070503706224 517.0839723695584,537.755619623558 M517.0839723695584,537.755619623558 C503.1311786150351,540.805908882377 487.46863450695,543.2962469982568 470.78058049411254,545.1177298253695 M470.78058049411254,545.1177298253695 C454.09569884429953,546.9412934978864 436.3902742967536,548.0954592432499 418.4377159849802,548.5298503279831 M418.4377159849802,548.5298503279831 C400.4859145908622,548.9664754880783 382.2923006144434,548.6832138512343 364.65155617603807,547.6924917691149 M364.65155617603807,547.6924917691149 C347.00909079312,546.7039610061829 329.92472826691255,545.0082633670999 314.1447803362672,542.679416349704 M314.1447803362672,542.679416349704 C298.3607783875212,540.3525335326154 283.8858944516656,537.3931758151222 271.3524805980061,533.9305777464824 M271.3524805980061,533.9305777464824 C258.813031646609,530.4695440199861 248.21878425522937,526.5063005323902 240.0323973662709,522.2140880897791 M240.0323973662709,522.2140880897791 C231.83855349927296,517.9228790152981 226.05488763487347,513.3040628913442 222.93428971253417,508.5591647423932 M581.0656477690642,508.5591647423932 C578.893050985321,511.85965290549393 575.4375621751366,515.0996854127853 570.7728775477802,518.210221895447 M570.7728775477802,518.210221895447 C566.1100279797306,521.3209548995335 560.2379825945096,524.3021918789892 553.2818192619862,527.0903950648985 M583.5381893662237,476.415903419357 C571.5435363760398,481.22686283570346 556.8505074241964,485.5558897862257 540.1007730953102,489.2141728897486 M540.1007730953102,489.2141728897486 C523.357420589882,492.8745200003316 504.56236766018014,495.86292573938726 484.5367028447754,498.0487051319225 M484.5367028447754,498.0487051319225 C464.51484486499976,500.23698153894236 443.26833540794445,501.6219804333792 421.7252654338167,502.14324973505876 M421.7252654338167,502.14324973505876 C400.1831037608745,502.6671999271732 378.3507669891726,502.32728596295993 357.1818736630859,501.13841946441676 M357.1818736630859,501.13841946441676 C336.01091520358415,499.95218254889863 315.50968017213506,497.9173453819981 296.57374265536106,495.1227289611239 M296.57374265536106,495.1227289611239 C277.6329403168655,492.3304695806171 260.26307959383917,488.7792403196256 245.22298296944746,484.6241226372581 M245.22298296944746,484.6241226372581 C230.175644227771,480.4708821654622 217.46254735811553,475.71498998034735 207.63888309136522,470.5643350492139 M207.63888309136522,470.5643350492139 C197.8062704509677,465.4148841598368 190.86587141368827,459.8723048110916 187.1211539068811,454.1784270323508 M187.1211539068811,454.17842703235067 C183.63186955466185,448.8862853145578 182.90030789140653,443.4648985419799 184.95663205146118,438.1194679397715 M184.95663205146118,438.1194679397715 C187.00529375757782,432.7738160131741 191.84021390606213,427.5052133554724 199.27700692099558,422.51266410891617 M199.27700692099558,422.51266410891617 C206.70690031680772,417.51938114803545 216.73703919812644,412.8032446968258 228.9898486536339,408.54271489645515 M228.9898486536339,408.54271489645515 C241.2365213248357,404.28093899182426 255.70423718928416,400.4758628365602 271.8435913751241,397.2710556525725 M532.1550888258073,397.270805890864 C548.294633962363,400.475602897882 562.7625350196984,404.28067992974104 575.0093730072872,408.54246589667133 M575.0093730072872,408.54246589667133 C587.2623479151166,412.8030057180759 597.292632305085,417.51916134232954 604.7226409533969,422.51246960494035 M604.7226409533969,422.51246960494035 C612.1595493882531,427.5050441277555 616.9945546333372,432.7736781567047 619.0432654880891,438.11936381299677 M619.0432654880891,438.11936381299677 C621.0996389956879,443.464828135221 620.368090664839,448.8862509525649 616.8787835747173,454.1784270323507 M616.8787835747171,454.1784270323507 C614.271667434225,458.1390128280716 610.1250808620043,462.02705183682184 604.5274593091764,465.7596956160151 M604.5274593091764,465.7596956160151 C598.9320398275174,469.492575220919 591.8855853652507,473.0700595962663 583.5381893662236,476.41590341935694 M523.0254491577487,451.61774793324076 C517.6531110265138,453.7717991220152 511.4725248447357,455.7817508582806 504.60659963974524,457.60775931536523 M504.60659963974524,457.60775931536523 C497.74163096299,459.4340262214949 490.19170175862973,461.0762346319793 482.10657291250243,462.5017924584197 M482.10657291250243,462.5017924584197 C465.94161611258835,465.35589167457636 447.61913658534525,467.3315436573794 428.56905665421505,468.2744917884548 M428.56905665421505,468.2744917884548 C409.52295789029995,469.22314522840264 389.767727205249,469.1381946291031 370.84562123353726,468.0263157624803 M370.84562123353726,468.0263157624803 C351.91885582697887,466.92010045284906 333.8434852118469,464.78803281261935 318.03026100474233,461.796516398751 M318.03026100474233,461.796516398751 C310.1208249761499,460.3022249899103 302.77241388730886,458.59598913819474 296.13081858734586,456.71166053450753 M296.13081858734586,456.71166053450753 C289.4882245412833,454.8275837705347 283.5528475262915,452.7655280797926 278.4424636641807,450.56640960816196 M278.4424636641807,450.56640960816196 C273.3309141111008,448.3674850183559 269.04466821724264,446.0316309204724 265.6688047529005,443.60520228578287 M265.6688047529005,443.60520228578287 C262.2916541305779,441.1789016662333 259.8250932412134,438.66217404143106 258.31809574722047,436.1049655697492 M258.31809574722047,436.1049655697492 C256.8097403644354,433.54781399137073 256.2610425090156,430.95033722305567 256.6828850805578,428.36407726533804 M256.6828850805578,428.36407726533804 C257.10335385586933,425.77780092031134 258.49433654863714,423.2028980903765 260.82817618296264,420.6904502650984 M260.82817618296264,420.6904502650984 C263.1606838529934,418.1779141522217 266.435896342022,415.7279827737214 270.58878587627254,413.3892588416973 M270.58878587627254,413.3892588416973 C274.7404447623694,411.0503800839401 279.7695004850162,408.8228425607904 285.57639059573756,406.7509015182561 M518.4244311055263,406.7512170633918 C527.3707943049549,409.9421532544309 534.4610007648673,413.50376294158974 539.3638406024763,417.2696955805767 M539.3638406024763,417.2696955805767 C544.2739372373221,421.03494929436647 546.9949886284778,425.0032032804628 547.3998933504397,428.989090363781 M547.3998933504397,428.989090363781 C547.8124803584701,432.9749211749 545.908783899676,436.97705110997015 541.7777246931223,440.8085306470639 M541.7777246931223,440.8085306470639 C537.654050531584,444.64058185890207 531.3044186484113,448.300637405744 523.025449157749,451.61774793324093" />
    <path class="edge outline visible" d="M43.868610684269136,1568.208607729282 L8.055474878616096,1513.8278700192395 M760.1313267973293,1568.208607729282 L795.9444626029823,1513.8278700192395 M718.0947298442674,1533.9008466122746 C708.1395632976053,1537.896291493864 697.1410545089893,1541.7288065092253 685.2042126788183,1545.3431105379107 M685.2042126788183,1545.3431105379107 C673.2680243958354,1548.9578392381948 660.3935030712962,1552.3543569517997 646.7039572268482,1555.4892733630422 M646.7039572268482,1555.4892733630422 C633.0150649295864,1558.6246144458814 618.511148112415,1561.498354226357 603.3338146182181,1564.078993193536 M603.3338146182181,1564.078993193536 C588.1571346712095,1566.6600568323147 572.3070380471756,1568.9480196577977 555.9434319102481,1570.923272963815 M555.9434319102481,1570.923272963815 C532.2194090857106,1573.7865128957478 507.3912560804742,1575.9848167552934 482.00146043160544,1577.4718665043736 M482.00146043160544,1577.4718665043736 C456.61167786497936,1578.9599943167816 430.66025265472166,1579.7368680187217 404.6900386406885,1579.7863553453394 M404.6900386406885,1579.7863553453394 C378.7198377088979,1579.8369207352866 352.7308479733324,1579.1600997499118 327.266289576637,1577.7699458975906 M327.266289576637,1577.7699458975906 C301.80174426218423,1576.3808701085984 276.86163028660195,1574.2784614526618 252.98953409532436,1571.5069592113855 M252.98953409532436,1571.5069592113855 C229.91342154876156,1568.817693399909 207.77280215594436,1565.5203634914067 187.05867109696504,1561.6555278018632 M187.05867109696504,1561.6555278018632 C166.34019703103937,1557.793005139178 147.04821129895183,1553.3629766954537 129.5521048862987,1548.4707655387047 M129.5521048862987,1548.4707655387047 C112.05165546669933,1543.580867408814 96.34708536653406,1538.2287865658989 82.68618137690254,1532.5846108299995 M82.68618137690254,1532.5846108299995 C69.02093438032462,1526.942748120957 57.39935349428015,1521.0087905189318 47.94762131537141,1515.0175905959877 M47.94762131537141,1515.0175905959877 C41.21687148983934,1510.784133742251 35.51688516912082,1506.5383038692926 30.66856096622907,1502.3349280409614 M30.66856096622907,1502.3349280409614 C25.81904188060681,1498.1294486295374 21.821184912811322,1493.96642326274 18.462431959401727,1489.8417786777954 M18.462431959401727,1489.8417786777954 C15.799670409553102,1486.5684438858289 13.541890219156883,1483.3178504788054 11.615237288796584,1480.0785032428184 M11.615237288796584,1480.0785032428184 C9.689593934777351,1476.8392420043378 8.095077840794032,1473.6112269368932 6.786103044980273,1470.385370756759 M6.786103044980273,1470.385370756759 C5.126193179534384,1466.2917924495089 3.924768078458513,1462.2013171006267 3.136244900650208,1458.108344747069 M3.136244900650208,1458.108344747069 C2.3508713878621896,1454.0152349435027 1.9725896465964166,1449.920916575703 2.001399676852884,1445.825389643666 M2.001399676852884,1445.825389643666 C2.0410317872442354,1439.9670316143324 2.898701685143486,1434.1099835844038 4.627103744738443,1428.2573338846184 M4.627103744738443,1428.2573338846184 C6.362009406507491,1422.403043205088 8.967647229972249,1416.5531508556996 12.67881245019538,1410.6647977343634 M12.67881245019538,1410.6647977343634 C16.036392667806844,1405.3569097031716 20.283877039622556,1400.0141874556825 25.83471270330901,1394.5891459855695 M25.83471270330901,1394.5891459855695 C31.386499957597696,1389.1687616678357 38.24163850375698,1383.6660581274775 46.840220016314106,1378.1639506247639 M46.840220016314106,1378.1639506247639 C57.15203352051686,1371.509986744019 70.13635884803963,1364.914787538903 85.6248052853843,1358.698539148161 M85.6248052853843,1358.698539148161 C101.10650906518356,1352.478779440912 119.09233395480567,1346.6379705480413 139.22509482948195,1341.397981746105 M664.7746812544214,1341.3971967326033 C684.458134783858,1346.516034396761 702.0878248408419,1352.2110445898427 717.3244828175555,1358.2759372544442 M717.3244828175555,1358.2759372544442 C732.5682042017944,1364.3372222958378 745.4188935057615,1370.768389808749 755.7350575323555,1377.2621362859416 M755.7350575323555,1377.2621362859416 C762.5124567727376,1381.5042102918821 768.2527096257371,1385.7601056959318 773.134592756607,1389.9736421577836 M773.134592756607,1389.9736421577836 C778.0177482111743,1394.1893097024868 782.0425339436093,1398.362618304985 785.4233516826962,1402.4970579447747 M785.4233516826962,1402.4970579447747 C788.2428023597096,1405.9487338305785 790.6111220500824,1409.374933677008 792.6143406248113,1412.7891532145197 M792.6143406248113,1412.7891532145197 C794.6163235154809,1416.2032583272037 796.2532052905058,1419.605383130967 797.576416667222,1423.0058194611354 M797.576416667222,1423.0058194611354 C799.10076299216,1426.9260759323845 800.20866395341,1430.8441790277766 800.9382737774099,1434.7645213292474 M800.9382737774099,1434.7645213292474 C801.6652083995314,1438.685005921671 802.0188634425174,1442.6065874389994 801.9992389063675,1446.52926588123 M801.9992389063675,1446.52926588123 C801.9712810642744,1452.3863830565358 801.1256357454132,1458.2423095120162 799.410506752144,1464.0937294748353 M799.410506752144,1464.0937294748353 C797.688911582404,1469.946782350596 795.0978327382543,1475.7953287336943 791.4044210808772,1481.6817744136893 M791.4044210808772,1481.6817744136893 C788.6751679107088,1485.9573589249235 785.4358837954549,1490.2560799589212 781.383827416845,1494.6064175230244 M781.383827416845,1494.6064175230244 C777.3349857327174,1498.9547850915128 772.4733717852349,1503.3547691901094 766.5862557016309,1507.7796899489915 M766.5862557016309,1507.7796899489915 C760.7023543125091,1512.2026407122623 753.7929507872661,1516.6505281358216 745.735326698636,1521.041512472693 M745.735326698636,1521.041512472693 C737.6809173044879,1525.4305268139522 728.4782873469538,1529.7626380685244 718.0947298442674,1533.9008466122746 M327.8663199268833,544.5061096445619 C327.3546443391817,554.3620592332235 326.74132280876296,564.40252067945 326.0535363613112,574.5255920959015 M326.0535363613112,574.5255920959015 C325.3648908872209,584.6540606573778 324.60259834850035,594.8594483360796 323.7721924318116,605.1770837988021 M323.7721924318116,605.1770837988021 C321.5170343039412,633.1612234826187 318.81044620350104,661.5273154856642 315.7356387490065,690.0058552953974 M315.7356387490065,690.0058552953974 C312.657897410956,718.4909541870134 309.2119367188498,747.088500885316 305.39881855163077,775.712645170471 M305.39881855163077,775.712645170471 C300.9810728312665,808.8431331235959 296.0855713139399,841.9865601812073 290.6461567201807,875.0560248659386 M290.6461567201807,875.0560248659386 C285.2052412595247,908.1247177734855 279.22388784815064,941.1242373185454 272.59391493348267,973.9460722625748 M272.59391493348267,973.9460722625748 C265.96081218674016,1006.7648905807981 258.6825650624178,1039.4108133083823 250.56335670984114,1071.6908636842154 M250.56335670984114,1071.6908636842154 C242.4393895600114,1103.9656525856224 233.47793630764053,1135.879358145668 223.3499337789592,1167.0916823192842 M223.3499337789592,1167.0916823192842 C219.99272202931692,1177.4233467880572 216.51127707661928,1187.6593404572989 212.8831600821124,1197.783035368326 M212.8831600821124,1197.783035368326 C209.25529671072186,1207.9056510759287 205.48076129752198,1217.915968025316 201.54421645101914,1227.7671405619153 M201.54421645101914,1227.7671405619153 C197.60792522763293,1237.6172338950912 193.5096245709439,1247.3081828154745 189.24107853672143,1256.7629239726145 M189.24107853672143,1256.7629239726145 C184.97278612561507,1266.2165859263264 180.53424833697514,1275.4340401167906 175.92433067383178,1284.3080054976572 M175.92433067383178,1284.3080054976572 C172.90743662037528,1290.1245382772158 169.77579299813982,1295.8561527082613 166.57625650846265,1301.4003130228884 M166.57625650846265,1301.4003130228884 C163.37734608874712,1306.9436619581395 160.10804976533254,1312.2972483565538 156.83456814417102,1317.335442665361 M156.83456814417102,1317.335442665361 C153.5622644415283,1322.3739842331238 150.28587780183878,1327.0945250326934 147.10586764958197,1331.381176325332 M147.10586764958197,1331.381176325332 C143.92658196702644,1335.6693196900205 140.84546900444582,1339.5213241150889 137.98401359226563,1342.8634891678616 M137.98401359226563,1342.8634891678616 C135.12224649349196,1346.207968137992 132.4827255243875,1349.0413770530965 130.17841169938418,1351.3556081807196 M130.17841169938418,1351.3556081807196 C127.87258991391272,1353.6723429606918 125.90445467342288,1355.470347524493 124.3444106621887,1356.8128121452785 M124.3444106621887,1356.8128121452785 C122.78192488893069,1358.1570289005672 121.62899904230565,1359.0484910422583 120.88679818718187,1359.6010370748684 M120.88679818718187,1359.6010370748684 C120.14190683069448,1360.153333328753 119.80729693446716,1360.3724960651498 119.8073923967624,1360.3673511750578 M683.9981721758311,1360.229389615138 Q684.1814606236471,1360.345829448301 684.1925450848361,1360.3673511750578 M684.192545084836,1360.367351175058 C684.1802616599683,1360.3489080338502 683.956308460359,1360.2074622412833 683.4624642655352,1359.8534856790225 M683.4624642655352,1359.8534856790225 C682.9702246113027,1359.5001586498383 682.2088041167794,1358.933963334791 681.1649086980534,1358.0835585417003 M681.1649086980534,1358.0835585417003 C680.1222849347992,1357.233961492393 678.7978964022645,1356.0998174488689 677.214055369728,1354.632402044865 M677.214055369728,1354.632402044865 C675.6311531075423,1353.1659525953507 673.7895085002782,1351.365894269184 671.737719387029,1349.2105494257758 M671.737719387029,1349.2105494257758 C669.6865361590104,1347.0563287475609 667.4259185799307,1344.546484035932 665.0214292753315,1341.6908142757359 M665.0214292753315,1341.6908142757359 C662.6172129708409,1338.836426891437 660.0698350957549,1335.6358769424012 657.4525022786875,1332.134869938665 M657.4525022786875,1332.134869938665 C654.8351095766089,1328.6353035215338 652.1484720874739,1324.8349425335357 649.4641196596,1320.819828909665 M649.4641196596,1320.819828909665 C646.7793744615955,1316.8063140831068 644.0976244797766,1312.5777091045063 641.479401998795,1308.2648222335836 M641.479401998795,1308.2648222335836 C637.5942410722705,1301.8532975024784 633.7764977174157,1295.090062626567 630.0557866809286,1288.0787575857225 M630.0557866809286,1288.0787575857225 C626.3345267247411,1281.0664719931556 622.7102990869229,1273.8061162356573 619.1973487625746,1266.3738748448905 M619.1973487625746,1266.3738748448905 C615.6838495185258,1258.940652902401 612.281627587949,1251.3355453266417 608.9895582143461,1243.6072812010625 M608.9895582143461,1243.6072812010625 C605.6969399210436,1235.8780365237599 602.5144741847165,1228.0256352966387 599.4256664972722,1220.0713511549282 M599.4256664972722,1220.0713511549282 C593.6195147577988,1205.100275988673 588.1713329998778,1189.8160322360466 583.0242932440506,1174.3215673143998 M583.0242932440506,1174.3215673143998 C577.8775962262193,1158.8260450900807 573.0320412104825,1143.1203016967393 568.4403968812659,1127.2776800769288 M568.4403968812659,1127.2776800769288 C563.8490952900446,1111.4340011544455 559.5117043853446,1095.4534440054967 555.3905895154725,1079.379747097833 M555.3905895154725,1079.379747097833 C551.2698173835961,1063.3049928874987 547.3653212865484,1047.137098918454 543.6490632365203,1030.8901991836597 M543.6490632365203,1030.8901991836597 C536.7725084705911,1000.8301451866962 530.5343939190587,970.5408242290799 524.8114130183692,940.1321323130157 M524.8114130183692,940.1321323130157 C519.0902662434407,909.7222779364153 513.884316073168,879.1930506696899 509.12161146531383,848.6217976200642 M509.12161146531383,848.6217976200642 C506.067881338852,828.9988902494382 503.1939006171134,809.3734439522666 500.4996693000966,789.7454587285479 M500.4996693000966,789.7454587285479 C497.803534960169,770.1194697549874 495.2801332327093,750.4946275437859 492.92762152581696,730.8997991567476 M492.92762152581696,730.8997991567476 C490.575545993171,711.3057384487258 488.3943585137853,691.7416916252308 486.39442937465276,672.2580207605063 M486.39442937465276,672.2580207605063 C484.39493733194183,652.7751175465005 482.57670166217736,633.3725903516288 480.96233135214504,614.1222954702746 M480.96233135214504,614.1222954702746 C479.972860210121,602.287936016467 479.0618521386975,590.5483781030049 478.24957177479996,578.9284701334341 M478.24957177479996,578.9284701334341 C477.4378507384844,567.3123941144011 476.7206525133864,555.7942149269214 476.1339029087246,544.5060755895814 M222.93428971253408,508.55916474239353 L187.1211539068811,454.1784270323509 M581.0656477690641,508.55916474239353 L616.8787835747171,454.1784270323509 M482.428399920305,425.21095963593757 C475.63478927159133,427.92596638921316 469.42359573339473,430.03477664526275 463.7352443830542,431.73816001709906 M463.7352443830542,431.73816001709906 C458.04571774502716,433.4397300852444 452.8790332948554,434.73587326917556 448.1427080546489,435.77658667854996 M448.1427080546489,435.77658667854996 C443.40520752675576,436.8154867842328 439.0980662088265,437.5989571153569 435.0958930677401,438.2262222782199 M435.0958930677401,438.2262222782199 C431.09254463896684,438.8516741373916 427.3941643870358,439.32092082830184 423.8424532235945,439.68241445388844 M423.8424532235945,439.68241445388844 C418.00601325084176,440.2700243717281 412.68109443703423,440.598939649607 407.4599411544724,440.73328993873963 M407.4599411544724,440.73328993873963 C402.2412821622932,440.86512469873514 397.1373446619905,440.80798486589407 391.8102131565703,440.5555652755872 M391.8102131565703,440.5555652755872 C386.48044033498644,440.2980096580603 380.9384294689162,439.85076467897744 374.77230820878844,439.063716411549 M374.77230820878844,439.063716411549 C371.6875685302771,438.6682700752167 368.44421044502576,438.184538412155 364.97224529091113,437.57437080032224 M364.97224529091113,437.57437080032224 C361.49963359142254,436.9636365150922 357.79875719684014,436.22664098096305 353.78152417457187,435.30936672078815 M353.78152417457187,435.30936672078815 C351.0148795529148,434.675385567558 348.10104774995096,433.947000003671 345.013740532935,433.0991304892037 M345.013740532935,433.0991304892037 C341.9271760071705,432.2510380965238 338.6672744846435,431.28306921469306 335.22854308765915,430.1639037138246 M335.22854308765915,430.1639037138246 C328.3567696406878,427.9263881791507 320.74912273009187,425.0783422498092 312.58322600026935,421.37365966582155 M312.58322600026935,421.37365966582155 C304.4260979414599,417.67424314827673 295.7151494166917,413.10562874180783 286.8735268587264,407.5691600468391 M286.8735268587264,407.5691600468391 C282.45480328368967,404.8034801281978 278.00758942185604,401.79999585339806 273.6031182668943,398.57346517392966 M273.6031182668943,398.57346517392966 C269.1990005045571,395.34781563097954 264.8377638663819,391.8987271447896 260.6005363395311,388.2656294893643 M260.6005363395311,388.2656294893643 C253.32040834692748,382.03446991415507 246.30025921790357,375.1900598497292 239.71264343693247,367.82019498620366 M239.71264343693247,367.82019498620366 C233.1228342933174,360.45057411223763 226.96555849775487,352.55549843917186 221.35195638068845,344.22959536479107 M221.35195638068845,344.22959536479107 C215.40856430643646,335.4195603340534 210.07789782704063,326.12636742757576 205.44247462722626,316.46574067224685 M205.44247462722626,316.46574067224685 C200.80616772386412,306.8052055759147 196.8651041000837,296.77723663073164 193.6770577412792,286.500124315486 M193.6770577412792,286.500124315486 C190.48812767892724,276.2231036592365 188.05221488155172,265.6969396329247 186.40234963521644,255.04248916723628 M186.40234963521644,255.04248916723628 C184.7516006853338,244.38813036054444 183.88689928649146,233.60548511447564 183.8165320254233,222.81797681161493 M183.8165320254233,222.81797681161493 C183.74614334392606,211.7583881955623 184.51068439580754,200.6925351593722 186.10294658844288,189.75355235605247 M186.10294658844288,189.75355235605247 C187.6942380845289,178.81447004101335 190.11324985718846,168.00225737308702 193.32559381041852,157.4472626771351 M193.32559381041852,157.4472626771351 C196.5369674721838,146.8921687440375 200.54167245033923,136.5942921971569 205.27815248786982,126.68120272127665 M205.27815248786982,126.68120272127665 C210.01366263902042,116.76801428282475 215.48094698536607,107.23961232961561 221.5912924512471,98.22079559442399 M221.5912924512471,98.22079559442399 C229.68057077084504,86.27077501240426 238.8995749383054,75.21197480291643 248.88641014102177,65.32778239595453 M248.88641014102177,65.32778239595453 C258.8620622338219,55.441474757837355 269.60557301564853,46.72979366649082 280.4419205962399,39.41690007956049 M280.4419205962399,39.41690007956049 C287.7468229462741,34.45298836875399 295.10878213065683,30.157510089205065 302.1935630176922,26.485662169009935 M302.1935630176922,26.485662169009935 C309.2837089172409,22.812021344363657 316.0966765194426,19.762010879071156 322.4484510429674,17.240626376596126 M322.4484510429674,17.240626376596126 C328.8055905790052,14.717448969669933 334.70153703636583,12.72289752556131 340.10249598408234,11.111766323101204 M340.10249598408234,11.111766323101204 C345.50881994431256,9.498842216189951 350.42015639489864,8.269338350927212 354.95293125523926,7.227847681511318 M354.95293125523926,7.227847681511318 C360.03836074732465,6.0944136467080305 364.63468134257045,5.244369891719138 368.89843582426164,4.57617516056183 M368.89843582426164,4.57617516056183 C373.16132273069786,3.909220311768354 377.09164352357993,3.424114486806445 380.8216488790464,3.0540331358808146 M380.8216488790464,3.0540331358808146 C384.5507866592575,2.685191667319025 388.0796090020529,2.431374672793508 391.51607447642334,2.2604743086965264 M391.51607447642334,2.2604743086965264 C394.95167237553846,2.090813826963376 398.2949134062285,2.0040699756587674 401.6294640303365,2.0028516173624666 M401.6294640303365,2.0028516173624666 C405.76626618087056,1.980375570913553 409.90053094522824,2.1045063525952914 414.20055015338346,2.353817413828107 M414.20055015338346,2.353817413828107 C418.5024041224296,2.6067220037822825 422.97001253527253,2.9848068732875195 427.82304052683276,3.5672642779624013 M427.82304052683276,3.5672642779624013 C432.6779032792836,4.1533152113586445 437.91818561045125,4.943738679924537 443.81492596020166,6.11834574347683 M443.81492596020166,6.11834574347683 C449.7135010708427,7.29654633575052 456.2685342000665,8.858930523010558 463.80243709268495,11.085928169271925 M463.80243709268495,11.085928169271925 C469.08672143018214,12.688704875680438 474.91290510741345,14.631895143206629 481.1779109568114,17.093141469750876 M481.1779109568114,17.093141469750876 C487.4402722059168,19.55141711071705 494.1414556271887,22.52774881070108 501.1043352448668,26.116599871418938 M501.1043352448668,26.116599871418938 C508.0645702622524,29.7024802465588 515.2865014760433,33.90087998243246 522.5189541022864,38.72308318457178 M522.5189541022864,38.72308318457178 C529.7487621282362,43.54231570113325 536.9890915666376,48.98535168395994 543.9147188253404,54.98029604240014 M543.9147188253404,54.98029604240014 C551.1762975459762,61.23465088758764 558.1733852200074,68.0992270181402 564.7356399625442,75.4862050012201 M564.7356399625442,75.4862050012201 C571.3000569966462,82.87294686206066 577.4296410992537,90.78209057542793 583.0145945492915,99.11920528578084 M583.0145945492915,99.11920528578084 C588.9320050935683,107.94764818968571 594.2347693137012,117.25675977197837 598.8410676671311,126.93079566708221 M598.8410676671311,126.93079566708221 C603.4482457221776,136.60474053215927 607.3589579105222,146.64360971004695 610.5160163348678,156.92910999442634 M610.5160163348678,156.92910999442634 C613.6739544608296,167.2145192487792 616.0782388227938,177.74655960962357 617.6963131687248,188.40438902989823 M617.6963131687248,188.40438902989823 C619.3152672162722,199.0621274201465 620.1480112477869,209.84565486982464 620.1866206564973,220.63158049112985 M620.1866206564973,220.63158049112985 C620.2244602794688,231.69297647428905 619.4271572592467,242.75804691281743 617.8023080127314,253.69362741201894 M617.8023080127314,253.69362741201894 C616.1784341999767,264.6293083920933 613.7270141609298,275.4354994328406 610.482956457797,285.98184960400863 M610.482956457797,285.98184960400863 C607.2398741884255,296.5283002560499 603.2041542549671,306.81491003851147 598.4380173649374,316.714141485587 M598.4380173649374,316.714141485587 C593.6728559086671,326.6134734135353 588.177277495826,336.1254270060971 582.0408149792288,345.12527826190836 M582.0408149792288,345.12527826190836 C576.4126064940035,353.3847690317825 570.2485952387816,361.2136952756407 563.6601131942195,368.51873298414506 M563.6601131942195,368.51873298414506 C557.0738195226966,375.8240203859053 550.063055061833,382.6054192523113 542.8004262373569,388.7765969851855 M542.8004262373569,388.7765969851855 C537.7760110666101,393.05100429594995 532.6196435181091,397.0376721830149 527.4310390249752,400.7076369400761 M527.4310390249752,400.7076369400761 C522.2423106352965,404.3783879003175 517.0213453009853,407.7324357305548 511.8643893518899,410.7628304135234 M511.8643893518899,410.7628304135234 C506.7073095062488,413.7940112996714 501.61423904582375,416.5015390385509 496.67795519718715,418.9004773019328 M496.67795519718715,418.9004773019328 C491.7415474520048,421.30020176849484 486.9619263186119,423.39133675955964 482.4283999203051,425.21095963593757" />
  </g>
</svg>
