<?xml version='1.0' ?>
<svg xmlns="http://www.w3.org/2000/svg" xmlns:xlink="http://www.w3.org/1999/xlink" version="1.1" width="392.5915217833455" height="204.00000000000003">
  <style type="text/css">
.edge {
  fill: None;
}
.edge.visible {
  stroke: #000000;
}
.edge.hidden {
  stroke: #C8C8FF;
}
@media (prefers-color-scheme: dark) {
    .edge.visible {
      stroke: #FFFFFF;
    }
    .edge.hidden {
      stroke: #A00000;
    }
}
</style>
  <g>
    <path class="edge sharp hidden" d="M2.0000001000000087,113.29146186428362 C1.996636070679211,112.78403057659952 2.570422615229152,112.27769786008642 3.626081894681871,111.85611309199388 M3.6260818946818705,111.85611309199388 C4.765489628343225,111.39709951081292 6.470787216543058,111.04068109412103 8.412921228708697,110.85580863350619 C10.351969448943294,110.66861390654762 12.515785946994535,110.65404098304263 14.487571341459953,110.81487413305936 C16.462016071342756,110.97336216044235 18.23216787419517,111.30626820954159 19.457011149216044,111.74945901836344 C20.689215942824333,112.19118866960314 21.368496100627876,112.74045500055904 21.363913698668103,113.29146186428362 M42.279375123260905,120.46820572573229 C42.27601109394014,119.96077443804822 42.849797638490045,119.45444172153509 43.90545691794277,119.03285695344256 M43.90545691794276,119.03285695344253 C45.0448646516041,118.57384337226158 46.75016223980394,118.21742495556967 48.69229625196957,118.03255249495486 C50.631344472204184,117.84535776799629 52.79516097025541,117.83078484449126 54.76694636472081,117.99161799450805 C56.741391094603614,118.15010602189095 58.511542897456025,118.48301207099023 59.73638617247693,118.92620287981212 C60.96859096608515,119.36793253105184 61.647871123888805,119.91719886200764 61.643288721929,120.46820572573232 M48.37728955506738,71.56567992675699 C48.436177592143274,72.11714196092132 49.065299253609254,72.60305164138288 50.16076557772439,72.94359364282073 M50.16076557772439,72.94359364282073 C51.34750696826931,73.31669758084276 53.08527682496501,73.51458411680252 55.03834709037732,73.49883256570158 C56.98861947036782,73.48596285468187 59.14203546369182,73.25963273479726 61.08332151351303,72.86351376395146 C63.02753858818334,72.46965702821589 64.74752260439685,71.90846753103085 65.91153890804618,71.28818196337487 C67.08306580803601,70.6686648482207 67.69136858470091,69.99390948294334 67.61904494480635,69.39404474143348 M82.55875014652183,127.64494958718093 C82.55538611720095,127.13751829949682 83.12917266175103,126.6311855829839 84.18483194120367,126.20960081489122 M84.18483194120367,126.2096008148912 C85.32423967486501,125.75058723371025 87.0295372630649,125.39416881701835 88.97167127523046,125.20929635640354 C90.91071949546506,125.02210162944486 93.07453599351636,125.00752870594002 95.0463213879817,125.16836185595669 C97.02076611786464,125.3268498833397 98.79091792071694,125.6597559324389 100.0157611957379,126.10294674126082 C101.24796598934611,126.54467639250055 101.9272461471497,127.09394272345632 101.92266374518994,127.64494958718102 M83.27059887035328,47.514455609978164 C83.32655564491306,48.04956771891553 83.95402625936192,48.520161426488436 85.04920082713362,48.848794436115504 M85.04920082713362,48.84879443611551 C86.2341828728695,49.20844267279069 87.97043950229293,49.39741926357428 89.92267742894147,49.37904617592251 C91.8721093230627,49.36346878604999 94.02538131632356,49.140733134856625 95.96742309179345,48.75379867589428 C97.91238257514439,48.36905092020834 99.6340148681602,47.82250146856432 100.80040783815471,47.219518812258656 C101.97429859023669,46.61726927041487 102.58568528376769,45.962333466129145 102.51662095853801,45.380964659027484 M122.83812516978269,134.82169344862962 C122.83476114046192,134.31426216094565 123.40854768501185,133.80792944443243 124.46420696446454,133.38634467633983 M124.46420696446455,133.38634467633986 C125.60361469812587,132.92733109515893 127.3089122863257,132.57091267846698 129.2510462984914,132.3860402178522 C131.19009451872583,132.1988454908934 133.3539110167772,132.1842725673887 135.32569641124266,132.34510571740535 C137.30014114112538,132.50359374478828 139.07029294397793,132.8364997938876 140.29513621899872,133.2796906027094 C141.527341012607,133.72142025394913 142.20662117041056,134.270686584905 142.2020387684508,134.82169344862965 M163.11750019304358,141.99843731007826 C163.1141361637229,141.49100602239423 163.6879227082727,140.9846733058811 164.74358198772543,140.56308853778853 M164.74358198772543,140.56308853778853 C165.88298972138674,140.10407495660755 167.58828730958663,139.74765653991565 169.5304213217523,139.56278407930083 C171.46946954198688,139.37558935234222 173.63328604003817,139.36101642883733 175.6050714345036,139.52184957885405 C177.57951616438615,139.68033760623683 179.3496679672389,140.0132436553363 180.5745112422596,140.45643446415804 C181.80671603586777,140.8981641153978 182.48599619367138,141.4474304463536 182.48141379171165,141.99843731007826 M203.3968752163045,149.17518117152696 C203.3935111869837,148.66774988384284 203.9672977315335,148.16141716732972 205.02295701098635,147.7398323992372 M205.02295701098632,147.7398323992372 C206.16236474464768,147.28081881805613 207.86766233284754,146.92440040136444 209.80979634501313,146.73952794074953 C211.7488445652478,146.55233321379083 213.912661063299,146.53776029028597 215.88444645776448,146.69859344030274 C217.85889118764723,146.85708146768553 219.6290429904996,147.189987516785 220.85388626552052,147.63317832560674 C222.0860910591286,148.07490797684648 222.76537121693238,148.6241743078022 222.76078881497253,149.175181171527 M243.67625023956546,156.35192503297566 C243.67288621024446,155.8444937452914 244.24667275479473,155.3381610287786 245.30233203424726,154.9165762606859 M245.30233203424726,154.91657626068587 C246.4417397679086,154.45756267950486 248.1470373561084,154.10114426281308 250.08917136827415,153.91627180219817 C252.0282195885086,153.72907707523947 254.19203608656,153.7145041517347 256.16382148102537,153.8753373017514 C258.138266210908,154.0338253291342 259.90841801376075,154.36673137823368 261.1332612887814,154.8099221870554 C262.3654660823896,155.25165183829523 263.04474624019326,155.8009181692509 263.0401638382334,156.35192503297563 M192.89580285832557,68.29326510280299 C193.98992433605642,68.46834038322946 195.6607066026755,68.74622483872238 197.5814493144822,69.07259077122046 C199.49873965900767,69.39828753753932 201.6519067296779,69.7700648057383 203.61892844725188,70.11505302687581 C205.58857034543425,70.46042086752782 207.36024107189917,70.77692581728324 208.58662815278262,71.0025224757456 C209.82064957134233,71.22939419662427 210.49981942612078,71.36361091366462 210.49193124652498,71.37902377626455 M191.41142447943048,68.0782039739209 C191.4111469304357,68.06347451706753 191.93230827512133,68.13898191377407 192.8958028583256,68.29326510280299 M283.95562526282635,163.52866889442433 C283.95226123350545,163.02123760674027 284.52604777805556,162.51490489022711 285.58170705750814,162.09332012213451 M285.58170705750814,162.09332012213451 C286.72111479116927,161.6343065409536 288.4264123793694,161.27788812426164 290.36854639153495,161.09301566364687 C292.3075946117695,160.90582093668814 294.4714111098208,160.89124801318349 296.4431965042862,161.05208116319997 C298.41764123416897,161.21056919058304 300.1877930370213,161.54347523968215 301.41263631204225,161.98666604850408 C302.6448411056505,162.42839569974385 303.32412126345406,162.97766203069946 303.3195388614944,163.52866889442427 M249.6137054971465,113.14660978737103 C249.61865365516366,112.59567513378799 248.9397711049413,112.04642759521302 247.70692008016977,111.60462698761006 C246.48155925464704,111.16137992786204 244.71141672452515,110.82848964356302 242.7374190926015,110.67003353531479 C240.76607843244997,110.50923210767168 238.60231767111435,110.52379017853562 236.66279741114744,110.71093445014696 C234.7200470373502,110.89576477981016 233.01522039620747,111.25212211065697 231.87587369316026,111.7112610150813 M231.8758736931603,111.7112610150813 C230.81995769788512,112.13299024712293 230.24651489800078,112.63917045373002 230.24979189847838,113.14660978737103 M330.17245554366826,173.0916679761468 C328.42387159005057,172.896632465052 326.901369343846,172.56043960669058 325.85490833103466,172.1382834345672 C324.8029601822247,171.71710333624114 324.2317061777726,171.211832907105 324.2350002860872,170.70541275587294 M324.2350002860872,170.70541275587294 C324.23163625676636,170.19798146818889 324.80542280131635,169.6916487516758 325.86108208076905,169.2700639835832 M325.86108208076905,169.2700639835832 C327.0004898144302,168.81105040240223 328.70578740263045,168.45463198571036 330.64792141479575,168.2697595250955 C332.5869696350308,168.082564798137 334.7507861330815,168.06799187463184 336.7225715275472,168.22882502464873 C338.69701625743016,168.38731305203177 340.4671680602821,168.72021910113085 341.69201133530316,169.16340990995272 C342.9242161289115,169.60513956119257 343.60349628671486,170.1544058921481 343.5989138847553,170.70541275587286 M289.8930805204074,156.27949899451932 C289.8980286784245,155.72856434093646 289.21914612820206,155.17931680236123 287.9862951034306,154.7375161947584 C286.76093427790784,154.29426913501018 284.99079174778615,153.96137885071138 283.0167941158624,153.80292274246304 C281.045453455711,153.64212131481995 278.88169269437515,153.65667938568387 276.9421724344084,153.84382365729522 C274.99942206061104,154.0286539869584 273.2945954194685,154.38501131780535 272.1552487164212,154.8441502222296 M272.15524871642117,154.8441502222296 C271.09933272114597,155.26587945427124 270.52588992126186,155.77205966087826 270.5291669217393,156.27949899451932 M364.51437530934805,177.88215661732164 C364.5110112800271,177.37472532963753 365.08479782457704,176.86839261312437 366.1404571040299,176.44680784503188 M366.1404571040299,176.44680784503186 C367.27986483769126,175.9877942638508 368.98516242589096,175.63137584715906 370.9272964380568,175.44650338654418 C372.8663446582913,175.2593086595855 375.03016115634273,175.24473573608068 377.00194655080804,175.40556888609734 C378.97639128069073,175.56405691348024 380.74654308354326,175.8969629625796 381.97138635856413,176.34015377140145 C383.20359115217235,176.78188342264107 383.8828713099761,177.33114975359712 383.87828890801615,177.8821566173216 M330.1724555436683,199.41238820166757 C330.1774037016856,198.86145354808454 329.49852115146325,198.3122060095095 328.2656701266915,197.8704054019066 C327.0403093011688,197.42715834215863 325.2701667710472,197.09426805785944 323.2961691391234,196.93581194961135 C321.3248284789722,196.7750105219682 319.16106771763606,196.7895685928323 317.2215474576694,196.97671286444353 C315.2787970838719,197.16154319410674 313.57397044272926,197.5179005249534 312.4346237396822,197.97703942937784 M312.4346237396821,197.97703942937784 C311.37870774440705,198.39876866141935 310.80526494452255,198.90494886802668 310.80854194500023,199.41238820166757" />
    <path class="edge outline hidden" d="M181.54349780156298,36.08283872780194 C181.22365390588854,34.02089670246928 180.8253781788808,32.02811784797643 180.34867062054,30.104502164323403 C178.98671781073057,24.59613359456668 176.9853168637876,19.73303351507719 174.51431078245727,15.752185861763934 M204.26398877399163,70.37479495067402 C203.9872175146348,68.11978630545507 203.76404788557693,65.7407943775648 203.6167110313107,63.296203248943634 C203.46848531507433,60.85333775354401 203.39609237362959,58.34487305741338 203.39687521630444,55.87751097269431 M203.39687521630447,55.87751097269431 C203.39907040928597,51.614992108036525 203.00724516866455,47.59296405136672 202.31344020652895,44.10150277259864 C201.9908355133136,42.47165442490875 201.60456230786056,40.95672411937929 201.17499875510865,39.580643868361804 M221.8229323027275,43.2599681202852 C221.48423188391402,41.0766163662546 221.05774623988927,38.97126197873341 220.54347537065308,36.94390495772163 C219.18414557275997,31.573694947406775 217.21393570342903,26.828400350015965 214.79361392981116,22.928813726665002 M249.61370549714653,106.11061751591893 C249.3210716248,103.80416311686562 248.96822786903473,101.65939613266997 248.58419500770586,99.57734819275619 C248.16978805958246,97.3321366248621 247.716921137327,95.15098011175851 247.25433199009706,92.92520225960482 C246.3811876617224,88.7208736108793 245.46461004311746,84.34221267698827 244.77175873327047,79.30930292400035 C244.4307303483539,76.83103900207433 244.14645422532632,74.18281210242488 243.9582852800844,71.43541360408938 C243.76865812019562,68.69084607807905 243.67513813809305,65.84710695338288 243.67625023956543,63.054254834142974 M243.67625023956543,63.05425483414298 C243.67851743878015,58.75879896257802 243.28044594452155,54.70762576019075 242.57673970056013,51.19742312950492 C242.2574304961391,49.598315535069545 241.87684175422152,48.11077427892673 241.45440139760774,46.757475866450065 M262.10230095834373,50.43667109974256 C261.76100695510365,48.23664196912961 261.3306031372908,46.11586821762334 260.81108950490557,44.07434984522387 C259.65998691091244,39.54485380605326 258.07586684619525,35.45729195890797 256.1507673780066,31.95345281198985 C255.80221028284822,31.318396675514144 255.4429598254822,30.702426277699946 255.07301600590768,30.10554161854722 M284.0591961825295,158.65395571126155 C284.08851973635507,158.01061782109136 284.1240456374962,157.38611807232115 284.16577388595397,156.7804564649515 C284.335224096858,154.3116534614721 284.60736177102365,152.1936150941613 284.9483120385781,150.37798109545204 C285.23844840288524,148.83079869961674 285.57770810920573,147.48673163065473 285.95395941889615,146.26234376888726 C286.32683105896115,145.04880779615303 286.73961048918443,143.9490328698375 287.1697534254547,142.92833644790906 C287.54839475014376,142.0282171290541 287.9435784427457,141.18747659783122 288.2735857750722,140.48198610928705 C288.4835865637994,140.03522896150213 288.664128422596,139.64125695756823 288.8152113514624,139.30007009748599 C288.96722104527527,138.95543300403705 289.0910102382958,138.65575308400594 289.20344653534056,138.36182891963443 C289.4557426016766,137.69205312548505 289.66430413751294,137.0511857053811 289.8930805204074,136.00390711092862 M289.8930805204074,113.28736137736784 C289.6004466480585,110.98090697829542 289.24760289228817,108.83613999407336 288.86357003095475,106.75409205414024 C288.4491630828306,104.50888048624653 287.99629616057445,102.32772397314254 287.53370701334416,100.10194612098724 C286.66056268489734,95.89761747191339 285.7439850662122,91.51895653763533 285.05113375634863,86.48604678412008 C284.7101053714813,84.0077828623546 284.4258292485044,81.35955596291336 284.2376603032956,78.61215746480869 C284.0480331434407,75.86758993902896 283.9545131613544,73.02385081458603 283.9556252628263,70.23099869559164 M283.95562526282623,70.23099869559164 C283.95752145097947,66.1145155571577 283.59275263031395,62.22208746377786 282.94220720686883,58.81560386287268 C282.605966338991,57.04828420154175 282.19487477566213,55.41119507482907 281.7337758141676,53.93422082165475 M302.38167613752546,57.613414758242406 C302.0533872970983,55.497060998312655 301.6425374459651,53.45375722302441 301.1491265841257,51.483503432377674 C300.0155012262782,46.950755154774235 298.4499944196625,42.85446114653249 296.542920989866,39.33703933974532 C296.15925738624026,38.62871312876673 295.7624132401787,37.94379582096298 295.35238855168114,37.282287416334064 M324.2350002860871,170.70541275587294 C324.23453860092246,168.28458225507433 324.3035136948462,166.00548961440825 324.44514890921477,163.9572003264002 C324.6145991201188,161.48839732292078 324.88673679428445,159.37035895561013 325.2276870618389,157.55472495690077 C325.5178234261464,156.00754256106566 325.85708313246664,154.6634754921035 326.23333444215723,153.4390876303362 C326.6062060822222,152.22555165760184 327.01898551244506,151.12577673128627 327.44912844871556,150.10508030935785 C327.8277697734044,149.2049609905027 328.2229534660066,148.36422045928026 328.55296079833295,147.6587299707358 C328.76296158706026,147.21197282295117 328.94350344585644,146.8180008190175 329.0945863747228,146.4768139589355 C329.2465960685355,146.1321768654866 329.370385261556,145.83249694545586 329.4828215586008,145.53857278108453 C329.7351176249374,144.86879698693457 329.94367916077374,144.2279295668305 330.1724555436683,143.1806509723774 M330.1724555436683,120.46410523881694 C329.87982167132463,118.15765083978418 329.5269779155642,116.01288385561617 329.14294505424056,113.93083591572329 C328.7285381061178,111.68562434782848 328.2756711838634,109.50446783472569 327.81308203663366,107.2786899825735 C326.9399377082965,103.07436133402852 326.0233600897324,98.69570040033993 325.33050877989245,93.66279064762773 C324.989480394949,91.18452672561378 324.70520427189376,88.53629982584962 324.5170353266335,85.7889013273873 C324.327408166726,83.04433380125013 324.2338881846145,80.20059467641516 324.2350002860872,77.40774255704028 M324.23500028608714,77.4077425570403 C324.2368964742403,73.29125941860634 323.8721276535747,69.39883132522651 323.2215822301297,65.9923477243213 C322.88534136225195,64.22502806299042 322.474249798923,62.587938936277716 322.0131508374285,61.11096468310342 M342.6610511607863,64.79015861969106 C342.33276232035956,62.67380485976136 341.92191246922584,60.630501084473046 341.42850160738647,58.660247293826316 C340.29487624953913,54.127499016222856 338.7293694429234,50.03120500798116 336.8222960131268,46.51378320119399 C336.4386324095012,45.80545699021537 336.0417882634397,45.12053968241164 335.63176357494194,44.459031277782685" />
    <path class="edge sharp visible" d="M19.737831903986237,114.72681063657336 C18.598424170324872,115.18582421775419 16.893126582125063,115.54224263444621 14.950992569959428,115.72711509506101 C13.011944349724837,115.91430982201969 10.84812785167361,115.92888274552452 8.87634245720818,115.76804959550779 C6.90189772732538,115.60956156812486 5.131745924472983,115.27665551902565 3.906902649452085,114.83346471020376 C2.674697855843803,114.39173505896404 1.9954176980402385,113.84246872800824 2.0000001000000087,113.29146186428362 M21.363913698668103,113.29146186428363 C21.367277727988878,113.79889315196756 20.793491183438967,114.30522586848076 19.737831903986237,114.72681063657338 M23.560856200205034,98.2066554249979 C22.864340480030744,98.99721791583303 22.008079750691564,99.66114023081127 21.04507480012245,100.15709968951944 C20.082535136862674,100.65380561103679 19.01384467165745,100.9822782172785 17.905084721833923,101.12220950626289 C16.796496205423175,101.26296790616695 15.648496675499562,101.2151119559797 14.531991372845221,100.98161502374603 C13.415346601034672,100.74892992237243 12.330861278343814,100.33074250352126 11.345517480222844,99.752885478675 C10.359738702338568,99.17572655796441 9.473693576107982,98.43924371978187 8.742115498201715,97.58893142808968 C8.009860351355618,96.73911595084999 7.432510145066006,95.7759817129072 7.045728667846509,94.75901286854057 C6.658113053585394,93.7422786553771 6.461297143822381,92.67231467068737 6.467457911004276,91.61520794768828 C6.47272810168729,90.55804659006428 6.68098488676474,89.5143692691443 7.079338655105803,88.54872811203656 M7.079338655105802,88.54872811203656 C7.421055179305587,87.71870416066619 7.902565570080032,86.9464789998289 8.501588153136478,86.26753961253598 M8.501588153136478,86.26753961253597 C9.198103873310737,85.4769771217008 10.054364602649882,84.81305480672272 11.017369553218957,84.31709534801446 C11.979909216478681,83.82038942649714 13.048599681683871,83.49191682025544 14.15735963150735,83.35198553127101 C15.265948147918063,83.2112271313669 16.413947677841634,83.2590830815542 17.530452980495934,83.49258001378774 C18.64709775230645,83.72526511516132 19.73158307499729,84.14345253401243 20.716926873118254,84.72130955885865 C21.702705651002518,85.29846847956907 22.58875077723312,86.03495131775159 23.320328855139408,86.88526360944375 C24.052584001985533,87.73507908668333 24.629934208275202,88.69821332462615 25.016715685494756,89.71518216899264 C25.404331299755928,90.73191638215611 25.60114720951904,91.80188036684574 25.59498644233723,92.8589870898448 C25.58971625165432,93.91614844746883 25.38145946657697,94.95982576838878 24.98310569823603,95.92546692549655 M24.98310569823602,95.92546692549651 C24.64138917403621,96.7554908768672 24.159878783261668,97.52771603770482 23.56085620020502,98.2066554249979 M60.01720692724713,121.903554498022 C58.87779919358576,122.36256807920289 57.17250160538592,122.71898649589488 55.23036759322032,122.9038589565097 C53.29131937298569,123.09105368346836 51.1275028749345,123.10562660697322 49.15571748046905,122.94479345695653 C47.18127275058623,122.7863054295735 45.41112094773387,122.45339938047434 44.18627767271293,122.01020857165241 C42.954072879104665,121.56847892041264 42.27479272130113,121.019212589457 42.279375123260905,120.46820572573226 M61.643288721929,120.46820572573228 C61.64665275124979,120.97563701341636 61.07286620669985,121.48196972992947 60.01720692724713,121.903554498022 M65.8355689221493,68.01613102536972 C64.64882753160438,67.64302708734762 62.91105767490872,67.44514055138795 60.95798740949641,67.46089210248888 C59.00771502950596,67.47376181350862 56.85429903618188,67.70009193339314 54.91301298636066,68.09621090423899 C52.96879591169039,68.49006763997455 51.24881189547684,69.05125713715961 50.084795591827536,69.67154270481561 C48.91326869183761,70.29105981996963 48.30496591517288,70.96581518524721 48.377289555067385,71.56567992675701 M67.61904494480632,69.39404474143345 C67.56015690773046,68.84258270726913 66.93103524626443,68.35667302680753 65.8355689221493,68.01613102536973 M100.29658195050803,129.08029835947067 C99.15717421684663,129.53931194065154 97.45187662864686,129.89573035734358 95.5097426164812,130.08060281795832 C93.5706943962466,130.26779754491702 91.40687789819542,130.28237046842187 89.43509250372993,130.12153731840516 C87.46064777384719,129.9630492910223 85.69049597099475,129.63014324192298 84.46565269597387,129.1869524331011 C83.2334479023656,128.74522278186143 82.55416774456201,128.19595645090556 82.55875014652183,127.64494958718097 M101.92266374518991,127.64494958718096 C101.92602777451064,128.15238087486495 101.35224122996075,128.65871359137816 100.29658195050803,129.08029835947067 M100.73801900175766,44.046625832890186 C99.55303695602171,43.686977596214994 97.81678032659838,43.49800100543141 95.8645423999498,43.51637409308317 C93.91511050582862,43.531951482955705 91.76183851256775,43.75468713414906 89.81979673709785,44.14162159311139 C87.87483725374695,44.52636934879733 86.15320496073112,45.07291880044135 84.98681199073664,45.67590145674702 C83.81292123865454,46.27815099859076 83.2015345451237,46.93308680287652 83.27059887035328,47.514455609978164 M102.516620958538,45.38096465902748 C102.4606641839783,44.84585255009016 101.83319356952926,44.37525884251721 100.73801900175769,44.046625832890186 M140.5759569737689,136.25704222091935 C139.43654924010755,136.7160558021002 137.7312516519077,137.07247421879225 135.78911763974213,137.257346679407 C133.8500694195075,137.44454140636591 131.6862529214563,137.45911432987037 129.7144675269908,137.2982811798538 C127.740022797108,137.13979315247084 125.96987099425564,136.80688710337165 124.74502771923476,136.3636962945498 C123.51282292562642,135.9219666433099 122.83354276782293,135.37270031235437 122.83812516978271,134.82169344862962 M142.20203876845073,134.82169344862962 C142.20540279777163,135.32912473631364 141.63161625322158,135.83545745282677 140.5759569737689,136.25704222091935 M120.95611541872769,18.4420696745785 C120.36592854877985,19.260767418348173 119.97146460198837,20.114004030668053 119.80051571237195,20.941422737885578 C119.62844845481195,21.76897062618739 119.67989625442702,22.570700609386815 119.95133694281488,23.289872984191206 M119.95133694281488,23.289872984191202 C120.3741406634827,24.42304248633649 121.35099680777151,25.344522521860366 122.71730656840899,25.8984131689202 C124.07898347802367,26.456663253742185 125.82269003264827,26.64475788472115 127.65367468045373,26.430950107739438 C129.48367685344974,26.221882524488553 131.39280615245522,25.611854039856464 133.0583688150574,24.703931834572867 C134.7269401583607,23.79948640463323 136.14306690225607,22.60159633257998 137.06786542803204,21.312767219157973 M137.06786542803206,21.31276721915797 C137.65805229797957,20.49406947538827 138.05251624477157,19.640832863068425 138.2234651343877,18.8134141558509 C138.39553239194774,17.985866267549085 138.34408459233268,17.18413628434967 138.07264390394485,16.46496390954527 M138.07264390394488,16.464963909545265 C137.64984018327723,15.331794407399984 136.67298403898803,14.410314371876098 135.30667427835067,13.85642372481625 C133.9449973687359,13.298173639994264 132.20129081411145,13.110079009015331 130.37030616630608,13.323886785997022 C128.54030399330986,13.532954369247909 126.63117469430476,14.142982853880005 124.96561203170224,15.050905059163583 C123.29704068839895,15.955350489103216 121.88091394450376,17.15324056115653 120.95611541872769,18.4420696745785 M180.85533199702982,143.433786082368 C179.71592426336838,143.89279966354886 178.01062667516868,144.24921808024087 176.06849266300298,144.4340905408557 C174.12944444276857,144.6212852678145 171.9656279447172,144.63585819131913 169.99384255025166,144.4750250413025 C168.01939782036897,144.31653701391946 166.24924601751644,143.98363096482032 165.02440274249568,143.54044015599845 C163.79219794888724,143.09871050475851 163.11291779108396,142.54944417380307 163.1175001930436,141.99843731007826 M182.4814137917117,141.9984373100783 C182.4847778210323,142.50586859776223 181.91099127648255,143.01220131427547 180.85533199702982,143.433786082368 M145.39211332826036,10.23159359589249 C145.1873327766327,11.531634951029352 145.20953958349784,12.871715836139504 145.45775875714315,14.14219982276206 C145.7046233332796,15.413131562015801 146.17683015841223,16.61341457353511 146.83547551058416,17.645949502533423 C147.49308038295882,18.679425229122472 148.33645366458902,19.5441010439437 149.29755819919112,20.169219924750593 C150.25793637170727,20.795772648107683 151.3353756794112,21.18171660820354 152.44150082760868,21.296442374196964 M152.44150082760868,21.296442374196964 C153.46474019363671,21.404037012387228 154.51195196931755,21.279878696014627 155.5096568723422,20.932033247556056 C156.50763105040642,20.585334175157342 157.45547424691588,20.015512287393555 158.28724688066475,19.26273193641698 C159.11958134049846,18.510833438037245 159.83522112867334,17.576540793165652 160.38395779436848,16.524710226667242 C160.93354883719456,15.473496989302784 161.31561264864334,14.305310147032467 161.50386333756472,13.102291140471955 M161.50386333756472,13.102291140471957 C161.70864388919253,11.802249785335093 161.68643708232707,10.462168900224924 161.43821790868196,9.1916849136024 C161.19135333254545,7.920753174348623 160.71914650741292,6.720470162829361 160.06050115524093,5.687935233831022 C159.40289628286615,4.654459507241976 158.55952300123627,3.789783692420751 157.59841846663394,3.164664811613855 C156.6380402941181,2.5381120882567725 155.56060098641365,2.1521681281609055 154.4544758382164,2.0374423621674773 M154.45447583821644,2.037442362167477 C153.43123647218806,1.929847723977196 152.3840246965075,2.054006040349818 151.3863197934829,2.4018514888083855 C150.38834561541893,2.7485505612071246 149.44050241890918,3.3183724489708766 148.60872978516048,4.07115279994747 C147.7763953253265,4.823051298327168 147.06075553715166,5.757343943198778 146.51201887145658,6.809174509697189 C145.96242782863038,7.860387747061655 145.5803640171818,9.028574589331994 145.39211332826036,10.231593595892484 M221.1347070202907,150.61052994381666 C219.99529928662923,151.06954352499753 218.29000169842965,151.42596194168954 216.3478676862639,151.6108344023043 C214.40881946602923,151.79802912926303 212.2450029679782,151.81260205276794 210.27321757351262,151.65176890275112 C208.29877284362982,151.49328087536833 206.52862104077758,151.1603748262689 205.3037777657565,150.71718401744712 C204.07157297214823,150.27545436620727 203.3922928143448,149.72618803525168 203.39687521630447,149.17518117152693 M222.76078881497256,149.17518117152696 C222.76415284429342,149.68261245921107 222.1903662997433,150.18894517572406 221.1347070202907,150.61052994381666 M165.58776970253433,29.040411962672078 C166.09289472440452,30.50129207161036 167.1073495532497,32.04950317238135 168.45472200816195,33.41516367301005 C169.7980080465428,34.783048686511826 171.4664153937794,35.96096328056622 173.16894552494182,36.74351301968387 C174.87110936662845,37.53089910945045 176.5993197673467,37.919196322408006 178.0521554157096,37.84062883727887 C179.50847610837897,37.76777713552804 180.68106591611615,37.228032511251044 181.36591808698037,36.31586187380331 M181.3659180869804,36.31586187380331 C181.77388619270002,35.77714872412651 182.01365652390012,35.111479753920555 182.07004875385945,34.3612534479697 C182.12726707732054,33.61140806136035 182.00110729954,32.777005339005996 181.69951971183872,31.911109507251552 M181.69951971183872,31.911109507251545 C181.19439468996848,30.450229398313247 180.17993986112347,28.90201829754227 178.83256740621104,27.53635779691356 C177.48928136783036,26.168472783411804 175.82087402059372,24.990558189357408 174.11834388943132,24.208008450239753 C172.4161800477446,23.420622360473164 170.68796964702636,23.03232514751562 169.23513399866331,23.110892632644738 C167.77881330599413,23.183744334395577 166.60622349825698,23.723488958672604 165.92137132739268,24.635659596120313 M165.92137132739265,24.635659596120316 C165.51340322167292,25.174372745797086 165.2736328904729,25.840041716003057 165.21724066051357,26.590268021953907 C165.1600223370528,27.34011340856331 165.28618211483288,28.174516130917613 165.58776970253433,29.040411962672074 M261.4140820435516,157.78727380526533 C260.27467430989026,158.2462873864462 258.5693767216904,158.60270580313826 256.62724270952486,158.78757826375298 C254.68819448929023,158.9747729907119 252.5243779912391,158.9893459142165 250.5525925967735,158.82851276419981 C248.57814786689067,158.67002473681677 246.8079960640386,158.33711868771778 245.58315278901745,157.89392787889574 C244.35094799540914,157.452198227656 243.67166783760567,156.9029318967003 243.6762502395655,156.35192503297566 M263.04016383823347,156.3519250329756 C263.04352786755436,156.8593563206597 262.4697413230042,157.36568903717273 261.4140820435516,157.78727380526533 M210.49193124652498,71.37902377626453 C210.4922087955197,71.39375323311788 209.971047450834,71.31824583641136 209.00755286762987,71.16396264738246 M209.00755286762993,71.16396264738245 C207.9134313898988,70.98888736695588 206.24264912328016,70.71100291146315 204.3219064114734,70.38463697896505 C202.4046160669479,70.05894021264616 200.25144899627756,69.68716294444721 198.28442727870333,69.34217472330958 C196.31478538052082,68.99680688265754 194.5431146540564,68.68030193290228 193.3167275731728,68.45470527443985 C192.0827061546132,68.22783355356115 191.40353629983434,68.09361683652087 191.41142447943048,68.07820397392088 M301.69345706681247,164.96401766671397 C300.5540493331511,165.4230312478949 298.848751744951,165.77944966458674 296.9066177327857,165.9643221252017 C294.96756951255117,166.15151685216037 292.80375301449953,166.16608977566523 290.8319676200343,166.00525662564843 C288.85752289015176,165.8467685982656 287.087371087299,165.5138625491662 285.8625278122783,165.0706717403445 C284.6303230186699,164.62894208910453 283.9510428608665,164.0796757581489 283.95562526282635,163.52866889442421 M303.3195388614944,163.52866889442424 C303.32290289081516,164.03610018210833 302.749116346265,164.5424328986213 301.69345706681247,164.964017666714 M247.98762370246462,114.58195855966076 C249.04353969773993,114.16022932761925 249.61698249762392,113.65404912101192 249.61370549714655,113.14660978737102 M230.2497918984784,113.14660978737103 C230.24484374046128,113.69754444095405 230.9237262906835,114.246791979529 232.15657731545508,114.68859258713194 C233.38193814097764,115.13183964687988 235.15208067109955,115.46472993117905 237.12607830302335,115.62318603942727 C239.09741896317482,115.78398746707046 241.2611797245105,115.76942939620642 243.20069998447747,115.58228512459512 C245.1434503582744,115.39745479493173 246.84827699941766,115.04109746408518 247.98762370246465,114.58195855966076 M341.9728320900734,172.14076152816264 C340.7421774925234,172.63714410145755 338.84752904489636,173.0125141325728 336.7119930370141,173.18285471848378 C334.5800287029915,173.35639209191015 332.22518722000893,173.32354813268194 330.1724555436683,173.09166797614682 M343.5989138847552,170.70541275587289 C343.60227791407567,171.2128440435569 343.02849136952636,171.71917676007007 341.9728320900734,172.14076152816264 M288.26699872572556,157.71484776680904 C289.32291472100087,157.29311853476764 289.8963575208849,156.78693832816012 289.8930805204074,156.27949899451932 M270.5291669217393,156.27949899451932 C270.52421876372216,156.83043364810234 271.2031013139444,157.37968118667732 272.435952338716,157.82148179428015 C273.6613131642384,158.26472885402814 275.43145569436075,158.5976191383274 277.40545332628415,158.75607524657548 C279.3767939864359,158.91687667421886 281.54055474777107,158.9023186033545 283.4800750077384,158.7151743317434 C285.42282538153523,158.53034400207983 287.1276520226787,158.17398667123376 288.26699872572556,157.71484776680904 M382.25220711333424,179.3175053896113 C381.1127993796726,179.77651897079213 379.4075017914733,180.1329373874842 377.46536777930737,180.31780984809902 C375.526319559073,180.50500457505763 373.36250306102176,180.5195774985626 371.39071766655616,180.3587443485458 C369.4162729366735,180.20025632116284 367.646121133821,179.8673502720636 366.4212778588002,179.42415946324178 C365.1890730651916,178.98242981200198 364.50979290738843,178.43316348104617 364.5143753093481,177.8821566173216 M383.8782889080161,177.88215661732158 C383.88165293733675,178.3895879050055 383.30786639278705,178.8959206215188 382.25220711333424,179.3175053896113 M328.54637374898647,200.8477369739573 C329.60228974426195,200.42600774191584 330.17573254414555,199.91982753530846 330.1724555436683,199.41238820166757 M310.80854194500023,199.41238820166757 C310.8035937869828,199.9633228552505 311.48247633720536,200.5125703938255 312.7153273619768,200.95437100142848 C313.94068818749923,201.39761806117627 315.71083071762166,201.73050834547567 317.68482834954506,201.8889644537237 C319.6561690096968,202.04976588136705 321.8199297710322,202.03520781050275 323.7594500309991,201.84806353889167 C325.70220040479603,201.66323320922803 327.40702704593957,201.30687587838202 328.54637374898635,200.8477369739573" />
    <path class="edge outline visible" d="M2.000000100000001,113.29146186428362 C1.999556671923463,110.89293496898591 2.0672179661628984,108.63347073960026 2.206267621463219,106.59989573776625 C2.3787262725638905,104.05855388373733 2.659762829049164,101.88802488642033 3.01272319154274,100.0346014103251 C3.290019764826994,98.57614780090888 3.6112258259378494,97.29863905330777 3.9660016677893957,96.13087040164932 C4.340636120928334,94.89750182420882 4.75623514121219,93.78235227450887 5.190395247037704,92.74768188764254 C5.564719735173971,91.85391641404776 5.956958924161622,91.01609269002249 6.2879291464880716,90.3091610303874 C6.625317143680356,89.5898136379955 6.880628028732032,89.03269014720661 7.079338655105804,88.54872811203657 M21.363913698668124,113.29146186428362 C21.363082457865477,111.21394310458575 21.424664312307577,109.328423245283 21.534718527407474,107.78185693837003 C21.612844008927805,106.70772495091946 21.7050508564943,105.79298602228545 21.811339070106957,105.0376401524679 C21.97607981310491,103.84315613176243 22.152792260211832,103.02231943472995 22.32238542693482,102.36760892511904 C22.510697157489382,101.65143310628815 22.688124357223796,101.13506163852637 22.912313723854588,100.5674290887605 C23.016956534505965,100.30454649056838 23.133189043211033,100.0303387598714 23.272556453505995,99.71807171482847 C23.411545715206348,99.40775933159962 23.573539372648302,99.05556995007669 23.75853742583191,98.66150357025968 C24.12404746020265,97.88014572327657 24.567218786663194,96.93679573831837 24.983105698235992,95.92546692549651 M42.279375123260905,120.46820572573228 C42.27891343809633,118.04737522493353 42.34788853201992,115.76828258426741 42.4895237463885,113.71999329625936 C42.65897395729251,111.2511902927799 42.93111163145835,109.13315192546924 43.27206189901263,107.31751792675982 C43.56219826331998,105.77033553092468 43.90145796964035,104.42626846196261 44.27770927933091,103.20188060019524 C44.650580919396084,101.9883446274611 45.06336034961894,100.8885697011454 45.49350328588936,99.86787327921704 C45.87214461057832,98.96775396036196 46.267328303180335,98.12701342913942 46.59733563550675,97.42152294059518 C46.80733642423351,96.974765792811 46.98787828302992,96.58079378887784 47.13896121189613,96.23960692879595 C47.29097090570869,95.89496983534737 47.414760098729225,95.59528991531663 47.52719639577392,95.30136575094559 C47.68233398042451,94.89402799531778 47.816960655073316,94.49617671959884 47.95354835000021,94.01187062646062 C48.089242185546496,93.52730907015582 48.22689704137075,92.95629269643138 48.36395678509639,92.19572723929427 C48.52561597037137,91.29157773222953 48.69069385126029,90.08766080134765 48.807408176742825,88.49848155799748 C48.9251523750593,86.91900032920331 48.99453301796941,84.95425678794086 48.992604293804355,82.7903004531268 M48.99260429380439,82.7903004531268 C48.992829188600304,81.01531377842727 48.94957501799067,79.22462784353861 48.859982589965284,77.47142353346473 C48.7559882754103,75.42334629706315 48.5890092904276,73.43795755124746 48.37728955506738,71.56567992675699 M61.64328872192898,120.46820572573228 C61.64252269070502,118.43157502859795 61.701553516685976,116.57911365606658 61.80770865143138,115.05021580295698 C61.92321113353313,113.36934514592546 62.0890957216959,112.09916552725139 62.256327480959655,111.1505709269835 C62.442923768573515,110.09877911989045 62.627568960869844,109.40298065223826 62.81310590171143,108.80669043117722 C62.96140324790476,108.3391214973116 63.1068507648658,107.94210140179585 63.29824476469219,107.4822334803522 C63.4889598614085,107.02421879918528 63.72562144099022,106.50335629209036 64.03801652845179,105.83814002253779 C64.26272816590121,105.35731417047943 64.51937398268345,104.81147770169572 64.77873540940358,104.2289844772527 C65.04099281501101,103.64445512667425 65.2988928069948,103.02717688462663 65.55243538535484,102.37714975111003 C66.24125445736803,100.59631580084232 66.85260138289532,98.60903283958754 67.33322359860514,96.10259765594898 C67.65356132501881,94.42800165778513 67.91751261863239,92.49668186946107 68.09299449250418,90.26114309683183 C68.26959149619918,88.03192451198454 68.35771908015252,85.49848694283233 68.35651789247248,82.79030045312678 M68.35651789247248,82.7903004531268 C68.35675933898884,80.67118957449652 68.30433892682558,78.52852318814001 68.19534735434229,76.41824844479613 C68.07136158350988,74.00418808758161 67.87309743226378,71.64088112277732 67.61904494480635,69.39404474143342 M82.55875014652186,127.64494958718095 C82.55828846135721,125.2241190863823 82.62726355528088,122.94502644571607 82.7688987696494,120.89673715770806 C82.93834898055349,118.42793415422865 83.21048665471928,116.30989578691795 83.55143692227352,114.49426178820853 C83.84157328658098,112.94707939237351 84.18083299290124,111.60301232341132 84.5570843025918,110.37862446164397 C84.929955942657,109.16508848890979 85.3427353728799,108.06531356259411 85.77287830915026,107.04461714066576 C86.15151963383919,106.14449782181072 86.5467033264413,105.303757290588 86.87671065876765,104.59826680204384 C87.08671144749437,104.15150965425953 87.2672533062909,103.75753765032647 87.41833623515706,103.41635079024459 C87.5703459289696,103.07171369679597 87.69413512199013,102.77203377676528 87.80657141903488,102.47810961239426 C87.96170900368534,102.07077185676621 88.09633567833428,101.6729205810476 88.23292337326113,101.18861448790929 C88.3686172088074,100.70405293160441 88.50627206463169,100.13303655788005 88.64333180835732,99.37247110074298 C88.8049909936324,98.46832159367865 88.97006887452123,97.26440466279625 89.08678320000374,95.67522541944612 C89.2045273983202,94.09574419065197 89.27390804123037,92.13100064938993 89.2719793170653,89.96704431457546 M89.27197931706526,89.96704431457546 C89.27222524313791,88.16665421589725 89.22762705467399,86.3499511790078 89.1354623777233,84.57285470531698 C89.00359646081104,82.00786070009983 88.77242915980521,79.55267358310725 88.48013895147538,77.27749718476494 C88.01543859057549,73.65918419829765 87.40798937656837,70.43972296384158 86.75566533675041,67.21982300811484 C86.1463824543686,64.21523933033583 85.49233066478459,61.211860678237905 84.87798813164727,57.98440908941999 C84.26467890190122,54.76050259929803 83.69107892860187,51.312523172456096 83.27059887035314,47.514455609977965 M101.92266374518994,127.64494958718095 C101.92189771396586,125.60831889004663 101.98092853994692,123.7558575175153 102.08708367469234,122.22695966440565 C102.20258615679404,120.54608900737412 102.36847074495684,119.27590938870001 102.53570250422061,118.32731478843218 C102.72229879183442,117.27552298133914 102.9069439841308,116.57972451368695 103.0924809249724,115.98343429262586 C103.24077827116571,115.51586535876022 103.38622578812674,115.11884526324445 103.57761978795315,114.65897734180082 C103.76833488466944,114.20096266063393 104.00499646425118,113.68010015353892 104.31739155171272,113.0148838839865 C104.54210318916195,112.53405803192857 104.79874900594396,111.98822156314513 105.05811043266391,111.40572833870266 C105.3203678382712,110.82119898812464 105.5782678302548,110.20392074607754 105.83181040861466,109.55389361256144 C106.52062948062795,107.77305966229406 107.13197640615539,105.78577670103944 107.61259862186529,103.27934151740155 C107.93293634827911,101.60474551923723 108.19688764189299,99.67342573091311 108.37236951576489,97.43788695828313 C108.54896651946004,95.20866837343523 108.63709410341326,92.67523080428188 108.63589291573336,89.96704431457543 M108.63589291573336,89.96704431457542 C108.63613145042423,87.8403134762683 108.58338647575482,85.68981365579687 108.47355455014099,83.57215119278453 C108.29903763673751,80.1718729739619 107.97477285569481,76.88934466871832 107.5605163326451,73.85909876940113 C107.12896351396303,70.69108185980292 106.6052599998791,67.77669473763163 106.06083553377508,65.00907803743641 C105.51582656251682,62.24000422308377 104.95009663923872,59.6177008307073 104.41870936300305,56.99450929844767 C103.67731284543501,53.326040331464455 102.99154914660242,49.64679833193854 102.516620958538,45.38096465902715 M122.83812516978267,134.8216934486296 C122.83766348461806,132.40086294783092 122.9066385785418,130.12177030716478 123.04827379291032,128.07348101915673 C123.2177240038143,125.60467801567728 123.4898616779802,123.48663964836659 123.83081194553444,121.67100564965725 C124.12094830984184,120.12382325382224 124.46020801616214,118.77975618485988 124.83645932585272,117.55536832309262 C125.20933096591784,116.34183235035844 125.62211039614076,115.24205742404278 126.05225333241111,114.22136100211442 C126.43089465710013,113.32124168325944 126.82607834970212,112.48050115203665 127.15608568202862,111.77501066349244 C127.36608647075506,111.32825351570861 127.54662832955138,110.93428151177598 127.69771125841747,110.59309465169439 C127.84972095222987,110.24845755824606 127.97351014525039,109.94877763821572 128.085946442295,109.65485347384494 C128.24108402694557,109.2475157182169 128.3757107015946,108.84966444249832 128.51229839652135,108.36535834936029 C128.64799223206754,107.88079679305565 128.78564708789202,107.30978041933174 128.9227068316176,106.54921496219525 C129.0843660168925,105.64506545513075 129.24944389778187,104.44114852424869 129.36615822326445,102.8519692808979 C129.48390242158126,101.27248805210324 129.55328306449113,99.3077445108398 129.55135434032624,97.14378817602413 M129.55135434032618,97.14378817602412 C129.55161086537697,95.31971516525701 129.50582410707534,93.47888595984297 129.41120114220442,91.67947092120839 C129.28112505003605,89.18527169280365 129.05733539695723,86.79577473522656 128.77501664490634,84.57593757841651 C128.48244791456654,82.2708583198295 128.1298613210306,80.12788572106513 127.74606993791464,78.04711660836347 C127.33166298979047,75.80190504046985 126.87879606753451,73.62074852736582 126.4162069203044,71.39497067521103 C125.54306259185954,67.1906420261469 124.62648497317622,62.81198109188054 123.93363366331263,57.77907133838099 C123.59260527844319,55.30080741660842 123.30832915546412,52.652580517159 123.12016021025401,49.90518201904462 C122.93053305039774,47.16061449325532 122.83701306831074,44.316875368801206 122.83812516978267,41.52402324979697 M122.8381251697827,41.52402324979698 C122.83911575626867,37.99759438503338 122.57320681337575,34.635040347476895 122.08620235477312,31.602335614480946 C121.57677118470207,28.411626220383233 120.82072943349439,25.5922584310631 119.95133694281488,23.28987298419119 M142.20203876845073,134.82169344862962 C142.20127273722684,132.78506275149522 142.26030356320777,130.9326013789639 142.36645869795322,129.4037035258543 C142.4819611800549,127.7228328688227 142.6478457682177,126.45265325014867 142.8150775274815,125.50405864988082 C143.00167381509522,124.45226684278781 143.18631900739166,123.7564683751357 143.37185594823328,123.16017815407459 C143.5201532944266,122.69260922020904 143.66560081138758,122.2955891246932 143.8569948112141,121.83572120324946 C144.04770990793043,121.37770652208249 144.28437148751206,120.85684401498756 144.59676657497363,120.19162774543501 C144.82147821242265,119.71080189337756 145.07812402920436,119.1649654245948 145.33748545592408,118.58247220015296 C145.59974286153107,117.99794284957557 145.8576428535144,117.38066460752928 146.11118543187405,116.73063747401392 C146.80000450388755,114.94980352374685 147.41135142941505,112.96252056249277 147.89197364512515,110.45608537885558 C148.21231137153927,108.78148938069081 148.47626266515346,106.85016959236621 148.6517445390255,104.61463081973538 C148.82834154272078,102.38541223488664 148.9164691266743,99.85197466573192 148.91526793899425,97.14378817602412 M148.91526793899425,97.14378817602409 C148.9155236468025,94.98901981706103 148.86131921626202,92.80981933046863 148.74855174858646,90.6651695820943 C148.5711074145998,87.25511645788944 148.24319933427495,83.96602100202286 147.82556789632423,80.93104991083352 C147.15445200862894,76.04267014357598 146.2711097728011,71.7699869222988 145.42155971148333,67.67876232837281 C144.87612299258947,65.05393647025994 144.34438325309048,62.51212446382781 143.8673652140036,59.85120294417246 C143.39116786349686,57.19066217870826 142.96969221340245,54.41101190002083 142.66694226498447,51.320789860560524 C142.3616492177691,48.23414806648216 142.19892189345214,44.85286326449554 142.20203876845082,41.52402324979699 M142.20203876845076,41.52402324979698 C142.2024569754534,37.02983593970953 141.8666055493588,32.65729400444297 141.2062239929726,28.538771014231514 C140.50955689267528,24.1860372179355 139.44966705826513,20.118664541740774 138.07264390394488,16.46496390954526 M163.11750019304364,141.99843731007826 C163.11703850787904,139.57760680927967 163.1860136018026,137.29851416861337 163.3276488161712,135.25022488060543 C163.49709902707522,132.78142187712592 163.76923670124097,130.6633835098153 164.11018696879535,128.84774951110586 C164.40032333310262,127.30056711527075 164.73958303942314,125.95650004630869 165.1158343491137,124.73211218454136 C165.4887059891787,123.5185762118072 165.90148541940155,122.41880128549144 166.33162835567202,121.3981048635631 C166.710269680361,120.49798554470803 167.10545337296298,119.65724501348542 167.43546070528942,118.95175452494114 C167.645461494016,118.50499737715701 167.82600335281256,118.11102537322417 167.97708628167865,117.76983851314237 C168.12909597549108,117.42520141969379 168.2528851685117,117.12552149966342 168.36532146555635,116.83159733529241 C168.52045905020685,116.42425957966447 168.65508572485578,116.02640830394576 168.7916734197827,115.54210221080756 C168.92736725532896,115.05754065450273 169.06502211115327,114.48652428077861 169.20208185487888,113.72595882364175 C169.3637410401538,112.82180931657734 169.52881892104296,111.61789238569516 169.64553324652547,110.02871314234477 C169.76327744484212,108.44923191355038 169.83265808775195,106.4844883722879 169.8307293635871,104.32053203747279 M169.8307293635871,104.32053203747277 C169.83098588863754,102.49645902670555 169.78519913033622,100.6556298212916 169.69057616546527,98.85621478265702 C169.5605000732976,96.36201555426817 169.33671042022095,93.97251859670563 169.05439166817254,91.75268143990773 C168.76182293783344,89.4476021813192 168.40923634429836,87.30462958255418 168.02544496118273,85.22386046985228 C167.61103801305924,82.97864890195822 167.15817109080362,80.79749238885465 166.69558194357373,78.5717145367007 C165.82243761516133,74.36738588779275 164.90585999651373,69.98872495370034 164.2130086866572,64.955815200438 C163.87198030176518,62.47755127859216 163.58770417876298,59.829324379047094 163.39953523353765,57.081925880827086 C163.20990807366587,54.337358354932206 163.1163880915713,51.49361923036244 163.11750019304364,48.700767111245646 M163.11750019304358,48.700767111245646 C163.11951711971648,44.523236523798346 162.74356569767323,40.5765576931748 162.07505965472217,37.134178772628495 C161.4129923329159,33.69855507656003 160.45933656627577,30.77844811689158 159.43000539306098,28.539377749292612 C158.71215419932906,26.971215329342424 157.96435983436382,25.731690584601935 157.268776956918,24.785173499617446 C156.54736933355468,23.803717959716714 155.88558521571417,23.131051933237615 155.3182710724446,22.65520668402471 C154.7288767263486,22.163174690659766 154.23910876747533,21.87516298907612 153.81326746131873,21.679047494745355 C153.31258818203756,21.452959135771586 152.89699834212865,21.34665817486131 152.44150082760868,21.29644237419697 M182.4814137917117,141.99843731007826 C182.48064776048776,139.9618066129439 182.53967858646874,138.10934524041258 182.64583372121413,136.5804473873029 C182.76133620331578,134.89957673027138 182.9272207914788,133.62939711159729 183.09445255074237,132.6808025113295 C183.28104883835618,131.62901070423644 183.46569403065268,130.93321223658413 183.65123097149424,130.3369220155232 C183.79952831768748,129.8693530816575 183.94497583464857,129.47233298614177 184.13636983447495,129.01246506469812 C184.32708493119137,128.55445038353122 184.5637465107729,128.03358787643626 184.87614159823445,127.36837160688378 C185.100853235683,126.88754575482719 185.35749905246442,126.34170928604537 185.6168604791837,125.7592160616046 C185.8791178847902,125.17468671102829 186.13701787677323,124.55740846898311 186.39056045513252,123.907381335469 C187.07937952714627,122.12654738520251 187.69072645267386,120.13926442394927 188.17134866838444,117.63282924031344 C188.49168639479913,115.95823324214834 188.7556376884135,114.02691345382244 188.93111956228597,111.79137468119012 C189.10771656598146,109.56215609633979 189.1958441499355,107.02871852718327 189.1946429622551,104.32053203747276 M189.19464296225516,104.3205320374728 C189.19489867006362,102.16576367850992 189.1406942395229,99.98656319191738 189.02792677184746,97.84191344354318 C188.85048243785832,94.43186031929034 188.5225743575267,91.14276486338017 188.10494291956772,88.10779377215474 C187.43382703186847,83.21941400490793 186.5504847960398,78.94673078363893 185.70093473472232,74.8555061897161 C185.1554980158049,72.23068033149059 184.62375827628495,69.68886832495545 184.14674023718388,67.02794680517151 C183.67054288666318,64.36740603957972 183.2490672365615,61.58775576073917 182.94631728815557,58.49753372109144 C182.64102424099613,55.41089192726419 182.47829691671396,52.02960712561323 182.48141379171173,48.70076711124567 M182.48141379171165,48.700767111245646 C182.48177917695216,44.33997890982663 182.16568553581666,40.093572004765456 181.54349780156298,36.08283872780193 M174.51431078245724,15.752185861763934 C172.17321193853408,11.971789068612004 169.42322039841517,8.981183814497287 166.4383268757631,6.77575046761899 C162.73926847851715,4.045213848851132 158.68320312679884,2.4832897319363796 154.45447583821644,2.0374423621674675 M203.39687521630438,149.17518117152693 C203.3964135311401,146.7543506707283 203.4653886250635,144.47525803006212 203.6070238394322,142.42696874205416 C203.77647405033582,139.9581657385746 204.04861172450205,137.8401273712641 204.3895619920562,136.02449337255467 C204.6796983563635,134.47731097671945 205.01895806268394,133.13324390775747 205.3952093723745,131.90885604598998 C205.7680810124396,130.69532007325594 206.18086044266263,129.59554514694008 206.61100337893293,128.57484872501178 C206.9896447036221,127.67472940615691 207.3848283962239,126.83398887493406 207.71483572855036,126.12849838638977 C207.92483651727736,125.68174123860518 208.10537837607382,125.28776923467191 208.25646130494,124.94658237458995 C208.4084709987527,124.60194528114133 208.53226019177305,124.30226536111046 208.6446964888179,124.00834119673935 C208.79983407346845,123.60100344111156 208.93446074811717,123.20315216539265 209.07104844304408,122.7188460722543 C209.20674227859027,122.2342845159493 209.3443971344147,121.66326814222454 209.4814568781403,120.90270268508733 C209.64311606341533,119.9985531780229 209.80819394430407,118.79463624714059 209.92490826978653,117.20545700379073 C210.04265246810309,115.62597577499686 210.1120331110129,113.66123223373519 210.11010438684798,111.49727589892143 M210.11010438684798,111.49727589892144 C210.11036091189877,109.67320288815435 210.0645741535972,107.83237368274033 209.9699511887263,106.0329586441057 C209.8398750965585,103.53875941571665 209.61608544348198,101.14926245815384 209.3337666914334,98.92942530135583 C209.04119796109472,96.6243460427675 208.688611367559,94.48137344400217 208.30481998444375,92.40060433130047 C207.89041303632007,90.15539276340624 207.43754611406467,87.97423625030284 206.97495696683458,85.74845839814886 C206.1018126384554,81.54412974940152 205.18523501984555,77.16546881548595 204.49238370999763,72.13255906246481 C204.41304074351055,71.55518379906758 204.33690909817548,70.96926242847074 204.26398877399166,70.374794950674 M201.17499875510865,39.580643868361804 C200.71009122380582,38.08994971495601 200.1942880432483,36.76232527486174 199.66175758247104,35.61278532325474 C198.6922325287828,33.51769853717699 197.67763500577885,32.031093176373126 196.80174116577896,31.025891694894298 C196.24218100393503,30.383068454723595 195.73660686544798,29.926747069454006 195.29265610683169,29.588064289694316 C194.84765984982425,29.249792040630716 194.46428697268746,29.029158397076984 194.1209008769779,28.868794969132182 C193.73099158323052,28.68874676371867 193.39280950953923,28.585553159570562 193.04974152891606,28.520822432570192 C192.7063273732693,28.45793884734341 192.35802731069091,28.433518139264386 191.93853531353378,28.460888553876032 C191.43614181735074,28.49803849937083 190.83124693270238,28.602836630596506 190.02566262846207,28.903985287055114 C189.22356306581295,29.206721258497048 188.22077408357205,29.705807755171993 187.0166804151717,30.57439193611708 C186.2018249031732,31.162260633605 185.2988826755485,31.919158559966842 184.34334261088267,32.872569447271516 C183.3881735237211,33.8248847587607 182.3804065995189,34.97371303119269 181.36591808698037,36.315861873803286 M222.76078881497253,149.17518117152693 C222.76002278374867,147.13855047439253 222.81905360972945,145.28608910186122 222.92520874447504,143.75719124875167 C223.04071122657652,142.0763205917201 223.20659581473961,140.80614097304596 223.37382757400331,139.85754637277816 C223.56042386161695,138.805754565685 223.7450690539135,138.10995609803297 223.9306059947551,137.51366587697183 C224.07890334094833,137.04609694310622 224.2243508579095,136.6490768475904 224.4157448577358,136.18920892614682 C224.6064599544523,135.7311942449798 224.84312153403368,135.21033173788493 225.15551662149542,134.54511546833243 C225.38022825894475,134.06428961627398 225.63687407572732,133.5184531474898 225.89623550244747,132.93595992304657 C226.15849290805508,132.35143057246773 226.41639290003894,131.7341523304199 226.66993547839914,131.08412519690293 C227.35875455041236,129.30329124663504 227.97010147593954,127.31600828537992 228.45072369164922,124.80957310174101 C228.77106141806266,123.13497710357719 229.03501271167627,121.20365731525364 229.21049458554796,118.96811854262478 C229.38709158924274,116.73889995777797 229.4752191731961,114.20546238862619 229.474017985516,111.49727589892143 M229.474017985516,111.49727589892143 C229.47427369332456,109.34250753995842 229.4200692627836,107.16330705336595 229.3073017951084,105.0186573049917 C229.1298574611184,101.6086041807271 228.80194938078532,98.31950872480628 228.38431794282428,95.28453763357201 C227.71320205512413,90.39615786632784 226.82985981929505,86.12347464506084 225.9803097579778,82.03225005113876 C225.43487303905374,79.40742419288121 224.90313329952798,76.86561218631728 224.4261152604228,74.20469066649719 C223.9499179098981,71.54414990086953 223.52844225979447,68.76449962198576 223.22569231139153,65.67427758228563 C222.92039926424783,62.58763578852794 222.75767193997515,59.20635098697023 222.76078881497267,55.87751097269433 M222.76078881497253,55.87751097269431 C222.76115279074259,51.5168665463582 222.44508279232912,47.270581593547334 221.82293230272748,43.259968120285194 M214.79361392981124,22.928813726665002 C213.3098056239125,20.533506227259192 211.66046044753384,18.45155528393144 209.89213101169653,16.689675965919875 C205.86141867837665,12.67997420043703 201.24265236261016,10.30799185830222 196.37370412939873,9.44411250873408 C192.80391065471437,8.81678150980247 189.08593634129528,9.002877270160065 185.31734492705297,10.081592523587586 C181.99219646255517,11.035885674481763 178.61919482771336,12.696630543561124 175.33371350842816,15.128890518399524 C172.04972145831235,17.555678894797765 168.8532497237536,20.753982376955054 165.92137132739262,24.635659596120306 M243.67625023956543,156.35192503297563 C243.67578855440095,153.931094532177 243.74476364832435,151.6520018915108 243.88639886269306,149.60371260350283 C244.05584907359716,147.13490960002326 244.32798674776296,145.0168712327128 244.6689370153171,143.2012372340033 C244.95907337962444,141.65405483816815 245.2983330859449,140.309987769206 245.67458439563558,139.0855999074388 C246.04745603570083,137.87206393470464 246.46023546592335,136.7722890083888 246.8903784021938,135.75159258646045 C247.26901972688285,134.85147326760543 247.66420341948483,134.01073273638278 247.99421075181127,133.30524224783838 C248.2042115405379,132.8584851000544 248.38475339933427,132.46451309612155 248.53583632820033,132.12332623603993 C248.6878460220127,131.7786891425916 248.81163521503348,131.479009222561 248.92407151207806,131.18508505819017 C249.0792090967285,130.77774730256223 249.21383577137755,130.3798960268435 249.35042346630436,129.89558993370542 C249.4861173018509,129.4110283774007 249.62377215767472,128.84001200367666 249.76083190140054,128.07944654653994 C249.92249108667576,127.17529703947571 250.0875689675645,125.97138010859337 250.20428329304724,124.38220086524295 C250.32202749136374,122.80271963644842 250.39140813427375,120.83797609518552 250.38947941010895,118.67401976037011 M250.38947941010883,118.67401976037009 C250.38973593515948,116.84994674960294 250.3439491768581,115.00911754418898 250.24932621198724,113.20970250555436 C250.11933610023823,110.71717479396433 249.89576008096137,108.32917633829159 249.61370549714653,106.1106175159189 M241.45440139760774,46.75747586645006 C240.99957788817682,45.299151983936824 240.49607518638337,43.996819932492194 239.9758181351787,42.86474145491344 C239.24035381367787,41.26088809770716 238.47256824624705,40.00505666027348 237.76367703065927,39.05228211042585 C237.05278313940593,38.09699089932229 236.40078359999583,37.444756575804824 235.84281909156957,36.980147592520225 C235.29512542602643,36.52741390717932 234.83474988594546,36.25190401925652 234.43107534416725,36.05996523804413 C234.02626724301587,35.86981620267355 233.67816014016717,35.76323827401335 233.32439724601517,35.69669164492693 C232.765525396099,35.60342152975916 232.202558086336,35.57912155579495 231.3383382548779,35.76848753626349 C230.48090271705098,35.96781300877262 229.32221465752897,36.38080443571452 227.75507723613651,37.43102340745493 C226.47333647182427,38.29213245076203 224.9286975826343,39.60413194911457 223.29525390573505,41.465612902626475 C221.6627141559267,43.3199842527238 219.94136961840897,45.72383705798058 218.33062358889686,48.5766934229026 C216.59476078127523,51.639773212216205 214.9824994226159,55.21944259864969 213.64075305074016,59.097727745395446 C212.2963601889689,62.97499892912519 211.22248231398103,67.15088587316731 210.49193124652498,71.37902377626455 M263.0401638382335,156.3519250329756 C263.0393978070095,154.31529433584134 263.0984286329907,152.46283296330998 263.204583767736,150.93393511020034 C263.3200862498375,149.2530644531689 263.48597083800064,147.98288483449466 263.6532025972642,147.03429023422686 C263.83979888487784,145.98249842713372 264.0244440771745,145.2866999594817 264.20998101801604,144.69040973842058 C264.35827836420935,144.22284080455492 264.5037258811703,143.8258207090393 264.69511988099674,143.36595278759563 C264.88583497771293,142.90793810642867 265.12249655729465,142.38707559933374 265.4348916447563,141.72185932978124 C265.6596032822053,141.24103347772348 265.91624909898735,140.69519700894014 266.1756105257073,140.1127037844978 C266.4378679313146,139.52817443391976 266.69576792329815,138.910896191873 266.94931050165786,138.260869058357 C267.63812957367145,136.48003510808977 268.2494764991987,134.49275214683524 268.7300987149086,131.98631696319757 C269.05043644132246,130.31172096503315 269.31438773493653,128.3804011767088 269.4898696088084,126.14486240407867 C269.66646661250354,123.91564381923057 269.75459419645716,121.38220625007706 269.75339300877687,118.67401976037009 M269.75339300877704,118.67401976037013 C269.7536487165853,116.51925140140709 269.6994442860447,114.34005091481473 269.58667681836926,112.19540116644036 C269.40923248438247,108.78534804223708 269.08132440405814,105.49625258637182 268.66369296610753,102.46128149518361 C267.99257707841235,97.57290172792567 267.10923484258456,93.30021850664833 266.25968478126674,89.20899391272224 C265.7142480623735,86.58416805461266 265.1825083228754,84.04235604818379 264.7054902837887,81.38143452853228 C264.22929293328235,78.72089376307198 263.80781728318834,75.9412434843892 263.5050673347699,72.85102144493456 C263.1997742875528,69.76437965084858 263.03704696323473,66.38309484885156 263.0401638382335,63.05425483414301 M263.04016383823347,63.054254834142974 C263.0405276039365,58.69359680426931 262.7244560782518,54.447296893130684 262.10230095834373,50.43667109974256 M255.07301600590768,30.10554161854722 C252.71716967094784,26.301577233491184 249.94758262584682,23.297211626889705 246.94080775445656,21.087744271689587 C243.79427214525904,18.776032741286276 240.38858296275583,17.311948654362308 236.84142853263256,16.654959033723834 C233.15537400049533,15.976301253263943 229.3090056435251,16.166427705143658 225.41035069401974,17.31250606174629 C221.2448977097906,18.53613409614937 217.00629494222352,20.887255007176908 212.96673152017763,24.44586732792183 C209.7931068759463,27.236410031619197 206.75436250195668,30.765922831341463 204.0075142529639,34.91046824961268 C201.0337442794621,39.390447232934825 198.4034020630557,44.58769783764964 196.2649758263921,50.220565583473515 C194.12453317686249,55.851299078004836 192.47600650707602,61.91764971364525 191.4114244794305,68.07820397392092 M283.9556252628263,163.52866889442427 C283.95552685993886,161.82337902869114 283.9891970708171,160.187320813814 284.0591961825295,158.65395571126155 M289.8930805204074,136.00390711092862 C289.94223894905014,135.77656568931903 289.99128108380216,135.52732678833635 290.04020692466275,135.25619040798054 C290.2018661099377,134.35204090091563 290.3669439908261,133.14812397003377 290.4836583163086,131.55894472668447 C290.60140251462474,129.9794634978913 290.6707831575348,128.01471995663067 290.66885443336986,125.85076362181877 M290.66885443336986,125.8507636218188 C290.6691109584204,124.02669061105173 290.6233242001192,122.18586140563764 290.52870123524804,120.38644636700306 C290.3987111234996,117.89391865541322 290.17513510422185,115.50592019974043 289.89308052040747,113.28736137736782 M281.73377581416753,53.93422082165475 C281.2705006939371,52.44875241155074 280.7566691533576,51.12514355959853 280.2261244020016,49.97841182679033 C279.4941817521849,48.39291750760937 278.73160674955943,47.15133149211627 278.02768712642603,46.20843759800149 C277.3217963307478,45.26310885127003 276.6745609145603,44.61647222591675 276.1200757789067,44.1551356663643 C275.57263102715257,43.70289904320304 275.11248375436946,43.427717395961395 274.70896715042085,43.23600853157275 C274.3043184082799,43.046089704505036 273.9563003349723,42.93964366029017 273.6025462509729,42.87320925084596 C273.31756664664033,42.824000577761545 273.0354466305823,42.79759635007082 272.7110427187672,42.8042629968403 C272.3870973949255,42.81157672416293 272.0208681753267,42.85196132594577 271.58005203919333,42.95380148674439 C271.13969449103377,43.056288728096234 270.62475002633886,43.22023152846376 270.01575608758725,43.49213282789197 C269.40722073680905,43.76468120787331 268.7046359119731,44.14518808691525 267.9013795188114,44.698274660551625 C266.621561634507,45.57614879427625 265.09036179204793,46.898487627845434 263.47716118040563,48.753723344289504 C261.8646903872389,50.60230289420011 260.17021882488865,52.98377932698552 258.58356259963966,55.80021216273945 C256.87935518833797,58.81476691493576 255.29507228262804,62.32683381818214 253.97036993331517,66.12988215212557 C252.64319362909094,69.9319750929967 251.5755978812632,74.02504946456474 250.83796800311418,78.17582354045327 C250.02412354543168,82.74100367515905 249.612016303299,87.3767854275524 249.6137054971465,91.76123027993764 M249.6137054971465,91.76123027993762 L249.6137054971465,113.14660978737103 M303.3195388614943,163.52866889442424 C303.3187728302707,161.49203819728993 303.37780365625116,159.6395768247586 303.4839587909969,158.11067897164895 C303.59946127309865,156.4298083146173 303.76534586126127,155.15962869594327 303.9325776205252,154.21103409567553 C304.1191739081388,153.1592422885824 304.30381910043525,152.46344382093028 304.48935604127695,151.8671535998692 C304.6376533874703,151.39958466600365 304.7831009044312,151.00256457048766 304.9744949042578,150.54269664904396 C305.16521000097384,150.08468196787686 305.4018715805559,149.56381946078176 305.7142666680173,148.89860319122954 C305.93897830546587,148.41777733917235 306.19562412224764,147.87194087038972 306.45498554896733,147.28944764594803 C306.71724295457415,146.70491829537082 306.9751429465575,146.08764005332466 307.2286855249172,145.4376129198095 C307.91750459693077,143.65677896954256 308.52885152245807,141.66949600828858 309.0094737381684,139.16306082465164 C309.3298114645826,137.488464826487 309.59376275819716,135.55714503816188 309.7692446320689,133.32160626553093 C309.9458416357643,131.0923876806819 310.03396921971785,128.55895011152725 310.0327680320376,125.85076362181873 M310.0327680320379,125.85076362181877 C310.03302373984616,123.69599526285576 309.97881930930566,121.51679477626328 309.86605184163017,119.37214502788903 C309.6886075076427,115.96209190367205 309.3606994273164,112.67299644779456 308.94306798936344,109.63802535659607 C308.2719521016671,104.7496455893412 307.3886098658393,100.47696236806611 306.5390598045214,96.38573777414096 C305.9936230856252,93.76091191601842 305.4618833461249,91.21909990957705 304.9848653070369,88.5581783899097 C304.5086679565292,85.89763762443366 304.0871923064345,83.11798734573159 303.78444235801805,80.0277653062534 C303.47914931080885,76.9411235122029 303.31642198649604,73.55983871025352 303.3195388614943,70.23099869559164 M303.3195388614944,70.23099869559164 C303.31990359629646,65.8703380156803 303.0038297757143,61.62404515999161 302.38167613752546,57.61341475824242 M295.35238855168103,37.282287416334064 C292.99476663701665,33.47545555363884 290.2227989202785,30.46944656617545 287.21340410468855,28.25950456512554 C284.0666936796853,25.949174696771387 280.66097127334933,24.48630171080404 277.11385745588865,23.83042103711623 C273.4273804607662,23.1528296002622 269.5806274170713,23.344142619798397 265.6816681967604,24.491624636966677 C263.5713293937035,25.114111225735844 261.44579806486,26.020041038292742 259.3345524515289,27.229056317030626 C257.2237351867208,28.43738982720998 255.1272036374251,29.948808803570305 253.08642980358923,31.763865968866657 C250.70099647362184,33.88369187403552 248.39272270513132,36.419151383688884 246.23030787918904,39.32192743414519 C244.06748443348914,42.22345610445365 242.05051993033652,45.492301315564866 240.23667239758356,49.045219359656386 C238.29144997556008,52.85352327519379 236.57956916896703,56.98896929925734 235.15450118460166,61.32403175414481 C233.7287949482943,65.65856189602681 232.58990153421465,70.19270846873258 231.77342109478423,74.78404103040815 C230.76496923440325,80.44758288990701 230.2489107587911,86.19715849424612 230.2497918984784,91.76123027993762 M230.2497918984784,91.76123027993762 L230.2497918984784,113.14660978737103 M330.17245554366826,143.18065097237744 C330.2216139723109,142.9533095507686 330.27065610706273,142.70407064978687 330.31958194792327,142.43293426943225 C330.4812411331978,141.52878476236754 330.646319014087,140.32486783148565 330.7630333395693,138.73568858813584 C330.8807775378856,137.1562073593421 330.9501581807955,135.19146381808082 330.94822945663054,133.02750748326744 M330.94822945663066,133.02750748326747 C330.94848598168124,131.20343447250016 330.90269922338007,129.36260526708622 330.80807625850895,127.56319022845159 C330.67808614676056,125.07066251686204 330.45451012748265,122.68266406118926 330.1724555436683,120.46410523881694 M322.0131508374285,61.11096468310342 C321.54987571719806,59.62549627299939 321.0360441766184,58.30188742104717 320.50549942526254,57.155155688239006 C319.77355677544534,55.56966136905788 319.0109817728206,54.328075353564984 318.3070621496869,53.38518145945019 C317.6011713540083,52.439852712718675 316.9539359378213,51.79321608736535 316.3994508021676,51.33187952781298 C315.8520060504132,50.87964290465177 315.3918587776304,50.604461257409994 314.9883421736817,50.41275239302137 C314.58369343154027,50.22283356595354 314.2356753582335,50.116387521739 313.8819212742339,50.04995311229462 C313.59694166990124,50.00074443921021 313.31482165384335,49.974340211519525 312.9904177420281,49.981006858288964 C312.6664724181863,49.98832058561156 312.3002431985876,50.02870518739442 311.8594270624542,50.13054534819304 C311.4190695142945,50.23303258954489 310.9041250496,50.39697538991241 310.29513111084816,50.66887668934064 C309.6865957600698,50.941425069321994 308.98401093523404,51.32193194836392 308.1807545420723,51.87501852200028 C306.90093665776794,52.752892655724885 305.3697368153086,54.07523148929411 303.7565362036666,55.93046720573816 C302.1440654104996,57.77904675564875 300.44959384814973,60.16052318843421 298.86293762290046,62.97695602418813 C297.15873021159865,65.99151077638432 295.574447305889,69.50357767963081 294.24974495657597,73.30662601357425 C292.9225686523518,77.10871895444537 291.85497290452406,81.20179332601337 291.1173430263751,85.35256740190192 C290.3034985686929,89.91774753660779 289.8913913265597,94.55352928900109 289.8930805204074,98.93797414138629 M289.8930805204074,98.93797414138629 L289.8930805204074,156.27949899451932 M343.59891388475523,170.7054127558729 C343.5981478535314,168.66878205873857 343.6571786795123,166.8163206862073 343.76333381425775,165.28742283309765 C343.87883629635957,163.60655217606615 344.0447208845224,162.3363725573919 344.21195264378616,161.38777795712423 C344.3985489313998,160.33598615003115 344.58319412369644,159.64018768237898 344.76873106453786,159.04389746131787 C344.9170284107312,158.5763285274523 345.06247592769233,158.1793084319364 345.25386992751856,157.71944051049277 C345.444585024235,157.26142582932573 345.68124660381665,156.74056332223088 345.99364169127807,156.07534705267847 C346.2183533287278,155.5945212006196 346.47499914551054,155.04868473183487 346.734360572231,154.46619150739093 C346.9966179778388,153.8816621568116 347.254517969823,153.26438391476293 347.50806054818327,152.61435678124525 C348.1968796201967,150.8335228309771 348.8082265457233,148.84623986972161 349.28884876143314,146.339804686082 C349.60918648784605,144.66520868791852 349.87313778145955,142.73388889959546 350.0486196553309,140.49835012696747 C350.2252166590255,138.26913154212144 350.31334424297887,135.73569397297086 350.3121430552989,133.02750748326747 M350.31214305529863,133.0275074832674 C350.3123987631072,130.87273912430447 350.2581943325663,128.69353863771204 350.1454268648909,126.54888888933776 C349.9679825309029,123.13883576510366 349.6400744505739,119.8497403092105 349.22244301261804,116.81476921799914 C348.5513271249203,111.92638945074815 347.66798488909177,107.65370622947594 346.8184348277744,103.56248163555195 C346.27299810886217,100.93765577735094 345.74125836934684,98.39584377083811 345.26424033024847,95.73492225108293 C344.78804297973056,93.07438148551954 344.36656732963013,90.29473120671388 344.06381738122093,87.20450916710836 C343.75852433404776,84.11786737322025 343.5957970097576,80.7365825714882 343.59891388475523,77.40774255704027 M343.59891388475523,77.40774255704031 C343.5992786195576,73.04708187712896 343.283204798975,68.80078902144027 342.6610511607863,64.79015861969106 M335.63176357494194,44.459031277782685 C333.2741416602774,40.652199415087466 330.50217394353945,37.64619042762413 327.4927791279494,35.43624842657419 C324.3460687029461,33.12591855822002 320.9403462966104,31.663045572252738 317.3932324791495,31.00716489856478 C313.70675548402744,30.329573461710872 309.86000244033187,30.520886481247093 305.96104322002134,31.668368498415337 C303.85070441696445,32.2908550871844 301.7251730881207,33.196784899741495 299.61392747478976,34.40580017847931 C297.503110209982,35.614133688658725 295.4065786606858,37.12555266501882 293.3658048268501,38.94060983031532 C290.98037149688247,41.06043573548418 288.67209772839215,43.59589524513759 286.5096829024501,46.49867129559388 C284.3468594567499,49.40019996590232 282.3298949535973,52.66904517701347 280.5160474208445,56.22196322110506 C278.5708249988213,60.030267136642664 276.8589441922277,64.16571316070592 275.43387620786257,68.50077561559338 C274.00816997155533,72.83530575747542 272.8692765574756,77.36945233018135 272.05279611804514,81.9607848918568 C271.04434425766397,87.62432675135558 270.52828578205197,93.3739023556949 270.52916692173926,98.93797414138628 M270.52916692173926,98.93797414138629 L270.52916692173926,156.27949899451932 M364.51437530934805,177.88215661732158 C364.51391362418354,175.46132611652288 364.58288871810726,173.18223347585675 364.7245239324756,171.13394418784873 C364.8939741433796,168.6651411843693 365.16611181754564,166.5471028170586 365.50706208509973,164.73146881834927 C365.7971984494076,163.18428642251433 366.13645815572727,161.840219353552 366.51270946541825,160.61583149178483 C366.88558110548325,159.40229551905054 367.29836053570614,158.30252059273488 367.72850347197647,157.28182417080654 C368.1071447966652,156.3817048519515 368.5023284892676,155.54096432072868 368.83233582159426,154.8354738321841 C369.0423366103206,154.38871668440026 369.222878469117,153.9947446804678 369.373961397983,153.65355782038637 C369.52597109179527,153.30892072693803 369.6497602848158,153.00924080690817 369.7621965818604,152.71531664253743 C369.91733416651107,152.3079788869096 370.05196084115977,151.91012761119103 370.1885485360867,151.42582151805306 C370.3242423716329,150.94125996174847 370.4618972274573,150.37024358802483 370.59895697118293,149.6096781308883 C370.76061615645784,148.70552862382382 370.92569403734734,147.50161169294185 371.04240836282986,145.91243244959085 C371.1601525611463,144.33295122079576 371.2295332040567,142.3682076795325 371.22760447989157,140.20425134471608 M371.22760447989157,140.2042513447161 C371.2278610049422,138.3801783339488 371.1820742466408,136.53934912853498 371.0874512817698,134.73993408990032 C370.9573751896011,132.2457348614834 370.73358553652025,129.85623790389548 370.45126678446763,127.63640074707617 C370.158698054127,125.33132148848995 369.8061114605908,123.18834888972654 369.42232007747435,121.10757977702502 C369.0079131293501,118.8623682091316 368.5550462070934,116.68121169602742 368.0924570598634,114.45543384387184 C367.2193127313867,110.25110519465568 366.3027351126688,105.8724442602202 365.6098838027979,100.83953450649032 C365.2688554179499,98.36127058478769 364.98457929499347,95.71304368543014 364.7964103497976,92.96564518741691 C364.6067831899563,90.22107766172881 364.51326320787615,87.37733853738517 364.51437530934817,84.58448641848898 M364.51437530934805,84.58448641848896 C364.51627149750124,80.46800328005502 364.1515026768355,76.57557518667512 363.5009572533907,73.16909158577003 C362.8288003290885,69.62112928305724 361.84525343632896,66.61542171543238 360.78487444852345,64.33189954968766 C360.0529317987062,62.74640523050656 359.2903567960815,61.50481921501364 358.5864371729478,60.561925320898844 C357.88054637726907,59.61659657416736 357.2333109610822,58.969959948814 356.67882582542853,58.508623389261636 C356.1313810736739,58.05638676610043 355.67123380089157,57.78120511885865 355.2677171969425,57.589496254470035 C354.86306845480124,57.39957742740219 354.5150503814943,57.29313138318768 354.1612962974947,57.22669697374329 C353.87631669316215,57.17748830065887 353.5941966771041,57.1510840729682 353.269792765289,57.157750719737614 C352.945847441447,57.16506444706025 352.57961822184853,57.20544904884304 352.13880208571516,57.3072892096417 C351.6984445375556,57.40977645099356 351.1835000728606,57.57371925136108 350.57450613410913,57.8456205507893 C349.9659707833307,58.11816893077067 349.26338595849495,58.49867580981258 348.46012956533315,59.05176238344895 C347.18031168102885,59.92963651717356 345.6491118385697,61.251975350742775 344.0359112269274,63.10721106718682 C342.42344043376056,64.95579061709742 340.7289688714106,67.33726704988283 339.14231264616143,70.15369988563678 C337.4381052348597,73.16825463783299 335.8538223291497,76.68032154107954 334.52911997983705,80.48336987502289 C333.2019436756125,84.28546281589406 332.13434792778514,88.37853718746204 331.396718049636,92.52931126335059 C330.58287359195384,97.09449139805643 330.1707663498205,101.73027315044976 330.1724555436683,106.11471800283496 M330.1724555436683,106.11471800283496 L330.1724555436683,199.41238820166757 M383.87828890801615,177.88215661732158 C383.8775228767919,175.84552592018716 383.93655370277315,173.9930645476559 384.04270883751855,172.4641666945463 C384.15821131961997,170.7832960375148 384.3240959077834,169.5131164188406 384.49132766704685,168.56452181857276 C384.6779239546607,167.5127300114798 384.86256914695684,166.81693154382742 385.0481060877987,166.22064132276637 C385.196403433992,165.75307238890062 385.3418509509529,165.35605229338486 385.53324495077953,164.89618437194116 C385.72396004749567,164.4381696907743 385.9606216270774,163.91730718367933 386.27301671453887,163.2520909141271 C386.49772835198763,162.77126506207003 386.75437416876923,162.2254285932876 387.01373559548887,161.642935368846 C387.27599300109597,161.0584060182689 387.5338929930789,160.441127776223 387.7874355714386,159.791100642708 C388.4762546434523,158.01026669244112 389.08760156897966,156.02298373118714 389.5682237846901,153.51654854755046 C389.88856151110394,151.84195254938555 390.15251280471887,149.91063276106064 390.3279946785908,147.67509398842924 C390.504591682286,145.44587540358003 390.5927192662397,142.9124378344247 390.59151807855966,140.20425134471606 M390.5915180785595,140.20425134471608 C390.5917737863676,138.04948298575314 390.5375693558274,135.87028249916062 390.42480188815165,133.72563275078636 C390.2473575541621,130.31557962652084 389.91944947382837,127.02648417059922 389.50181803586736,123.99151307936421 C388.8307021481672,119.10313331212024 387.947359912338,114.83045009085346 387.09780985102077,110.73922549693143 C386.5523731320936,108.11439963865787 386.02063339256483,105.57258763207929 385.5436153534573,102.91166611224148 C385.0674180029304,100.25112534659615 384.64594235282544,97.4714750676918 384.34319240442403,94.38125302796588 C384.03789935728696,91.29461123423954 383.875172033019,87.91332643272365 383.8782889080162,84.58448641848896 M383.87828890801615,84.58448641848898 C383.88038775312066,77.92467522783902 383.1377168911529,71.53677603546883 381.7078766306475,65.83699115527499 C380.5742512727998,61.30424287767154 379.00874446618434,57.20794886942983 377.10167103638776,53.690527062642644 C375.8071974944982,51.299633244332355 374.35698935156574,49.17436848353199 372.7899909428644,47.327753246034185 C371.2228178534043,45.48036754785191 369.5388544981762,43.911631372972245 367.7721541512103,42.61299228802286 C364.625443726207,40.30266241966869 361.21972131987144,38.83978943370139 357.6726075024105,38.18390876001345 C353.9861305072883,37.506317323159536 350.13937746359295,37.69763034269577 346.24041824328225,38.845112359864004 C344.13007944022524,39.467598948633075 342.00454811138167,40.37352876119011 339.8933024980508,41.58254403992798 C337.7824852332427,42.790877550107396 335.6859536839469,44.30229652646746 333.645179850111,46.117353691763974 C331.25974652014327,48.237179596932826 328.9514727516531,50.77263910658624 326.789057925711,53.67541515704254 C324.626234480011,56.57694382735098 322.6092699768582,59.84578903846212 320.7954224441054,63.39870708255373 C318.8502000220822,67.2070109980913 317.1383192154886,71.34245702215458 315.7132512311234,75.67751947704207 C314.2875449948163,80.01204961892415 313.14865158073644,84.54619619162995 312.33217114130605,89.13752875330549 C311.3237192809248,94.80107061280425 310.80766080531293,100.55064621714354 310.8085419450002,106.11471800283495 M310.8085419450002,106.11471800283495 L310.8085419450002,199.41238820166757" />
  </g>
</svg>
