<?xml version='1.0' ?>
<svg xmlns="http://www.w3.org/2000/svg" xmlns:xlink="http://www.w3.org/1999/xlink" version="1.1" width="803.9999980399396" height="240.8300442270745">
  <style type="text/css">
.edge {
  fill: None;
}
.edge.visible {
  stroke: #000000;
}
.edge.hidden {
  stroke: #C8C8FF;
}
@media (prefers-color-scheme: dark) {
    .edge.visible {
      stroke: #FFFFFF;
    }
    .edge.hidden {
      stroke: #A00000;
    }
}
</style>
  <g>
    <path fill-opacity="0.0" class="edge sharp hidden" d="M89.73870599087269,94.6129301472387 Q87.68973779577362,94.24785695759786 85.96442022186375,92.56675027132738 M23.466970424701458,111.87644509181119 L83.37626834547777,87.85929504519905 M85.96442022186375,92.56675027132738 Q84.23910264795393,90.8856435850569 83.37626834547774,87.85929504519905 M2.331040324460105,32.92744458364017 L62.240338245236416,8.910294537028015 M83.37626834547774,87.85929504519905 L62.24033824523636,8.910294537028037 M2.0077407343134155,30.74648096202459 L61.917038655089726,6.72933091541244 M62.24033824523639,8.910294537028022 Q61.917038655089755,7.478584688806677 61.917038655089755,6.729330915412447 M61.917038655089755,6.729330915412447 Q61.808921093998265,4.33709142698055 63.210939077761395,3.0257800523001492 M63.210939077761395,3.0257800523001492 Q63.75366521598351,2.5181667644329124 64.39328369704636,2.2617489200344196 M29.72164154004753,103.62417735365989 L89.63093946082384,79.60702730704773 M75.84079316355634,24.674990234002983 L89.63093946082378,79.60702730704772 M47.946120173756185,38.18225941558343 L107.8554180945325,14.16510936897128 M89.63093946082381,79.60702730704774 L107.85541809453247,14.165109368971287 M107.85541809453247,14.165109368971287 Q108.39460177581941,12.13822452115734 109.95826955465594,11.105330707499064 M109.95826955465594,11.105330707499064 Q110.37326010646966,10.831205231808852 110.81481746693308,10.654188479009315 M77.38533855340012,112.11661659227732 L137.29463647417643,88.09946654566517 M123.31175403989157,32.904820212978535 L137.29463647417643,88.09946654566515 M95.5020506570599,46.40588169873125 L155.4113485778362,22.388731652119098 M137.2946364741764,88.09946654566517 L155.41134857783615,22.38873165211909 M155.41134857783618,22.388731652119077 Q155.95053225912315,20.486248136187186 157.24460819731615,19.467927228677 M157.24460819731615,19.467927228677 Q157.6759668433805,19.128486926173597 158.1552412267467,18.9363497258007 M113.46310278722642,110.64189053371113 L143.5493075895225,98.58057584387134 M155.21348120073756,59.16791848466746 L146.76093310186033,87.72865438737449 M145.90518573520714,90.62018180047077 L143.54930758952247,98.58057584387134 M143.5493075895225,98.58057584387134 Q142.68647328704628,101.29945482740331 140.9611557131364,102.36574749034514 M140.9611557131364,102.36574749034514 Q140.5471244255432,102.62162996141309 140.11445490758274,102.79508365047472 M140.11445490758274,102.79508365047474 Q138.74413913094952,103.3444320948875 137.18686994412755,103.06696696364617 M137.18686994412755,103.06696696364617 Q135.03013521897958,102.68269256290037 133.2509343800453,100.74216625656263 M133.2509343800453,100.74216625656263 Q131.471733541111,98.80163995022485 130.8244322987326,96.31333186160651 M53.55349004672382,53.54360356753192 L113.46278796750013,29.526453520919766 M130.8244322987326,96.31333186160651 L113.46278796750013,29.526453520919773 M113.4627879675001,29.526453520919787 L96.10114363626764,90.12653902746388 M96.10114363626764,90.12653902746385 Q95.45419342493176,92.38424494883778 93.6748170704762,93.69072474841113 M93.6748170704762,93.69072474841113 Q93.10185081553232,94.11141643403849 92.48975756985115,94.35679963554892 M92.48975756985115,94.35679963554892 Q91.20096356660748,94.87346666436319 89.73870599087269,94.6129301472387 M190.45828786149033,113.18300307221152 Q185.82116779000523,112.35678809274343 181.77729018035282,109.3883090010122 M181.77729018035282,109.3883090010122 Q177.73341257070044,106.41982990928096 175.307086004909,101.80361170823204 M175.307086004909,101.80361170823204 Q172.88075943911758,97.1873935071831 172.88075943911758,91.3177646519112 M172.88075943911758,91.3177646519112 Q172.88075943911758,82.45071416276205 178.97360524386903,77.85388480680282 M178.97360524386903,77.85388480680282 Q180.3610564651573,76.80710359678014 182.08680859312278,76.11526361135054 M182.08680859312275,76.11526361135054 Q187.9395150455982,73.76896121879437 197.68320877831894,75.50503567734188 M150.82208573847925,101.84703333953377 L210.73138365925556,77.82988329292161 M197.68320877831894,75.50503567734188 L210.73138365925553,77.82988329292162 M210.73138365925553,77.82988329292161 L210.73138365925553,76.83060723486243 M210.73138365925553,76.83060723486244 Q210.73138365925553,68.46319477474287 207.17280646586568,64.26968466898046 M207.17280646586568,64.26968466898046 Q203.6142292724758,60.076174563218075 196.2815418255983,58.76967912747932 M196.2815418255983,58.76967912747932 Q191.75218828416206,57.9626653591162 188.35543640136683,58.29412079315793 M122.02981757017113,83.22880102514455 L181.93911549094744,59.2116509785324 M188.35543640136683,58.29412079315793 Q184.95868451857157,58.62557622719963 181.93911549094742,59.211650978532404 M181.93911549094742,59.211650978532404 Q181.07628118847126,59.30753194473411 180.53709750718428,59.21146334454765 M180.53709750718428,59.21146334454765 Q178.91954646332334,58.92325754398831 177.73341257070044,57.33821945790427 M177.73341257070044,57.33821945790427 Q176.54727867807756,55.75318137182026 176.54727867807756,53.755035796002176 M176.54727867807756,53.755035796002176 Q176.54727867807756,50.84796133855126 178.63081718329545,49.79732938707715 M215.04223661617482,58.97697010118971 Q216.95053399014787,61.68136084598204 218.1723641827457,64.79341802888364 M218.1723641827457,64.79341802888364 Q220.54480748351267,70.83613923507743 220.54480748351267,76.95538383471398 M220.54480748351267,76.95538383471398 L220.54480748351267,112.29918445942852 M220.54480748351267,112.29918445942852 Q220.54480748351267,114.67216019209386 219.08890623472504,116.03627489731292 M219.08890623472504,116.03627489731292 Q218.51122496104963,116.57753655294135 217.8401717302554,116.84655633271846 M217.84017173025543,116.84655633271845 Q216.82000303429348,117.25553366168292 215.58403679083838,117.03531641289116 M215.58403679083838,117.03531641289116 Q213.53541962678187,116.67030576791191 212.13340164301871,114.79698370044157 M212.13340164301871,114.79698370044157 Q210.73138365925553,112.92366163297122 210.73138365925553,110.5506859003059 M150.82208573847925,131.32079856867614 L210.73138365925556,107.30364852206398 M210.73138365925553,110.5506859003059 L210.73138365925553,107.30364852206398 M210.73138365925553,107.30364852206398 Q207.8199321927228,110.28155622152836 202.9672790611399,112.41436045372757 M202.9672790611399,112.41436045372757 Q202.77046622573235,112.50086225736491 202.56904151512484,112.58161178482813 M202.56904151512484,112.58161178482813 Q197.80410185887752,114.49183732007776 190.45828786149033,113.18300307221152 M194.12480710045034,103.84514764302104 Q198.7056554938074,104.66133646343513 202.75798857547312,103.03678910536196 M202.75798857547312,103.03678910536196 Q203.1890997829422,102.86396013029612 203.6142292724758,102.6635069879608 M150.82208573847925,121.45447202146781 L210.73138365925556,97.43732197485565 M203.6142292724758,102.6635069879608 Q208.0354652528206,100.57884650901258 210.73138365925553,97.43732197485565 M150.82208573847925,110.96369957304756 L210.73138365925556,86.9465495264354 M210.73138365925553,97.43732197485565 L210.73138365925553,86.9465495264354 M210.73138365925553,86.94654952643542 L198.97746023203322,84.8523040781001 M198.9774602320332,84.8523040781001 Q191.42888869401537,83.50734367548982 187.0613604631738,84.97712758644784 M187.0613604631738,84.97712758644784 Q186.84410723354915,85.05023880282215 186.63766079515463,85.13300150009273 M186.63766079515463,85.13300150009272 Q182.69383223233223,86.71405027947714 182.69383223233223,91.81730886394841 M182.69383223233223,91.81730886394841 Q182.69383223233223,95.81360001558457 185.12015879812364,99.24333035030084 M185.12015879812364,99.24333035030084 Q187.5464853639151,102.6730606850171 194.12480710045034,103.84514764302104 M256.0228128873624,124.86490732808672 Q254.08161122231223,124.51903534955089 251.43975159642304,123.61129340371363 M251.43975159642304,123.61129340371363 Q248.79789197053378,122.70355145787637 246.2636233591722,120.6908955205718 M246.2636233591722,120.6908955205718 Q243.7293547478106,118.67823958326721 242.00403717390074,114.99878405102854 M242.00403717390074,114.99878405102854 Q240.27871959999092,111.31932851878985 240.27871959999092,105.57450753570026 M180.3694216792146,90.87601170717365 L240.27871959999092,66.8588616605615 M240.27871959999092,105.57450753570026 L240.27871959999092,66.85886166056147 M240.27871959999092,66.85886166056149 L232.62238153192422,65.49470004684623 M232.62238153192416,65.49470004684623 Q230.57341333682513,65.12962685720542 230.57341333682513,62.7566511245401 M171.6347162485739,84.8233771721195 L231.54401416935022,60.806227125507355 M230.57341333682513,62.7566511245401 Q230.57341333682513,61.50775932211627 231.54401416935022,60.80622712550735 M186.30044217337147,70.82641354020178 L246.20974009414778,46.80926349358963 M231.54401416935022,60.80622712550735 L246.20974009414775,46.80926349358964 M246.20974009414778,46.809263493589626 Q246.42527315424553,46.59764363113466 246.91057357050806,46.24708080298032 M264.20413125653624,70.62827919902895 Q263.3519441206647,70.96991408744117 262.27748400270843,70.77847305710091 M190.18249447242923,92.6244477216347 L250.09179239320554,68.60729767502255 M262.2774840027085,70.77847305710091 L250.0917923932056,68.60729767502254 M250.09179239320554,68.60729767502254 L250.09179239320554,76.28580101538306 M250.09179239320554,82.84503184744999 L250.09179239320554,106.32366749210215 M250.09179239320554,106.32366749210215 Q250.09179239320554,109.94553502719131 251.2779262858284,111.78039212779015 M251.2779262858284,111.78039212779015 Q252.4640601784513,113.61524922838896 254.13567000285792,114.22530985743755 M254.13567000285792,114.22530985743755 Q255.80727982726464,114.83537048648614 257.10118024993636,115.06591010906897 M257.10118024993636,115.06591010906897 Q259.6893321263224,115.52705189889625 260.9293492839697,115.18594895080585 M260.9293492839697,115.18594895080585 Q262.16936644161706,114.84484600271546 263.5713844253802,115.09464938106484 M263.5713844253802,115.09464938106484 Q265.08116893919225,115.36365397051922 266.2673028318152,116.82388418442093 M266.2673028318152,116.82388418442093 Q267.453436724438,118.28411439832263 267.453436724438,120.2822599741407 M220.49204152376115,142.04371887683638 L264.9734024091434,124.21150324856339 M267.453436724438,120.2822599741407 Q267.453436724438,123.15487373583562 264.9734024091434,124.2115032485634 M264.9734024091434,124.2115032485634 Q263.03220074409325,124.86490732808673 260.82158275392084,125.09547822300036 M260.82158275392084,125.09547822300036 Q258.6109647637484,125.32604911791398 256.0228128873624,124.86490732808672 M302.8236755982389,133.2036117885412 Q289.66773418725336,130.85956296185648 282.2809879598302,120.8635969673588 M282.2809879598302,120.8635969673588 Q274.89424173240695,110.86763097286112 274.89424173240695,95.1316755703809 M274.89424173240695,95.1316755703809 Q274.89424173240695,86.63904869777875 277.59016013884184,79.56363694807683 M277.59016013884184,79.56363694807683 Q280.28607854527684,72.48822519837492 286.00139046381463,68.76079791070458 M286.00139046381463,68.76079791070458 Q287.24151442114066,67.95201057861905 288.6339435841547,67.39379705754574 M321.8499110206121,83.2425289997923 Q322.68167919918704,84.89187330139467 323.36671426769004,86.65835936204147 M323.36671426769004,86.65835936204147 Q326.3322245147685,94.3054605909128 326.3322245147685,102.67287305103235 M326.3322245147685,102.67287305103235 Q326.3322245147685,105.04584878369769 324.984265311551,106.42919597235253 M324.984265311551,106.42919597235253 Q324.4568085446381,106.97050006664878 323.78901463305107,107.23821321187724 M323.7890146330511,107.23821321187722 Q322.75020621162645,107.65466305510576 321.3718048531366,107.40906754915657 M224.9057831348942,124.91275399419521 L284.8150810556705,100.89560394758306 M321.37180485313667,107.40906754915659 L284.8150810556705,100.89560394758306 M284.8150810556705,100.89560394758307 Q285.67791535814666,109.41715772616585 290.3148599141105,115.30131257908964 M290.3148599141105,115.30131257908964 Q294.9518044700743,121.18546743201343 303.686509900715,122.74176624610158 M303.686509900715,122.74176624610158 Q308.5391630322979,123.60638364777962 311.8820316500687,123.14051973600309 M279.36333494487985,137.05126555193314 L318.24446929546366,121.46413517168185 M311.8820316500687,123.14051973600309 Q315.22490026783953,122.67465582422653 318.24446929546366,121.46413517168186 M318.24446929546366,121.46413517168186 Q319.10730359793985,121.11823192081523 320.1856709605138,121.31036912118813 M320.1856709605138,121.31036912118813 Q321.91098853442367,121.61777613285246 323.2050644726167,123.22204670237224 M323.2050644726167,123.22204670237224 Q324.4991404108097,124.82631727189204 324.4991404108097,126.94967726019271 M324.4991404108097,126.94967726019271 Q324.4991404108097,128.4481848069812 323.69036488887923,129.4905697730342 M279.36333494487985,148.0412694890827 L321.6951044432834,131.07080755634198 M323.69036488887923,129.4905697730342 Q322.88158936694873,130.5329547390872 321.69510444328336,131.07080755634198 M321.69510444328336,131.07080755634198 Q320.7329682168986,131.5409953100199 319.7274485598251,131.94409995849512 M319.7274485598251,131.94409995849512 Q317.01411558798895,133.03185306815743 313.98488311019224,133.63113582276935 M313.98488311019224,133.63113582276938 Q309.83306345496965,134.45250359096502 302.8236755982389,133.2036117885412 M250.2616704908623,105.50631097167773 L284.8150810556705,91.65412984188694 M256.7176203308264,121.33932729949954 L316.62691825160266,97.3221772528874 M284.8150810556705,91.65412984188693 L316.6269182516027,97.3221772528874 M316.6269182516027,97.3221772528874 Q316.30326763041353,90.77002977812681 313.76917453457315,86.32202544439653 M313.76917453457315,86.32202544439653 Q311.23508143873283,81.87402111066626 307.676504245343,79.36663690026609 M307.676504245343,79.36663690026609 Q304.11792705195313,76.85925268986595 300.6669408730909,76.24437612187573 M300.6669408730909,76.24437612187573 Q297.2163057252712,75.6295620985471 293.65772853188133,76.86885329541843 M293.65772853188133,76.86885329541843 Q293.4151281853763,76.95334000385351 293.17753967412574,77.04858730472495 M293.1775396741257,77.04858730472492 Q289.93006697368446,78.3504726852199 287.6189415076756,81.66272960768457 M287.6189415076756,81.66272960768457 Q285.13873167685966,85.21731472307934 284.8150810556705,91.65412984188693 M344.125285997239,139.93804567947586 Q342.07631780213995,139.57297248983505 340.67447533389804,137.6996816946955 M340.67447533389804,137.6996816946955 Q339.27263286565613,135.82639089955595 339.27263286565613,133.4534151668906 M339.27263286565613,133.4534151668906 L339.27263286565613,79.87587553484819 M339.27263286565613,79.87587553484818 Q339.27263286565613,77.50289980218284 340.67447533389804,76.06674928298932 M340.67447533389804,76.06674928298932 Q341.2691607627192,75.45750979516771 341.980302986973,75.17241866412206 M346.78812306457604,76.35904709870694 Q347.23129958613663,76.77328146659953 347.6299799256044,77.30604047986068 M347.6299799256044,77.30604047986068 Q349.0857056588708,79.25133581664389 349.0857056588708,81.62431154930923 M289.1764077380945,111.01185896246395 L349.0857056588708,86.99470891585179 M349.0857056588708,81.62431154930923 L349.0857056588708,86.9947089158518 M349.0857056588708,86.99470891585179 Q351.99715712540353,83.01752515832825 356.20286004565054,80.14500521362571 M356.20286004565054,80.14500521362571 Q357.3283787263842,79.37626930434925 358.55428338760083,78.88481410101475 M358.5542833876009,78.88481410101475 Q361.9091919122325,77.53985857282132 366.0159328388651,78.2715736929976 M366.0159328388652,78.27157369299759 L366.5551165201522,78.36764229318403 M366.5551165201522,78.36764229318405 Q368.6040847152512,78.73271548282486 369.9520439184687,80.59640567241193 M369.9520439184687,80.59640567241193 Q371.30000312168613,82.46009586199901 371.30000312168613,84.83307159466435 M371.30000312168613,84.83307159466435 Q371.30000312168613,87.20604732732969 369.8981606534442,88.45498603824969 M369.8981606534442,88.45498603824969 Q369.4007041908597,88.89818322138133 368.808187971218,89.13571815245339 M368.808187971218,89.13571815245339 Q367.7309813863744,89.5675615069457 366.33958346005437,89.31965034842392 M366.33958346005437,89.31965034842392 L365.80039977876737,89.22358174823748 M365.80039977876737,89.22358174823748 Q361.3360617887969,88.42815207122658 357.5645393425357,89.9401247305591 M357.5645393425357,89.94012473055912 Q356.8720203734621,90.21774995014292 356.20286004565054,90.57317045580464 M314.33740949844486,111.16576825887137 L349.0857056588708,97.23545907960712 M356.20286004565054,90.57317045580464 Q351.8893905953546,92.86424395413135 349.0857056588708,97.23545907960711 M349.0857056588708,97.23545907960711 L349.0857056588708,135.20185118135163 M349.0857056588708,135.20185118135163 Q349.0857056588708,137.57482691401697 347.6299799256044,138.93897289156683 M347.6299799256044,138.93897289156683 Q347.05232292284086,139.48028947251046 346.38125165635614,139.74931648264914 M346.38125165635614,139.74931648264914 Q345.36118837967086,140.15825154988337 344.125285997239,139.93804567947586 M389.5244817553948,148.02700930624252 Q387.4758645913382,147.66199866126328 386.0738466075751,145.78867659379293 M386.0738466075751,145.78867659379293 Q384.6718286238119,143.91535452632257 384.6718286238119,141.54237879365726 M324.7625307030356,116.60313280137531 L384.67182862381196,92.58598275476317 M384.6718286238119,141.54237879365726 L384.6718286238119,92.58598275476317 M384.6718286238119,92.58598275476317 L378.30974200945946,91.45242330829234 M378.3097420094595,91.45242330829234 Q376.58407340450714,91.14495375196644 375.3440562468598,89.48770785408863 M375.3440562468598,89.48770785408863 Q374.1040390892125,87.8304619562108 374.1040390892125,85.83231638039274 M374.1040390892125,85.83231638039274 Q374.1040390892125,83.70895639209206 375.3440562468598,82.55619573451625 M375.3440562468598,82.55619573451625 Q375.83532632509986,82.0994949421548 376.4028235959566,81.87198990406819 M376.4028235959566,81.87198990406819 Q377.26774890475576,81.52524838578147 378.30974200945957,81.71090463326634 M324.7625307030356,106.86161412634932 L384.67182862381196,82.84446407973718 M378.3097420094595,81.71090463326635 L384.67182862381196,82.84446407973718 M384.6718286238119,82.84446407973718 L384.6718286238119,75.60072900955885 M384.6718286238119,75.60072900955885 Q384.6718286238119,67.73295457846888 387.09815518960335,63.41951508412737 M387.09815518960335,63.41951508412737 Q389.3497190700296,59.416762650554816 392.76205458750934,57.93296685812889 M410.41655187266576,69.88102580437064 Q409.65527828378214,70.18621419157091 408.7195612216285,70.01949358883103 M408.7195612216285,70.01949358883103 Q407.42566079895676,69.78895396624817 406.1315848607637,69.1835529144873 M406.1315848607637,69.1835529144873 Q404.83750892257075,68.57815186272641 403.3277244087587,68.30914727327205 M403.3277244087587,68.30914727327205 Q400.34546209048784,67.77778518601225 398.2367362950092,68.62315619844082 M398.2367362950092,68.62315619844082 Q397.5243038601475,68.90876456442057 396.91157901386055,69.35151660315964 M396.91157901386055,69.35151660315964 Q394.7665418791153,70.90151016117296 394.5178629569486,76.25468082096145 M409.8914917340715,96.58600246047504 Q409.0393045982001,96.92763734888726 407.9648444802438,96.73619631854702 M334.57595452729277,118.35163136049795 L394.4852524480691,94.33448131388579 M407.96484448024376,96.736196318547 L394.4852524480691,94.33448131388579 M394.4852524480691,94.33448131388579 L394.4852524480691,102.76223842764054 M394.4852524480691,105.30705163300718 L394.4852524480691,143.2908773527799 M394.4852524480691,143.2908773527799 Q394.4852524480691,145.66385308544523 393.0832344643059,147.03756839621676 M393.0832344643059,147.03756839621676 Q392.53097464294194,147.5786796950143 391.8616129837216,147.847021337512 M391.8616129837216,147.847021337512 Q390.8316710768221,148.2599166672154 389.52448175539473,148.02700930624252 M435.78651181602675,156.89415361238406 Q431.1493917445417,156.06793863291597 427.1055141348893,153.09945954118473 M427.1055141348893,153.09945954118473 Q423.06163652523685,150.1309804494535 420.6353099594454,145.51476224840457 M420.6353099594454,145.51476224840457 Q418.20898339365397,140.8985440473556 418.20898339365397,135.02891519208373 M418.20898339365397,135.02891519208373 Q418.20898339365397,126.16186470293458 424.3018291984054,121.56503534697535 M424.3018291984054,121.56503534697535 Q425.68928041969366,120.51825413695266 427.4150325476591,119.82641415152307 M427.4150325476591,119.82641415152307 Q433.2677390001346,117.4801117589669 443.0114327328554,119.2161862175144 M396.15030969301563,145.5581838797063 L456.05960761379197,121.54103383309413 M443.0114327328554,119.2161862175144 L456.05960761379197,121.54103383309415 M456.05960761379197,121.54103383309413 L456.05960761379197,120.54175777503495 M456.05960761379197,120.54175777503497 Q456.05960761379197,112.1743453149154 452.5010304204021,107.98083520915299 M452.5010304204021,107.98083520915299 Q448.9424532270122,103.7873251033906 441.6097657801347,102.48082966765185 M441.6097657801347,102.48082966765185 Q437.0804122386985,101.67381589928873 433.68366035590327,102.00527133333046 M367.3580415247076,126.93995156531707 L427.2673394454839,102.92280151870492 M433.68366035590327,102.00527133333046 Q430.286908473108,102.33672676737217 427.26733944548386,102.92280151870493 M427.26733944548386,102.92280151870493 Q426.40450514300767,103.01868248490663 425.86532146172067,102.92261388472019 M425.86532146172067,102.92261388472019 Q424.2477704178597,102.63440808416084 423.06163652523685,101.0493699980768 M423.06163652523685,101.0493699980768 Q421.875502632614,99.46433191199279 421.875502632614,97.4661863361747 M421.875502632614,97.4661863361747 Q421.875502632614,94.55911187872371 423.95904113783195,93.50847992724962 M439.3405903639904,91.50840719837493 Q441.2634494628003,91.67873685549006 443.33508335404457,92.04784848653127 M443.33508335404457,92.04784848653127 Q451.2069544822091,93.45041252245647 456.16754965936207,97.95612994265943 M456.16754965936207,97.95612994265943 Q461.12814483651516,102.46184736286241 463.50058813728214,108.50456856905618 M463.50058813728214,108.50456856905618 Q465.8730314380491,114.54728977524995 465.8730314380491,120.66653437488651 M465.8730314380491,120.66653437488651 L465.8730314380491,156.01033499960104 M465.8730314380491,156.01033499960104 Q465.8730314380491,158.38331073226638 464.41713018926146,159.74742543748545 M464.41713018926146,159.74742543748545 Q463.8394489155861,160.28868709311388 463.1683956847919,160.557706872891 M463.1683956847919,160.557706872891 Q462.14822698882995,160.96668420185546 460.91226074537485,160.7464669530637 M460.91226074537485,160.7464669530637 Q458.8636435813183,160.38145630808444 457.4616255975551,158.50813424061408 M457.4616255975551,158.50813424061408 Q456.05960761379197,156.63481217314376 456.05960761379197,154.26183644047842 M396.15030969301563,175.03194910884866 L456.05960761379197,151.0147990622365 M456.05960761379197,154.26183644047842 L456.05960761379197,151.0147990622365 M456.05960761379197,151.0147990622365 Q453.1481561472592,153.99270676170087 448.29550301567633,156.1255109939001 M448.29550301567633,156.1255109939001 Q448.0986901802688,156.21201279753743 447.8972654696613,156.29276232500064 M447.89726546966136,156.29276232500067 Q443.13232581341396,158.2029878602503 435.78651181602675,156.89415361238403 M439.45303105498675,147.55629818319358 Q444.03387944834384,148.37248700360766 448.08621253000956,146.74793964553447 M448.0862125300095,146.7479396455345 Q448.51732373747865,146.57511067046863 448.9424532270122,146.3746575281333 M396.15030969301563,165.16562256164033 L456.05960761379197,141.14847251502817 M448.9424532270122,146.37465752813333 Q453.363689207357,144.2899970491851 456.05960761379197,141.14847251502817 M396.15030969301563,154.6748501132201 L456.05960761379197,130.65770006660793 M456.05960761379197,141.14847251502817 L456.05960761379197,130.65770006660793 M456.05960761379197,130.65770006660796 L444.3056841865697,128.56345461827263 M444.30568418656964,128.56345461827263 Q436.7571126485518,127.21849421566235 432.38958441771024,128.68827812662036 M432.38958441771024,128.68827812662036 Q432.1723311880856,128.76138934299468 431.96588474969104,128.84415204026524 M431.96588474969104,128.84415204026524 Q428.02205618686867,130.42520081964966 428.02205618686867,135.52845940412095 M428.02205618686867,135.52845940412095 Q428.02205618686867,139.5247505557571 430.4483827526601,142.95448089047338 M430.4483827526601,142.95448089047338 Q432.87470931845155,146.38421122518963 439.45303105498675,147.55629818319358 M487.2244945983883,165.4346271510947 Q485.1755264032892,165.0695539614539 483.7736839350473,163.1962631663143 M483.7736839350473,163.1962631663143 Q482.3718414668054,161.32297237117476 482.3718414668054,158.94999663850942 M482.3718414668054,158.94999663850942 L482.3718414668054,77.8968373531427 M482.3718414668054,77.8968373531427 Q482.3718414668054,75.39905374829505 483.7736839350473,74.0253071651927 M483.7736839350473,74.0253071651927 Q484.34316238445723,73.46724226720997 485.0194343358749,73.19613034480034 M492.18491426002004,85.8722913438687 L492.18491426002004,160.69843265297047 M492.18491426002004,160.69843265297047 Q492.18491426002004,163.0714083856358 490.7830717917781,164.44515496873814 M490.7830717917781,164.44515496873814 Q490.23083920021963,164.98631965230106 489.56145975902893,165.25466842344596 M489.56145975902893,165.254668423446 Q488.53161944685274,165.66752302465153 487.2244945983882,165.43462715109473 M514.0759121326887,170.21885594931214 Q512.0269439375896,169.85378275967133 510.6251014693478,167.98049196453178 M510.6251014693478,167.98049196453178 Q509.2232590011058,166.10720116939223 509.2232590011058,163.7342254367269 M509.2232590011058,163.7342254367269 L509.2232590011058,82.68106615136017 M509.2232590011058,82.68106615136017 Q509.2232590011058,80.1832825465125 510.6251014693478,78.80953596341016 M510.6251014693478,78.80953596341016 Q511.19457991875765,78.25147106542742 511.8708518701753,77.9803591430178 M519.0363317943204,141.5167357429117 L519.0363317943204,165.48266145118794 M519.0363317943204,165.4826614511879 Q519.0363317943204,167.55724198549424 517.9648785701858,168.86809384257526 M516.4128772933295,170.03889722166343 Q515.3830369811533,170.45175182286894 514.0759121326887,170.21885594931214 M559.6909919819848,147.74843538356646 L539.3097786231282,144.11702978758638 M539.3097786231282,144.1170297875864 Q537.476343488127,143.79035902015553 536.2363263304796,142.1331131222777 M536.2363263304796,142.1331131222777 Q534.9963091728323,140.47586722439988 534.9963091728323,138.35291377639948 M534.9963091728323,138.35291377639948 Q534.9963091728323,136.22996032839907 536.2363263304796,134.9521885284908 M536.2363263304796,134.9521885284908 Q536.7617619672584,134.41075502073468 537.393745372843,134.1573980159678 M537.3937453728431,134.15739801596777 Q538.2532296398313,133.8128377670686 539.3097786231282,134.00108749601344 M539.3097786231282,134.0010874960134 L559.6909919819848,137.6324930919935 M559.6909919819848,137.6324930919935 Q561.5240760859435,137.9591013147628 562.8181520241366,139.68838302661504 M562.8181520241366,139.68838302661504 Q564.1122279623296,141.4176647384673 564.1122279623296,143.5406181864677 M564.1122279623296,143.5406181864677 Q564.1122279623296,145.6635716344681 562.8181520241366,146.86930762040194 M562.8181520241366,146.86930762040194 Q562.3097140036607,147.34303717506836 561.7180705168803,147.58022223463786 M561.7180705168803,147.58022223463786 Q560.8038635963396,147.94672035006082 559.6909919819849,147.74843538356646 M615.2269111545445,188.86579626336646 Q604.5510040588536,186.96362547074247 595.9779484232863,180.00353044082814 M595.9779484232863,180.00353044082814 Q587.4048927877188,173.04343541091384 582.4444731260871,162.10587517249888 M582.4444731260871,162.10587517249888 Q577.4840534644553,151.16831493408392 577.4840534644553,137.30569723523945 M577.4840534644553,137.30569723523945 Q577.4840534644553,123.31827166421265 582.4444731260871,114.21095585760501 M582.4444731260871,114.21095585760501 Q587.4048927877188,105.10364005099737 595.9779484232863,101.19833574579431 M595.9779484232863,101.19833574579431 Q596.581802834906,100.92326051781723 597.196090068559,100.67699776438162 M640.0015438578373,120.31594530499439 Q639.0891680689532,120.68170933463638 637.8726257685979,120.46495293061508 M576.0221261827713,143.6365929696618 L635.9314241035477,119.61944292304963 M637.8726257685978,120.46495293061508 Q636.7942584060238,120.27281573024219 635.9314241035477,119.61944292304965 M635.9314241035477,119.61944292304965 Q631.6179546532518,116.22830264452806 627.088952142858,113.79783273170557 M627.088952142858,113.79783273170557 Q622.5599496324644,111.36736281888308 616.1975119870694,110.23374082775068 M616.1975119870694,110.23374082775068 Q607.8463880036145,108.74578631629545 601.8336874741203,111.15622903243558 M601.8336874741203,111.15622903243559 Q601.0138748621607,111.48488523764726 600.2375346085577,111.88601442503291 M600.2375346085577,111.88601442503291 Q593.7673304331138,115.22912040346127 590.5322283453919,122.33347469530919 M590.5322283453919,122.33347469530919 Q587.29712625767,129.4378289871571 587.29712625767,139.0541332497005 M587.29712625767,139.0541332497005 Q587.29712625767,140.24991092169418 587.3471453443693,141.42466521328612 M606.503402667453,175.03227007696813 Q610.8756325632222,177.22531478491675 616.1975119870694,178.17353618766714 M616.1975119870694,178.17353618766717 Q622.5599496324644,179.30715817879957 627.088952142858,178.49038744323002 M600.6636836082326,189.95812421845653 L635.9314241035477,175.81957403212203 M627.088952142858,178.49038744323002 Q631.1149142152306,177.76433617792813 634.9705631575624,176.21863789086922 M634.9705631575623,176.21863789086922 Q635.4523231190177,176.02550424246584 635.9314241035477,175.81957403212203 M635.9314241035477,175.81957403212206 Q636.7942584060238,175.4736707812554 637.8726257685978,175.66580798162832 M637.8726257685978,175.66580798162832 Q639.9215939636969,176.03088117126913 641.1077278563198,177.74093039968562 M596.8967735802092,199.58604451260433 L642.1860952188938,181.42992399281522 M641.1077278563198,177.74093039968562 Q642.2938617489426,179.45097962810212 642.1860952188938,181.42992399281525 M642.1860952188938,181.42992399281525 Q642.0783286888447,183.15925261316366 641.4852617425333,184.11526340157508 M595.4477733836324,203.2895729470669 L639.813827433648,185.50358289082547 M641.4852617425333,184.11526340157508 Q640.8921947962219,185.07127418998647 639.8138274336479,185.5035828908255 M639.8138274336479,185.5035828908255 Q638.5742236059458,186.09409143843573 637.2807767094873,186.61262377427863 M637.2807767094873,186.61262377427863 Q633.3979783305692,188.16920604954646 629.029978292387,189.07718158334052 M629.029978292387,189.07718158334052 Q623.2068998438003,190.28762405505822 615.2269111545445,188.86579626336646 M656.7440546136424,195.63863257651107 Q654.4795533584456,195.23515696466032 653.1854774202525,193.38106738062572 M653.1854774202525,193.38106738062572 Q651.8914014820596,191.52697779659115 651.8914014820596,189.15400206392582 M592.5212872425702,210.76943710587676 L652.4305851633466,186.7522870592646 M651.8914014820596,189.15400206392582 Q651.8914014820596,188.15472600586662 652.4305851633464,186.7522870592646 M620.0196549882065,140.48581182559107 L679.9289529089829,116.46866177897891 M652.4305851633464,186.7522870592646 L679.9289529089828,116.46866177897893 M679.9289529089829,116.46866177897893 Q680.6836696503676,114.60458068525698 682.2473374292041,113.32207112723404 M682.2473374292041,113.32207112723404 Q682.7524814444915,112.9077554800406 683.3420490245344,112.67140263459028 M677.4964247947737,216.41831457810304 L721.0146792168428,198.9722004940485 M700.4720811824101,139.1466450733105 L721.0146792168426,198.97220049404854 M721.0146792168428,198.97220049404854 Q721.5538628981298,200.56677664102347 721.5538628981298,201.56605269908266 M721.5538628981298,201.56605269908266 Q721.5538628981298,203.939028431748 720.2597869599367,205.33197622595532 M720.2597869599367,205.33197622595532 Q719.7421686208957,205.88914238779213 719.0692894518123,206.15889417137143 M719.0692894518123,206.15889417137143 Q718.0599315818538,206.56353752816017 716.7012097665466,206.32144840831182 M652.1551428053278,226.01538635721064 L712.0644407261042,201.9982363105985 M716.7012097665468,206.32144840831182 Q713.3583411487759,205.7258355960882 712.0644407261042,201.9982363105985 M645.1457549485972,205.28386374503512 L705.0550528693735,181.26671369842296 M712.0644407261042,201.9982363105985 L705.0550528693734,181.26671369842293 M608.481264621082,198.7511989323566 L668.3905625418583,174.73404888574444 M705.0550528693734,181.26671369842296 L668.3905625418583,174.73404888574444 M635.1167980642422,203.49696276370253 L661.3811746851276,192.9677878930723 M668.3905625418583,174.73404888574444 L661.3811746851275,192.96778789307234 M661.3811746851275,192.96778789307234 Q660.6218692641269,194.88413797852672 659.1574544743843,195.47120995159904 M659.1574544743842,195.471209951599 Q658.1257446243643,195.8848140353134 656.7440546136424,195.63863257651107 M626.8135097848395,151.0629897239837 L686.7228077056159,127.04583967737153 M636.3642729546427,179.39313039743777 L672.1648483108672,165.04097105111194 M686.7228077056159,127.04583967737156 L672.1648483108672,165.04097105111197 M641.3714691795882,194.24582550779232 L701.2807671003645,170.22867546118016 M672.1648483108672,165.04097105111197 L701.2807671003645,170.2286754611802 M701.2807671003645,170.2286754611802 L686.7228077056159,127.04583967737156 M763.933840659704,214.1126369012975 L742.258375847133,210.25062913807298 M742.2583758471329,210.25062913807295 Q740.2097586830764,209.88561849309372 738.8077406993132,208.0122964256234 M738.8077406993132,208.0122964256234 Q737.4057227155502,206.138974358153 737.4057227155502,203.76599862548767 M737.4057227155502,203.76599862548767 L737.4057227155502,127.95842883448121 M737.4057227155502,127.95842883448123 Q737.4057227155502,125.58545310181589 738.8077406993132,124.14913058480305 M738.8077406993132,124.14913058480305 Q739.4025990743912,123.5397172331534 740.1138580288025,123.25457930593747 M781.8888245165381,212.87204583568786 Q781.3302774273693,213.0959628187646 780.7563013096494,213.30088537481967 M780.7563013096494,213.30088537481967 Q773.6391469228696,215.84187170465356 763.933840659704,214.1126369012975 M687.3098486190308,158.59443023742872 L747.2191465398072,134.57728019081657 M731.8463537517249,206.68175751322283 L747.2191465398072,200.51892997491498 M747.2191465398073,134.5772801908166 L747.2191465398073,200.518929974915 M747.2191465398073,200.518929974915 L762.7473557360385,203.28565562455546 M762.7473557360385,203.28565562455543 Q771.249242617448,204.80047218890508 777.6137525393643,202.2489919500621 M777.6137525393642,202.2489919500621 Q778.0303251903279,202.08199136399713 778.4377412739068,201.89757067778592 M778.4377412739068,201.89757067778595 Q785.0697707599452,198.8955207389518 788.6822312183594,192.10822097281687 M788.6822312183594,192.10822097281687 Q792.2946916767738,185.32092120668193 792.2946916767738,175.57940253165594 M792.2946916767738,175.57940253165594 Q792.2946916767738,165.83829039693023 788.6822312183594,157.7636964061615 M788.6822312183594,157.7636964061615 Q785.0697707599452,149.6891024153928 778.4377412739068,144.32353662395724 M778.4377412739068,144.32353662395724 Q771.8057117878684,138.95797083252168 762.7473557360385,137.34400584045704 M762.7473557360385,137.34400584045704 L747.2191465398073,134.5772801908166" />
    <path fill-opacity="0.0" class="edge outline hidden" d="M113.02888832978464,113.6534668927007 L140.1144549075827,102.79508365047472 M66.83655069052193,104.6409615299577 L92.48975756985112,94.35679963554892 M148.27149483835709,89.67154773598598 L182.08680859312275,76.11526361135054 M180.44057342172962,131.83975096916214 L217.84017173025543,116.84655633271848 M150.82208573847922,133.32654528390856 L202.56904151512487,112.58161178482811 M142.8486906546968,127.0539391519741 L202.75798857547312,103.03678910536195 M126.72836287437835,109.15015154670486 L186.63766079515466,85.13300150009272 M279.36333494487985,125.04810670127355 L323.7890146330511,107.23821321187722 M279.36333494487985,148.12574465863185 L319.7274485598251,131.94409995849514 M233.2682417533494,101.06573735133708 L293.1775396741257,77.04858730472495 M325.47225136079174,92.14713154772217 L358.55428338760083,78.88481410101477 M314.30048802425813,110.98741152487479 L368.808187971218,89.13571815245339 M297.6552414217594,113.95727477717125 L357.5645393425357,89.94012473055912 M324.7625307030356,148.41608579846303 L346.3812516563561,139.74931648264914 M324.7625307030356,102.57416312099326 L376.40282359595665,81.87198990406819 M338.3274383742328,92.64030624505297 L398.23673629500917,68.62315619844081 M358.3900990963,161.26547889287386 L391.86161298372167,147.84702133751202 M393.59971879289367,133.3826982761585 L427.41503254765917,119.8264141515231 M422.46254354602917,176.8763517664549 L463.16839568479185,160.557706872891 M396.15030969301563,177.03769582408108 L447.8972654696613,156.29276232500064 M388.1769146092332,170.76508969214663 L448.08621253000956,146.74793964553447 M372.05658682891476,152.8613020868774 L431.965884749691,128.84415204026521 M449.31396108032965,181.3895631445528 L489.561459759029,165.254668423446 M521.3731386332814,140.57992889607647 L537.393745372843,134.15739801596783 M517.67663144022,165.23607678949577 L561.7180705168803,147.58022223463786 M541.9243895533441,135.17337907904772 L601.8336874741203,111.15622903243559 M575.0612652367861,200.23578793748138 L634.9705631575623,176.21863789086922 M595.4043579577615,203.40053929792512 L637.2807767094873,186.6126237742786 M677.4964247947737,222.82511732851734 L719.0692894518124,206.1588941713714 M637.900506058727,203.99294760085428 L659.1574544743842,195.47120995159906 M717.704454618588,226.26614199667424 L777.6137525393642,202.24899195006208" />
    <path fill-opacity="0.0" class="edge sharp visible" d="M29.829408070096406,118.63008019385083 Q27.78043987499734,118.26500700421002 26.055122301087465,116.58390031793954 M26.055122301087465,116.58390031793954 Q24.32980472717759,114.90279363166906 23.466970424701458,111.87644509181119 M23.466970424701458,111.87644509181119 L2.331040324460073,32.92744458364018 M2.331040324460105,32.92744458364017 Q2.0077407343134155,31.49573473541882 2.0077407343134155,30.74648096202459 M2.0077407343134155,30.74648096202459 Q1.8996231732219826,28.354241473592694 3.301641156985113,27.04293009891228 M3.301641156985113,27.04293009891228 Q3.8443672952072268,26.53531681104506 4.483985776270067,26.278898966646576 M4.483985776270066,26.278898966646572 Q5.496686116878557,25.872915640572344 6.752276304804867,26.096629369211175 M64.39328369704636,2.26174892003442 Q65.40598403765486,1.8557655939601747 66.6615742255812,2.079479322599014 M6.752276304804866,26.096629369211172 Q8.585711439806119,26.423300136642027 9.87978737799915,27.902762833979494 M66.6615742255812,2.0794793225990134 Q68.49500936058246,2.4061500900298824 69.78908529877543,3.8856127873673643 M11.60492943638775,31.457582491855206 L71.51422735716406,7.440432445243054 M9.87978737799915,27.902762833979494 Q11.173863316192126,29.382225531316976 11.60492943638775,31.457582491855206 M69.78908529877543,3.8856127873673643 Q71.08316123696846,5.365075484704818 71.51422735716403,7.440432445243033 M11.60492943638775,31.457582491855206 L29.7216415400475,103.62417735365989 M71.51422735716403,7.440432445243033 L75.84079316355634,24.674990234002983 M29.72164154004753,103.62417735365989 L47.946120173756185,38.18225941558343 M47.946120173756185,38.18225941558343 Q48.48530385504307,36.15537456776947 50.0489716338796,35.12248075411122 M50.0489716338796,35.12248075411122 Q50.463962185693326,34.848355278421 50.905519546156754,34.671338525621465 M50.90551954615676,34.671338525621465 Q52.12773263551961,34.18136324340436 53.553490046723816,34.43539637432721 M110.81481746693309,10.654188479009315 Q112.03703055629593,10.164213196792224 113.4627879675001,10.418246327715082 M53.55349004672382,34.43539637432721 Q55.49469171177395,34.78126835286305 57.058359490610485,36.37137255653505 M113.4627879675001,10.418246327715082 Q115.40398963255024,10.764118306250936 116.96765741138677,12.35422250992292 M59.16121095073396,40.18049880839389 L119.07050887151027,16.16334876178174 M57.058359490610485,36.37137255653505 Q58.62202726944696,37.961476760207034 59.16121095073396,40.18049880839389 M116.96765741138677,12.35422250992292 Q118.53132519022327,13.944326713594876 119.07050887151027,16.16334876178172 M59.16121095073396,40.18049880839389 L77.38533855340012,112.11661659227732 M119.07050887151027,16.16334876178172 L123.31175403989157,32.904820212978535 M77.38533855340012,112.11661659227732 L95.50205065705987,46.40588169873125 M95.5020506570599,46.40588169873125 Q96.04123433834684,44.50339818279933 97.33531027653987,43.48507727528916 M97.33531027653987,43.48507727528916 Q97.76666892260421,43.14563697278575 98.24594330597041,42.953499772412854 M98.24594330597044,42.953499772412854 Q99.20449207270285,42.56922537166705 100.35470378864272,42.774163379443266 M158.1552412267467,18.936349725800703 Q159.11378999347914,18.552075325054904 160.26400170941903,18.75701333283112 M100.35470378864272,42.774163379443266 Q102.51143851379067,43.158437780189075 103.91328098203263,44.96932463923744 M160.26400170941903,18.75701333283112 Q162.42073643456698,19.141287733576902 163.8225789028089,20.952174592625298 M105.09959039017673,49.11478480874125 L165.00888831095304,25.097634762129097 M103.91328098203263,44.96932463923744 Q105.31512345027454,46.78021149828585 105.09959039017673,49.11478480874125 M163.8225789028089,20.952174592625298 Q165.22442137105082,22.763061451673693 165.00888831095304,25.097634762129104 M104.77593976898754,51.18047861906541 L164.68523768976385,27.16332857245326 M105.09959039017673,49.11478480874125 Q105.09959039017673,49.86403858213548 104.77593976898754,51.18047861906541 M165.00888831095304,25.097634762129104 Q165.00888831095304,25.846888535523334 164.68523768976385,27.163328572453253 M83.64000966874619,122.59772589048349 L113.46310278722642,110.64189053371113 M104.77593976898754,51.18047861906541 L83.64000966874616,122.5977258904835 M164.68523768976385,27.163328572453253 L155.21348120073756,59.16791848466746 M146.76093310186033,87.72865438737449 L145.90518573520714,90.62018180047077 M83.64000966874619,122.59772589048349 Q82.77717536627,125.31660487401545 81.05185779236012,126.38289753695729 M81.05185779236012,126.38289753695729 Q80.63782650476689,126.63878000802524 80.20515698680644,126.81223369708687 M80.20515698680644,126.81223369708687 Q78.83484121017322,127.36158214149965 77.27757202335124,127.08411701025831 M77.27757202335124,127.08411701025831 Q75.1208372982033,126.69984260951252 73.34163645926901,124.75931630317476 M73.34163645926901,124.75931630317476 Q71.56243562033472,122.818789996837 70.91513437795629,120.33048190821866 M70.91513437795629,120.33048190821866 L53.55349004672382,53.54360356753192 M53.55349004672382,53.54360356753193 L36.191845715491354,114.14368907407601 M36.191845715491354,114.14368907407601 Q35.54489550415548,116.40139499544992 33.765519149699855,117.70787479502327 M33.765519149699855,117.70787479502327 Q33.19255289475599,118.12856648065063 32.58045964907483,118.37394968216107 M32.58045964907483,118.37394968216108 Q31.29166564583121,118.89061671097534 29.829408070096406,118.63008019385083 M130.54898994071402,137.20015311882366 Q125.91186986922895,136.37393813935557 121.86799225957654,133.40545904762433 M121.86799225957654,133.40545904762433 Q117.82411464992416,130.43697995589312 115.39778808413269,125.82076175484418 M115.39778808413269,125.82076175484418 Q112.9714615183413,121.20454355379525 112.9714615183413,115.33491469852336 M112.9714615183413,115.33491469852336 Q112.9714615183413,106.4678642093742 119.06430732309272,101.87103485341498 M119.06430732309272,101.87103485341498 Q120.45175854438098,100.8242536433923 122.17751067234644,100.1324136579627 M122.17751067234644,100.1324136579627 Q128.0302171248219,97.78611126540652 137.77391085754263,99.52218572395401 M137.77391085754263,99.52218572395401 L150.82208573847922,101.84703333953375 M150.82208573847925,101.84703333953377 L150.82208573847925,100.84775728147459 M150.82208573847925,100.84775728147459 Q150.82208573847925,92.48034482135502 147.26350854508937,88.28683471559262 M147.26350854508937,88.28683471559262 Q143.70493135169949,84.09332460983022 136.372243904822,82.78682917409148 M136.372243904822,82.78682917409148 Q131.84289036338578,81.97981540572835 128.44613848059052,82.31127083977009 M128.44613848059052,82.31127083977009 Q125.04938659779529,82.64272627381179 122.02981757017113,83.22880102514455 M122.02981757017113,83.22880102514455 Q121.16698326769497,83.32468199134627 120.627799586408,83.2286133911598 M120.627799586408,83.2286133911598 Q119.01024854254703,82.94040759060046 117.82411464992416,81.35536950451643 M117.82411464992416,81.35536950451643 Q116.63798075730125,79.77033141843239 116.63798075730125,77.77218584261433 M119.44166569378513,73.52577858932088 L179.35096361456144,49.50862854270873 M116.63798075730125,77.77218584261433 Q116.63798075730125,74.63252271852659 119.06825522733807,73.65824545895146 M119.06825522733807,73.65824545895146 Q119.24829183515453,73.58607024785937 119.44166569378513,73.5257785893209 M178.63081718329545,49.797329387077156 Q178.79751654029783,49.71327062343143 178.97755314811437,49.64109541233931 M178.97755314811434,49.64109541233931 Q179.15758975593081,49.56892020124722 179.3509636145614,49.508628542708735 M119.44166569378513,73.52577858932088 Q123.21595146279401,72.32492108699027 127.7990127537334,71.83020845006008 M179.3509636145614,49.508628542708735 Q183.1252493835703,48.30777104037813 187.7083106745097,47.81305840344794 M127.7990127537334,71.83020845006008 Q132.38207404467278,71.3354958131299 138.09756147873185,72.35384799297088 M187.7083106745097,47.81305840344794 Q192.2913719654491,47.31834576651775 198.00685939950816,48.336697946358754 M138.09756147873185,72.35384799297088 Q145.96943260689636,73.7564120288961 150.93002778404937,78.26212944909906 M198.00685939950816,48.336697946358754 Q205.87873052767267,49.73926198228392 210.83932570482565,54.24497940248692 M150.93002778404937,78.26212944909906 Q155.8906229612024,82.76784686930202 158.26306626196939,88.8105680754958 M210.83932570482565,54.24497940248692 Q213.24516858979905,56.430210772912346 215.04223661617485,58.97697010118971 M158.26306626196939,88.8105680754958 Q160.6355095627364,94.85328928168957 160.6355095627364,100.97253388132613 M160.6355095627364,100.97253388132613 L160.6355095627364,136.31633450604068 M160.6355095627364,136.31633450604068 Q160.6355095627364,138.68931023870599 159.17960831394876,140.05342494392505 M159.17960831394876,140.05342494392505 Q158.60192704027335,140.5946865995535 157.93087380947912,140.86370637933064 M157.93087380947912,140.8637063793306 Q156.91070511351717,141.27268370829506 155.67473887006204,141.05246645950328 M155.67473887006207,141.0524664595033 Q153.62612170600556,140.68745581452407 152.2241037222424,138.81413374705372 M152.2241037222424,138.81413374705372 Q150.82208573847925,136.94081167958336 150.82208573847925,134.56783594691802 M150.82208573847925,134.56783594691802 L150.82208573847925,131.3207985686761 M150.82208573847925,131.32079856867614 Q147.9106342719465,134.2987062681405 143.05798114036358,136.4315105003397 M143.05798114036358,136.4315105003397 Q142.86116830495604,136.51801230397703 142.65974359434856,136.59876183144024 M142.65974359434853,136.59876183144027 Q137.89480393810123,138.50898736668992 130.54898994071402,137.20015311882366 M134.21550917967403,127.8622976896332 Q138.7963575730311,128.6784865100473 142.84869065469684,127.05393915197412 M142.8486906546968,127.0539391519741 Q143.2798018621659,126.88111017690828 143.70493135169949,126.68065703457296 M143.70493135169949,126.68065703457296 Q148.1261673320443,124.59599655562472 150.82208573847925,121.45447202146781 M150.82208573847925,121.45447202146781 L150.82208573847925,110.96369957304756 M150.82208573847925,110.96369957304756 L139.06816231125694,108.86945412471225 M139.0681623112569,108.86945412471225 Q131.5195907732391,107.52449372210197 127.15206254239749,108.99427763305998 M127.15206254239749,108.99427763305998 Q126.93480931277284,109.0673888494343 126.72836287437832,109.15015154670488 M126.72836287437832,109.15015154670486 Q122.78453431155592,110.73120032608928 122.78453431155592,115.83445891056056 M122.78453431155592,115.83445891056056 Q122.78453431155592,119.83075006219671 125.21086087734736,123.26048039691298 M125.21086087734736,123.26048039691298 Q127.6371874431388,126.69021073162925 134.21550917967403,127.8622976896332 M196.11351496658608,148.88205737469886 Q194.17231330153595,148.53618539616303 191.53045367564673,147.62844345032576 M191.53045367564673,147.62844345032576 Q188.8885940497575,146.72070150448852 186.3543254383959,144.70804556718394 M186.3543254383959,144.70804556718394 Q183.82005682703428,142.69538962987937 182.09473925312443,139.0159340976407 M182.09473925312443,139.0159340976407 Q180.3694216792146,135.336478565402 180.3694216792146,129.59165758231242 M180.3694216792146,129.59165758231242 L180.3694216792146,90.87601170717363 M180.3694216792146,90.87601170717365 L172.7130836111479,89.51185009345839 M172.71308361114785,89.51185009345839 Q170.66411541604882,89.14677690381757 170.66411541604882,86.77380117115224 M170.66411541604882,86.77380117115224 Q170.66411541604882,85.5249093687284 171.6347162485739,84.8233771721195 M171.6347162485739,84.8233771721195 L186.30044217337144,70.8264135402018 M186.30044217337147,70.82641354020178 Q186.51597523346922,70.6147936777468 187.00127564973178,70.26423084959247 M187.00127564973178,70.26423084959247 Q187.14395638885512,70.16116363235116 187.30060996300827,70.09836248918388 M187.30060996300824,70.09836248918387 Q187.67678264986725,69.9475579199887 188.1335262773302,70.02893783272958 M246.91057357050806,46.24708080298032 Q247.0532543096314,46.14401358573902 247.20990788378455,46.08121244257173 M247.20990788378458,46.08121244257173 Q247.58608057064353,45.93040787337654 248.04282419810647,46.011787786117424 M188.1335262773302,70.02893783272957 Q188.99636057980638,70.18267261089252 189.58942752611782,71.0375955900257 M248.04282419810647,46.011787786117424 Q248.90565850058266,46.16552256428038 249.49872544689413,47.02044554341357 M189.58942752611782,71.0375955900257 Q190.18249447242923,71.89251856915888 190.18249447242923,72.89179462721805 M249.49872544689413,47.02044554341357 Q250.09179239320554,47.87536852254672 250.09179239320554,48.87464458060589 M190.18249447242923,82.8829290466087 L250.09179239320554,58.86577899999654 M190.18249447242923,72.89179462721805 L190.18249447242923,82.8829290466087 M250.09179239320554,48.87464458060589 L250.09179239320554,58.865778999996536 M190.18249447242923,82.8829290466087 L202.36818608193212,85.05410442868707 M250.09179239320554,58.86577899999655 L262.27748400270843,61.03695438207492 M202.36818608193215,85.05410442868708 Q204.2012701858909,85.38071265145638 205.38740407851378,86.9657507375404 M262.2774840027085,61.036954382074924 Q264.1105681066672,61.36356260484422 265.2967019992901,62.948600690928245 M205.38740407851378,86.9657507375404 Q206.57353797113663,88.55078882362443 206.57353797113663,90.67414881192511 M265.2967019992901,62.948600690928245 Q266.48283589191294,64.53363877701229 266.48283589191294,66.65699876531296 M206.57353797113663,90.67414881192511 Q206.57353797113663,92.6722943877432 205.38740407851378,93.89726285711276 M266.48283589191294,66.65699876531296 Q266.48283589191294,68.65514434113103 265.2967019992901,69.88011281050062 M205.38740407851378,93.89726285711276 Q204.89652118906486,94.40421748126427 204.29483333575996,94.64542924564111 M204.29483333575996,94.6454292456411 Q203.44264619988846,94.98706413405331 202.36818608193215,94.79562310371307 M265.2967019992901,69.88011281050062 Q264.8058191098412,70.38706743465212 264.2041312565363,70.62827919902895 M202.36818608193215,94.79562310371307 L190.18249447242925,92.6244477216347 M190.18249447242923,92.6244477216347 L190.18249447242923,130.3408175387143 M250.09179239320554,76.28580101538306 L250.09179239320554,82.84503184744999 M190.18249447242923,130.3408175387143 Q190.18249447242923,133.96268507380347 191.3686283650521,135.79754217440228 M191.3686283650521,135.79754217440228 Q192.55476225767498,137.63239927500112 194.22637208208164,138.2424599040497 M194.22637208208164,138.2424599040497 Q195.89798190648833,138.85252053309827 197.19188232916008,139.08306015568112 M197.19188232916008,139.08306015568112 Q199.78003420554612,139.5442019455084 201.02005136319343,139.20309899741798 M201.02005136319343,139.20309899741798 Q202.26006852084075,138.8619960493276 203.6620865046039,139.111799427677 M203.6620865046039,139.111799427677 Q205.17187101841597,139.38080401713137 206.35800491103885,140.84103423103306 M206.35800491103885,140.84103423103306 Q207.54413880366172,142.3012644449348 207.54413880366172,144.29941002075284 M205.06410448836706,148.22865329517555 L220.49204152376115,142.04371887683638 M207.54413880366172,144.29941002075284 Q207.54413880366172,147.17202378244775 205.06410448836706,148.22865329517555 M205.06410448836706,148.22865329517555 Q203.12290282331693,148.8820573746989 200.91228483314453,149.11262826961251 M200.91228483314453,149.11262826961251 Q198.70166684297214,149.34319916452614 196.11351496658608,148.88205737469886 M242.91437767746254,157.22076183515335 Q229.75843626647708,154.87671300846864 222.37169003905387,144.88074701397093 M222.37169003905387,144.88074701397093 Q214.98494381163064,134.88478101947325 214.98494381163064,119.14882561699304 M214.98494381163064,119.14882561699304 Q214.98494381163064,110.65619874439088 217.68086221806556,103.58078699468896 M217.68086221806556,103.58078699468896 Q220.3767806245005,96.50537524498706 226.09209254303832,92.77794795731671 M226.09209254303832,92.77794795731671 Q227.33221650036435,91.96916062523118 228.7246456633784,91.41094710415787 M228.7246456633784,91.41094710415788 Q233.74945160342065,89.39654329030094 240.7576429523146,90.64522190594448 M288.6339435841547,67.39379705754575 Q293.65874952419693,65.37939324368881 300.6669408730909,66.62807185933234 M240.7576429523146,90.64522190594448 Q249.06128226275968,92.12471587561274 254.7765941812975,97.57656202769752 M300.6669408730909,66.62807185933234 Q308.970580183536,68.10756582900059 314.6858921020738,73.55941198108538 M254.7765941812975,97.57656202769752 Q260.4919060998353,103.02840817978229 263.4574163469137,110.67550940865362 M314.6858921020738,73.55941198108538 Q319.0809627247035,77.75187762489485 321.8499110206121,83.24252899979231 M263.4574163469137,110.67550940865362 Q266.42292659399214,118.32261063752495 266.42292659399214,126.69002309764451 M266.42292659399214,126.69002309764451 Q266.42292659399214,129.06299883030985 265.0749673907747,130.44634601896468 M265.0749673907747,130.44634601896468 Q264.5475106238618,130.9876501132609 263.8797167122748,131.25536325848935 M263.8797167122748,131.25536325848935 Q262.84090829085017,131.6718131017179 261.4625069323604,131.42621759576875 M261.4625069323604,131.42621759576875 L224.9057831348942,124.91275399419521 M224.9057831348942,124.91275399419521 Q225.76861743737035,133.434307772778 230.4055619933342,139.31846262570178 M230.4055619933342,139.31846262570178 Q235.04250654929803,145.20261747862557 243.77721197993873,146.75891629271374 M243.77721197993873,146.75891629271374 Q248.6298651115216,147.62353369439177 251.97273372929243,147.15766978261524 M258.3351713746874,145.481285218294 L279.36333494487985,137.05126555193314 M251.97273372929243,147.15766978261524 Q255.31560234706325,146.6918058708387 258.3351713746874,145.481285218294 M258.3351713746874,145.481285218294 Q259.19800567716356,145.13538196742738 260.2763730397375,145.32751916780026 M260.2763730397375,145.32751916780026 Q262.0016906136474,145.6349261794646 263.2957665518404,147.2391967489844 M263.2957665518404,147.2391967489844 Q264.5898424900334,148.8434673185042 264.5898424900334,150.96682730680487 M264.5898424900334,150.96682730680487 Q264.5898424900334,152.46533485359336 263.7810669681029,153.50771981964635 M261.7858065225071,155.08795760295413 L279.36333494487985,148.0412694890827 M263.7810669681029,153.50771981964635 Q262.97229144617245,154.55010478569935 261.7858065225071,155.08795760295413 M261.7858065225071,155.08795760295413 Q260.8236702961223,155.55814535663205 259.81815063904884,155.96125000510727 M259.81815063904884,155.96125000510727 Q257.1048176672126,157.0490031147696 254.0755851894159,157.6482858693815 M254.0755851894159,157.6482858693815 Q249.92376553419336,158.46965363757718 242.91437767746254,157.22076183515335 M224.9057831348942,115.67127988849909 L250.2616704908623,105.50631097167773 M224.9057831348942,115.67127988849909 L256.71762033082643,121.33932729949956 M256.7176203308264,121.33932729949954 Q256.39396970963725,114.78717982473896 253.85987661379687,110.33917549100869 M253.85987661379687,110.33917549100869 Q251.32578351795655,105.89117115727841 247.7672063245667,103.38378694687825 M247.7672063245667,103.38378694687825 Q244.20862913117682,100.8764027364781 240.7576429523146,100.26152616848788 M240.7576429523146,100.26152616848788 Q237.30700780449487,99.64671214515924 233.74843061110502,100.88600334203058 M233.74843061110502,100.88600334203058 Q233.50583026459998,100.97049005046566 233.2682417533494,101.06573735133708 M233.2682417533494,101.06573735133709 Q230.02076905290812,102.36762273183203 227.70964358689926,105.67987965429671 M227.70964358689926,105.67987965429671 Q225.22943375608338,109.23446476969148 224.9057831348942,115.67127988849909 M284.21598807646274,163.95519572608802 Q282.1670198813637,163.5901225364472 280.76517741312176,161.71683174130763 M280.76517741312176,161.71683174130763 Q279.36333494487985,159.84354094616808 279.36333494487985,157.47056521350274 M279.36333494487985,157.47056521350274 L279.36333494487985,103.89302558146032 M279.36333494487985,103.89302558146034 Q279.36333494487985,101.520049848795 280.76517741312176,100.08389932960148 M280.76517741312176,100.08389932960148 Q281.3598628419429,99.47465984177987 282.07100506619673,99.1895687107342 M282.07100506619673,99.18956871073422 Q283.0362270550282,98.8026190695498 284.2159880764628,99.0128220000488 M341.980302986973,75.17241866412206 Q342.94552497580446,74.78546902293766 344.1252859972391,74.99567195343666 M284.21598807646274,99.0128220000488 Q286.2649562715618,99.37789518968961 287.7206820048281,101.32319052647281 M344.125285997239,74.99567195343666 Q345.61310224117494,75.26076236483118 346.78812306457604,76.35904709870695 M287.7206820048281,101.32319052647281 Q289.1764077380945,103.26848586325603 289.1764077380945,105.64146159592137 M289.1764077380945,105.64146159592137 L289.1764077380945,111.01185896246395 M289.1764077380945,111.01185896246395 Q292.0878592046272,107.03467520494041 296.2935621248742,104.16215526023785 M296.2935621248742,104.16215526023785 Q297.41908080560785,103.3934193509614 298.6449854668245,102.9019641476269 M298.64498546682455,102.9019641476269 Q301.99989399145613,101.55700861943346 306.1066349180888,102.28872373960975 M306.10663491808884,102.28872373960974 L306.64581859937584,102.38479233979618 M306.64581859937584,102.38479233979619 Q308.6947867944749,102.74986552943702 310.04274599769235,104.61355571902408 M310.04274599769235,104.61355571902408 Q311.39070520090985,106.47724590861117 311.39070520090985,108.85022164127649 M311.39070520090985,108.85022164127649 Q311.39070520090985,111.22319737394183 309.98886273266794,112.47213608486183 M309.98886273266794,112.47213608486183 Q309.4914062700834,112.91533326799347 308.89889005044165,113.15286819906554 M308.89889005044165,113.15286819906552 Q307.8216834655981,113.58471155355784 306.4302855392781,113.33680039503606 M306.4302855392781,113.33680039503605 L305.8911018579911,113.24073179484961 M305.8911018579911,113.24073179484961 Q301.42676386802054,112.44530211783872 297.65524142175934,113.95727477717125 M297.6552414217594,113.95727477717126 Q296.96272245268574,114.23489999675506 296.2935621248742,114.59032050241679 M289.1764077380945,121.25260912621927 L314.33740949844486,111.16576825887137 M296.2935621248742,114.59032050241679 Q291.9800926745783,116.88139400074348 289.1764077380945,121.25260912621927 M289.1764077380945,121.25260912621927 L289.1764077380945,159.2190012279638 M289.1764077380945,159.2190012279638 Q289.1764077380945,161.59197696062913 287.7206820048281,162.956122938179 M287.7206820048281,162.956122938179 Q287.1430250020646,163.49743951912262 286.47195373557986,163.7664665292613 M286.47195373557986,163.76646652926132 Q285.4518904588946,164.17540159649553 284.21598807646274,163.95519572608802 M329.6151838346185,172.04415935285468 Q327.56656667056194,171.67914870787544 326.16454868679875,169.8058266404051 M326.16454868679875,169.8058266404051 Q324.7625307030356,167.93250457293473 324.7625307030356,165.5595288402694 M324.7625307030356,165.5595288402694 L324.7625307030356,116.6031328013753 M324.7625307030356,116.60313280137532 L318.4004440886832,115.4695733549045 M318.4004440886832,115.46957335490448 Q316.6747754837308,115.16210379857858 315.4347583260835,113.50485790070077 M315.4347583260835,113.50485790070077 Q314.19474116843617,111.84761200282296 314.19474116843617,109.84946642700487 M314.19474116843617,109.84946642700487 Q314.19474116843617,107.72610643870419 315.4347583260835,106.5733457811284 M315.4347583260835,106.5733457811284 Q315.9260284043236,106.11664498876695 316.49352567518025,105.88913995068033 M316.4935256751803,105.88913995068033 Q317.35845098397937,105.54239843239361 318.4004440886832,105.72805467987848 M318.4004440886832,105.7280546798785 L324.7625307030356,106.86161412634932 M324.7625307030356,106.86161412634932 L324.7625307030356,99.61787905617099 M324.7625307030356,99.61787905617099 Q324.7625307030356,91.75010462508102 327.18885726882706,87.43666513073951 M327.18885726882706,87.43666513073951 Q329.5278024919359,83.2785691667825 333.11936483634196,81.83874104792471 M333.1193648363419,81.83874104792471 Q333.2535430705655,81.7849500856504 333.38946960362733,81.73495305564376 M392.76205458750934,57.93296685812889 Q392.8944845228947,57.87538196358688 393.02866275711824,57.82159100131257 M393.02866275711824,57.821591001312584 Q393.16284099134185,57.76780003903824 393.29876752440373,57.71780300903161 M333.3894696036274,81.73495305564376 Q337.1637553726363,80.34668047488951 340.9380411416452,81.01916067619464 M393.29876752440373,57.71780300903161 Q397.0730532934126,56.329530428277366 400.8473390624215,57.0020106295825 M340.9380411416452,81.01916067619464 Q343.63395954808016,81.49950367712688 346.00640284884713,82.60906160971652 M400.8473390624215,57.0020106295825 Q403.54325746885644,57.48235363051475 405.91570076962347,58.59191156310436 M350.3200478146643,85.18857545108347 L410.2293457354406,61.171425404471314 M346.00640284884713,82.60906160971652 Q348.3788461496141,83.71861954230613 350.3200478146643,85.18857545108347 M405.91570076962347,58.59191156310436 Q408.28814407039044,59.70146949569397 410.2293457354406,61.17142540447132 M350.3200478146643,85.18857545108347 Q351.29064864718936,85.86114946938098 352.04536538857417,87.18210835811007 M410.2293457354406,61.17142540447132 Q411.19994656796564,61.84399942276883 411.95466330935045,63.16495831149791 M352.04536538857417,87.18210835811007 Q352.8000821299589,88.50306724683912 352.8000821299589,90.0015747936276 M411.95466330935045,63.16495831149791 Q412.7093800507352,64.48591720022698 412.7093800507352,65.98442474701545 M352.8000821299589,90.0015747936276 Q352.8000821299589,91.75010462508104 351.6678315023605,93.04707763609426 M412.7093800507352,65.98442474701545 Q412.7093800507352,67.73295457846888 411.5771294231368,69.02992758948211 M351.6678315023605,93.04707763609426 Q351.1496511461713,93.64064404306556 350.5072539518895,93.89817585098278 M350.50725395188954,93.89817585098278 Q349.7459803630058,94.20336423818306 348.8102633008522,94.03664363544317 M411.5771294231368,69.02992758948211 Q411.0589490669476,69.6234939964534 410.4165518726658,69.88102580437062 M348.8102633008522,94.03664363544317 Q347.5163628781805,93.80610401286033 346.22228693998744,93.20070296109944 M346.22228693998744,93.20070296109944 Q344.9282110017944,92.59530190933856 343.41842648798234,92.32629731988419 M343.41842648798234,92.32629731988419 Q340.4361641697115,91.7949352326244 338.3274383742329,92.64030624505297 M338.3274383742328,92.64030624505297 Q337.61500593937114,92.92591461103271 337.0022810930842,93.36866664977178 M337.0022810930842,93.36866664977178 Q334.57595452729277,95.12191860317446 334.57595452729277,101.74120777214088 M394.51786295694865,76.25468082096145 Q394.4852524480691,76.95666882144619 394.4852524480691,77.72405772552872 M334.57595452729277,108.61011268547196 L394.4852524480691,84.5929626388598 M334.57595452729277,101.74120777214088 L334.57595452729277,108.61011268547196 M394.4852524480691,77.72405772552872 L394.4852524480691,84.5929626388598 M334.57595452729277,108.61011268547196 L348.0555465594674,111.01182769013317 M394.4852524480691,84.5929626388598 L407.96484448024376,86.99467764352102 M348.0555465594674,111.01182769013317 Q349.88863066342617,111.33843591290247 351.07476455604905,112.9234739989865 M407.96484448024376,86.99467764352102 Q409.7979285842025,87.32128586629031 410.9840624768254,88.90632395237435 M351.07476455604905,112.9234739989865 Q352.2608984486719,114.50851208507052 352.2608984486719,116.6318720733712 M410.9840624768254,88.90632395237435 Q412.17019636944826,90.49136203845838 412.17019636944826,92.61472202675904 M352.2608984486719,116.6318720733712 Q352.2608984486719,118.63001764918928 351.07476455604905,119.85498611855886 M412.17019636944826,92.61472202675904 Q412.17019636944826,94.61286760257713 410.9840624768254,95.83783607194671 M351.07476455604905,119.85498611855886 Q350.5838816666001,120.36194074271036 349.9821938132952,120.6031525070872 M349.98219381329517,120.60315250708717 Q349.13000667742375,120.9447873954994 348.0555465594675,120.75334636515916 M410.9840624768254,95.83783607194671 Q410.49317958737646,96.3447906960982 409.89149173407156,96.58600246047503 M348.0555465594674,120.75334636515916 L334.57595452729277,118.35163136049795 M334.57595452729277,118.35163136049795 L334.57595452729277,167.30802739939205 M394.4852524480691,102.76223842764054 L394.4852524480691,105.30705163300718 M334.57595452729277,167.30802739939202 Q334.57595452729277,169.68100313205736 333.17393654352963,171.05471844282891 M333.17393654352963,171.05471844282891 Q332.62167672216566,171.59582974162646 331.95231506294533,171.86417138412415 M331.9523150629454,171.86417138412415 Q330.9223731560458,172.27706671382757 329.61518383461845,172.04415935285468 M375.87721389525046,180.9113036589962 Q371.24009382376533,180.0850886795281 367.19621621411295,177.11660958779686 M367.19621621411295,177.11660958779686 Q363.15233860446057,174.14813049606565 360.7260120386691,169.5319122950167 M360.7260120386691,169.5319122950167 Q358.2996854728777,164.91569409396777 358.2996854728777,159.0460652386959 M358.2996854728777,159.0460652386959 Q358.2996854728777,150.17901474954672 364.39253127762913,145.5821853935875 M364.39253127762913,145.5821853935875 Q365.7799824989174,144.53540418356482 367.5057346268828,143.84356419813523 M367.5057346268829,143.84356419813523 Q373.35844107935833,141.49726180557906 383.10213481207904,143.23333626412654 M383.10213481207904,143.23333626412654 L396.15030969301563,145.55818387970626 M396.15030969301563,145.5581838797063 L396.15030969301563,144.55890782164713 M396.15030969301563,144.55890782164713 Q396.15030969301563,136.19149536152756 392.5917324996258,131.99798525576514 M392.5917324996258,131.99798525576514 Q389.0331553062359,127.80447515000274 381.7004678593584,126.49797971426399 M381.7004678593584,126.49797971426399 Q377.1711143179222,125.69096594590089 373.77436243512693,126.0224213799426 M373.77436243512693,126.0224213799426 Q370.3776105523317,126.35387681398431 367.3580415247076,126.93995156531707 M367.3580415247076,126.93995156531707 Q366.4952072222314,127.03583253151878 365.9560235409444,126.93976393133234 M365.9560235409444,126.93976393133234 Q364.33847249708344,126.65155813077298 363.15233860446057,125.06652004468896 M363.15233860446057,125.06652004468896 Q361.9662047118377,123.48148195860493 361.9662047118377,121.48333638278685 M364.7698896483215,117.2369291294934 L424.67918756909785,93.21977908288125 M361.9662047118377,121.48333638278685 Q361.9662047118377,118.34367325869911 364.39647918187444,117.36939599912398 M364.39647918187444,117.36939599912398 Q364.5765157896909,117.2972207880319 364.7698896483215,117.2369291294934 M423.95904113783195,93.50847992724962 Q424.1257404948343,93.42442116360394 424.3057771026508,93.35224595251185 M424.3057771026508,93.35224595251184 Q424.48581371046726,93.28007074141975 424.67918756909785,93.21977908288127 M364.7698896483215,117.2369291294934 Q368.54417541733045,116.0360716271628 373.12723670826983,115.54135899023262 M424.67918756909785,93.21977908288126 Q428.45347333810673,92.01892158055065 433.0365346290461,91.52420894362047 M373.12723670826983,115.54135899023262 Q377.7102979992092,115.04664635330244 383.4257854332683,116.06499853314341 M433.0365346290461,91.52420894362047 Q435.9584208748998,91.20880970330177 439.3405903639903,91.50840719837491 M383.4257854332683,116.06499853314341 Q391.29765656143275,117.46756256906862 396.2582517385858,121.97327998927159 M396.2582517385858,121.97327998927159 Q401.2188469157388,126.47899740947454 403.5912902165058,132.52171861566833 M403.5912902165058,132.52171861566833 Q405.96373351727283,138.5644398218621 405.96373351727283,144.68368442149867 M405.96373351727283,144.68368442149867 L405.96373351727283,180.0274850462132 M405.96373351727283,180.0274850462132 Q405.96373351727283,182.40046077887854 404.5078322684852,183.76457548409758 M404.5078322684852,183.76457548409758 Q403.93015099480976,184.30583713972604 403.25909776401556,184.57485691950316 M403.25909776401556,184.57485691950313 Q402.2389290680536,184.9838342484676 401.0029628245985,184.7636169996758 M401.0029628245985,184.76361699967583 Q398.954345660542,184.3986063546966 397.5523276767788,182.52528428722624 M397.5523276767788,182.52528428722624 Q396.15030969301563,180.6519622197559 396.15030969301563,178.27898648709055 M396.15030969301563,178.27898648709055 L396.15030969301563,175.03194910884864 M396.15030969301563,175.03194910884866 Q393.23885822648293,178.00985680831303 388.38620509490005,180.14266104051225 M388.38620509490005,180.14266104051225 Q388.18939225949254,180.22916284414958 387.987967548885,180.3099123716128 M387.987967548885,180.3099123716128 Q383.2230278926377,182.22013790686242 375.87721389525046,180.91130365899616 M379.54373313421047,171.5734482298057 Q384.1245815275675,172.38963705021982 388.1769146092333,170.76508969214663 M388.1769146092333,170.76508969214663 Q388.60802581670237,170.59226071708082 389.033155306236,170.39180757474548 M389.0331553062359,170.39180757474548 Q393.4543912865807,168.30714709579726 396.15030969301563,165.16562256164033 M396.15030969301563,165.16562256164033 L396.15030969301563,154.6748501132201 M396.15030969301563,154.6748501132201 L384.39638626579335,152.58060466488476 M384.39638626579335,152.5806046648848 Q376.8478147277755,151.2356442622745 372.48028649693396,152.70542817323252 M372.48028649693396,152.70542817323252 Q372.2630332673093,152.77853938960683 372.05658682891476,152.8613020868774 M372.0565868289148,152.8613020868774 Q368.1127582660923,154.44235086626182 368.1127582660923,159.54560945073308 M368.1127582660923,159.54560945073308 Q368.1127582660923,163.54190060236925 370.53908483188377,166.9716309370855 M370.53908483188377,166.9716309370855 Q372.9654113976752,170.4013612718018 379.54373313421047,171.5734482298057 M427.315196677612,189.45177719770686 Q425.26622848251293,189.08670400806602 423.864386014271,187.21341321292647 M423.864386014271,187.21341321292647 Q422.4625435460291,185.34012241778692 422.4625435460291,182.96714668512158 M422.4625435460291,182.96714668512158 L422.4625435460291,101.91398739975486 M422.4625435460291,101.91398739975486 Q422.4625435460291,99.41620379490719 423.864386014271,98.04245721180484 M423.864386014271,98.04245721180484 Q424.43386446368095,97.48439231382213 425.1101364150986,97.2132803914125 M425.1101364150986,97.2132803914125 Q426.0985925013449,96.81701638963335 427.31519667761194,97.03378381834332 M485.0194343358749,73.19613034480034 Q486.0078904221212,72.7998663430212 487.2244945983882,73.01663377173118 M427.315196677612,97.03378381834332 Q429.47193140275994,97.41805821908912 430.87377387100184,99.29134901422867 M487.2244945983883,73.01663377173118 Q489.3812293235362,73.40090817247697 490.7830717917781,75.27419896761653 M430.87377387100184,99.29134901422867 Q432.27561633924375,101.16463980936825 432.27561633924375,103.66242341421591 M490.7830717917781,75.27419896761653 Q492.18491426002004,77.1474897627561 492.18491426002004,79.64527336760375 M432.27561633924375,103.66242341421591 L432.27561633924375,184.71558269958263 M492.18491426002004,79.64527336760375 L492.18491426002004,85.8722913438687 M432.27561633924375,184.71558269958263 Q432.27561633924375,187.08855843224796 430.87377387100184,188.4623050153503 M430.87377387100184,188.4623050153503 Q430.32154127944335,189.00346969891322 429.65216183825265,189.27181847005812 M429.6521618382527,189.27181847005812 Q428.62232152607646,189.68467307126366 427.31519667761194,189.45177719770686 M454.1666142119124,194.2360059959243 Q452.11764601681335,193.8709328062835 450.71580354857144,191.9976420111439 M450.71580354857144,191.9976420111439 Q449.31396108032953,190.12435121600436 449.31396108032953,187.75137548333902 M449.31396108032953,187.75137548333902 L449.31396108032953,106.6982161979723 M449.31396108032953,106.6982161979723 Q449.31396108032953,104.20043259312465 450.71580354857144,102.82668601002231 M450.71580354857144,102.82668601002231 Q451.2852819979814,102.26862111203958 451.96155394939905,101.99750918962995 M451.96155394939905,101.99750918962994 Q452.95001003564533,101.60124518785081 454.16661421191236,101.8180126165608 M511.8708518701753,77.9803591430178 Q512.8593079564216,77.58409514123865 514.0759121326887,77.80086256994863 M454.1666142119124,101.8180126165608 Q456.32334893706036,102.20228701730657 457.72519140530227,104.07557781244614 M514.0759121326887,77.80086256994863 Q516.2326468578367,78.18513697069443 517.6344893260786,80.05842776583398 M457.72519140530227,104.07557781244614 Q459.1270338735442,105.9488686075857 459.1270338735442,108.44665221243335 M517.6344893260786,80.05842776583398 Q519.0363317943204,81.93171856097354 519.0363317943204,84.4295021658212 M459.1270338735442,108.44665221243335 L459.1270338735442,189.49981149780007 M519.0363317943204,84.4295021658212 L519.0363317943204,141.5167357429117 M459.1270338735442,189.49981149780007 Q459.1270338735442,191.8727872304654 457.72519140530227,193.24653381356774 M517.9648785701859,168.8680938425752 Q517.8107671765516,169.0566388970789 517.6344893260784,169.2293837669556 M457.72519140530227,193.24653381356774 Q457.1729588137438,193.78769849713066 456.5035793725531,194.05604726827556 M456.5035793725531,194.0560472682756 Q455.4737390603769,194.46890186948113 454.16661421191236,194.23600599592433 M517.6344893260786,169.2293837669556 Q517.0822567345201,169.77054845051853 516.4128772933294,170.03889722166343 M499.78169406120844,171.76558543017862 L479.40048070235184,168.13417983419853 M479.4004807023519,168.13417983419853 Q477.56704556735065,167.80750906676766 476.3270284097033,166.15026316888986 M476.3270284097033,166.15026316888986 Q475.08701125205596,164.49301727101204 475.08701125205596,162.37006382301163 M475.08701125205596,162.37006382301163 Q475.08701125205596,160.24711037501123 476.3270284097033,158.96933857510297 M476.3270284097033,158.96933857510297 Q476.8524640464821,158.42790506734684 477.4844474520667,158.17454806257996 M477.4844474520667,158.17454806257996 Q478.343931719055,157.82998781368076 479.4004807023519,158.0182375426256 M479.4004807023519,158.01823754262557 L499.7816940612085,161.64964313860565 M499.78169406120844,161.64964313860563 Q501.6147781651672,161.97625136137492 502.9088541033602,163.7055330732272 M502.9088541033602,163.7055330732272 Q504.20293004155326,165.43481478507945 504.20293004155326,167.55776823307986 M504.20293004155326,167.55776823307986 Q504.20293004155326,169.68072168108026 502.9088541033602,170.8864576670141 M502.9088541033602,170.8864576670141 Q502.40041608288436,171.36018722168052 501.80877259610395,171.59737228125002 M501.80877259610395,171.59737228125002 Q500.89456567556323,171.96387039667297 499.78169406120844,171.76558543017862 M555.3176132337682,212.8829463099786 Q544.6417061380773,210.98077551735463 536.06865050251,204.0206804874403 M536.06865050251,204.0206804874403 Q527.4955948669426,197.060585457526 522.5351752053108,186.12302521911104 M522.5351752053108,186.12302521911104 Q517.574755543679,175.18546498069608 517.574755543679,161.32284728185158 M517.574755543679,161.32284728185158 Q517.574755543679,147.3354217108248 522.5351752053108,138.22810590421716 M522.5351752053108,138.22810590421716 Q527.4955948669426,129.12079009760953 536.06865050251,125.21548579240645 M536.06865050251,125.21548579240645 Q536.6725049141296,124.94041056442937 537.2867921477826,124.69414781099377 M537.2867921477826,124.69414781099377 Q545.3936776487985,121.4441633804288 555.3176132337683,123.21235227982741 M597.1960900685589,100.67699776438164 Q605.3029755695748,97.42701333381666 615.2269111545445,99.19520223321527 M555.3176132337682,123.21235227982741 Q563.297601923024,124.63418007151917 569.1206803716107,127.91987005061732 M615.2269111545445,99.19520223321527 Q623.2068998438003,100.61703002490702 629.029978292387,103.90272000400518 M579.9045295128717,135.336478565402 L639.813827433648,111.31932851878983 M569.1206803716107,127.91987005061732 Q574.9437588201974,131.2055600297155 579.9045295128717,135.336478565402 M629.029978292387,103.90272000400518 Q634.8530567409737,107.18840998310336 639.8138274336479,111.31932851878986 M579.9045295128717,135.336478565402 Q580.9828968754457,136.15306166698682 581.5759638217571,137.32020759672596 M639.8138274336479,111.31932851878986 Q640.8921947962219,112.13591162037467 641.4852617425333,113.3030575501138 M582.2767972981175,140.2550845690235 L642.1860952188938,116.23793452241134 M581.5759638217571,137.32020759672596 Q582.1690307680685,138.48735352646509 582.2767972981175,140.2550845690235 M641.4852617425333,113.3030575501138 Q642.0783286888447,114.47020347985296 642.1860952188938,116.23793452241134 M582.2767972981175,140.2550845690235 Q582.3845638281663,142.27243135594654 581.1984299355435,143.5598037614073 M642.1860952188938,116.23793452241134 Q642.2938617489426,118.25528130933439 641.1077278563198,119.54265371479515 M581.1984299355435,143.5598037614073 Q580.7165441897255,144.0828192621102 580.0922459370609,144.33309535160654 M580.092245937061,144.33309535160652 Q579.1798701481769,144.69885938124852 577.9633278478216,144.4821029772272 M641.1077278563198,119.54265371479515 Q640.6258421105018,120.06566921549805 640.0015438578372,120.31594530499439 M577.9633278478216,144.4821029772272 Q576.8849604852476,144.28996577685433 576.0221261827713,143.6365929696618 M576.0221261827713,143.6365929696618 Q571.7086567324754,140.2454526911402 567.1796542220818,137.81498277831773 M567.1796542220818,137.81498277831773 Q562.6506517116882,135.38451286549522 556.2882140662932,134.25089087436282 M556.2882140662932,134.25089087436282 Q547.9370900828382,132.7629363629076 541.924389553344,135.17337907904772 M541.924389553344,135.17337907904775 Q541.1045769413844,135.5020352842594 540.3282366877813,135.90316447164503 M540.3282366877813,135.90316447164506 Q533.8580325123376,139.2462704500734 530.6229304246156,146.35062474192134 M530.6229304246156,146.35062474192134 Q527.3878283368937,153.45497903376926 527.3878283368937,163.07128329631263 M527.3878283368937,163.07128329631263 Q527.3878283368937,172.6879940991563 530.6229304246156,180.94496832309147 M587.3471453443693,141.4246652132861 Q587.699390911607,149.69754700926504 590.5322283453919,156.92781827647934 M530.6229304246156,180.94496832309147 Q533.8580325123376,189.20194254702665 540.3282366877813,194.85089820007994 M590.5322283453919,156.92781827647934 Q593.7673304331138,165.18479250041452 600.2375346085577,170.83374815346778 M540.3282366877813,194.85089820007994 Q546.7984408632252,200.49985385313317 556.2882140662932,202.1906862342793 M600.2375346085577,170.83374815346778 Q603.0792383201282,173.31476077849476 606.503402667453,175.03227007696816 M556.2882140662932,202.1906862342793 Q562.6506517116882,203.32430822541173 567.1796542220818,202.50753748984215 M576.0221261827713,199.8367240787342 L600.6636836082326,189.95812421845653 M567.1796542220818,202.50753748984215 Q571.2056162944542,201.78148622454026 575.0612652367861,200.23578793748135 M575.0612652367861,200.23578793748138 Q575.5430251982414,200.04265428907797 576.0221261827713,199.83672407873416 M576.0221261827713,199.8367240787342 Q576.8849604852476,199.49082082786757 577.9633278478216,199.68295802824048 M577.9633278478216,199.68295802824048 Q580.0122960429205,200.0480312178813 581.1984299355435,201.75808044629778 M582.2767972981175,205.44707403942738 L596.8967735802092,199.58604451260433 M581.1984299355435,201.75808044629778 Q582.3845638281663,203.46812967471428 582.2767972981175,205.44707403942738 M582.2767972981175,205.44707403942738 Q582.1690307680685,207.17640265977582 581.5759638217571,208.13241344818724 M579.9045295128717,209.52073293743763 L595.4477733836324,203.2895729470669 M581.5759638217571,208.13241344818724 Q580.9828968754457,209.08842423659863 579.9045295128717,209.52073293743763 M579.9045295128717,209.52073293743763 Q578.6649256851696,210.11124148504786 577.3714787887111,210.62977382089076 M577.3714787887111,210.62977382089076 Q573.4886804097929,212.1863560961586 569.1206803716107,213.09433162995265 M569.1206803716107,213.09433162995265 Q563.297601923024,214.30477410167038 555.3176132337682,212.8829463099786 M596.8347566928661,219.65578262312323 Q594.5702554376693,219.25230701127248 593.2761794994763,217.39821742723788 M593.2761794994763,217.39821742723788 Q591.9821035612832,215.54412784320328 591.9821035612832,213.17115211053795 M591.9821035612832,213.17115211053795 Q591.9821035612832,212.17187605247878 592.5212872425702,210.76943710587676 M592.5212872425702,210.76943710587676 L620.0196549882065,140.4858118255911 M620.0196549882065,140.48581182559107 Q620.7743717295913,138.62173073186912 622.3380395084278,137.3392211738462 M622.3380395084278,137.3392211738462 Q622.8431835237152,136.92490552665276 623.432751103758,136.68855268120245 M623.4327511037579,136.68855268120245 Q624.668183524626,136.19327787655234 626.2743261035525,136.47945098344056 M683.3420490245343,112.6714026345903 Q684.5774814454022,112.17612782994021 686.1836240243289,112.46230093682843 M626.2743261035525,136.47945098344059 L627.3526934661265,136.67158818381347 M686.1836240243289,112.46230093682844 L687.2619913869029,112.65443813720134 M627.3526934661265,136.6715881838135 Q629.8327277814212,137.11346621787422 631.3425122952333,138.94358556035834 M687.2619913869029,112.65443813720135 Q689.7420257021975,113.09631617126206 691.2518102160095,114.9264355137462 M633.6070135504301,142.90672804135727 L693.5163114712064,118.88957799474511 M631.3425122952333,138.94358556035834 Q632.8522968090454,140.77370490284252 633.6070135504301,142.90672804135727 M691.2518102160095,114.9264355137462 Q692.7615947298216,116.75655485623038 693.5163114712063,118.88957799474511 M661.1053812960664,222.98935054066067 L677.4964247947737,216.41831457810304 M633.6070135504301,142.90672804135727 L661.1053812960664,222.98935054066072 M693.5163114712063,118.88957799474511 L700.4720811824101,139.1466450733105 M661.1053812960664,222.98935054066067 Q661.6445649773534,224.5839266876356 661.6445649773534,225.5832027456948 M661.6445649773534,225.5832027456948 Q661.6445649773534,227.95617847836013 660.3504890391604,229.34912627256745 M660.3504890391604,229.34912627256745 Q659.8328707001194,229.90629243440426 659.1599915310361,230.17604421798356 M659.1599915310362,230.1760442179836 Q658.1506336610777,230.58068757477233 656.7919118457705,230.338598454924 M656.7919118457705,230.338598454924 Q653.4490432279997,229.74298564270035 652.1551428053278,226.01538635721064 M652.1551428053278,226.01538635721064 L645.1457549485971,205.2838637450351 M645.1457549485972,205.28386374503512 L608.4812646210821,198.7511989323566 M601.4718767643512,216.98493793968447 L635.1167980642422,203.49696276370253 M608.481264621082,198.7511989323566 L601.4718767643511,216.9849379396845 M601.4718767643512,216.98493793968447 Q600.7125713433505,218.90128802513885 599.2481565536078,219.48835999821117 M599.2481565536078,219.4883599982112 Q598.216446703588,219.90196408192557 596.8347566928661,219.65578262312323 M612.2555503900909,189.0581210977241 L636.3642729546427,179.39313039743777 M626.8135097848395,151.0629897239837 L612.2555503900909,189.0581210977241 M612.2555503900909,189.0581210977241 L641.3714691795882,194.24582550779232 M641.3714691795882,194.24582550779232 L626.8135097848395,151.0629897239837 M704.0245427389275,238.12978694790962 L682.3490779263566,234.2677791846851 M682.3490779263566,234.2677791846851 Q680.3004607623002,233.90276853970587 678.898442778537,232.02944647223552 M678.898442778537,232.02944647223552 Q677.4964247947737,230.15612440476517 677.4964247947737,227.78314867209983 M677.4964247947737,227.78314867209983 L677.4964247947737,151.97557888109338 M677.4964247947737,151.97557888109336 Q677.4964247947737,149.60260314842805 678.898442778537,148.1662806314152 M678.898442778537,148.1662806314152 Q679.493301153615,147.55686727976556 680.2045601080263,147.2717293525496 M680.2045601080263,147.27172935254964 Q681.1696629347975,146.88482748246543 682.3490779263565,147.09496875938154 M740.1138580288025,123.25457930593747 Q741.078960855574,122.8676774358533 742.258375847133,123.07781871276943 M682.3490779263566,147.09496875938154 L704.0245427389275,150.95697652260606 M742.2583758471329,123.07781871276941 L763.9338406597038,126.93982647599391 M704.0245427389275,150.95697652260606 Q713.7298490020933,152.68621132596215 720.847003388873,157.76358695300374 M763.933840659704,126.93982647599393 Q773.6391469228696,128.66906127935 780.7563013096494,133.74643690639158 M720.847003388873,157.76358695300374 Q727.9641577756527,162.84096258004533 732.7090443771867,169.99324171882873 M780.7563013096494,133.74643690639158 Q787.873455696429,138.8238125334332 792.618342297963,145.97609167221657 M732.7090443771867,169.99324171882873 Q737.4539309787207,177.1455208576121 739.7723154989419,185.30176690407316 M792.618342297963,145.97609167221657 Q797.363228899497,153.12837081099997 799.6816134197184,161.284616857461 M739.7723154989419,185.30176690407316 Q742.0907000191633,193.4580129505342 742.0907000191633,201.32578738162417 M799.6816134197184,161.284616857461 Q801.9999979399396,169.44086290392204 801.9999979399396,177.308637335012 M742.0907000191633,201.32578738162417 Q742.0907000191633,209.1939683530144 739.7723154989419,216.52406196466893 M801.9999979399396,177.308637335012 Q801.9999979399396,185.17681830640225 799.6816134197184,192.5069119180568 M739.7723154989419,216.52406196466893 Q737.4539309787207,223.85415557632348 732.7090443771867,229.31560233396073 M799.6816134197184,192.5069119180568 Q797.363228899497,199.83700552971132 792.618342297963,205.2984522873486 M732.7090443771867,229.31560233396073 Q728.3468179573158,234.3366005869392 721.9795265957617,236.8891958823 M721.9795265957617,236.8891958823 Q721.4209795065929,237.11311286537676 720.847003388873,237.31803542143183 M792.618342297963,205.2984522873486 Q788.2561158780921,210.31945054032707 781.8888245165382,212.87204583568783 M720.847003388873,237.31803542143183 Q713.7298490020933,239.8590217512657 704.0245427389275,238.12978694790962 M687.3098486190308,224.53608002152714 L731.8463537517249,206.68175751322283 M687.3098486190308,158.59443023742872 L687.3098486190308,224.53608002152714 M687.3098486190308,224.53608002152714 L702.838057815262,227.3028056711676 M702.8380578152621,227.3028056711676 Q711.3399446966715,228.8176222355172 717.704454618588,226.26614199667424 M717.7044546185879,226.2661419966742 Q718.1210272695515,226.09914141060926 718.5284433531305,225.91472072439805 M718.5284433531305,225.91472072439808 Q725.160472839169,222.91267078556393 728.7729332975832,216.125371019429 M728.7729332975832,216.125371019429 Q732.3853937559975,209.3380712532941 732.3853937559975,199.59655257826807 M732.3853937559975,199.59655257826807 Q732.3853937559975,189.85544044354236 728.7729332975832,181.78084645277363 M728.7729332975832,181.78084645277363 Q725.160472839169,173.70625246200493 718.5284433531305,168.3406866705694 M718.5284433531305,168.3406866705694 Q711.896413867092,162.97512087913384 702.8380578152621,161.36115588706917 M702.8380578152621,161.36115588706917 L687.309848619031,158.59443023742872" />
    <path fill-opacity="0.0" class="edge outline visible" d="M4.483985776270117,26.278898966646594 L64.3932836970464,2.261748920034421 M50.90551954615677,34.671338525621465 L110.81481746693305,10.65418847900932 M98.2459433059704,42.953499772412854 L158.15524122674674,18.936349725800696 M80.2051569868064,126.81223369708687 L113.02888832978465,113.65346689270069 M32.58045964907484,118.37394968216107 L66.83655069052193,104.6409615299577 M122.17751067234647,100.1324136579627 L148.27149483835709,89.67154773598597 M119.06825522733803,73.65824545895144 L178.97755314811434,49.6410954123393 M157.93087380947915,140.86370637933064 L180.44057342172962,131.83975096916214 M142.65974359434856,136.59876183144027 L150.82208573847922,133.32654528390856 M187.30060996300824,70.09836248918387 L247.20990788378452,46.08121244257174 M204.29483333575993,94.6454292456411 L264.20413125653624,70.62827919902895 M228.7246456633784,91.41094710415788 L288.6339435841546,67.39379705754575 M263.8797167122748,131.25536325848938 L279.36333494487985,125.04810670127355 M259.81815063904884,155.96125000510727 L279.36333494487985,148.12574465863185 M282.0710050661967,99.18956871073419 L341.980302986973,75.17241866412206 M298.64498546682455,102.9019641476269 L325.4722513607918,92.14713154772218 M308.89889005044165,113.15286819906554 L314.30048802425813,110.98741152487479 M286.47195373557986,163.7664665292613 L324.7625307030356,148.41608579846303 M316.49352567518025,105.88913995068033 L324.7625307030356,102.57416312099326 M333.1193648363419,81.83874104792471 L393.02866275711824,57.82159100131258 M350.50725395188954,93.89817585098277 L410.41655187266576,69.88102580437064 M349.9821938132952,120.60315250708719 L409.89149173407156,96.58600246047504 M331.95231506294533,171.86417138412418 L358.3900990963,161.2654788928739 M367.5057346268829,143.84356419813523 L393.59971879289367,133.3826982761585 M364.39647918187444,117.36939599912397 L424.3057771026508,93.35224595251182 M403.25909776401556,184.57485691950313 L422.4625435460292,176.8763517664549 M387.987967548885,180.3099123716128 L396.15030969301563,177.03769582408108 M425.11013641509857,97.2132803914125 L485.01943433587485,73.19613034480034 M429.65216183825265,189.27181847005812 L449.31396108032965,181.38956314455282 M451.961553949399,101.99750918962994 L511.87085187017533,77.98035914301781 M456.5035793725531,194.0560472682756 L516.4128772933294,170.03889722166343 M477.4844474520667,158.17454806257993 L521.3731386332814,140.57992889607647 M501.80877259610395,171.59737228125002 L517.67663144022,165.23607678949577 M537.2867921477825,124.69414781099377 L597.1960900685588,100.67699776438164 M580.092245937061,144.33309535160654 L640.0015438578373,120.31594530499441 M577.3714787887111,210.62977382089076 L595.4043579577615,203.40053929792515 M623.432751103758,136.68855268120242 L683.3420490245344,112.67140263459027 M659.1599915310361,230.17604421798356 L677.4964247947737,222.82511732851734 M599.2481565536078,219.4883599982112 L637.900506058727,203.99294760085428 M680.2045601080262,147.2717293525496 L740.1138580288025,123.25457930593748 M721.9795265957619,236.8891958823 L781.8888245165381,212.87204583568786" />
  </g>
</svg>
