<?xml version='1.0' ?>
<svg xmlns="http://www.w3.org/2000/svg" xmlns:xlink="http://www.w3.org/1999/xlink" version="1.1" width="803.9999981377259" height="236.8495893190182">
  <style type="text/css">
.edge {
  fill: None;
}
.edge.visible {
  stroke: #000000;
}
.edge.hidden {
  stroke: #C8C8FF;
}
@media (prefers-color-scheme: dark) {
    .edge.visible {
      stroke: #FFFFFF;
    }
    .edge.hidden {
      stroke: #A00000;
    }
}
</style>
  <g>
    <path class="edge sharp hidden" d="M89.86012818562858,92.274156159682 Q86.05059424875014,91.5953956456302 83.6826640973456,89.08687186494417 M22.778995659279417,104.85779806594081 L79.97618564437583,81.92791002196418 M83.6826640973456,89.08687186494417 Q81.31473394594116,86.57834808425814 79.97618564437585,81.9279100219642 M2.7027819745105717,36.53613653178353 L59.89997195960699,13.606248487806901 M79.97618564437585,81.9279100219642 L59.899971959607,13.606248487806894 M59.899971959607,13.60624848780688 Q58.25275991599324,7.947164061203495 60.466358196373506,4.585576789381406 M60.466358196373506,4.585576789381406 Q61.41832866277823,3.1399071611655254 63.008170187840896,2.5025526305172425 M35.85447437374353,91.44859062022365 L93.05166435883994,68.51870257624702 M80.41502064746457,22.362792714683582 L93.05166435883991,68.51870257624702 M31.015391017133368,90.58639100182006 L88.21258100222978,67.65650295784343 M93.05166435883996,68.51870257624702 L88.21258100222977,67.65650295784343 M47.4881817328411,40.223340156480106 L104.68537171793751,17.29345211250348 M88.21258100222974,67.65650295784344 L104.6853717179375,17.293452112503488 M104.68537171793753,17.293452112503488 Q106.12680793351893,13.138335459909513 108.28896225689112,11.436955681021516 M108.28896225689112,11.436955681021516 Q108.93300344599325,10.93016546532571 109.6866359939411,10.628040309260454 M80.94853787412251,99.48318756288299 L138.14572785921894,76.55329951890636 M125.37640414477143,30.306872757307005 L138.14572785921888,76.55329951890636 M76.8303401951955,98.74943114547574 L134.02753018029193,75.81954310149911 M138.1457278592189,76.55329951890636 L134.027530180292,75.81954310149911 M92.5825803730051,48.257996812389564 L149.77977035810153,25.32810876841294 M134.0275301802919,75.81954310149911 L149.77977035810147,25.328108768412925 M149.7797703581015,25.328108768412932 Q151.0150956058656,21.136268466998544 153.12580597222967,19.425722704217947 M153.12580597222967,19.425722704217947 Q153.72006033201384,18.944131627895256 154.4489472382293,18.651926798241984 M156.7890380754177,61.79291098023063 L146.17634738904044,93.84261424381508 M146.17634738904044,93.84261424381506 Q144.8377990874752,97.89651693746495 142.52131289307877,99.57039876467525 M142.52131289307877,99.57039876467525 Q141.93632624396116,99.99310731501639 141.25614579213521,100.26578612343572 M141.25614579213521,100.26578612343573 Q139.24288250686078,101.07288699231444 136.39562790158894,100.56557979108389 M136.39562790158894,100.56557979108388 Q132.48320605069435,99.86848730924694 130.16671985629796,97.3691295124535 M69.31483051502494,113.14928141059282 L126.51202050012135,90.2193933666162 M130.16671985629796,97.3691295124535 Q127.85023366190154,94.86977171566004 126.51202050012131,90.2193933666162 M54.79825072476444,63.345654148950786 L111.99544070986086,40.41576610497416 M126.51202050012131,90.2193933666162 L111.99544070986084,40.41576610497415 M57.372124274093835,63.80425190983033 L114.56931425919025,40.8743638658537 M111.99544070986087,40.41576610497417 L114.56931425919022,40.8743638658537 M65.30067208109784,99.37746647202079 L99.74373558709623,85.56952258019834 M114.56931425919026,40.874363865853695 L99.74373558709627,85.56952258019834 M99.74373558709618,85.56952258019834 Q98.30229937151478,89.60509330606305 96.03725713412649,91.28814111716592 M96.03725713412649,91.28814111716592 Q95.45988208705086,91.7171617301707 94.77548610577516,91.99153051004413 M94.77548610577516,91.99153051004413 Q92.77499673819499,92.79351041926225 89.86012818562858,92.274156159682 M194.15361846036737,111.09487689702773 Q188.2849856840254,110.04923817427233 183.80651273614936,106.74742386581487 M183.80651273614936,106.74742386581487 Q179.32803978827332,103.4456095573574 176.8056101959521,98.64400740239854 M176.8056101959521,98.64400740239854 Q174.28318060363083,93.84240524743967 174.28318060363083,88.23849586394209 M174.28318060363083,88.23849586394209 Q174.28318060363083,81.7997056739683 177.1658854649012,78.6171088693645 M177.1658854649012,78.6171088693645 Q178.58636154168636,77.04885861810554 180.85680433147039,76.13865657857235 M180.85680433147039,76.13865657857238 Q183.19398329210637,75.20170055118561 186.4318302424868,74.96204590154204 M186.4318302424868,74.96204590154204 Q192.8150701588021,74.48957973832341 203.41956323795299,76.37902639844714 M151.88489506138112,100.31782951635873 L209.08208504647752,77.3879414723821 M203.41956323795299,76.37902639844714 L209.08208504647754,77.38794147238211 M151.88489506138112,110.33368224119286 L209.08208504647752,87.40379419721623 M209.08208504647754,77.3879414723821 L209.08208504647754,87.40379419721623 M209.08208504647754,87.40379419721624 L203.41956323795299,86.39487912328127 M203.41956323795299,86.39487912328127 Q199.4042534730422,85.67945467365918 196.77893596670478,85.86744691333223 M196.77893596670478,85.86744691333223 Q195.2861510762299,85.97434140294463 194.24272246442482,86.3926434429016 M194.24272246442482,86.3926434429016 Q193.4511034289337,86.7099970727219 192.91812564271075,87.206591188713 M192.91812564271075,87.20659118871302 Q191.68263282505418,88.3577432244208 191.68263282505418,90.50374786366156 M191.68263282505418,90.50374786366156 Q191.68263282505418,93.24631772817145 193.38128882567602,95.3375056038071 M193.38128882567602,95.3375056038071 Q195.07994482629786,97.42869347944273 198.27181613929432,97.99740247353344 M198.27181613929432,97.99740247353344 Q200.61170118413915,98.41430952887846 202.48349843000346,97.66392124407155 M202.48349843000346,97.66392124407155 Q202.6706781545899,97.58888241559086 202.8531770011865,97.50217063370866 M202.8531770011865,97.50217063370866 Q204.86066431374937,96.54834103300432 206.09615713140593,94.4433444682797 M206.09615713140593,94.4433444682797 Q207.33164994906255,92.33834790355509 207.33164994906255,89.23830466723459 M207.33164994906255,89.23830466723459 L207.33164994906255,75.4066856902073 M207.33164994906255,75.4066856902073 Q207.33164994906255,71.11428827560003 205.42705055051587,68.98640660776904 M205.42705055051587,68.98640660776904 Q203.52245115196914,66.85852493993801 198.88947876317633,66.03304897035486 M198.88947876317633,66.03304897035486 Q196.41849312786314,65.59278317726049 193.32984486866795,65.69822184865019 M129.2348078272829,89.72422124004152 L186.43199781237934,66.79433319606488 M193.32984486866795,65.69822184865019 Q190.24119660947272,65.80366052003991 186.4319978123793,66.7943331960649 M186.4319978123793,66.7943331960649 Q183.65201329523262,67.4913659646517 181.69596993967784,66.30816284194499 M181.69596993967784,66.30816284194499 Q179.73992658412305,65.12495971923825 178.65876563749075,62.90547792573156 M178.65876563749075,62.90547792573156 Q177.57760469085838,60.685996132224886 177.629216217759,58.31048361616895 M177.629216217759,58.31048361616895 Q177.6808277446596,55.93497110011302 178.96776451932425,54.01787720518628 M178.96776451932425,54.01787720518628 Q179.99299717000054,52.49063259287568 181.90027424158802,51.72602073464032 M212.37890409622133,55.25875220778779 Q213.03997438536334,55.65781927698847 213.66344590836965,56.086090407840345 M213.66344590836968,56.086090407840345 Q219.17146827597747,59.869626433284196 221.8998412662236,66.13859213993227 M221.8998412662236,66.13859213993227 Q224.6282142564697,72.40755784658035 224.6282142564697,81.46937197433476 M224.6282142564697,81.46937197433476 L224.6282142564697,105.55515925740325 M224.6282142564697,105.55515925740326 Q224.6282142564697,110.80159526909026 222.4660599330975,113.15873103242345 M222.4660599330975,113.15873103242345 Q221.63449543447044,114.06528538797708 220.51359859552875,114.51464380982398 M220.51359859552872,114.514643809824 Q218.72004688553258,115.23366409599558 216.18570793079843,114.78211037834939 M216.18570793079843,114.78211037834939 Q211.96462233785536,114.03002199315698 209.75119162736763,110.89327003632859 M209.75119162736763,110.89327003632859 Q207.53776091687993,107.75651807950018 207.53776091687993,102.51008206781319 M150.34057093178353,122.33992687546932 L207.53776091687996,99.4100388314927 M207.53776091687993,102.51008206781319 L207.53776091687993,99.4100388314927 M150.95823355566554,124.11896373613129 L208.15542354076194,101.18907569215466 M207.53776091687993,99.4100388314927 L208.15542354076197,101.18907569215466 M208.15542354076194,101.18907569215466 Q207.64064883089605,104.91312239217191 205.78749338935745,107.32531377211069 M205.78749338935745,107.32531377211069 Q204.113747756933,109.50397331477288 201.51608364701337,110.54535571890555 M201.51608364701335,110.54535571890557 Q201.23763845613433,110.65698213018386 200.9485776026398,110.75554142493942 M200.9485776026398,110.75554142493942 Q197.96281725746076,111.77357769782941 194.15361846036737,111.09487689702773 M261.589105452796,123.11013823207148 Q253.867484804808,121.7343449494329 248.87423714706608,118.10230143952958 M248.87423714706608,118.10230143952958 Q243.88098948932418,114.47025792962629 241.41000385401102,108.48546758027321 M241.41000385401102,108.48546758027321 Q238.9390182186978,102.50067723092013 238.9390182186978,94.15419798291265 M181.7418282336014,97.64894580249015 L238.9390182186978,74.71905775851351 M238.9390182186978,94.15419798291265 L238.9390182186978,74.71905775851351 M238.9390182186978,74.71905775851351 L235.4384831636529,74.09535286106733 M235.43848316365288,74.09535286106734 Q232.14405907642538,73.50837161244158 230.34234759189488,71.16031226312579 M230.34234759189488,71.16031226312579 Q228.5406361073643,68.81225291381001 228.5406361073643,64.9968747977426 M228.5406361073643,64.9968747977426 Q228.5406361073643,61.18110854554945 230.34234759189488,59.53485902482964 M230.34234759189488,59.53485902482964 Q230.93024070256925,58.99769269160046 231.67706255589655,58.69829788758907 M231.67706255589653,58.69829788758907 Q233.2190198796116,58.080139743621004 235.43848316365288,58.47559075273561 M181.7418282336014,82.02918369415842 L238.9390182186978,59.099295650181794 M235.43848316365288,58.47559075273561 L238.93901821869778,59.0992956501818 M238.9390182186978,59.09929565018179 L238.9390182186978,51.70646686312828 M238.9390182186978,51.70646686312827 Q238.9390182186978,46.460030851441275 241.3069483701023,44.139559023678416 M241.3069483701023,44.139559023678416 Q242.13211226173252,43.330933159997684 243.20734246650528,42.8998821201937 M271.37395284849623,77.87121487738266 Q271.15781187642597,78.15001339534902 270.9066617572822,78.38782491723724 M270.9066617572822,78.38782491723725 Q270.3060912624387,78.95649907859874 269.52819458353986,79.26835152732183 M269.52819458353986,79.26835152732183 Q267.97240122574215,79.89205642476801 265.707303131723,79.48847447166065 M200.0679419607403,100.91418574525247 L257.26513194583674,77.98429770127584 M265.70730313172294,79.48847447166065 L257.26513194583674,77.98429770127584 M257.26513194583674,77.98429770127584 L257.26513194583674,96.70410304592805 M257.26513194583674,96.70410304592805 Q257.26513194583674,101.1160463872646 259.06684343036727,103.52368463188215 M259.06684343036727,103.52368463188215 Q260.8685549148978,105.93132287649969 264.78064162600737,106.62835564508651 M264.78064162600737,106.62835564508651 Q266.22207784158877,106.88518233382906 267.5604585732616,106.76578569022507 M220.20668336534104,126.82243413277997 L270.03127663868224,106.84816011875807 M267.5604585732616,106.76578569022507 Q268.8988393049343,106.6463890466211 270.03127663868224,106.84816011875807 M270.03127663868224,106.84816011875807 Q271.67882382208103,107.02255266571753 272.70837324181275,108.45792484365789 M272.70837324181275,108.45792484365789 Q273.73792266154453,109.89329702159826 273.73792266154453,114.3052403629348 M273.73792266154453,114.3052403629348 Q273.73792266154453,117.88230289779516 272.81126115582896,120.16148301310383 M212.31931194371995,146.02181373476319 L269.51650192881635,123.09192569078655 M272.81126115582896,120.16148301310383 Q272.00982858489954,122.1326549762821 270.13022621715567,122.88617227093926 M270.13022621715567,122.88617227093926 Q269.83652639651933,123.00391413915831 269.51650192881635,123.09192569078655 M269.51650192881635,123.09192569078655 Q268.07540085301997,123.4313358044375 265.6044152177068,123.40831634651835 M265.6044152177068,123.40831634651835 Q263.1334295823936,123.3852968885992 261.589105452796,123.11013823207148 M306.47739312514267,131.10807123916052 Q297.21144834755705,129.4571192999942 290.4679331622927,124.49979991704917 M290.4679331622927,124.49979991704917 Q283.72441797702834,119.54248053410416 280.1209950079672,111.98463418035918 M280.1209950079672,111.98463418035918 Q276.51757203890617,104.42678782661419 276.51757203890617,95.00750032704919 M276.51757203890617,95.00750032704919 Q276.51757203890617,85.94529806316902 279.9664955670505,79.70377059494857 M279.9664955670505,79.70377059494857 Q283.4154190951948,73.46224312672811 289.4383837425609,70.6602287217292 M289.4383837425609,70.6602287217292 Q289.9186764719147,70.43678607760641 290.40977101873955,70.23991026988517 M323.4728243747009,83.93772473919647 Q325.2813452440384,87.25042653909591 326.3991073689948,91.13687252631333 M326.39910736899475,91.13687252631331 Q328.09793093950907,97.04366244270429 328.09793093950907,103.95908379509218 M328.09793093950907,103.95908379509218 Q328.09793093950907,106.34379215166575 326.9654936057612,107.2747963625138 M326.9654936057612,107.2747963625138 Q326.68235547471124,107.50757109044224 326.3155410544648,107.65462400670192 M326.3155410544648,107.65462400670192 Q325.215247026606,108.09572292923349 323.3620706367002,107.76553478026749 M234.66073543576962,125.08219817372864 L291.857925420866,102.15231012975201 M323.36207063670014,107.76553478026749 L291.857925420866,102.15231012975202 M234.66073543576962,115.06634544889451 L291.857925420866,92.13645740491788 M291.857925420866,102.15231012975201 L291.857925420866,92.13645740491788 M257.51659849790013,119.13866968020471 L314.71378848299656,96.20878163622808 M291.857925420866,92.13645740491788 L314.7137884829965,96.20878163622808 M255.86938645428637,120.39539474211496 L313.0665764393828,97.46550669813834 M314.71378848299656,96.2087816362281 L313.0665764393828,97.46550669813834 M313.0665764393828,97.46550669813834 Q313.0665764393828,93.05356335680179 312.0370270196511,90.12774845600293 M312.0370270196511,90.12774845600293 Q311.0074775999193,87.20193355520409 308.9998227174639,85.41335750283633 M308.9998227174639,85.41335750283633 Q306.99216783500856,83.62478145046856 304.0064074898295,83.09279610519829 M304.0064074898295,83.09279610519829 Q301.36812632858886,82.62272257208676 299.32780976040374,83.44066888194823 M299.32780976040374,83.44066888194823 Q298.8999496126913,83.61219453361193 298.4983851222217,83.84036121169454 M298.4983851222217,83.84036121169453 Q296.1818989278253,85.15657559903136 294.9464061101687,88.2749955880746 M294.9464061101687,88.2749955880746 Q293.71091329251215,91.39341557711782 293.71091329251215,96.40153600759777 M293.71091329251215,96.40153600759777 L293.71091329251215,97.47473239528102 M293.71091329251215,97.47473239528102 Q293.71091329251215,105.94036943389204 296.95406099262414,110.15485598541241 M296.95406099262414,110.15485598541241 Q300.1972086927361,114.36934253693275 306.99216783500856,115.58002868300468 M306.99216783500856,115.58002868300468 Q309.2570425025043,115.98357082727864 312.19135889067525,115.85063420421118 M312.19135889067525,115.85063420421118 Q315.12567527884624,115.71769758114372 317.80243674219173,115.00227313152163 M317.80243674219173,115.00227313152163 Q320.4791982055372,114.28684868189954 322.43540913098457,115.41030869786668 M322.43540913098457,115.41030869786668 Q324.39162005643186,116.53376871383384 325.47261343317166,118.57467803287304 M325.47261343317166,118.57467803287304 Q326.55360680991146,120.61558735191227 326.65649472392766,122.95885471290634 M326.65649472392766,122.95885471290634 Q326.7593826379438,125.30212207390043 325.7298332182121,127.3246546402169 M265.135331231872,153.04755531673766 L322.3325212169684,130.11766727276103 M325.7298332182121,127.3246546402169 Q324.80317171249646,129.14506562519898 322.792400718212,129.95116735489992 M322.792400718212,129.95116735489992 Q322.5691433239099,130.0406694276009 322.3325212169684,130.11766727276103 M322.3325212169684,130.11766727276103 Q318.7290982479073,131.3833194655634 314.6623445259885,131.61257356106557 M314.6623445259885,131.61257356106557 Q310.5955908040696,131.84182765656777 306.47739312514267,131.10807123916052 M345.3944952469163,137.80377768775202 Q340.86441077213965,136.99663368595404 338.44486909383454,133.8231580803052 M338.44486909383454,133.8231580803052 Q336.02532741552943,130.64968247465637 336.02532741552943,125.40324646296938 M336.02532741552943,125.40324646296938 L336.02532741552943,85.93640078890198 M336.02532741552943,85.93640078890196 Q336.02532741552943,80.8091225678185 338.34181360992585,78.47948475616306 M338.34181360992585,78.47948475616306 Q339.1728797980457,77.64370027339093 340.2623725188569,77.20693150696312 M352.5838021537173,82.57925976691855 Q353.8366664328025,85.29662318323633 353.8366664328025,89.10992117948838 M296.6394764477061,116.92838372721567 L353.83666643280253,93.99849568323904 M353.8366664328025,89.10992117948838 L353.8366664328025,93.99849568323904 M295.6099270279743,116.74494462286385 L352.80711701307075,93.81505657888724 M353.8366664328025,93.99849568323904 L352.80711701307075,93.81505657888722 M352.80711701307075,93.81505657888722 Q353.8366664328025,86.84437061351835 358.1093635526462,83.43241521522464 M330.24092283476483,96.36309704754524 L368.76513301891265,80.91905466127935 M358.1093635526462,83.43241521522464 Q359.5171940175979,82.3081944665866 361.15414088536494,81.65195578735049 M361.15414088536494,81.65195578735049 Q364.48524829783076,80.31654193135157 368.76513301891265,80.91905466127933 M368.76513301891265,80.91905466127933 Q371.7508933640917,81.33188221594608 373.2437735366812,83.44598505131316 M318.2835634929549,113.25937171397203 L374.83954162328695,90.58654028494536 M373.2437735366812,83.44598505131316 Q374.73665370927074,85.56008788668025 374.8395416232869,90.58654028494534 M374.8395416232869,90.58654028494534 Q374.8395416232869,94.87893769955262 373.2952174936893,97.10764519020199 M310.22939473225097,121.97277995714018 L367.4265847173474,99.04289191316354 M373.2952174936893,97.10764519020199 Q372.6116898598304,98.09408523115647 371.38356225128496,98.58643159598667 M371.3835622512849,98.58643159598668 Q369.8369269882927,99.20646508774594 367.4265847173474,99.04289191316356 M307.861632150739,121.78960956241389 L365.05882213583544,98.85972151843725 M367.4265847173474,99.04289191316356 L365.05882213583544,98.85972151843727 M365.05882213583544,98.85972151843725 Q361.608111759699,98.6219016476786 359.3514688454969,99.52657142938239 M359.35146884549687,99.52657142938239 Q358.03959229291434,100.05249206440087 357.1312580899225,100.96452401509899 M357.13125808992254,100.964524015099 Q354.6604400245019,103.44540056098202 354.6604400245019,109.16885587120888 M354.6604400245019,109.16885587120888 L354.6604400245019,128.72354202233728 M354.6604400245019,128.72354202233728 Q354.6604400245019,133.96997803402428 352.2923423032049,136.2904200051621 M352.2923423032049,136.2904200051621 Q351.4794269734851,137.08697617474027 350.41178340754135,137.51498579277117 M350.41178340754135,137.51498579277117 Q348.3692822840742,138.3338078730692 345.3944952469163,137.803777687752 M394.19520477015755,146.498803176678 Q389.76800820939707,145.70999114266516 387.4000780579926,142.54571137753396 M387.4000780579926,142.54571137753396 Q385.0321479065881,139.38143161240276 385.0321479065881,134.13499560071577 M327.83495792149165,123.67896665266244 L385.0321479065881,100.7490786086858 M385.0321479065881,134.13499560071577 L385.0321479065881,100.7490786086858 M385.0321479065881,100.7490786086858 L382.3553864432426,100.27214888002112 M382.3553864432426,100.27214888002112 Q379.06062721623,99.68510791814525 377.25891573169946,97.33704856882946 M377.25891573169946,97.33704856882946 Q375.45720424716893,94.98898921951368 375.45720424716893,91.17361110344628 M375.45720424716893,91.17361110344628 Q375.45720424716893,87.35784485125313 377.25891573169946,85.71159533053333 M377.25891573169946,85.71159533053333 Q377.8467685536464,85.17446580968992 378.59356401335594,84.87508158666513 M378.5935640133559,84.87508158666512 Q380.1356236992212,84.256882406544 382.35538644324265,84.6523867716894 M333.0855929341665,108.99473203387493 L390.28278291926296,86.06484398989829 M382.3553864432426,84.65238677168938 L390.28278291926296,86.06484398989829 M327.83495792149165,113.6631139278283 L385.0321479065881,90.73322588385167 M390.28278291926296,86.06484398989829 L385.03214790658814,90.73322588385166 M385.0321479065881,90.73322588385167 L385.0321479065881,87.39447893019837 M385.0321479065881,87.39447893019837 Q385.0321479065881,74.15942517844022 390.7461136721207,68.5599793603887 M390.7461136721207,68.5599793603887 Q392.95601668162425,66.39436747669369 396.00522013543485,65.17196662383006 M356.97100541602873,102.39976183822662 L414.16819540112516,79.46987379424999 M416.0214765110286,79.20395203596301 Q415.19779718058936,79.53415837714915 414.16819540112516,79.46987379424999 M355.52990434023235,102.26254078946344 L412.7270943253288,79.33265274548683 M414.16819540112516,79.46987379424999 L412.7270943253288,79.33265274548681 M412.7270943253288,79.33265274548681 Q408.9000964406035,78.99815764368279 406.7685397013469,79.85268139569354 M406.7685397013469,79.85268139569354 Q405.97541731789363,80.17063770547894 405.41702533340543,80.65321127176946 M405.41702533340543,80.65321127176946 Q404.01162754505805,81.86778426282203 403.5654566309322,84.1974690496236 M346.1607365088455,113.47038941308368 L403.35792649394193,90.54050136910706 M403.35792649394193,88.39449672986629 L403.35792649394193,90.54050136910705 M343.89586184134976,110.92084262956897 L401.0930518264462,87.99095458559233 M403.35792649394193,90.54050136910706 L401.0930518264461,87.99095458559236 M401.0930518264462,87.99095458559235 L403.357926493942,88.39449672986629 M416.03315744553,100.05228878890614 Q415.72476904926793,102.62646154324898 414.37413879905,103.95002230938731 M414.37413879905,103.95002230938731 Q413.7790170722694,104.53321653927826 412.9934773158484,104.84813303558727 M412.9934773158484,104.84813303558727 Q411.46872547078567,105.45939364316686 409.2265592702839,105.05989756095342 M346.1607365088455,126.94414688217464 L403.35792649394193,104.014258838198 M409.2265592702839,105.05989756095342 L403.35792649394193,104.01425883819802 M403.35792649394193,104.014258838198 L403.35792649394193,137.40017583022797 M403.35792649394193,137.40017583022797 Q403.35792649394193,144.58096567706124 399.25519253609156,146.2257183362783 M399.2551925360915,146.2257183362783 Q397.2266778802823,147.03893335550202 394.1952047701576,146.498803176678 M439.70115506638626,154.84510328493513 Q433.83252229004427,153.79946456217974 429.35404934216825,150.49765025372227 M429.35404934216825,150.49765025372227 Q424.87557639429224,147.1958359452648 422.353146801971,142.39423379030595 M422.353146801971,142.39423379030595 Q419.8307172096497,137.59263163534706 419.8307172096497,131.98872225184948 M419.8307172096497,131.98872225184948 Q419.8307172096497,125.54993206187571 422.71342207092005,122.36733525727189 M422.71342207092005,122.36733525727189 Q424.1338981477052,120.79908500601294 426.4043409374892,119.88888296647977 M426.4043409374892,119.88888296647977 Q428.74151989812526,118.95192693909301 431.97936684850566,118.71227228944944 M431.97936684850566,118.71227228944943 Q438.36260676482095,118.2398061262308 448.9670998439718,120.12925278635453 M397.43243166739995,144.06805590426612 L454.6296216524964,121.13816786028949 M448.9670998439718,120.12925278635453 L454.6296216524964,121.1381678602895 M397.43243166739995,154.08390862910028 L454.6296216524964,131.15402058512365 M454.6296216524964,121.1381678602895 L454.6296216524964,131.15402058512365 M454.6296216524964,131.15402058512365 L448.9670998439718,130.14510551118866 M448.9670998439718,130.14510551118866 Q444.9517900790611,129.42968106156658 442.3264725727237,129.61767330123962 M442.3264725727237,129.61767330123962 Q440.8336876822488,129.724567790852 439.7902590704437,130.142869830809 M439.79025907044377,130.142869830809 Q438.9986400349526,130.46022346062932 438.46566224872964,130.95681757662044 M438.46566224872964,130.95681757662044 Q437.230169431073,132.1079696123282 437.230169431073,134.25397425156896 M437.230169431073,134.25397425156896 Q437.230169431073,136.99654411607887 438.9288254316949,139.0877319917145 M438.9288254316949,139.0877319917145 Q440.6274814323167,141.17891986735012 443.81935274531315,141.74762886144083 M443.81935274531315,141.74762886144083 Q446.159237790158,142.16453591678587 448.03103503602233,141.41414763197895 M448.03103503602233,141.41414763197898 Q448.21821476060876,141.33910880349825 448.4007136072054,141.25239702161605 M448.4007136072054,141.25239702161605 Q450.4082009197682,140.29856742091172 451.6436937374248,138.1935708561871 M451.6436937374248,138.1935708561871 Q452.8791865550814,136.0885742914625 452.8791865550814,132.988531055142 M452.8791865550814,132.988531055142 L452.8791865550814,119.15691207811471 M452.8791865550814,119.1569120781147 Q452.8791865550814,114.86451466350744 450.9745871565347,112.73663299567643 M450.9745871565347,112.73663299567643 Q449.069987757988,110.60875132784541 444.4370153691952,109.78327535826224 M444.4370153691952,109.78327535826224 Q441.966029733882,109.34300956516788 438.8773814746868,109.4484482365576 M374.7823444333018,133.47444762794893 L431.9795344183982,110.5445595839723 M438.8773814746868,109.4484482365576 Q435.7887332154916,109.55388690794732 431.9795344183982,110.5445595839723 M431.9795344183982,110.5445595839723 Q429.1995499012515,111.24159235255911 427.24350654569673,110.0583892298524 M427.24350654569673,110.0583892298524 Q425.2874631901419,108.87518610714565 424.2063022435096,106.65570431363896 M424.2063022435096,106.65570431363896 Q423.12514129687725,104.43622252013228 423.17675282377786,102.06071000407634 M423.17675282377786,102.06071000407634 Q423.2283643506785,99.68519748802042 424.5153011253431,97.76810359309368 M424.5153011253431,97.76810359309368 Q425.5405337760194,96.24085898078306 427.4478108476069,95.47624712254772 M443.3015453086182,94.25273342233659 Q444.3058999825402,94.3784674570901 445.26045382110954,94.54854428666897 M445.26045382110954,94.54854428666897 Q453.7029601467808,96.05278077030391 459.21098251438855,99.83631679574775 M459.21098251438855,99.83631679574775 Q464.71900488199634,103.61985282119159 467.44737787224244,109.88881852783967 M467.44737787224244,109.88881852783967 Q470.1757508624886,116.15778423448775 470.1757508624886,125.21959836224217 M470.1757508624886,125.21959836224217 L470.1757508624886,149.30538564531065 M470.1757508624886,149.30538564531065 Q470.1757508624886,154.55182165699765 468.0135965391164,156.90895742033084 M468.0135965391164,156.90895742033084 Q467.1820320404893,157.81551177588446 466.0611352015476,158.26487019773137 M466.0611352015476,158.26487019773137 Q464.2675834915514,158.98389048390297 461.73324453681727,158.53233676625678 M461.7332445368173,158.53233676625678 Q457.5121589438742,157.78024838106438 455.2987282333865,154.643496424236 M455.2987282333865,154.643496424236 Q453.08529752289877,151.50674446740757 453.08529752289877,146.26030845572058 M395.8881075378024,166.09015326337672 L453.0852975228988,143.1602652194001 M453.08529752289877,146.26030845572058 L453.08529752289877,143.1602652194001 M396.5057701616844,167.86919012403868 L453.7029601467808,144.93930208006205 M453.08529752289877,143.1602652194001 L453.7029601467808,144.93930208006205 M453.7029601467808,144.93930208006208 Q453.188185436915,148.6633487800793 451.3350299953763,151.07554016001808 M451.3350299953763,151.07554016001808 Q449.66128436295185,153.25419970268027 447.06362025303224,154.295582106813 M447.06362025303224,154.295582106813 Q446.7851750621532,154.4072085180913 446.4961142086587,154.50576781284684 M446.4961142086587,154.50576781284684 Q443.5103538634796,155.5238040857368 439.70115506638626,154.84510328493513 M499.8269082066766,165.55795892173103 Q489.94330080520893,163.79695546260365 485.2587168895155,156.82177607516365 M485.2587168895155,156.82177607516365 Q480.5741329738221,149.84659668772363 480.5741329738221,137.44603560631592 M480.5741329738221,137.44603560631592 L480.5741329738221,86.41312152119124 M480.5741329738221,86.41312152119124 Q480.5741329738221,81.16668550950428 482.9422306951191,78.84624353836645 M482.9422306951191,78.84624353836645 Q483.7801437717437,78.02519267814266 484.86292932095654,77.59111276223149 M498.900246700961,92.7107067774984 L498.900246700961,139.99594066933133 M498.900246700961,139.99594066933133 Q498.900246700961,144.40749587454212 500.3931268735505,146.70052946387736 M500.3931268735505,146.70052946387736 Q501.88600704614004,148.99356305321263 504.253769627652,149.41543716527173 M504.253769627652,149.41543716527173 Q504.97465530533526,149.54388036626807 505.74681737013407,149.50252894056376 M459.23937982915317,168.8326246797418 L507.44564094064845,149.50712686082255 M505.74681737013407,149.50252894056376 Q506.5189794349328,149.46117751485946 507.44564094064845,149.50712686082258 M507.44564094064845,149.50712686082258 Q509.19574089827836,149.8189494529206 510.0707908770933,151.52488236712986 M510.0707908770933,151.52488236712986 Q510.9458408559083,153.23081528133912 510.9458408559083,158.00023199448626 M510.9458408559083,158.00023199448626 Q510.9458408559083,162.17347161849003 509.5045722102194,164.0032945983744 M447.880353234255,188.82719736610846 L505.0775432193514,165.89730932213183 M509.5045722102194,164.0032945983744 Q508.74790177300883,164.96395724676304 507.56552586222796,165.437962128247 M507.5655258622279,165.437962128247 Q506.4957702718647,165.86681843968182 505.0775432193514,165.89730932213186 M505.0775432193514,165.89730932213186 Q504.253769627652,165.8696919439539 502.7094454980544,165.83304293669613 M502.7094454980544,165.83304293669613 Q501.16512136845677,165.79639392943832 499.8269082066766,165.55795892173103 M535.655362069255,171.94166363847418 Q525.7717546677874,170.1806601793468 521.0871707520939,163.20548079190678 M521.0871707520939,163.20548079190678 Q516.4025868364005,156.23030140446676 516.4025868364005,143.82974032305907 M516.4025868364005,143.82974032305907 L516.4025868364005,92.7968262379344 M516.4025868364005,92.7968262379344 Q516.4025868364005,87.5503902262474 518.7706845576976,85.22994825510959 M518.7706845576976,85.22994825510959 Q519.6085976343221,84.4088973948858 520.6913831835349,83.97481747897463 M534.7287005635394,129.32275129065113 L534.7287005635394,146.37964538607446 M534.7287005635394,146.37964538607446 Q534.7287005635394,150.79120059128525 536.221580736129,153.0842341806205 M536.221580736129,153.0842341806205 Q537.7144609087185,155.37726776995578 540.0822234902305,155.79914188201485 M540.0822234902305,155.79914188201485 Q540.8031091679136,155.9275850830112 541.5752712327125,155.8862336573069 M523.9748491388441,163.62774212391957 L543.2740948032268,155.8908315775657 M541.5752712327125,155.8862336573069 Q542.3474332975113,155.84488223160258 543.2740948032268,155.8908315775657 M543.2740948032268,155.8908315775657 Q545.0241947608567,156.20265416966373 545.8992447396718,157.90858708387302 M545.8992447396718,157.90858708387302 Q546.7742947184867,159.61451999808227 546.7742947184867,164.3839367112294 M546.7742947184867,164.3839367112294 Q546.7742947184867,168.55717633523315 545.3330260727978,170.38699931511752 M483.7088070968334,195.21090208285162 L540.9059970819299,172.28101403887499 M545.3330260727978,170.38699931511752 Q544.5763556355872,171.34766196350617 543.3939797248063,171.82166684499012 M543.3939797248064,171.82166684499015 Q542.3242241344432,172.25052315642495 540.9059970819299,172.28101403887499 M540.9059970819299,172.281014038875 Q540.0822234902305,172.25339666069704 538.5378993606328,172.21674765343926 M538.5378993606328,172.21674765343926 Q536.9935752310353,172.18009864618148 535.655362069255,171.94166363847418 M619.5636397773914,186.89195064314694 Q607.5180456224441,184.74573700753075 598.8697634687405,177.839242786035 M598.8697634687405,177.839242786035 Q590.221481315037,170.9327485645392 585.6399528832522,160.3390955032844 M585.6399528832522,160.3390955032844 Q581.0584244514675,149.74544244202963 581.0584244514675,136.629546480875 M581.0584244514675,136.629546480875 Q581.0584244514675,126.85239747337367 583.683741957805,119.33134941001175 M583.683741957805,119.33134941001175 Q586.3090594641424,111.81030134664982 591.3024746917768,106.97673767456718 M591.3024746917768,106.97673767456718 Q594.8961328073884,103.49812143184491 599.6095669920946,101.60854402102933 M638.8581433360041,126.42259629098527 Q638.3016199801135,126.64570197585815 637.6838101066055,126.74698865860901 M575.5448164207752,148.02146119797325 L632.7420064058716,125.09157315399662 M637.6838101066055,126.74698865860901 Q635.4187678692172,127.1183304327587 632.7420064058716,125.09157315399663 M632.7420064058716,125.09157315399663 Q629.6533581466765,122.87188236411454 626.6161538444893,121.4364654012366 M626.6161538444893,121.4364654012366 Q623.5789495423022,120.00104843835865 620.2841903152896,119.41400747648278 M620.2841903152896,119.41400747648278 Q614.4210605390674,118.36934924615821 610.3385012089927,120.00601406126353 M610.3385012089927,120.00601406126353 Q609.9764596932679,120.15115355893826 609.6284208490231,120.31737938084034 M609.6284208490231,120.31737938084032 Q605.3557237291794,122.35804984687908 603.1937369756997,127.33843347268082 M603.1937369756997,127.33843347268082 Q601.0317502222201,132.31881709848258 601.0317502222201,140.1882770479502 M601.0317502222201,140.1882770479502 Q601.0317502222201,140.89235666610367 601.0490549142818,141.5799521817345 M609.4880972278411,163.1240167162935 Q609.5579721317845,163.18337870965158 609.6284208490231,163.24212979916456 M609.6284208490231,163.24212979916456 Q613.9011179688669,166.8053687166234 620.2841903152896,167.9426672783046 M620.2841903152896,167.9426672783046 Q622.9612869184201,168.4196567202194 626.0499351776153,168.19506025822616 M602.8090004146538,178.58516420977864 L632.1240086422046,166.83301595142643 M626.0499351776153,168.19506025822616 Q629.1385834368106,167.97046379623293 632.1240086422046,166.83301595142643 M632.1240086422046,166.83301595142643 Q635.2126569013998,165.83311757825876 637.6321985797049,166.97974633527033 M637.6321985797049,166.97974633527033 Q640.0517402580099,168.12637509228193 641.5446204305995,170.5385664722207 M641.5446204305995,170.5385664722207 Q643.0375006031891,172.95075785215948 643.4492198291462,175.82607027167396 M643.4492198291462,175.82607027167396 Q643.8609390551032,178.70138269118846 642.7799456783634,181.25115339939111 M592.1450666738338,203.7860254879642 L639.0221908382782,184.99336785575568 M642.7799456783634,181.25115339939111 Q641.6989523016236,183.80092410759374 639.0221908382782,184.99336785575568 M639.0221908382782,184.99336785575568 Q638.2911699491028,185.3710743056692 637.4902329321341,185.69216343844224 M637.4902329321341,185.69216343844226 Q634.3431092487145,186.95381971456632 630.1165213296417,187.34133763519628 M630.1165213296417,187.34133763519628 Q624.8142747900663,187.82747813269117 619.5636397773914,186.89195064314694 M657.1421935975998,193.34916237078104 Q653.9506574243884,192.78051308994046 651.7886706709087,190.66635054132325 M651.7886706709087,190.66635054132325 Q649.6266839174291,188.55218799270605 649.1119092075633,185.42000409951143 M592.8413807281825,201.65876868684282 L650.0385707132789,178.7288806428662 M649.1119092075633,185.42000409951143 Q648.5971344976974,182.28782020631678 650.0385707132789,178.72888064286622 M618.4768931676746,142.31624828565637 L675.674083152771,119.38636024167974 M650.0385707132789,178.72888064286622 L675.674083152771,119.3863602416798 M675.6740831527709,119.38636024167975 Q677.5274061642021,115.06631559226946 680.2557791544482,113.40624245414817 M680.2557791544482,113.40624245414817 Q680.851602563035,113.04371488215013 681.4842344246147,112.7900979166514 M675.1024463927051,210.8306194062458 L722.8275806323986,191.69800143523932 M702.5112116990799,137.42949057583965 L722.8275806323984,191.6980014352393 M722.8275806323985,191.69800143523935 Q724.4747926760123,195.80725831174536 724.0114619231545,198.8247479797825 M724.0114619231545,198.8247479797825 Q723.5481311702968,201.8422376478197 721.4375883738252,203.13556693205015 M721.4375883738252,203.13556693205015 Q721.0154065349755,203.39427769421403 720.5540868922291,203.5792169851725 M720.5540868922291,203.5792169851725 Q718.7092086854378,204.31881364625877 716.2383973181584,203.87857890322513 M716.2383973181584,203.87857890322513 Q712.1201996392314,203.14482248581788 709.9067689287438,200.6042476181329 M709.9067689287438,200.6042476181329 Q707.693338218256,198.0636727504479 705.942903120841,192.98237373195258 M643.1860792412363,199.7785477238618 L700.3832692263327,176.84865967988517 M705.942903120841,192.98237373195258 L700.3832692263327,176.84865967988515 M650.3929251793584,207.1435501363619 L707.5901151644548,184.21366209238528 M700.3832692263327,176.84865967988517 L707.5901151644548,184.2136620923853 M607.9756231423249,199.5858829223673 L665.1728131274214,176.65599487839066 M707.5901151644548,184.2136620923853 L665.1728131274214,176.65599487839066 M615.2853569944632,194.8073599385777 L672.4825469795596,171.87747189460106 M665.1728131274213,176.65599487839066 L672.4825469795595,171.87747189460106 M625.3754105035333,202.68607544181307 L666.9229130850513,186.03001973436886 M672.4825469795596,171.87747189460106 L666.9229130850513,186.03001973436886 M666.9229130850513,186.03001973436886 Q665.0699252134051,190.4692818876328 663.1137142879578,192.26693435401796 M663.1137142879578,192.26693435401796 Q662.5199031240512,192.81261482716005 661.7363591015088,193.12673124999665 M661.7363591015088,193.12673124999662 Q659.9386492328608,193.8474185081363 657.1421935975998,193.34916237078104 M629.2871620748579,159.26594390053876 L686.4843520599543,136.33605585656213 M629.0813862468254,159.22927996496844 L686.2785762319219,136.2993919209918 M686.4843520599542,136.33605585656213 L686.2785762319219,136.2993919209918 M617.1386800058943,190.1298419173568 L674.3358699909908,167.19995387338017 M686.2785762319219,136.2993919209918 L674.3358699909908,167.19995387338017 M614.2558075747314,183.89273322964482 L671.4529975598278,160.9628451856682 M674.3358699909908,167.19995387338017 L671.4529975598278,160.9628451856682 M644.2156286609679,189.23079922363254 L701.4128186460644,166.3009111796559 M671.4529975598278,160.9628451856682 L701.4128186460644,166.3009111796559 M641.3330913695902,194.4406608696244 L698.5302813546866,171.51077282564776 M701.4128186460644,166.30091117965594 L698.5302813546865,171.5107728256478 M698.5302813546866,171.5107728256478 L686.4843520599543,136.33605585656215 M762.3623453780541,211.02347827580314 L742.1832437792691,207.42808377315762 M742.1832437792691,207.42808377315762 Q737.344495562444,206.56594386800413 734.8220659701227,203.195205540602 M734.8220659701227,203.195205540602 Q732.2996363778014,199.82446721319985 732.2996363778014,194.3397156203058 M732.2996363778014,194.3397156203058 L732.2996363778014,132.93347543853642 M732.2996363778014,132.93347543853642 Q732.2996363778014,127.44872384564235 734.8220659701227,124.97684907221412 M734.8220659701227,124.97684907221412 Q735.6864182807424,124.12982020826512 736.8227536091794,123.67427262160457 M784.30510073314,209.7105292693372 Q781.9075349168685,210.6716938957725 779.1955789326036,211.22077085418152 M779.1955789326036,211.22077085418152 Q771.8344011234572,212.7111538637899 762.3623453780541,211.02347827580314 M694.046222743726,165.6774451352102 L751.2434127288225,142.74755709123357 M724.7149108087981,201.91127744688816 L751.2434127288225,191.2762168930554 M751.2434127288225,142.74755709123357 L751.2434127288225,191.2762168930554 M751.2434127288225,191.2762168930554 L761.1270201302901,193.03722035218277 M761.12702013029,193.03722035218277 Q766.5834309709971,194.00941177729732 770.5472967788999,193.16564862486658 M770.5472967788999,193.16564862486658 Q771.886544305534,192.88057143766588 773.0729937630254,192.40493350445269 M773.0729937630254,192.40493350445269 Q775.3981628404393,191.47279214152368 777.1364800931401,189.80876377149102 M777.1364800931401,189.808763771491 Q779.7617975994774,187.29564207054617 781.0487343741422,182.99403388710874 M781.0487343741422,182.99403388710874 Q782.3356711488068,178.6924257036713 782.3356711488068,172.49195109490455 M782.3356711488068,172.49195109490455 Q782.3356711488068,160.0917781496226 777.085036136132,153.2540586639462 M777.085036136132,153.2540586639462 Q771.8344011234572,146.41633917826982 761.12702013029,144.50856055036095 M761.12702013029,144.50856055036095 L751.2434127288224,142.74755709123357" />
    <path class="edge outline hidden" d="M117.1133641825895,109.9444308177172 L141.25614579213524,100.26578612343573 M66.45688863618905,103.34422580345353 L94.7754861057752,91.99153051004413 M145.80721309569353,90.18975250186722 L180.85680433147039,76.13865657857238 M150.13445996396618,104.07528696460932 L194.24272246442484,86.39264344290163 M145.28630844490704,120.59380928804816 L202.48349843000346,97.66392124407153 M183.46213633132106,129.36827353892915 L220.51359859552872,114.51464380982398 M151.07013808498098,130.76872480943854 L201.51608364701335,110.54535571890557 M181.7418282336014,78.71692699783586 L231.67706255589655,58.698297887589085 M228.8853360972615,95.5617427781923 L269.52819458353986,79.26835152732184 M226.2568626475795,140.4746467226596 L270.1302262171556,122.88617227093926 M278.828137430433,126.69193770833485 L326.3155410544648,107.65462400670194 M242.13061977530734,106.37055692592484 L299.32780976040374,83.44066888194823 M278.82813743043306,147.57608276398486 L322.792400718212,129.95116735489995 M331.9503433491054,93.35952058450006 L361.154140885365,81.65195578735049 M319.482333141068,119.39321201915342 L371.38356225128496,98.58643159598668 M302.1542788604005,122.45645947335902 L359.3514688454969,99.52657142938239 M327.8349579214917,146.56585141953371 L350.41178340754135,137.5149857927712 M328.08475420102997,105.12365244360616 L378.59356401335594,84.87508158666512 M349.57134971625055,102.78256943967017 L406.768539701347,79.85268139569354 M366.11524439221944,123.64123516033072 L412.9934773158484,104.84813303558727 M363.33964855706483,160.62396766797076 L399.2551925360916,146.2257183362783 M391.3547497017124,133.93997888977458 L426.4043409374892,119.88888296647974 M395.681996569985,147.82551335251674 L439.79025907044377,130.142869830809 M390.8338450509259,164.34403567595558 L448.03103503602233,141.41414763197895 M425.472456853415,174.53654107209022 L466.0611352015476,158.26487019773137 M396.6176746909999,174.51895119734596 L447.0636202530322,154.29558210681296 M462.4016064907993,183.5438098995079 L507.5655258622279,165.43796212824702 M526.662583714447,178.52914735997598 L543.3939797248063,171.82166684499015 M553.1413112238964,142.93590210524016 L610.3385012089927,120.00601406126353 M592.1222775924202,203.87980756912123 L637.490232932134,185.6921634384422 M675.5727111926564,221.61188448376822 L720.5540868922291,203.57921698517248 M634.0401637753512,204.22991058867356 L661.7363591015087,193.12673124999665 M715.8758037779289,215.33482154842932 L773.0729937630254,192.40493350445274" />
    <path class="edge sharp visible" d="M32.66293820053221,115.20404420365861 Q28.853404263653715,114.52528368960682 26.485474112249165,112.01675990892079 M26.485474112249165,112.01675990892079 Q24.117543960844785,109.50823612823476 22.778995659279417,104.85779806594081 M22.778995659279417,104.85779806594081 L2.7027819745105717,36.53613653178351 M2.7027819745105717,36.53613653178353 Q1.0555699308968087,30.8770521051801 3.2691682112770764,27.51546483335804 M3.2691682112770764,27.51546483335804 Q4.221138677681799,26.06979520514215 5.810980202744477,25.43244067449386 M5.810980202744476,25.43244067449386 Q7.917966037512617,24.587767198155834 11.145288300181903,25.162792635470907 M63.0081701878409,2.5025526305172425 Q65.11515602260903,1.6578791541792242 68.34247828527828,2.2329045914943038 M11.145288300181903,25.162792635470907 Q14.954487097275262,25.84149343627257 17.116641420647454,28.313353281388302 M68.34247828527828,2.2329045914943038 Q72.15167708237169,2.9116053922959395 74.31383140574383,5.383465237411684 M20.514120991783614,35.41725950776265 L77.71131097688003,12.487371463786026 M17.116641420647454,28.313353281388302 Q19.27879574401959,30.78521312650399 20.514120991783614,35.41725950776265 M74.31383140574383,5.383465237411684 Q76.47598572911602,7.855325082527372 77.71131097688004,12.487371463786019 M20.514120991783614,35.41725950776265 L35.854474373743486,91.44859062022365 M77.71131097688004,12.487371463786019 L80.41502064746457,22.362792714683582 M35.85447437374353,91.44859062022365 L31.015391017133336,90.58639100182006 M31.015391017133368,90.58639100182006 L47.48818173284113,40.223340156480106 M47.4881817328411,40.22334015648012 Q48.92961794842256,36.06822350388613 51.091772271794696,34.36684372499812 M51.091772271794696,34.36684372499812 Q51.73581346089682,33.86005350930232 52.48944600884467,33.55792835323707 M52.489446008844666,33.557928353237074 Q54.26588436218667,32.84576867249451 56.65123859641057,33.270777162521 M109.68663599394111,10.628040309260452 Q111.46307434728308,9.915880628517876 113.84842858150698,10.340889118544368 M56.651238596410565,33.270777162521 Q60.04888573743932,33.876150092182016 62.10798457690282,36.329648112887526 M113.848428581507,10.340889118544368 Q117.24607572253569,10.946262048205398 119.3051745619992,13.399760068910908 M65.50529657814644,43.55268227324038 L122.70248656324286,20.622794229263754 M62.10798457690282,36.329648112887526 Q64.16708341636627,38.78314613359302 65.50529657814644,43.55268227324038 M119.3051745619992,13.399760068910908 Q121.3642734014627,15.85325808961639 122.70248656324284,20.622794229263732 M65.50529657814644,43.55268227324038 L80.94853787412248,99.483187562883 M122.70248656324284,20.622794229263732 L125.37640414477143,30.306872757307005 M80.94853787412251,99.48318756288299 L76.83034019519557,98.74943114547574 M76.8303401951955,98.74943114547574 L92.58258037300507,48.25799681238956 M92.5825803730051,48.257996812389564 Q93.81790562076918,44.06615651097516 95.92861598713324,42.35561074819455 M95.92861598713324,42.35561074819455 Q96.52287034691743,41.874019671871864 97.2517572531329,41.5818148422186 M97.2517572531329,41.5818148422186 Q99.11177713998624,40.83614800480526 101.84852515059077,41.32376578621562 M154.4489472382293,18.651926798241984 Q156.30896712508263,17.906259960828635 159.04571513568715,18.39387774223897 M101.84852515059077,41.32376578621562 Q106.5843854533997,42.167573723583914 108.79798373377992,46.317973029418866 M159.04571513568715,18.39387774223897 Q163.78157543849613,19.23768567960731 165.99517371887634,23.38808498544222 M109.26114691674519,55.522083832196174 L166.45833690184162,32.59219578821955 M108.79798373377992,46.317973029418866 Q111.01158201416018,50.46837233525379 109.26114691674519,55.522083832196174 M165.99517371887634,23.38808498544222 Q168.2087719992566,27.538484291277157 166.4583369018416,32.59219578821953 M109.26114691674519,55.522083832196174 L88.97915740394404,116.77250228779172 M166.4583369018416,32.59219578821953 L156.7890380754177,61.79291098023063 M88.97915740394404,116.7725022877917 Q87.64060910237879,120.82640498144158 85.32412290798237,122.50028680865186 M85.32412290798237,122.50028680865186 Q84.73913625886476,122.922995358993 84.05895580703881,123.19567416741234 M84.05895580703881,123.19567416741234 Q82.04569252176437,124.00277503629106 79.19843791649254,123.49546783506051 M79.19843791649254,123.49546783506051 Q75.28601606559795,122.79837535322356 72.96952987120153,120.29901755643012 M72.96952987120153,120.29901755643012 Q70.65304367680511,117.79965975963665 69.31483051502494,113.14928141059282 M69.31483051502494,113.14928141059282 L54.79825072476447,63.34565414895077 M54.79825072476444,63.345654148950786 L57.372124274093785,63.80425190983032 M42.54654560199981,108.49941062417497 L65.30067208109784,99.37746647202079 M57.372124274093835,63.80425190983033 L42.54654560199983,108.49941062417497 M42.54654560199981,108.49941062417497 Q41.10510938641835,112.53498135003967 38.84006714903006,114.21802916114255 M38.84006714903006,114.21802916114255 Q38.26269210195444,114.64704977414732 37.57829612067875,114.92141855402075 M37.57829612067875,114.92141855402075 Q35.57780675309861,115.72339846323885 32.66293820053221,115.20404420365861 M136.95642847527097,134.02476494100435 Q131.087795698929,132.97912621824895 126.60932275105296,129.67731190979148 M126.60932275105296,129.67731190979148 Q122.13084980317691,126.37549760133403 119.60842021085571,121.57389544637518 M119.60842021085571,121.57389544637518 Q117.08599061853442,116.7722932914163 117.08599061853442,111.16838390791871 M117.08599061853442,111.16838390791871 Q117.08599061853442,104.72959371794494 119.96869547980478,101.5469969133411 M119.96869547980478,101.5469969133411 Q121.38917155658994,99.97874666208216 123.65961434637397,99.06854462254898 M123.65961434637396,99.06854462254898 Q125.99679330700997,98.13158859516223 129.2346402573904,97.89193394551866 M129.2346402573904,97.89193394551866 Q135.6178801737057,97.41946778230002 146.22237325285658,99.30891444242374 M146.22237325285658,99.30891444242374 L151.88489506138114,100.31782951635871 M151.88489506138112,100.31782951635873 L151.88489506138112,110.33368224119286 M151.88489506138112,110.33368224119286 L146.22237325285656,109.32476716725789 M146.22237325285658,109.3247671672579 Q142.2070634879458,108.6093427176358 139.58174598160838,108.79733495730885 M139.58174598160838,108.79733495730885 Q138.0889610911335,108.90422944692125 137.04553247932841,109.32253148687823 M137.04553247932841,109.32253148687823 Q136.2539134438373,109.63988511669855 135.72093565761435,110.13647923268967 M135.72093565761435,110.13647923268965 Q134.48544283995776,111.28763126839742 134.48544283995776,113.43363590763818 M134.48544283995776,113.43363590763818 Q134.48544283995776,116.17620577214808 136.18409884057962,118.26739364778372 M136.18409884057962,118.26739364778372 Q137.88275484120146,120.35858152341935 141.07462615419792,120.92729051751006 M141.07462615419792,120.92729051751006 Q143.41451119904275,121.34419757285508 145.28630844490706,120.59380928804816 M145.2863084449071,120.59380928804816 Q145.4734881694935,120.51877045956748 145.6559870160901,120.43205867768528 M145.6559870160901,120.43205867768528 Q147.66347432865297,119.47822907698095 148.89896714630953,117.37323251225632 M148.89896714630953,117.37323251225632 Q150.13445996396615,115.26823594753172 150.13445996396615,112.16819271121122 M150.13445996396615,112.16819271121122 L150.13445996396615,98.33657373418393 M150.13445996396615,98.33657373418393 Q150.13445996396615,94.04417631957665 148.22986056541944,91.91629465174566 M148.22986056541944,91.91629465174566 Q146.32526116687274,89.78841298391464 141.69228877807993,88.96293701433147 M141.69228877807993,88.96293701433147 Q139.22130314276674,88.52267122123712 136.13265488357152,88.62810989262682 M136.13265488357152,88.62810989262682 Q133.04400662437632,88.73354856401654 129.2348078272829,89.72422124004152 M129.2348078272829,89.72422124004152 Q126.45482331013622,90.42125400862835 124.49877995458144,89.23805088592161 M124.49877995458144,89.23805088592161 Q122.54273659902665,88.05484776321487 121.46157565239432,85.83536596970819 M121.46157565239432,85.83536596970819 Q120.38041470576198,83.61588417620152 120.4320262326626,81.24037166014557 M120.4320262326626,81.24037166014557 Q120.48363775956318,78.86485914408965 121.77057453422782,76.9477652491629 M125.734272772238,74.31524690461407 L182.93146275733443,51.385358860637446 M121.77057453422782,76.9477652491629 Q122.79580718490412,75.42052063685229 124.7030842564916,74.65590877861695 M124.7030842564916,74.65590877861695 Q125.18994182476524,74.46073154112003 125.73427277223801,74.31524690461407 M181.90027424158802,51.72602073464033 Q182.38713180986167,51.5308434971434 182.93146275733446,51.38535886063744 M125.734272772238,74.31524690461407 Q130.6759089030793,73.04971413831194 134.84571810890685,73.07713744842702 M182.93146275733443,51.38535886063744 Q187.8730988881757,50.11982609433531 192.04290809400325,50.14724940445039 M134.84571810890685,73.07713744842702 Q139.0155273147344,73.10456075854214 142.5157272299943,73.7282059427382 M192.04290809400325,50.14724940445039 Q196.2127172998308,50.17467271456549 199.7129172150907,50.79831789876157 M142.5157272299943,73.7282059427382 Q150.95823355566554,75.23244242637314 156.46625592327328,79.01597845181698 M199.7129172150907,50.79831789876157 Q207.19978793771648,52.132284810339385 212.37890409622133,55.25875220778779 M156.46625592327328,79.01597845181698 Q161.97427829088107,82.79951447726083 164.70265128112717,89.06848018390889 M164.70265128112717,89.06848018390889 Q167.4310242713733,95.33744589055698 167.4310242713733,104.3992600183114 M167.4310242713733,104.3992600183114 L167.4310242713733,128.4850473013799 M167.4310242713733,128.4850473013799 Q167.4310242713733,133.7314833130669 165.2688699480011,136.08861907640008 M165.2688699480011,136.08861907640008 Q164.43730544937404,136.99517343195373 163.31640861043235,137.44453185380064 M163.31640861043235,137.44453185380064 Q161.52285690043618,138.1635521399722 158.98851794570203,137.71199842232602 M158.98851794570203,137.71199842232602 Q154.76743235275896,136.9599100371336 152.55400164227123,133.8231580803052 M152.55400164227123,133.8231580803052 Q150.34057093178353,130.68640612347681 150.34057093178353,125.4399701117898 M150.34057093178353,125.4399701117898 L150.34057093178353,122.33992687546932 M150.34057093178353,122.33992687546932 L150.95823355566557,124.11896373613128 M150.95823355566554,124.11896373613129 Q150.44345884579965,127.84301043614855 148.59030340426105,130.25520181608732 M148.59030340426105,130.25520181608732 Q146.91655777183658,132.4338613587495 144.31889366191695,133.4752437628822 M144.31889366191692,133.4752437628822 Q144.0404484710379,133.5868701741605 143.75138761754337,133.68542946891606 M143.75138761754337,133.68542946891606 Q140.76562727236433,134.703465741806 136.95642847527097,134.02476494100435 M204.3919154676996,146.0400262760481 Q196.6702948197116,144.6642329934095 191.67704716196968,141.03218948350622 M191.67704716196968,141.03218948350622 Q186.68379950422775,137.40014597360292 184.2128138689146,131.41535562424983 M184.2128138689146,131.41535562424983 Q181.7418282336014,125.43056527489676 181.7418282336014,117.08408602688928 M181.7418282336014,117.08408602688928 L181.7418282336014,97.64894580249015 M181.7418282336014,97.64894580249015 L178.2412931785565,97.02524090504396 M178.24129317855648,97.02524090504396 Q174.94686909132895,96.43825965641821 173.14515760679848,94.09020030710242 M173.14515760679848,94.09020030710242 Q171.3434461222679,91.74214095778665 171.3434461222679,87.92676284171922 M171.3434461222679,87.92676284171922 Q171.3434461222679,84.11099658952608 173.14515760679848,82.46474706880628 M173.14515760679848,82.46474706880628 Q173.73305071747285,81.9275807355771 174.47987257080015,81.6281859315657 M174.47987257080015,81.6281859315657 Q176.0218298945152,81.01002778759762 178.2412931785565,81.40547879671223 M178.24129317855648,81.40547879671223 L181.74182823360138,82.02918369415842 M181.7418282336014,82.02918369415842 L181.7418282336014,74.63635490710492 M181.7418282336014,74.6363549071049 Q181.7418282336014,69.3899188954179 184.1097583850059,67.06944706765503 M184.1097583850059,67.06944706765503 Q184.93492227663612,66.2608212039743 186.01015248140888,65.82977016417033 M186.01015248140888,65.82977016417033 Q188.02045479618465,65.02385632427074 190.90488509717088,65.53778727390501 M243.20734246650528,42.8998821201937 Q245.21764478128105,42.093968280294106 248.10207508226728,42.60789922992839 M190.90488509717088,65.53778727390501 Q195.3317465181463,66.32653959466774 197.69984423944334,69.49084921642398 M248.10207508226728,42.60789922992839 Q252.5289365032427,43.396651550691104 254.89703422453974,46.56096117244735 M197.69984423944334,69.49084921642398 Q200.0679419607403,72.65515883818023 200.0679419607403,77.90159484986722 M254.89703422453974,46.56096117244735 Q257.26513194583674,49.72527079420361 257.26513194583674,54.971706805890605 M200.0679419607403,85.29442363692073 L257.26513194583674,62.3645355929441 M200.0679419607403,77.90159484986722 L200.0679419607403,85.29442363692073 M257.26513194583674,54.971706805890605 L257.26513194583674,62.364535592944115 M200.0679419607403,85.29442363692073 L208.5101131466265,86.79860040730554 M257.26513194583674,62.36453559294411 L265.70730313172294,63.86871236332893 M208.51011314662654,86.79860040730556 Q211.9077602876553,87.40397333696659 213.70947177218582,89.69225972291773 M265.70730313172294,63.868712363328925 Q269.1049502727517,64.47408529298997 270.9066617572822,66.76237167894111 M213.70947177218582,89.69225972291773 Q215.51118325671638,91.98054610886888 215.51118325671638,95.79631236106204 M270.9066617572822,66.76237167894111 Q272.70837324181275,69.05065806489225 272.70837324181275,72.8664243170854 M215.51118325671638,95.79631236106204 Q215.51118325671638,99.61169047712944 213.70947177218582,101.31771296121387 M272.70837324181275,72.8664243170854 Q272.70837324181275,76.14995664282728 271.37395284849623,77.87121487738267 M213.70947177218582,101.31771296121387 Q213.1089012773423,101.88638712257536 212.33100459844346,102.19823957129846 M212.33100459844349,102.19823957129846 Q210.77521124064572,102.82194446874463 208.51011314662654,102.41836251563728 M208.51011314662654,102.41836251563728 L200.06794196074034,100.91418574525247 M200.0679419607403,100.91418574525247 L200.0679419607403,119.63399108990468 M200.0679419607403,119.63399108990467 Q200.0679419607403,124.04593443124122 201.8696534452709,126.45357267585878 M201.8696534452709,126.45357267585878 Q203.67136492980137,128.8612109204763 207.58345164091097,129.55824368906315 M207.58345164091097,129.55824368906315 Q209.02488785649237,129.8150703778057 210.36326858816514,129.6956737342017 M212.8340866535858,129.7780481627347 L220.20668336534104,126.82243413277997 M210.36326858816514,129.6956737342017 Q211.7016493198379,129.57627709059773 212.8340866535858,129.7780481627347 M212.8340866535858,129.7780481627347 Q214.48163383698463,129.95244070969414 215.51118325671638,131.3878128876345 M215.51118325671638,131.3878128876345 Q216.5407326764481,132.82318506557488 216.5407326764481,137.23512840691143 M216.5407326764481,137.23512840691143 Q216.5407326764481,140.81219094177177 215.61407117073253,143.09137105708047 M215.61407117073253,143.09137105708047 Q214.81263859980308,145.06254302025874 212.9330362320592,145.8160603149159 M212.93303623205924,145.8160603149159 Q212.63933641142293,145.93380218313496 212.31931194371995,146.02181373476319 M212.31931194371995,146.02181373476319 Q210.87821086792357,146.3612238484141 208.4072252326104,146.33820439049498 M208.4072252326104,146.33820439049498 Q205.9362395972972,146.31518493257582 204.3919154676996,146.0400262760481 M249.28020314004624,154.03795928313713 Q240.01425836246062,152.38700734397082 233.27074317719627,147.4296879610258 M233.27074317719627,147.4296879610258 Q226.5272279919319,142.4723685780808 222.92380502287082,134.9145222243358 M222.92380502287082,134.9145222243358 Q219.32038205380977,127.3566758705908 219.32038205380977,117.9373883710258 M219.32038205380977,117.9373883710258 Q219.32038205380977,108.87518610714565 222.76930558195406,102.6336586389252 M222.76930558195406,102.6336586389252 Q226.21822911009835,96.39213117070474 232.24119375746452,93.59011676570583 M232.24119375746452,93.59011676570583 Q232.72148648681832,93.36667412158305 233.21258103364318,93.1697983138618 M233.21258103364318,93.16979831386179 Q238.87990803531852,90.89781303467443 245.9857790528187,92.1638956433455 M290.40977101873955,70.23991026988516 Q296.0770980204149,67.96792499069781 303.18296903791503,69.23400759936887 M245.9857790528187,92.16389564334551 Q251.64830086134327,93.1728107172805 256.28127325013605,96.08490649886552 M303.1829690379151,69.23400759936888 Q308.8454908464397,70.24292267330385 313.4784632352325,73.15501845488889 M256.28127325013605,96.08490649886552 Q260.9142456389289,98.99700228045054 264.2086697261564,103.57848646717476 M313.4784632352325,73.15501845488889 Q318.1114356240253,76.06711423647393 321.40585971125284,80.64859842319812 M264.2086697261564,103.57848646717476 Q267.5030938133839,108.15997065389897 269.2019173838983,114.06676057028994 M321.40585971125284,80.64859842319812 Q322.532676442331,82.21563803257506 323.4728243747009,83.93772473919645 M269.2019173838983,114.06676057028994 Q270.90074095441264,119.9735504866809 270.90074095441264,126.88897183906882 M270.90074095441264,126.88897183906882 Q270.90074095441264,129.27368019564238 269.76830362066477,130.20468440649043 M269.76830362066477,130.20468440649043 Q269.4851654896148,130.43745913441887 269.1183510693684,130.58451205067854 M269.1183510693684,130.58451205067854 Q268.01805704150956,131.0256109732101 266.16488065160377,130.69542282424408 M266.1648806516037,130.6954228242441 L234.66073543576962,125.08219817372864 M234.66073543576962,125.08219817372864 L234.66073543576962,115.06634544889451 M234.66073543576962,115.06634544889451 L257.51659849790013,119.13866968020471 M257.51659849790013,119.13866968020471 L255.86938645428637,120.39539474211496 M255.86938645428637,120.39539474211496 Q255.86938645428637,115.9834514007784 254.83983703455465,113.05763649997957 M254.83983703455465,113.05763649997957 Q253.81028761482287,110.13182159918073 251.8026327323675,108.34324554681297 M251.8026327323675,108.34324554681297 Q249.79497784991213,106.55466949444519 246.80921750473306,106.02268414917492 M246.80921750473306,106.02268414917492 Q244.17093634349243,105.55261061606338 242.1306197753073,106.37055692592486 M242.13061977530734,106.37055692592486 Q241.70275962759487,106.54208257758854 241.3011951371253,106.77024925567116 M241.3011951371253,106.77024925567116 Q238.98470894272887,108.08646364300799 237.74921612507228,111.20488363205122 M237.74921612507228,111.20488363205122 Q236.51372330741572,114.32330362109445 236.51372330741572,119.3314240515744 M236.51372330741572,119.3314240515744 L236.51372330741572,120.40462043925766 M236.51372330741572,120.40462043925766 Q236.51372330741572,128.87025747786868 239.75687100752768,133.08474402938901 M239.75687100752768,133.08474402938901 Q243.00001870763967,137.29923058090938 249.79497784991213,138.50991672698132 M249.79497784991213,138.50991672698132 Q252.05985251740788,138.91345887125524 254.99416890557887,138.7805222481878 M254.99416890557887,138.7805222481878 Q257.9284852937499,138.64758562512034 260.6052467570953,137.93216117549824 M260.6052467570953,137.93216117549824 Q263.28200822044084,137.21673672587616 265.23821914588814,138.3401967418433 M265.23821914588814,138.3401967418433 Q267.19443007133543,139.46365675781047 268.27542344807523,141.50456607684967 M268.27542344807523,141.50456607684967 Q269.3564168248151,143.54547539588887 269.45930473883124,145.88874275688298 M269.45930473883124,145.88874275688298 Q269.5621926528474,148.23201011787705 268.53264323311566,150.25454268419352 M268.53264323311566,150.25454268419352 Q267.60598172740004,152.0749536691756 265.59521073311555,152.88105539887655 M265.59521073311555,152.88105539887655 Q265.37195333881346,152.97055747157754 265.135331231872,153.04755531673766 M265.135331231872,153.04755531673766 Q261.53190826281093,154.31320750954 257.46515454089206,154.5424616050422 M257.46515454089206,154.5424616050422 Q253.3984008189732,154.77171570054438 249.28020314004624,154.03795928313713 M288.1973052618199,160.73366573172865 Q283.6672207870432,159.92652172993064 281.2476791087381,156.75304612428184 M281.2476791087381,156.75304612428184 Q278.828137430433,153.579570518633 278.828137430433,148.333134506946 M278.828137430433,148.333134506946 L278.828137430433,108.86628883287861 M278.828137430433,108.8662888328786 Q278.828137430433,103.73901061179512 281.1446236248294,101.40937280013966 M281.1446236248294,101.40937280013966 Q281.97568981294927,100.57358831736755 283.0651825337605,100.13681955093973 M283.06518253376044,100.13681955093972 Q285.0125055115451,99.35615361476879 287.7854184659702,99.85021505471192 M340.2623725188569,77.20693150696312 Q342.20969549664153,76.42626557079214 344.98260845106665,76.92032701073528 M287.78541846597017,99.85021505471191 Q292.1093919729294,100.62063540768948 294.37443421031776,103.7665832050355 M344.9826084510666,76.92032701073528 Q349.30658195802584,77.69074736371286 351.5716241954142,80.83669516105888 M294.37443421031776,103.7665832050355 Q296.6394764477061,106.91253100238154 296.6394764477061,112.039809223465 M351.5716241954142,80.83669516105888 Q352.15209215131677,81.642914955621 352.5838021537172,82.57925976691855 M296.6394764477061,112.039809223465 L296.6394764477061,116.92838372721567 M296.6394764477061,116.92838372721567 L295.6099270279744,116.74494462286385 M295.6099270279743,116.74494462286385 Q296.6394764477061,109.77425865749497 300.9121735675498,106.36230325920127 M311.5679430338162,103.84894270525596 L330.24092283476483,96.36309704754524 M300.9121735675498,106.36230325920127 Q302.3200040325015,105.23808251056323 303.95695090026857,104.58184383132712 M303.95695090026857,104.58184383132712 Q307.28805831273434,103.2464299753282 311.5679430338162,103.84894270525596 M311.5679430338162,103.84894270525596 Q314.5537033789953,104.26177025992271 316.04658355158483,106.3758730952898 M317.6423516381905,113.51642832892198 L318.2835634929549,113.25937171397203 M316.04658355158483,106.3758730952898 Q317.5394637241743,108.48997593065688 317.6423516381905,113.51642832892198 M317.6423516381905,113.51642832892198 Q317.6423516381905,117.80882574352924 316.0980275085929,120.03753323417862 M316.0980275085929,120.03753323417862 Q315.41449987473396,121.0239732751331 314.18637226618847,121.5163196399633 M314.1863722661885,121.5163196399633 Q312.63973700319633,122.13635313172257 310.229394732251,121.97277995714018 M310.22939473225097,121.97277995714018 L307.861632150739,121.78960956241389 M307.861632150739,121.78960956241389 Q304.41092177460257,121.55178969165523 302.1542788604005,122.456459473359 M302.15427886040044,122.456459473359 Q300.8424023078179,122.98238010837748 299.93406810482605,123.8944120590756 M299.9340681048261,123.89441205907562 Q297.4632500394055,126.37528860495864 297.4632500394055,132.0987439151855 M297.4632500394055,132.0987439151855 L297.4632500394055,151.65343006631392 M297.4632500394055,151.65343006631392 Q297.4632500394055,156.8998660780009 295.0951523181085,159.22030804913874 M295.0951523181085,159.22030804913874 Q294.28223698838866,160.0168642187169 293.2145934224449,160.4448738367478 M293.2145934224449,160.44487383674783 Q291.17209229897776,161.26369591704582 288.1973052618199,160.73366573172862 M336.9980147850612,169.4286912206546 Q332.57081822430064,168.63987918664176 330.20288807289614,165.47559942151057 M330.20288807289614,165.47559942151057 Q327.83495792149165,162.3113196563794 327.83495792149165,157.06488364469237 M327.83495792149165,157.06488364469237 L327.83495792149165,123.67896665266241 M327.83495792149165,123.67896665266244 L325.15819645814616,123.20203692399775 M325.15819645814616,123.20203692399774 Q321.8634372311336,122.61499596212187 320.06172574660303,120.26693661280609 M320.06172574660303,120.26693661280609 Q318.2600142620725,117.91887726349032 318.2600142620725,114.1034991474229 M318.2600142620725,114.1034991474229 Q318.2600142620725,110.28773289522975 320.06172574660303,108.64148337450995 M320.06172574660303,108.64148337450995 Q320.64957856855,108.10435385366654 321.3963740282595,107.80496963064175 M321.3963740282595,107.80496963064175 Q322.93843371412476,107.18677045052061 325.15819645814616,107.58227481566601 M325.15819645814616,107.58227481566601 L333.0855929341665,108.99473203387493 M333.0855929341665,108.99473203387493 L327.8349579214917,113.66311392782829 M327.83495792149165,113.6631139278283 L327.83495792149165,110.324366974175 M327.83495792149165,110.324366974175 Q327.83495792149165,97.08931322241685 333.5489236870243,91.48986740436531 M350.58793306960604,86.59673976529344 L407.78512305470247,63.66685172131681 M333.5489236870243,91.48986740436531 Q335.7588266965278,89.3242555206703 338.8080301503384,88.10185466780669 M338.8080301503384,88.10185466780669 Q343.64290308915287,86.1635934486322 350.58793306960604,86.59673976529344 M396.0052201354349,65.17196662383004 Q400.8400930742493,63.23370540465557 407.78512305470247,63.6668517213168 M353.57369341478505,86.77086360262737 L410.7708833998815,63.84097555865075 M350.58793306960604,86.59673976529344 L353.57369341478505,86.77086360262737 M407.78512305470247,63.6668517213168 L410.7708833998815,63.84097555865074 M353.57369341478505,86.77086360262737 Q356.8681175020126,86.88082555271326 358.8243284274599,88.60065672588667 M410.7708833998815,63.84097555865074 Q414.065307487109,63.950937508736644 416.0215184125563,65.67076868191006 M358.8243284274599,88.60065672588667 Q360.7805393529072,90.32048789906011 361.50125746069796,92.6546788460368 M416.0215184125563,65.67076868191006 Q417.97772933800366,67.3905998550835 418.69844744579433,69.72479080206017 M361.50125746069796,92.6546788460368 Q362.22197556848863,94.98886979301346 361.861532729647,97.30935654908887 M418.69844744579433,69.72479080206017 Q419.41916555358506,72.05898174903683 419.05872271474345,74.37946850511224 M361.861532729647,97.30935654908887 Q361.5010898908054,99.62984330516426 360.2655970731488,101.07908388544372 M419.05872271474345,74.37946850511224 Q418.6982798759018,76.69995526118763 417.4627870582452,78.1491958414671 M360.2655970731488,101.07908388544372 Q359.6478820810122,101.80366732361325 358.8242865259321,102.13384007993965 M358.8242865259321,102.13384007993963 Q358.00060719549293,102.46404642112579 356.97100541602873,102.39976183822662 M417.4627870582452,78.1491958414671 Q416.8450720661086,78.87377927963662 416.02147651102854,79.203952035963 M356.97100541602873,102.39976183822662 L355.52990434023235,102.26254078946344 M355.52990434023235,102.26254078946344 Q351.70290645550705,101.92804568765942 349.5713497162505,102.78256943967017 M349.57134971625055,102.78256943967017 Q348.7782273327972,103.10052574945557 348.219835348309,103.5830993157461 M348.219835348309,103.5830993157461 Q346.1607365088455,105.362613882409 346.1607365088455,109.53585350641274 M403.56545663093215,84.1974690496236 Q403.35792649394193,85.28108922216717 403.35792649394193,86.60596546243613 M346.1607365088455,109.53585350641274 L346.1607365088455,113.47038941308367 M403.35792649394193,86.60596546243612 L403.35792649394193,88.39449672986629 M346.1607365088455,113.47038941308368 L343.8958618413497,110.92084262956897 M343.89586184134976,110.92084262956897 L352.0293692851875,112.37002349659831 M403.357926493942,88.39449672986629 L409.22655927028393,89.44013545262169 M352.02936928518744,112.37002349659832 Q355.4266812864311,112.97533671300923 357.1769488139536,115.2544571150678 M409.2265592702839,89.44013545262169 Q412.62387127152755,90.0454486690326 414.37413879905,92.32456907109116 M357.1769488139536,115.2544571150678 Q358.9272163414761,117.53357751712636 358.9272163414761,121.34934376931952 M414.37413879905,92.32456907109116 Q416.12440632657245,94.60368947314973 416.12440632657245,98.41945572534289 M358.9272163414761,121.34934376931952 Q358.9272163414761,125.16472188538692 357.1769488139536,126.87991035336394 M416.12440632657245,98.41945572534289 Q416.12440632657245,99.29061816092256 416.03315744553,100.05228878890613 M357.1769488139536,126.87991035336394 Q356.581827087173,127.46310458325489 355.79628733075197,127.7780210795639 M355.79628733075197,127.7780210795639 Q354.27153548568924,128.3892816871435 352.02936928518744,127.98978560493003 M352.02936928518744,127.98978560493003 L346.1607365088455,126.94414688217464 M346.1607365088455,126.94414688217464 L346.1607365088455,160.3300638742046 M346.1607365088455,160.3300638742046 Q346.16073650884556,167.51085372103788 342.0580025509952,169.15560638025494 M342.0580025509952,169.1556063802549 Q340.02948789518587,169.96882139947866 336.9980147850612,169.42869122065463 M382.50396508128983,177.77499132891177 Q376.6353323049479,176.72935260615634 372.1568593570718,173.4275382976989 M372.1568593570718,173.4275382976989 Q367.6783864091958,170.12572398924144 365.15595681687455,165.32412183428255 M365.15595681687455,165.32412183428255 Q362.6335272245533,160.5225196793237 362.6335272245533,154.9186102958261 M362.6335272245533,154.9186102958261 Q362.6335272245533,148.47982010585233 365.5162320858236,145.29722330124852 M365.5162320858236,145.29722330124852 Q366.9367081626088,143.72897304998958 369.2071509523928,142.8187710104564 M369.2071509523928,142.81877101045637 Q371.54432991302883,141.88181498306963 374.78217686340923,141.64216033342606 M374.78217686340923,141.64216033342606 Q381.1654167797245,141.16969417020744 391.76990985887545,143.05914083033116 M391.76990985887545,143.05914083033116 L397.4324316674,144.06805590426615 M397.43243166739995,144.06805590426612 L397.43243166739995,154.08390862910025 M397.43243166739995,154.08390862910028 L391.7699098588754,153.0749935551653 M391.76990985887545,153.0749935551653 Q387.75460009396465,152.3595691055432 385.12928258762724,152.54756134521625 M385.12928258762724,152.54756134521625 Q383.6364976971524,152.65445583482864 382.5930690853473,153.0727578747856 M382.59306908534734,153.07275787478562 Q381.80145004985616,153.39011150460593 381.2684722636332,153.88670562059704 M381.2684722636332,153.88670562059704 Q380.03297944597665,155.03785765630482 380.03297944597665,157.18386229554557 M380.03297944597665,157.18386229554557 Q380.03297944597665,159.92643216005547 381.7316354465985,162.01762003569112 M381.7316354465985,162.01762003569112 Q383.4302914472203,164.10880791132675 386.6221627602168,164.67751690541746 M386.6221627602168,164.67751690541746 Q388.9620478050616,165.09442396076247 390.8338450509259,164.34403567595558 M390.8338450509259,164.34403567595555 Q391.02102477551233,164.26899684747488 391.20352362210895,164.18228506559268 M391.20352362210895,164.18228506559268 Q393.2110109346718,163.22845546488836 394.4465037523284,161.12345890016374 M394.4465037523284,161.12345890016374 Q395.68199656998496,159.01846233543912 395.68199656998496,155.9184190991186 M395.68199656998496,155.9184190991186 L395.68199656998496,142.08680012209132 M395.68199656998496,142.08680012209132 Q395.68199656998496,137.79440270748407 393.7773971714383,135.66652103965305 M393.7773971714383,135.66652103965305 Q391.8727977728916,133.53863937182203 387.23982538409876,132.71316340223888 M387.23982538409876,132.71316340223888 Q384.7688397487856,132.2728976091445 381.6801914895904,132.37833628053423 M381.6801914895904,132.37833628053423 Q378.5915432303952,132.48377495192395 374.7823444333018,133.47444762794893 M374.7823444333018,133.47444762794893 Q372.00235991615506,134.17148039653574 370.0463165606003,132.98827727382903 M370.0463165606003,132.98827727382903 Q368.0902732050455,131.80507415112228 367.00911225841315,129.58559235761558 M367.00911225841315,129.58559235761558 Q365.9279513117808,127.36611056410891 365.97956283868143,124.99059804805297 M365.97956283868143,124.99059804805297 Q366.03117436558205,122.61508553199704 367.3181111402467,120.6979916370703 M371.28180937825687,118.06547329252147 L428.4789993633533,95.13558524854486 M367.3181111402467,120.6979916370703 Q368.343343790923,119.17074702475969 370.25062086251046,118.40613516652435 M370.25062086251046,118.40613516652435 Q370.7374784307841,118.21095792902743 371.28180937825687,118.06547329252147 M427.4478108476069,95.47624712254773 Q427.93466841588054,95.28106988505081 428.4789993633533,95.13558524854486 M371.28180937825687,118.06547329252147 Q376.22344550909816,116.79994052621933 380.3932547149257,116.82736383633443 M428.4789993633533,95.13558524854486 Q433.4206354941946,93.8700524822427 437.59044470002215,93.8974757923578 M380.3932547149257,116.82736383633443 Q384.5630639207533,116.85478714644952 388.0632638360131,117.4784323306456 M437.59044470002215,93.8974757923578 Q440.623088178209,93.91742037937982 443.3015453086182,94.25273342233659 M388.0632638360131,117.4784323306456 Q396.5057701616844,118.98266881428053 402.0137925292922,122.76620483972438 M402.0137925292922,122.76620483972438 Q407.5218148968999,126.54974086516822 410.25018788714607,132.8187065718163 M410.25018788714607,132.8187065718163 Q412.97856087739217,139.08767227846437 412.97856087739217,148.14948640621878 M412.97856087739217,148.14948640621878 L412.97856087739217,172.23527368928728 M412.97856087739217,172.23527368928728 Q412.97856087739217,177.48170970097428 410.81640655402,179.83884546430747 M410.81640655402,179.83884546430747 Q409.9848420553929,180.7453998198611 408.8639452164512,181.194758241708 M408.8639452164512,181.19475824170803 Q407.07039350645505,181.9137785278796 404.5360545517209,181.4622248102334 M404.5360545517209,181.4622248102334 Q400.3149689587778,180.710136425041 398.10153824829007,177.5733844682126 M398.10153824829007,177.5733844682126 Q395.8881075378024,174.4366325113842 395.8881075378024,169.1901964996972 M395.8881075378024,169.1901964996972 L395.8881075378024,166.09015326337672 M395.8881075378024,166.09015326337672 L396.50577016168444,167.86919012403868 M396.5057701616844,167.86919012403868 Q395.99099545181855,171.59323682405594 394.1378400102799,174.0054282039947 M394.1378400102799,174.0054282039947 Q392.4640943778554,176.1840877466569 389.8664302679358,177.2254701507896 M389.86643026793575,177.2254701507896 Q389.58798507705677,177.3370965620679 389.29892422356227,177.43565585682344 M389.29892422356227,177.43565585682344 Q386.3131638783832,178.45369212971343 382.50396508128983,177.77499132891177 M442.62971822158016,188.48784696570766 Q432.7461108201125,186.72684350658028 428.0615269044191,179.75166411914026 M428.0615269044191,179.75166411914026 Q423.37694298872566,172.77648473170026 423.37694298872566,160.37592365029255 M423.37694298872566,160.37592365029255 L423.37694298872566,109.34300956516788 M423.37694298872566,109.34300956516789 Q423.37694298872566,104.0965735534809 425.7450407100227,101.77613158234308 M425.7450407100227,101.77613158234308 Q426.5829537866473,100.95508072211929 427.6657393358601,100.52100080620812 M427.66573933586017,100.5210008062081 Q429.6431065199994,99.72829039218321 432.437111938279,100.22610996418284 M484.8629293209566,77.59111276223149 Q486.8402965050958,76.7984023482066 489.63430192337535,77.29622192020622 M432.437111938279,100.22610996418284 Q436.86430849903945,101.01492199819569 439.283682607452,104.18836774721944 M489.63430192337535,77.29622192020622 Q494.0614984841359,78.08503395421906 496.48087259254845,81.25847970324281 M439.283682607452,104.18836774721944 Q441.7030567158646,107.36181349624322 441.7030567158646,112.6082495079302 M496.48087259254845,81.25847970324281 Q498.900246700961,84.4319254522666 498.900246700961,89.67836146395358 M441.7030567158646,112.6082495079302 L441.7030567158646,162.92582871330794 M498.900246700961,89.67836146395358 L498.900246700961,92.7107067774984 M441.7030567158646,162.92582871330794 Q441.7030567158646,167.33738391851875 443.1959368884541,169.630417507854 M443.1959368884541,169.630417507854 Q444.6888170610436,171.92345109718926 447.05657964255556,172.34532520924836 M447.05657964255556,172.34532520924836 Q447.77746532023883,172.4737684102447 448.54962738503764,172.43241698454037 M450.248450955552,172.43701490479918 L459.23937982915317,168.8326246797418 M448.54962738503764,172.43241698454037 Q449.32178944983644,172.3910655588361 450.248450955552,172.43701490479918 M450.248450955552,172.43701490479918 Q451.99855091318193,172.74883749689724 452.8736008919969,174.4547704111065 M452.8736008919969,174.4547704111065 Q453.74865087081184,176.16070332531575 453.74865087081184,180.9301200384629 M453.74865087081184,180.9301200384629 Q453.74865087081184,185.10335966246663 452.307382225123,186.93318264235103 M452.307382225123,186.93318264235103 Q451.5507117879124,187.89384529073968 450.3683358771315,188.36785017222363 M450.3683358771315,188.3678501722236 Q449.29858028676836,188.79670648365843 447.880353234255,188.82719736610846 M447.880353234255,188.82719736610846 Q447.05657964255556,188.79957998793054 445.51225551295795,188.76293098067273 M445.51225551295795,188.76293098067273 Q443.9679313833604,188.72628197341496 442.62971822158016,188.48784696570766 M478.4581720841586,194.8715516824508 Q468.57456468269095,193.1105482233234 463.8899807669975,186.1353688358834 M463.8899807669975,186.1353688358834 Q459.20539685130404,179.1601894484434 459.20539685130404,166.7596283670357 M459.20539685130404,166.7596283670357 L459.20539685130404,115.72671428191103 M459.20539685130404,115.72671428191103 Q459.20539685130404,110.48027827022403 461.57349457260113,108.15983629908621 M461.57349457260113,108.15983629908621 Q462.41140764922574,107.33878543886242 463.49419319843855,106.90470552295125 M463.49419319843855,106.90470552295125 Q465.4715603825778,106.11199510892635 468.2655658008574,106.60981468092598 M520.691383183535,83.97481747897463 Q522.6687503676742,83.18210706494972 525.4627557859537,83.67992663694935 M468.2655658008574,106.60981468092598 Q472.6927623616179,107.39862671493883 475.11213647003046,110.57207246396257 M525.4627557859537,83.67992663694935 Q529.8899523467144,84.4687386709622 532.3093264551269,87.64218441998595 M475.11213647003046,110.57207246396257 Q477.531510578443,113.74551821298635 477.531510578443,118.99195422467334 M532.3093264551269,87.64218441998595 Q534.7287005635394,90.81563016900972 534.7287005635394,96.06206618069672 M477.531510578443,118.99195422467334 L477.531510578443,169.3095334300511 M534.7287005635394,96.06206618069672 L534.7287005635394,129.32275129065113 M477.531510578443,169.3095334300511 Q477.531510578443,173.72108863526188 479.0243907510325,176.01412222459714 M479.0243907510325,176.01412222459714 Q480.51727092362205,178.30715581393238 482.885033505134,178.72902992599148 M482.885033505134,178.72902992599148 Q483.6059191828173,178.85747312698783 484.378081247616,178.81612170128352 M486.07690481813046,178.82071962154234 L523.9748491388441,163.62774212391957 M484.378081247616,178.81612170128352 Q485.1502433124149,178.77477027557921 486.07690481813046,178.82071962154234 M486.07690481813046,178.82071962154234 Q487.8270047757604,179.13254221364036 488.70205475457533,180.83847512784962 M488.70205475457533,180.83847512784962 Q489.5771047333903,182.5444080420589 489.5771047333903,187.31382475520604 M489.5771047333903,187.31382475520604 Q489.5771047333903,191.48706437920978 488.13583608770136,193.31688735909415 M488.13583608770136,193.31688735909415 Q487.37916565049085,194.2775500074828 486.19678973970997,194.75155488896675 M486.1967897397099,194.75155488896678 Q485.1270341493468,195.18041120040158 483.7088070968334,195.21090208285162 M483.7088070968334,195.21090208285162 Q482.885033505134,195.18328470467367 481.3407093755364,195.1466356974159 M481.3407093755364,195.1466356974159 Q479.7963852459388,195.10998669015808 478.4581720841586,194.8715516824508 M562.366449792295,209.82183868712355 Q550.3208556373477,207.67562505150738 541.6725734836441,200.7691308300116 M541.6725734836441,200.7691308300116 Q533.0242913299405,193.86263660851583 528.4427628981558,183.26898354726103 M528.4427628981558,183.26898354726103 Q523.8612344663711,172.67533048600626 523.8612344663711,159.5594345248516 M523.8612344663711,159.5594345248516 Q523.8612344663711,149.7822855173503 526.4865519727085,142.26123745398837 M526.4865519727085,142.26123745398837 Q529.1118694790459,134.74018939062645 534.1052847066803,129.9066257185438 M534.1052847066803,129.9066257185438 Q537.6989428222921,126.42800947582153 542.4123770069983,124.53843206500595 M542.4123770069983,124.53843206500595 Q544.2482953970732,123.80242732153404 546.2541019154289,123.30750545201252 M599.6095669920946,101.60854402102933 Q601.4454853821695,100.87253927755742 603.4512919005252,100.3776174080359 M546.2541019154289,123.30750545201252 Q553.4095038965429,121.54194885756391 562.366449792295,123.13784518012463 M603.4512919005252,100.3776174080359 Q610.6066938816393,98.61206081358728 619.5636397773914,100.20795713614801 M562.366449792295,123.13784518012463 Q567.1023100951039,123.98165311749295 572.1986132367546,126.14161572894798 M619.5636397773914,100.20795713614801 Q624.2995000802003,101.05176507351632 629.395803221851,103.21172768497136 M581.2073382292998,131.50253696941706 L638.4045282143962,108.57264892544043 M572.1986132367546,126.14161572894798 Q577.2949163784051,128.30157834040304 581.2073382292998,131.50253696941706 M629.395803221851,103.21172768497136 Q634.4921063635015,105.37169029642641 638.4045282143961,108.57264892544043 M581.2073382292998,131.50253696941706 Q584.0898755206777,133.80466190108226 585.2224804243181,136.7488386262913 M638.4045282143961,108.57264892544043 Q641.2870655057741,110.87477385710562 642.4196704094145,113.81895058231467 M585.2224804243181,136.7488386262913 Q586.3550853279585,139.69301535150035 585.9946424891168,142.49052140611562 M642.4196704094145,113.81895058231467 Q643.5522753130549,116.76312730752373 643.1918324742132,119.56063336213899 M585.9946424891168,142.49052140611562 Q585.6341996502751,145.2880274607309 584.1929310045863,147.29678119458342 M643.1918324742132,119.56063336213899 Q642.8313896353716,122.35813941675426 641.3901209896827,124.36689315060678 M584.1929310045863,147.29678119458342 Q583.1447808557564,148.7576299623674 581.6609533509077,149.3524843349619 M581.6609533509077,149.3524843349619 Q581.1044299950171,149.57559001983478 580.4866201215091,149.67687670258564 M641.3901209896827,124.36689315060678 Q640.3419708408528,125.82774191839076 638.8581433360041,126.42259629098528 M580.4866201215091,149.67687670258564 Q578.2215778841207,150.04821847673531 575.5448164207752,148.02146119797325 M575.5448164207752,148.02146119797325 Q572.4561681615801,145.8017704080912 569.418963859393,144.36635344521324 M569.418963859393,144.36635344521324 Q566.3817595572058,142.93093648233528 563.0870003301932,142.3438955204594 M563.0870003301932,142.3438955204594 Q557.223870553971,141.29923729013484 553.1413112238964,142.93590210524016 M553.1413112238964,142.93590210524013 Q552.7792697081716,143.0810416029149 552.4312308639268,143.24726742481695 M552.4312308639268,143.24726742481695 Q548.158533744083,145.28793789085572 545.9965469906034,150.26832151665744 M545.9965469906034,150.26832151665744 Q543.8345602371237,155.2487051424592 543.8345602371237,163.1181650919268 M543.8345602371237,163.1181650919268 Q543.8345602371237,170.9880131775202 545.9965469906034,176.7983960516013 M601.0490549142818,141.5799521817345 Q601.2251733723607,148.57795373897716 603.1937369756998,153.86850800762463 M545.9965469906034,176.7983960516013 Q548.158533744083,182.60877892568237 552.4312308639268,186.1720178431412 M603.1937369756997,153.86850800762465 Q605.3200766451017,159.58308862644097 609.4880972278411,163.12401671629354 M552.4312308639268,186.1720178431412 Q556.7039279837704,189.73525676060004 563.0870003301932,190.87255532228124 M563.0870003301932,190.87255532228124 Q565.7640969333237,191.34954476419603 568.852745192519,191.12494830220277 M574.9268186571081,189.76290399540306 L602.8090004146538,178.58516420977864 M568.852745192519,191.12494830220277 Q571.9413934517141,190.90035184020954 574.9268186571081,189.76290399540306 M574.9268186571081,189.76290399540306 Q578.0154669163034,188.76300562223537 580.4350085946085,189.90963437924697 M580.4350085946085,189.90963437924697 Q582.8545502729136,191.05626313625856 584.347430445503,193.46845451619734 M584.347430445503,193.46845451619734 Q585.8403106180926,195.88064589613612 586.2520298440497,198.7559583156506 M586.2520298440497,198.7559583156506 Q586.6637490700069,201.6312707351651 585.5827556932671,204.18104144336772 M581.8250008531818,207.9232558997323 L592.1450666738338,203.7860254879642 M585.5827556932671,204.18104144336772 Q584.5017623165273,206.73081215157038 581.8250008531818,207.9232558997323 M581.8250008531818,207.9232558997323 Q581.0939799640064,208.3009623496458 580.2930429470376,208.62205148241884 M580.2930429470376,208.62205148241887 Q577.1459192636181,209.88370775854293 572.9193313445453,210.27122567917291 M572.9193313445453,210.27122567917291 Q567.6170848049699,210.75736617666777 562.366449792295,209.82183868712355 M599.9450036125033,216.27905041475765 Q596.753467439292,215.71040113391706 594.5914806858123,213.5962385852999 M594.5914806858123,213.5962385852999 Q592.4294939323327,211.48207603668266 591.9147192224668,208.34989214348803 M591.9147192224668,208.34989214348803 Q591.399944512601,205.2177082502934 592.8413807281825,201.65876868684282 M592.8413807281825,201.65876868684282 L618.4768931676746,142.3162482856564 M618.4768931676746,142.31624828565637 Q620.3302161791057,137.9962036362461 623.0585891693518,136.3361304981248 M623.0585891693518,136.3361304981248 Q623.6544125779386,135.97360292612674 624.2870444395182,135.719985960628 M624.2870444395185,135.71998596062804 Q626.551337504062,134.8122492959026 629.2871620748579,135.29970254419956 M681.4842344246149,112.7900979166514 Q683.7485274891584,111.88236125192597 686.4843520599542,112.36981450022293 M629.2871620748579,135.29970254419956 Q632.7876971299027,135.92340744164574 635.4130146362402,138.5373698937215 M686.4843520599542,112.36981450022293 Q689.9848871149991,112.9935193976691 692.6102046213365,115.60748184974487 M639.9945430680248,146.1501375092593 L697.1917330531212,123.22024946528268 M635.4130146362402,138.5373698937215 Q638.0383321425775,141.15133234579721 639.9945430680248,146.1501375092593 M692.6102046213365,115.60748184974487 Q695.2355221276739,118.2214443018206 697.1917330531212,123.22024946528266 M665.6303906473022,214.62788947921595 L675.1024463927051,210.8306194062458 M639.9945430680248,146.1501375092593 L665.630390647302,214.62788947921595 M697.1917330531212,123.22024946528266 L702.5112116990799,137.42949057583965 M665.6303906473022,214.62788947921598 Q667.2776026909158,218.737146355722 666.814271938058,221.75463602375913 M666.814271938058,221.75463602375913 Q666.3509411852003,224.7721256917963 664.2403983887287,226.06545497602673 M664.2403983887287,226.06545497602673 Q663.818216549879,226.32416573819063 663.3568969071326,226.5091050291491 M663.3568969071328,226.5091050291491 Q661.5120187003414,227.2487016902354 659.041207333062,226.80846694720174 M659.041207333062,226.80846694720174 Q654.9230096541351,226.07471052979452 652.7095789436473,223.5341356621095 M652.7095789436473,223.5341356621095 Q650.4961482331596,220.99356079442452 648.7457131357446,215.9122617759292 M648.7457131357446,215.9122617759292 L643.1860792412363,199.77854772386178 M643.1860792412363,199.7785477238618 L650.3929251793584,207.14355013636194 M650.3929251793584,207.1435501363619 L607.9756231423249,199.58588292236726 M607.9756231423249,199.5858829223673 L615.2853569944632,194.8073599385777 M609.7257230999548,208.9599077783455 L625.3754105035333,202.68607544181307 M615.2853569944632,194.8073599385777 L609.7257230999548,208.9599077783455 M609.7257230999548,208.9599077783455 Q607.8727352283087,213.39916993160944 605.9165243028614,215.1968223979946 M605.9165243028614,215.1968223979946 Q605.3227131389548,215.74250287113668 604.5391691164124,216.05661929397326 M604.5391691164124,216.05661929397326 Q602.7414592477644,216.77730655211292 599.9450036125033,216.27905041475768 M629.2871620748579,159.26594390053876 L629.0813862468256,159.22927996496844 M629.0813862468254,159.22927996496844 L617.1386800058943,190.1298419173568 M617.1386800058943,190.1298419173568 L614.2558075747314,183.89273322964482 M614.2558075747314,183.89273322964482 L644.2156286609679,189.23079922363254 M644.2156286609679,189.23079922363254 L641.3330913695901,194.4406608696244 M641.3330913695902,194.4406608696244 L629.2871620748579,159.26594390053873 M705.1651553929577,233.95336631977978 L684.9860537941727,230.35797181713426 M684.9860537941727,230.35797181713426 Q680.1473055773475,229.49583191198076 677.6248759850264,226.12509358457862 M677.6248759850264,226.12509358457862 Q675.1024463927051,222.75435525717648 675.1024463927051,217.26960366428244 M675.1024463927051,217.26960366428244 L675.1024463927051,155.86336348251305 M675.1024463927051,155.86336348251305 Q675.1024463927051,150.37861188961898 677.6248759850264,147.90673711619075 M677.6248759850264,147.90673711619075 Q678.4892282956461,147.05970825224173 679.625563624083,146.6041606655812 M679.625563624083,146.6041606655812 Q681.8053828590491,145.73028887175872 684.9860537941727,146.29700224791597 M736.8227536091794,123.67427262160457 Q739.0025728441456,122.80040082778208 742.1832437792691,123.36711420393934 M684.9860537941727,146.29700224791597 L705.1651553929577,149.8923967505615 M742.1832437792691,123.36711420393934 L762.3623453780541,126.96250870658486 M705.1651553929577,149.89239675056146 Q724.1089317439787,153.26768821328486 734.4558698983041,166.08094249454655 M762.3623453780541,126.96250870658484 Q781.3061217290751,130.33780016930822 791.6530598834005,143.15105445056992 M734.4558698983041,166.08094249454655 Q744.8028080526295,178.89419677580827 744.8028080526295,198.92551408935077 M791.6530598834005,143.15105445056992 Q801.999998037726,155.96430873183164 801.999998037726,175.99562604537417 M744.8028080526295,198.92551408935077 Q744.8028080526295,208.94136681418493 742.126046589284,216.2743181396861 M801.999998037726,175.99562604537417 Q801.999998037726,186.0114787702083 799.3232365743804,193.34443009570947 M742.126046589284,216.2743181396861 Q739.4492851259386,223.60726946518724 734.404425941296,228.13377267686852 M799.3232365743804,193.34443009570947 Q796.646475111035,200.67738142121067 791.6016159263925,205.2038846328919 M734.404425941296,228.13377267686852 Q731.2181600973232,230.99265179482654 727.1079107480437,232.64041731331383 M727.1079107480437,232.64041731331386 Q724.710344931772,233.6015819397491 721.9983889475071,234.15065889815813 M791.6016159263925,205.2038846328919 Q788.4153500824196,208.06276375084994 784.3051007331401,209.71052926933723 M721.9983889475071,234.15065889815816 Q714.6372111383607,235.64104190776652 705.1651553929577,233.95336631977978 M694.046222743726,214.20610493703202 L724.7149108087981,201.91127744688816 M694.046222743726,165.6774451352102 L694.046222743726,214.20610493703202 M694.046222743726,214.20610493703202 L703.9298301451937,215.9671083961594 M703.9298301451936,215.9671083961594 Q709.3862409859007,216.93929982127395 713.3501067938034,216.09553666884318 M713.3501067938034,216.09553666884318 Q714.6893543204376,215.8104594816425 715.8758037779289,215.33482154842935 M715.8758037779289,215.33482154842932 Q718.2009728553429,214.4026801855003 719.9392901080437,212.73865181546762 M719.9392901080437,212.73865181546762 Q722.564607614381,210.22553011452277 723.8515443890458,205.92392193108535 M723.8515443890458,205.92392193108535 Q725.1384811637104,201.62231374764792 725.1384811637104,195.42183913888118 M725.1384811637104,195.42183913888118 Q725.1384811637104,183.0216661935992 719.8878461510355,176.18394670792284 M719.8878461510355,176.18394670792284 Q714.6372111383607,169.34622722224645 703.9298301451936,167.4384485943376 M703.9298301451936,167.4384485943376 L694.0462227437259,165.6774451352102" />
    <path class="edge outline visible" d="M5.810980202744474,25.43244067449386 L63.0081701878409,2.502552630517215 M52.48944600884465,33.557928353237045 L109.68663599394108,10.628040309260442 M97.25175725313284,41.58181484221859 L154.44894723822927,18.651926798241973 M84.05895580703884,123.19567416741235 L117.11336418258952,109.9444308177172 M37.57829612067877,114.92141855402075 L66.45688863618905,103.34422580345353 M123.65961434637398,99.06854462254898 L145.8072130956935,90.18975250186722 M137.04553247932841,109.32253148687823 L150.1344599639662,104.07528696460932 M124.7030842564916,74.65590877861695 L181.90027424158802,51.72602073464033 M163.31640861043235,137.4445318538006 L183.46213633132106,129.36827353892915 M144.31889366191692,133.4752437628822 L151.07013808498098,130.76872480943854 M174.47987257080015,81.6281859315657 L181.7418282336014,78.71692699783586 M186.01015248140888,65.82977016417033 L243.20734246650528,42.89988212019371 M212.33100459844346,102.19823957129844 L228.8853360972615,95.5617427781923 M212.9330362320592,145.8160603149159 L226.2568626475795,140.4746467226596 M233.21258103364318,93.1697983138618 L290.4097710187396,70.23991026988517 M269.1183510693684,130.58451205067854 L278.828137430433,126.69193770833486 M265.59521073311555,152.88105539887658 L278.828137430433,147.57608276398486 M283.0651825337605,100.13681955093973 L340.2623725188569,77.2069315069631 M303.95695090026857,104.58184383132712 L331.9503433491054,93.35952058450007 M314.1863722661885,121.5163196399633 L319.482333141068,119.39321201915342 M293.2145934224449,160.4448738367478 L327.8349579214917,146.56585141953371 M321.3963740282595,107.80496963064175 L328.0847542010299,105.12365244360618 M338.8080301503384,88.10185466780669 L396.00522013543485,65.17196662383006 M358.8242865259321,102.13384007993963 L416.02147651102854,79.203952035963 M355.79628733075197,127.7780210795639 L366.11524439221944,123.64123516033072 M342.0580025509951,169.15560638025494 L363.33964855706483,160.62396766797076 M369.2071509523928,142.8187710104564 L391.3547497017124,133.93997888977458 M382.5930690853473,153.07275787478562 L395.681996569985,147.82551335251674 M370.25062086251046,118.40613516652435 L427.4478108476069,95.47624712254772 M408.8639452164512,181.194758241708 L425.472456853415,174.53654107209022 M389.8664302679358,177.2254701507896 L396.6176746909998,174.51895119734598 M427.6657393358601,100.52100080620811 L484.86292932095654,77.59111276223149 M450.3683358771315,188.36785017222363 L462.4016064907993,183.5438098995079 M463.49419319843855,106.90470552295125 L520.691383183535,83.97481747897461 M486.1967897397099,194.75155488896675 L526.662583714447,178.52914735997598 M542.4123770069983,124.53843206500596 L599.6095669920946,101.60854402102933 M581.6609533509076,149.3524843349619 L638.858143336004,126.42259629098527 M580.2930429470376,208.62205148241887 L592.1222775924202,203.87980756912123 M624.2870444395184,135.719985960628 L681.4842344246148,112.7900979166514 M663.3568969071326,226.5091050291491 L675.5727111926564,221.61188448376822 M604.5391691164125,216.05661929397328 L634.0401637753512,204.22991058867356 M679.625563624083,146.6041606655812 L736.8227536091795,123.67427262160456 M727.1079107480437,232.64041731331383 L784.3051007331401,209.71052926933726" />
  </g>
</svg>
