<?xml version='1.0' ?>
<svg xmlns="http://www.w3.org/2000/svg" xmlns:xlink="http://www.w3.org/1999/xlink" version="1.1" width="803.9999979959691" height="242.74943307853334">
  <style type="text/css">
.edge {
  fill: None;
}
.edge.visible {
  stroke: #000000;
}
.edge.hidden {
  stroke: #C8C8FF;
}
@media (prefers-color-scheme: dark) {
    .edge.visible {
      stroke: #FFFFFF;
    }
    .edge.hidden {
      stroke: #A00000;
    }
}
</style>
  <g>
    <path class="edge sharp hidden" d="M91.52472165440503,96.4981658824879 Q89.4340445093805,96.12566123567643 87.67360624181237,94.4103338158852 M23.90395367923213,114.11309822928399 L85.0327697521318,89.607053278865 M87.67360624181237,94.4103338158852 Q85.91316797424417,92.69500639609396 85.0327697521318,89.60705327886501 M2.337779004044478,33.55700595817777 L63.46659507694414,9.050961007758769 M85.0327697521318,89.60705327886501 L63.46659507694413,9.0509610077588 M2.007898303244815,31.331646477855955 L63.136714376144475,6.825601527436955 M63.466595076944145,9.050961007758787 Q63.136714376144425,7.590107166717019 63.136714376144425,6.825601527436959 M63.136714376144425,6.825601527436959 Q63.0263959658879,4.384665432941887 64.45695353265637,3.046660905779163 M64.45695353265637,3.046660905779163 Q65.0107274447661,2.5287146038340182 65.6633660474989,2.2670770986044837 M30.28594534790551,105.69284671145019 L91.41476142080518,81.18680176103119 M77.34390187344762,25.136564030180683 L91.41476142080512,81.18680176103118 M48.881402832612935,38.91878819411359 L110.0102189055126,14.412743243694589 M91.41476142080518,81.18680176103119 L110.01021890551259,14.412743243694592 M110.0102189055126,14.412743243694592 Q110.56037825016864,12.344598976225257 112.155876167337,11.290679498793764 M112.155876167337,11.290679498793764 Q112.57931429788158,11.010973904404684 113.02986003302102,10.830353785337119 M78.91988814484182,114.35815867878819 L140.0487042177415,89.85211372836919 M125.78118518213695,33.533921044133734 L140.0487042177415,89.8521137283692 M97.40538539594934,47.309811147918026 L158.534201468849,22.803766197499026 M140.04870421774146,89.85211372836919 L158.53420146884898,22.803766197499016 M158.53420146884898,22.803766197499 Q159.08436081350507,20.862555584733784 160.40477905834535,19.82350566061858 M160.40477905834535,19.82350566061858 Q160.84491847329213,19.4771556859135 161.33394900187534,19.28110732631015 M115.73205404749346,112.85341298620446 L146.43069588641487,100.5465772718622 M158.3323062886136,60.331632909787295 L149.70769748804182,89.47375329003255 M148.8345304639484,92.42414085155347 L146.4306958864148,100.5465772718622 M146.43069588641484,100.54657727186219 Q145.55029766430243,103.32080195946548 143.78985939673422,104.40880015565615 M143.78985939673422,104.40880015565615 Q143.3674000572644,104.66989138945554 142.92592308621514,104.84687591479309 M142.92592308621514,104.84687591479309 Q141.52771305907748,105.40740693725392 139.93874398414155,105.12429370503537 M139.93874398414155,105.12429370503537 Q137.7381066055172,104.73219698582866 135.92268822114906,102.75216918076896 M135.92268822114906,102.75216918076896 Q134.10726983678097,100.77214137570923 133.4467920818683,98.2331811014125 M54.60291674637364,54.59282901727141 L115.7317328192733,30.086784066852413 M133.4467920818683,98.2331811014125 L115.7317328192733,30.08678406685243 M115.7317328192733,30.08678406685243 L98.01667355667833,91.92044944931472 M98.01667355667831,91.9204494493147 Q97.35655397842231,94.22411340139219 95.54095650572589,95.55718800154338 M95.54095650572589,95.55718800154338 Q94.95632690681524,95.9864433186082 94.33177384521555,96.2368215589332 M94.33177384521555,96.2368215589332 Q93.01674505478776,96.76400590045368 91.52472165440503,96.49816588248788 M194.29455887149524,115.44625260171694 Q189.56304523679012,114.60321912829237 185.43685015186938,111.57431345400708 M185.43685015186938,111.57431345400708 Q181.31065506694867,108.5454077797218 178.83493801599624,103.83522149549177 M178.83493801599624,103.83522149549177 Q176.35922096504382,99.12503521126172 176.35922096504382,93.13592375172533 M176.35922096504382,93.13592375172533 Q176.35922096504382,84.08837491920364 182.57609319498906,79.39797216084504 M182.57609319498906,79.39797216084504 Q183.99178747717554,78.32988259416939 185.7526691446142,77.62395946221866 M185.7526691446142,77.62395946221866 Q191.7245137276563,75.22989556256094 201.66655081922423,77.00130968271549 M153.85151925167082,103.87952702076996 L214.9803353245705,79.37348207035096 M201.66655081922423,77.00130968271549 L214.98033532457043,79.37348207035097 M214.9803353245705,79.37348207035097 L214.9803353245705,78.35386467406752 M214.9803353245705,78.35386467406752 Q214.9803353245705,69.81612453968756 211.3493194675059,65.53725102836742 M211.3493194675059,65.53725102836742 Q207.71830361044132,61.25837751704729 200.23635142911243,59.92528696243974 M200.23635142911243,59.92528696243974 Q195.61479802800721,59.10184556141043 192.1489016096708,59.44004812707382 M124.47315351769791,84.88230057598929 L185.60196959059758,60.376255625570295 M192.1489016096708,59.44004812707382 Q188.6830051913344,59.77825069273723 185.60196959059755,60.376255625570295 M185.60196959059755,60.376255625570295 Q184.72157136848514,60.47408835189579 184.17141202382905,60.37606417209412 M184.17141202382905,60.37606417209412 Q182.52093398986077,60.081991632689096 181.31065506694867,58.46468839269954 M181.31065506694867,58.46468839269954 Q180.1003761440366,56.847385152709975 180.1003761440366,54.808565176008116 M180.1003761440366,54.808565176008116 Q180.1003761440366,51.604990834392154 182.58012146306868,50.610881114005615 M219.3789403269077,60.13679756672475 Q221.3260831450434,62.89623909191633 222.57278500448427,66.07164554374131 M222.57278500448427,66.07164554374131 Q224.99352193863677,72.23737283504927 224.99352193863677,78.481181235724 M224.99352193863677,78.481181235724 L224.99352193863677,114.5444429111066 M224.99352193863677,114.54444291110659 Q224.99352193863677,116.965723115381 223.5079842550683,118.35760584163069 M223.5079842550683,118.35760584163069 Q222.91854365815195,118.90988546002946 222.23383041756964,119.18438142657732 M222.23383041756966,119.18438142657732 Q221.19289509128268,119.60168392865826 219.93176942647534,119.3769839210689 M219.9317694264753,119.3769839210689 Q217.84145045810752,119.00454309208286 216.410892891339,117.09308754040651 M216.410892891339,117.09308754040651 Q214.9803353245705,115.18163198873019 214.9803353245705,112.76035178445578 M153.85151925167082,133.95326242075114 L214.9803353245705,109.44721747033215 M214.9803353245705,112.76035178445578 L214.9803353245705,109.44721747033213 M214.9803353245705,109.44721747033215 Q212.0096181340902,112.48574368179523 207.0581840321853,114.66196343656544 M207.0581840321853,114.66196343656544 Q206.8573648599706,114.75022607739147 206.65183993287923,114.83261934827908 M206.65183993287926,114.83261934827908 Q201.7899048083784,116.7817295774867 194.29455887149524,115.44625260171694 M198.03571405048802,105.91831508855913 Q202.70981053657368,106.75111830968562 206.84463321372888,105.0935015440094 M206.84463321372886,105.09350154400941 Q207.28452015320184,104.91715444939251 207.71830361044132,104.71262086788977 M153.85151925167082,123.88609619194601 L214.9803353245705,99.38005124152701 M207.71830361044132,104.71262086788977 Q212.22953860129,102.58552488421482 214.9803353245705,99.38005124152701 M153.85151925167082,113.18177279442997 L214.9803353245705,88.67572784401098 M214.9803353245705,99.38005124152701 L214.9803353245705,88.67572784401099 M214.9803353245705,88.67572784401099 L202.98714815239293,86.53885177859478 M202.98714815239288,86.53885177859476 Q195.28491732720752,85.1665132613713 190.82848336483045,86.66621620362028 M190.82848336483045,86.66621620362028 Q190.60680771220422,86.74081567738679 190.39615883465916,86.82526309831702 M190.39615883465916,86.82526309831704 Q186.37204940245343,88.43849582498125 186.37204940245343,93.64563672312897 M186.37204940245343,93.64563672312897 Q186.37204940245343,97.72327667653266 188.84776645340585,101.2228228586255 M188.84776645340585,101.2228228586255 Q191.3234835043583,104.72236904071836 198.03571405048802,105.91831508855913 M261.1937202756826,127.3659545749055 Q259.21300336425804,127.0130420004893 256.5173658461058,126.08682199166664 M256.5173658461058,126.08682199166664 Q253.82172832795356,125.16060198284397 251.23587195507292,123.10697627065124 M251.23587195507292,123.10697627065124 Q248.65001558219222,121.05335055845849 246.88957731462406,117.29899575403289 M246.88957731462406,117.29899575403289 Q245.12913904705593,113.54464094960728 245.12913904705593,107.68287796064007 M184.0003229741563,92.68517845098364 L245.12913904705596,68.17913350056465 M245.12913904705593,107.68287796064007 L245.12913904705593,68.17913350056465 M245.12913904705593,68.17913350056465 L237.3169479882707,66.78720291094592 M237.31694798827064,66.78720291094592 Q235.22627084324614,66.41469826413447 235.22627084324614,63.99341805986006 M175.0878132260588,86.5093360343511 L236.21662929895848,62.0032910839321 M235.22627084324614,63.99341805986006 Q235.22627084324614,62.71910372243828 236.21662929895848,62.00329108393211 M190.05207576537336,72.22744916320087 L251.18089183827303,47.72140421278188 M236.21662929895848,62.00329108393211 L251.180891838273,47.72140421278187 M251.180891838273,47.72140421278188 Q251.40081230547273,47.50547660056898 251.8959915333289,47.147777689248414 M269.5415781738742,72.02528158455064 Q268.6720438528867,72.37387081831952 267.57571194435604,72.1785328000381 M194.01315141156584,94.46920575980906 L255.1419674844655,69.96316080939006 M267.57571194435604,72.1785328000381 L255.1419674844656,69.96316080939006 M255.1419674844655,69.96316080939008 L255.1419674844655,77.79796833841078 M255.1419674844655,84.49071936419207 L255.1419674844655,108.44728787318203 M255.1419674844655,108.44728787318203 Q255.1419674844655,112.14288241487824 256.3522464073776,114.01509000393865 M256.3522464073776,114.01509000393865 Q257.5625253302897,115.88729759299909 259.2681625693863,116.50977666186989 M259.2681625693863,116.50977666186989 Q260.97379980848285,117.1322557307407 262.2940389649948,117.36748823513456 M262.2940389649948,117.36748823513456 Q264.9348754546754,117.83801706174768 266.2001344943874,117.48997059651761 M266.2001344943874,117.48997059651761 Q267.4653935340994,117.14192413128754 268.89595110086793,117.39681252590205 M268.89595110086793,117.39681252590205 Q270.43646890123637,117.67129299291182 271.6467478241484,119.16124776233221 M271.6467478241484,119.16124776233221 Q272.85702674706056,120.65120253175262 272.85702674706056,122.69002250845446 M224.93968187105952,144.89445929721413 L270.3265086676365,126.69924975303825 M272.85702674706056,122.69002250845446 Q272.85702674706056,125.62111141087058 270.3265086676365,126.69924975303823 M270.3265086676365,126.69924975303823 Q268.34579175621184,127.3659545749055 266.09017426078753,127.60121898821205 M266.09017426078753,127.60121898821205 Q263.8345567653632,127.83648340151863 261.1937202756826,127.3659545749055 M308.9472648505065,135.87440232743066 Q295.5235201115604,133.48263786739994 287.98640872510316,123.2831932410141 M287.98640872510316,123.2831932410141 Q280.44929733864603,113.0837486146283 280.44929733864603,97.02747092628678 M280.44929733864603,97.02747092628678 Q280.44929733864603,88.36196750547262 283.2000940619265,81.14252814466569 M283.2000940619265,81.14252814466569 Q285.950890785207,73.92308878385876 291.7825440208959,70.11978570735769 M291.7825440208959,70.11978570735769 Q293.04791203430887,69.29453463981011 294.46868558957544,68.7249580825248 M328.36079974507254,84.8963079983164 Q329.2094994589405,86.5792264759601 329.9084791525664,88.3816712590623 M329.90847915256643,88.38167125906232 Q332.93435554817495,96.18443745286223 332.93435554817495,104.72217758724219 M332.93435554817495,104.72217758724219 Q332.93435554817495,107.1434577915166 331.5589571865347,108.5549644990742 M331.5589571865347,108.5549644990742 Q331.02076347019937,109.10728742002547 330.33937589577,109.38045015407401 M330.33937589577,109.380450154074 Q329.27942141237384,109.80537728147866 327.87296121267025,109.55478241502986 M229.44326993675585,127.41477521133017 L290.5720860096555,102.90873026091117 M327.8729612126702,109.55478241502988 L290.5720860096555,102.90873026091117 M290.5720860096555,102.90873026091117 Q291.4524842317679,111.60374942596901 296.1838187781447,117.60768257545263 M296.1838187781447,117.60768257545263 Q300.91515332452144,123.61161572493623 309.8276630726189,125.1995946741583 M309.8276630726189,125.1995946741583 Q314.77909717452377,126.08181229237339 318.19001347606024,125.6064652199432 M285.00936374702167,139.80037921879094 L324.68196537833353,123.89595604596902 M318.19001347606024,125.6064652199432 Q321.6009297775967,125.13111814751299 324.68196537833353,123.89595604596903 M324.68196537833353,123.89595604596903 Q325.56236360044596,123.54301156264015 326.6626822897581,123.73905992224348 M326.6626822897581,123.73905992224348 Q328.42312055732634,124.05272453404378 329.7435388021666,125.68965175534129 M329.7435388021666,125.68965175534129 Q331.0639570470069,127.32657897663881 331.0639570470069,129.49316223977488 M331.0639570470069,129.49316223977488 Q331.0639570470069,131.02217351833502 330.23871803002277,132.0857773507697 M285.0093637470216,151.01409649858365 L328.20284191346985,133.69818257266044 M330.23871803002277,132.0857773507697 Q329.4134790130386,133.14938118320438 328.20284191346985,133.69818257266044 M328.20284191346985,133.69818257266044 Q327.22112037005394,134.17794150344136 326.19513227958737,134.58925178030952 M326.1951322795874,134.58925178030955 Q323.42656649870906,135.69914727368024 320.33567073788475,136.31062907289575 M320.3356707378847,136.31062907289575 Q316.0993363310357,137.14871666485246 308.9472648505065,135.87440232743066 M255.31530363339195,107.6132931822564 L290.5720860096555,93.47913601668198 M261.9026712714656,123.76860757539987 L323.03148734436525,99.26256262498087 M290.5720860096555,93.47913601668196 L323.03148734436525,99.26256262498084 M323.0314873443652,99.26256262498086 Q322.7012484669089,92.57703914585738 320.1155711823566,88.03849090301836 M320.1155711823566,88.03849090301836 Q317.52989389780424,83.49994266017934 313.8988780407397,80.94151794913812 M313.8988780407397,80.94151794913812 Q310.2678621836751,78.38309323809693 306.7466274718821,77.75570019667097 M306.7466274718821,77.75570019667097 Q303.2257509367457,77.12837097307039 299.5947350796812,78.39288927429453 M299.5947350796812,78.39288927429453 Q299.3471963423663,78.47909580048955 299.10477146159946,78.57628196254588 M299.1047714615995,78.57628196254588 Q295.79119296382515,79.90466861928009 293.4330220548642,83.28435009154977 M293.4330220548642,83.28435009154977 Q290.90232488711183,86.91129260758082 290.5720860096555,93.47913601668196 M351.0896139218261,142.7459228586583 Q348.99893677680166,142.37341821184685 347.5685582983615,140.46199456908323 M347.5685582983615,140.46199456908323 Q346.1381798199213,138.55057092631958 346.1381798199213,136.12929072204517 M346.1381798199213,136.12929072204517 L346.1381798199213,81.46112268347748 M346.1381798199213,81.4611226834775 Q346.1381798199213,79.03984247920307 347.5685582983615,77.57445757255849 M347.5685582983615,77.57445757255849 Q348.17534918827835,76.95281636012693 348.90096747687136,76.66192189268132 M353.80665589979424,77.87270542448859 Q354.25885375579526,78.29537197817554 354.66564966209074,78.83897587378266 M354.6656496620908,78.83897587378266 Q356.1510082573309,80.8238697880285 356.1510082573309,83.24514999230291 M295.0221921844312,113.23091251998162 L356.1510082573309,88.72486756956262 M356.1510082573309,83.24514999230291 L356.1510082573309,88.72486756956262 M356.1510082573309,88.7248675695626 Q359.1217254478112,84.66672396181607 363.4130399714601,81.73573078613805 M363.4130399714601,81.73573078613805 Q364.5614697946932,80.95134643115969 365.81232906294105,80.44988712892531 M365.81232906294105,80.44988712892533 Q369.23553035658347,79.07755358534268 373.4258684088697,79.82416355326728 M373.4258684088697,79.82416355326727 L373.9760277535258,79.92218773306894 M373.9760277535258,79.92218773306894 Q376.06670489855026,80.29469237988039 377.44210326019055,82.1963199864464 M377.44210326019055,82.1963199864464 Q378.8175016218308,84.0979475930124 378.8175016218308,86.51922779728682 M378.8175016218308,86.51922779728682 Q378.8175016218308,88.94050800156123 377.38712314339057,90.21487020235205 M377.38712314339057,90.21487020235205 Q376.87954041982374,90.66708914051266 376.2749628956707,90.90945935041887 M376.2749628956707,90.9094593504189 Q375.17582861296734,91.35009334055465 373.7561072863261,91.09713568393619 M373.756107286326,91.09713568393617 L373.20594794166993,90.9991115041345 M373.20594794166993,90.9991115041345 Q368.65073355346186,90.18749000108794 364.80243771402155,91.73024048903079 M364.80243771402155,91.73024048903079 Q364.0958217769849,92.01351706836209 363.4130399714601,92.37617254043695 M320.69537317967985,113.38795480554533 L356.1510082573309,99.17407921007525 M363.4130399714601,92.37617254043695 Q359.01176521421127,94.71388330236091 356.1510082573309,99.17407921007525 M356.1510082573309,99.17407921007525 L356.1510082573309,137.91331803087058 M356.1510082573309,137.91331803087058 Q356.1510082573309,140.334598235145 354.6656496620908,141.72651287030737 M354.6656496620908,141.72651287030737 Q354.0762338301468,142.27884853208516 353.39150218673814,142.55335187617638 M353.3915021867381,142.55335187617638 Q352.3506744256504,142.97061125624415 351.08961392182607,142.74592285865828 M397.4129591065382,150.99954603439434 Q395.32264013817036,150.6271052054083 393.89208257140183,148.71564965373196 M393.89208257140183,148.71564965373196 Q392.4615250046333,146.80419410205562 392.4615250046333,144.3829138977812 M331.33270893173363,118.93600274761215 L392.4615250046333,94.42995779719315 M392.4615250046333,144.3829138977812 L392.4615250046333,94.42995779719314 M392.4615250046333,94.42995779719317 L385.9699312790167,93.2733235297937 M385.9699312790167,93.27332352979369 Q384.2091348347918,92.95959510016802 382.9438757950798,91.26861418076372 M382.9438757950798,91.26861418076372 Q381.67861675536784,89.57763326135942 381.67861675536784,87.53881328465756 M381.67861675536784,87.53881328465756 Q381.67861675536784,85.3722300215215 382.9438757950798,84.19600368172678 M382.9438757950798,84.19600368172678 Q383.4451462037995,83.73000625385626 384.0241954915736,83.49787010618775 M384.0241954915736,83.49787010618775 Q384.90672728469013,83.14407029160445 385.9699312790167,83.33350577155775 M331.33270893173363,108.9961849893762 L392.4615250046333,84.49014003895721 M385.9699312790167,83.33350577155774 L392.4615250046333,84.49014003895721 M392.4615250046333,84.49014003895721 L392.4615250046333,77.09895095556482 M392.4615250046333,77.09895095556482 Q392.4615250046333,69.07101951932658 394.9372420555857,64.66977532781783 M394.9372420555857,64.66977532781783 Q397.2346389388703,60.585542566139175 400.716436213525,59.07154251551443 M418.7303097666915,71.26281704386574 Q417.95353963565833,71.57421786871636 416.9987750469579,71.40410348890964 M416.9987750469579,71.40410348890963 Q415.6785358904459,71.16887098451578 414.35811764560566,70.55114634363665 M414.35811764560566,70.55114634363665 Q413.03769940076535,69.93342170275754 411.4971816003969,69.65894123574778 M411.4971816003969,69.65894123574778 Q408.45421212718105,69.11676270207225 406.3025609515913,69.9793421500979 M406.3025609515913,69.9793421500979 Q405.5756261887667,70.27076438135063 404.95042866965207,70.72252911372611 M404.95042866965207,70.72252911372611 Q402.7617269984561,72.30407445660882 402.50798594953847,77.76621465898249 M418.19456146462016,98.5114022033984 Q417.32502714363267,98.85999143716728 416.228695235102,98.66465341888588 M341.3458955458,120.72009387426297 L402.47471161869964,96.21404892384398 M416.228695235102,98.66465341888588 L402.4747116186996,96.21404892384398 M402.4747116186996,96.21404892384398 L402.4747116186996,104.81336209214474 M402.4747116186996,107.40997770557519 L402.4747116186996,146.16700502443206 M402.4747116186996,146.16700502443203 Q402.4747116186996,148.58828522870644 401.04415405193106,149.98996399115373 M401.04415405193106,149.98996399115373 Q400.48065238831197,150.54209019204671 399.79766515306113,150.81589421710194 M399.7976651530612,150.8158942171019 Q398.74675767162336,151.2371944750381 397.4129591065382,150.99954603439434 M444.6167025133626,160.04719059365414 Q439.8851888786575,159.20415712022955 435.7589937937368,156.17525144594427 M435.7589937937368,156.17525144594427 Q431.6327987088161,153.14634577165899 429.1570816578636,148.43615948742894 M429.1570816578636,148.43615948742894 Q426.6813646069112,143.7259732031989 426.6813646069112,137.73686174366253 M426.6813646069112,137.73686174366253 Q426.6813646069112,128.68931291114083 432.8982368368564,123.99891015278222 M432.8982368368564,123.99891015278222 Q434.31393111904293,122.93082058610656 436.0748127864816,122.22489745415585 M436.07481278648163,122.22489745415585 Q442.0466573695237,119.8308335544981 451.9886944610916,121.60224767465266 M404.1736628935382,148.48046501270716 L465.3024789664379,123.97442006228816 M451.98869446109165,121.60224767465266 L465.3024789664379,123.97442006228815 M465.3024789664379,123.97442006228815 L465.3024789664379,122.9548026660047 M465.3024789664379,122.9548026660047 Q465.3024789664379,114.41706253162474 461.6714631093733,110.1381890203046 M461.6714631093733,110.1381890203046 Q458.0404472523087,105.85931550898448 450.5584950709798,104.52622495437691 M450.5584950709798,104.52622495437691 Q445.9369416698746,103.70278355334761 442.47104525153816,104.04098611901101 M374.7952971595653,129.4832385679265 L435.92411323246495,104.9771936175075 M442.47104525153816,104.04098611901101 Q439.00514883320176,104.3791886846744 435.92411323246495,104.97719361750748 M435.92411323246495,104.97719361750748 Q435.0437150103525,105.07502634383297 434.4935556656964,104.9770021640313 M434.4935556656964,104.9770021640313 Q432.84307763172814,104.68292962462627 431.6327987088161,103.06562638463672 M431.6327987088161,103.06562638463672 Q430.422519785904,101.44832314464715 430.422519785904,99.40950316794529 M430.422519785904,99.40950316794529 Q430.422519785904,96.20592882632933 432.9022651049361,95.2118191059428 M448.24312815023796,93.33044703213267 Q450.20512911277126,93.50424393249561 452.31893333854805,93.88086922752284 M452.318933338548,93.88086922752284 Q460.351044864533,95.31198396193207 465.41261828836605,99.90942010315132 M465.41261828836605,99.90942010315132 Q470.4741917121992,104.50685624437054 472.8949286463517,110.6725835356785 M472.8949286463517,110.6725835356785 Q475.3156655805042,116.83831082698646 475.3156655805042,123.08211922766117 M475.3156655805042,123.08211922766117 L475.3156655805042,159.14538090304376 M475.3156655805042,159.1453809030438 Q475.3156655805042,161.5666611073182 473.8301278969357,162.95854383356786 M473.8301278969357,162.95854383356786 Q473.2406873000194,163.51082345196662 472.55597405943706,163.7853194185145 M472.55597405943706,163.7853194185145 Q471.51503873315005,164.20262192059545 470.25391306834274,163.9779219130061 M470.25391306834274,163.9779219130061 Q468.1635940999749,163.60548108402003 466.73303653320636,161.6940255323437 M466.73303653320636,161.6940255323437 Q465.3024789664379,159.78256998066738 465.3024789664379,157.36128977639297 M404.1736628935382,178.55420041268832 L465.3024789664379,154.0481554622693 M465.3024789664379,157.36128977639297 L465.3024789664379,154.04815546226934 M465.3024789664379,154.04815546226934 Q462.3317617759576,157.08668167373241 457.38032767405275,159.26290142850263 M457.38032767405275,159.26290142850263 Q457.1795085018381,159.35116406932866 456.97398357474674,159.43355734021625 M456.9739835747467,159.43355734021625 Q452.11204845024577,161.3826675694239 444.6167025133626,160.04719059365414 M448.3578576923554,150.5192530804963 Q453.03195417844114,151.3520563016228 457.16677685559625,149.69443953594657 M457.1667768555963,149.69443953594657 Q457.6066637950692,149.51809244132969 458.0404472523087,149.31355885982694 M404.1736628935382,168.4870341838832 L465.3024789664379,143.9809892334642 M458.0404472523087,149.31355885982694 Q462.5516822431574,147.186462876152 465.3024789664379,143.9809892334642 M404.1736628935382,157.78271078636718 L465.3024789664379,133.27666583594817 M465.3024789664379,143.9809892334642 L465.3024789664379,133.27666583594817 M465.3024789664379,133.27666583594817 L453.30929179426033,131.13978977053193 M453.3092917942603,131.13978977053193 Q445.60706096907495,129.76745125330848 441.15062700669785,131.26715419555745 M441.15062700669785,131.26715419555745 Q440.9289513540716,131.34175366932396 440.71830247652656,131.42620109025418 M440.71830247652656,131.42620109025418 Q436.69419304432085,133.0394338169184 436.69419304432085,138.24657471506612 M436.69419304432085,138.24657471506615 Q436.69419304432085,142.32421466846986 439.1699100952733,145.8237608505627 M439.1699100952733,145.8237608505627 Q441.6456271462257,149.32330703265552 448.3578576923554,150.5192530804963 M497.1017607228916,168.76151465089296 Q495.0110835778671,168.3890100040815 493.5807050994269,166.47758636131786 M493.5807050994269,166.47758636131786 Q492.1503266209867,164.56616271855424 492.1503266209867,162.14488251427983 M492.1503266209867,162.14488251427983 L492.1503266209867,79.4417990524328 M492.1503266209867,79.4417990524328 Q492.1503266209867,76.89317037758923 493.5807050994269,75.49145970622922 M493.5807050994269,75.49145970622922 Q494.1617758947731,74.92203479741724 494.8518140886464,74.64540410042487 M502.16315505839634,87.5796019814818 L502.16315505839634,163.92890982310524 M502.16315505839634,163.92890982310524 Q502.16315505839634,166.35019002737965 500.7327765799562,167.75190069873966 M500.7327765799562,167.75190069873966 Q500.1693027004345,168.30408137110228 499.4862973212422,168.577892669916 M499.4862973212422,168.577892669916 Q498.43549350259747,168.99915137028196 497.1017607228916,168.76151465089296 M524.4997677220965,173.6431315685815 Q522.409090577072,173.27062692177003 520.9787120986318,171.3592032790064 M520.9787120986318,171.3592032790064 Q519.5483336201917,169.44777963624279 519.5483336201917,167.02649943196838 M519.5483336201917,167.02649943196838 L519.5483336201917,84.32341597012135 M519.5483336201917,84.32341597012135 Q519.5483336201917,81.77478729527778 520.9787120986318,80.37307662391777 M520.9787120986318,80.37307662391777 Q521.5597828939781,79.80365171510579 522.2498210878514,79.5270210181134 M529.5611620576012,125.34863234013048 L529.5611620576012,168.8105267407938 M529.5611620576012,168.8105267407938 Q529.5611620576012,171.2318069450682 528.1307835791611,172.6335176164282 M528.1307835791611,172.6335176164282 Q527.5673096996394,173.18569828879083 526.8843043204471,173.45950958760454 M526.884304320447,173.45950958760454 Q525.8335005018024,173.88076828797048 524.4997677220965,173.6431315685815 M611.4249441777599,189.7681091459572 Q600.5317175182378,187.82721762231893 591.7841481205402,180.72544237707797 M591.7841481205402,180.72544237707797 Q583.0365787228426,173.62366713183704 577.9751843873378,162.46346109863526 M577.9751843873378,162.46346109863526 Q572.9137900518331,151.30325506543352 572.9137900518331,137.1584488832247 M572.9137900518331,137.1584488832247 Q572.9137900518331,122.8862942304467 577.9751843873378,113.59358922168273 M577.9751843873378,113.59358922168273 Q583.0365787228426,104.30088421291879 591.7841481205402,100.31608324100367 M591.7841481205402,100.31608324100367 Q592.4002946377556,100.03540856109909 593.0270863483105,99.7841328646241 M636.7038911585094,119.82285229116428 Q635.772942979784,120.19606184076765 634.5316366533159,119.97489312716392 M571.4221036689917,143.61821680502499 L632.5509197418913,119.11217185460599 M634.5316366533159,119.97489312716392 Q633.4313179640037,119.77884476756057 632.5509197418912,119.112171854606 M632.5509197418912,119.112171854606 Q628.1496449846425,115.65200127077983 623.528449760194,113.1720565305141 M623.528449760194,113.1720565305141 Q618.9072545357454,110.69211179024836 612.4153026334722,109.5354137050235 M612.4153026334722,109.5354137050235 Q603.8941825452067,108.01717028017369 597.7590870337401,110.47668014864256 M597.7590870337401,110.47668014864256 Q596.9225862548963,110.81202650416436 596.1304427609891,111.22132110730918 M596.130442760989,111.22132110730918 Q589.5285306251159,114.6324796012345 586.2275745571792,121.88145066074144 M586.2275745571792,121.88145066074144 Q582.9266184892427,129.13042172024836 582.9266184892427,138.94247619205012 M582.9266184892427,138.94247619205012 Q582.9266184892427,140.16259520382764 582.9776557682144,141.36126288169854 M602.5238592990324,175.65298666519905 Q606.9850906337804,177.8906731553515 612.4153026334723,178.85819662394175 M612.4153026334722,178.85819662394175 Q618.9072545357454,180.0148947091666 623.528449760194,179.18149772737618 M596.5652664815947,190.88267261065158 L632.5509197418913,176.45631703858643 M623.528449760194,179.18149772737618 Q627.636364617817,178.4406669081797 631.570499438578,176.86350427110844 M631.570499438578,176.86350427110847 Q632.062066141864,176.66643917970393 632.5509197418912,176.45631703858643 M632.5509197418912,176.45631703858643 Q633.4313179640037,176.10337255525755 634.5316366533159,176.29942091486092 M634.5316366533159,176.29942091486092 Q636.6223137983404,176.67192556167237 637.8325927212525,178.41678468016363 M592.721676951123,200.7065795708664 L638.9329114105648,182.18087170296144 M637.8325927212525,178.41678468016363 Q639.0428716441645,180.16164379865486 638.9329114105647,182.18087170296147 M638.9329114105647,182.18087170296147 Q638.8229511769648,183.94540266612972 638.2178117155088,184.92087408169846 M591.2431807981004,204.4854973073152 L636.5123535647405,186.3374543063747 M638.2178117155088,184.92087408169846 Q637.6126722540528,185.89634549726716 636.5123535647405,186.3374543063747 M636.5123535647405,186.3374543063747 Q635.247516268749,186.93998329017407 633.9277398704638,187.46907090905268 M633.9277398704638,187.4690709090527 Q629.9659029571534,189.05733908961142 625.5089875832903,189.98379744132484 M625.5089875832903,189.98379744132484 Q619.5673741140015,191.21887977058708 611.4249441777599,189.7681091459572 M653.7872137162793,196.67881382197535 Q651.476616104055,196.2671250303734 650.1561978592147,194.37529346000503 M650.1561978592147,194.37529346000503 Q648.8357796143744,192.48346188963663 648.8357796143744,190.06218168536222 M588.2571228861309,212.11762214073934 L649.3859389590306,187.61157719032033 M648.8357796143744,190.06218168536222 Q648.8357796143744,189.04256428907877 649.3859389590305,187.61157719032033 M616.3152494635917,140.4032981241792 L677.4440655364914,115.8972531737602 M649.3859389590305,187.61157719032033 L677.4440655364914,115.89725317376019 M677.4440655364915,115.89725317376022 Q678.2141453483473,113.99522670578551 679.8096432655157,112.68661028721567 M679.8096432655157,112.68661028721567 Q680.3250700301835,112.26386079970034 680.9266388920092,112.02269673803924 M674.9620206979376,217.88148858555564 L719.3661359639547,200.08024009752842 M698.4053712665127,139.03687119326514 L719.3661359639547,200.08024009752847 M719.3661359639548,200.08024009752845 Q719.9162953086109,201.70727555589025 719.9162953086109,202.72689295217367 M719.9162953086109,202.72689295217367 Q719.9162953086109,205.14817315644808 718.5958770637706,206.56947590020334 M718.5958770637706,206.56947590020334 Q718.0677220470811,207.13798377812918 717.3811456992734,207.4132266492034 M717.3811456992732,207.4132266492034 Q716.351241264973,207.82610695644672 714.964861206706,207.57908985235667 M649.1048896757579,227.67391907604946 L710.2337057486576,203.16787412563045 M714.964861206706,207.57908985235665 Q711.5539449051695,206.97135270115132 710.2337057486575,203.16787412563045 M641.9528181952286,206.52038403802078 L703.0816342681283,182.01433908760177 M710.2337057486575,203.16787412563045 L703.0816342681283,182.0143390876018 M604.541982758614,199.85473981150682 L665.6707988315137,175.3486948610878 M703.0816342681283,182.0143390876018 L665.6707988315137,175.34869486108784 M631.7197111139626,204.69710876657945 L658.5187273509845,193.9536012242729 M665.6707988315136,175.3486948610878 L658.5187273509844,193.9536012242729 M658.5187273509844,193.95360122427292 Q657.7439654520069,195.9089606754876 656.2497409252067,196.5079831295806 M656.2497409252067,196.50798312958057 Q655.197029512266,196.93000656897746 653.7872137162794,196.67881382197535 M623.2474004769214,151.1957858474739 L684.376216549821,126.6897408970549 M632.9925796965939,180.10261698472164 L669.5219142441064,165.45830400861772 M684.376216549821,126.6897408970549 L669.5219142441064,165.45830400861774 M638.1017027826359,195.25765466832723 L699.2305188555356,170.75160971790822 M669.5219142441064,165.45830400861774 L699.2305188555356,170.75160971790825 M699.2305188555356,170.75160971790825 L684.376216549821,126.68974089705492 M763.1589630692428,215.52887636140272 L741.0422708727423,211.58825327911504 M741.0422708727423,211.58825327911504 Q738.9519519043745,211.21581245012896 737.5213943376059,209.30435689845265 M737.5213943376059,209.30435689845265 Q736.0908367708373,207.3929013467763 736.0908367708373,204.97162114250193 M736.0908367708373,204.97162114250193 L736.0908367708373,127.62090678734545 M736.0908367708373,127.62090678734543 Q736.0908367708373,125.19962658307102 737.5213943376059,123.7340661774066 M737.5213943376059,123.7340661774066 Q738.1283616942866,123.11224756196194 738.8540990892049,122.82130534575971 M781.4794399212285,214.26303173121494 Q780.9095230057105,214.49150678515733 780.3238629871815,214.70060076009997 M780.3238629871815,214.70060076009997 Q773.0618312730525,217.29331159783288 763.1589630692428,215.52887636140272 M684.975207312004,158.88053692766817 L746.1040233849037,134.37449197724916 M730.4183008763181,207.94673343637294 L746.1040233849037,201.65845491946556 M746.1040233849037,134.3744919772492 L746.1040233849037,201.65845491946558 M746.1040233849037,201.65845491946558 L761.948325969674,204.48150024349354 M761.948325969674,204.48150024349354 Q770.6232778967277,206.02715252719685 777.1173442589384,203.42373416565766 M777.1173442589384,203.42373416565763 Q777.5423966939616,203.25333410316438 777.9581061698291,203.0651593356625 M777.9581061698291,203.06515933566249 Q784.7251377444304,200.0019994435982 788.4111337182949,193.07653689545822 M788.4111337182949,193.07653689545822 Q792.0971296921593,186.15107434731823 792.0971296921593,176.21125658908227 M792.0971296921593,176.21125658908227 Q792.0971296921593,166.27185364671135 788.4111337182949,158.03289261635905 M788.4111337182949,158.03289261635905 Q784.7251377444304,149.79393158600678 777.9581061698291,144.31914393575858 M777.9581061698291,144.31914393575858 Q771.1910745952277,138.84435628551037 761.948325969674,137.19753730127712 M761.948325969674,137.19753730127712 L746.1040233849037,134.37449197724916" />
    <path class="edge outline hidden" d="M115.28900068805909,115.92629321894583 L142.92592308621514,104.84687591479312 M68.15636836674918,106.73032862253751 L94.33177384521554,96.2368215589332 M151.24900833229808,91.4561963210557 L185.7526691446142,77.62395946221866 M184.07292308686692,134.48277865514018 L222.23383041756966,119.18438142657732 M153.85151925167082,135.99983826623014 L206.65183993287923,114.83261934827908 M145.71581714082922,129.5995464944284 L206.84463321372888,105.0935015440094 M129.26734276175955,111.33130804873602 L190.39615883465922,86.82526309831704 M285.00936374702167,127.55288316824365 L330.33937589577,109.380450154074 M285.00936374702155,151.10029125100633 L326.19513227958737,134.58925178030955 M237.9759553886998,103.0823269129649 L299.10477146159946,78.57628196254589 M332.05687671631495,93.98217330213777 L365.812329062941,80.4498871289253 M320.65770012920143,113.20596742852322 L376.2749628956708,90.90945935041887 M303.6736216411219,116.23628543944979 L364.80243771402155,91.73024048903079 M331.33270893173363,151.3965425968092 L353.3915021867381,142.55335187617635 M331.3327089317337,104.62145831047971 L384.02419549157355,83.49787010618775 M345.17374487869165,94.4853871005169 L406.3025609515913,69.97934215009792 M365.6448026239189,164.50749889870622 L399.79766515306113,150.8158942171019 M401.57115197416556,136.05713431299284 L436.0748127864815,122.22489745415584 M431.02151054808706,180.43614786882898 L472.55597405943706,163.78531941851446 M404.1736628935382,180.60077625816734 L456.9739835747466,159.43355734021623 M396.03796078269664,174.20048448636558 L457.1667768555963,149.69443953594657 M379.5894864036269,155.9322460406732 L440.71830247652656,131.4262010902542 M458.4195175472921,185.04123051551096 L499.4862973212421,168.57789266991597 M513.8903843219423,178.66866638177112 L526.884304320447,173.45950958760454 M536.6302709608404,134.98272509906155 L597.7590870337401,110.47668014864254 M570.4416833656784,201.36954922152745 L631.570499438578,176.86350427110847 M591.1988816045712,204.59872249751623 L633.9277398704637,187.46907090905268 M674.9620206979376,224.41870869224635 L717.3811456992732,207.4132266492034 M634.5600844767175,205.20318990819604 L656.2497409252067,196.50798312958057 M715.9885281860386,227.92977911607665 L777.1173442589384,203.42373416565766" />
    <path class="edge sharp visible" d="M30.395905581505417,121.00421083290689 Q28.30522843648089,120.63170618609544 26.544790168912698,118.9163787663042 M26.544790168912698,118.9163787663042 Q24.784351901344507,117.20105134651297 23.90395367923213,114.11309822928399 M23.90395367923213,114.11309822928399 L2.3377790040444637,33.55700595817778 M2.337779004044478,33.55700595817777 Q2.007898303244815,32.096152117136015 2.007898303244815,31.331646477855955 M2.007898303244815,31.331646477855955 Q1.897579892988233,28.890710383360883 3.3281374597567037,27.55270585619816 M3.3281374597567037,27.55270585619816 Q3.881911371866435,27.03475955425302 4.5345499745992335,26.773122049023492 M4.5345499745992335,26.773122049023485 Q5.567864919132272,26.358874495979645 6.849013994893141,26.58714215802152 M65.6633660474989,2.2670770986044837 Q66.69668099203193,1.8528295455606338 67.9778300677928,2.081097207602511 M6.849013994893141,26.58714215802152 Q8.719770672717857,26.920462660042432 10.040188917558169,28.430041410770798 M67.97783006779281,2.081097207602511 Q69.84858674561752,2.41441770962345 71.16900499045778,3.923996460351816 M11.800448096797993,32.05722324364707 L72.92926416969766,7.551178293228073 M10.040188917558169,28.430041410770798 Q11.360607162398423,29.93962016149915 11.800448096797993,32.05722324364707 M71.16900499045778,3.923996460351816 Q72.48942323529809,5.433575211080125 72.9292641696976,7.551178293228048 M11.800448096797993,32.05722324364707 L30.285945347905518,105.6928467114502 M72.9292641696976,7.551178293228048 L77.34390187344762,25.136564030180683 M30.28594534790551,105.69284671145019 L48.88140283261292,38.91878819411359 M48.881402832612935,38.91878819411359 Q49.43156217726897,36.85064392664424 51.02706009443733,35.796724449212775 M51.02706009443733,35.796724449212775 Q51.450498224981914,35.51701885482369 51.901043960121356,35.33639873575612 M51.901043960121356,35.33639873575612 Q53.148136510602434,34.83644948002416 54.60291674637364,35.09565372837207 M113.02986003302102,10.830353785337117 Q114.27695258350211,10.330404529605168 115.73173281927332,10.589608777953089 M54.60291674637364,35.09565372837207 Q56.58363365779826,35.44856630278825 58.17913157496662,37.071038786634546 M115.7317328192733,10.589608777953089 Q117.71244973069793,10.942521352369283 119.30794764786623,12.564993836215564 M60.32478883679107,40.95770389755354 L121.45360490969074,16.451658947134543 M58.17913157496662,37.071038786634546 Q59.77462949213498,38.69351127048084 60.32478883679107,40.95770389755354 M119.30794764786623,12.564993836215564 Q120.90344556503462,14.18746632006183 121.45360490969074,16.451658947134547 M60.32478883679107,40.95770389755354 L78.9198881448418,114.3581586787882 M121.45360490969074,16.451658947134547 L125.78118518213695,33.533921044133734 M78.91988814484182,114.35815867878819 L97.40538539594934,47.30981114791801 M97.40538539594934,47.309811147918026 Q97.95554474060543,45.36860053515278 99.27596298544569,44.329550611037575 M99.27596298544569,44.329550611037575 Q99.71610240039247,43.9832006363325 100.20513292897569,43.787152276729145 M100.20513292897569,43.787152276729145 Q101.1831939861421,43.39505555752244 102.35681949785419,43.60416529872263 M161.33394900187534,19.281107326310146 Q162.31201005904174,18.88901060710344 163.48563557075386,19.098120348303624 M102.35681949785419,43.60416529872262 Q104.55745687647857,43.99626201792934 105.98783535491879,45.84401142540837 M163.48563557075386,19.098120348303624 Q165.68627294937824,19.49021706751033 167.11665142781843,21.337966474989372 M107.19829336615919,50.073856892371325 L168.32710943905886,25.567811941952325 M105.98783535491879,45.84401142540837 Q107.41821383335895,47.691760832887425 107.19829336615919,50.073856892371325 M167.11665142781843,21.337966474989372 Q168.54702990625862,23.185715882468415 168.32710943905883,25.56781194195233 M106.86805448870285,52.18160012049621 L167.99687056160252,27.675555170077214 M107.19829336615919,50.073856892371325 Q107.19829336615919,50.838362531651384 106.86805448870285,52.18160012049621 M168.32710943905883,25.56781194195233 Q168.32710943905883,26.332317581232388 167.9968705616025,27.675555170077217 M85.3018798135152,125.0526222222812 L115.73205404749346,112.85341298620446 M106.86805448870285,52.18160012049621 L85.30187981351519,125.0526222222812 M167.9968705616025,27.675555170077217 L158.3323062886136,60.331632909787295 M149.70769748804182,89.47375329003255 L148.8345304639484,92.42414085155347 M85.3018798135152,125.0526222222812 Q84.42148159140277,127.82684690988448 82.66104332383458,128.91484510607515 M82.66104332383458,128.91484510607515 Q82.23858398436477,129.17593633987454 81.79710701331548,129.3529208652121 M81.7971070133155,129.35292086521213 Q80.39889698617783,129.91345188767292 78.80992791124191,129.63033865545438 M78.80992791124191,129.63033865545438 Q76.60929053261754,129.23824193624768 74.79387214824942,127.25821413118794 M74.79387214824942,127.25821413118794 Q72.9784537638813,125.2781863261282 72.31797600896863,122.7392260518315 M72.31797600896863,122.7392260518315 L54.602916746373644,54.59282901727143 M54.60291674637364,54.59282901727143 L36.88785748377866,116.42649439973371 M36.887857483778646,116.42649439973371 Q36.227737905522645,118.73015835181118 34.41214043282622,120.06323295196239 M34.41214043282622,120.06323295196239 Q33.82751083391557,120.4924882690272 33.20295777231589,120.74286650935221 M33.20295777231589,120.74286650935221 Q31.887928981888113,121.27005085087269 30.395905581505414,121.0042108329069 M133.16574279859557,139.95229755213595 Q128.43422916389048,139.10926407871136 124.30803407896974,136.08035840442608 M124.30803407896974,136.08035840442608 Q120.18183899404903,133.0514527301408 117.70612194309658,128.34126644591075 M117.70612194309658,128.34126644591075 Q115.23040489214418,123.6310801616807 115.23040489214418,117.64196870214433 M115.23040489214418,117.64196870214433 Q115.23040489214418,108.59441986962264 121.44727712208939,103.90401711126404 M121.44727712208939,103.90401711126404 Q122.86297140427588,102.83592754458839 124.62385307171455,102.13000441263766 M124.62385307171455,102.13000441263766 Q130.59569765475666,99.73594051297991 140.5377347463246,101.50735463313447 M140.5377347463246,101.50735463313448 L153.8515192516708,103.87952702076997 M153.85151925167082,103.87952702076996 L153.85151925167082,102.8599096244865 M153.85151925167082,102.8599096244865 Q153.85151925167082,94.32216949010655 150.22050339460625,90.04329597878642 M150.22050339460625,90.04329597878642 Q146.58948753754166,85.76442246746629 139.10753535621276,84.43133191285875 M139.10753535621276,84.43133191285875 Q134.48598195510755,83.60789051182942 131.02008553677112,83.94609307749283 M131.02008553677112,83.94609307749283 Q127.55418911843475,84.28429564315621 124.47315351769791,84.88230057598929 M124.47315351769791,84.88230057598929 Q123.5927552955855,84.98013330231478 123.04259595092941,84.88210912251313 M123.04259595092941,84.88210912251313 Q121.39211791696113,84.58803658310809 120.18183899404903,82.97073334311852 M120.18183899404903,82.97073334311852 Q118.97156007113693,81.35343010312897 118.97156007113693,79.31461012642711 M121.83231702801731,74.98176268928194 L182.96113310091698,50.47571773886294 M118.97156007113693,79.31461012642711 Q118.97156007113693,76.11103578481115 121.451305390169,75.1169260644246 M121.45130539016901,75.11692606442462 Q121.63500683664822,75.04328164933389 121.83231702801731,74.98176268928194 M182.58012146306865,50.61088111400561 Q182.7638229095479,50.537236698914896 182.961133100917,50.47571773886294 M121.83231702801731,74.98176268928194 Q125.68343244060998,73.75646044176098 130.3597868701868,73.25167739736887 M182.96113310091698,50.47571773886294 Q186.81224851350964,49.25041549134201 191.48860294308645,48.745632446949884 M130.3597868701868,73.25167739736887 Q135.03614129976364,72.74689435297674 140.86797362378095,73.78597618600466 M191.48860294308645,48.745632446949884 Q196.16495737266328,48.24084940255774 201.9967896966806,49.27993123558565 M140.86797362378095,73.78597618600466 Q148.90008514976597,75.21709092041388 153.96165857359904,79.81452706163313 M201.9967896966806,49.27993123558565 Q210.0289012226656,50.711045969994885 215.09047464649868,55.30848211121412 M153.96165857359904,79.81452706163313 Q159.02323199743213,84.41196320285235 161.44396893158464,90.57769049416032 M215.09047464649868,55.30848211121412 Q217.5452910492933,57.53819621495997 219.37894032690767,60.13679756672475 M161.44396893158464,90.57769049416032 Q163.8647058657371,96.74341778546827 163.8647058657371,102.98722618614299 M163.8647058657371,102.98722618614299 L163.8647058657371,139.0504878615256 M163.8647058657371,139.0504878615256 Q163.8647058657371,141.4717680658 162.37916818216863,142.86365079204967 M162.37916818216863,142.86365079204967 Q161.7897275852523,143.41593041044842 161.10501434467,143.6904263769963 M161.10501434467,143.6904263769963 Q160.064079018383,144.10772887907726 158.80295335357565,143.8830288714879 M158.80295335357565,143.8830288714879 Q156.71263438520788,143.51058804250184 155.28207681843935,141.59913249082553 M155.28207681843935,141.59913249082553 Q153.85151925167082,139.68767693914918 153.85151925167082,137.26639673487477 M153.85151925167082,137.26639673487477 L153.85151925167082,133.95326242075114 M153.85151925167082,133.95326242075114 Q150.88080206119056,136.99178863221422 145.92936795928566,139.16800838698444 M145.92936795928566,139.16800838698444 Q145.72854878707096,139.25627102781047 145.5230238599796,139.33866429869806 M145.52302385997962,139.3386642986981 Q140.66108873547876,141.2877745279057 133.16574279859557,139.95229755213595 M136.90689797758836,130.4243600389781 Q141.58099446367405,131.25716326010462 145.71581714082922,129.59954649442838 M145.71581714082924,129.59954649442838 Q146.15570408030217,129.4231993998115 146.58948753754166,129.21866581830875 M146.58948753754166,129.21866581830875 Q151.10072252839032,127.09156983463382 153.85151925167082,123.88609619194601 M153.85151925167082,123.88609619194601 L153.85151925167082,113.18177279442999 M153.85151925167082,113.18177279442997 L141.85833207949327,111.04489672901376 M141.85833207949324,111.04489672901376 Q134.15610125430786,109.67255821179029 129.6996672919308,111.17226115403928 M129.6996672919308,111.17226115403928 Q129.47799163930458,111.24686062780579 129.26734276175952,111.33130804873602 M129.26734276175952,111.331308048736 Q125.24323332955379,112.94454077540024 125.24323332955379,118.15168167354797 M125.24323332955379,118.15168167354797 Q125.24323332955379,122.22932162695167 127.71895038050619,125.7288678090445 M127.71895038050619,125.7288678090445 Q130.19466743145864,129.22841399113736 136.90689797758836,130.4243600389781 M200.06490420278294,151.8719995253245 Q198.08418729135835,151.5190869509083 195.38854977320614,150.59286694208564 M195.38854977320614,150.59286694208564 Q192.69291225505393,149.66664693326297 190.10705588217328,147.61302122107023 M190.10705588217328,147.61302122107023 Q187.5211995092926,145.5593955088775 185.7607612417244,141.8050407044519 M185.7607612417244,141.8050407044519 Q184.0003229741563,138.05068590002628 184.0003229741563,132.18892291105905 M184.0003229741563,132.18892291105905 L184.0003229741563,92.68517845098363 M184.0003229741563,92.68517845098364 L176.18813191537106,91.29324786136492 M176.188131915371,91.29324786136493 Q174.0974547703465,90.92074321455348 174.0974547703465,88.49946301027907 M174.0974547703465,88.49946301027907 Q174.0974547703465,87.22514867285729 175.0878132260588,86.5093360343511 M175.0878132260588,86.5093360343511 L190.05207576537333,72.22744916320086 M190.05207576537336,72.22744916320087 Q190.2719962325731,72.01152155098798 190.76717546042923,71.65382263966741 M190.76717546042923,71.65382263966741 Q190.91276061935648,71.54865737843834 191.07260304538914,71.48457785050066 M191.07260304538914,71.48457785050064 Q191.45643313161483,71.33070349220861 191.9224742665414,71.41373998054377 M251.8959915333289,47.147777689248414 Q252.04157669225614,47.04261242801933 252.20141911828878,46.97853290008166 M252.2014191182888,46.97853290008166 Q252.58524920451444,46.824658541789624 253.051290339441,46.907695030124785 M191.92247426654137,71.41373998054378 Q192.8028724886538,71.57060419535662 193.40801195010985,72.442930050636 M253.05129033944104,46.907695030124785 Q253.93168856155347,47.06455924493763 254.5368280230095,47.93688510021698 M193.40801195010985,72.442930050636 Q194.01315141156584,73.31525590591536 194.01315141156584,74.3348733021988 M254.5368280230095,47.93688510021698 Q255.1419674844655,48.80921095549637 255.1419674844655,49.828828351779805 M194.01315141156584,84.52938800157311 L255.1419674844655,60.023343051154114 M194.01315141156584,74.3348733021988 L194.01315141156584,84.5293880015731 M255.1419674844655,49.828828351779805 L255.1419674844655,60.0233430511541 M194.01315141156584,84.52938800157311 L206.4468958714563,86.74475999222115 M255.1419674844655,60.023343051154114 L267.575711944356,62.23871504180215 M206.44689587145635,86.74475999222113 Q208.3172943726244,87.0780166764167 209.52757329553648,88.69531991640625 M267.57571194435604,62.23871504180214 Q269.4461104455241,62.571971725997685 270.6563893684362,64.18927496598727 M209.52757329553648,88.69531991640625 Q210.73785221844855,90.31262315639582 210.73785221844855,92.47920641953188 M270.6563893684362,64.18927496598727 Q271.8666682913482,65.8065782059768 271.8666682913482,67.97316146911288 M210.73785221844855,92.47920641953188 Q210.73785221844855,94.51802639623374 209.52757329553648,95.76793041544319 M271.8666682913482,67.97316146911288 Q271.8666682913482,70.01198144581473 270.6563893684362,71.2618854650242 M209.52757329553648,95.76793041544319 Q209.02669795725197,96.28520464586471 208.4127621009745,96.53132653496964 M208.4127621009745,96.53132653496964 Q207.543227779987,96.87991576873851 206.44689587145635,96.68457775045708 M270.6563893684362,71.2618854650242 Q270.15551403015166,71.77915969544571 269.5415781738742,72.02528158455063 M206.44689587145635,96.6845777504571 L194.0131514115659,94.46920575980906 M194.01315141156584,94.46920575980906 L194.01315141156584,132.95333282360102 M255.1419674844655,77.79796833841078 L255.1419674844655,84.49071936419207 M194.01315141156584,132.95333282360104 Q194.01315141156584,136.64892736529723 195.22343033447794,138.52113495435765 M195.22343033447794,138.52113495435765 Q196.43370925739003,140.3933425434181 198.1393464964866,141.0158216122889 M198.1393464964866,141.0158216122889 Q199.84498373558318,141.63830068115968 201.16522289209513,141.87353318555355 M201.16522289209513,141.87353318555355 Q203.80605938177575,142.3440620121667 205.07131842148777,141.9960155469366 M205.07131842148777,141.9960155469366 Q206.33657746119977,141.64796908170652 207.7671350279683,141.90285747632103 M207.7671350279683,141.90285747632103 Q209.3076528283367,142.17733794333083 210.51793175124877,143.66729271275122 M210.51793175124877,143.66729271275122 Q211.72821067416086,145.1572474821716 211.72821067416086,147.19606745887344 M209.19769259473685,151.20529470345724 L224.93968187105952,144.89445929721413 M211.72821067416086,147.19606745887344 Q211.72821067416086,150.1271563612896 209.19769259473685,151.20529470345724 M209.19769259473685,151.20529470345724 Q207.2169756833122,151.8719995253245 204.96135818788787,152.10726393863106 M204.96135818788787,152.10726393863106 Q202.70574069246354,152.34252835193763 200.06490420278294,151.8719995253245 M247.81844877760682,160.38044727784967 Q234.39470403866073,157.98868281781893 226.85759265220352,147.7892381914331 M226.85759265220352,147.7892381914331 Q219.32048126574634,137.5897935650473 219.32048126574634,121.53351587670579 M219.32048126574634,121.53351587670579 Q219.32048126574634,112.86801245589162 222.07127798902684,105.64857309508469 M222.07127798902684,105.64857309508469 Q224.8220747123073,98.42913373427777 230.65372794799626,94.6258306577767 M230.65372794799626,94.6258306577767 Q231.91909596140925,93.80057959022912 233.33986951667583,93.2310030329438 M233.33986951667583,93.23100303294379 Q238.46696078249315,91.1755938642928 245.61781139898244,92.44969067528822 M294.46868558957544,68.7249580825248 Q299.5957768553928,66.66954891387378 306.7466274718821,67.94364572486921 M245.61781139898244,92.44969067528822 Q254.09048021268032,93.95930133492925 259.92213344836927,99.52212567530533 M306.7466274718821,67.94364572486921 Q315.21929628557996,69.45325638451027 321.05094952126893,75.01608072488632 M259.92213344836927,99.52212567530533 Q265.75378668405824,105.08495001568139 268.77966307966676,112.88771620948131 M321.05094952126893,75.01608072488632 Q325.53548653042265,79.29388851310786 328.36079974507254,84.89630799831642 M268.77966307966676,112.88771620948131 Q271.8055394752753,120.69048240328121 271.8055394752753,129.22822253766117 M271.8055394752753,129.22822253766117 Q271.8055394752753,131.64950274193558 270.43014111363505,133.0610094494932 M270.43014111363505,133.0610094494932 Q269.8919473972997,133.61333237044448 269.2105598228703,133.886495104493 M269.2105598228703,133.886495104493 Q268.15060533947417,134.31142223189767 266.7441451397706,134.0608273654489 M266.7441451397705,134.0608273654489 L229.44326993675583,127.41477521133018 M229.44326993675585,127.41477521133017 Q230.32366815886826,136.109794376388 235.05500270524504,142.1137275258716 M235.05500270524504,142.1137275258716 Q239.7863372516218,148.11766067535524 248.69884699971925,149.70563962457732 M248.69884699971925,149.70563962457732 Q253.6502811016241,150.58785724279238 257.0611974031606,150.11251017036219 M263.55314930543386,148.402000996388 L285.00936374702167,139.80037921879094 M257.0611974031606,150.11251017036219 Q260.47211370469705,149.637163097932 263.55314930543386,148.402000996388 M263.55314930543386,148.402000996388 Q264.4335475275463,148.04905651305913 265.5338662168585,148.2451048726625 M265.5338662168585,148.2451048726625 Q267.2943044844267,148.55876948446277 268.61472272926693,150.1956967057603 M268.61472272926693,150.1956967057603 Q269.93514097410724,151.83262392705782 269.93514097410724,153.99920719019389 M269.93514097410724,153.99920719019389 Q269.93514097410724,155.528218468754 269.1099019571231,156.5918223011887 M267.0740258405702,158.20422752307945 L285.0093637470216,151.01409649858365 M269.1099019571231,156.5918223011887 Q268.28466294013896,157.6554261336234 267.0740258405702,158.20422752307945 M267.0740258405702,158.20422752307945 Q266.09230429715427,158.68398645386037 265.0663162066877,159.09529673072853 M265.06631620668776,159.09529673072853 Q262.2977504258094,160.20519222409925 259.2068546649851,160.81667402331473 M259.20685466498503,160.81667402331473 Q254.97052025813605,161.65476161527144 247.81844877760682,160.38044727784967 M229.44326993675585,117.98518096710097 L255.31530363339195,107.6132931822564 M229.44326993675585,117.98518096710097 L261.9026712714656,123.76860757539986 M261.9026712714656,123.76860757539987 Q261.57243239400924,117.08308409627638 258.9867551094569,112.54453585343735 M258.9867551094569,112.54453585343735 Q256.4010778249046,108.00598761059834 252.77006196784004,105.44756289955711 M252.77006196784004,105.44756289955711 Q249.13904611077544,102.88913818851591 245.61781139898244,102.26174514708995 M245.61781139898244,102.26174514708995 Q242.0969348638461,101.6344159234894 238.46591900678152,102.89893422471354 M238.46591900678152,102.89893422471354 Q238.21838026946665,102.98514075090856 237.9759553886998,103.08232691296489 M237.9759553886998,103.0823269129649 Q234.66237689092551,104.41071356969908 232.30420598196457,107.79039504196876 M232.30420598196454,107.79039504196876 Q229.7735088142122,111.41733755799982 229.44326993675585,117.98518096710097 M289.9607978489265,167.2519678090773 Q287.870120703902,166.87946316226586 286.4397422254618,164.9680395195022 M286.4397422254618,164.9680395195022 Q285.0093637470216,163.0566158767386 285.0093637470216,160.63533567246418 M285.0093637470216,160.63533567246418 L285.0093637470216,105.9671676338965 M285.0093637470216,105.96716763389648 Q285.0093637470216,103.54588742962207 286.4397422254618,102.08050252297748 M286.4397422254618,102.08050252297748 Q287.0465331153787,101.45886131054593 287.7721514039717,101.16796684310032 M287.7721514039717,101.16796684310032 Q288.75702152384554,100.77314042606041 289.9607978489265,100.98762226314435 M348.90096747687136,76.6619218926813 Q349.8858375967452,76.26709547564141 351.0896139218261,76.48157731272535 M289.9607978489265,100.98762226314436 Q292.051474993951,101.36012690995581 293.53683358919113,103.34502082420164 M351.0896139218261,76.48157731272535 Q352.6077162645727,76.75206392437376 353.80665589979424,77.87270542448859 M293.53683358919113,103.34502082420164 Q295.0221921844312,105.32991473844748 295.0221921844312,107.7511949427219 M295.0221921844312,107.7511949427219 L295.0221921844312,113.2309125199816 M295.0221921844312,113.23091251998162 Q297.9929093749115,109.17276891223509 302.2842238985604,106.24177573655703 M302.2842238985604,106.24177573655703 Q303.4326537217936,105.45739138157869 304.68351299004144,104.95593207934431 M304.68351299004144,104.95593207934431 Q308.10671428368386,103.58359853576167 312.29705233597,104.33020850368626 M312.29705233597,104.33020850368626 L312.8472116806261,104.42823268348793 M312.8472116806261,104.42823268348795 Q314.9378888256506,104.8007373302994 316.3132871872909,106.7023649368654 M316.3132871872909,106.7023649368654 Q317.6886855489311,108.60399254343142 317.6886855489311,111.02527274770581 M317.6886855489311,111.02527274770581 Q317.6886855489311,113.44655295198022 316.2583070704909,114.72091515277104 M316.2583070704909,114.72091515277104 Q315.7507243469241,115.17313409093165 315.146146822771,115.41550430083787 M315.146146822771,115.41550430083788 Q314.04701254006767,115.85613829097365 312.6272912134264,115.60318063435518 M312.62729121342636,115.60318063435517 L312.07713186877027,115.5051564545535 M312.07713186877027,115.5051564545535 Q307.5219174805622,114.69353495150693 303.6736216411219,116.23628543944977 M303.6736216411219,116.23628543944979 Q302.96700570408524,116.51956201878107 302.2842238985604,116.88221749085594 M295.0221921844312,123.68012416049424 L320.69537317967985,113.38795480554533 M302.2842238985604,116.88221749085594 Q297.88294914131166,119.21992825277991 295.0221921844312,123.68012416049424 M295.0221921844312,123.68012416049424 L295.0221921844312,162.4193629812896 M295.0221921844312,162.4193629812896 Q295.0221921844312,164.840643185564 293.53683358919113,166.23255782072638 M293.53683358919113,166.23255782072638 Q292.94741775724714,166.78489348250415 292.26268611383847,167.05939682659536 M292.26268611383847,167.05939682659536 Q291.22185835275087,167.47665620666316 289.9607978489266,167.2519678090773 M336.28414303363854,175.50559098481335 Q334.1938240652707,175.13315015582728 332.76326649850216,173.22169460415097 M332.76326649850216,173.22169460415097 Q331.33270893173363,171.31023905247463 331.33270893173363,168.88895884820022 M331.33270893173363,168.88895884820022 L331.33270893173363,118.93600274761215 M331.33270893173363,118.93600274761215 L324.841115206117,117.77936848021268 M324.841115206117,117.7793684802127 Q323.08031876189216,117.46564005058701 321.8150597221802,115.77465913118272 M321.8150597221802,115.77465913118272 Q320.5498006824682,114.08367821177842 320.5498006824682,112.04485823507656 M320.5498006824682,112.04485823507656 Q320.5498006824682,109.8782749719405 321.8150597221802,108.70204863214579 M321.8150597221802,108.70204863214579 Q322.3163301308998,108.23605120427526 322.8953794186739,108.00391505660673 M322.89537941867394,108.00391505660673 Q323.7779112117905,107.65011524202343 324.8411152061171,107.83955072197674 M324.841115206117,107.83955072197674 L331.33270893173363,108.9961849893762 M331.33270893173363,108.9961849893762 L331.33270893173363,101.60499590598381 M331.33270893173363,101.60499590598381 Q331.33270893173363,93.57706446974558 333.80842598268606,89.17582027823684 M333.80842598268606,89.17582027823684 Q336.1949829498046,84.93308180164313 339.8596554060881,83.46394443384024 M339.85965540608805,83.46394443384025 Q339.99656498248953,83.40905849871211 340.1352584462312,83.35804372542086 M400.71643621352496,59.07154251551443 Q400.8515619025863,59.0127854185494 400.9884714789878,58.95789948342125 M400.9884714789878,58.95789948342126 Q401.1253810553892,58.90301354829311 401.2640745191309,58.85199877500185 M340.1352584462312,83.35804372542086 Q343.98637385882387,81.94151136411364 347.83748927141653,82.62768062272536 M401.2640745191309,58.85199877500186 Q405.11518993172353,57.43546641369463 408.9663053443162,58.121635672306354 M347.83748927141653,82.62768062272536 Q350.588285994697,83.11780152173372 353.0090229288495,84.24994569863914 M408.9663053443162,58.121635672306354 Q411.71710206759667,58.61175657131474 414.13783900174917,59.74390074822014 M357.4104767744266,86.88196831681333 L418.5392928473263,62.37592336639433 M353.0090229288495,84.24994569863914 Q355.429759863002,85.38208987554452 357.4104767744266,86.88196831681333 M414.13783900174917,59.74390074822014 Q416.5585759359017,60.87604492512553 418.5392928473263,62.37592336639433 M357.4104767744266,86.88196831681333 Q358.40083523013897,87.56823330216315 359.1709150419948,88.91608172889256 M418.5392928473263,62.37592336639433 Q419.52965130303863,63.062188351744155 420.2997311148945,64.41003677847357 M359.1709150419948,88.91608172889256 Q359.94099485385067,90.26393015562195 359.94099485385067,91.79294143418207 M420.2997311148945,64.41003677847357 Q421.06981092675034,65.75788520520295 421.06981092675034,67.28689648376306 M359.94099485385067,91.79294143418207 Q359.94099485385067,93.5770644697456 358.78569604773855,94.90043876043725 M421.06981092675034,67.28689648376306 Q421.06981092675034,69.0710195193266 419.9145121206382,70.39439381001826 M358.78569604773855,94.90043876043725 Q358.25696757343786,95.50608784961173 357.60149369379184,95.76886199428475 M357.60149369379184,95.76886199428475 Q356.82472356275866,96.08026281913536 355.86995897405825,95.91014843932864 M419.9145121206382,70.39439381001826 Q419.38578364633753,71.00004289919274 418.7303097666915,71.26281704386575 M355.86995897405825,95.91014843932862 Q354.54971981754625,95.67491593493477 353.229301572706,95.05719129405566 M353.229301572706,95.05719129405566 Q351.9088833278657,94.43946665317654 350.36836552749725,94.16498618616677 M350.36836552749725,94.16498618616677 Q347.3253960542814,93.62280765249126 345.17374487869165,94.48538710051692 M345.17374487869165,94.48538710051692 Q344.44681011586704,94.77680933176964 343.8216125967524,95.2285740641451 M343.8216125967524,95.2285740641451 Q341.3458955457999,97.01751534552568 341.3458955458,103.77154726020719 M402.5079859495384,77.76621465898249 Q402.4747116186996,78.4824923797423 402.4747116186996,79.26550230978819 M341.3458955458,110.78027611602701 L402.47471161869964,86.27423116560801 M341.3458955458,103.77154726020719 L341.3458955458,110.78027611602701 M402.4747116186996,79.26550230978819 L402.4747116186996,86.27423116560803 M341.3458955458,110.78027611602701 L355.0998791622024,113.23088061106891 M402.4747116186996,86.27423116560803 L416.228695235102,88.72483566064993 M355.09987916220234,113.23088061106891 Q356.97027766337044,113.56413729526446 358.1805565862825,115.18144053525403 M416.228695235102,88.72483566064992 Q418.0990937362701,89.05809234484546 419.30937265918215,90.67539558483503 M358.1805565862825,115.18144053525403 Q359.3908355091946,116.7987437752436 359.3908355091946,118.96532703837966 M419.30937265918215,90.67539558483503 Q420.51965158209424,92.29269882482458 420.51965158209424,94.45928208796064 M359.3908355091946,118.96532703837966 Q359.3908355091946,121.00414701508151 358.1805565862825,122.25405103429097 M420.51965158209424,94.45928208796064 Q420.51965158209424,96.4981020646625 419.30937265918215,97.74800608387196 M358.1805565862825,122.25405103429097 Q357.67968124799796,122.77132526471247 357.0657453917205,123.0174471538174 M357.0657453917205,123.01744715381741 Q356.196211070733,123.36603638758629 355.09987916220234,123.17069836930487 M419.30937265918215,97.74800608387196 Q418.80849732089763,98.26528031429346 418.19456146462016,98.51140220339839 M355.09987916220234,123.17069836930487 L341.3458955457999,120.72009387426297 M341.3458955458,120.72009387426297 L341.3458955458,170.67304997485104 M402.4747116186996,104.81336209214474 L402.4747116186996,107.40997770557519 M341.3458955458,170.67304997485104 Q341.3458955458,173.09433017912542 339.91533797903145,174.49600894157274 M339.91533797903145,174.49600894157274 Q339.35183631541236,175.04813514246572 338.6688490801615,175.32193916752095 M338.6688490801615,175.32193916752095 Q337.6179415987237,175.74323942545712 336.28414303363854,175.50559098481335 M383.48788644046294,184.55323554407312 Q378.75637280575785,183.71020207064853 374.63017772083714,180.68129639636325 M374.63017772083714,180.68129639636325 Q370.50398263591643,177.652390722078 368.02826558496395,172.94220443784792 M368.02826558496395,172.94220443784792 Q365.5525485340115,168.2320181536179 365.5525485340115,162.2429066940815 M365.5525485340115,162.2429066940815 Q365.5525485340115,153.1953578615598 371.76942076395676,148.5049551032012 M371.76942076395676,148.5049551032012 Q373.18511504614327,147.43686553652557 374.9459967135819,146.73094240457485 M374.94599671358196,146.73094240457485 Q380.91784129662403,144.3368785049171 390.85987838819193,146.10829262507167 M390.859878388192,146.10829262507167 L404.1736628935382,148.48046501270716 M404.1736628935382,148.48046501270716 L404.1736628935382,147.4608476164237 M404.1736628935382,147.4608476164237 Q404.1736628935382,138.92310748204375 400.5426470364736,134.6442339707236 M400.5426470364736,134.6442339707236 Q396.911631179409,130.3653604594035 389.42967899808013,129.03226990479592 M389.42967899808013,129.03226990479592 Q384.80812559697495,128.2088285037666 381.3422291786385,128.54703106943 M381.3422291786385,128.54703106943 Q377.8763327603021,128.8852336350934 374.7952971595653,129.4832385679265 M374.7952971595653,129.4832385679265 Q373.91489893745285,129.58107129425198 373.36473959279675,129.4830471144503 M373.36473959279675,129.4830471144503 Q371.71426155882847,129.18897457504528 370.50398263591643,127.57167133505571 M370.50398263591643,127.57167133505571 Q369.29370371300433,125.95436809506614 369.29370371300433,123.91554811836428 M372.1544606698847,119.58270068121911 L433.2832767427844,95.07665573080011 M369.29370371300433,123.91554811836428 Q369.29370371300433,120.71197377674832 371.7734490320364,119.71786405636178 M371.77344903203635,119.71786405636179 Q371.95715047851564,119.64421964127108 372.1544606698847,119.58270068121912 M432.9022651049361,95.2118191059428 Q433.0859665514153,95.13817469085208 433.2832767427844,95.07665573080013 M372.1544606698847,119.58270068121911 Q376.0055760824774,118.35739843369817 380.6819305120542,117.85261538930605 M433.2832767427844,95.07665573080013 Q437.13439215537704,93.85135348327918 441.81074658495385,93.34657043888706 M380.6819305120542,117.85261538930605 Q385.35828494163104,117.34783234491391 391.1901172656483,118.38691417794183 M441.81074658495385,93.34657043888706 Q444.7921109659039,93.02475090802776 448.2431281502379,93.33044703213267 M391.1901172656483,118.38691417794183 Q399.2222287916333,119.81802891235107 404.28380221546644,124.4154650535703 M404.28380221546644,124.4154650535703 Q409.3453756392995,129.01290119478952 411.766112573452,135.1786284860975 M411.766112573452,135.1786284860975 Q414.1868495076045,141.34435577740544 414.1868495076045,147.58816417808018 M414.1868495076045,147.58816417808018 L414.1868495076045,183.6514258534628 M414.1868495076045,183.65142585346277 Q414.1868495076045,186.07270605773718 412.70131182403605,187.46458878398687 M412.70131182403605,187.46458878398687 Q412.1118712271197,188.01686840238563 411.4271579865374,188.29136436893347 M411.4271579865374,188.29136436893347 Q410.3862226602504,188.70866687101443 409.1250969954431,188.48396686342508 M409.1250969954431,188.48396686342508 Q407.0347780270753,188.11152603443904 405.60422046030675,186.2000704827627 M405.60422046030675,186.2000704827627 Q404.1736628935382,184.28861493108636 404.1736628935382,181.86733472681195 M404.1736628935382,181.86733472681195 L404.1736628935382,178.55420041268832 M404.1736628935382,178.55420041268832 Q401.20294570305794,181.5927266241514 396.2515116011531,183.7689463789216 M396.2515116011531,183.7689463789216 Q396.0506924289384,183.85720901974764 395.8451675018471,183.93960229063524 M395.8451675018471,183.93960229063526 Q390.98323237734616,185.88871251984287 383.48788644046294,184.55323554407312 M387.22904161945576,175.02529803091528 Q391.9031381055415,175.8581012520418 396.0379607826966,174.20048448636558 M396.03796078269664,174.2004844863656 Q396.47784772216954,174.0241373917487 396.911631179409,173.81960381024595 M396.911631179409,173.81960381024595 Q401.4228661702577,171.692507826571 404.1736628935382,168.4870341838832 M404.1736628935382,168.4870341838832 L404.1736628935382,157.78271078636718 M404.1736628935382,157.78271078636718 L392.18047572136066,155.64583472095094 M392.1804757213606,155.64583472095094 Q384.4782448961753,154.2734962037275 380.02181093379824,155.77319914597646 M380.02181093379824,155.77319914597646 Q379.800135281172,155.84779861974297 379.58948640362695,155.9322460406732 M379.5894864036269,155.9322460406732 Q375.5653769714212,157.54547876733739 375.5653769714212,162.75261966548513 M375.5653769714212,162.75261966548516 Q375.5653769714212,166.83025961888885 378.0410940223736,170.3298058009817 M378.0410940223736,170.3298058009817 Q380.51681107332604,173.82935198307453 387.22904161945576,175.02529803091528 M435.9729446499919,193.26755960131194 Q433.88226750496744,192.8950549545005 432.4518890265272,190.98363131173687 M432.4518890265272,190.98363131173687 Q431.02151054808706,189.07220766897322 431.02151054808706,186.65092746469884 M431.02151054808706,186.65092746469884 L431.02151054808706,103.94784400285181 M431.02151054808706,103.94784400285181 Q431.02151054808706,101.39921532800824 432.4518890265272,99.99750465664823 M432.4518890265272,99.99750465664823 Q433.0329598218734,99.42807974783625 433.7229980157467,99.15144905084387 M433.7229980157467,99.15144905084387 Q434.7315751880614,98.74711866938786 435.9729446499919,98.96829863209967 M494.8518140886464,74.64540410042486 Q495.8603912609611,74.24107371896888 497.1017607228916,74.46225368168069 M435.9729446499919,98.96829863209967 Q438.17358202861635,99.36039535130638 439.6039605070565,101.27181899407002 M497.1017607228916,74.46225368168069 Q499.302398101516,74.85435040088738 500.7327765799562,76.76577404365102 M439.6039605070565,101.27181899407002 Q441.0343389854967,103.18324263683365 441.0343389854967,105.73187131167722 M500.7327765799562,76.76577404365102 Q502.16315505839634,78.67719768641464 502.16315505839634,81.22582636125821 M441.0343389854967,105.73187131167722 L441.0343389854967,188.43495477352425 M502.16315505839634,81.22582636125821 L502.16315505839634,87.5796019814818 M441.0343389854967,188.43495477352425 Q441.0343389854967,190.85623497779866 439.6039605070565,192.25794564915867 M439.6039605070565,192.25794564915867 Q439.04048662753485,192.8101263215213 438.35748124834254,193.083937620335 M438.35748124834254,193.083937620335 Q437.3066774296978,193.50519632070095 435.9729446499919,193.26755960131194 M463.37095164919685,198.1491765190005 Q461.2802745041724,197.77667187218904 459.8498960257322,195.8652482294254 M459.8498960257322,195.8652482294254 Q458.419517547292,193.95382458666177 458.419517547292,191.53254438238736 M458.419517547292,191.53254438238736 L458.419517547292,108.82946092054033 M458.419517547292,108.82946092054034 Q458.419517547292,106.28083224569677 459.8498960257322,104.87912157433678 M459.8498960257322,104.87912157433678 Q460.4309668210784,104.3096966655248 461.1210050149517,104.03306596853241 M461.1210050149517,104.03306596853241 Q462.12958218726635,103.6287355870764 463.37095164919685,103.84991554978822 M522.2498210878514,79.5270210181134 Q523.258398260166,79.12269063665742 524.4997677220965,79.34387059936924 M463.37095164919685,103.84991554978822 Q465.5715890278213,104.24201226899493 467.00196750626145,106.15343591175855 M524.4997677220965,79.34387059936923 Q526.7004051007209,79.73596731857593 528.1307835791611,81.64739096133957 M467.00196750626145,106.15343591175855 Q468.4323459847016,108.0648595545222 468.4323459847016,110.61348822936576 M528.1307835791611,81.64739096133957 Q529.5611620576012,83.55881460410319 529.5611620576012,86.10744327894676 M468.4323459847016,110.61348822936576 L468.4323459847016,193.3165716912128 M529.5611620576012,86.10744327894676 L529.5611620576012,125.34863234013048 M468.4323459847016,193.3165716912128 Q468.4323459847016,195.7378518954872 467.00196750626145,197.1395625668472 M467.00196750626145,197.1395625668472 Q466.4384936267398,197.6917432392098 465.7554882475475,197.96555453802353 M465.7554882475475,197.96555453802353 Q464.70468442890274,198.3868132383895 463.37095164919685,198.1491765190005 M550.2961281048601,214.2741540963762 Q539.4029014453381,212.33326257273794 530.6553320476405,205.23148732749698 M530.6553320476405,205.23148732749698 Q521.9077626499429,198.12971208225602 516.8463683144382,186.96950604905427 M516.8463683144382,186.96950604905427 Q511.7849739789334,175.80930001585253 511.7849739789334,161.6644938336437 M511.7849739789334,161.6644938336437 Q511.7849739789334,147.3923391808657 516.8463683144382,138.09963417210173 M516.8463683144382,138.09963417210173 Q521.9077626499429,128.80692916333777 530.6553320476405,124.82212819142266 M530.6553320476405,124.82212819142266 Q531.2714785648559,124.54145351151809 531.8982702754108,124.2901778150431 M531.8982702754108,124.2901778150431 Q540.1701801444095,120.97403645817874 550.2961281048601,122.77821874314584 M593.0270863483105,99.78413286462408 Q601.2989962173092,96.46799150775975 611.4249441777599,98.27217379272685 M550.2961281048601,122.77821874314584 Q558.4385580411017,124.22898936777572 564.3801715103906,127.58156309799142 M611.4249441777599,98.27217379272685 Q619.5673741140015,99.72294441735673 625.5089875832903,103.07551814757242 M575.3835374918408,135.14914465076652 L636.5123535647405,110.64309970034752 M564.3801715103906,127.58156309799142 Q570.3217849796795,130.93413682820716 575.3835374918408,135.14914465076652 M625.5089875832903,103.07551814757242 Q631.450601052579,106.42809187778815 636.5123535647405,110.64309970034752 M575.3835374918408,135.14914465076652 Q576.483856181153,135.98235017908075 577.0889956426091,137.1732546187156 M636.5123535647405,110.64309970034752 Q637.6126722540528,111.47630522866177 638.2178117155088,112.6672096682966 M577.8040953376651,140.16787416630916 L638.9329114105648,115.66182921589017 M577.0889956426091,137.1732546187156 Q577.6941351040651,138.3641590583504 577.8040953376651,140.16787416630916 M638.2178117155088,112.6672096682966 Q638.8229511769648,113.8581141079314 638.9329114105647,115.66182921589018 M577.8040953376651,140.16787416630916 Q577.914055571265,142.22628621540628 576.7037766483529,143.53986446990032 M638.9329114105647,115.66182921589018 Q639.0428716441645,117.72024126498728 637.8325927212525,119.03381951948133 M576.7037766483529,143.53986446990032 Q576.2120816002285,144.07352651327832 575.5750750856098,144.32889724158326 M575.5750750856098,144.32889724158326 Q574.6441269068844,144.70210679118665 573.4028205804162,144.4809380775829 M637.8325927212525,119.03381951948133 Q637.3408976731281,119.56748156285933 636.7038911585095,119.82285229116427 M573.4028205804162,144.48093807758292 Q572.302501891104,144.28488971797955 571.4221036689917,143.61821680502499 M571.4221036689917,143.61821680502499 Q567.0208289117428,140.15804622119884 562.3996336872942,137.6781014809331 M562.3996336872942,137.6781014809331 Q557.7784384628458,135.19815674066734 551.2864865605725,134.0414586554425 M551.2864865605725,134.0414586554425 Q542.765366472307,132.5232152305927 536.6302709608404,134.98272509906155 M536.6302709608404,134.98272509906155 Q535.7937701819966,135.31807145458336 535.0016266880895,135.72736605772818 M535.0016266880893,135.72736605772818 Q528.3997145522162,139.1385245516535 525.0987584842796,146.38749561116043 M525.0987584842796,146.38749561116043 Q521.7978024163431,153.63646667066737 521.7978024163431,163.4485211424691 M521.7978024163431,163.4485211424691 Q521.7978024163431,173.2609904301359 525.0987584842796,181.68604423933044 M582.9776557682144,141.3612628816985 Q583.3370716725809,149.80254807866388 586.2275745571791,157.17999928891146 M525.0987584842796,181.68604423933044 Q528.3997145522162,190.11109804852498 535.0016266880893,195.87504426562305 M586.2275745571792,157.17999928891146 Q589.5285306251159,165.605053098106 596.130442760989,171.36899931520404 M535.0016266880893,195.87504426562305 Q541.6035388239625,201.6389904827211 551.2864865605725,203.36424157436076 M596.130442760989,171.36899931520404 Q599.029992405987,173.90051561890652 602.5238592990324,175.65298666519908 M551.2864865605725,203.36424157436076 Q557.7784384628458,204.52093965958562 562.3996336872942,203.6875426777952 M571.4221036689917,200.96236198900544 L596.5652664815947,190.88267261065158 M562.3996336872942,203.6875426777952 Q566.5075485449173,202.94671185859872 570.4416833656785,201.36954922152745 M570.4416833656785,201.36954922152748 Q570.9332500689643,201.17248413012294 571.4221036689916,200.96236198900544 M571.4221036689917,200.96236198900544 Q572.302501891104,200.60941750567656 573.4028205804162,200.8054658652799 M573.4028205804162,200.8054658652799 Q575.4934977254408,201.17797051209135 576.7037766483529,202.9228296305826 M577.8040953376651,206.68691665338045 L592.721676951123,200.7065795708664 M576.7037766483529,202.9228296305826 Q577.914055571265,204.66768874907387 577.8040953376651,206.68691665338045 M577.8040953376651,206.68691665338045 Q577.6941351040651,208.4514476165487 577.0889956426091,209.42691903211744 M575.3835374918408,210.8434992567937 L591.2431807981004,204.4854973073152 M577.0889956426091,209.42691903211744 Q576.483856181153,210.40239044768617 575.3835374918408,210.8434992567937 M575.3835374918408,210.8434992567937 Q574.1187001958493,211.44602824059308 572.7989237975642,211.97511585947169 M572.7989237975642,211.97511585947169 Q568.8370868842538,213.56338404003043 564.3801715103906,214.48984239174385 M564.3801715103906,214.48984239174385 Q558.4385580411017,215.7249247210061 550.2961281048601,214.2741540963762 M592.6583976433797,221.18485877239436 Q590.3478000311554,220.77316998079237 589.0273817863151,218.881338410424 M589.0273817863151,218.881338410424 Q587.7069635414748,216.98950684005564 587.7069635414748,214.56822663578123 M587.7069635414748,214.56822663578123 Q587.7069635414748,213.54860923949778 588.2571228861309,212.11762214073934 M588.2571228861309,212.11762214073934 L616.3152494635918,140.4032981241792 M616.3152494635917,140.4032981241792 Q617.0853292754477,138.5012716562045 618.680827192616,137.19265523763465 M618.680827192616,137.19265523763465 Q619.1962539572838,136.7699057501193 619.7978228191096,136.5287416884582 M619.7978228191097,136.52874168845824 Q621.0584037947973,136.02338503281803 622.6972411322652,136.31538350088744 M680.9266388920092,112.02269673803923 Q682.187219867697,111.51734008239904 683.826057205165,111.80933855046845 M622.6972411322652,136.31538350088746 L623.7975598215774,136.5114318604908 M683.826057205165,111.80933855046845 L684.9263758944771,112.0053869100718 M623.7975598215775,136.5114318604908 Q626.3280779010015,136.96230479688327 627.8685957013698,138.82967818567025 M684.9263758944771,112.0053869100718 Q687.4568939739011,112.45625984646428 688.9974117742695,114.32363323525126 M630.1791933135942,142.87349469161637 L691.3080093864938,118.36744974119738 M627.8685957013698,138.82967818567025 Q629.4091135017383,140.69705157445728 630.1791933135942,142.87349469161637 M688.9974117742695,114.32363323525126 Q690.5379295746379,116.19100662403828 691.3080093864937,118.36744974119736 M658.237319891055,224.58628504794743 L674.9620206979376,217.88148858555564 M630.1791933135942,142.87349469161637 L658.2373198910551,224.58628504794746 M691.3080093864937,118.36744974119736 L698.4053712665127,139.03687119326514 M658.237319891055,224.58628504794743 Q658.7874792357112,226.21332050630923 658.7874792357112,227.23293790259268 M658.7874792357112,227.23293790259268 Q658.7874792357112,229.6542181068671 657.4670609908709,231.07552085062235 M657.4670609908709,231.07552085062235 Q656.9389059741815,231.64402872854816 656.2523296263736,231.9192715996224 M656.2523296263737,231.9192715996224 Q655.2224251920733,232.3321519068657 653.8360451338062,232.08513480277566 M653.8360451338062,232.08513480277566 Q650.4251288322698,231.47739765157036 649.1048896757579,227.67391907604946 M649.1048896757579,227.67391907604946 L641.9528181952287,206.52038403802078 M641.9528181952286,206.52038403802078 L604.541982758614,199.85473981150682 M597.3899112780848,218.4596461746919 L631.7197111139626,204.69710876657945 M604.541982758614,199.85473981150682 L597.3899112780848,218.4596461746919 M597.3899112780848,218.4596461746919 Q596.6151493791073,220.4150056259066 595.120924852307,221.01402807999958 M595.1209248523069,221.01402807999958 Q594.0682134393663,221.43605151939644 592.6583976433798,221.18485877239436 M608.3930981712067,189.96434895903673 L632.9925796965939,180.10261698472164 M623.2474004769214,151.1957858474739 L608.3930981712067,189.96434895903673 M608.3930981712067,189.96434895903673 L638.1017027826359,195.25765466832723 M638.1017027826359,195.25765466832723 L623.2474004769213,151.1957858474739 M702.0301469963431,240.03492131182173 L679.9134547998426,236.09429822953405 M679.9134547998426,236.09429822953405 Q677.8231358314747,235.72185740054798 676.3925782647062,233.81040184887166 M676.3925782647062,233.81040184887166 Q674.9620206979378,231.89894629719532 674.9620206979378,229.4776660929209 M674.9620206979378,229.4776660929209 L674.9620206979378,152.12695173776444 M674.9620206979378,152.12695173776441 Q674.9620206979378,149.70567153349003 676.3925782647062,148.2401111278256 M676.3925782647062,148.2401111278256 Q676.9995456213868,147.61829251238095 677.7252830163051,147.3273502961787 M677.7252830163051,147.32735029617874 Q678.7100315484472,146.9325726226711 679.9134547998426,147.14699155114724 M738.8540990892047,122.8213053457597 Q739.838847621347,122.4265276722521 741.0422708727423,122.64094660072826 M679.9134547998426,147.14699155114724 L702.0301469963431,151.08761463343492 M741.0422708727423,122.64094660072826 L763.1589630692428,126.58156968301594 M702.0301469963431,151.08761463343492 Q711.9330152001528,152.85204986986508 719.1950469142819,158.0327809351646 M763.1589630692428,126.58156968301594 Q773.0618312730525,128.3460049194461 780.3238629871815,133.5267359847456 M719.1950469142819,158.0327809351646 Q726.457078628411,163.21351200046414 731.298552496716,170.51138346867748 M780.3238629871815,133.5267359847456 Q787.5858947013107,138.70746705004512 792.4273685696157,146.00533851825847 M731.298552496716,170.51138346867748 Q736.140026365021,177.80925493689082 738.5056040940452,186.13153013829202 M792.4273685696157,146.00533851825847 Q797.2688424379207,153.30320998647184 799.6344201669449,161.625485187873 M738.5056040940452,186.13153013829202 Q740.8711818230695,194.4538053396932 740.8711818230695,202.4817367759314 M799.6344201669449,161.625485187873 Q801.999997895969,169.94776038927418 801.999997895969,177.97569182551243 M740.8711818230695,202.4817367759314 Q740.8711818230695,210.5100830280347 738.5056040940452,217.98938857383672 M801.999997895969,177.97569182551243 Q801.999997895969,186.0040380776157 799.6344201669449,193.48334362341768 M738.5056040940452,217.98938857383672 Q736.140026365021,225.4686941196387 731.298552496716,231.04131449621238 M799.6344201669449,193.48334362341768 Q797.2688424379207,200.9626491692197 792.4273685696157,206.53526954579337 M731.298552496716,231.04131449621238 Q726.8475282693705,236.16452056540305 720.3506238483288,238.76907668163395 M720.3506238483288,238.76907668163398 Q719.7807069328109,238.99755173557634 719.1950469142819,239.20664571051898 M792.4273685696157,206.53526954579337 Q787.9763443422703,211.65847561498404 781.4794399212285,214.26303173121497 M719.1950469142819,239.20664571051898 Q711.9330152001528,241.79935654825186 702.0301469963431,240.03492131182173 M684.975207312004,226.16449986988457 L730.4183008763181,207.94673343637294 M684.975207312004,158.88053692766817 L684.975207312004,226.16449986988457 M684.975207312004,226.1644998698846 L700.8195098967743,228.98754519391255 M700.8195098967743,228.98754519391252 Q709.494461823828,230.53319747761583 715.9885281860386,227.92977911607662 M715.9885281860386,227.92977911607667 Q716.4135806210618,227.75937905358336 716.8292900969293,227.5712042860815 M716.8292900969293,227.57120428608147 Q723.5963216715307,224.5080443940172 727.2823176453952,217.5825818458772 M727.2823176453952,217.5825818458772 Q730.9683136192597,210.6571192977372 730.9683136192597,200.71730153950125 M730.9683136192597,200.71730153950125 Q730.9683136192597,190.77789859713033 727.2823176453952,182.53893756677803 M727.2823176453952,182.53893756677803 Q723.5963216715307,174.29997653642576 716.8292900969293,168.82518888617756 M716.8292900969293,168.82518888617756 Q710.0622585223281,163.35040123592935 700.8195098967743,161.70358225169613 M700.8195098967743,161.70358225169613 L684.975207312004,158.88053692766817" />
    <path class="edge outline visible" d="M4.534549974599258,26.773122049023513 L65.66336604749893,2.2670770986044886 M51.90104396012134,35.336398735756106 L113.02986003302101,10.83035378533711 M100.20513292897567,43.78715227672913 L161.33394900187534,19.281107326310135 M81.7971070133155,129.3529208652121 L115.2890006880591,115.92629321894583 M33.20295777231587,120.7428665093522 L68.15636836674918,106.73032862253751 M124.62385307171456,102.13000441263766 L151.24900833229805,91.4561963210557 M121.45130539016898,75.11692606442462 L182.58012146306862,50.61088111400562 M161.10501434467,143.6904263769963 L184.07292308686692,134.48277865514018 M145.52302385997962,139.33866429869806 L153.85151925167082,135.99983826623014 M191.07260304538912,71.48457785050066 L252.20141911828875,46.97853290008166 M208.4127621009745,96.53132653496962 L269.54157817387414,72.02528158455061 M233.33986951667583,93.23100303294379 L294.4686855895755,68.72495808252481 M269.2105598228703,133.886495104493 L285.00936374702167,127.55288316824367 M265.0663162066877,159.09529673072853 L285.00936374702155,151.10029125100635 M287.7721514039717,101.1679668431003 L348.90096747687136,76.6619218926813 M304.6835129900414,104.95593207934431 L332.05687671631495,93.98217330213777 M315.1461468227711,115.41550430083788 L320.65770012920143,113.20596742852322 M292.26268611383847,167.05939682659536 L331.33270893173363,151.3965425968092 M322.89537941867394,108.00391505660673 L331.3327089317337,104.62145831047971 M339.85965540608805,83.46394443384025 L400.9884714789877,58.957899483421244 M357.60149369379184,95.76886199428475 L418.7303097666915,71.26281704386577 M357.0657453917205,123.0174471538174 L418.19456146462016,98.5114022033984 M338.66884908016146,175.32193916752092 L365.6448026239189,164.50749889870622 M374.9459967135819,146.73094240457485 L401.57115197416556,136.05713431299284 M371.77344903203635,119.71786405636179 L432.902265104936,95.2118191059428 M411.4271579865374,188.29136436893347 L431.021510548087,180.43614786882898 M395.845167501847,183.93960229063526 L404.1736628935382,180.60077625816734 M433.7229980157467,99.15144905084387 L494.8518140886464,74.64540410042488 M438.35748124834254,193.083937620335 L458.4195175472921,185.04123051551096 M461.1210050149517,104.03306596853241 L522.2498210878514,79.5270210181134 M465.7554882475474,197.96555453802353 L513.8903843219423,178.66866638177112 M531.8982702754108,124.2901778150431 L593.0270863483104,99.7841328646241 M575.5750750856098,144.32889724158326 L636.7038911585094,119.82285229116428 M572.7989237975642,211.97511585947169 L591.1988816045712,204.59872249751623 M619.7978228191097,136.5287416884582 L680.9266388920094,112.02269673803923 M656.2523296263737,231.9192715996224 L674.9620206979378,224.41870869224635 M595.120924852307,221.01402807999958 L634.5600844767175,205.20318990819604 M677.7252830163052,147.32735029617868 L738.8540990892047,122.8213053457597 M720.350623848329,238.76907668163398 L781.4794399212285,214.263031731215" />
  </g>
</svg>
