<?xml version='1.0' ?>
<svg xmlns="http://www.w3.org/2000/svg" xmlns:xlink="http://www.w3.org/1999/xlink" version="1.1" width="803.9999981157755" height="236.89717836920187">
  <style type="text/css">
.edge {
  fill: None;
}
.edge.visible {
  stroke: #000000;
}
.edge.hidden {
  stroke: #C8C8FF;
}
@media (prefers-color-scheme: dark) {
    .edge.visible {
      stroke: #FFFFFF;
    }
    .edge.hidden {
      stroke: #A00000;
    }
}
</style>
  <g>
    <path class="edge sharp hidden" d="M2.6242370374449138,36.47477871660618 L60.4302258187472,13.300828189106397 M23.018122138095237,106.38594059820161 L80.82411091939753,83.21199007070183 M60.4302258187472,13.300828189106397 L80.82411091939755,83.21199007070183 M80.82411091939753,83.21199007070183 C82.28088957807955,88.1709137394393 85.2984299338566,91.60074894075353 89.14817330390508,92.28667373683572 M89.14817330390508,92.28667373683572 L90.81291803941349,92.58328823382182 M65.7289912602498,99.80764820109496 L99.03299738550777,86.45634314455181 M90.81291803941349,92.5832882338218 C92.1369857747927,92.81920289204422 93.35024917978552,92.70760085323114 94.4315748174529,92.27410620397904 M94.43157481745288,92.27410620397904 C96.49449350034259,91.44709889024888 98.07721418119955,89.44853780889558 99.03299738550776,86.45634314455181 M55.58615170026724,63.86608649596343 L113.39214048156953,40.692135968463646 M99.03299738550777,86.45634314455181 L113.39214048156946,40.69213596846365 M69.94495608936336,114.74708987875763 L127.75094487066565,91.57313935125785 M113.39214048156953,40.69213596846366 L127.7509448706657,91.57313935125785 M127.75094487066562,91.57313935125785 C129.20772352934762,96.65288137665172 132.12128084671141,99.94337113065345 135.97102421675993,100.62929592673564 M135.97102421675993,100.62929592673564 L137.63576895226834,100.92591042372173 M111.79488767800693,108.5139403332737 L145.95983133677584,94.81749242510782 M137.63576895226834,100.92591042372173 C138.9518875630004,101.16040875332727 140.17071888703381,101.03960426707269 141.2631597966325,100.60165359574977 M141.26315979663252,100.60165359574977 C143.36646973497855,99.75845375637611 145.00126329727448,97.7396253539434 145.95983133677586,94.81749242510784 M145.95983133677584,94.81749242510783 L159.82925779983137,52.21556572416092 M93.5646863295828,46.77321594731464 L151.3706751108851,23.599265419814856 M155.48661737117962,18.65501834557735 C153.4692276044925,19.463773487276676 152.05739065427542,21.335698549221142 151.3706751108851,23.59926541981487 M79.10156019510782,95.89278786911561 L136.9075489764101,72.71883734161582 M151.37067511088506,23.59926541981487 L136.90754897641014,72.71883734161585 M136.9075489764101,72.71883734161584 L125.52351358451195,30.666982839940836 M47.05378453196772,38.96827165383338 L104.85977331327001,15.7943211263336 M109.30608599910445,10.199915193206287 C107.19945770111347,11.04444533595967 105.68714674884224,13.067374507537178 104.85977331327,15.794321126333587 M32.486675359079584,87.58721986052791 L90.29266414038187,64.41326933302813 M104.85977331327001,15.794321126333585 L90.29266414038183,64.41326933302813 M90.29266414038187,64.41326933302813 L79.07541717326576,22.319144334561607 M64.14562107013454,2.4776878585024265 C61.58045922224665,3.506040370261749 59.80598888130231,6.128336169131133 59.80598888130231,9.694895103314993 M59.80598888130231,9.694895103314991 C59.80598888130231,10.77951444148033 60.11793799654197,12.160567230143272 60.4302258187472,13.300828189106397 M147.77507486729502,127.89106494357392 L205.5810636485973,104.71711441607414 M188.72497280275576,109.9082603807226 C192.95232169685193,110.66146472434477 196.45827715427018,110.30547042264178 199.39782104691614,109.12703119553481 M199.39782104691614,109.12703119553481 C201.8124543074649,108.15902436956885 203.84490174735168,106.6360733858311 205.58106364859728,104.71711441607414 M205.58106364859728,104.71711441607414 L205.58106364859728,104.83793277273053 M205.58106364859728,104.83793277273054 C205.58106364859728,108.69392123354982 208.59860400437438,112.96713132710832 213.1769060572466,113.7828664554422 M213.1769060572466,113.7828664554422 C214.4466960098374,114.00911021524043 215.64275524539312,113.88058793355137 216.69647641268,113.45815969185362 M216.69647641267997,113.45815969185361 C219.18286003644866,112.4613887291149 220.87673150430916,109.82820349692837 220.87673150430916,106.35818013663221 M220.87673150430916,106.35818013663223 L220.87673150430916,76.95499325386217 M220.87673150430916,76.95499325386216 C220.87673150430916,68.2784308159312 219.00368198500874,60.83524758087988 214.84165079275502,55.273499454279914 M214.84165079275502,55.273499454279914 C213.3143199796801,53.232366271193705 211.44535635561743,51.418133985615725 209.22876557186007,49.87138804356954 M177.58295296721744,45.098253795705624 C175.42498538786165,45.963365438603674 173.94989755304107,48.26996065480341 173.94989755304107,51.24111136483596 M173.94989755304107,51.24111136483596 C173.94989755304107,55.458770360840916 176.8631161634394,59.2312963904635 180.50489345666145,59.880167005233474 M124.98822505527806,82.98031091425635 L182.79421383658035,59.806360386756566 M180.50489345666145,59.880167005233474 C181.23345213948517,60.00997733748517 181.85768907693011,60.000774140986636 182.79421383658033,59.806360386756566 M182.79421383658033,59.806360386756566 C185.81141548539188,59.25932842176563 189.3492097402007,59.16672314289988 193.71954571624647,59.94540408992158 M193.71954571624647,59.94540408992158 C201.62733724013552,61.354368212227655 205.68538539397605,66.2950665344565 205.68538539397605,73.8866173668304 M147.87939661267376,98.14518723249552 L205.68538539397605,74.97123670499573 M205.68538539397605,73.8866173668304 L205.68538539397605,74.97123670499573 M205.68538539397605,74.97123670499573 C201.73132027854874,72.70000850681225 197.6732721247082,70.89274210981476 192.05446227377254,69.89161537726088 M192.05446227377254,69.89161537726088 C186.8006569500347,68.95552302020201 182.17183051973308,69.15935840218016 178.50150598912853,70.63076164058668 M178.50150598912853,70.63076164058668 C172.94027049824882,72.86021569637663 169.57956157699533,77.99974927079495 169.57956157699533,86.49336715144925 M169.57956157699533,86.49336715144926 L169.57956157699533,86.73421932997856 M169.57956157699533,86.73421932997856 C169.57956157699533,99.50762240725808 178.2159117837081,108.0358172478665 188.72497280275576,109.9082603807226 M193.51124093245443,98.10807270235381 C188.4126849805505,97.19964177190991 184.87522943270721,93.6771711173152 184.87522943270721,88.73656331833061 M184.87522943270721,88.73656331833061 L184.87522943270721,88.4957111398013 M184.87522943270721,88.4957111398013 C184.87522943270721,85.10767507693981 186.30309889285488,82.88364296314707 188.8452123182623,81.86453037641212 M188.8452123182623,81.8645303764121 C190.6432348793298,81.14371776242591 192.9986750901106,81.0256846400115 195.80056131237333,81.52490836765101 M148.08736268950022,108.90722417141295 L205.89335147080251,85.73327364391317 M195.80056131237333,81.52490836765101 C199.65030468242185,82.2108331637332 203.1880989372307,83.80497766935605 205.89335147080251,85.73327364391318 M205.89335147080251,85.73327364391318 L205.89335147080251,88.98673939101745 M205.89335147080251,88.98673939101745 C205.89335147080251,93.19296517144825 203.88170665596502,96.264237044941 200.52341651281992,97.61054823647981 M200.5234165128199,97.61054823647981 C198.59004896632203,98.38561955380511 196.21036213985718,98.58898635966223 193.51124093245443,98.10807270235382 M204.066479001134,144.18721024518092 L261.8724677824363,121.01325971768114 M252.8201854220706,121.20794504164394 C256.25365793150064,121.81970112627222 258.959249172038,121.81967095185747 261.8724677824363,121.01325971768112 M261.8724677824363,121.01325971768112 C262.0492924341258,120.96673635800734 262.2240740920515,120.90880225437277 262.3959853748006,120.83988441998336 M262.39598537480066,120.83988441998336 C264.3483588819816,120.05719376767425 265.9305159362769,117.85783888535939 265.9305159362769,114.86730474711905 M265.9305159362769,114.86730474711905 C265.9305159362769,110.6496457511141 262.91297558049973,106.73810619274127 259.37518132569096,106.10776266862737 M259.37518132569096,106.10776266862737 C259.06323221045125,106.05218139665908 258.0227244123878,105.98721588170372 257.5024705133561,105.89452007959373 M257.5024705133561,105.89452007959373 C253.96467625854729,105.26417655547984 252.40391456145215,102.93766882947556 252.40391456145215,98.72000983347058 M194.59792578014986,94.29834161934531 L252.40391456145215,71.12439109184552 M252.40391456145215,98.72000983347058 L252.40391456145215,78.25201674077033 M252.40391456145215,76.09260978398862 L252.40391456145215,71.1243910918455 M252.40391456145215,71.12439109184551 L259.375181325691,72.3664907005877 M259.37518132569096,72.3664907005877 C260.4663442407323,72.56090773778952 261.4956646497908,72.44780115433844 262.4065909659901,72.08261820650122 M240.9615146670864,37.149987144841205 C238.36766856122404,38.18983894221491 236.588331513674,40.977424285790654 236.588331513674,44.56683256642753 M178.78234273237175,75.81482281814327 L236.58833151367404,52.640872290643486 M236.588331513674,44.566832566427536 L236.588331513674,52.6408722906435 M236.588331513674,52.6408722906435 L236.06807761464228,52.5481764885335 M236.0680776146423,52.5481764885335 C234.97691469960094,52.353759451331676 233.94759429054247,52.466866034782754 233.03666797434315,52.832048982619966 M233.03666797434315,52.832048982619966 C230.82027008412814,53.72058486168638 229.30477692722994,56.10143773637994 229.30477692722994,59.17592633939845 M229.30477692722994,59.175926339398444 C229.30477692722994,63.51401142466804 232.3219785760415,67.54630899086774 236.0680776146423,68.21376704512335 M178.78234273237175,91.48041337473313 L236.58833151367404,68.30646284723335 M236.0680776146423,68.21376704512335 L236.58833151367404,68.30646284723335 M236.588331513674,68.30646284723335 L236.588331513674,98.9146951574334 M236.588331513674,98.91469515743341 C236.588331513674,113.85694464365187 243.14332741729442,119.48377898286616 252.8201854220706,121.20794504164394 M281.58464866382593,141.91127483829655 L321.38971705584447,125.95374681900674 M321.38971705584447,125.95374681900675 C322.5342078923212,124.95262008645287 323.4707326519714,123.31191645887176 323.4707326519714,120.90182560401179 M323.4707326519714,120.90182560401179 C323.4707326519714,116.80498496466322 320.8694631568128,113.20807402888187 317.33166890200397,112.57773050476797 M255.67559804368764,136.5119857607071 L313.4815868249899,113.33803523320731 M317.33166890200397,112.57773050476797 C316.18189812188695,112.37287106036219 315.32989443248647,112.45103079650985 314.5356334352198,112.769443567308 M314.53563343521984,112.769443567308 C314.17988972138676,112.91205832745034 313.83572964680536,113.10286974035806 313.4815868249899,113.33803523320732 M313.4815868249899,113.33803523320732 C312.52665289864086,113.98837405486991 311.5352329237006,114.52662442317929 310.4992320280898,114.94194875215427 M310.49923202808986,114.94194875215427 C308.035904372508,115.92947676485632 305.32053458947667,116.2220316812933 302.24430583008404,115.67392720219864 M230.8077326355438,123.76628279616747 L288.6137214168461,100.59233226866769 M302.24430583008404,115.67392720219864 C295.1687173204665,114.41324015397086 290.1744831139413,109.18531157774294 288.6137214168461,100.59233226866768 M288.6137214168461,100.59233226866768 L319.93293839716256,106.17260748592372 M319.93293839716256,106.17260748592372 C321.1923708551188,106.39700580780253 322.3660485274382,106.28612462871646 323.39054780258573,105.875411205795 M323.39054780258573,105.875411205795 C325.7516988754727,104.92884495367107 327.32047602201993,102.38969387160427 327.32047602201993,98.69188727892423 M327.32047602201993,98.69188727892421 C327.32047602201993,93.07513061839175 325.8710384115942,86.43519182369742 322.81037886440527,80.3760532175719 M288.1903516065664,63.905525328323286 C278.8056140044229,67.66779026817993 272.90178270051575,78.2244436073084 272.90178270051575,91.52679145020286 M272.90178270051575,91.52679145020286 L272.90178270051575,91.76764362873216 M272.90178270051575,91.76764362873217 C272.90178270051575,111.53046709206234 285.2838932388638,127.35341722157003 302.0360010462921,130.3382099797461 M302.0360010462921,130.3382099797461 C307.359724706652,131.28675997779033 311.9222799166923,130.803465441843 315.81189961968084,129.24414855326137 M315.8118996196809,129.24414855326137 C317.85206330210093,128.42626353405907 319.70709170509457,127.31234762209446 321.38971705584447,125.95374681900677 M254.42712416879772,116.52671651184474 L312.2331129501,93.35276598434496 M249.66259044317417,104.63896994199786 L288.4054166330541,89.10728617794109 M312.2331129501,93.35276598434496 L288.4054166330541,89.10728617794109 M288.40541663305413,89.10728617794109 C289.28604634461476,83.40074906533334 291.6670394969718,79.39973561265657 295.29303731108354,77.94610259419974 M295.29303731108354,77.94610259419973 C296.80903236025813,77.3383525148365 298.54265375418356,77.17588357346342 300.47523934919684,77.52022039094697 M300.4752393491969,77.52022039094697 C307.13455699819605,78.70673872772086 311.2965881904498,84.99143565730044 312.2331129501,93.35276598434496 M339.3906374451282,79.39290491912104 L339.3906374451282,127.11262539187022 M339.3906374451282,127.11262539187022 C339.3906374451282,132.1736592801195 342.92809299297153,136.9011753621442 347.29842896901727,137.67985630916587 M347.29842896901727,137.67985630916587 C348.56910851820896,137.90625857209233 349.7694259283326,137.77370615862094 350.8328650946755,137.34738205017825 M350.8328650946756,137.34738205017825 C353.42670226972626,136.30753383309428 355.2062204929063,133.51997281570965 355.2062204929063,129.93055363648241 M355.2062204929063,129.93055363648241 L355.2062204929063,112.81906547393328 M309.8863252883653,115.92437484461826 L367.6923140696676,92.75042431711847 M355.2062204929063,112.81906547393326 C355.2062204929063,102.06230487386173 358.26272563556194,95.88383320892221 363.8467750077402,93.64523325375924 M363.8467750077402,93.64523325375924 C365.0188892272817,93.17534220079241 366.30236624487765,92.87904064725002 367.6923140696676,92.75042431711847 M367.6923140696676,92.75042431711847 C368.3613597668354,92.69461387129869 369.00802180490285,92.54668299456338 369.61280062535167,92.30423208661016 M369.6128006253517,92.30423208661014 C371.92369405855885,91.37781371328083 373.623073035843,89.07135892559694 373.623073035843,85.25099597297432 M373.623073035843,85.25099597297434 C373.623073035843,80.06953599546044 370.81383746385796,75.83344043204363 365.92358629574596,74.96212403174144 M297.400231711604,108.27697117054332 L355.2062204929063,85.10302064304354 M365.92358629574596,74.96212403174144 C364.8167897704596,74.76492148914652 363.7623029217056,74.90022094725526 362.7670060952698,75.29922734611237 M362.7670060952698,75.29922734611237 C359.5517155324666,76.58821116949848 356.95413366774875,80.62924786710352 355.2062204929063,85.10302064304354 M355.2062204929063,85.10302064304354 L355.2062204929063,82.21083316373321 M355.2062204929063,82.21083316373323 C355.2062204929063,79.52359049143399 354.20897854838404,76.93056475494667 352.6194099069732,74.97267059535562 M343.7636494858768,71.97605752493952 C341.1698962392933,73.01587209578396 339.3906374451282,75.80329736911204 339.3906374451282,79.39290491912105 M327.78326263923583,118.02852730833457 L385.5892514205381,94.85457678083479 M385.5892514205381,94.85457678083479 L385.5892514205381,135.34402468900407 M385.5892514205381,135.34402468900404 C385.5892514205381,140.4050585772533 389.1270456753469,145.1326350081075 393.49704294442716,145.9112556062997 M393.49704294442716,145.9112556062997 C394.76772249361886,146.13765786922616 395.9680399037425,146.00510545575477 397.0314790700854,145.5787813473121 M397.0314790700855,145.5787813473121 C399.62531624513616,144.5389331302281 401.4048344683162,141.75137211284343 401.4048344683162,138.1619529336162 M343.5988456870139,120.84645555294675 L401.4048344683162,97.67250502544697 M401.4048344683162,138.16195293361622 L401.4048344683162,97.67250502544695 M401.4048344683162,97.67250502544697 L408.06415211731536,98.85902336222085 M408.0641521173153,98.85902336222085 C409.15436976195593,99.05327197666185 410.1793251278796,98.94428533863834 411.08038847683036,98.58305637411483 M411.0803884768303,98.58305637411483 C412.8790512637713,97.86198709878556 414.184049238459,96.13582351797605 414.5290439465447,93.81016120458781 M401.35882013330826,78.05327506213547 C401.6950836786601,76.09274351081275 402.5476927514074,74.88956013161223 403.8482289395524,74.3681857564187 M403.8482289395524,74.36818575641868 C404.69040231757293,74.03056530204567 405.7204059248607,73.97884926635344 406.9196612808386,74.1925255835593 M406.9196612808386,74.1925255835593 L408.2721181941418,74.4334984597476 M408.2721181941418,74.4334984597476 C409.2689138529436,74.61110169021713 410.21615347179636,74.50244220002052 411.06263029382,74.16309652996435 M393.52072413016015,58.57566654264678 C392.2105424779037,59.10090770591618 391.058049504835,59.85095363695958 390.0632317280316,60.82583316347808 M390.0632317280316,60.82583316347808 C387.15001311763325,63.68105698472044 385.5892514205381,68.58442955590434 385.5892514205381,75.69427603121962 M327.78326263923583,102.96545946545973 L385.5892514205381,79.79150893795995 M385.5892514205381,75.69427603121962 L385.5892514205381,79.79150893795993 M385.5892514205381,79.79150893795995 L384.96501448309317,79.68028604519385 M384.96501448309317,79.68028604519384 C383.9015931789492,79.49081184624607 382.9002654310413,79.6000847121693 382.015443203763,79.95480274317048 M382.015443203763,79.95480274317048 C379.8701159660236,80.81484697597065 378.40967987250724,83.1177689286054 378.40967987250724,86.10384563144991 M378.40967987250724,86.10384563144993 C378.40967987250724,90.3215046274549 381.3232371898711,94.09448327329869 384.96501448309317,94.7433538880687 M384.96501448309317,94.7433538880687 L385.5892514205381,94.85457678083479 M395.93618470542566,172.1069625500435 L453.74217348672795,148.93301202254372 M436.88608264088646,154.12415798719218 C441.1134315349826,154.87736233081435 444.6193869924009,154.52136802911136 447.55893088504683,153.3429288020044 M447.55893088504683,153.3429288020044 C449.9735641455956,152.37492197603842 452.00601158548244,150.85197099230066 453.74217348672806,148.93301202254372 M453.742173486728,148.93301202254372 L453.742173486728,149.05383037920012 M453.742173486728,149.05383037920012 C453.742173486728,152.9098188400194 456.75971384250505,157.1830289335779 461.3380158953773,157.99876406191177 M461.3380158953773,157.99876406191177 C462.6078058479681,158.22500782171 463.8038650835238,158.09648554002092 464.8575862508107,157.67405729832316 M464.8575862508107,157.6740572983232 C467.3439698745794,156.67728633558448 469.0378413424399,154.04410110339796 469.0378413424399,150.5740777431018 M469.0378413424399,150.5740777431018 L469.0378413424399,121.17089086033175 M469.0378413424399,121.17089086033174 C469.0378413424399,112.49432842240078 467.16479182313947,105.05114518734945 463.0027606308857,99.4893970607495 M463.0027606308857,99.4893970607495 C459.7636382737834,95.16061637318695 454.98796111264926,91.85236314344499 448.61855170522733,89.95176399860003 M425.7440628053481,89.31415140217521 C423.5860952259924,90.17926304507327 422.11100739117177,92.48585826127301 422.11100739117177,95.45700897130554 M422.11100739117177,95.45700897130554 C422.11100739117177,99.6746679673105 425.0242260015701,103.44719399693307 428.6660032947922,104.09606461170307 M373.14933489340876,127.19620852072595 L430.95532367471105,104.02225799322616 M428.6660032947922,104.09606461170307 C429.39456197761587,104.22587494395475 430.0187989150608,104.21667174745619 430.95532367471105,104.02225799322616 M430.95532367471105,104.02225799322616 C433.9725253235226,103.47522602823523 437.5103195783314,103.38262074936947 441.88065555437714,104.16130169639115 M441.88065555437714,104.16130169639115 C449.78844707826624,105.57026581869724 453.84649523210675,110.51096414092609 453.84649523210675,118.10251497329998 M396.04050645080446,142.3610848389651 L453.84649523210675,119.18713431146531 M453.84649523210675,118.10251497329998 L453.84649523210675,119.18713431146531 M453.84649523210675,119.18713431146531 C449.89243011667946,116.91590611328184 445.8343819628389,115.10863971628434 440.21557211190327,114.10751298373046 M440.21557211190327,114.10751298373046 C434.9617667881654,113.1714206266716 430.3329403578638,113.37525600864976 426.66261582725923,114.84665924705627 M426.66261582725923,114.84665924705628 C421.1013803363795,117.07611330284622 417.74067141512603,122.21564687726455 417.74067141512603,130.70926475791885 M417.74067141512603,130.70926475791885 L417.74067141512603,130.95011693644815 M417.74067141512603,130.95011693644815 C417.74067141512603,143.72352001372766 426.37702162183876,152.2517148543361 436.88608264088646,154.12415798719218 M441.6723507705851,142.3239703088234 C436.5737948186812,141.4155393783795 433.0363392708379,137.89306872378478 433.0363392708379,132.95246092480016 M433.0363392708379,132.95246092480016 L433.0363392708379,132.71160874627085 M433.0363392708379,132.71160874627088 C433.0363392708379,129.3235726834094 434.46420873098555,127.09954056961665 437.00632215639297,126.0804279828817 M437.00632215639297,126.0804279828817 C438.8043447174605,125.3596153688955 441.15978492824127,125.24158224648109 443.961671150504,125.74080597412059 M396.24847252763095,153.12312177788255 L454.05446130893324,129.94917125038276 M443.96167115050406,125.74080597412059 C447.8114145205526,126.4267307702028 451.3492087753614,128.02087527582563 454.05446130893324,129.94917125038276 M454.05446130893324,129.94917125038276 L454.05446130893324,133.20263699748705 M454.05446130893324,133.20263699748702 C454.05446130893324,137.40886277791782 452.04281649409575,140.48013465141057 448.68452635095065,141.8264458429494 M448.6845263509506,141.8264458429494 C446.7511588044527,142.60151716027468 444.3714719779879,142.8048839661318 441.6723507705851,142.3239703088234 M483.39664573153607,81.67309491848508 L483.39664573153607,152.7707751368544 M483.39664573153607,152.77077513685438 C483.39664573153607,157.83180902510364 486.93443998634484,162.55938545595785 491.3044372554251,163.33800605415004 M491.3044372554251,163.33800605415004 C492.5752247028578,163.5644275417551 493.77559169334575,163.43187883115027 494.8390456259018,163.00554880305287 M494.8390456259018,163.0055488030529 C497.43289173176413,161.9656970056792 499.21222877931416,159.17811166210345 499.21222877931416,155.58870338146656 M499.21222877931416,155.58870338146656 L499.21222877931416,87.8652780477096 M487.7700011297668,74.2562665047892 C485.1761639547161,75.29611472187318 483.39664573153607,78.08367573925784 483.39664573153607,81.67309491848506 M514.8198457502658,87.27189722639723 L514.8198457502658,158.36957744476655 M514.8198457502658,158.36957744476655 C514.8198457502658,163.4306113330158 518.3576400050746,168.15818776387 522.7276372741549,168.93680836206218 M522.7276372741549,168.93680836206218 C523.9984247215875,169.16322984966723 525.1987917120755,169.03068113906244 526.2622456446315,168.60435111096504 M526.2622456446315,168.60435111096504 C528.8560917504939,167.56449931359134 530.6354287980439,164.7769139700156 530.6354287980439,161.18750568937872 M530.6354287980439,161.18750568937872 L530.6354287980439,127.26443777378651 M519.1932011484965,79.85506881270133 C516.5993639734459,80.89491702978532 514.8198457502658,83.68247804717 514.8198457502658,87.27189722639723 M595.569225452815,196.8544400964689 L638.4319689360233,179.671115013825 M612.5232570228504,185.65901639992998 C619.8978832989942,186.97298425139812 625.6891411543205,186.41251871944974 630.6088919194442,184.4402306703699 M630.6088919194441,184.44023067036989 C633.4636689560815,183.29577378607772 636.0249993736186,181.675939765926 638.4319689360232,179.67111501382496 M638.4319689360233,179.671115013825 C639.8887475947051,178.48438545614783 641.137221469595,176.41755874347646 641.137221469595,173.52537126416615 M641.137221469595,173.52537126416615 C641.137221469595,168.82561564371085 637.7037489601651,164.35787109826327 633.6457008063245,163.63483177203938 M571.0534438953235,188.00441330956735 L628.8594326766258,164.83046278206757 M633.6457008063245,163.63483177203938 C632.4486324261308,163.42154511740958 631.336646232763,163.567894781111 630.3640299458309,163.95780873623556 M630.3640299458308,163.9578087362356 C629.8147962709362,164.1779920473143 629.3100052767609,164.47584384734563 628.8594326766258,164.8304627820676 M628.8594326766258,164.83046278206757 C627.1642703820949,166.09005924441175 625.4833633818558,167.10439160345197 623.6952450912985,167.82123367598297 M623.6952450912986,167.82123367598297 C620.6540053511536,169.0404419408398 617.3026316361352,169.3990893005216 613.0435109218822,168.64022403949082 M613.0435109218822,168.64022403949085 C611.219018533812,168.3151466384939 609.4767316558787,167.7474193501623 607.8315821065361,166.96978000587654 M592.3942982254779,144.22645825131448 C592.0831246883317,142.30715275030587 591.9214058453737,140.34464076046856 591.9214058453737,138.36581127966284 M591.9214058453737,138.36581127966284 L591.9214058453737,138.12495910113353 M591.9214058453737,138.12495910113353 C591.9214058453737,127.6270887490659 596.5826016262075,119.35684229009306 603.8347821766365,116.44950211937187 M603.8347821766365,116.44950211937186 C606.572292927133,115.35205633498238 609.6789846516896,115.01875358629222 613.0435109218822,115.61822523257133 M570.1169191356734,147.46852697709886 L627.9229079169756,124.29457644959908 M613.0435109218822,115.61822523257135 C618.7663038112311,116.63787905578135 623.4485889025166,119.64137995110202 627.9229079169756,124.29457644959908 M627.9229079169756,124.29457644959908 C629.0673987534523,125.34187003671947 630.5241774121342,126.56562360129405 632.7091760466743,126.95493390039015 M632.7091760466743,126.95493390039015 C634.0066352658062,127.18610760854742 635.2306869841003,127.05369856330522 636.310563397185,126.6207848963958 M595.4183686840597,100.0574056024511 C582.9583448704487,105.05252776047718 575.1692980379454,118.44030202116981 575.1692980379454,135.38101852148677 M575.1692980379453,135.38101852148677 L575.1692980379453,135.62187070001607 M575.1692980379453,135.62187070001607 C575.1692980379453,159.84359760527224 591.0888641241368,181.8399614227639 612.5232570228504,185.65901639992998 M650.1898425369263,182.97110970847274 C650.1898425369263,187.7912914181927 653.4153489695299,192.22198178232804 657.5773801617836,192.96354819920805 M631.0909470677633,202.07582918611962 L664.9652564936065,188.49589417700474 M657.5773801617836,192.96354819920805 C658.8761367681419,193.19495306824624 660.0798773324035,193.07948418900406 661.1454123342882,192.6523198771468 M661.145412334288,192.65231987714682 C662.8117583149769,191.98429533276482 664.1401013865914,190.55397178132964 664.9652564936066,188.49589417700477 M612.2574849572427,198.72019287067405 L670.063473738545,175.54624234317427 M664.9652564936065,188.49589417700474 L670.063473738545,175.54624234317427 M644.3052606203828,204.4302784201818 L702.1112494016851,181.256327892682 M670.0634737385449,175.54624234317427 L702.1112494016851,181.256327892682 M649.1955117884947,218.55709452221387 L707.001500569797,195.3831439947141 M702.1112494016852,181.256327892682 L707.0015005697971,195.3831439947141 M707.0015005697971,195.3831439947141 C708.4582792284791,199.49869277120723 710.9555656852244,202.47416163522576 714.7013260168596,203.14155934065187 M714.7013260168596,203.14155934065187 C715.9312432390168,203.36069881014734 717.0833443841549,203.2354526463652 718.100268022442,202.82777623461712 M718.100268022442,202.82777623461712 C720.6105823431661,201.8214116501962 722.297168425509,199.09400799616796 722.297168425509,195.5775275745294 M677.0812562593812,209.48655983810804 L721.4646267042721,191.69362778006698 M722.297168425509,195.5775275745294 C722.297168425509,194.3724821470994 721.9848806033037,193.1117950988716 721.4646267042721,191.69362778006698 M721.4646267042721,191.69362778006698 L702.3272131381854,138.23414163292787 M618.7088365294153,140.46076054688064 L676.5148253107176,117.28681001938085 M681.3547007397341,111.97805199622714 C679.2393712427611,112.82607037884961 677.6019359066894,114.66591834515296 676.5148253107176,117.28681001938085 M593.3203785152742,202.33511793206077 L651.1263672965765,179.16116740456098 M676.5148253107176,117.28681001938085 L651.1263672965765,179.161167404561 M651.1263672965765,179.16116740456098 C650.6061133975447,180.39394311914563 650.1898425369263,181.64563819177812 650.1898425369263,182.97110970847274 M638.3745016542075,186.98463878869836 L696.1804904355098,163.81068826119858 M634.8716907589335,176.69990730097126 L675.9945714116859,160.21407906956472 M696.1804904355097,163.8106882611986 L675.9945714116858,160.21407906956475 M628.2813727888127,157.3498330983123 L686.087361570115,134.17588257081252 M675.9945714116859,160.21407906956472 L686.087361570115,134.17588257081252 M686.087361570115,134.17588257081252 L696.1804904355097,163.81068826119858 M734.8872450406835,130.9407326934611 L734.8872450406835,196.73652684505186 M734.8872450406835,196.73652684505186 C734.8872450406835,201.91798682256575 738.4250392954923,206.64556325342 742.8990196029858,207.44271094226826 M742.8990196029858,207.44271094226826 L763.2929047036362,211.07637431521434 M763.2929047036362,211.07637431521434 C770.4235148035802,212.34686478915054 776.8675955395047,211.70601062798093 782.3609542010661,209.50376784074203 M739.2710849330297,123.42364404751267 C736.6547710601897,124.47250298984454 734.8872450406835,127.27830744250728 734.8872450406835,130.9407326934611 M727.0073354905047,201.7028904713085 L750.9111328722536,192.12005260930476 M763.2929047036362,194.32616442045915 L750.9111328722536,192.12005260930476 M693.1051440909513,164.44124300621573 L750.9111328722536,141.26729247871594 M750.9111328722536,192.12005260930476 L750.9111328722536,141.26729247871594 M750.9111328722536,141.26729247871594 L763.2929047036362,143.47340428987033 M763.2929047036362,143.47340428987033 C776.4035739248079,145.80938678210592 785.2478902083471,157.8689537296601 785.2478902083471,172.8115954832703 M785.2478902083471,172.8115954832703 L785.2478902083471,173.05244766179962 M785.2478902083471,173.05244766179962 C785.2478902083471,183.3707208340278 781.030696605247,190.6966367755736 774.1036493921636,193.47363363700566 M774.1036493921636,193.47363363700563 C770.9991357822553,194.71820788138277 767.3503242568172,195.0490917462878 763.292904703636,194.32616442045915" />
    <path class="edge outline hidden" d="M66.73625667491586,103.3769338868803 L94.43157481745288,92.27410620397904 M111.884329208948,112.37938771894866 L141.2631597966325,100.60165359574975 M147.9698152994186,129.74410022326805 L199.39782104691614,109.12703119553481 M179.25531889978055,128.4680150751579 L216.69647641267994,113.45815969185361 M141.9387899830648,85.28845697179449 L178.50150598912853,70.63076164058671 M131.03922353695998,105.03848090391189 L188.84521231826227,81.8645303764121 M142.71742773151763,120.78449876397957 L200.52341651281992,97.61054823647981 M221.2088721410537,137.35146297044162 L262.3959853748007,120.83988441998336 M178.78234273237172,74.5821664975548 L233.03666797434312,52.83204898261995 M281.58464866382593,125.97922523566817 L314.53563343521984,112.769443567308 M252.69324324678757,138.11589927965406 L310.49923202808986,114.94194875215427 M281.584648663826,122.63505599043074 L323.39054780258573,105.87541120579502 M281.584648663826,142.96557494982636 L315.81189961968096,129.24414855326137 M237.4870485297813,101.12005312169951 L295.2930373110836,77.94610259419973 M327.7832626392358,146.587780116921 L350.8328650946755,137.34738205017828 M306.04078622643794,116.81918378125903 L363.84677500774023,93.64523325375924 M320.9570993600274,111.80990680604586 L369.6128006253517,92.30423208661014 M329.3107192519514,88.7115805033977 L362.7670060952698,75.29922734611236 M360.62933933000056,160.1721029601191 L397.03147907008554,145.5787813473121 M364.40952827124204,117.29302446361484 L411.0803884768303,98.58305637411482 M346.04224015825014,97.54213628391847 L403.8482289395524,74.36818575641868 M327.7832626392358,101.69604263711203 L382.01544320376297,79.95480274317048 M396.1309251375493,173.95999782973763 L447.55893088504683,153.3429288020044 M425.5906569502338,173.4158497347625 L464.85758625081064,157.6740572983232 M390.09989982119555,129.5043545782641 L426.6626158272593,114.84665924705627 M379.2003333750907,149.25437851038149 L437.00632215639297,126.08042798288167 M390.8785375696483,165.00039637044915 L448.6845263509506,141.8264458429494 M457.0138569689635,178.16935914709055 L494.8390456259018,163.0055488030529 M518.8520855441011,171.57502399782146 L526.2622456446315,168.60435111096507 M594.7672921507833,198.80883636982037 L630.608891919444,184.44023067036989 M604.8745726715313,174.17632474644 L630.3640299458309,163.95780873623556 M565.8892563099962,190.99518420348278 L623.6952450912986,167.82123367598302 M546.0287933953341,139.62345264687164 L603.8347821766365,116.44950211937189 M635.6242492298568,202.8835464966565 L661.145412334288,192.6523198771468 M677.0812562593812,219.271964273341 L718.1002680224422,202.82777623461712 M716.2976606108612,216.64758416450542 L774.1036493921636,193.47363363700566" />
    <path class="edge sharp visible" d="M2.6242370374449138,36.47477871660618 L23.018122138095265,106.38594059820161 M23.018122138095237,106.38594059820161 C24.474900796777263,111.34486426693908 27.492441152554306,114.7746994682533 31.342184522602793,115.46062426433548 M31.342184522602793,115.46062426433548 L33.00692925811119,115.75723876132157 M41.22700860420548,109.6302936720516 L65.7289912602498,99.80764820109496 M33.0069292581112,115.75723876132159 C34.33099699349041,115.993153419544 35.54426039848323,115.88155138073093 36.6255860361506,115.44805673147883 M36.6255860361506,115.44805673147883 C38.6885047190403,114.62104941774867 40.271225399897276,112.62248833639538 41.22700860420548,109.63029367205161 M41.22700860420548,109.6302936720516 L55.58615170026717,63.86608649596344 M55.58615170026724,63.86608649596343 L69.94495608936342,114.74708987875763 M69.94495608936336,114.74708987875763 C71.40173474804533,119.8268319041515 74.31529206540915,123.11732165815322 78.16503543545764,123.8032464542354 M78.16503543545764,123.8032464542354 L79.82978017096605,124.0998609512215 M88.15384255547355,117.9914429526076 L111.79488767800693,108.5139403332737 M79.82978017096605,124.0998609512215 C81.14589878169814,124.33435928082704 82.36473010573155,124.21355479457246 83.45717101533025,123.77560412324954 M83.45717101533025,123.77560412324954 C85.56048095367628,122.93240428387588 87.19527451597219,120.91357588144317 88.15384255547355,117.9914429526076 M108.54806636308945,55.34766816573382 L166.35405514439174,32.17371763823404 M88.15384255547355,117.9914429526076 L108.54806636308942,55.347668165733786 M159.82925779983137,52.21556572416092 L166.3540551443917,32.17371763823402 M108.54806636308945,55.34766816573382 C108.86001547832916,54.318630099536776 109.1723033005344,52.927981846983556 109.1723033005344,51.84375477620996 M166.35405514439176,32.173717638234024 C166.66600425963145,31.144679572037006 166.9782920818367,29.754031319483758 166.9782920818367,28.669804248710165 M109.1723033005344,51.84375477620996 C109.1723033005344,46.78232862056896 105.63450904572562,42.2959966356358 101.26451177664535,41.5173760374436 M166.9782920818367,28.669804248710165 C166.9782920818367,23.608378093069163 163.44049782702788,19.122046108136004 159.07050055794764,18.34342550994384 M101.26451177664535,41.5173760374436 C99.92005514218762,41.27782860422855 98.71997724155779,41.412302455934935 97.68062858987732,41.82896887307712 M97.68062858987732,41.828968873077116 C95.66323882319018,42.637724014776445 94.25140187297312,44.509649076720905 93.5646863295828,46.77321594731464 M159.07050055794764,18.34342550994384 C157.72604392348993,18.103878076728787 156.52596602286008,18.23835192843516 155.48661737117962,18.65501834557735 M93.5646863295828,46.77321594731464 L79.10156019510788,95.89278786911561 M64.53445102221968,42.08287474426113 L122.34043980352197,18.90892421676135 M79.10156019510782,95.89278786911561 L64.53445102221964,42.082874744261126 M125.52351358451195,30.666982839940836 L122.34043980352193,18.908924216761356 M64.53445102221968,42.08287474426113 C63.28597714732979,37.40152551680295 60.47640286837918,34.00874449680093 56.41835471453862,33.28570517057703 M122.34043980352195,18.908924216761335 C121.09196592863208,14.227574989303179 118.28239164968147,10.83479396930116 114.22434349584091,10.111754643077262 M56.41835471453862,33.28570517057703 L55.1698808396487,33.06325938504483 M114.22434349584091,10.111754643077262 L112.97586962095099,9.889308857545062 M55.16988083964873,33.06325938504483 C53.800403646369965,32.81925393474721 52.57315031966693,32.94368746374251 51.50009721780217,33.37386572070605 M51.50009721780217,33.37386572070606 C49.39346891981119,34.21839586345945 47.88115796753996,36.24132503503697 47.05378453196772,38.96827165383338 M112.97586962095102,9.889308857545075 C111.60639242767226,9.645303407247457 110.37913910096923,9.769736936242758 109.30608599910447,10.199915193206287 M47.05378453196772,38.96827165383338 L32.48667535907955,87.58721986052792 M18.02388793157013,33.313797550708685 L75.82987671287242,10.139847023208901 M32.486675359079584,87.58721986052791 L18.023887931570158,33.313797550708685 M79.07541717326576,22.319144334561607 L75.82987671287245,10.139847023208901 M18.02388793157013,33.313797550708685 C16.983380133506614,29.272025218277676 13.965839777729514,25.963008373619857 10.220079446094303,25.29561066819376 M75.82987671287242,10.139847023208887 C74.7893689148089,6.098074690777906 71.7718285590318,2.7890578461200732 68.02606822739659,2.1216601406939617 M10.220079446094303,25.29561066819376 C8.82533925812461,25.047104005005792 7.501393204682726,25.18589788823895 6.339632288832273,25.65163838600221 M6.339632288832272,25.65163838600221 C3.7744704409443908,26.679990897761535 2.0000001000000225,29.30228669663093 2.000000100000023,32.86884563081479 M68.02606822739659,2.1216601406939617 C66.63132803942688,1.8731534775060026 65.30738198598499,2.0119473607391667 64.14562107013454,2.477687858502426 M2.0000001000000225,32.86884563081479 C2.0000001000000225,33.95346496898013 2.311949215239679,35.334517757643056 2.6242370374449138,36.47477871660618 M130.91898402145347,133.08221090822238 C135.14633291554964,133.83541525184455 138.6522883729679,133.47942095014156 141.59183226561385,132.3009817230346 M141.59183226561385,132.3009817230346 C144.0064655261626,131.33297489706862 146.0389129660494,129.81002391333087 147.77507486729502,127.89106494357391 M147.77507486729502,127.89106494357392 L147.77507486729502,128.01188330023032 M147.77507486729502,128.01188330023032 C147.77507486729502,131.86787176104957 150.7926152230721,136.1410818546081 155.37091727594432,136.95681698294197 M155.37091727594432,136.95681698294197 C156.64070722853512,137.1830607427402 157.83676646409083,137.05453846105112 158.8904876313777,136.63211021935336 M158.8904876313777,136.6321102193534 C161.3768712551464,135.63533925661469 163.0707427230069,133.00215402442817 163.0707427230069,129.532130664132 M163.0707427230069,129.532130664132 L163.0707427230069,100.12894378136195 M163.0707427230069,100.12894378136194 C163.0707427230069,91.45238134343099 161.19769320370648,84.00919810837965 157.03566201145273,78.4474499817797 M157.03566201145273,78.4474499817797 C153.08193560299097,73.16366856385075 146.8388888146103,69.40037590514149 138.20253860789757,67.8616014505837 M209.22876557186007,49.87138804356954 C205.70737644748567,47.41414858448501 201.3086417463637,45.63199435333291 196.00852738919986,44.68765092308392 M138.20253860789757,67.8616014505837 C130.8150009830402,66.54533313038762 125.40415720893103,66.7863060065759 120.4099230024058,68.06530892455656 M196.00852738919986,44.68765092308392 C188.62098976434248,43.371382602887834 183.2101459902333,43.61235547907613 178.2159117837081,44.89135839705678 M120.4099230024058,68.06530892455656 C120.19322438824572,68.12081518924172 119.9820115755034,68.19000249321702 119.77696418591516,68.2722043232054 M119.77696418591515,68.2722043232054 C117.61899660655939,69.13731596610344 116.14390877173878,71.4439111823032 116.14390877173878,74.41506189233574 M178.2159117837081,44.89135839705678 C177.999213169548,44.94686466174194 177.78800035680567,45.01605196571724 177.5829529672174,45.098253795705624 M116.14390877173878,74.41506189233574 C116.14390877173878,78.63272088834069 119.05712738213714,82.40524691796327 122.69890467535916,83.05411753273326 M122.69890467535916,83.05411753273326 C123.4274633581829,83.18392786498495 124.05170029562785,83.1747246684864 124.98822505527806,82.98031091425635 M124.98822505527806,82.98031091425635 C128.0054267040896,82.43327894926541 131.54322095889842,82.34067367039965 135.91355693494418,83.11935461742137 M135.91355693494418,83.11935461742137 C143.82134845883323,84.52831873972744 147.87939661267376,89.46901706195628 147.87939661267376,97.06056789433018 M147.87939661267376,97.06056789433018 L147.87939661267376,98.14518723249552 M147.87939661267376,98.14518723249552 C143.92533149724645,95.87395903431204 139.86728334340592,94.06669263731455 134.24847349247028,93.06556590476066 M134.24847349247028,93.06556590476066 C128.9946681687324,92.12947354770179 124.36584173843079,92.33330892967994 120.69551720782623,93.80471216808647 M120.69551720782624,93.80471216808647 C115.13428171694653,96.03416622387641 111.77357279569304,101.17369979829473 111.77357279569304,109.66731767894903 M111.77357279569304,109.66731767894905 L111.77357279569304,109.90816985747834 M111.77357279569304,109.90816985747834 C111.77357279569304,122.68157293475787 120.4099230024058,131.2097677753663 130.91898402145347,133.08221090822238 M135.70525215115217,121.28202322985359 C130.6066961992482,120.3735922994097 127.06924065140493,116.85112164481498 127.06924065140493,111.91051384583038 M127.06924065140493,111.91051384583038 L127.06924065140493,111.66966166730107 M127.06924065140493,111.66966166730109 C127.06924065140493,108.2816256044396 128.4971101115526,106.05759349064685 131.03922353696,105.0384809039119 M131.03922353696,105.0384809039119 C132.83724609802752,104.3176682899257 135.1926863088083,104.19963516751129 137.99457253107104,104.69885889515079 M137.99457253107104,104.69885889515079 C141.84431590111956,105.38478369123298 145.38211015592842,106.97892819685583 148.08736268950022,108.90722417141295 M148.08736268950022,108.90722417141295 L148.08736268950022,112.16068991851722 M148.08736268950022,112.16068991851722 C148.08736268950022,116.36691569894802 146.07571787466273,119.43818757244077 142.71742773151763,120.78449876397958 M142.7174277315176,120.78449876397958 C140.78406018501974,121.55957008130488 138.4043733585549,121.762936887162 135.70525215115214,121.28202322985359 M195.01419664076832,144.38189556914372 C198.44766915019838,144.99365165377202 201.15326039073574,144.99362147935727 204.066479001134,144.18721024518092 M204.066479001134,144.18721024518092 C204.24330365282356,144.14068688550714 204.41808531074932,144.08275278187259 204.5899965934984,144.0138349474832 M204.58999659349837,144.01383494748316 C206.5423701006793,143.23114429517403 208.12452715497457,141.03178941285918 208.12452715497457,138.04125527461883 M208.12452715497457,138.04125527461883 C208.12452715497457,133.82359627861388 205.10698679919747,129.91205672024105 201.5691925443887,129.28171319612716 M201.5691925443887,129.28171319612716 C201.25724342914896,129.22613192415886 200.21673563108553,129.16116640920353 199.6964817320538,129.0684706070935 M199.6964817320538,129.0684706070935 C196.15868747724502,128.43812708297963 194.59792578014986,126.11161935697534 194.59792578014986,121.89396036097038 M194.59792578014986,121.89396036097038 L194.59792578014986,94.29834161934531 M252.40391456145215,78.25201674077033 L252.40391456145215,76.09260978398862 M194.59792578014986,94.29834161934531 L201.56919254438873,95.5404412280875 M201.5691925443887,95.54044122808749 C202.66035545943006,95.7348582652893 203.68967586848854,95.62175168183823 204.60060218468786,95.25656873400102 M204.60060218468786,95.25656873400102 C206.81700007490286,94.36803285493461 208.33249323180107,91.98717998024107 208.33249323180107,88.91269137722256 M262.4065909659901,72.08261820650124 C264.62298885620515,71.19408232743481 266.1384820131034,68.81322945274127 266.1384820131034,65.73874084972277 M208.33249323180107,88.91269137722256 C208.33249323180107,84.57460629195295 205.31529158298952,80.54230872575323 201.5691925443887,79.87485067149763 M266.1384820131034,65.73874084972277 C266.1384820131034,61.40065576445316 263.1212803642918,57.368358198253446 259.37518132569096,56.70090014399784 M194.59792578014986,78.63275106275545 L252.40391456145215,55.45880053525566 M201.5691925443887,79.87485067149763 L194.59792578014984,78.63275106275543 M259.37518132569096,56.70090014399784 L252.4039145614521,55.458800535255655 M194.59792578014986,78.63275106275545 L194.59792578014986,70.55871133853948 M252.40391456145215,55.45880053525566 L252.40391456145215,47.3847608110397 M194.59792578014986,70.55871133853948 C194.59792578014986,65.49767745029023 191.06013152534103,60.77010101943603 186.69013425626082,59.991480421243836 M252.40391456145215,47.3847608110397 C252.40391456145215,42.32372692279044 248.86612030664332,37.59615049193626 244.4961230375631,36.817529893744066 M186.69013425626082,59.991480421243836 C185.41934680882812,59.765058933638784 184.21897981834016,59.89760764424359 183.15552588578407,60.32393767234098 M183.1555258857841,60.32393767234098 C180.56167977992177,61.363789469714696 178.78234273237177,64.15137481329043 178.78234273237177,67.74078309392732 M244.4961230375631,36.817529893744066 C243.2253355901304,36.591108406139014 242.02496859964245,36.72365711674382 240.96151466708636,37.149987144841205 M178.78234273237175,67.74078309392732 L178.78234273237175,75.81482281814328 M178.78234273237175,75.81482281814327 L178.26208883334002,75.72212701603327 M178.26208883334002,75.72212701603327 C177.17092591829865,75.52770997883145 176.1416055092402,75.64081656228252 175.23067919304088,76.00599951011974 M175.23067919304088,76.00599951011974 C173.01428130282588,76.89453538918616 171.49878814592765,79.2753882638797 171.49878814592765,82.34987686689821 M171.49878814592765,82.34987686689821 C171.49878814592765,86.68796195216783 174.51598979473923,90.72025951836753 178.26208883334002,91.38771757262313 M178.26208883334002,91.38771757262313 L178.78234273237175,91.48041337473313 M178.78234273237175,91.48041337473313 L178.78234273237175,122.08864568493318 M178.78234273237175,122.08864568493317 C178.78234273237175,137.03089517115166 185.33733863599213,142.65772951036593 195.01419664076832,144.38189556914372 M263.5837282745422,149.12769734650652 L281.58464866382593,141.91127483829655 M263.5837282745422,149.12769734650652 C264.7282191110189,148.12657061395265 265.6647438706691,146.48586698637155 265.6647438706691,144.0757761315116 M265.6647438706691,144.0757761315116 C265.6647438706691,139.978935492163 263.0634743755105,136.38202455638165 259.5256801207017,135.75168103226775 M259.5256801207017,135.75168103226775 C258.37590934058466,135.54682158786196 257.5239056511842,135.62498132400964 256.7296446539175,135.9433940948078 M256.72964465391755,135.9433940948078 C256.3739009400845,136.08600885495014 256.02974086550313,136.27682026785786 255.67559804368767,136.51198576070712 M255.67559804368764,136.5119857607071 C254.7206641173386,137.16232458236968 253.72924414239836,137.70057495067906 252.69324324678755,138.11589927965406 M252.69324324678757,138.11589927965406 C250.22991559120572,139.10342729235612 247.5145458081744,139.3959822087931 244.43831704878178,138.8478777296984 M244.43831704878178,138.8478777296984 C237.36272853916418,137.58719068147064 232.36849433263896,132.35926210524272 230.8077326355438,123.76628279616747 M230.8077326355438,123.76628279616747 L262.12694961586027,129.34655801342353 M262.12694961586027,129.3465580134235 C263.3863820738165,129.5709563353023 264.5600597461359,129.46007515621625 265.58455902128344,129.04936173329477 M265.58455902128344,129.04936173329477 C267.9457100941704,128.10279548117086 269.51448724071764,125.56364439910405 269.51448724071764,121.86583780642401 M269.51448724071764,121.865837806424 C269.51448724071764,108.48991201542947 261.2944078946233,89.31129539606145 242.6692505678946,85.9927736107576 M322.81037886440527,80.37605321757191 C318.58228487481244,72.00576337393403 311.2794070784205,64.74384660668609 300.4752393491969,62.818823083257804 M242.6692505678946,85.9927736107576 C238.1485017818331,85.18729298746634 234.00708166171984,85.62715735282704 230.38436282526413,87.07947585582308 M230.3843628252641,87.07947585582308 C220.99962522312063,90.84174079567973 215.09579391921346,101.3983941348082 215.09579391921346,114.70074197770266 M300.4752393491969,62.81882308325781 C295.9544905631354,62.01334245996655 291.8130704430221,62.45320682532726 288.1903516065664,63.905525328323286 M215.09579391921343,114.70074197770265 L215.09579391921343,114.94159415623194 M215.09579391921343,114.94159415623196 C215.09579391921343,134.70441761956212 227.4779044575615,150.5273677490698 244.2300122649898,153.51216050724588 M244.2300122649898,153.51216050724588 C249.55373592534974,154.4607105052901 254.11629113539004,153.9774159693428 258.0059108383786,152.41809908076115 M258.0059108383786,152.41809908076115 C260.04607452079864,151.60021406155886 261.9011029237923,150.48629814959423 263.5837282745422,149.12769734650652 M230.5994278517518,112.28123670544088 L249.66259044317417,104.63896994199786 M254.42712416879772,116.52671651184474 L230.5994278517518,112.28123670544088 M230.5994278517518,112.28123670544088 C231.4800575633125,106.57469959283313 233.8610507156696,102.57368614015635 237.48704852978128,101.12005312169951 M237.48704852978128,101.12005312169951 C239.00304357895587,100.51230304233628 240.73666497288133,100.34983410096321 242.6692505678946,100.69417091844674 M242.6692505678946,100.69417091844674 C249.32856821689376,101.88068925522063 253.4905994091475,108.16538618480023 254.42712416879772,116.52671651184474 M281.58464866382593,102.56685544662082 L281.58464866382593,150.28657591937002 M281.58464866382593,150.28657591937002 C281.58464866382593,155.34760980761928 285.12210421166924,160.07512588964397 289.492440187715,160.85380683666565 M289.492440187715,160.85380683666565 C290.7631197369067,161.0802090995921 291.96343714703033,160.94765668612072 293.02687631337324,160.52133257767804 M293.0268763133733,160.52133257767804 C295.620713488424,159.48148436059407 297.400231711604,156.69392334320943 297.400231711604,153.1045041639822 M297.400231711604,153.1045041639822 L297.400231711604,135.99301600143306 M297.400231711604,135.99301600143306 C297.400231711604,125.23625540136153 300.45673685425965,119.057783736422 306.0407862264379,116.81918378125903 M306.0407862264379,116.81918378125903 C307.2129004459794,116.3492927282922 308.49637746357536,116.0529911747498 309.8863252883653,115.92437484461827 M309.8863252883653,115.92437484461826 C310.5553709855331,115.86856439879847 311.20203302360056,115.72063352206317 311.8068118440494,115.47818261410994 M311.80681184404943,115.47818261410993 C314.11770527725656,114.55176424078061 315.8170842545407,112.24530945309672 315.8170842545407,108.4249465004741 M315.8170842545407,108.42494650047412 C315.8170842545407,103.24348652296021 313.0078486825556,99.00739095954341 308.1175975144437,98.13607455924122 M308.1175975144437,98.13607455924122 C307.0108009891573,97.9388720166463 305.9563141404033,98.07417147475505 304.9610173139675,98.47317787361216 M304.9610173139675,98.47317787361214 C301.7457267511643,99.76216169699825 299.14814488644646,103.8031983946033 297.400231711604,108.27697117054332 M297.400231711604,108.27697117054332 L297.400231711604,105.384783691233 M297.400231711604,105.384783691233 C297.400231711604,100.32335753559201 293.8624374567952,95.59617337212953 289.492440187715,94.81755277393735 M352.61940990697326,74.97267059535562 C351.2150233017075,73.24286776669811 349.34828112915113,72.00883293580706 347.29842896901727,71.64360224643757 M289.492440187715,94.81755277393735 C288.2215845820794,94.59111914230166 287.0211569875401,94.72366104640734 285.9576607045745,95.1500080524393 M285.9576607045745,95.1500080524393 C283.363907457991,96.18982262328375 281.58464866382593,98.97724789661183 281.58464866382593,102.56685544662083 M347.29842896901727,71.64360224643757 C346.0275733633817,71.41716861480188 344.8271457688424,71.54971051890756 343.7636494858768,71.97605752493952 M327.78326263923583,118.02852730833457 L327.78326263923583,158.51797521650383 M327.78326263923583,158.51797521650383 C327.78326263923583,163.57900910475308 331.3210568940446,168.3065855356073 335.6910541631249,169.0852061337995 M335.6910541631249,169.0852061337995 C336.9617337123166,169.31160839672594 338.16205112244023,169.17905598325456 339.22549028878313,168.75273187481187 M339.2254902887832,168.75273187481187 C341.8193274638339,167.71288365772787 343.5988456870139,164.9253226403432 343.5988456870139,161.33590346111598 M343.5988456870139,161.335903461116 L343.5988456870139,120.84645555294674 M343.5988456870139,120.84645555294675 L350.25816333601307,122.03297388972064 M350.258163336013,122.03297388972064 C351.34838098065364,122.22722250416163 352.37333634657733,122.11823586613812 353.2743996955281,121.75700690161462 M353.274399695528,121.75700690161462 C355.38326015408006,120.91158190385569 356.81349794659894,118.68449112747597 356.81349794659894,115.72944812533746 M414.5290439465447,93.81016120458781 C414.58854178902146,93.40907711044619 414.61948672790123,92.99016242122914 414.61948672790123,92.55549759783769 M356.81349794659894,115.72944812533746 C356.81349794659894,111.5117891293325 353.89994062923506,107.73920275088042 350.258163336013,107.09033213611043 M414.61948672790123,92.55549759783767 C414.61948672790123,88.33783860183271 411.70592941053735,84.56525222338065 408.0641521173153,83.91638160861065 M343.3908796101874,105.86675961802435 L401.1968683914897,82.69280909052456 M350.258163336013,107.09033213611043 L343.3908796101874,105.86675961802435 M408.0641521173153,83.91638160861065 L401.1968683914897,82.69280909052456 M343.3908796101874,105.86675961802435 L343.3908796101874,103.33624267389972 M401.1968683914897,82.69280909052456 L401.1968683914897,80.16229214639993 M343.3908796101874,103.33624267389972 C343.3908796101874,100.10337074913755 344.3269866548788,98.22976745617696 346.0422401582502,97.54213628391845 M346.04224015825014,97.54213628391847 C346.88441353627064,97.20451582954546 347.9144171435584,97.15279979385322 349.11367249953634,97.36647611105909 M401.1968683914897,80.16229214639993 C401.1968683914897,79.38064210897235 401.251591810092,78.67845288401585 401.35882013330826,78.05327506213547 M349.11367249953634,97.36647611105909 L350.4661294128395,97.60744898724738 M350.4661294128395,97.60744898724738 C351.46292507164134,97.78505221771691 352.41016469049407,97.67639272752031 353.2566415125177,97.33704705746413 M353.25664151251766,97.33704705746412 C355.41445229080693,96.47199827483772 356.91748098501216,94.10789247542296 356.91748098501216,91.1653623103352 M411.06263029381995,74.16309652996433 C413.2204410721092,73.29804774733793 414.72346976631445,70.93394194792317 414.72346976631445,67.99141178283541 M351.50663721090297,82.85019883785716 L409.31262599220526,59.67624831035738 M356.91748098501216,91.16536231033518 C356.91748098501216,87.06812940359488 354.2122284514403,83.81436191234309 351.50663721090297,82.85019883785716 M414.72346976631445,67.9914117828354 C414.72346976631445,63.8941788760951 412.0182172327426,60.64041138484332 409.31262599220526,59.676248310357394 M351.50663721090297,82.85019883785716 C349.7379094369813,82.17377898242101 347.5529108024412,81.66404259406028 345.05562434569583,81.21909067416638 M409.31262599220526,59.676248310357394 C407.54389821828363,58.999828454921214 405.3588995837435,58.49009206656049 402.8616131269981,58.04514014666661 M345.05562434569583,81.21909067416638 C341.355325550258,80.55979303982254 338.2417281309721,80.73656622626919 335.71473534885786,81.74961707014657 M335.71473534885786,81.74961707014656 C334.4045536966014,82.27485823341596 333.25206072353274,83.02490416445936 332.2572429467293,83.99978369097785 M402.8616131269981,58.04514014666661 C399.1613143315603,57.38584251232277 396.0477169122744,57.562615698769406 393.52072413016015,58.57566654264678 M332.2572429467293,83.99978369097786 C329.34402433633096,86.85500751222023 327.78326263923583,91.75838008340413 327.78326263923583,98.86822655871941 M327.78326263923583,98.86822655871941 L327.78326263923583,102.96545946545973 M327.78326263923583,102.96545946545973 L327.1590257017909,102.85423657269364 M327.1590257017908,102.85423657269362 C326.09560439764687,102.66476237374586 325.09427664973896,102.77403523966909 324.2094544224607,103.12875327067026 M324.2094544224607,103.12875327067026 C322.06412718472126,103.98879750347044 320.60369109120495,106.29171945610518 320.60369109120495,109.2777961589497 M320.60369109120495,109.27779615894971 C320.60369109120495,113.49545515495467 323.5172484085688,117.26843380079848 327.1590257017908,117.91730441556848 M327.1590257017908,117.91730441556848 L327.7832626392358,118.02852730833457 M379.08009385958417,177.29810851469196 C383.30744275368033,178.05131285831413 386.8133982110986,177.69531855661114 389.75294210374454,176.51687932950418 M389.75294210374454,176.51687932950418 C392.16757536429327,175.5488725035382 394.20002280418004,174.02592151980045 395.9361847054256,172.1069625500435 M395.93618470542566,172.1069625500435 L395.93618470542566,172.2277809066999 M395.93618470542566,172.2277809066999 C395.93618470542566,176.08376936751918 398.95372506120276,180.35697946107769 403.532027114075,181.17271458941156 M403.532027114075,181.17271458941156 C404.8018170666658,181.39895834920978 405.9978763022215,181.2704360675207 407.0515974695084,180.84800782582295 M407.0515974695084,180.84800782582298 C409.5379810932771,179.85123686308427 411.2318525611376,177.21805163089775 411.2318525611376,173.7480282706016 M411.2318525611376,173.7480282706016 L411.2318525611376,144.34484138783154 M411.2318525611376,144.34484138783154 C411.2318525611376,135.66827894990055 409.3588030418372,128.22509571484923 405.1967718495834,122.66334758824928 M405.1967718495834,122.66334758824928 C401.24304544112164,117.37956617032033 394.999998652741,113.61627351161107 386.3636484460282,112.07749905705327 M448.6185517052273,89.95176399860004 C447.213354474153,89.53246034187384 445.73058763438644,89.1816695591225 444.1696372273305,88.90354852955352 M386.3636484460282,112.07749905705327 C378.9761108211709,110.7612307368572 373.5652670470617,111.0022036130455 368.5710328405365,112.28120653102614 M444.16963722733055,88.90354852955352 C436.7820996024732,87.58728020935742 431.371255828364,87.82825308554573 426.37702162183876,89.10725600352636 M368.5710328405365,112.28120653102614 C368.3543342263764,112.3367127957113 368.1431214136341,112.4059000996866 367.9380740240459,112.48810192967498 M367.9380740240458,112.48810192967498 C365.78010644469003,113.35321357257303 364.3050186098695,115.65980878877278 364.3050186098695,118.63095949880531 M426.37702162183876,89.10725600352636 C426.1603230076787,89.16276226821152 425.9491101949364,89.23194957218682 425.74406280534816,89.3141514021752 M364.3050186098695,118.63095949880532 C364.3050186098695,122.84861849481028 367.21823722026784,126.62114452443285 370.86001451348983,127.27001513920284 M370.86001451348983,127.27001513920284 C371.5885731963136,127.39982547145455 372.2128101337585,127.39062227495599 373.14933489340876,127.19620852072595 M373.14933489340876,127.19620852072595 C376.1665365422203,126.649176555735 379.7043307970291,126.55657127686924 384.07466677307485,127.33525222389093 M384.07466677307485,127.33525222389093 C391.9824582969639,128.74421634619702 396.04050645080446,133.68491466842588 396.04050645080446,141.27646550079976 M396.04050645080446,141.27646550079976 L396.04050645080446,142.3610848389651 M396.04050645080446,142.3610848389651 C392.0864413353772,140.08985664078162 388.0283931815366,138.2825902437841 382.4095833306009,137.28146351123024 M382.4095833306009,137.28146351123024 C377.1557780068631,136.34537115417137 372.5269515765615,136.54920653614954 368.85662704595694,138.02060977455605 M368.85662704595694,138.02060977455605 C363.29539155507723,140.250063830346 359.93468263382374,145.38959740476432 359.93468263382374,153.88321528541863 M359.93468263382374,153.88321528541863 L359.93468263382374,154.12406746394794 M359.93468263382374,154.12406746394794 C359.93468263382374,166.89747054122745 368.5710328405365,175.42566538183587 379.08009385958417,177.29810851469196 M383.8663619892829,165.49792083632317 C378.76780603737893,164.58948990587928 375.2303504895356,161.06701925128456 375.2303504895356,156.12641145229995 M375.2303504895356,156.12641145229995 L375.2303504895356,155.88555927377064 M375.2303504895356,155.88555927377067 C375.2303504895356,152.49752321090918 376.65821994968326,150.27349109711642 379.2003333750907,149.25437851038149 M379.2003333750907,149.25437851038149 C380.9983559361582,148.5335658963953 383.353796146939,148.41553277398089 386.1556823692017,148.9147565016204 M386.15568236920177,148.9147565016204 C390.00542573925026,149.60068129770258 393.5432199940591,151.19482580332541 396.24847252763095,153.12312177788255 M396.24847252763095,153.12312177788255 L396.24847252763095,156.37658752498683 M396.24847252763095,156.3765875249868 C396.24847252763095,160.5828133054176 394.23682771279346,163.65408517891035 390.87853756964836,165.00039637044918 M390.8785375696483,165.00039637044918 C388.9451700231504,165.77546768777447 386.5654831966856,165.97883449363158 383.86636198928284,165.49792083632317 M425.5906569502338,104.84704544598486 L425.5906569502338,175.94472566435417 M425.5906569502338,175.94472566435417 C425.5906569502338,181.00575955260342 429.12845120504255,185.7333359834576 433.4984484741228,186.51195658164983 M433.4984484741228,186.51195658164983 C434.7692359215555,186.73837806925488 435.96960291204346,186.60582935865006 437.0330568445995,186.17949933055266 M437.0330568445995,186.1794993305527 C439.62690295046184,185.139647533179 441.40623999801187,182.35206218960323 441.40623999801187,178.76265390896634 M441.40623999801187,178.76265390896634 L441.40623999801187,107.66497369059702 M499.21222877931416,87.8652780477096 L499.21222877931416,84.49102316309724 M441.40623999801187,107.66497369059704 C441.40623999801187,102.60393980234778 437.86878445016856,97.87642372032306 433.4984484741228,97.09774277330138 M499.21222877931416,84.49102316309725 C499.21222877931416,79.429989274848 495.67477323147085,74.70247319282328 491.3044372554251,73.9237922458016 M433.4984484741228,97.09774277330138 C432.22776892493107,96.8713405103749 431.0274515148074,97.0038929238463 429.9640123484645,97.43021703228898 M429.9640123484645,97.43021703228898 C427.3701751734138,98.47006524937296 425.5906569502338,101.25762626675763 425.5906569502338,104.84704544598485 M491.3044372554251,73.9237922458016 C490.03375770623336,73.69738998287512 488.8334402961097,73.82994239634651 487.7700011297668,74.2562665047892 M457.01385696896347,110.44584775389701 L457.01385696896347,181.54352797226633 M457.01385696896347,181.5435279722663 C457.01385696896347,186.60456186051556 460.5516512237723,191.33213829136977 464.9216484928525,192.11075888956196 M464.9216484928525,192.11075888956196 C466.1924359402852,192.33718037716702 467.39280293077314,192.20463166656222 468.4562568633292,191.77830163846482 M468.45625686332926,191.77830163846482 C471.0501029691916,190.73844984109112 472.82944001674156,187.95086449751537 472.82944001674156,184.36145621687848 M472.82944001674156,184.36145621687848 L472.82944001674156,113.26377599850916 M530.6354287980439,127.26443777378651 L530.6354287980439,90.0898254710094 M472.82944001674156,113.26377599850919 C472.82944001674156,108.20274211025992 469.2919844688983,103.47522602823523 464.9216484928525,102.69654508121351 M530.6354287980439,90.0898254710094 C530.6354287980439,85.02879158276015 527.0979732502005,80.30127550073544 522.7276372741549,79.52259455371373 M464.9216484928525,102.69654508121351 C463.6509689436608,102.47014281828704 462.45065153353715,102.60269523175843 461.38721236719425,103.02901934020112 M461.3872123671942,103.02901934020112 C458.7933751921435,104.0688675572851 457.01385696896347,106.85642857466976 457.01385696896347,110.445847753897 M522.7276372741549,79.52259455371373 C521.4569577249631,79.29619229078726 520.2566403148394,79.42874470425865 519.1932011484964,79.85506881270133 M580.625980154721,202.84506554132477 L595.569225452815,196.8544400964689 M554.7172682415483,208.83296692742977 C562.0918945176919,210.14693477889787 567.8831523730181,209.5864692469495 572.8029031381418,207.61418119786967 M572.8029031381418,207.61418119786967 C575.6576801747792,206.4697243135775 578.2190105923164,204.84989029342577 580.6259801547211,202.84506554132474 M580.625980154721,202.84506554132477 C582.0827588134028,201.65833598364762 583.3312326882929,199.59150927097625 583.3312326882929,196.69932179166594 M583.3312326882929,196.69932179166594 C583.3312326882929,191.99956617121063 579.8977601788628,187.5318216257631 575.8397120250222,186.8087822995392 M575.8397120250222,186.8087822995392 C574.6426436448285,186.5954956449094 573.5306574514607,186.7418453086108 572.5580411645286,187.13175926373538 M572.5580411645285,187.13175926373538 C572.0088074896339,187.35194257481407 571.5040164954586,187.6497943748454 571.0534438953235,188.00441330956738 M571.0534438953235,188.00441330956735 C569.3582816007925,189.26400977191153 567.6773746005534,190.27834213095176 565.8892563099961,190.99518420348275 M565.8892563099962,190.99518420348275 C562.8480165698512,192.21439246833958 559.4966428548329,192.5730398280214 555.2375221405799,191.8141745669906 M555.2375221405799,191.81417456699063 C542.7514285638185,189.58947531635064 534.1154170640714,176.0003069363225 534.1154170640714,161.53976180716262 M607.8315821065361,166.96978000587654 C599.7586726473812,163.1538278203722 594.0247919029791,154.28327578563423 592.3942982254779,144.22645825131448 M534.1154170640714,161.53976180716262 L534.1154170640714,161.2989096286333 M534.1154170640714,161.2989096286333 C534.1154170640714,150.80103927656566 538.7766128449052,142.5307928175928 546.0287933953342,139.62345264687164 M546.0287933953342,139.62345264687164 C548.7663041458308,138.52600686248218 551.8729958703873,138.19270411379202 555.2375221405799,138.79217576007113 M555.2375221405799,138.79217576007113 C560.9603150299288,139.81182958328114 565.6426001212143,142.8153304786018 570.1169191356734,147.46852697709886 M570.1169191356734,147.46852697709886 C571.26140997215,148.51582056421924 572.718188630832,149.73957412879383 574.903187265372,150.12888442788991 M574.903187265372,150.12888442788991 C576.2006464845039,150.36005813604717 577.424698202798,150.227649090805 578.5045746158827,149.79473542389556 M578.5045746158827,149.7947354238956 C581.0621325577252,148.76943125619584 582.8109787892611,146.0585290854916 582.8109787892611,142.50000784447113 M636.310563397185,126.6207848963958 C638.8681213390275,125.59548072869605 640.6169675705634,122.88457855799183 640.6169675705634,119.32605731697134 M579.6894553950708,134.59313437796652 L637.4954441763731,111.41918385046674 M582.8109787892611,142.5000078444711 C582.8109787892611,139.24654209736684 581.3545388375446,136.3357068297414 579.6894553950708,134.59313437796652 M640.6169675705634,119.32605731697133 C640.6169675705634,116.07259156986706 639.160527618847,113.16175630224163 637.495444176373,111.41918385046674 M579.6894553950708,134.59313437796652 C573.6547133904821,128.3360470378826 566.2671757656248,123.64588688131758 555.3418438859587,121.6992750370076 M637.495444176373,111.41918385046674 C631.4607021717844,105.16209651038281 624.073164546927,100.4719363538178 613.1478326672609,98.52532450950781 M555.3418438859587,121.6992750370076 C548.7745854969581,120.52915928167154 542.7901804692194,121.15561801529961 537.6123799027573,123.23135612995087 M537.6123799027574,123.23135612995088 C525.1523560891465,128.22647828797696 517.3633092566432,141.61425254866958 517.3633092566432,158.55496904898655 M613.1478326672609,98.52532450950781 C606.5805742782604,97.35520875417176 600.5961692505217,97.98166748779983 595.4183686840596,100.05740560245108 M517.3633092566431,158.55496904898655 L517.3633092566431,158.79582122751586 M517.3633092566431,158.79582122751586 C517.3633092566431,183.017548132772 533.2828753428344,205.01391195026372 554.7172682415483,208.83296692742977 M592.383853755624,206.14506023597252 C592.383853755624,210.9652419456925 595.6093601882276,215.39593230982786 599.7713913804814,216.13749872670783 M607.1592677123042,211.66984470450453 L631.0909470677633,202.07582918611962 M599.7713913804814,216.13749872670783 C601.0701479868397,216.36890359574602 602.2738885511012,216.25343471650385 603.3394235529859,215.82627040464658 M603.3394235529859,215.82627040464658 C605.0057695336747,215.15824586026457 606.334112605289,213.7279223088294 607.1592677123042,211.66984470450453 M607.1592677123042,211.66984470450453 L612.2574849572427,198.72019287067405 M612.2574849572427,198.72019287067405 L644.3052606203829,204.4302784201818 M644.3052606203828,204.4302784201818 L649.1955117884947,218.55709452221387 M649.1955117884947,218.55709452221387 C650.6522904471767,222.67264329870704 653.149576903922,225.64811216272554 656.8953372355573,226.31550986815165 M656.8953372355573,226.31550986815165 C658.1252544577146,226.53464933764712 659.2773556028527,226.40940317386497 660.2942792411399,226.0017267621169 M660.2942792411397,226.0017267621169 C662.8045935618638,224.995362177696 664.4911796442067,222.26795852366774 664.4911796442067,218.7514781020292 M663.6586379229698,214.86757830756676 L677.0812562593812,209.48655983810804 M664.4911796442067,218.75147810202918 C664.4911796442067,217.5464326745992 664.1788918220016,216.2857456263714 663.6586379229698,214.86757830756676 M638.2701799088286,143.9460864969189 L696.0761686901309,120.77213596941911 M663.6586379229698,214.86757830756676 L638.2701799088287,143.9460864969189 M702.3272131381854,138.23414163292787 L696.076168690131,120.77213596941911 M638.2701799088286,143.9460864969189 C636.501452134907,139.05161537808604 633.3799287407167,135.7240714427721 629.0099314716365,134.9454508445799 M696.076168690131,120.77213596941911 C694.3074409162093,115.87766485058626 691.185917522019,112.55012091527233 686.8159202529388,111.77150031708014 M629.0099314716365,134.9454508445799 L628.0734067119863,134.77858633101602 M686.8159202529388,111.77150031708014 L685.8793954932886,111.60463580351625 M628.0734067119863,134.77858633101602 C626.3892040220043,134.47850492931144 624.8750212847352,134.6202959071651 623.5487119584318,135.1520025237269 M623.5487119584318,135.1520025237269 C621.4333824614588,136.00002090634936 619.7959471253871,137.83986887265272 618.7088365294153,140.4607605468806 M685.8793954932886,111.60463580351623 C684.1951928033066,111.30455440181166 682.6810100660375,111.44634537966532 681.3547007397341,111.97805199622714 M618.7088365294153,140.46076054688064 L593.3203785152742,202.3351179320608 M593.3203785152742,202.33511793206077 C592.8001246162426,203.56789364664542 592.383853755624,204.8195887192779 592.383853755624,206.14506023597252 M618.1885826303836,183.3880295970645 L634.8716907589335,176.69990730097126 M638.3745016542075,186.98463878869836 L618.1885826303836,183.3880295970645 M618.1885826303836,183.3880295970645 L628.2813727888127,157.3498330983123 M628.2813727888127,157.3498330983123 L638.3745016542074,186.98463878869836 M677.0812562593812,154.11468322096087 L677.0812562593812,219.91047737255164 M677.0812562593812,219.91047737255164 C677.0812562593812,225.09193735006556 680.6190505141901,229.81951378091975 685.0930308216836,230.61666146976805 M685.0930308216836,230.61666146976805 L705.4869159223339,234.25032484271412 M705.4869159223339,234.25032484271412 C712.617526022278,235.52081531665033 719.0616067582024,234.87996115548071 724.5549654197638,232.6777183682418 M724.5549654197638,232.67771836824184 C736.6967619252327,227.81017094859249 744.1940092344731,215.31479360496814 744.1940092344731,198.9703387689462 M782.3609542010661,209.50376784074203 C794.502750706535,204.63622042109267 801.9999980157754,192.14084307746833 801.9999980157754,175.79638824144638 M744.1940092344731,198.97033876894616 L744.1940092344731,198.72948659041685 M801.9999980157754,175.79638824144638 L801.9999980157754,175.55553606291707 M744.1940092344731,198.72948659041685 C744.1940092344731,174.98985630961104 728.3780874797295,153.97576021545487 705.4869159223339,149.89714492261493 M801.9999980157754,175.55553606291707 C801.9999980157754,151.81590578211126 786.1840762610318,130.80180968795509 763.2929047036362,126.72319439511514 M705.4869159223339,149.89714492261493 L685.0930308216836,146.26348154966885 M763.2929047036362,126.72319439511514 L742.8990196029858,123.08953102216908 M685.0930308216836,146.26348154966885 C683.7814060127452,146.02978389942885 682.5502436581208,146.16256776968714 681.4650961517274,146.59759457501247 M681.4650961517275,146.59759457501244 C678.8487822788875,147.64645351734433 677.0812562593812,150.45225797000708 677.0812562593812,154.1146832209609 M742.8990196029858,123.08953102216908 C741.5873947940474,122.85583337192907 740.3562324394231,122.98861724218735 739.2710849330297,123.42364404751267 M693.1051440909513,215.29400313680455 L727.0073354905047,201.7028904713085 M705.4869159223339,217.50011494795893 L693.1051440909513,215.29400313680455 M693.1051440909513,215.29400313680455 L693.1051440909513,164.44124300621573 M693.1051440909513,164.44124300621573 L705.4869159223339,166.64735481737011 M705.4869159223339,166.64735481737011 C718.5975851435057,168.9833373096057 727.4419014270449,181.04290425715988 727.4419014270449,195.9855460107701 M727.4419014270449,195.9855460107701 L727.4419014270449,196.2263981892994 M727.4419014270449,196.2263981892994 C727.4419014270449,206.54467136152758 723.2247078239449,213.8705873030734 716.2976606108614,216.64758416450545 M716.2976606108614,216.64758416450542 C713.1931470009531,217.89215840888255 709.544335475515,218.22304227378757 705.4869159223339,217.50011494795893" />
    <path class="edge outline visible" d="M36.625586036150594,115.44805673147883 L66.73625667491585,103.37693388688027 M83.45717101533023,123.77560412324954 L111.88432920894797,112.37938771894866 M97.6806285898773,41.82896887307713 L155.4866173711796,18.655018345577332 M51.50009721780219,33.373865720706064 L109.30608599910448,10.199915193206294 M6.339632288832263,25.65163838600222 L64.14562107013455,2.477687858502435 M141.59183226561385,132.30098172303457 L147.9698152994186,129.74410022326805 M158.89048763137765,136.63211021935336 L179.25531889978055,128.4680150751579 M119.77696418591512,68.2722043232054 L177.5829529672174,45.09825379570562 M120.69551720782626,93.80471216808647 L141.9387899830648,85.28845697179449 M204.58999659349843,144.01383494748316 L221.2088721410537,137.35146297044164 M204.60060218468783,95.25656873400101 L262.4065909659901,72.08261820650125 M183.15552588578407,60.32393767234099 L240.96151466708636,37.14998714484119 M175.23067919304083,76.00599951011975 L178.78234273237172,74.5821664975548 M256.7296446539175,135.9433940948078 L281.584648663826,125.97922523566818 M265.58455902128344,129.0493617332948 L281.5846486638259,122.63505599043077 M230.38436282526413,87.07947585582306 L288.1903516065664,63.90552532832328 M258.00591083837855,152.41809908076115 L281.584648663826,142.9655749498264 M293.02687631337335,160.52133257767804 L327.7832626392358,146.587780116921 M311.80681184404943,115.47818261410993 L320.9570993600274,111.80990680604586 M304.9610173139675,98.47317787361214 L329.3107192519514,88.71158050339773 M285.9576607045745,95.1500080524393 L343.7636494858768,71.97605752493952 M339.22549028878313,168.75273187481184 L360.62933933000056,160.1721029601191 M353.274399695528,121.75700690161463 L364.40952827124204,117.29302446361484 M353.25664151251766,97.33704705746412 L411.06263029381995,74.16309652996433 M335.71473534885786,81.74961707014654 L393.52072413016015,58.57566654264676 M324.2094544224607,103.12875327067026 L327.7832626392358,101.69604263711203 M389.75294210374454,176.51687932950418 L396.1309251375492,173.95999782973766 M407.05159746950835,180.848007825823 L425.5906569502338,173.4158497347625 M367.9380740240458,112.48810192967498 L425.7440628053481,89.3141514021752 M368.8566270459569,138.02060977455602 L390.09989982119555,129.5043545782641 M437.0330568445995,186.1794993305527 L457.0138569689635,178.16935914709057 M429.9640123484645,97.43021703228897 L487.7700011297668,74.25626650478921 M468.45625686332926,191.77830163846482 L518.8520855441011,171.57502399782146 M461.38721236719414,103.0290193402011 L519.1932011484965,79.85506881270135 M572.8029031381418,207.6141811978697 L594.7672921507833,198.80883636982037 M572.5580411645285,187.13175926373538 L604.8745726715313,174.17632474644 M578.5045746158826,149.7947354238956 L636.310563397185,126.62078489639582 M537.6123799027573,123.23135612995088 L595.4183686840597,100.0574056024511 M603.3394235529859,215.8262704046466 L635.624249229857,202.88354649665655 M660.2942792411397,226.0017267621169 L677.0812562593812,219.27196427334098 M623.5487119584318,135.1520025237269 L681.3547007397342,111.97805199622715 M724.5549654197637,232.6777183682418 L782.3609542010661,209.50376784074206 M681.4650961517273,146.59759457501244 L739.2710849330297,123.42364404751268" />
  </g>
</svg>
